<?xml version="1.0" encoding="UTF-8" standalone="no"?>
<svg
   xmlns:dc="http://purl.org/dc/elements/1.1/"
   xmlns:cc="http://creativecommons.org/ns#"
   xmlns:rdf="http://www.w3.org/1999/02/22-rdf-syntax-ns#"
   xmlns:svg="http://www.w3.org/2000/svg"
   xmlns="http://www.w3.org/2000/svg"
   xmlns:xlink="http://www.w3.org/1999/xlink"
   xmlns:sodipodi="http://sodipodi.sourceforge.net/DTD/sodipodi-0.dtd"
   xmlns:inkscape="http://www.inkscape.org/namespaces/inkscape"
   inkscape:export-ydpi="95.32"
   inkscape:export-xdpi="95.32"
   inkscape:export-filename="\\euler\nineties\projects\prml-seminar\fig\wolfe-rule.png"
   sodipodi:docname="wolfe-rule.svg"
   inkscape:version="0.48.4 r9939"
   version="1.1"
   id="svg2"
   viewBox="0 0 600 480"
   height="480"
   width="600">
  <sodipodi:namedview
     pagecolor="#ffffff"
     bordercolor="#666666"
     borderopacity="1"
     objecttolerance="10"
     gridtolerance="10"
     guidetolerance="10"
     inkscape:pageopacity="0"
     inkscape:pageshadow="2"
     inkscape:window-width="1366"
     inkscape:window-height="746"
     id="namedview168"
     showgrid="false"
     inkscape:zoom="1.6870313"
     inkscape:cx="295.3684"
     inkscape:cy="329.32682"
     inkscape:window-x="-8"
     inkscape:window-y="-8"
     inkscape:window-maximized="1"
     inkscape:current-layer="svg2" />
  <metadata
     id="metadata172">
    <rdf:RDF>
      <cc:Work
         rdf:about="">
        <dc:format>image/svg+xml</dc:format>
        <dc:type
           rdf:resource="http://purl.org/dc/dcmitype/StillImage" />
        <dc:title>Gnuplot</dc:title>
      </cc:Work>
    </rdf:RDF>
  </metadata>
  <defs
     id="defs170">
    <marker
       inkscape:stockid="Arrow1Mend"
       orient="auto"
       refY="0.0"
       refX="0.0"
       id="Arrow1Mend"
       style="overflow:visible;">
      <path
         id="path4087"
         d="M 0.0,0.0 L 5.0,-5.0 L -12.5,0.0 L 5.0,5.0 L 0.0,0.0 z "
         style="fill-rule:evenodd;stroke:#000000;stroke-width:1.0pt;"
         transform="scale(0.4) rotate(180) translate(10,0)" />
    </marker>
    <defs
       id="defs11">
      <circle
         stroke-width="0.5"
         r="0.5"
         id="gpDot" />
      <path
         d="M-1,0 h2 M0,-1 v2"
         stroke="currentColor"
         stroke-width="0.222"
         id="gpPt0" />
      <path
         d="M-1,-1 L1,1 M1,-1 L-1,1"
         stroke="currentColor"
         stroke-width="0.222"
         id="gpPt1" />
      <path
         d="M-1,0 L1,0 M0,-1 L0,1 M-1,-1 L1,1 M-1,1 L1,-1"
         stroke="currentColor"
         stroke-width="0.222"
         id="gpPt2" />
      <rect
         height="2"
         width="2"
         y="-1"
         x="-1"
         stroke="currentColor"
         stroke-width="0.222"
         id="gpPt3" />
      <rect
         height="2"
         width="2"
         y="-1"
         x="-1"
         fill="currentColor"
         stroke="currentColor"
         stroke-width="0.222"
         id="gpPt4" />
      <circle
         r="1"
         cy="0"
         cx="0"
         stroke="currentColor"
         stroke-width="0.222"
         id="gpPt5" />
      <use
         stroke="none"
         fill="currentColor"
         id="gpPt6"
         xlink:href="#gpPt5" />
      <path
         d="M0,-1.33 L-1.33,0.67 L1.33,0.67 z"
         stroke="currentColor"
         stroke-width="0.222"
         id="gpPt7" />
      <use
         stroke="none"
         fill="currentColor"
         id="gpPt8"
         xlink:href="#gpPt7" />
      <use
         transform="rotate(180)"
         stroke="currentColor"
         id="gpPt9"
         xlink:href="#gpPt7" />
      <use
         stroke="none"
         fill="currentColor"
         id="gpPt10"
         xlink:href="#gpPt9" />
      <use
         transform="rotate(45)"
         stroke="currentColor"
         id="gpPt11"
         xlink:href="#gpPt3" />
      <use
         stroke="none"
         fill="currentColor"
         id="gpPt12"
         xlink:href="#gpPt11" />
    </defs>
    <marker
       inkscape:stockid="Arrow1Mendc"
       orient="auto"
       refY="0.0"
       refX="0.0"
       id="Arrow1Mendc"
       style="overflow:visible;">
      <path
         id="path4539"
         d="M 0.0,0.0 L 5.0,-5.0 L -12.5,0.0 L 5.0,5.0 L 0.0,0.0 z "
         style="stroke:#0000ff;stroke-width:1.0pt;fill:#0000ff;fill-rule:evenodd"
         transform="scale(0.4) rotate(180) translate(10,0)" />
    </marker>
    <marker
       inkscape:stockid="Arrow1MendV"
       orient="auto"
       refY="0.0"
       refX="0.0"
       id="Arrow1MendV"
       style="overflow:visible;">
      <path
         id="path4817"
         d="M 0.0,0.0 L 5.0,-5.0 L -12.5,0.0 L 5.0,5.0 L 0.0,0.0 z "
         style="stroke:#0000ff;stroke-width:1.0pt;fill:#0000ff;fill-rule:evenodd"
         transform="scale(0.4) rotate(180) translate(10,0)" />
    </marker>
    <marker
       inkscape:stockid="Arrow1Mend4"
       orient="auto"
       refY="0.0"
       refX="0.0"
       id="Arrow1Mend4"
       style="overflow:visible;">
      <path
         id="path5102"
         d="M 0.0,0.0 L 5.0,-5.0 L -12.5,0.0 L 5.0,5.0 L 0.0,0.0 z "
         style="stroke:#008000;stroke-width:1.0pt;fill:#008000;fill-rule:evenodd"
         transform="scale(0.4) rotate(180) translate(10,0)" />
    </marker>
  </defs>
  <title
     id="title4">Gnuplot</title>
  <desc
     id="desc6">Produced by GNUPLOT 4.6 patchlevel 0 </desc>
  <path
     inkscape:connector-curvature="0"
     id="path4030"
     d="m 51.569879,248.82468 394.776311,0"
     style="fill:none;stroke:#000000;stroke-width:1px;stroke-linecap:butt;stroke-linejoin:miter;stroke-opacity:1;marker-end:url(#Arrow1Mend)" />
  <path
     inkscape:connector-curvature="0"
     id="path4220"
     d="m 59.275723,258.3088 0,-246.587012"
     style="fill:none;stroke:#000000;stroke-width:1px;stroke-linecap:butt;stroke-linejoin:miter;stroke-opacity:1;marker-end:url(#Arrow1Mend)" />
  <path
     style="fill:none;stroke:#ff0000;stroke-width:1px;stroke-linecap:butt;stroke-linejoin:miter;stroke-opacity:1"
     d="M 59.275723,48.472737 C 71.329807,62.541163 81.894193,80.044981 96.28817,92.138292"
     id="path7317" />
  <path
     style="fill:none;stroke:#ff0000;stroke-width:1px;stroke-linecap:butt;stroke-linejoin:miter;stroke-opacity:1"
     d="m 96.28817,92.138292 c 7.2448,6.086823 15.45975,10.802988 25.32312,13.020578 18.78156,2.58848 35.22349,-6.499712 51.20726,-15.658332"
     id="path5691" />
  <path
     style="fill:none;stroke:#000000;stroke-width:1px;stroke-linecap:butt;stroke-linejoin:miter;stroke-opacity:1"
     d="m 172.81855,89.500538 c 5.69232,-3.261668 11.32653,-6.532269 16.98761,-9.287572 12.62355,-5.93595 28.00992,-12.511847 41.71615,-6.866603 4.43879,2.285697 8.42847,5.077197 12.10062,8.221637"
     id="path7309" />
  <path
     style="fill:none;stroke:#000000;stroke-width:1px;stroke-linecap:butt;stroke-linejoin:miter;stroke-opacity:1"
     d="m 243.62293,81.568 c 13.56621,11.616646 22.79889,28.05028 34.33361,41.59333 1.42393,1.94317 2.81992,3.9216 4.19623,5.92616"
     id="path5695" />
  <path
     style="fill:none;stroke:#ff0000;stroke-width:1px;stroke-linecap:butt;stroke-linejoin:miter;stroke-opacity:1"
     d="m 282.15277,129.08749 c 14.17513,20.64587 26.26218,44.06447 45.28527,60.287"
     id="path7313" />
  <path
     style="fill:none;stroke:#ff0000;stroke-width:1px;stroke-linecap:butt;stroke-linejoin:miter;stroke-opacity:1"
     d="m 327.43804,189.37449 c 4.5863,3.91111 9.57576,7.40394 15.09484,10.33881 18.19074,11.04269 37.57545,5.89491 52.65966,-5.94696 6.31565,-4.92781 12.64666,-11.03477 18.60659,-17.73664"
     id="path5705" />
  <path
     id="path4445"
     d="m 413.79913,176.0297 c 9.64348,-10.844 18.31546,-23.24554 24.37888,-34.7297"
     style="fill:none;stroke:#000000;stroke-width:1px;stroke-linecap:butt;stroke-linejoin:miter;stroke-opacity:1" />
  <g
     transform="matrix(2.0625112,0,0,2.0625112,203.55053,135.27268)"
     id="equation_01"
     style="fill:#ff0000"
     title="$\alpha$">
    <defs
       id="defs4588">
      <path
         inkscape:connector-curvature="0"
         d="m 4.77,-2.36 c 0,-1.57 -0.93,-2.06 -1.67,-2.06 -1.37,0 -2.69,1.43 -2.69,2.84 0,0.93 0.6,1.69 1.62,1.69 0.63,0 1.35,-0.23 2.11,-0.84 0.13,0.53 0.46,0.84 0.91,0.84 0.53,0 0.84,-0.55 0.84,-0.71 0,-0.07 -0.06,-0.1 -0.12,-0.1 -0.07,0 -0.1,0.03 -0.13,0.1 -0.18,0.49 -0.54,0.49 -0.56,0.49 -0.31,0 -0.31,-0.78 -0.31,-1.02 0,-0.21 0,-0.23 0.1,-0.35 0.94,-1.18 1.15,-2.34 1.15,-2.35 0,-0.02 -0.01,-0.1 -0.12,-0.1 -0.1,0 -0.1,0.03 -0.15,0.21 -0.18,0.63 -0.51,1.39 -0.98,1.98 V -2.36 z M 4.1,-0.99 c -0.88,0.77 -1.65,0.88 -2.05,0.88 -0.6,0 -0.9,-0.45 -0.9,-1.09 0,-0.49 0.26,-1.57 0.58,-2.08 0.47,-0.73 1.01,-0.92 1.36,-0.92 0.99,0 0.99,1.31 0.99,2.09 0,0.37 0,0.95 0.02,1.12 z"
         id="equation_01_00" />
    </defs>
    <g
       id="equation_01_g"
       style="fill:#ff0000">
      <use
         height="480"
         width="600"
         x="77"
         xlink:href="#equation_01_00"
         y="63"
         id="use4592"
         style="fill:#ff0000" />
    </g>
  </g>
  <g
     transform="matrix(2.0625112,0,0,2.0625112,-145.06001,-105.75268)"
     id="equation_03"
     style="fill:#000000"
     title="$f(\alpha)$">
    <defs
       id="defs4821">
      <path
         inkscape:connector-curvature="0"
         d="m 4.77,-2.36 c 0,-1.57 -0.93,-2.06 -1.67,-2.06 -1.37,0 -2.69,1.43 -2.69,2.84 0,0.93 0.6,1.69 1.62,1.69 0.63,0 1.35,-0.23 2.11,-0.84 0.13,0.53 0.46,0.84 0.91,0.84 0.53,0 0.84,-0.55 0.84,-0.71 0,-0.07 -0.06,-0.1 -0.12,-0.1 -0.07,0 -0.1,0.03 -0.13,0.1 -0.18,0.49 -0.54,0.49 -0.56,0.49 -0.31,0 -0.31,-0.78 -0.31,-1.02 0,-0.21 0,-0.23 0.1,-0.35 0.94,-1.18 1.15,-2.34 1.15,-2.35 0,-0.02 -0.01,-0.1 -0.12,-0.1 -0.1,0 -0.1,0.03 -0.15,0.21 -0.18,0.63 -0.51,1.39 -0.98,1.98 V -2.36 z M 4.1,-0.99 c -0.88,0.77 -1.65,0.88 -2.05,0.88 -0.6,0 -0.9,-0.45 -0.9,-1.09 0,-0.49 0.26,-1.57 0.58,-2.08 0.47,-0.73 1.01,-0.92 1.36,-0.92 0.99,0 0.99,1.31 0.99,2.09 0,0.37 0,0.95 0.02,1.12 z"
         id="equation_03_00" />
      <path
         inkscape:connector-curvature="0"
         d="m 3.67,-4 h 0.86 c 0.2,0 0.3,0 0.3,-0.2 0,-0.11 -0.1,-0.11 -0.27,-0.11 H 3.73 l 0.21,-1.14 c 0.04,-0.21 0.18,-0.92 0.24,-1.04 0.09,-0.19 0.26,-0.34 0.47,-0.34 0.04,0 0.3,0 0.49,0.18 -0.44,0.04 -0.54,0.39 -0.54,0.54 0,0.23 0.18,0.35 0.37,0.35 0.26,0 0.55,-0.22 0.55,-0.6 0,-0.46 -0.46,-0.69 -0.87,-0.69 -0.34,0 -0.97,0.18 -1.27,1.17 -0.06,0.21 -0.09,0.31 -0.33,1.57 H 2.36 c -0.19,0 -0.3,0 -0.3,0.19 C 2.06,-4 2.15,-4 2.34,-4 H 3 L 2.25,-0.05 C 2.07,0.92 1.9,1.83 1.38,1.83 1.34,1.83 1.09,1.83 0.9,1.65 1.36,1.62 1.45,1.26 1.45,1.11 1.45,0.88 1.27,0.76 1.08,0.76 c -0.26,0 -0.55,0.22 -0.55,0.6 0,0.45 0.44,0.69 0.85,0.69 0.55,0 0.95,-0.59 1.13,-0.97 0.32,-0.63 0.55,-1.84 0.56,-1.91 L 3.67,-4 z"
         id="equation_03_01" />
      <path
         inkscape:connector-curvature="0"
         d="M 3.31,2.4 C 3.31,2.37 3.31,2.35 3.14,2.18 1.89,0.92 1.57,-0.97 1.57,-2.5 c 0,-1.74 0.38,-3.48 1.61,-4.73 0.13,-0.12 0.13,-0.14 0.13,-0.17 0,-0.07 -0.04,-0.1 -0.1,-0.1 -0.1,0 -1,0.68 -1.59,1.95 -0.51,1.1 -0.63,2.21 -0.63,3.05 0,0.78 0.11,1.99 0.66,3.12 0.6,1.23 1.46,1.88 1.56,1.88 0.06,0 0.1,-0.03 0.1,-0.1 z"
         id="equation_03_02" />
      <path
         inkscape:connector-curvature="0"
         d="M 2.89,-2.5 C 2.89,-3.28 2.78,-4.49 2.23,-5.62 1.63,-6.85 0.77,-7.5 0.67,-7.5 c -0.06,0 -0.1,0.04 -0.1,0.1 0,0.03 0,0.05 0.19,0.23 0.98,0.99 1.55,2.58 1.55,4.67 0,1.71 -0.37,3.47 -1.61,4.73 -0.13,0.12 -0.13,0.14 -0.13,0.17 0,0.06 0.04,0.1 0.1,0.1 0.1,0 1,-0.68 1.59,-1.95 0.51,-1.1 0.63,-2.21 0.63,-3.05 z"
         id="equation_03_03" />
    </defs>
    <g
       id="equation_03_g">
      <use
         height="480"
         width="600"
         x="77"
         xlink:href="#equation_03_01"
         y="63"
         id="use4828" />
      <use
         height="480"
         width="600"
         x="82.972298"
         xlink:href="#equation_03_02"
         y="63"
         id="use4830" />
      <use
         height="480"
         width="600"
         x="86.861198"
         xlink:href="#equation_03_00"
         y="63"
         id="use4832" />
      <use
         height="480"
         width="600"
         x="93.295197"
         xlink:href="#equation_03_03"
         y="63"
         id="use4834" />
    </g>
  </g>
  <g
     transform="matrix(2.0625112,0,0,2.0625112,-40.734737,95.192024)"
     id="equation_05"
     style="fill:#000000;stroke:none"
     title="$f'(0)$">
    <defs
       id="defs5158">
      <path
         inkscape:connector-curvature="0"
         d="m 2.03,-3.304 c 0.056,-0.119 0.063,-0.175 0.063,-0.224 0,-0.217 -0.196,-0.385 -0.413,-0.385 -0.266,0 -0.35,0.217 -0.385,0.329 l -0.924,3.031 c -0.007,0.014 -0.035,0.105 -0.035,0.112 0,0.084 0.217,0.154 0.273,0.154 0.049,0 0.056,-0.014 0.105,-0.119 L 2.03,-3.304 z"
         id="equation_05_00" />
      <path
         inkscape:connector-curvature="0"
         d="M 3.31,2.4 C 3.31,2.37 3.31,2.35 3.14,2.18 1.89,0.92 1.57,-0.97 1.57,-2.5 c 0,-1.74 0.38,-3.48 1.61,-4.73 0.13,-0.12 0.13,-0.14 0.13,-0.17 0,-0.07 -0.04,-0.1 -0.1,-0.1 -0.1,0 -1,0.68 -1.59,1.95 -0.51,1.1 -0.63,2.21 -0.63,3.05 0,0.78 0.11,1.99 0.66,3.12 0.6,1.23 1.46,1.88 1.56,1.88 0.06,0 0.1,-0.03 0.1,-0.1 z"
         id="equation_05_01" />
      <path
         inkscape:connector-curvature="0"
         d="M 2.89,-2.5 C 2.89,-3.28 2.78,-4.49 2.23,-5.62 1.63,-6.85 0.77,-7.5 0.67,-7.5 c -0.06,0 -0.1,0.04 -0.1,0.1 0,0.03 0,0.05 0.19,0.23 0.98,0.99 1.55,2.58 1.55,4.67 0,1.71 -0.37,3.47 -1.61,4.73 -0.13,0.12 -0.13,0.14 -0.13,0.17 0,0.06 0.04,0.1 0.1,0.1 0.1,0 1,-0.68 1.59,-1.95 0.51,-1.1 0.63,-2.21 0.63,-3.05 z"
         id="equation_05_02" />
      <path
         inkscape:connector-curvature="0"
         d="M 4.6,-3.2 C 4.6,-4 4.55,-4.8 4.2,-5.54 3.74,-6.5 2.92,-6.66 2.5,-6.66 1.9,-6.66 1.17,-6.4 0.76,-5.47 0.44,-4.78 0.39,-4 0.39,-3.2 c 0,0.75 0.04,1.65 0.45,2.41 C 1.27,0.02 2,0.22 2.49,0.22 3.03,0.22 3.79,0.01 4.23,-0.94 4.55,-1.63 4.6,-2.41 4.6,-3.2 z M 2.49,0 C 2.1,0 1.51,-0.25 1.33,-1.21 1.22,-1.81 1.22,-2.73 1.22,-3.32 c 0,-0.64 0,-1.3 0.08,-1.84 0.19,-1.19 0.94,-1.28 1.19,-1.28 0.33,0 0.99,0.18 1.18,1.17 0.1,0.56 0.1,1.32 0.1,1.95 0,0.75 0,1.43 -0.11,2.07 C 3.51,-0.3 2.94,0 2.49,0 z"
         id="equation_05_03" />
      <path
         inkscape:connector-curvature="0"
         d="m 3.67,-4 h 0.86 c 0.2,0 0.3,0 0.3,-0.2 0,-0.11 -0.1,-0.11 -0.27,-0.11 H 3.73 l 0.21,-1.14 c 0.04,-0.21 0.18,-0.92 0.24,-1.04 0.09,-0.19 0.26,-0.34 0.47,-0.34 0.04,0 0.3,0 0.49,0.18 -0.44,0.04 -0.54,0.39 -0.54,0.54 0,0.23 0.18,0.35 0.37,0.35 0.26,0 0.55,-0.22 0.55,-0.6 0,-0.46 -0.46,-0.69 -0.87,-0.69 -0.34,0 -0.97,0.18 -1.27,1.17 -0.06,0.21 -0.09,0.31 -0.33,1.57 H 2.36 c -0.19,0 -0.3,0 -0.3,0.19 C 2.06,-4 2.15,-4 2.34,-4 H 3 L 2.25,-0.05 C 2.07,0.92 1.9,1.83 1.38,1.83 1.34,1.83 1.09,1.83 0.9,1.65 1.36,1.62 1.45,1.26 1.45,1.11 1.45,0.88 1.27,0.76 1.08,0.76 c -0.26,0 -0.55,0.22 -0.55,0.6 0,0.45 0.44,0.69 0.85,0.69 0.55,0 0.95,-0.59 1.13,-0.97 0.32,-0.63 0.55,-1.84 0.56,-1.91 L 3.67,-4 z"
         id="equation_05_04" />
    </defs>
    <g
       id="equation_05_g"
       style="stroke:none">
      <use
         height="480"
         width="600"
         x="77"
         xlink:href="#equation_05_04"
         y="63"
         id="use5166"
         style="stroke:none" />
      <use
         height="480"
         width="600"
         x="82.972298"
         xlink:href="#equation_05_00"
         y="59.371101"
         id="use5168"
         style="stroke:none" />
      <use
         height="480"
         width="600"
         x="85.777802"
         xlink:href="#equation_05_01"
         y="63"
         id="use5170"
         style="stroke:none" />
      <use
         height="480"
         width="600"
         x="89.666702"
         xlink:href="#equation_05_03"
         y="63"
         id="use5172"
         style="stroke:none" />
      <use
         height="480"
         width="600"
         x="94.666702"
         xlink:href="#equation_05_02"
         y="63"
         id="use5174"
         style="stroke:none" />
    </g>
  </g>
  <g
     transform="matrix(2.0625112,0,0,2.0625112,-113.05112,136.09227)"
     title="$0$"
     style="fill:#000000"
     id="equation_06">
    <defs
       id="defs5367">
      <path
         inkscape:connector-curvature="0"
         id="equation_06_00"
         d="M 4.6,-3.2 C 4.6,-4 4.55,-4.8 4.2,-5.54 3.74,-6.5 2.92,-6.66 2.5,-6.66 1.9,-6.66 1.17,-6.4 0.76,-5.47 0.44,-4.78 0.39,-4 0.39,-3.2 c 0,0.75 0.04,1.65 0.45,2.41 C 1.27,0.02 2,0.22 2.49,0.22 3.03,0.22 3.79,0.01 4.23,-0.94 4.55,-1.63 4.6,-2.41 4.6,-3.2 z M 2.49,0 C 2.1,0 1.51,-0.25 1.33,-1.21 1.22,-1.81 1.22,-2.73 1.22,-3.32 c 0,-0.64 0,-1.3 0.08,-1.84 0.19,-1.19 0.94,-1.28 1.19,-1.28 0.33,0 0.99,0.18 1.18,1.17 0.1,0.56 0.1,1.32 0.1,1.95 0,0.75 0,1.43 -0.11,2.07 C 3.51,-0.3 2.94,0 2.49,0 z" />
    </defs>
    <g
       id="equation_06_g">
      <use
         height="480"
         width="600"
         id="use5371"
         y="63"
         xlink:href="#equation_06_00"
         x="77" />
    </g>
  </g>
  <g
     transform="matrix(2.0625112,0,0,2.0625112,290.80922,131.2004)"
     id="equation_07"
     style="fill:#000000;stroke:none"
     title="$\alpha$">
    <defs
       id="defs5574">
      <path
         inkscape:connector-curvature="0"
         d="m 4.77,-2.36 c 0,-1.57 -0.93,-2.06 -1.67,-2.06 -1.37,0 -2.69,1.43 -2.69,2.84 0,0.93 0.6,1.69 1.62,1.69 0.63,0 1.35,-0.23 2.11,-0.84 0.13,0.53 0.46,0.84 0.91,0.84 0.53,0 0.84,-0.55 0.84,-0.71 0,-0.07 -0.06,-0.1 -0.12,-0.1 -0.07,0 -0.1,0.03 -0.13,0.1 -0.18,0.49 -0.54,0.49 -0.56,0.49 -0.31,0 -0.31,-0.78 -0.31,-1.02 0,-0.21 0,-0.23 0.1,-0.35 0.94,-1.18 1.15,-2.34 1.15,-2.35 0,-0.02 -0.01,-0.1 -0.12,-0.1 -0.1,0 -0.1,0.03 -0.15,0.21 -0.18,0.63 -0.51,1.39 -0.98,1.98 V -2.36 z M 4.1,-0.99 c -0.88,0.77 -1.65,0.88 -2.05,0.88 -0.6,0 -0.9,-0.45 -0.9,-1.09 0,-0.49 0.26,-1.57 0.58,-2.08 0.47,-0.73 1.01,-0.92 1.36,-0.92 0.99,0 0.99,1.31 0.99,2.09 0,0.37 0,0.95 0.02,1.12 z"
         id="equation_07_00" />
    </defs>
    <g
       id="equation_07_g"
       style="stroke:none">
      <use
         height="480"
         width="600"
         x="77"
         xlink:href="#equation_07_00"
         y="63"
         id="use5578"
         style="stroke:none" />
    </g>
  </g>
  <path
     inkscape:connector-curvature="0"
     id="path5684"
     d="M 59.275723,48.472737 219.32018,264.23637"
     style="fill:none;stroke:#000000;stroke-width:1;stroke-linecap:butt;stroke-linejoin:miter;stroke-opacity:1;stroke-miterlimit:4;stroke-dasharray:4,4;stroke-dashoffset:0" />
  <path
     inkscape:connector-curvature="0"
     id="path5686"
     d="M 58.682966,48.472737 442.19689,185.39966"
     style="fill:none;stroke:#000000;stroke-width:1;stroke-linecap:butt;stroke-linejoin:miter;stroke-opacity:1;stroke-miterlimit:4;stroke-dasharray:4, 4;stroke-dashoffset:0" />
  <g
     id="g5973"
     transform="translate(51.973689,5.8679972)"
     style="stroke:none;fill:#000000">
    <g
       transform="matrix(2.071471,0,0,2.071471,274.49004,38.885983)"
       id="equation_08"
       style="fill:#000000;stroke:none"
       title="$c_1f'(0)$">
      <defs
         id="defs5819">
        <path
           inkscape:connector-curvature="0"
           d="m 2.03,-3.304 c 0.056,-0.119 0.063,-0.175 0.063,-0.224 0,-0.217 -0.196,-0.385 -0.413,-0.385 -0.266,0 -0.35,0.217 -0.385,0.329 l -0.924,3.031 c -0.007,0.014 -0.035,0.105 -0.035,0.112 0,0.084 0.217,0.154 0.273,0.154 0.049,0 0.056,-0.014 0.105,-0.119 L 2.03,-3.304 z"
           id="equation_08_00" />
        <path
           inkscape:connector-curvature="0"
           d="M 3.31,2.4 C 3.31,2.37 3.31,2.35 3.14,2.18 1.89,0.92 1.57,-0.97 1.57,-2.5 c 0,-1.74 0.38,-3.48 1.61,-4.73 0.13,-0.12 0.13,-0.14 0.13,-0.17 0,-0.07 -0.04,-0.1 -0.1,-0.1 -0.1,0 -1,0.68 -1.59,1.95 -0.51,1.1 -0.63,2.21 -0.63,3.05 0,0.78 0.11,1.99 0.66,3.12 0.6,1.23 1.46,1.88 1.56,1.88 0.06,0 0.1,-0.03 0.1,-0.1 z"
           id="equation_08_01" />
        <path
           inkscape:connector-curvature="0"
           d="M 2.89,-2.5 C 2.89,-3.28 2.78,-4.49 2.23,-5.62 1.63,-6.85 0.77,-7.5 0.67,-7.5 c -0.06,0 -0.1,0.04 -0.1,0.1 0,0.03 0,0.05 0.19,0.23 0.98,0.99 1.55,2.58 1.55,4.67 0,1.71 -0.37,3.47 -1.61,4.73 -0.13,0.12 -0.13,0.14 -0.13,0.17 0,0.06 0.04,0.1 0.1,0.1 0.1,0 1,-0.68 1.59,-1.95 0.51,-1.1 0.63,-2.21 0.63,-3.05 z"
           id="equation_08_02" />
        <path
           inkscape:connector-curvature="0"
           d="M 4.6,-3.2 C 4.6,-4 4.55,-4.8 4.2,-5.54 3.74,-6.5 2.92,-6.66 2.5,-6.66 1.9,-6.66 1.17,-6.4 0.76,-5.47 0.44,-4.78 0.39,-4 0.39,-3.2 c 0,0.75 0.04,1.65 0.45,2.41 C 1.27,0.02 2,0.22 2.49,0.22 3.03,0.22 3.79,0.01 4.23,-0.94 4.55,-1.63 4.6,-2.41 4.6,-3.2 z M 2.49,0 C 2.1,0 1.51,-0.25 1.33,-1.21 1.22,-1.81 1.22,-2.73 1.22,-3.32 c 0,-0.64 0,-1.3 0.08,-1.84 0.19,-1.19 0.94,-1.28 1.19,-1.28 0.33,0 0.99,0.18 1.18,1.17 0.1,0.56 0.1,1.32 0.1,1.95 0,0.75 0,1.43 -0.11,2.07 C 3.51,-0.3 2.94,0 2.49,0 z"
           id="equation_08_03" />
        <path
           inkscape:connector-curvature="0"
           d="m 3.96,-3.8 c -0.16,0 -0.3,0 -0.44,0.14 -0.16,0.15 -0.18,0.32 -0.18,0.39 0,0.24 0.18,0.35 0.37,0.35 0.29,0 0.56,-0.24 0.56,-0.64 0,-0.49 -0.47,-0.86 -1.18,-0.86 -1.35,0 -2.68,1.43 -2.68,2.84 0,0.9 0.58,1.69 1.62,1.69 1.43,0 2.27,-1.06 2.27,-1.18 0,-0.06 -0.06,-0.13 -0.12,-0.13 -0.05,0 -0.07,0.02 -0.13,0.1 -0.79,0.99 -1.88,0.99 -2,0.99 -0.63,0 -0.9,-0.49 -0.9,-1.09 0,-0.41 0.2,-1.38 0.54,-2 0.31,-0.57 0.86,-1 1.41,-1 0.34,0 0.72,0.13 0.86,0.4 z"
           id="equation_08_04" />
        <path
           inkscape:connector-curvature="0"
           d="m 3.67,-4 h 0.86 c 0.2,0 0.3,0 0.3,-0.2 0,-0.11 -0.1,-0.11 -0.27,-0.11 H 3.73 l 0.21,-1.14 c 0.04,-0.21 0.18,-0.92 0.24,-1.04 0.09,-0.19 0.26,-0.34 0.47,-0.34 0.04,0 0.3,0 0.49,0.18 -0.44,0.04 -0.54,0.39 -0.54,0.54 0,0.23 0.18,0.35 0.37,0.35 0.26,0 0.55,-0.22 0.55,-0.6 0,-0.46 -0.46,-0.69 -0.87,-0.69 -0.34,0 -0.97,0.18 -1.27,1.17 -0.06,0.21 -0.09,0.31 -0.33,1.57 H 2.36 c -0.19,0 -0.3,0 -0.3,0.19 C 2.06,-4 2.15,-4 2.34,-4 H 3 L 2.25,-0.05 C 2.07,0.92 1.9,1.83 1.38,1.83 1.34,1.83 1.09,1.83 0.9,1.65 1.36,1.62 1.45,1.26 1.45,1.11 1.45,0.88 1.27,0.76 1.08,0.76 c -0.26,0 -0.55,0.22 -0.55,0.6 0,0.45 0.44,0.69 0.85,0.69 0.55,0 0.95,-0.59 1.13,-0.97 0.32,-0.63 0.55,-1.84 0.56,-1.91 L 3.67,-4 z"
           id="equation_08_05" />
        <path
           inkscape:connector-curvature="0"
           d="m 2.345,-4.452 c 0,-0.189 -0.014,-0.196 -0.21,-0.196 C 1.687,-4.207 1.05,-4.2 0.763,-4.2 v 0.252 c 0.168,0 0.63,0 1.015,-0.196 v 3.57 c 0,0.231 0,0.322 -0.7,0.322 H 0.812 V 0 c 0.126,-0.007 0.987,-0.028 1.246,-0.028 0.217,0 1.099,0.021 1.253,0.028 V -0.252 H 3.045 c -0.7,0 -0.7,-0.091 -0.7,-0.322 v -3.878 z"
           id="equation_08_06" />
      </defs>
      <g
         id="equation_08_g"
         style="stroke:none;fill:#000000">
        <use
           height="480"
           width="600"
           x="77"
           xlink:href="#equation_08_04"
           y="63"
           id="use5829"
           style="stroke:none;fill:#000000" />
        <use
           height="480"
           width="600"
           x="81.327599"
           xlink:href="#equation_08_06"
           y="64.5"
           id="use5831"
           style="stroke:none;fill:#000000" />
        <use
           height="480"
           width="600"
           x="85.813698"
           xlink:href="#equation_08_05"
           y="63"
           id="use5833"
           style="stroke:none;fill:#000000" />
        <use
           height="480"
           width="600"
           x="91.786003"
           xlink:href="#equation_08_00"
           y="59.371101"
           id="use5835"
           style="stroke:none;fill:#000000" />
        <use
           height="480"
           width="600"
           x="94.591499"
           xlink:href="#equation_08_01"
           y="63"
           id="use5837"
           style="stroke:none;fill:#000000" />
        <use
           height="480"
           width="600"
           x="98.4804"
           xlink:href="#equation_08_03"
           y="63"
           id="use5839"
           style="stroke:none;fill:#000000" />
        <use
           height="480"
           width="600"
           x="103.48"
           xlink:href="#equation_08_02"
           y="63"
           id="use5841"
           style="stroke:none;fill:#000000" />
      </g>
    </g>
    <text
       sodipodi:linespacing="125%"
       id="text5969"
       y="172.1682"
       x="387.86417"
       style="font-size:23.06698608000000000px;font-style:normal;font-variant:normal;font-weight:normal;font-stretch:normal;text-align:start;line-height:125%;letter-spacing:0px;word-spacing:0px;writing-mode:lr-tb;text-anchor:start;fill:#000000;fill-opacity:1;stroke:none;font-family:HGGothicM;-inkscape-font-specification:HGGothicM"
       xml:space="preserve"><tspan
         y="172.1682"
         x="387.86417"
         id="tspan5971"
         sodipodi:role="line">傾き</tspan></text>
  </g>
  <text
     xml:space="preserve"
     style="font-size:23.06698608000000000px;font-style:normal;font-variant:normal;font-weight:normal;font-stretch:normal;text-align:start;line-height:125%;letter-spacing:0px;word-spacing:0px;writing-mode:lr-tb;text-anchor:start;fill:#000000;fill-opacity:1;stroke:none;font-family:HGGothicM;-inkscape-font-specification:HGGothicM"
     x="74.23288"
     y="227.29488"
     id="text5969-7"
     sodipodi:linespacing="125%"><tspan
       sodipodi:role="line"
       id="tspan5971-6"
       x="74.23288"
       y="227.29488">傾き</tspan></text>
  <path
     style="fill:none;stroke:#ff0000;stroke-width:1;stroke-linecap:butt;stroke-linejoin:miter;stroke-opacity:1;stroke-miterlimit:4;stroke-dasharray:4, 4;stroke-dashoffset:0"
     d="m 368.84554,205.04242 0,43.59083"
     id="path6102"
     inkscape:connector-curvature="0" />
  <path
     style="fill:none;stroke:#ff0000;stroke-width:1px;stroke-linecap:butt;stroke-linejoin:miter;stroke-opacity:1"
     d="M 58.679972,48.283064 430.04037,235.22069"
     id="path6104"
     inkscape:connector-curvature="0" />
  <g
     transform="translate(-18.375474,-14.226174)"
     id="g6772"
     style="stroke:none;fill:#ff0000">
    <text
       sodipodi:linespacing="125%"
       id="text6110"
       y="245.37695"
       x="448.68375"
       style="font-size:23.71825600000000000px;font-style:normal;font-variant:normal;font-weight:normal;font-stretch:normal;text-align:start;line-height:125%;letter-spacing:0px;word-spacing:0px;writing-mode:lr-tb;text-anchor:start;fill:#ff0000;fill-opacity:1;stroke:none;font-family:HGGothicM;-inkscape-font-specification:HGGothicM"
       xml:space="preserve"><tspan
         y="245.37695"
         x="448.68375"
         id="tspan6112"
         sodipodi:role="line">傾き</tspan></text>
    <g
       title="$\frac{f(\alpha)-f(0)}{\alpha}$"
       style="fill:#ff0000;stroke:none"
       id="equation_09"
       transform="matrix(2.6402818,0,0,2.8786362,291.36367,64.915895)">
      <defs
         id="defs6576">
        <path
           id="equation_09_00"
           d="m 5.208,-1.582 c 0.112,0 0.28,0 0.28,-0.168 0,-0.175 -0.161,-0.175 -0.28,-0.175 H 1.036 c -0.112,0 -0.28,0 -0.28,0.168 0,0.175 0.161,0.175 0.28,0.175 h 4.172 z"
           inkscape:connector-curvature="0" />
        <path
           id="equation_09_01"
           d="m 2.485,-5.25 c -1.33,0.938 -1.68,2.422 -1.68,3.493 0,0.987 0.294,2.52 1.68,3.5 0.056,0 0.14,0 0.14,-0.084 0,-0.042 -0.021,-0.056 -0.07,-0.105 -0.931,-0.84 -1.274,-2.03 -1.274,-3.304 0,-1.89 0.721,-2.814 1.295,-3.332 0.028,-0.028 0.049,-0.049 0.049,-0.084 0,-0.084 -0.084,-0.084 -0.14,-0.084 z"
           inkscape:connector-curvature="0" />
        <path
           id="equation_09_02"
           d="m 0.63,-5.25 c -0.049,0 -0.133,0 -0.133,0.084 0,0.035 0.021,0.056 0.063,0.105 0.602,0.553 1.274,1.498 1.274,3.304 0,1.463 -0.455,2.569 -1.211,3.255 -0.119,0.119 -0.126,0.126 -0.126,0.161 0,0.035 0.021,0.084 0.091,0.084 0.084,0 0.749,-0.462 1.211,-1.337 0.308,-0.581 0.511,-1.337 0.511,-2.156 0,-0.987 -0.294,-2.52 -1.68,-3.5 z"
           inkscape:connector-curvature="0" />
        <path
           id="equation_09_03"
           d="m 3.612,-2.233 c 0,-0.77 -0.091,-1.323 -0.413,-1.813 -0.217,-0.322 -0.651,-0.602 -1.211,-0.602 -1.624,0 -1.624,1.911 -1.624,2.415 0,0.504 0,2.373 1.624,2.373 1.624,0 1.624,-1.869 1.624,-2.373 z m -1.624,2.177 c -0.322,0 -0.749,-0.189 -0.889,-0.763 -0.098,-0.413 -0.098,-0.987 -0.098,-1.505 0,-0.511 0,-1.043 0.105,-1.428 0.147,-0.553 0.595,-0.7 0.882,-0.7 0.378,0 0.742,0.231 0.868,0.637 0.112,0.378 0.119,0.882 0.119,1.491 0,0.518 0,1.036 -0.091,1.477 -0.14,0.637 -0.616,0.791 -0.896,0.791 z"
           inkscape:connector-curvature="0" />
        <path
           id="equation_09_04"
           d="m 3.829,-0.987 c 0.644,-0.665 0.903,-1.596 0.903,-1.673 0,-0.091 -0.084,-0.091 -0.119,-0.091 -0.098,0 -0.098,0.021 -0.147,0.175 C 4.34,-2.114 4.109,-1.687 3.815,-1.309 3.808,-1.414 3.794,-1.883 3.78,-1.946 3.675,-2.639 3.15,-3.087 2.45,-3.087 c -1.029,0 -2.016,0.959 -2.016,1.939 0,0.644 0.469,1.218 1.281,1.218 0.644,0 1.225,-0.294 1.617,-0.595 0.161,0.511 0.518,0.595 0.728,0.595 0.406,0 0.658,-0.343 0.658,-0.49 0,-0.084 -0.084,-0.084 -0.119,-0.084 -0.091,0 -0.105,0.028 -0.119,0.07 -0.098,0.266 -0.315,0.308 -0.399,0.308 -0.098,0 -0.217,0 -0.252,-0.861 z m -0.546,0.238 c -0.686,0.56 -1.281,0.623 -1.547,0.623 -0.462,0 -0.721,-0.308 -0.721,-0.777 0,-0.203 0.098,-0.966 0.462,-1.449 0.322,-0.42 0.721,-0.539 0.966,-0.539 0.56,0 0.721,0.539 0.777,0.973 0.042,0.301 0.028,0.798 0.063,1.169 z"
           inkscape:connector-curvature="0" />
        <path
           id="equation_09_05"
           d="m 2.849,-2.765 h 0.686 c 0.14,0 0.231,0 0.231,-0.154 0,-0.098 -0.091,-0.098 -0.217,-0.098 H 2.898 c 0.161,-0.889 0.217,-1.211 0.273,-1.414 0.035,-0.154 0.189,-0.301 0.357,-0.301 0.007,0 0.196,0 0.329,0.084 -0.287,0.091 -0.308,0.343 -0.308,0.385 0,0.154 0.119,0.259 0.28,0.259 0.189,0 0.399,-0.161 0.399,-0.427 0,-0.322 -0.343,-0.497 -0.7,-0.497 -0.308,0 -0.651,0.175 -0.84,0.525 -0.14,0.259 -0.196,0.574 -0.343,1.386 H 1.792 c -0.14,0 -0.231,0 -0.231,0.154 0,0.098 0.091,0.098 0.217,0.098 H 2.296 C 2.289,-2.723 1.848,-0.203 1.68,0.546 1.645,0.7 1.526,1.232 1.19,1.232 1.183,1.232 1.015,1.232 0.882,1.148 1.169,1.057 1.19,0.805 1.19,0.763 1.19,0.609 1.071,0.504 0.91,0.504 c -0.189,0 -0.399,0.161 -0.399,0.427 0,0.315 0.329,0.497 0.679,0.497 0.448,0 0.756,-0.462 0.84,-0.616 0.252,-0.469 0.413,-1.33 0.427,-1.414 l 0.392,-2.163 z"
           inkscape:connector-curvature="0" />
      </defs>
      <g
         id="equation_09_g"
         style="fill:#ff0000;stroke:none">
        <use
           id="use6585"
           y="58.25"
           xlink:href="#equation_09_05"
           x="78.199997"
           width="600"
           height="480"
           style="fill:#ff0000;stroke:none" />
        <use
           id="use6587"
           y="58.25"
           xlink:href="#equation_09_01"
           x="82.884102"
           width="600"
           height="480"
           style="fill:#ff0000;stroke:none" />
        <use
           id="use6589"
           y="58.25"
           xlink:href="#equation_09_04"
           x="86.009102"
           width="600"
           height="480"
           style="fill:#ff0000;stroke:none" />
        <use
           id="use6591"
           y="58.25"
           xlink:href="#equation_09_02"
           x="91.207901"
           width="600"
           height="480"
           style="fill:#ff0000;stroke:none" />
        <use
           id="use6593"
           y="58.25"
           xlink:href="#equation_09_00"
           x="94.332901"
           width="600"
           height="480"
           style="fill:#ff0000;stroke:none" />
        <use
           id="use6595"
           y="58.25"
           xlink:href="#equation_09_05"
           x="100.583"
           width="600"
           height="480"
           style="fill:#ff0000;stroke:none" />
        <use
           id="use6597"
           y="58.25"
           xlink:href="#equation_09_01"
           x="105.267"
           width="600"
           height="480"
           style="fill:#ff0000;stroke:none" />
        <use
           id="use6599"
           y="58.25"
           xlink:href="#equation_09_03"
           x="108.392"
           width="600"
           height="480"
           style="fill:#ff0000;stroke:none" />
        <use
           id="use6601"
           y="58.25"
           xlink:href="#equation_09_02"
           x="112.378"
           width="600"
           height="480"
           style="fill:#ff0000;stroke:none" />
        <rect
           id="rect6603"
           y="60.400002"
           x="78.199997"
           width="37.303101"
           height="0.399979"
           style="fill:#ff0000;stroke:none" />
        <use
           id="use6605"
           y="66.548401"
           xlink:href="#equation_09_04"
           x="94.252197"
           width="600"
           height="480"
           style="fill:#ff0000;stroke:none" />
      </g>
    </g>
  </g>
  <path
     inkscape:connector-curvature="0"
     id="path6804"
     d="M 59.865486,47.935835 309.32728,263.72239"
     style="fill:none;stroke:none;stroke-width:1;stroke-linecap:butt;stroke-linejoin:miter;stroke-miterlimit:4;stroke-opacity:1;stroke-dasharray:4, 4;stroke-dashoffset:0"
     sodipodi:nodetypes="cc" />
  <g
     id="g7224"
     transform="translate(2.5148559,0)"
     style="stroke:none;fill:none">
    <g
       transform="matrix(2.0131209,0,0,2.0131209,126.11593,159.13932)"
       id="equation_02"
       style="fill:none;stroke:none"
       title="$c_2f'(0)$">
      <defs
         id="defs6942">
        <path
           inkscape:connector-curvature="0"
           d="m 2.03,-3.304 c 0.056,-0.119 0.063,-0.175 0.063,-0.224 0,-0.217 -0.196,-0.385 -0.413,-0.385 -0.266,0 -0.35,0.217 -0.385,0.329 l -0.924,3.031 c -0.007,0.014 -0.035,0.105 -0.035,0.112 0,0.084 0.217,0.154 0.273,0.154 0.049,0 0.056,-0.014 0.105,-0.119 L 2.03,-3.304 z"
           id="equation_02_00" />
        <path
           inkscape:connector-curvature="0"
           d="M 3.31,2.4 C 3.31,2.37 3.31,2.35 3.14,2.18 1.89,0.92 1.57,-0.97 1.57,-2.5 c 0,-1.74 0.38,-3.48 1.61,-4.73 0.13,-0.12 0.13,-0.14 0.13,-0.17 0,-0.07 -0.04,-0.1 -0.1,-0.1 -0.1,0 -1,0.68 -1.59,1.95 -0.51,1.1 -0.63,2.21 -0.63,3.05 0,0.78 0.11,1.99 0.66,3.12 0.6,1.23 1.46,1.88 1.56,1.88 0.06,0 0.1,-0.03 0.1,-0.1 z"
           id="equation_02_01" />
        <path
           inkscape:connector-curvature="0"
           d="M 2.89,-2.5 C 2.89,-3.28 2.78,-4.49 2.23,-5.62 1.63,-6.85 0.77,-7.5 0.67,-7.5 c -0.06,0 -0.1,0.04 -0.1,0.1 0,0.03 0,0.05 0.19,0.23 0.98,0.99 1.55,2.58 1.55,4.67 0,1.71 -0.37,3.47 -1.61,4.73 -0.13,0.12 -0.13,0.14 -0.13,0.17 0,0.06 0.04,0.1 0.1,0.1 0.1,0 1,-0.68 1.59,-1.95 0.51,-1.1 0.63,-2.21 0.63,-3.05 z"
           id="equation_02_02" />
        <path
           inkscape:connector-curvature="0"
           d="M 4.6,-3.2 C 4.6,-4 4.55,-4.8 4.2,-5.54 3.74,-6.5 2.92,-6.66 2.5,-6.66 1.9,-6.66 1.17,-6.4 0.76,-5.47 0.44,-4.78 0.39,-4 0.39,-3.2 c 0,0.75 0.04,1.65 0.45,2.41 C 1.27,0.02 2,0.22 2.49,0.22 3.03,0.22 3.79,0.01 4.23,-0.94 4.55,-1.63 4.6,-2.41 4.6,-3.2 z M 2.49,0 C 2.1,0 1.51,-0.25 1.33,-1.21 1.22,-1.81 1.22,-2.73 1.22,-3.32 c 0,-0.64 0,-1.3 0.08,-1.84 0.19,-1.19 0.94,-1.28 1.19,-1.28 0.33,0 0.99,0.18 1.18,1.17 0.1,0.56 0.1,1.32 0.1,1.95 0,0.75 0,1.43 -0.11,2.07 C 3.51,-0.3 2.94,0 2.49,0 z"
           id="equation_02_03" />
        <path
           inkscape:connector-curvature="0"
           d="m 3.96,-3.8 c -0.16,0 -0.3,0 -0.44,0.14 -0.16,0.15 -0.18,0.32 -0.18,0.39 0,0.24 0.18,0.35 0.37,0.35 0.29,0 0.56,-0.24 0.56,-0.64 0,-0.49 -0.47,-0.86 -1.18,-0.86 -1.35,0 -2.68,1.43 -2.68,2.84 0,0.9 0.58,1.69 1.62,1.69 1.43,0 2.27,-1.06 2.27,-1.18 0,-0.06 -0.06,-0.13 -0.12,-0.13 -0.05,0 -0.07,0.02 -0.13,0.1 -0.79,0.99 -1.88,0.99 -2,0.99 -0.63,0 -0.9,-0.49 -0.9,-1.09 0,-0.41 0.2,-1.38 0.54,-2 0.31,-0.57 0.86,-1 1.41,-1 0.34,0 0.72,0.13 0.86,0.4 z"
           id="equation_02_04" />
        <path
           inkscape:connector-curvature="0"
           d="m 3.67,-4 h 0.86 c 0.2,0 0.3,0 0.3,-0.2 0,-0.11 -0.1,-0.11 -0.27,-0.11 H 3.73 l 0.21,-1.14 c 0.04,-0.21 0.18,-0.92 0.24,-1.04 0.09,-0.19 0.26,-0.34 0.47,-0.34 0.04,0 0.3,0 0.49,0.18 -0.44,0.04 -0.54,0.39 -0.54,0.54 0,0.23 0.18,0.35 0.37,0.35 0.26,0 0.55,-0.22 0.55,-0.6 0,-0.46 -0.46,-0.69 -0.87,-0.69 -0.34,0 -0.97,0.18 -1.27,1.17 -0.06,0.21 -0.09,0.31 -0.33,1.57 H 2.36 c -0.19,0 -0.3,0 -0.3,0.19 C 2.06,-4 2.15,-4 2.34,-4 H 3 L 2.25,-0.05 C 2.07,0.92 1.9,1.83 1.38,1.83 1.34,1.83 1.09,1.83 0.9,1.65 1.36,1.62 1.45,1.26 1.45,1.11 1.45,0.88 1.27,0.76 1.08,0.76 c -0.26,0 -0.55,0.22 -0.55,0.6 0,0.45 0.44,0.69 0.85,0.69 0.55,0 0.95,-0.59 1.13,-0.97 0.32,-0.63 0.55,-1.84 0.56,-1.91 L 3.67,-4 z"
           id="equation_02_05" />
        <path
           inkscape:connector-curvature="0"
           d="M 3.535,-1.274 H 3.297 C 3.276,-1.12 3.206,-0.707 3.115,-0.637 3.059,-0.595 2.52,-0.595 2.422,-0.595 H 1.134 c 0.735,-0.651 0.98,-0.847 1.4,-1.176 0.518,-0.413 1.001,-0.847 1.001,-1.512 0,-0.847 -0.742,-1.365 -1.638,-1.365 -0.868,0 -1.456,0.609 -1.456,1.253 0,0.357 0.301,0.392 0.371,0.392 0.168,0 0.371,-0.119 0.371,-0.371 0,-0.126 -0.049,-0.371 -0.413,-0.371 0.217,-0.497 0.693,-0.651 1.022,-0.651 0.7,0 1.064,0.546 1.064,1.113 0,0.609 -0.434,1.092 -0.658,1.344 L 0.511,-0.273 C 0.441,-0.21 0.441,-0.196 0.441,0 h 2.884 l 0.21,-1.274 z"
           id="equation_02_06" />
      </defs>
      <g
         id="equation_02_g"
         style="stroke:none;fill:none">
        <use
           height="480"
           width="600"
           x="77"
           xlink:href="#equation_02_04"
           y="63"
           id="use6952"
           style="stroke:none;fill:none" />
        <use
           height="480"
           width="600"
           x="81.327599"
           xlink:href="#equation_02_06"
           y="64.5"
           id="use6954"
           style="stroke:none;fill:none" />
        <use
           height="480"
           width="600"
           x="85.813698"
           xlink:href="#equation_02_05"
           y="63"
           id="use6956"
           style="stroke:none;fill:none" />
        <use
           height="480"
           width="600"
           x="91.786003"
           xlink:href="#equation_02_00"
           y="59.371101"
           id="use6958"
           style="stroke:none;fill:none" />
        <use
           height="480"
           width="600"
           x="94.591499"
           xlink:href="#equation_02_01"
           y="63"
           id="use6960"
           style="stroke:none;fill:none" />
        <use
           height="480"
           width="600"
           x="98.4804"
           xlink:href="#equation_02_03"
           y="63"
           id="use6962"
           style="stroke:none;fill:none" />
        <use
           height="480"
           width="600"
           x="103.48"
           xlink:href="#equation_02_02"
           y="63"
           id="use6964"
           style="stroke:none;fill:none" />
      </g>
    </g>
    <text
       sodipodi:linespacing="125%"
       id="text5969-5"
       y="288.48972"
       x="235.18369"
       style="font-size:23.06698608000000000px;font-style:normal;font-variant:normal;font-weight:normal;font-stretch:normal;text-align:start;line-height:125%;letter-spacing:0px;word-spacing:0px;writing-mode:lr-tb;text-anchor:start;fill:none;fill-opacity:1;stroke:none;font-family:HGGothicM;-inkscape-font-specification:HGGothicM"
       xml:space="preserve"><tspan
         y="288.48972"
         x="235.18369"
         id="tspan5971-4"
         sodipodi:role="line">傾き</tspan></text>
  </g>
  <path
     inkscape:connector-curvature="0"
     id="path6804-3"
     d="m 192.38648,38.22364 109.81538,93.04968"
     style="fill:none;stroke:none;stroke-width:1;stroke-linecap:butt;stroke-linejoin:miter;stroke-miterlimit:4;stroke-opacity:1;stroke-dasharray:4, 4;stroke-dashoffset:0"
     sodipodi:nodetypes="cc" />
  <path
     inkscape:connector-curvature="0"
     id="path6804-3-1"
     d="m 273.35293,143.67397 109.81538,93.04968"
     style="fill:none;stroke:none;stroke-width:1;stroke-linecap:butt;stroke-linejoin:miter;stroke-miterlimit:4;stroke-opacity:1;stroke-dasharray:4, 4;stroke-dashoffset:0"
     sodipodi:nodetypes="cc" />
  <path
     inkscape:connector-curvature="0"
     id="path6804-3-1-2"
     d="M 41.495118,45.349058 151.3105,138.39874"
     style="fill:none;stroke:none;stroke-width:1;stroke-linecap:butt;stroke-linejoin:miter;stroke-miterlimit:4;stroke-opacity:1;stroke-dasharray:4, 4;stroke-dashoffset:0"
     sodipodi:nodetypes="cc" />
</svg>
