<?xml version="1.0" encoding="UTF-8" standalone="no"?>
<!-- Created with Inkscape (http://www.inkscape.org/) -->

<svg
   xmlns:dc="http://purl.org/dc/elements/1.1/"
   xmlns:cc="http://creativecommons.org/ns#"
   xmlns:rdf="http://www.w3.org/1999/02/22-rdf-syntax-ns#"
   xmlns:svg="http://www.w3.org/2000/svg"
   xmlns="http://www.w3.org/2000/svg"
   xmlns:xlink="http://www.w3.org/1999/xlink"
   xmlns:sodipodi="http://sodipodi.sourceforge.net/DTD/sodipodi-0.dtd"
   xmlns:inkscape="http://www.inkscape.org/namespaces/inkscape"
   width="210mm"
   height="297mm"
   id="svg2"
   version="1.1"
   inkscape:version="0.48.4 r9939"
   sodipodi:docname="ensemble-learning.svg"
   inkscape:export-filename="\\euler\nineties\projects\prml-seminar\fig\boosting.png"
   inkscape:export-xdpi="119.04"
   inkscape:export-ydpi="119.04">
  <sodipodi:namedview
     id="base"
     pagecolor="#ffffff"
     bordercolor="#666666"
     borderopacity="1.0"
     inkscape:pageopacity="0.0"
     inkscape:pageshadow="2"
     inkscape:zoom="1"
     inkscape:cx="350.21974"
     inkscape:cy="908.81721"
     inkscape:document-units="px"
     inkscape:current-layer="layer1"
     showgrid="false"
     inkscape:window-width="1366"
     inkscape:window-height="746"
     inkscape:window-x="-8"
     inkscape:window-y="-8"
     inkscape:window-maximized="1" />
  <defs
     id="defs4">
    <marker
       style="overflow:visible;"
       id="Arrow1Mend"
       refX="0.0"
       refY="0.0"
       orient="auto"
       inkscape:stockid="Arrow1Mend">
      <path
         transform="scale(0.4) rotate(180) translate(10,0)"
         style="fill-rule:evenodd;stroke:#000000;stroke-width:1.0pt;"
         d="M 0.0,0.0 L 5.0,-5.0 L -12.5,0.0 L 5.0,5.0 L 0.0,0.0 z "
         id="path4085" />
    </marker>
    <marker
       style="overflow:visible;"
       id="Arrow1Lend"
       refX="0.0"
       refY="0.0"
       orient="auto"
       inkscape:stockid="Arrow1Lend">
      <path
         transform="scale(0.8) rotate(180) translate(12.5,0)"
         style="fill-rule:evenodd;stroke:#000000;stroke-width:1.0pt;"
         d="M 0.0,0.0 L 5.0,-5.0 L -12.5,0.0 L 5.0,5.0 L 0.0,0.0 z "
         id="path4079" />
    </marker>
    <marker
       style="overflow:visible"
       id="Arrow1Mend-3"
       refX="0"
       refY="0"
       orient="auto"
       inkscape:stockid="Arrow1Mend">
      <path
         transform="matrix(-0.4,0,0,-0.4,-4,0)"
         style="fill-rule:evenodd;stroke:#000000;stroke-width:1pt"
         d="M 0,0 5,-5 -12.5,0 5,5 0,0 z"
         id="path4085-1"
         inkscape:connector-curvature="0" />
    </marker>
    <marker
       style="overflow:visible"
       id="Arrow1Mend-6"
       refX="0"
       refY="0"
       orient="auto"
       inkscape:stockid="Arrow1Mend">
      <path
         transform="matrix(-0.4,0,0,-0.4,-4,0)"
         style="fill-rule:evenodd;stroke:#000000;stroke-width:1pt"
         d="M 0,0 5,-5 -12.5,0 5,5 0,0 z"
         id="path4085-7"
         inkscape:connector-curvature="0" />
    </marker>
    <marker
       style="overflow:visible"
       id="Arrow1Mend-0"
       refX="0"
       refY="0"
       orient="auto"
       inkscape:stockid="Arrow1Mend">
      <path
         transform="matrix(-0.4,0,0,-0.4,-4,0)"
         style="fill-rule:evenodd;stroke:#000000;stroke-width:1pt"
         d="M 0,0 5,-5 -12.5,0 5,5 0,0 z"
         id="path4085-0"
         inkscape:connector-curvature="0" />
    </marker>
    <marker
       style="overflow:visible"
       id="Arrow1Mend-5"
       refX="0"
       refY="0"
       orient="auto"
       inkscape:stockid="Arrow1Mend">
      <path
         transform="matrix(-0.4,0,0,-0.4,-4,0)"
         style="fill-rule:evenodd;stroke:#000000;stroke-width:1pt"
         d="M 0,0 5,-5 -12.5,0 5,5 0,0 z"
         id="path4085-4"
         inkscape:connector-curvature="0" />
    </marker>
  </defs>
  <metadata
     id="metadata7">
    <rdf:RDF>
      <cc:Work
         rdf:about="">
        <dc:format>image/svg+xml</dc:format>
        <dc:type
           rdf:resource="http://purl.org/dc/dcmitype/StillImage" />
        <dc:title></dc:title>
      </cc:Work>
    </rdf:RDF>
  </metadata>
  <g
     id="layer1"
     inkscape:groupmode="layer"
     inkscape:label="レイヤー 1">
    <g
       title="$\mathbf{X}$"
       style="fill:#000000"
       id="equation_00"
       transform="matrix(2.0765209,0,0,2.0765209,111.74187,-75.134605)">
      <defs
         id="defs7520">
        <path
           id="equation_00_00"
           d="m 4.84,-3.97 1.68,-2.21 c 0.11,-0.14 0.12,-0.15 0.47,-0.18 0.24,-0.03 0.3,-0.03 0.58,-0.03 h 0.29 v -0.47 c -0.42,0.03 -0.91,0.03 -1.34,0.03 -0.39,0 -1.16,0 -1.52,-0.03 v 0.47 c 0.18,0 0.57,0 0.92,0.11 -0.01,0.02 -0.06,0.08 -0.08,0.11 L 4.52,-4.42 3.09,-6.39 h 0.83 v -0.47 c -0.41,0.03 -1.36,0.03 -1.81,0.03 -0.4,0 -1.27,0 -1.62,-0.03 v 0.47 h 0.98 l 2.22,3.07 -2.02,2.65 C 1.58,-0.55 1.56,-0.53 1.24,-0.5 1.04,-0.48 0.83,-0.47 0.63,-0.47 H 0.34 V 0 c 0.42,-0.03 0.91,-0.03 1.34,-0.03 0.39,0 1.16,0 1.52,0.03 v -0.47 c -0.18,0 -0.57,0 -0.92,-0.11 0.01,-0.02 0.06,-0.08 0.08,-0.11 l 1.65,-2.19 1.74,2.41 H 4.92 V 0 c 0.41,-0.03 1.36,-0.03 1.81,-0.03 0.4,0 1.27,0 1.62,0.03 V -0.47 H 7.37 l -2.53,-3.5 z"
           inkscape:connector-curvature="0" />
      </defs>
      <g
         id="equation_00_g">
        <use
           id="use7524"
           y="63"
           xlink:href="#equation_00_00"
           x="77"
           width="744.09448"
           height="1052.3622" />
      </g>
    </g>
    <g
       id="equation_01"
       style="fill:#000000"
       title="$f_1(\mathbf{x})$"
       transform="matrix(2.0765209,0,0,2.0765209,-78.258129,47.865395)">
      <defs
         id="defs7569">
        <path
           d="m 3.46,-2.46 1.17,-1.3 C 4.76,-3.9 4.82,-3.97 5.65,-3.97 V -4.44 C 5.3,-4.42 4.78,-4.41 4.73,-4.41 4.48,-4.41 3.98,-4.43 3.7,-4.44 v 0.47 c 0.14,0 0.26,0.02 0.38,0.09 C 4.04,-3.82 4.04,-3.8 4,-3.76 L 3.16,-2.82 2.18,-3.97 h 0.4 v -0.47 c -0.26,0.01 -0.89,0.03 -1.21,0.03 -0.32,0 -0.77,-0.02 -1.1,-0.03 v 0.47 h 0.71 l 1.56,1.84 -1.31,1.47 C 1.06,-0.47 0.7,-0.47 0.22,-0.47 V 0 c 0.35,-0.02 0.87,-0.03 0.92,-0.03 0.25,0 0.83,0.02 1.03,0.03 v -0.47 c -0.18,0 -0.37,-0.05 -0.37,-0.11 0,-0.01 0,-0.02 0.07,-0.1 l 0.97,-1.09 1.1,1.3 H 3.55 V 0 c 0.26,-0.01 0.87,-0.03 1.2,-0.03 0.32,0 0.77,0.02 1.1,0.03 V -0.47 H 5.14 L 3.46,-2.46 z"
           id="equation_01_00"
           inkscape:connector-curvature="0" />
        <path
           d="M 3.31,2.4 C 3.31,2.37 3.31,2.35 3.14,2.18 1.89,0.92 1.57,-0.97 1.57,-2.5 c 0,-1.74 0.38,-3.48 1.61,-4.73 0.13,-0.12 0.13,-0.14 0.13,-0.17 0,-0.07 -0.04,-0.1 -0.1,-0.1 -0.1,0 -1,0.68 -1.59,1.95 -0.51,1.1 -0.63,2.21 -0.63,3.05 0,0.78 0.11,1.99 0.66,3.12 0.6,1.23 1.46,1.88 1.56,1.88 0.06,0 0.1,-0.03 0.1,-0.1 z"
           id="equation_01_01"
           inkscape:connector-curvature="0" />
        <path
           d="M 2.89,-2.5 C 2.89,-3.28 2.78,-4.49 2.23,-5.62 1.63,-6.85 0.77,-7.5 0.67,-7.5 c -0.06,0 -0.1,0.04 -0.1,0.1 0,0.03 0,0.05 0.19,0.23 0.98,0.99 1.55,2.58 1.55,4.67 0,1.71 -0.37,3.47 -1.61,4.73 -0.13,0.12 -0.13,0.14 -0.13,0.17 0,0.06 0.04,0.1 0.1,0.1 0.1,0 1,-0.68 1.59,-1.95 0.51,-1.1 0.63,-2.21 0.63,-3.05 z"
           id="equation_01_02"
           inkscape:connector-curvature="0" />
        <path
           d="m 2.345,-4.452 c 0,-0.189 -0.014,-0.196 -0.21,-0.196 C 1.687,-4.207 1.05,-4.2 0.763,-4.2 v 0.252 c 0.168,0 0.63,0 1.015,-0.196 v 3.57 c 0,0.231 0,0.322 -0.7,0.322 H 0.812 V 0 c 0.126,-0.007 0.987,-0.028 1.246,-0.028 0.217,0 1.099,0.021 1.253,0.028 V -0.252 H 3.045 c -0.7,0 -0.7,-0.091 -0.7,-0.322 v -3.878 z"
           id="equation_01_03"
           inkscape:connector-curvature="0" />
        <path
           d="m 3.67,-4 h 0.86 c 0.2,0 0.3,0 0.3,-0.2 0,-0.11 -0.1,-0.11 -0.27,-0.11 H 3.73 l 0.21,-1.14 c 0.04,-0.21 0.18,-0.92 0.24,-1.04 0.09,-0.19 0.26,-0.34 0.47,-0.34 0.04,0 0.3,0 0.49,0.18 -0.44,0.04 -0.54,0.39 -0.54,0.54 0,0.23 0.18,0.35 0.37,0.35 0.26,0 0.55,-0.22 0.55,-0.6 0,-0.46 -0.46,-0.69 -0.87,-0.69 -0.34,0 -0.97,0.18 -1.27,1.17 -0.06,0.21 -0.09,0.31 -0.33,1.57 H 2.36 c -0.19,0 -0.3,0 -0.3,0.19 C 2.06,-4 2.15,-4 2.34,-4 H 3 L 2.25,-0.05 C 2.07,0.92 1.9,1.83 1.38,1.83 1.34,1.83 1.09,1.83 0.9,1.65 1.36,1.62 1.45,1.26 1.45,1.11 1.45,0.88 1.27,0.76 1.08,0.76 c -0.26,0 -0.55,0.22 -0.55,0.6 0,0.45 0.44,0.69 0.85,0.69 0.55,0 0.95,-0.59 1.13,-0.97 0.32,-0.63 0.55,-1.84 0.56,-1.91 L 3.67,-4 z"
           id="equation_01_04"
           inkscape:connector-curvature="0" />
      </defs>
      <g
         id="equation_01_g">
        <use
           x="77"
           xlink:href="#equation_01_04"
           y="63"
           id="use7577"
           width="744.09448"
           height="1052.3622" />
        <use
           x="81.895897"
           xlink:href="#equation_01_03"
           y="64.5"
           id="use7579"
           width="744.09448"
           height="1052.3622" />
        <use
           x="86.382004"
           xlink:href="#equation_01_01"
           y="63"
           id="use7581"
           width="744.09448"
           height="1052.3622" />
        <use
           x="90.270897"
           xlink:href="#equation_01_00"
           y="63"
           id="use7583"
           width="744.09448"
           height="1052.3622" />
        <use
           x="96.340302"
           xlink:href="#equation_01_02"
           y="63"
           id="use7585"
           width="744.09448"
           height="1052.3622" />
      </g>
    </g>
    <g
       title="$f_2(\mathbf{x})$"
       style="fill:#000000"
       id="equation_02"
       transform="matrix(2.0765209,0,0,2.0765209,50.241863,47.865395)">
      <defs
         id="defs7656">
        <path
           id="equation_02_00"
           d="m 3.46,-2.46 1.17,-1.3 C 4.76,-3.9 4.82,-3.97 5.65,-3.97 V -4.44 C 5.3,-4.42 4.78,-4.41 4.73,-4.41 4.48,-4.41 3.98,-4.43 3.7,-4.44 v 0.47 c 0.14,0 0.26,0.02 0.38,0.09 C 4.04,-3.82 4.04,-3.8 4,-3.76 L 3.16,-2.82 2.18,-3.97 h 0.4 v -0.47 c -0.26,0.01 -0.89,0.03 -1.21,0.03 -0.32,0 -0.77,-0.02 -1.1,-0.03 v 0.47 h 0.71 l 1.56,1.84 -1.31,1.47 C 1.06,-0.47 0.7,-0.47 0.22,-0.47 V 0 c 0.35,-0.02 0.87,-0.03 0.92,-0.03 0.25,0 0.83,0.02 1.03,0.03 v -0.47 c -0.18,0 -0.37,-0.05 -0.37,-0.11 0,-0.01 0,-0.02 0.07,-0.1 l 0.97,-1.09 1.1,1.3 H 3.55 V 0 c 0.26,-0.01 0.87,-0.03 1.2,-0.03 0.32,0 0.77,0.02 1.1,0.03 V -0.47 H 5.14 L 3.46,-2.46 z"
           inkscape:connector-curvature="0" />
        <path
           id="equation_02_01"
           d="M 3.31,2.4 C 3.31,2.37 3.31,2.35 3.14,2.18 1.89,0.92 1.57,-0.97 1.57,-2.5 c 0,-1.74 0.38,-3.48 1.61,-4.73 0.13,-0.12 0.13,-0.14 0.13,-0.17 0,-0.07 -0.04,-0.1 -0.1,-0.1 -0.1,0 -1,0.68 -1.59,1.95 -0.51,1.1 -0.63,2.21 -0.63,3.05 0,0.78 0.11,1.99 0.66,3.12 0.6,1.23 1.46,1.88 1.56,1.88 0.06,0 0.1,-0.03 0.1,-0.1 z"
           inkscape:connector-curvature="0" />
        <path
           id="equation_02_02"
           d="M 2.89,-2.5 C 2.89,-3.28 2.78,-4.49 2.23,-5.62 1.63,-6.85 0.77,-7.5 0.67,-7.5 c -0.06,0 -0.1,0.04 -0.1,0.1 0,0.03 0,0.05 0.19,0.23 0.98,0.99 1.55,2.58 1.55,4.67 0,1.71 -0.37,3.47 -1.61,4.73 -0.13,0.12 -0.13,0.14 -0.13,0.17 0,0.06 0.04,0.1 0.1,0.1 0.1,0 1,-0.68 1.59,-1.95 0.51,-1.1 0.63,-2.21 0.63,-3.05 z"
           inkscape:connector-curvature="0" />
        <path
           id="equation_02_03"
           d="M 3.535,-1.274 H 3.297 C 3.276,-1.12 3.206,-0.707 3.115,-0.637 3.059,-0.595 2.52,-0.595 2.422,-0.595 H 1.134 c 0.735,-0.651 0.98,-0.847 1.4,-1.176 0.518,-0.413 1.001,-0.847 1.001,-1.512 0,-0.847 -0.742,-1.365 -1.638,-1.365 -0.868,0 -1.456,0.609 -1.456,1.253 0,0.357 0.301,0.392 0.371,0.392 0.168,0 0.371,-0.119 0.371,-0.371 0,-0.126 -0.049,-0.371 -0.413,-0.371 0.217,-0.497 0.693,-0.651 1.022,-0.651 0.7,0 1.064,0.546 1.064,1.113 0,0.609 -0.434,1.092 -0.658,1.344 L 0.511,-0.273 C 0.441,-0.21 0.441,-0.196 0.441,0 h 2.884 l 0.21,-1.274 z"
           inkscape:connector-curvature="0" />
        <path
           id="equation_02_04"
           d="m 3.67,-4 h 0.86 c 0.2,0 0.3,0 0.3,-0.2 0,-0.11 -0.1,-0.11 -0.27,-0.11 H 3.73 l 0.21,-1.14 c 0.04,-0.21 0.18,-0.92 0.24,-1.04 0.09,-0.19 0.26,-0.34 0.47,-0.34 0.04,0 0.3,0 0.49,0.18 -0.44,0.04 -0.54,0.39 -0.54,0.54 0,0.23 0.18,0.35 0.37,0.35 0.26,0 0.55,-0.22 0.55,-0.6 0,-0.46 -0.46,-0.69 -0.87,-0.69 -0.34,0 -0.97,0.18 -1.27,1.17 -0.06,0.21 -0.09,0.31 -0.33,1.57 H 2.36 c -0.19,0 -0.3,0 -0.3,0.19 C 2.06,-4 2.15,-4 2.34,-4 H 3 L 2.25,-0.05 C 2.07,0.92 1.9,1.83 1.38,1.83 1.34,1.83 1.09,1.83 0.9,1.65 1.36,1.62 1.45,1.26 1.45,1.11 1.45,0.88 1.27,0.76 1.08,0.76 c -0.26,0 -0.55,0.22 -0.55,0.6 0,0.45 0.44,0.69 0.85,0.69 0.55,0 0.95,-0.59 1.13,-0.97 0.32,-0.63 0.55,-1.84 0.56,-1.91 L 3.67,-4 z"
           inkscape:connector-curvature="0" />
      </defs>
      <g
         id="equation_02_g">
        <use
           id="use7664"
           y="63"
           xlink:href="#equation_02_04"
           x="77"
           width="744.09448"
           height="1052.3622" />
        <use
           id="use7666"
           y="64.5"
           xlink:href="#equation_02_03"
           x="81.895897"
           width="744.09448"
           height="1052.3622" />
        <use
           id="use7668"
           y="63"
           xlink:href="#equation_02_01"
           x="86.382004"
           width="744.09448"
           height="1052.3622" />
        <use
           id="use7670"
           y="63"
           xlink:href="#equation_02_00"
           x="90.270897"
           width="744.09448"
           height="1052.3622" />
        <use
           id="use7672"
           y="63"
           xlink:href="#equation_02_02"
           x="96.340302"
           width="744.09448"
           height="1052.3622" />
      </g>
    </g>
    <g
       id="equation_03"
       style="fill:#000000"
       title="$f_3(\mathbf{x})$"
       transform="matrix(2.0765209,0,0,2.0765209,178.74186,47.865395)">
      <defs
         id="defs7769">
        <path
           d="m 3.46,-2.46 1.17,-1.3 C 4.76,-3.9 4.82,-3.97 5.65,-3.97 V -4.44 C 5.3,-4.42 4.78,-4.41 4.73,-4.41 4.48,-4.41 3.98,-4.43 3.7,-4.44 v 0.47 c 0.14,0 0.26,0.02 0.38,0.09 C 4.04,-3.82 4.04,-3.8 4,-3.76 L 3.16,-2.82 2.18,-3.97 h 0.4 v -0.47 c -0.26,0.01 -0.89,0.03 -1.21,0.03 -0.32,0 -0.77,-0.02 -1.1,-0.03 v 0.47 h 0.71 l 1.56,1.84 -1.31,1.47 C 1.06,-0.47 0.7,-0.47 0.22,-0.47 V 0 c 0.35,-0.02 0.87,-0.03 0.92,-0.03 0.25,0 0.83,0.02 1.03,0.03 v -0.47 c -0.18,0 -0.37,-0.05 -0.37,-0.11 0,-0.01 0,-0.02 0.07,-0.1 l 0.97,-1.09 1.1,1.3 H 3.55 V 0 c 0.26,-0.01 0.87,-0.03 1.2,-0.03 0.32,0 0.77,0.02 1.1,0.03 V -0.47 H 5.14 L 3.46,-2.46 z"
           id="equation_03_00"
           inkscape:connector-curvature="0" />
        <path
           d="M 3.31,2.4 C 3.31,2.37 3.31,2.35 3.14,2.18 1.89,0.92 1.57,-0.97 1.57,-2.5 c 0,-1.74 0.38,-3.48 1.61,-4.73 0.13,-0.12 0.13,-0.14 0.13,-0.17 0,-0.07 -0.04,-0.1 -0.1,-0.1 -0.1,0 -1,0.68 -1.59,1.95 -0.51,1.1 -0.63,2.21 -0.63,3.05 0,0.78 0.11,1.99 0.66,3.12 0.6,1.23 1.46,1.88 1.56,1.88 0.06,0 0.1,-0.03 0.1,-0.1 z"
           id="equation_03_01"
           inkscape:connector-curvature="0" />
        <path
           d="M 2.89,-2.5 C 2.89,-3.28 2.78,-4.49 2.23,-5.62 1.63,-6.85 0.77,-7.5 0.67,-7.5 c -0.06,0 -0.1,0.04 -0.1,0.1 0,0.03 0,0.05 0.19,0.23 0.98,0.99 1.55,2.58 1.55,4.67 0,1.71 -0.37,3.47 -1.61,4.73 -0.13,0.12 -0.13,0.14 -0.13,0.17 0,0.06 0.04,0.1 0.1,0.1 0.1,0 1,-0.68 1.59,-1.95 0.51,-1.1 0.63,-2.21 0.63,-3.05 z"
           id="equation_03_02"
           inkscape:connector-curvature="0" />
        <path
           d="m 1.911,-2.338 c 0.546,0 0.938,0.378 0.938,1.127 0,0.868 -0.504,1.127 -0.91,1.127 -0.28,0 -0.896,-0.077 -1.19,-0.49 0.329,-0.014 0.406,-0.245 0.406,-0.392 0,-0.224 -0.168,-0.385 -0.385,-0.385 -0.196,0 -0.392,0.119 -0.392,0.406 0,0.658 0.728,1.085 1.575,1.085 0.973,0 1.645,-0.651 1.645,-1.351 0,-0.546 -0.448,-1.092 -1.218,-1.253 0.735,-0.266 1.001,-0.791 1.001,-1.218 0,-0.553 -0.637,-0.966 -1.414,-0.966 -0.777,0 -1.372,0.378 -1.372,0.938 0,0.238 0.154,0.371 0.364,0.371 0.217,0 0.357,-0.161 0.357,-0.357 0,-0.203 -0.14,-0.35 -0.357,-0.364 0.245,-0.308 0.728,-0.385 0.987,-0.385 0.315,0 0.756,0.154 0.756,0.763 0,0.294 -0.098,0.616 -0.28,0.833 -0.231,0.266 -0.427,0.28 -0.777,0.301 -0.175,0.014 -0.189,0.014 -0.224,0.021 -0.014,0 -0.07,0.014 -0.07,0.091 0,0.098 0.063,0.098 0.182,0.098 h 0.378 z"
           id="equation_03_03"
           inkscape:connector-curvature="0" />
        <path
           d="m 3.67,-4 h 0.86 c 0.2,0 0.3,0 0.3,-0.2 0,-0.11 -0.1,-0.11 -0.27,-0.11 H 3.73 l 0.21,-1.14 c 0.04,-0.21 0.18,-0.92 0.24,-1.04 0.09,-0.19 0.26,-0.34 0.47,-0.34 0.04,0 0.3,0 0.49,0.18 -0.44,0.04 -0.54,0.39 -0.54,0.54 0,0.23 0.18,0.35 0.37,0.35 0.26,0 0.55,-0.22 0.55,-0.6 0,-0.46 -0.46,-0.69 -0.87,-0.69 -0.34,0 -0.97,0.18 -1.27,1.17 -0.06,0.21 -0.09,0.31 -0.33,1.57 H 2.36 c -0.19,0 -0.3,0 -0.3,0.19 C 2.06,-4 2.15,-4 2.34,-4 H 3 L 2.25,-0.05 C 2.07,0.92 1.9,1.83 1.38,1.83 1.34,1.83 1.09,1.83 0.9,1.65 1.36,1.62 1.45,1.26 1.45,1.11 1.45,0.88 1.27,0.76 1.08,0.76 c -0.26,0 -0.55,0.22 -0.55,0.6 0,0.45 0.44,0.69 0.85,0.69 0.55,0 0.95,-0.59 1.13,-0.97 0.32,-0.63 0.55,-1.84 0.56,-1.91 L 3.67,-4 z"
           id="equation_03_04"
           inkscape:connector-curvature="0" />
      </defs>
      <g
         id="equation_03_g">
        <use
           x="77"
           xlink:href="#equation_03_04"
           y="63"
           id="use7777"
           width="744.09448"
           height="1052.3622" />
        <use
           x="81.895897"
           xlink:href="#equation_03_03"
           y="64.5"
           id="use7779"
           width="744.09448"
           height="1052.3622" />
        <use
           x="86.382004"
           xlink:href="#equation_03_01"
           y="63"
           id="use7781"
           width="744.09448"
           height="1052.3622" />
        <use
           x="90.270897"
           xlink:href="#equation_03_00"
           y="63"
           id="use7783"
           width="744.09448"
           height="1052.3622" />
        <use
           x="96.340302"
           xlink:href="#equation_03_02"
           y="63"
           id="use7785"
           width="744.09448"
           height="1052.3622" />
      </g>
    </g>
    <g
       title="$\displaystyle f(\mathbf{x}) = \sum_{m=1}^M\alpha_m f_m(\mathbf{x})$"
       style="fill:#000000"
       id="equation_04"
       transform="matrix(2.0765209,0,0,2.0765209,59.74187,184.8654)">
      <defs
         id="defs7908">
        <path
           id="equation_04_00"
           d="m 3.46,-2.46 1.17,-1.3 C 4.76,-3.9 4.82,-3.97 5.65,-3.97 V -4.44 C 5.3,-4.42 4.78,-4.41 4.73,-4.41 4.48,-4.41 3.98,-4.43 3.7,-4.44 v 0.47 c 0.14,0 0.26,0.02 0.38,0.09 C 4.04,-3.82 4.04,-3.8 4,-3.76 L 3.16,-2.82 2.18,-3.97 h 0.4 v -0.47 c -0.26,0.01 -0.89,0.03 -1.21,0.03 -0.32,0 -0.77,-0.02 -1.1,-0.03 v 0.47 h 0.71 l 1.56,1.84 -1.31,1.47 C 1.06,-0.47 0.7,-0.47 0.22,-0.47 V 0 c 0.35,-0.02 0.87,-0.03 0.92,-0.03 0.25,0 0.83,0.02 1.03,0.03 v -0.47 c -0.18,0 -0.37,-0.05 -0.37,-0.11 0,-0.01 0,-0.02 0.07,-0.1 l 0.97,-1.09 1.1,1.3 H 3.55 V 0 c 0.26,-0.01 0.87,-0.03 1.2,-0.03 0.32,0 0.77,0.02 1.1,0.03 V -0.47 H 5.14 L 3.46,-2.46 z"
           inkscape:connector-curvature="0" />
        <path
           id="equation_04_01"
           d="m 7.147,-4.214 c 0.063,-0.259 0.077,-0.315 0.595,-0.315 0.147,0 0.238,0 0.238,-0.147 0,-0.105 -0.084,-0.105 -0.21,-0.105 H 6.818 c -0.203,0 -0.21,0.007 -0.301,0.14 L 3.815,-0.651 3.122,-4.592 C 3.087,-4.774 3.087,-4.781 2.877,-4.781 H 1.876 c -0.14,0 -0.231,0 -0.231,0.154 0,0.098 0.084,0.098 0.238,0.098 0.112,0 0.14,0 0.266,0.014 0.14,0.014 0.154,0.028 0.154,0.098 0,0.007 0,0.049 -0.028,0.154 l -0.882,3.514 c -0.063,0.238 -0.168,0.476 -0.728,0.497 -0.056,0 -0.147,0.007 -0.147,0.154 C 0.518,-0.091 0.525,0 0.623,0 0.833,0 1.127,-0.028 1.351,-0.028 1.519,-0.028 1.925,0 2.093,0 c 0.035,0 0.14,0 0.14,-0.154 0,-0.091 -0.091,-0.098 -0.154,-0.098 -0.448,-0.014 -0.448,-0.196 -0.448,-0.294 0,-0.028 0,-0.063 0.028,-0.175 L 2.59,-4.445 h 0.007 l 0.749,4.256 C 3.367,-0.063 3.381,0 3.486,0 3.584,0 3.64,-0.077 3.689,-0.154 l 2.94,-4.361 0.007,0.007 -0.987,3.962 c -0.056,0.238 -0.07,0.294 -0.616,0.294 -0.126,0 -0.21,0 -0.21,0.154 0,0.007 0,0.098 0.112,0.098 0.133,0 0.294,-0.021 0.434,-0.021 0.14,0 0.301,-0.007 0.441,-0.007 0.196,0 0.693,0.028 0.889,0.028 0.042,0 0.147,0 0.147,-0.154 0,-0.098 -0.084,-0.098 -0.224,-0.098 -0.007,0 -0.14,0 -0.266,-0.014 -0.161,-0.014 -0.161,-0.035 -0.161,-0.105 0,-0.042 0.021,-0.112 0.028,-0.154 l 0.924,-3.689 z"
           inkscape:connector-curvature="0" />
        <path
           id="equation_04_02"
           d="M 3.038,-0.567 C 3.003,-0.427 2.94,-0.189 2.94,-0.154 2.94,0 3.066,0.07 3.178,0.07 c 0.126,0 0.238,-0.091 0.273,-0.154 0.035,-0.063 0.091,-0.287 0.126,-0.434 0.035,-0.133 0.112,-0.455 0.154,-0.63 0.042,-0.154 0.084,-0.308 0.119,-0.469 0.077,-0.301 0.077,-0.315 0.217,-0.532 0.224,-0.343 0.574,-0.742 1.12,-0.742 0.392,0 0.413,0.322 0.413,0.49 0,0.42 -0.301,1.197 -0.413,1.491 -0.077,0.196 -0.105,0.259 -0.105,0.378 0,0.371 0.308,0.602 0.665,0.602 0.7,0 1.008,-0.966 1.008,-1.071 0,-0.091 -0.091,-0.091 -0.112,-0.091 -0.098,0 -0.105,0.042 -0.133,0.119 -0.161,0.56 -0.462,0.847 -0.742,0.847 -0.147,0 -0.175,-0.098 -0.175,-0.245 0,-0.161 0.035,-0.252 0.161,-0.567 0.084,-0.217 0.371,-0.959 0.371,-1.351 0,-0.112 0,-0.406 -0.259,-0.609 C 5.747,-2.989 5.544,-3.087 5.215,-3.087 4.585,-3.087 4.2,-2.674 3.976,-2.38 3.92,-2.975 3.423,-3.087 3.066,-3.087 2.485,-3.087 2.093,-2.73 1.883,-2.45 1.834,-2.933 1.421,-3.087 1.134,-3.087 c -0.301,0 -0.462,0.217 -0.553,0.378 -0.154,0.259 -0.252,0.658 -0.252,0.693 0,0.091 0.098,0.091 0.119,0.091 0.098,0 0.105,-0.021 0.154,-0.21 0.105,-0.413 0.238,-0.756 0.511,-0.756 0.182,0 0.231,0.154 0.231,0.343 0,0.133 -0.063,0.392 -0.112,0.581 -0.049,0.189 -0.119,0.476 -0.154,0.63 l -0.224,0.896 c -0.028,0.091 -0.07,0.266 -0.07,0.287 0,0.154 0.126,0.224 0.238,0.224 0.126,0 0.238,-0.091 0.273,-0.154 0.035,-0.063 0.091,-0.287 0.126,-0.434 0.035,-0.133 0.112,-0.455 0.154,-0.63 0.042,-0.154 0.084,-0.308 0.119,-0.469 0.077,-0.287 0.091,-0.343 0.294,-0.63 0.196,-0.28 0.525,-0.644 1.05,-0.644 0.406,0 0.413,0.357 0.413,0.49 0,0.175 -0.021,0.266 -0.119,0.658 l -0.294,1.176 z"
           inkscape:connector-curvature="0" />
        <path
           id="equation_04_03"
           d="m 2.345,-4.452 c 0,-0.189 -0.014,-0.196 -0.21,-0.196 C 1.687,-4.207 1.05,-4.2 0.763,-4.2 v 0.252 c 0.168,0 0.63,0 1.015,-0.196 v 3.57 c 0,0.231 0,0.322 -0.7,0.322 H 0.812 V 0 c 0.126,-0.007 0.987,-0.028 1.246,-0.028 0.217,0 1.099,0.021 1.253,0.028 V -0.252 H 3.045 c -0.7,0 -0.7,-0.091 -0.7,-0.322 v -3.878 z"
           inkscape:connector-curvature="0" />
        <path
           id="equation_04_04"
           d="m 5.376,-2.352 c 0.105,0 0.266,0 0.266,-0.175 0,-0.168 -0.168,-0.168 -0.259,-0.168 H 0.749 c -0.091,0 -0.259,0 -0.259,0.168 0,0.175 0.161,0.175 0.266,0.175 h 4.62 z m 0.007,1.54 c 0.091,0 0.259,0 0.259,-0.168 0,-0.175 -0.161,-0.175 -0.266,-0.175 h -4.62 c -0.105,0 -0.266,0 -0.266,0.175 0,0.168 0.168,0.168 0.259,0.168 h 4.634 z"
           inkscape:connector-curvature="0" />
        <path
           id="equation_04_05"
           d="m 4.77,-2.36 c 0,-1.57 -0.93,-2.06 -1.67,-2.06 -1.37,0 -2.69,1.43 -2.69,2.84 0,0.93 0.6,1.69 1.62,1.69 0.63,0 1.35,-0.23 2.11,-0.84 0.13,0.53 0.46,0.84 0.91,0.84 0.53,0 0.84,-0.55 0.84,-0.71 0,-0.07 -0.06,-0.1 -0.12,-0.1 -0.07,0 -0.1,0.03 -0.13,0.1 -0.18,0.49 -0.54,0.49 -0.56,0.49 -0.31,0 -0.31,-0.78 -0.31,-1.02 0,-0.21 0,-0.23 0.1,-0.35 0.94,-1.18 1.15,-2.34 1.15,-2.35 0,-0.02 -0.01,-0.1 -0.12,-0.1 -0.1,0 -0.1,0.03 -0.15,0.21 -0.18,0.63 -0.51,1.39 -0.98,1.98 V -2.36 z M 4.1,-0.99 c -0.88,0.77 -1.65,0.88 -2.05,0.88 -0.6,0 -0.9,-0.45 -0.9,-1.09 0,-0.49 0.26,-1.57 0.58,-2.08 0.47,-0.73 1.01,-0.92 1.36,-0.92 0.99,0 0.99,1.31 0.99,2.09 0,0.37 0,0.95 0.02,1.12 z"
           inkscape:connector-curvature="0" />
        <path
           id="equation_04_06"
           d="m 3.67,-4 h 0.86 c 0.2,0 0.3,0 0.3,-0.2 0,-0.11 -0.1,-0.11 -0.27,-0.11 H 3.73 l 0.21,-1.14 c 0.04,-0.21 0.18,-0.92 0.24,-1.04 0.09,-0.19 0.26,-0.34 0.47,-0.34 0.04,0 0.3,0 0.49,0.18 -0.44,0.04 -0.54,0.39 -0.54,0.54 0,0.23 0.18,0.35 0.37,0.35 0.26,0 0.55,-0.22 0.55,-0.6 0,-0.46 -0.46,-0.69 -0.87,-0.69 -0.34,0 -0.97,0.18 -1.27,1.17 -0.06,0.21 -0.09,0.31 -0.33,1.57 H 2.36 c -0.19,0 -0.3,0 -0.3,0.19 C 2.06,-4 2.15,-4 2.34,-4 H 3 L 2.25,-0.05 C 2.07,0.92 1.9,1.83 1.38,1.83 1.34,1.83 1.09,1.83 0.9,1.65 1.36,1.62 1.45,1.26 1.45,1.11 1.45,0.88 1.27,0.76 1.08,0.76 c -0.26,0 -0.55,0.22 -0.55,0.6 0,0.45 0.44,0.69 0.85,0.69 0.55,0 0.95,-0.59 1.13,-0.97 0.32,-0.63 0.55,-1.84 0.56,-1.91 L 3.67,-4 z"
           inkscape:connector-curvature="0" />
        <path
           id="equation_04_07"
           d="m 12.66,14 1.21,-3.2 h -0.25 c -0.39,1.04 -1.45,1.72 -2.6,2.02 -0.21,0.05 -1.19,0.31 -3.11,0.31 H 1.88 L 6.97,7.16 C 7.04,7.08 7.06,7.05 7.06,7 7.06,6.98 7.06,6.95 6.99,6.85 L 2.33,0.48 h 5.48 c 1.34,0 2.25,0.14 2.34,0.16 0.54,0.08 1.41,0.25 2.2,0.75 0.25,0.16 0.93,0.61 1.27,1.42 h 0.25 L 12.66,0 H 0.84 C 0.61,0 0.6,0.01 0.57,0.07 0.56,0.1 0.56,0.29 0.56,0.4 l 5.29,7.24 -5.18,6.07 c -0.1,0.12 -0.1,0.17 -0.1,0.18 C 0.57,14 0.66,14 0.84,14 h 11.82 z"
           inkscape:connector-curvature="0" />
        <path
           id="equation_04_08"
           d="M 3.31,2.4 C 3.31,2.37 3.31,2.35 3.14,2.18 1.89,0.92 1.57,-0.97 1.57,-2.5 c 0,-1.74 0.38,-3.48 1.61,-4.73 0.13,-0.12 0.13,-0.14 0.13,-0.17 0,-0.07 -0.04,-0.1 -0.1,-0.1 -0.1,0 -1,0.68 -1.59,1.95 -0.51,1.1 -0.63,2.21 -0.63,3.05 0,0.78 0.11,1.99 0.66,3.12 0.6,1.23 1.46,1.88 1.56,1.88 0.06,0 0.1,-0.03 0.1,-0.1 z"
           inkscape:connector-curvature="0" />
        <path
           id="equation_04_09"
           d="M 2.89,-2.5 C 2.89,-3.28 2.78,-4.49 2.23,-5.62 1.63,-6.85 0.77,-7.5 0.67,-7.5 c -0.06,0 -0.1,0.04 -0.1,0.1 0,0.03 0,0.05 0.19,0.23 0.98,0.99 1.55,2.58 1.55,4.67 0,1.71 -0.37,3.47 -1.61,4.73 -0.13,0.12 -0.13,0.14 -0.13,0.17 0,0.06 0.04,0.1 0.1,0.1 0.1,0 1,-0.68 1.59,-1.95 0.51,-1.1 0.63,-2.21 0.63,-3.05 z"
           inkscape:connector-curvature="0" />
        <path
           id="equation_04_10"
           d="m 6.87,-3.27 c 0.15,0 0.34,0 0.34,-0.2 0,-0.2 -0.19,-0.2 -0.33,-0.2 H 0.89 c -0.14,0 -0.33,0 -0.33,0.2 0,0.2 0.19,0.2 0.34,0.2 h 5.97 z m 0.01,1.94 c 0.14,0 0.33,0 0.33,-0.2 0,-0.2 -0.19,-0.2 -0.34,-0.2 H 0.9 c -0.15,0 -0.34,0 -0.34,0.2 0,0.2 0.19,0.2 0.33,0.2 h 5.99 z"
           inkscape:connector-curvature="0" />
      </defs>
      <g
         id="equation_04_g">
        <use
           id="use7922"
           y="71.283401"
           xlink:href="#equation_04_06"
           x="77"
           width="744.09448"
           height="1052.3622" />
        <use
           id="use7924"
           y="71.283401"
           xlink:href="#equation_04_08"
           x="82.972298"
           width="744.09448"
           height="1052.3622" />
        <use
           id="use7926"
           y="71.283401"
           xlink:href="#equation_04_00"
           x="86.861198"
           width="744.09448"
           height="1052.3622" />
        <use
           id="use7928"
           y="71.283401"
           xlink:href="#equation_04_09"
           x="92.930603"
           width="744.09448"
           height="1052.3622" />
        <use
           id="use7930"
           y="71.283401"
           xlink:href="#equation_04_10"
           x="99.597198"
           width="744.09448"
           height="1052.3622" />
        <use
           id="use7932"
           y="58.783298"
           xlink:href="#equation_04_01"
           x="114.575"
           width="744.09448"
           height="1052.3622" />
        <use
           id="use7934"
           y="61.783298"
           xlink:href="#equation_04_07"
           x="111.541"
           width="744.09448"
           height="1052.3622" />
        <use
           id="use7936"
           y="82.961197"
           xlink:href="#equation_04_02"
           x="110.153"
           width="744.09448"
           height="1052.3622" />
        <use
           id="use7938"
           y="82.961197"
           xlink:href="#equation_04_04"
           x="117.249"
           width="744.09448"
           height="1052.3622" />
        <use
           id="use7940"
           y="82.961197"
           xlink:href="#equation_04_03"
           x="123.388"
           width="744.09448"
           height="1052.3622" />
        <use
           id="use7942"
           y="71.283401"
           xlink:href="#equation_04_05"
           x="129.03999"
           width="744.09448"
           height="1052.3622" />
        <use
           id="use7944"
           y="72.783401"
           xlink:href="#equation_04_02"
           x="135.438"
           width="744.09448"
           height="1052.3622" />
        <use
           id="use7946"
           y="71.283401"
           xlink:href="#equation_04_06"
           x="143.034"
           width="744.09448"
           height="1052.3622" />
        <use
           id="use7948"
           y="72.783401"
           xlink:href="#equation_04_02"
           x="147.929"
           width="744.09448"
           height="1052.3622" />
        <use
           id="use7950"
           y="71.283401"
           xlink:href="#equation_04_08"
           x="155.526"
           width="744.09448"
           height="1052.3622" />
        <use
           id="use7952"
           y="71.283401"
           xlink:href="#equation_04_00"
           x="159.414"
           width="744.09448"
           height="1052.3622" />
        <use
           id="use7954"
           y="71.283401"
           xlink:href="#equation_04_09"
           x="165.48399"
           width="744.09448"
           height="1052.3622" />
      </g>
    </g>
    <path
       style="fill:none;stroke:#000000;stroke-width:1px;stroke-linecap:butt;stroke-linejoin:miter;stroke-opacity:1;marker-end:url(#Arrow1Lend)"
       d="M 265,60.362183 121,155.36218"
       id="path8046"
       inkscape:connector-curvature="0" />
    <path
       style="fill:none;stroke:#000000;stroke-width:1px;stroke-linecap:butt;stroke-linejoin:miter;stroke-opacity:1;marker-end:url(#Arrow1Lend)"
       d="M 275,60.362183 238,154.36218"
       id="path8048"
       inkscape:connector-curvature="0" />
    <path
       style="fill:none;stroke:#000000;stroke-width:1px;stroke-linecap:butt;stroke-linejoin:miter;stroke-opacity:1;marker-end:url(#Arrow1Lend)"
       d="m 288,59.362183 59,91.999997"
       id="path8050"
       inkscape:connector-curvature="0" />
    <path
       style="fill:none;stroke:#000000;stroke-width:1px;stroke-linecap:butt;stroke-linejoin:miter;stroke-opacity:1;marker-end:url(#Arrow1Lend)"
       d="m 135,175.36218 69,0"
       id="path8052"
       inkscape:connector-curvature="0" />
    <path
       style="fill:none;stroke:#000000;stroke-width:1px;stroke-linecap:butt;stroke-linejoin:miter;stroke-opacity:1;marker-end:url(#Arrow1Lend)"
       d="m 264,175.36218 71,0"
       id="path8054"
       inkscape:connector-curvature="0" />
    <path
       style="fill:none;stroke:#000000;stroke-width:1px;stroke-linecap:butt;stroke-linejoin:miter;stroke-opacity:1;marker-end:url(#Arrow1Lend)"
       d="m 394,175.36218 80,0"
       id="path8056"
       inkscape:connector-curvature="0" />
    <path
       style="fill:none;stroke:#000000;stroke-width:2;stroke-linecap:butt;stroke-linejoin:miter;stroke-opacity:1;stroke-miterlimit:4;stroke-dasharray:none;marker-end:url(#Arrow1Mend-5)"
       d="m 305,207.36218 0,66"
       id="path8250"
       inkscape:connector-curvature="0" />
    <text
       xml:space="preserve"
       style="font-size:25.32411385px;font-style:normal;font-variant:normal;font-weight:normal;font-stretch:normal;text-align:start;line-height:125%;letter-spacing:0px;word-spacing:0px;writing-mode:lr-tb;text-anchor:start;fill:#000000;fill-opacity:1;stroke:none;font-family:HGGothicM;-inkscape-font-specification:HGGothicM"
       x="134.21982"
       y="97.917336"
       id="text8444"
       sodipodi:linespacing="125%"><tspan
         sodipodi:role="line"
         id="tspan8446"
         x="134.21982"
         y="97.917336">学習</tspan></text>
    <text
       xml:space="preserve"
       style="font-size:23.0010643px;font-style:normal;font-variant:normal;font-weight:normal;font-stretch:normal;text-align:start;line-height:125%;letter-spacing:0px;word-spacing:0px;writing-mode:lr-tb;text-anchor:start;fill:#000000;fill-opacity:1;stroke:none;font-family:HGGothicM;-inkscape-font-specification:HGGothicM"
       x="90.675728"
       y="218.57559"
       id="text8448"
       sodipodi:linespacing="125%"><tspan
         sodipodi:role="line"
         id="tspan8450"
         x="90.675728"
         y="218.57559">前回の結果を</tspan><tspan
         sodipodi:role="line"
         x="90.675728"
         y="247.32692"
         id="tspan8452">考慮</tspan></text>
    <text
       xml:space="preserve"
       style="font-size:24px;font-style:normal;font-variant:normal;font-weight:normal;font-stretch:normal;text-align:start;line-height:125%;letter-spacing:0px;word-spacing:0px;writing-mode:lr-tb;text-anchor:start;fill:#000000;fill-opacity:1;stroke:none;font-family:HGGothicM;-inkscape-font-specification:HGGothicM"
       x="333"
       y="261.61218"
       id="text8458"
       sodipodi:linespacing="125%"><tspan
         sodipodi:role="line"
         id="tspan8460"
         x="333"
         y="261.61218">多数決、平均</tspan></text>
  </g>
</svg>
