<?xml version="1.0" encoding="UTF-8" standalone="no"?>
<!-- Created with Inkscape (http://www.inkscape.org/) -->

<svg
   xmlns:dc="http://purl.org/dc/elements/1.1/"
   xmlns:cc="http://creativecommons.org/ns#"
   xmlns:rdf="http://www.w3.org/1999/02/22-rdf-syntax-ns#"
   xmlns:svg="http://www.w3.org/2000/svg"
   xmlns="http://www.w3.org/2000/svg"
   xmlns:xlink="http://www.w3.org/1999/xlink"
   xmlns:sodipodi="http://sodipodi.sourceforge.net/DTD/sodipodi-0.dtd"
   xmlns:inkscape="http://www.inkscape.org/namespaces/inkscape"
   width="210mm"
   height="297mm"
   id="svg2"
   version="1.1"
   inkscape:version="0.48.4 r9939"
   sodipodi:docname="新規ドキュメント 1"
   inkscape:export-filename="\\euler\nineties\projects\prml-seminar\fig\ensemble-learning.png"
   inkscape:export-xdpi="119.04"
   inkscape:export-ydpi="119.04">
  <sodipodi:namedview
     id="base"
     pagecolor="#ffffff"
     bordercolor="#666666"
     borderopacity="1.0"
     inkscape:pageopacity="0.0"
     inkscape:pageshadow="2"
     inkscape:zoom="0.98994949"
     inkscape:cx="474.00766"
     inkscape:cy="940.98152"
     inkscape:document-units="px"
     inkscape:current-layer="layer1"
     showgrid="false"
     inkscape:window-width="1366"
     inkscape:window-height="746"
     inkscape:window-x="-8"
     inkscape:window-y="-8"
     inkscape:window-maximized="1" />
  <defs
     id="defs4">
    <marker
       inkscape:stockid="Arrow1Lend"
       orient="auto"
       refY="0.0"
       refX="0.0"
       id="Arrow1Lend"
       style="overflow:visible;">
      <path
         id="path4079"
         d="M 0.0,0.0 L 5.0,-5.0 L -12.5,0.0 L 5.0,5.0 L 0.0,0.0 z "
         style="fill-rule:evenodd;stroke:#000000;stroke-width:1.0pt;"
         transform="scale(0.8) rotate(180) translate(12.5,0)" />
    </marker>
  </defs>
  <metadata
     id="metadata7">
    <rdf:RDF>
      <cc:Work
         rdf:about="">
        <dc:format>image/svg+xml</dc:format>
        <dc:type
           rdf:resource="http://purl.org/dc/dcmitype/StillImage" />
        <dc:title></dc:title>
      </cc:Work>
    </rdf:RDF>
  </metadata>
  <g
     inkscape:label="レイヤー 1"
     inkscape:groupmode="layer"
     id="layer1">
    <g
       id="equation_00"
       style="fill:#000000"
       title="$f_1(\mathbf{x})$"
       transform="matrix(3.3229905,0,0,3.3229905,-102.31971,17.546139)">
      <defs
         id="defs2991">
        <path
           d="m 3.46,-2.46 1.17,-1.3 C 4.76,-3.9 4.82,-3.97 5.65,-3.97 V -4.44 C 5.3,-4.42 4.78,-4.41 4.73,-4.41 4.48,-4.41 3.98,-4.43 3.7,-4.44 v 0.47 c 0.14,0 0.26,0.02 0.38,0.09 C 4.04,-3.82 4.04,-3.8 4,-3.76 L 3.16,-2.82 2.18,-3.97 h 0.4 v -0.47 c -0.26,0.01 -0.89,0.03 -1.21,0.03 -0.32,0 -0.77,-0.02 -1.1,-0.03 v 0.47 h 0.71 l 1.56,1.84 -1.31,1.47 C 1.06,-0.47 0.7,-0.47 0.22,-0.47 V 0 c 0.35,-0.02 0.87,-0.03 0.92,-0.03 0.25,0 0.83,0.02 1.03,0.03 v -0.47 c -0.18,0 -0.37,-0.05 -0.37,-0.11 0,-0.01 0,-0.02 0.07,-0.1 l 0.97,-1.09 1.1,1.3 H 3.55 V 0 c 0.26,-0.01 0.87,-0.03 1.2,-0.03 0.32,0 0.77,0.02 1.1,0.03 V -0.47 H 5.14 L 3.46,-2.46 z"
           id="equation_00_00"
           inkscape:connector-curvature="0" />
        <path
           d="M 3.31,2.4 C 3.31,2.37 3.31,2.35 3.14,2.18 1.89,0.92 1.57,-0.97 1.57,-2.5 c 0,-1.74 0.38,-3.48 1.61,-4.73 0.13,-0.12 0.13,-0.14 0.13,-0.17 0,-0.07 -0.04,-0.1 -0.1,-0.1 -0.1,0 -1,0.68 -1.59,1.95 -0.51,1.1 -0.63,2.21 -0.63,3.05 0,0.78 0.11,1.99 0.66,3.12 0.6,1.23 1.46,1.88 1.56,1.88 0.06,0 0.1,-0.03 0.1,-0.1 z"
           id="equation_00_01"
           inkscape:connector-curvature="0" />
        <path
           d="M 2.89,-2.5 C 2.89,-3.28 2.78,-4.49 2.23,-5.62 1.63,-6.85 0.77,-7.5 0.67,-7.5 c -0.06,0 -0.1,0.04 -0.1,0.1 0,0.03 0,0.05 0.19,0.23 0.98,0.99 1.55,2.58 1.55,4.67 0,1.71 -0.37,3.47 -1.61,4.73 -0.13,0.12 -0.13,0.14 -0.13,0.17 0,0.06 0.04,0.1 0.1,0.1 0.1,0 1,-0.68 1.59,-1.95 0.51,-1.1 0.63,-2.21 0.63,-3.05 z"
           id="equation_00_02"
           inkscape:connector-curvature="0" />
        <path
           d="m 2.345,-4.452 c 0,-0.189 -0.014,-0.196 -0.21,-0.196 C 1.687,-4.207 1.05,-4.2 0.763,-4.2 v 0.252 c 0.168,0 0.63,0 1.015,-0.196 v 3.57 c 0,0.231 0,0.322 -0.7,0.322 H 0.812 V 0 c 0.126,-0.007 0.987,-0.028 1.246,-0.028 0.217,0 1.099,0.021 1.253,0.028 V -0.252 H 3.045 c -0.7,0 -0.7,-0.091 -0.7,-0.322 v -3.878 z"
           id="equation_00_03"
           inkscape:connector-curvature="0" />
        <path
           d="m 3.67,-4 h 0.86 c 0.2,0 0.3,0 0.3,-0.2 0,-0.11 -0.1,-0.11 -0.27,-0.11 H 3.73 l 0.21,-1.14 c 0.04,-0.21 0.18,-0.92 0.24,-1.04 0.09,-0.19 0.26,-0.34 0.47,-0.34 0.04,0 0.3,0 0.49,0.18 -0.44,0.04 -0.54,0.39 -0.54,0.54 0,0.23 0.18,0.35 0.37,0.35 0.26,0 0.55,-0.22 0.55,-0.6 0,-0.46 -0.46,-0.69 -0.87,-0.69 -0.34,0 -0.97,0.18 -1.27,1.17 -0.06,0.21 -0.09,0.31 -0.33,1.57 H 2.36 c -0.19,0 -0.3,0 -0.3,0.19 C 2.06,-4 2.15,-4 2.34,-4 H 3 L 2.25,-0.05 C 2.07,0.92 1.9,1.83 1.38,1.83 1.34,1.83 1.09,1.83 0.9,1.65 1.36,1.62 1.45,1.26 1.45,1.11 1.45,0.88 1.27,0.76 1.08,0.76 c -0.26,0 -0.55,0.22 -0.55,0.6 0,0.45 0.44,0.69 0.85,0.69 0.55,0 0.95,-0.59 1.13,-0.97 0.32,-0.63 0.55,-1.84 0.56,-1.91 L 3.67,-4 z"
           id="equation_00_04"
           inkscape:connector-curvature="0" />
      </defs>
      <g
         id="equation_00_g">
        <use
           x="77"
           xlink:href="#equation_00_04"
           y="63"
           id="use2999"
           width="744.09448"
           height="1052.3622" />
        <use
           x="81.895897"
           xlink:href="#equation_00_03"
           y="64.5"
           id="use3001"
           width="744.09448"
           height="1052.3622" />
        <use
           x="86.382004"
           xlink:href="#equation_00_01"
           y="63"
           id="use3003"
           width="744.09448"
           height="1052.3622" />
        <use
           x="90.270897"
           xlink:href="#equation_00_00"
           y="63"
           id="use3005"
           width="744.09448"
           height="1052.3622" />
        <use
           x="96.340302"
           xlink:href="#equation_00_02"
           y="63"
           id="use3007"
           width="744.09448"
           height="1052.3622" />
      </g>
    </g>
    <g
       title="$f_2(\mathbf{x})$"
       style="fill:#000000"
       id="equation_01"
       transform="matrix(3.3229905,0,0,3.3229905,19.908744,17.546139)">
      <defs
         id="defs3044">
        <path
           id="equation_01_00"
           d="m 3.46,-2.46 1.17,-1.3 C 4.76,-3.9 4.82,-3.97 5.65,-3.97 V -4.44 C 5.3,-4.42 4.78,-4.41 4.73,-4.41 4.48,-4.41 3.98,-4.43 3.7,-4.44 v 0.47 c 0.14,0 0.26,0.02 0.38,0.09 C 4.04,-3.82 4.04,-3.8 4,-3.76 L 3.16,-2.82 2.18,-3.97 h 0.4 v -0.47 c -0.26,0.01 -0.89,0.03 -1.21,0.03 -0.32,0 -0.77,-0.02 -1.1,-0.03 v 0.47 h 0.71 l 1.56,1.84 -1.31,1.47 C 1.06,-0.47 0.7,-0.47 0.22,-0.47 V 0 c 0.35,-0.02 0.87,-0.03 0.92,-0.03 0.25,0 0.83,0.02 1.03,0.03 v -0.47 c -0.18,0 -0.37,-0.05 -0.37,-0.11 0,-0.01 0,-0.02 0.07,-0.1 l 0.97,-1.09 1.1,1.3 H 3.55 V 0 c 0.26,-0.01 0.87,-0.03 1.2,-0.03 0.32,0 0.77,0.02 1.1,0.03 V -0.47 H 5.14 L 3.46,-2.46 z"
           inkscape:connector-curvature="0" />
        <path
           id="equation_01_01"
           d="M 3.31,2.4 C 3.31,2.37 3.31,2.35 3.14,2.18 1.89,0.92 1.57,-0.97 1.57,-2.5 c 0,-1.74 0.38,-3.48 1.61,-4.73 0.13,-0.12 0.13,-0.14 0.13,-0.17 0,-0.07 -0.04,-0.1 -0.1,-0.1 -0.1,0 -1,0.68 -1.59,1.95 -0.51,1.1 -0.63,2.21 -0.63,3.05 0,0.78 0.11,1.99 0.66,3.12 0.6,1.23 1.46,1.88 1.56,1.88 0.06,0 0.1,-0.03 0.1,-0.1 z"
           inkscape:connector-curvature="0" />
        <path
           id="equation_01_02"
           d="M 2.89,-2.5 C 2.89,-3.28 2.78,-4.49 2.23,-5.62 1.63,-6.85 0.77,-7.5 0.67,-7.5 c -0.06,0 -0.1,0.04 -0.1,0.1 0,0.03 0,0.05 0.19,0.23 0.98,0.99 1.55,2.58 1.55,4.67 0,1.71 -0.37,3.47 -1.61,4.73 -0.13,0.12 -0.13,0.14 -0.13,0.17 0,0.06 0.04,0.1 0.1,0.1 0.1,0 1,-0.68 1.59,-1.95 0.51,-1.1 0.63,-2.21 0.63,-3.05 z"
           inkscape:connector-curvature="0" />
        <path
           id="equation_01_03"
           d="M 3.535,-1.274 H 3.297 C 3.276,-1.12 3.206,-0.707 3.115,-0.637 3.059,-0.595 2.52,-0.595 2.422,-0.595 H 1.134 c 0.735,-0.651 0.98,-0.847 1.4,-1.176 0.518,-0.413 1.001,-0.847 1.001,-1.512 0,-0.847 -0.742,-1.365 -1.638,-1.365 -0.868,0 -1.456,0.609 -1.456,1.253 0,0.357 0.301,0.392 0.371,0.392 0.168,0 0.371,-0.119 0.371,-0.371 0,-0.126 -0.049,-0.371 -0.413,-0.371 0.217,-0.497 0.693,-0.651 1.022,-0.651 0.7,0 1.064,0.546 1.064,1.113 0,0.609 -0.434,1.092 -0.658,1.344 L 0.511,-0.273 C 0.441,-0.21 0.441,-0.196 0.441,0 h 2.884 l 0.21,-1.274 z"
           inkscape:connector-curvature="0" />
        <path
           id="equation_01_04"
           d="m 3.67,-4 h 0.86 c 0.2,0 0.3,0 0.3,-0.2 0,-0.11 -0.1,-0.11 -0.27,-0.11 H 3.73 l 0.21,-1.14 c 0.04,-0.21 0.18,-0.92 0.24,-1.04 0.09,-0.19 0.26,-0.34 0.47,-0.34 0.04,0 0.3,0 0.49,0.18 -0.44,0.04 -0.54,0.39 -0.54,0.54 0,0.23 0.18,0.35 0.37,0.35 0.26,0 0.55,-0.22 0.55,-0.6 0,-0.46 -0.46,-0.69 -0.87,-0.69 -0.34,0 -0.97,0.18 -1.27,1.17 -0.06,0.21 -0.09,0.31 -0.33,1.57 H 2.36 c -0.19,0 -0.3,0 -0.3,0.19 C 2.06,-4 2.15,-4 2.34,-4 H 3 L 2.25,-0.05 C 2.07,0.92 1.9,1.83 1.38,1.83 1.34,1.83 1.09,1.83 0.9,1.65 1.36,1.62 1.45,1.26 1.45,1.11 1.45,0.88 1.27,0.76 1.08,0.76 c -0.26,0 -0.55,0.22 -0.55,0.6 0,0.45 0.44,0.69 0.85,0.69 0.55,0 0.95,-0.59 1.13,-0.97 0.32,-0.63 0.55,-1.84 0.56,-1.91 L 3.67,-4 z"
           inkscape:connector-curvature="0" />
      </defs>
      <g
         id="equation_01_g">
        <use
           id="use3052"
           y="63"
           xlink:href="#equation_01_04"
           x="77"
           width="744.09448"
           height="1052.3622" />
        <use
           id="use3054"
           y="64.5"
           xlink:href="#equation_01_03"
           x="81.895897"
           width="744.09448"
           height="1052.3622" />
        <use
           id="use3056"
           y="63"
           xlink:href="#equation_01_01"
           x="86.382004"
           width="744.09448"
           height="1052.3622" />
        <use
           id="use3058"
           y="63"
           xlink:href="#equation_01_00"
           x="90.270897"
           width="744.09448"
           height="1052.3622" />
        <use
           id="use3060"
           y="63"
           xlink:href="#equation_01_02"
           x="96.340302"
           width="744.09448"
           height="1052.3622" />
      </g>
    </g>
    <g
       id="equation_02"
       style="fill:#000000"
       title="$f_M(\mathbf{x})$"
       transform="matrix(3.3229905,0,0,3.3229905,261.3352,17.546139)">
      <defs
         id="defs3123">
        <path
           d="m 3.46,-2.46 1.17,-1.3 C 4.76,-3.9 4.82,-3.97 5.65,-3.97 V -4.44 C 5.3,-4.42 4.78,-4.41 4.73,-4.41 4.48,-4.41 3.98,-4.43 3.7,-4.44 v 0.47 c 0.14,0 0.26,0.02 0.38,0.09 C 4.04,-3.82 4.04,-3.8 4,-3.76 L 3.16,-2.82 2.18,-3.97 h 0.4 v -0.47 c -0.26,0.01 -0.89,0.03 -1.21,0.03 -0.32,0 -0.77,-0.02 -1.1,-0.03 v 0.47 h 0.71 l 1.56,1.84 -1.31,1.47 C 1.06,-0.47 0.7,-0.47 0.22,-0.47 V 0 c 0.35,-0.02 0.87,-0.03 0.92,-0.03 0.25,0 0.83,0.02 1.03,0.03 v -0.47 c -0.18,0 -0.37,-0.05 -0.37,-0.11 0,-0.01 0,-0.02 0.07,-0.1 l 0.97,-1.09 1.1,1.3 H 3.55 V 0 c 0.26,-0.01 0.87,-0.03 1.2,-0.03 0.32,0 0.77,0.02 1.1,0.03 V -0.47 H 5.14 L 3.46,-2.46 z"
           id="equation_02_00"
           inkscape:connector-curvature="0" />
        <path
           d="m 7.147,-4.214 c 0.063,-0.259 0.077,-0.315 0.595,-0.315 0.147,0 0.238,0 0.238,-0.147 0,-0.105 -0.084,-0.105 -0.21,-0.105 H 6.818 c -0.203,0 -0.21,0.007 -0.301,0.14 L 3.815,-0.651 3.122,-4.592 C 3.087,-4.774 3.087,-4.781 2.877,-4.781 H 1.876 c -0.14,0 -0.231,0 -0.231,0.154 0,0.098 0.084,0.098 0.238,0.098 0.112,0 0.14,0 0.266,0.014 0.14,0.014 0.154,0.028 0.154,0.098 0,0.007 0,0.049 -0.028,0.154 l -0.882,3.514 c -0.063,0.238 -0.168,0.476 -0.728,0.497 -0.056,0 -0.147,0.007 -0.147,0.154 C 0.518,-0.091 0.525,0 0.623,0 0.833,0 1.127,-0.028 1.351,-0.028 1.519,-0.028 1.925,0 2.093,0 c 0.035,0 0.14,0 0.14,-0.154 0,-0.091 -0.091,-0.098 -0.154,-0.098 -0.448,-0.014 -0.448,-0.196 -0.448,-0.294 0,-0.028 0,-0.063 0.028,-0.175 L 2.59,-4.445 h 0.007 l 0.749,4.256 C 3.367,-0.063 3.381,0 3.486,0 3.584,0 3.64,-0.077 3.689,-0.154 l 2.94,-4.361 0.007,0.007 -0.987,3.962 c -0.056,0.238 -0.07,0.294 -0.616,0.294 -0.126,0 -0.21,0 -0.21,0.154 0,0.007 0,0.098 0.112,0.098 0.133,0 0.294,-0.021 0.434,-0.021 0.14,0 0.301,-0.007 0.441,-0.007 0.196,0 0.693,0.028 0.889,0.028 0.042,0 0.147,0 0.147,-0.154 0,-0.098 -0.084,-0.098 -0.224,-0.098 -0.007,0 -0.14,0 -0.266,-0.014 -0.161,-0.014 -0.161,-0.035 -0.161,-0.105 0,-0.042 0.021,-0.112 0.028,-0.154 l 0.924,-3.689 z"
           id="equation_02_01"
           inkscape:connector-curvature="0" />
        <path
           d="m 3.67,-4 h 0.86 c 0.2,0 0.3,0 0.3,-0.2 0,-0.11 -0.1,-0.11 -0.27,-0.11 H 3.73 l 0.21,-1.14 c 0.04,-0.21 0.18,-0.92 0.24,-1.04 0.09,-0.19 0.26,-0.34 0.47,-0.34 0.04,0 0.3,0 0.49,0.18 -0.44,0.04 -0.54,0.39 -0.54,0.54 0,0.23 0.18,0.35 0.37,0.35 0.26,0 0.55,-0.22 0.55,-0.6 0,-0.46 -0.46,-0.69 -0.87,-0.69 -0.34,0 -0.97,0.18 -1.27,1.17 -0.06,0.21 -0.09,0.31 -0.33,1.57 H 2.36 c -0.19,0 -0.3,0 -0.3,0.19 C 2.06,-4 2.15,-4 2.34,-4 H 3 L 2.25,-0.05 C 2.07,0.92 1.9,1.83 1.38,1.83 1.34,1.83 1.09,1.83 0.9,1.65 1.36,1.62 1.45,1.26 1.45,1.11 1.45,0.88 1.27,0.76 1.08,0.76 c -0.26,0 -0.55,0.22 -0.55,0.6 0,0.45 0.44,0.69 0.85,0.69 0.55,0 0.95,-0.59 1.13,-0.97 0.32,-0.63 0.55,-1.84 0.56,-1.91 L 3.67,-4 z"
           id="equation_02_02"
           inkscape:connector-curvature="0" />
        <path
           d="M 3.31,2.4 C 3.31,2.37 3.31,2.35 3.14,2.18 1.89,0.92 1.57,-0.97 1.57,-2.5 c 0,-1.74 0.38,-3.48 1.61,-4.73 0.13,-0.12 0.13,-0.14 0.13,-0.17 0,-0.07 -0.04,-0.1 -0.1,-0.1 -0.1,0 -1,0.68 -1.59,1.95 -0.51,1.1 -0.63,2.21 -0.63,3.05 0,0.78 0.11,1.99 0.66,3.12 0.6,1.23 1.46,1.88 1.56,1.88 0.06,0 0.1,-0.03 0.1,-0.1 z"
           id="equation_02_03"
           inkscape:connector-curvature="0" />
        <path
           d="M 2.89,-2.5 C 2.89,-3.28 2.78,-4.49 2.23,-5.62 1.63,-6.85 0.77,-7.5 0.67,-7.5 c -0.06,0 -0.1,0.04 -0.1,0.1 0,0.03 0,0.05 0.19,0.23 0.98,0.99 1.55,2.58 1.55,4.67 0,1.71 -0.37,3.47 -1.61,4.73 -0.13,0.12 -0.13,0.14 -0.13,0.17 0,0.06 0.04,0.1 0.1,0.1 0.1,0 1,-0.68 1.59,-1.95 0.51,-1.1 0.63,-2.21 0.63,-3.05 z"
           id="equation_02_04"
           inkscape:connector-curvature="0" />
      </defs>
      <g
         id="equation_02_g">
        <use
           x="77"
           xlink:href="#equation_02_02"
           y="63"
           id="use3131"
           width="744.09448"
           height="1052.3622" />
        <use
           x="81.895897"
           xlink:href="#equation_02_01"
           y="64.5"
           id="use3133"
           width="744.09448"
           height="1052.3622" />
        <use
           x="90.772301"
           xlink:href="#equation_02_03"
           y="63"
           id="use3135"
           width="744.09448"
           height="1052.3622" />
        <use
           x="94.661201"
           xlink:href="#equation_02_00"
           y="63"
           id="use3137"
           width="744.09448"
           height="1052.3622" />
        <use
           x="100.731"
           xlink:href="#equation_02_04"
           y="63"
           id="use3139"
           width="744.09448"
           height="1052.3622" />
      </g>
    </g>
    <g
       title="$f(\mathbf{x})$"
       style="fill:#000000"
       id="equation_03"
       transform="matrix(3.3229905,0,0,3.3229905,42.1321,144.82536)">
      <defs
         id="defs3228">
        <path
           id="equation_03_00"
           d="m 3.46,-2.46 1.17,-1.3 C 4.76,-3.9 4.82,-3.97 5.65,-3.97 V -4.44 C 5.3,-4.42 4.78,-4.41 4.73,-4.41 4.48,-4.41 3.98,-4.43 3.7,-4.44 v 0.47 c 0.14,0 0.26,0.02 0.38,0.09 C 4.04,-3.82 4.04,-3.8 4,-3.76 L 3.16,-2.82 2.18,-3.97 h 0.4 v -0.47 c -0.26,0.01 -0.89,0.03 -1.21,0.03 -0.32,0 -0.77,-0.02 -1.1,-0.03 v 0.47 h 0.71 l 1.56,1.84 -1.31,1.47 C 1.06,-0.47 0.7,-0.47 0.22,-0.47 V 0 c 0.35,-0.02 0.87,-0.03 0.92,-0.03 0.25,0 0.83,0.02 1.03,0.03 v -0.47 c -0.18,0 -0.37,-0.05 -0.37,-0.11 0,-0.01 0,-0.02 0.07,-0.1 l 0.97,-1.09 1.1,1.3 H 3.55 V 0 c 0.26,-0.01 0.87,-0.03 1.2,-0.03 0.32,0 0.77,0.02 1.1,0.03 V -0.47 H 5.14 L 3.46,-2.46 z"
           inkscape:connector-curvature="0" />
        <path
           id="equation_03_01"
           d="M 3.31,2.4 C 3.31,2.37 3.31,2.35 3.14,2.18 1.89,0.92 1.57,-0.97 1.57,-2.5 c 0,-1.74 0.38,-3.48 1.61,-4.73 0.13,-0.12 0.13,-0.14 0.13,-0.17 0,-0.07 -0.04,-0.1 -0.1,-0.1 -0.1,0 -1,0.68 -1.59,1.95 -0.51,1.1 -0.63,2.21 -0.63,3.05 0,0.78 0.11,1.99 0.66,3.12 0.6,1.23 1.46,1.88 1.56,1.88 0.06,0 0.1,-0.03 0.1,-0.1 z"
           inkscape:connector-curvature="0" />
        <path
           id="equation_03_02"
           d="M 2.89,-2.5 C 2.89,-3.28 2.78,-4.49 2.23,-5.62 1.63,-6.85 0.77,-7.5 0.67,-7.5 c -0.06,0 -0.1,0.04 -0.1,0.1 0,0.03 0,0.05 0.19,0.23 0.98,0.99 1.55,2.58 1.55,4.67 0,1.71 -0.37,3.47 -1.61,4.73 -0.13,0.12 -0.13,0.14 -0.13,0.17 0,0.06 0.04,0.1 0.1,0.1 0.1,0 1,-0.68 1.59,-1.95 0.51,-1.1 0.63,-2.21 0.63,-3.05 z"
           inkscape:connector-curvature="0" />
        <path
           id="equation_03_03"
           d="m 3.67,-4 h 0.86 c 0.2,0 0.3,0 0.3,-0.2 0,-0.11 -0.1,-0.11 -0.27,-0.11 H 3.73 l 0.21,-1.14 c 0.04,-0.21 0.18,-0.92 0.24,-1.04 0.09,-0.19 0.26,-0.34 0.47,-0.34 0.04,0 0.3,0 0.49,0.18 -0.44,0.04 -0.54,0.39 -0.54,0.54 0,0.23 0.18,0.35 0.37,0.35 0.26,0 0.55,-0.22 0.55,-0.6 0,-0.46 -0.46,-0.69 -0.87,-0.69 -0.34,0 -0.97,0.18 -1.27,1.17 -0.06,0.21 -0.09,0.31 -0.33,1.57 H 2.36 c -0.19,0 -0.3,0 -0.3,0.19 C 2.06,-4 2.15,-4 2.34,-4 H 3 L 2.25,-0.05 C 2.07,0.92 1.9,1.83 1.38,1.83 1.34,1.83 1.09,1.83 0.9,1.65 1.36,1.62 1.45,1.26 1.45,1.11 1.45,0.88 1.27,0.76 1.08,0.76 c -0.26,0 -0.55,0.22 -0.55,0.6 0,0.45 0.44,0.69 0.85,0.69 0.55,0 0.95,-0.59 1.13,-0.97 0.32,-0.63 0.55,-1.84 0.56,-1.91 L 3.67,-4 z"
           inkscape:connector-curvature="0" />
      </defs>
      <g
         id="equation_03_g">
        <use
           id="use3235"
           y="63"
           xlink:href="#equation_03_03"
           x="77"
           width="744.09448"
           height="1052.3622" />
        <use
           id="use3237"
           y="63"
           xlink:href="#equation_03_01"
           x="82.972298"
           width="744.09448"
           height="1052.3622" />
        <use
           id="use3239"
           y="63"
           xlink:href="#equation_03_00"
           x="86.861198"
           width="744.09448"
           height="1052.3622" />
        <use
           id="use3241"
           y="63"
           xlink:href="#equation_03_02"
           x="92.930603"
           width="744.09448"
           height="1052.3622" />
      </g>
    </g>
    <path
       style="fill:none;stroke:#000000;stroke-width:3;stroke-linecap:butt;stroke-linejoin:miter;stroke-opacity:1;stroke-miterlimit:4;stroke-dasharray:12,12;stroke-dashoffset:0"
       d="m 376.7869,225.04725 119.198,0"
       id="path3296"
       inkscape:connector-curvature="0" />
    <path
       style="fill:none;stroke:#000000;stroke-width:1px;stroke-linecap:butt;stroke-linejoin:miter;stroke-opacity:1;marker-end:url(#Arrow1Lend)"
       d="M 218.19295,245.2503 297.995,316.97113"
       id="path4066"
       inkscape:connector-curvature="0" />
    <path
       style="fill:none;stroke:#000000;stroke-width:1px;stroke-linecap:butt;stroke-linejoin:miter;stroke-opacity:1;marker-end:url(#Arrow1Lend)"
       d="m 324.25897,245.2503 3.03045,71.72083"
       id="path4068"
       inkscape:connector-curvature="0" />
    <path
       style="fill:none;stroke:#000000;stroke-width:1px;stroke-linecap:butt;stroke-linejoin:miter;stroke-opacity:1;marker-end:url(#Arrow1Lend)"
       d="M 561.64482,241.20969 355.5737,317.98128"
       id="path4070"
       inkscape:connector-curvature="0" />
  </g>
</svg>
