<?xml version="1.0" encoding="UTF-8" standalone="no"?>
<!-- Created with Inkscape (http://www.inkscape.org/) -->

<svg
   xmlns:dc="http://purl.org/dc/elements/1.1/"
   xmlns:cc="http://creativecommons.org/ns#"
   xmlns:rdf="http://www.w3.org/1999/02/22-rdf-syntax-ns#"
   xmlns:svg="http://www.w3.org/2000/svg"
   xmlns="http://www.w3.org/2000/svg"
   xmlns:sodipodi="http://sodipodi.sourceforge.net/DTD/sodipodi-0.dtd"
   xmlns:inkscape="http://www.inkscape.org/namespaces/inkscape"
   width="210mm"
   height="297mm"
   id="svg2"
   version="1.1"
   inkscape:version="0.48.4 r9939"
   sodipodi:docname="fisher-linear-discriminant2.svg"
   inkscape:export-filename="\\EULER\nineties\projects\prml-seminar\fig\fisher-linear-discriminant2.png"
   inkscape:export-xdpi="90"
   inkscape:export-ydpi="90">
  <defs
     id="defs4">
    <marker
       inkscape:stockid="Arrow1Lend"
       orient="auto"
       refY="0.0"
       refX="0.0"
       id="Arrow1Lend"
       style="overflow:visible;">
      <path
         id="path4120"
         d="M 0.0,0.0 L 5.0,-5.0 L -12.5,0.0 L 5.0,5.0 L 0.0,0.0 z "
         style="fill-rule:evenodd;stroke:#000000;stroke-width:1.0pt;"
         transform="scale(0.8) rotate(180) translate(12.5,0)" />
    </marker>
    <marker
       inkscape:stockid="Arrow1Mend"
       orient="auto"
       refY="0.0"
       refX="0.0"
       id="Arrow1Mend"
       style="overflow:visible;">
      <path
         id="path4126"
         d="M 0.0,0.0 L 5.0,-5.0 L -12.5,0.0 L 5.0,5.0 L 0.0,0.0 z "
         style="fill-rule:evenodd;stroke:#000000;stroke-width:1.0pt;"
         transform="scale(0.4) rotate(180) translate(10,0)" />
    </marker>
    <marker
       inkscape:stockid="Arrow1Lend"
       orient="auto"
       refY="0"
       refX="0"
       id="Arrow1Lend-7"
       style="overflow:visible">
      <path
         inkscape:connector-curvature="0"
         id="path4120-1"
         d="M 0,0 5,-5 -12.5,0 5,5 0,0 z"
         style="fill-rule:evenodd;stroke:#000000;stroke-width:1pt"
         transform="matrix(-0.8,0,0,-0.8,-10,0)" />
    </marker>
    <marker
       inkscape:stockid="Arrow1Lend"
       orient="auto"
       refY="0"
       refX="0"
       id="Arrow1Lend-5"
       style="overflow:visible">
      <path
         inkscape:connector-curvature="0"
         id="path4120-2"
         d="M 0,0 5,-5 -12.5,0 5,5 0,0 z"
         style="fill-rule:evenodd;stroke:#000000;stroke-width:1pt"
         transform="matrix(-0.8,0,0,-0.8,-10,0)" />
    </marker>
    <marker
       inkscape:stockid="Arrow1Lend"
       orient="auto"
       refY="0"
       refX="0"
       id="Arrow1Lend-1"
       style="overflow:visible">
      <path
         inkscape:connector-curvature="0"
         id="path4120-4"
         d="M 0,0 5,-5 -12.5,0 5,5 0,0 z"
         style="fill-rule:evenodd;stroke:#000000;stroke-width:1pt"
         transform="matrix(-0.8,0,0,-0.8,-10,0)" />
    </marker>
  </defs>
  <sodipodi:namedview
     id="base"
     pagecolor="#ffffff"
     bordercolor="#666666"
     borderopacity="1.0"
     inkscape:pageopacity="0.0"
     inkscape:pageshadow="2"
     inkscape:zoom="0.7"
     inkscape:cx="285.4735"
     inkscape:cy="683.33821"
     inkscape:document-units="px"
     inkscape:current-layer="layer1"
     showgrid="false"
     inkscape:window-width="1366"
     inkscape:window-height="746"
     inkscape:window-x="-8"
     inkscape:window-y="-8"
     inkscape:window-maximized="1" />
  <metadata
     id="metadata7">
    <rdf:RDF>
      <cc:Work
         rdf:about="">
        <dc:format>image/svg+xml</dc:format>
        <dc:type
           rdf:resource="http://purl.org/dc/dcmitype/StillImage" />
        <dc:title></dc:title>
      </cc:Work>
    </rdf:RDF>
  </metadata>
  <g
     inkscape:label="レイヤー 1"
     inkscape:groupmode="layer"
     id="layer1">
    <path
       sodipodi:type="arc"
       style="fill:#ff0000;fill-opacity:0.19607843;stroke:#ff0000;stroke-width:1;stroke-linecap:round;stroke-miterlimit:4;stroke-opacity:1;stroke-dasharray:none;stroke-dashoffset:0"
       id="path2985"
       sodipodi:cx="145.71428"
       sodipodi:cy="340.93362"
       sodipodi:rx="11.428572"
       sodipodi:ry="11.428572"
       d="m 157.14285,340.93362 a 11.428572,11.428572 0 1 1 -22.85714,0 11.428572,11.428572 0 1 1 22.85714,0 z"
       transform="translate(85.714286,102.85714)" />
    <path
       transform="translate(228.57144,21.428558)"
       sodipodi:type="arc"
       style="fill:#ff0000;fill-opacity:0.19607843;stroke:#ff0000;stroke-width:1;stroke-linecap:round;stroke-miterlimit:4;stroke-opacity:1;stroke-dasharray:none;stroke-dashoffset:0"
       id="path2985-1"
       sodipodi:cx="145.71428"
       sodipodi:cy="340.93362"
       sodipodi:rx="11.428572"
       sodipodi:ry="11.428572"
       d="m 157.14285,340.93362 a 11.428572,11.428572 0 1 1 -22.85714,0 11.428572,11.428572 0 1 1 22.85714,0 z" />
    <path
       transform="translate(180.00001,37.142844)"
       sodipodi:type="arc"
       style="fill:#ff0000;fill-opacity:0.19607843;stroke:#ff0000;stroke-width:1;stroke-linecap:round;stroke-miterlimit:4;stroke-opacity:1;stroke-dasharray:none;stroke-dashoffset:0"
       id="path2985-1-7"
       sodipodi:cx="145.71428"
       sodipodi:cy="340.93362"
       sodipodi:rx="11.428572"
       sodipodi:ry="11.428572"
       d="m 157.14285,340.93362 a 11.428572,11.428572 0 1 1 -22.85714,0 11.428572,11.428572 0 1 1 22.85714,0 z" />
    <path
       transform="translate(152.85715,112.85713)"
       sodipodi:type="arc"
       style="fill:#ff0000;fill-opacity:0.19607843;stroke:#ff0000;stroke-width:1;stroke-linecap:round;stroke-miterlimit:4;stroke-opacity:1;stroke-dasharray:none;stroke-dashoffset:0"
       id="path2985-1-7-4"
       sodipodi:cx="145.71428"
       sodipodi:cy="340.93362"
       sodipodi:rx="11.428572"
       sodipodi:ry="11.428572"
       d="m 157.14285,340.93362 a 11.428572,11.428572 0 1 1 -22.85714,0 11.428572,11.428572 0 1 1 22.85714,0 z" />
    <path
       transform="translate(327.14286,-37.142871)"
       sodipodi:type="arc"
       style="fill:#ff0000;fill-opacity:0.19607843;stroke:#ff0000;stroke-width:1;stroke-linecap:round;stroke-miterlimit:4;stroke-opacity:1;stroke-dasharray:none;stroke-dashoffset:0"
       id="path2985-1-7-4-0"
       sodipodi:cx="145.71428"
       sodipodi:cy="340.93362"
       sodipodi:rx="11.428572"
       sodipodi:ry="11.428572"
       d="m 157.14285,340.93362 a 11.428572,11.428572 0 1 1 -22.85714,0 11.428572,11.428572 0 1 1 22.85714,0 z" />
    <path
       transform="translate(298.57143,31.428558)"
       sodipodi:type="arc"
       style="fill:#ff0000;fill-opacity:0.19607843;stroke:#ff0000;stroke-width:1;stroke-linecap:round;stroke-miterlimit:4;stroke-opacity:1;stroke-dasharray:none;stroke-dashoffset:0"
       id="path2985-1-7-4-0-9"
       sodipodi:cx="145.71428"
       sodipodi:cy="340.93362"
       sodipodi:rx="11.428572"
       sodipodi:ry="11.428572"
       d="m 157.14285,340.93362 a 11.428572,11.428572 0 1 1 -22.85714,0 11.428572,11.428572 0 1 1 22.85714,0 z" />
    <path
       transform="translate(142.85715,62.857129)"
       sodipodi:type="arc"
       style="fill:#ff0000;fill-opacity:0.19607843;stroke:#ff0000;stroke-width:1;stroke-linecap:round;stroke-miterlimit:4;stroke-opacity:1;stroke-dasharray:none;stroke-dashoffset:0"
       id="path2985-1-7-4-0-9-4"
       sodipodi:cx="145.71428"
       sodipodi:cy="340.93362"
       sodipodi:rx="11.428572"
       sodipodi:ry="11.428572"
       d="m 157.14285,340.93362 a 11.428572,11.428572 0 1 1 -22.85714,0 11.428572,11.428572 0 1 1 22.85714,0 z" />
    <path
       transform="translate(24.28572,94.285701)"
       sodipodi:type="arc"
       style="fill:#ff0000;fill-opacity:0.19607843;stroke:#ff0000;stroke-width:1;stroke-linecap:round;stroke-miterlimit:4;stroke-opacity:1;stroke-dasharray:none;stroke-dashoffset:0"
       id="path2985-1-7-4-0-9-4-8"
       sodipodi:cx="145.71428"
       sodipodi:cy="340.93362"
       sodipodi:rx="11.428572"
       sodipodi:ry="11.428572"
       d="m 157.14285,340.93362 a 11.428572,11.428572 0 1 1 -22.85714,0 11.428572,11.428572 0 1 1 22.85714,0 z" />
    <path
       transform="translate(297.14286,62.857129)"
       sodipodi:type="arc"
       style="fill:#ff0000;fill-opacity:0.19607843;stroke:#ff0000;stroke-width:1;stroke-linecap:round;stroke-miterlimit:4;stroke-opacity:1;stroke-dasharray:none;stroke-dashoffset:0"
       id="path2985-1-7-4-0-9-4-8-8"
       sodipodi:cx="145.71428"
       sodipodi:cy="340.93362"
       sodipodi:rx="11.428572"
       sodipodi:ry="11.428572"
       d="m 157.14285,340.93362 a 11.428572,11.428572 0 1 1 -22.85714,0 11.428572,11.428572 0 1 1 22.85714,0 z" />
    <path
       transform="translate(142.85714,-120.71429)"
       sodipodi:type="arc"
       style="fill:#0000ff;fill-opacity:0.19607843;stroke:#0000ff;stroke-width:1;stroke-linecap:round;stroke-miterlimit:4;stroke-opacity:1;stroke-dasharray:none;stroke-dashoffset:0"
       id="path2985-2"
       sodipodi:cx="145.71428"
       sodipodi:cy="340.93362"
       sodipodi:rx="11.428572"
       sodipodi:ry="11.428572"
       d="m 157.14285,340.93362 a 11.428572,11.428572 0 1 1 -22.85714,0 11.428572,11.428572 0 1 1 22.85714,0 z" />
    <path
       transform="translate(301.42858,-113.57144)"
       sodipodi:type="arc"
       style="fill:#0000ff;fill-opacity:0.19607843;stroke:#0000ff;stroke-width:1;stroke-linecap:round;stroke-miterlimit:4;stroke-opacity:1;stroke-dasharray:none;stroke-dashoffset:0"
       id="path2985-1-4"
       sodipodi:cx="145.71428"
       sodipodi:cy="340.93362"
       sodipodi:rx="11.428572"
       sodipodi:ry="11.428572"
       d="m 157.14285,340.93362 a 11.428572,11.428572 0 1 1 -22.85714,0 11.428572,11.428572 0 1 1 22.85714,0 z" />
    <path
       transform="translate(101.42859,-27.857161)"
       sodipodi:type="arc"
       style="fill:#0000ff;fill-opacity:0.19607843;stroke:#0000ff;stroke-width:1;stroke-linecap:round;stroke-miterlimit:4;stroke-opacity:1;stroke-dasharray:none;stroke-dashoffset:0"
       id="path2985-1-7-5"
       sodipodi:cx="145.71428"
       sodipodi:cy="340.93362"
       sodipodi:rx="11.428572"
       sodipodi:ry="11.428572"
       d="m 157.14285,340.93362 a 11.428572,11.428572 0 1 1 -22.85714,0 11.428572,11.428572 0 1 1 22.85714,0 z" />
    <path
       transform="translate(245.7143,-126.42859)"
       sodipodi:type="arc"
       style="fill:#0000ff;fill-opacity:0.19607843;stroke:#0000ff;stroke-width:1;stroke-linecap:round;stroke-miterlimit:4;stroke-opacity:1;stroke-dasharray:none;stroke-dashoffset:0"
       id="path2985-1-7-4-5"
       sodipodi:cx="145.71428"
       sodipodi:cy="340.93362"
       sodipodi:rx="11.428572"
       sodipodi:ry="11.428572"
       d="m 157.14285,340.93362 a 11.428572,11.428572 0 1 1 -22.85714,0 11.428572,11.428572 0 1 1 22.85714,0 z" />
    <path
       transform="translate(172.85717,-73.571447)"
       sodipodi:type="arc"
       style="fill:#0000ff;fill-opacity:0.19607843;stroke:#0000ff;stroke-width:1;stroke-linecap:round;stroke-miterlimit:4;stroke-opacity:1;stroke-dasharray:none;stroke-dashoffset:0"
       id="path2985-1-7-4-0-1"
       sodipodi:cx="145.71428"
       sodipodi:cy="340.93362"
       sodipodi:rx="11.428572"
       sodipodi:ry="11.428572"
       d="m 157.14285,340.93362 a 11.428572,11.428572 0 1 1 -22.85714,0 11.428572,11.428572 0 1 1 22.85714,0 z" />
    <path
       style="fill:none;stroke:#000000;stroke-width:1px;stroke-linecap:butt;stroke-linejoin:miter;stroke-opacity:1;marker-end:none"
       d="M 495.71428,525.21932 512.85713,163.79075"
       id="path3929"
       inkscape:connector-curvature="0"
       sodipodi:nodetypes="cc" />
    <path
       sodipodi:type="arc"
       style="fill:none;stroke:#000000;stroke-width:10;stroke-linecap:round;stroke-miterlimit:4;stroke-opacity:1;stroke-dasharray:none;stroke-dashoffset:0"
       id="path4861"
       sodipodi:cx="294.28571"
       sodipodi:cy="240.93361"
       sodipodi:rx="4.2857141"
       sodipodi:ry="4.2857141"
       d="m 298.57142,240.93361 a 4.2857141,4.2857141 0 1 1 -8.57143,0 4.2857141,4.2857141 0 1 1 8.57143,0 z"
       transform="translate(57.142857,15.714286)" />
    <path
       sodipodi:type="arc"
       style="fill:none;stroke:#000000;stroke-width:10;stroke-linecap:round;stroke-miterlimit:4;stroke-opacity:1;stroke-dasharray:none;stroke-dashoffset:0"
       id="path4861-2"
       sodipodi:cx="294.28571"
       sodipodi:cy="240.93361"
       sodipodi:rx="4.2857141"
       sodipodi:ry="4.2857141"
       d="m 298.57142,240.93361 a 4.2857141,4.2857141 0 1 1 -8.57143,0 4.2857141,4.2857141 0 1 1 8.57143,0 z"
       transform="translate(54.285723,148.57143)" />
    <path
       style="fill:none;stroke:#000000;stroke-width:1px;stroke-linecap:butt;stroke-linejoin:miter;stroke-opacity:1"
       d="M 352.85714,262.36218 345.71429,386.6479"
       id="path4881"
       inkscape:connector-curvature="0" />
    <path
       style="fill:none;stroke:#000000;stroke-width:1px;stroke-linecap:butt;stroke-linejoin:miter;stroke-opacity:1;marker-end:url(#Arrow1Lend-1)"
       d="m 348.57143,320.93361 c 7.14286,0 154.28571,12.85714 154.28571,12.85714"
       id="path4883"
       inkscape:connector-curvature="0" />
  </g>
</svg>
