<?xml version="1.0" encoding="UTF-8" standalone="no"?>
<!-- Created with Inkscape (http://www.inkscape.org/) -->

<svg
   xmlns:dc="http://purl.org/dc/elements/1.1/"
   xmlns:cc="http://creativecommons.org/ns#"
   xmlns:rdf="http://www.w3.org/1999/02/22-rdf-syntax-ns#"
   xmlns:svg="http://www.w3.org/2000/svg"
   xmlns="http://www.w3.org/2000/svg"
   xmlns:sodipodi="http://sodipodi.sourceforge.net/DTD/sodipodi-0.dtd"
   xmlns:inkscape="http://www.inkscape.org/namespaces/inkscape"
   width="210mm"
   height="297mm"
   id="svg2"
   version="1.1"
   inkscape:version="0.48.4 r9939"
   sodipodi:docname="fisher-linear-discriminant2.svg"
   inkscape:export-filename="\\EULER\nineties\projects\prml-seminar\fig\fisher-linear-discriminant2.png"
   inkscape:export-xdpi="90"
   inkscape:export-ydpi="90">
  <defs
     id="defs4">
    <marker
       inkscape:stockid="Arrow1Lend"
       orient="auto"
       refY="0.0"
       refX="0.0"
       id="Arrow1Lend"
       style="overflow:visible;">
      <path
         id="path4120"
         d="M 0.0,0.0 L 5.0,-5.0 L -12.5,0.0 L 5.0,5.0 L 0.0,0.0 z "
         style="fill-rule:evenodd;stroke:#000000;stroke-width:1.0pt;"
         transform="scale(0.8) rotate(180) translate(12.5,0)" />
    </marker>
    <marker
       inkscape:stockid="Arrow1Mend"
       orient="auto"
       refY="0.0"
       refX="0.0"
       id="Arrow1Mend"
       style="overflow:visible;">
      <path
         id="path4126"
         d="M 0.0,0.0 L 5.0,-5.0 L -12.5,0.0 L 5.0,5.0 L 0.0,0.0 z "
         style="fill-rule:evenodd;stroke:#000000;stroke-width:1.0pt;"
         transform="scale(0.4) rotate(180) translate(10,0)" />
    </marker>
    <marker
       inkscape:stockid="Arrow1Lend"
       orient="auto"
       refY="0"
       refX="0"
       id="Arrow1Lend-7"
       style="overflow:visible">
      <path
         inkscape:connector-curvature="0"
         id="path4120-1"
         d="M 0,0 5,-5 -12.5,0 5,5 0,0 z"
         style="fill-rule:evenodd;stroke:#000000;stroke-width:1pt"
         transform="matrix(-0.8,0,0,-0.8,-10,0)" />
    </marker>
    <marker
       inkscape:stockid="Arrow1Lend"
       orient="auto"
       refY="0"
       refX="0"
       id="Arrow1Lend-5"
       style="overflow:visible">
      <path
         inkscape:connector-curvature="0"
         id="path4120-2"
         d="M 0,0 5,-5 -12.5,0 5,5 0,0 z"
         style="fill-rule:evenodd;stroke:#000000;stroke-width:1pt"
         transform="matrix(-0.8,0,0,-0.8,-10,0)" />
    </marker>
    <marker
       inkscape:stockid="Arrow1Lend"
       orient="auto"
       refY="0"
       refX="0"
       id="Arrow1Lend-1"
       style="overflow:visible">
      <path
         inkscape:connector-curvature="0"
         id="path4120-4"
         d="M 0,0 5,-5 -12.5,0 5,5 0,0 z"
         style="fill-rule:evenodd;stroke:#000000;stroke-width:1pt"
         transform="matrix(-0.8,0,0,-0.8,-10,0)" />
    </marker>
  </defs>
  <sodipodi:namedview
     id="base"
     pagecolor="#ffffff"
     bordercolor="#666666"
     borderopacity="1.0"
     inkscape:pageopacity="0.0"
     inkscape:pageshadow="2"
     inkscape:zoom="0.7"
     inkscape:cx="453.99713"
     inkscape:cy="629.77407"
     inkscape:document-units="px"
     inkscape:current-layer="layer1"
     showgrid="false"
     inkscape:window-width="1366"
     inkscape:window-height="746"
     inkscape:window-x="-8"
     inkscape:window-y="-8"
     inkscape:window-maximized="1" />
  <metadata
     id="metadata7">
    <rdf:RDF>
      <cc:Work
         rdf:about="">
        <dc:format>image/svg+xml</dc:format>
        <dc:type
           rdf:resource="http://purl.org/dc/dcmitype/StillImage" />
        <dc:title></dc:title>
      </cc:Work>
    </rdf:RDF>
  </metadata>
  <g
     inkscape:label="レイヤー 1"
     inkscape:groupmode="layer"
     id="layer1">
    <path
       sodipodi:type="arc"
       style="fill:#ff0000;fill-opacity:0.19607843000000000;stroke:#ff0000;stroke-width:1;stroke-linecap:round;stroke-miterlimit:4;stroke-opacity:1;stroke-dasharray:none;stroke-dashoffset:0"
       id="path2985"
       sodipodi:cx="145.71428"
       sodipodi:cy="340.93362"
       sodipodi:rx="11.428572"
       sodipodi:ry="11.428572"
       d="m 157.14285,340.93362 a 11.428572,11.428572 0 1 1 -22.85714,0 11.428572,11.428572 0 1 1 22.85714,0 z" />
    <path
       transform="translate(94.285721,-1.4285849)"
       sodipodi:type="arc"
       style="fill:#ff0000;fill-opacity:0.19607843;stroke:#ff0000;stroke-width:1;stroke-linecap:round;stroke-miterlimit:4;stroke-opacity:1;stroke-dasharray:none;stroke-dashoffset:0"
       id="path2985-1"
       sodipodi:cx="145.71428"
       sodipodi:cy="340.93362"
       sodipodi:rx="11.428572"
       sodipodi:ry="11.428572"
       d="m 157.14285,340.93362 a 11.428572,11.428572 0 1 1 -22.85714,0 11.428572,11.428572 0 1 1 22.85714,0 z" />
    <path
       transform="translate(74.28572,51.428558)"
       sodipodi:type="arc"
       style="fill:#ff0000;fill-opacity:0.19607843;stroke:#ff0000;stroke-width:1;stroke-linecap:round;stroke-miterlimit:4;stroke-opacity:1;stroke-dasharray:none;stroke-dashoffset:0"
       id="path2985-1-7"
       sodipodi:cx="145.71428"
       sodipodi:cy="340.93362"
       sodipodi:rx="11.428572"
       sodipodi:ry="11.428572"
       d="m 157.14285,340.93362 a 11.428572,11.428572 0 1 1 -22.85714,0 11.428572,11.428572 0 1 1 22.85714,0 z" />
    <path
       transform="translate(152.85715,112.85713)"
       sodipodi:type="arc"
       style="fill:#ff0000;fill-opacity:0.19607843;stroke:#ff0000;stroke-width:1;stroke-linecap:round;stroke-miterlimit:4;stroke-opacity:1;stroke-dasharray:none;stroke-dashoffset:0"
       id="path2985-1-7-4"
       sodipodi:cx="145.71428"
       sodipodi:cy="340.93362"
       sodipodi:rx="11.428572"
       sodipodi:ry="11.428572"
       d="m 157.14285,340.93362 a 11.428572,11.428572 0 1 1 -22.85714,0 11.428572,11.428572 0 1 1 22.85714,0 z" />
    <path
       transform="translate(188.57144,11.428558)"
       sodipodi:type="arc"
       style="fill:#ff0000;fill-opacity:0.19607843;stroke:#ff0000;stroke-width:1;stroke-linecap:round;stroke-miterlimit:4;stroke-opacity:1;stroke-dasharray:none;stroke-dashoffset:0"
       id="path2985-1-7-4-0"
       sodipodi:cx="145.71428"
       sodipodi:cy="340.93362"
       sodipodi:rx="11.428572"
       sodipodi:ry="11.428572"
       d="m 157.14285,340.93362 a 11.428572,11.428572 0 1 1 -22.85714,0 11.428572,11.428572 0 1 1 22.85714,0 z" />
    <path
       transform="translate(160,-1.3722577e-5)"
       sodipodi:type="arc"
       style="fill:#ff0000;fill-opacity:0.19607843;stroke:#ff0000;stroke-width:1;stroke-linecap:round;stroke-miterlimit:4;stroke-opacity:1;stroke-dasharray:none;stroke-dashoffset:0"
       id="path2985-1-7-4-0-9"
       sodipodi:cx="145.71428"
       sodipodi:cy="340.93362"
       sodipodi:rx="11.428572"
       sodipodi:ry="11.428572"
       d="m 157.14285,340.93362 a 11.428572,11.428572 0 1 1 -22.85714,0 11.428572,11.428572 0 1 1 22.85714,0 z" />
    <path
       transform="translate(142.85715,62.857129)"
       sodipodi:type="arc"
       style="fill:#ff0000;fill-opacity:0.19607843;stroke:#ff0000;stroke-width:1;stroke-linecap:round;stroke-miterlimit:4;stroke-opacity:1;stroke-dasharray:none;stroke-dashoffset:0"
       id="path2985-1-7-4-0-9-4"
       sodipodi:cx="145.71428"
       sodipodi:cy="340.93362"
       sodipodi:rx="11.428572"
       sodipodi:ry="11.428572"
       d="m 157.14285,340.93362 a 11.428572,11.428572 0 1 1 -22.85714,0 11.428572,11.428572 0 1 1 22.85714,0 z" />
    <path
       transform="translate(24.28572,94.285701)"
       sodipodi:type="arc"
       style="fill:#ff0000;fill-opacity:0.19607843;stroke:#ff0000;stroke-width:1;stroke-linecap:round;stroke-miterlimit:4;stroke-opacity:1;stroke-dasharray:none;stroke-dashoffset:0"
       id="path2985-1-7-4-0-9-4-8"
       sodipodi:cx="145.71428"
       sodipodi:cy="340.93362"
       sodipodi:rx="11.428572"
       sodipodi:ry="11.428572"
       d="m 157.14285,340.93362 a 11.428572,11.428572 0 1 1 -22.85714,0 11.428572,11.428572 0 1 1 22.85714,0 z" />
    <path
       transform="translate(257.14286,55.714272)"
       sodipodi:type="arc"
       style="fill:#ff0000;fill-opacity:0.19607843;stroke:#ff0000;stroke-width:1;stroke-linecap:round;stroke-miterlimit:4;stroke-opacity:1;stroke-dasharray:none;stroke-dashoffset:0"
       id="path2985-1-7-4-0-9-4-8-8"
       sodipodi:cx="145.71428"
       sodipodi:cy="340.93362"
       sodipodi:rx="11.428572"
       sodipodi:ry="11.428572"
       d="m 157.14285,340.93362 a 11.428572,11.428572 0 1 1 -22.85714,0 11.428572,11.428572 0 1 1 22.85714,0 z" />
    <path
       transform="translate(95.714284,-126.42858)"
       sodipodi:type="arc"
       style="fill:#0000ff;fill-opacity:0.19607843;stroke:#0000ff;stroke-width:1;stroke-linecap:round;stroke-miterlimit:4;stroke-opacity:1;stroke-dasharray:none;stroke-dashoffset:0"
       id="path2985-2"
       sodipodi:cx="145.71428"
       sodipodi:cy="340.93362"
       sodipodi:rx="11.428572"
       sodipodi:ry="11.428572"
       d="m 157.14285,340.93362 a 11.428572,11.428572 0 1 1 -22.85714,0 11.428572,11.428572 0 1 1 22.85714,0 z" />
    <path
       transform="translate(248.57144,-197.85716)"
       sodipodi:type="arc"
       style="fill:#0000ff;fill-opacity:0.19607843;stroke:#0000ff;stroke-width:1;stroke-linecap:round;stroke-miterlimit:4;stroke-opacity:1;stroke-dasharray:none;stroke-dashoffset:0"
       id="path2985-1-4"
       sodipodi:cx="145.71428"
       sodipodi:cy="340.93362"
       sodipodi:rx="11.428572"
       sodipodi:ry="11.428572"
       d="m 157.14285,340.93362 a 11.428572,11.428572 0 1 1 -22.85714,0 11.428572,11.428572 0 1 1 22.85714,0 z" />
    <path
       transform="translate(192.85716,-90.714304)"
       sodipodi:type="arc"
       style="fill:#0000ff;fill-opacity:0.19607843;stroke:#0000ff;stroke-width:1;stroke-linecap:round;stroke-miterlimit:4;stroke-opacity:1;stroke-dasharray:none;stroke-dashoffset:0"
       id="path2985-1-7-5"
       sodipodi:cx="145.71428"
       sodipodi:cy="340.93362"
       sodipodi:rx="11.428572"
       sodipodi:ry="11.428572"
       d="m 157.14285,340.93362 a 11.428572,11.428572 0 1 1 -22.85714,0 11.428572,11.428572 0 1 1 22.85714,0 z" />
    <path
       transform="translate(158.57144,-192.14288)"
       sodipodi:type="arc"
       style="fill:#0000ff;fill-opacity:0.19607843;stroke:#0000ff;stroke-width:1;stroke-linecap:round;stroke-miterlimit:4;stroke-opacity:1;stroke-dasharray:none;stroke-dashoffset:0"
       id="path2985-1-7-4-5"
       sodipodi:cx="145.71428"
       sodipodi:cy="340.93362"
       sodipodi:rx="11.428572"
       sodipodi:ry="11.428572"
       d="m 157.14285,340.93362 a 11.428572,11.428572 0 1 1 -22.85714,0 11.428572,11.428572 0 1 1 22.85714,0 z" />
    <path
       transform="translate(268.57145,-116.42859)"
       sodipodi:type="arc"
       style="fill:#0000ff;fill-opacity:0.19607843;stroke:#0000ff;stroke-width:1;stroke-linecap:round;stroke-miterlimit:4;stroke-opacity:1;stroke-dasharray:none;stroke-dashoffset:0"
       id="path2985-1-7-4-0-1"
       sodipodi:cx="145.71428"
       sodipodi:cy="340.93362"
       sodipodi:rx="11.428572"
       sodipodi:ry="11.428572"
       d="m 157.14285,340.93362 a 11.428572,11.428572 0 1 1 -22.85714,0 11.428572,11.428572 0 1 1 22.85714,0 z" />
    <path
       style="fill:none;stroke:#000000;stroke-width:1px;stroke-linecap:butt;stroke-linejoin:miter;stroke-opacity:1;marker-end:none"
       d="m 462.85714,553.79075 50,-475.714282"
       id="path3929"
       inkscape:connector-curvature="0" />
    <path
       style="fill:none;stroke:#000000;stroke-width:1;stroke-linecap:butt;stroke-linejoin:miter;stroke-miterlimit:4;stroke-opacity:1;stroke-dasharray:4, 4;stroke-dashoffset:0;marker-end:url(#Arrow1Lend)"
       d="m 172.85715,268.07647 308.57143,91.42857"
       id="path4111-1-7"
       inkscape:connector-curvature="0" />
    <path
       style="fill:none;stroke:#000000;stroke-width:1px;stroke-linecap:butt;stroke-linejoin:miter;stroke-opacity:1;marker-end:none"
       d="m 466.03296,572.44611 -477.780202,-23.025"
       id="path3929-6"
       inkscape:connector-curvature="0" />
    <path
       style="fill:none;stroke:#000000;stroke-width:1;stroke-linecap:butt;stroke-linejoin:miter;stroke-miterlimit:4;stroke-opacity:1;stroke-dasharray:4, 4;stroke-dashoffset:0;marker-end:url(#Arrow1Lend)"
       d="M 302.51503,253.68979 211.7707,562.46314"
       id="path4111-1-2"
       inkscape:connector-curvature="0" />
    <g
       id="g4853"
       transform="matrix(0.97689577,0.21371629,-0.21371629,0.97689577,-313.13215,9.044918)">
      <path
         inkscape:connector-curvature="0"
         id="path4833"
         d="m 611.42857,359.50504 44.28572,37.14286"
         style="fill:#ff0000;stroke:#ff0000;stroke-width:10;stroke-linecap:butt;stroke-linejoin:miter;stroke-miterlimit:4;stroke-opacity:1;stroke-dasharray:none" />
      <path
         inkscape:transform-center-y="8.5714286"
         inkscape:transform-center-x="-44.285714"
         inkscape:connector-curvature="0"
         id="path4833-3"
         d="m 615.58391,400.69622 35.97504,-45.2395"
         style="fill:#ff0000;stroke:#ff0000;stroke-width:10;stroke-linecap:butt;stroke-linejoin:miter;stroke-miterlimit:4;stroke-opacity:1;stroke-dasharray:none" />
    </g>
    <path
       sodipodi:type="arc"
       style="fill:none;stroke:#ff0000;stroke-width:10;stroke-linecap:round;stroke-miterlimit:4;stroke-opacity:1;stroke-dasharray:none;stroke-dashoffset:0"
       id="path4857"
       sodipodi:cx="662.14288"
       sodipodi:cy="375.93362"
       sodipodi:rx="27.857143"
       sodipodi:ry="27.857143"
       d="m 690.00003,375.93362 a 27.857143,27.857143 0 1 1 -55.71429,0 27.857143,27.857143 0 1 1 55.71429,0 z"
       transform="matrix(0.75893483,0,0,0.78457585,-68.237551,45.270895)" />
  </g>
</svg>
