<?xml version="1.0" encoding="UTF-8" standalone="no"?>
<!-- Created with Inkscape (http://www.inkscape.org/) -->

<svg
   xmlns:dc="http://purl.org/dc/elements/1.1/"
   xmlns:cc="http://creativecommons.org/ns#"
   xmlns:rdf="http://www.w3.org/1999/02/22-rdf-syntax-ns#"
   xmlns:svg="http://www.w3.org/2000/svg"
   xmlns="http://www.w3.org/2000/svg"
   xmlns:xlink="http://www.w3.org/1999/xlink"
   xmlns:sodipodi="http://sodipodi.sourceforge.net/DTD/sodipodi-0.dtd"
   xmlns:inkscape="http://www.inkscape.org/namespaces/inkscape"
   width="210mm"
   height="297mm"
   id="svg2"
   version="1.1"
   inkscape:version="0.48.4 r9939"
   sodipodi:docname="新規ドキュメント 1">
  <sodipodi:namedview
     id="base"
     pagecolor="#ffffff"
     bordercolor="#666666"
     borderopacity="1.0"
     inkscape:pageopacity="0.0"
     inkscape:pageshadow="2"
     inkscape:zoom="0.98994949"
     inkscape:cx="293.26131"
     inkscape:cy="893.69989"
     inkscape:document-units="px"
     inkscape:current-layer="layer1"
     showgrid="false"
     inkscape:window-width="1366"
     inkscape:window-height="746"
     inkscape:window-x="-8"
     inkscape:window-y="-8"
     inkscape:window-maximized="1" />
  <defs
     id="defs4" />
  <metadata
     id="metadata7">
    <rdf:RDF>
      <cc:Work
         rdf:about="">
        <dc:format>image/svg+xml</dc:format>
        <dc:type
           rdf:resource="http://purl.org/dc/dcmitype/StillImage" />
        <dc:title></dc:title>
      </cc:Work>
    </rdf:RDF>
  </metadata>
  <g
     id="layer1"
     inkscape:groupmode="layer"
     inkscape:label="レイヤー 1">
    <g
       id="equation_00"
       style="fill:#000000"
       title="$\mathbf{w}\boldsymbol{\mu}_1$"
       transform="matrix(3.1459619,0,0,3.1459619,-54.65878,-84.079596)">
      <defs
         id="defs3023">
        <path
           d="m 7.37,-3.76 c 0.05,-0.13 0.09,-0.21 0.68,-0.21 v -0.47 c -0.23,0.02 -0.53,0.03 -0.77,0.03 -0.27,0 -0.74,-0.02 -0.96,-0.03 v 0.47 c 0.09,0 0.58,0.01 0.58,0.12 0,0.03 -0.03,0.09 -0.04,0.12 l -1.05,2.56 -1.14,-2.8 h 0.56 v -0.47 c -0.32,0.01 -0.84,0.03 -1.14,0.03 -0.42,0 -0.84,-0.02 -1,-0.03 v 0.47 h 0.59 c 0.21,0.5 0.21,0.52 0.21,0.53 0,0.04 -0.03,0.1 -0.04,0.13 L 3.06,-1.39 2.01,-3.97 h 0.56 v -0.47 c -0.41,0.02 -0.82,0.03 -1.23,0.03 -0.31,0 -0.75,-0.02 -1.09,-0.03 v 0.47 h 0.59 l 1.53,3.74 c 0.07,0.17 0.11,0.27 0.36,0.27 0.25,0 0.29,-0.1 0.36,-0.27 l 1.06,-2.59 1.06,2.59 c 0.07,0.17 0.11,0.27 0.36,0.27 0.25,0 0.29,-0.1 0.36,-0.27 l 1.44,-3.53 z"
           id="equation_00_00"
           inkscape:connector-curvature="0" />
        <path
           d="m 2.75,-3.32 c 0.06,-0.26 0.17,-0.69 0.17,-0.76 0,-0.21 -0.16,-0.44 -0.47,-0.44 -0.52,0 -0.65,0.5 -0.68,0.62 L 0.44,1.41 C 0.4,1.57 0.4,1.63 0.4,1.67 0.4,1.99 0.66,2.11 0.87,2.11 1.06,2.11 1.33,2 1.47,1.72 1.53,1.6 1.86,0.23 1.93,-0.08 c 0.41,0.16 0.86,0.16 0.99,0.16 0.34,0 0.8,-0.06 1.4,-0.6 0.24,0.46 0.8,0.6 1.17,0.6 0.37,0 0.66,-0.21 0.87,-0.57 0.25,-0.4 0.38,-0.94 0.38,-0.99 0,-0.14 -0.15,-0.14 -0.24,-0.14 -0.11,0 -0.15,0 -0.2,0.05 -0.02,0.02 -0.02,0.04 -0.08,0.29 -0.2,0.8 -0.43,1 -0.68,1 -0.11,0 -0.23,-0.04 -0.23,-0.37 0,-0.17 0.04,-0.33 0.14,-0.73 L 5.71,-2.4 c 0.05,-0.22 0.15,-0.63 0.22,-0.9 0.06,-0.23 0.16,-0.63 0.16,-0.7 0,-0.21 -0.16,-0.44 -0.47,-0.44 -0.2,0 -0.55,0.12 -0.66,0.53 l -0.69,2.77 c -0.04,0.18 -0.21,0.35 -0.39,0.5 -0.32,0.27 -0.62,0.36 -0.89,0.36 -0.68,0 -0.74,-0.49 -0.74,-0.79 0,-0.27 0.06,-0.51 0.1,-0.69 l 0.4,-1.56 z"
           id="equation_00_01"
           inkscape:connector-curvature="0" />
        <path
           d="m 2.345,-4.452 c 0,-0.189 -0.014,-0.196 -0.21,-0.196 C 1.687,-4.207 1.05,-4.2 0.763,-4.2 v 0.252 c 0.168,0 0.63,0 1.015,-0.196 v 3.57 c 0,0.231 0,0.322 -0.7,0.322 H 0.812 V 0 c 0.126,-0.007 0.987,-0.028 1.246,-0.028 0.217,0 1.099,0.021 1.253,0.028 V -0.252 H 3.045 c -0.7,0 -0.7,-0.091 -0.7,-0.322 v -3.878 z"
           id="equation_00_02"
           inkscape:connector-curvature="0" />
      </defs>
      <g
         id="equation_00_g">
        <use
           x="77"
           xlink:href="#equation_00_00"
           y="63"
           id="use3029"
           width="744.09448"
           height="1052.3622" />
        <use
           x="85.465202"
           xlink:href="#equation_00_01"
           y="63"
           id="use3031"
           width="744.09448"
           height="1052.3622" />
        <use
           x="92.5439"
           xlink:href="#equation_00_02"
           y="65.444397"
           id="use3033"
           width="744.09448"
           height="1052.3622" />
      </g>
    </g>
    <g
       title="$\mathbf{w}\boldsymbol{\mu}_2$"
       style="fill:#000000"
       id="equation_01"
       transform="matrix(3.1459619,0,0,3.1459619,173.63569,64.412829)">
      <defs
         id="defs3064">
        <path
           id="equation_01_00"
           d="m 7.37,-3.76 c 0.05,-0.13 0.09,-0.21 0.68,-0.21 v -0.47 c -0.23,0.02 -0.53,0.03 -0.77,0.03 -0.27,0 -0.74,-0.02 -0.96,-0.03 v 0.47 c 0.09,0 0.58,0.01 0.58,0.12 0,0.03 -0.03,0.09 -0.04,0.12 l -1.05,2.56 -1.14,-2.8 h 0.56 v -0.47 c -0.32,0.01 -0.84,0.03 -1.14,0.03 -0.42,0 -0.84,-0.02 -1,-0.03 v 0.47 h 0.59 c 0.21,0.5 0.21,0.52 0.21,0.53 0,0.04 -0.03,0.1 -0.04,0.13 L 3.06,-1.39 2.01,-3.97 h 0.56 v -0.47 c -0.41,0.02 -0.82,0.03 -1.23,0.03 -0.31,0 -0.75,-0.02 -1.09,-0.03 v 0.47 h 0.59 l 1.53,3.74 c 0.07,0.17 0.11,0.27 0.36,0.27 0.25,0 0.29,-0.1 0.36,-0.27 l 1.06,-2.59 1.06,2.59 c 0.07,0.17 0.11,0.27 0.36,0.27 0.25,0 0.29,-0.1 0.36,-0.27 l 1.44,-3.53 z"
           inkscape:connector-curvature="0" />
        <path
           id="equation_01_01"
           d="m 2.75,-3.32 c 0.06,-0.26 0.17,-0.69 0.17,-0.76 0,-0.21 -0.16,-0.44 -0.47,-0.44 -0.52,0 -0.65,0.5 -0.68,0.62 L 0.44,1.41 C 0.4,1.57 0.4,1.63 0.4,1.67 0.4,1.99 0.66,2.11 0.87,2.11 1.06,2.11 1.33,2 1.47,1.72 1.53,1.6 1.86,0.23 1.93,-0.08 c 0.41,0.16 0.86,0.16 0.99,0.16 0.34,0 0.8,-0.06 1.4,-0.6 0.24,0.46 0.8,0.6 1.17,0.6 0.37,0 0.66,-0.21 0.87,-0.57 0.25,-0.4 0.38,-0.94 0.38,-0.99 0,-0.14 -0.15,-0.14 -0.24,-0.14 -0.11,0 -0.15,0 -0.2,0.05 -0.02,0.02 -0.02,0.04 -0.08,0.29 -0.2,0.8 -0.43,1 -0.68,1 -0.11,0 -0.23,-0.04 -0.23,-0.37 0,-0.17 0.04,-0.33 0.14,-0.73 L 5.71,-2.4 c 0.05,-0.22 0.15,-0.63 0.22,-0.9 0.06,-0.23 0.16,-0.63 0.16,-0.7 0,-0.21 -0.16,-0.44 -0.47,-0.44 -0.2,0 -0.55,0.12 -0.66,0.53 l -0.69,2.77 c -0.04,0.18 -0.21,0.35 -0.39,0.5 -0.32,0.27 -0.62,0.36 -0.89,0.36 -0.68,0 -0.74,-0.49 -0.74,-0.79 0,-0.27 0.06,-0.51 0.1,-0.69 l 0.4,-1.56 z"
           inkscape:connector-curvature="0" />
        <path
           id="equation_01_02"
           d="M 3.535,-1.274 H 3.297 C 3.276,-1.12 3.206,-0.707 3.115,-0.637 3.059,-0.595 2.52,-0.595 2.422,-0.595 H 1.134 c 0.735,-0.651 0.98,-0.847 1.4,-1.176 0.518,-0.413 1.001,-0.847 1.001,-1.512 0,-0.847 -0.742,-1.365 -1.638,-1.365 -0.868,0 -1.456,0.609 -1.456,1.253 0,0.357 0.301,0.392 0.371,0.392 0.168,0 0.371,-0.119 0.371,-0.371 0,-0.126 -0.049,-0.371 -0.413,-0.371 0.217,-0.497 0.693,-0.651 1.022,-0.651 0.7,0 1.064,0.546 1.064,1.113 0,0.609 -0.434,1.092 -0.658,1.344 L 0.511,-0.273 C 0.441,-0.21 0.441,-0.196 0.441,0 h 2.884 l 0.21,-1.274 z"
           inkscape:connector-curvature="0" />
      </defs>
      <g
         id="equation_01_g">
        <use
           id="use3070"
           y="63"
           xlink:href="#equation_01_00"
           x="77"
           width="744.09448"
           height="1052.3622" />
        <use
           id="use3072"
           y="63"
           xlink:href="#equation_01_01"
           x="85.465202"
           width="744.09448"
           height="1052.3622" />
        <use
           id="use3074"
           y="65.444397"
           xlink:href="#equation_01_02"
           x="92.5439"
           width="744.09448"
           height="1052.3622" />
      </g>
    </g>
    <g
       id="g3102"
       transform="translate(-3.0304625,0)">
      <path
         inkscape:connector-curvature="0"
         id="path3014"
         d="m 63.63961,136.15382 557.60421,0"
         style="fill:none;stroke:#000000;stroke-width:1px;stroke-linecap:butt;stroke-linejoin:miter;stroke-opacity:1" />
      <path
         inkscape:connector-curvature="0"
         id="path3098"
         d="m 225.26402,126.0523 0,20.20305"
         style="fill:none;stroke:#000000;stroke-width:1px;stroke-linecap:butt;stroke-linejoin:miter;stroke-opacity:1" />
      <path
         inkscape:connector-curvature="0"
         id="path3100"
         d="m 485.88337,126.0523 0,21.2132"
         style="fill:none;stroke:#000000;stroke-width:1px;stroke-linecap:butt;stroke-linejoin:miter;stroke-opacity:1" />
    </g>
    <g
       id="g3137">
      <path
         inkscape:connector-curvature="0"
         id="path3014-7"
         d="m 60.609145,288.68685 557.604215,0"
         style="fill:none;stroke:#000000;stroke-width:1px;stroke-linecap:butt;stroke-linejoin:miter;stroke-opacity:1" />
      <path
         inkscape:connector-curvature="0"
         id="path3098-4"
         d="m 271.73103,278.58533 0,20.20305"
         style="fill:none;stroke:#000000;stroke-width:1px;stroke-linecap:butt;stroke-linejoin:miter;stroke-opacity:1" />
      <path
         inkscape:connector-curvature="0"
         id="path3100-0"
         d="m 444.46711,278.08025 0,21.2132"
         style="fill:none;stroke:#000000;stroke-width:1px;stroke-linecap:butt;stroke-linejoin:miter;stroke-opacity:1" />
    </g>
    <g
       id="equation_00-9"
       style="fill:#000000"
       title="$\mathbf{w}\boldsymbol{\mu}_1$"
       transform="matrix(3.1459619,0,0,3.1459619,1.4606305,66.48202)">
      <defs
         id="defs3023-4">
        <path
           d="m 7.37,-3.76 c 0.05,-0.13 0.09,-0.21 0.68,-0.21 v -0.47 c -0.23,0.02 -0.53,0.03 -0.77,0.03 -0.27,0 -0.74,-0.02 -0.96,-0.03 v 0.47 c 0.09,0 0.58,0.01 0.58,0.12 0,0.03 -0.03,0.09 -0.04,0.12 l -1.05,2.56 -1.14,-2.8 h 0.56 v -0.47 c -0.32,0.01 -0.84,0.03 -1.14,0.03 -0.42,0 -0.84,-0.02 -1,-0.03 v 0.47 h 0.59 c 0.21,0.5 0.21,0.52 0.21,0.53 0,0.04 -0.03,0.1 -0.04,0.13 L 3.06,-1.39 2.01,-3.97 h 0.56 v -0.47 c -0.41,0.02 -0.82,0.03 -1.23,0.03 -0.31,0 -0.75,-0.02 -1.09,-0.03 v 0.47 h 0.59 l 1.53,3.74 c 0.07,0.17 0.11,0.27 0.36,0.27 0.25,0 0.29,-0.1 0.36,-0.27 l 1.06,-2.59 1.06,2.59 c 0.07,0.17 0.11,0.27 0.36,0.27 0.25,0 0.29,-0.1 0.36,-0.27 l 1.44,-3.53 z"
           id="equation_00_00-8"
           inkscape:connector-curvature="0" />
        <path
           d="m 2.75,-3.32 c 0.06,-0.26 0.17,-0.69 0.17,-0.76 0,-0.21 -0.16,-0.44 -0.47,-0.44 -0.52,0 -0.65,0.5 -0.68,0.62 L 0.44,1.41 C 0.4,1.57 0.4,1.63 0.4,1.67 0.4,1.99 0.66,2.11 0.87,2.11 1.06,2.11 1.33,2 1.47,1.72 1.53,1.6 1.86,0.23 1.93,-0.08 c 0.41,0.16 0.86,0.16 0.99,0.16 0.34,0 0.8,-0.06 1.4,-0.6 0.24,0.46 0.8,0.6 1.17,0.6 0.37,0 0.66,-0.21 0.87,-0.57 0.25,-0.4 0.38,-0.94 0.38,-0.99 0,-0.14 -0.15,-0.14 -0.24,-0.14 -0.11,0 -0.15,0 -0.2,0.05 -0.02,0.02 -0.02,0.04 -0.08,0.29 -0.2,0.8 -0.43,1 -0.68,1 -0.11,0 -0.23,-0.04 -0.23,-0.37 0,-0.17 0.04,-0.33 0.14,-0.73 L 5.71,-2.4 c 0.05,-0.22 0.15,-0.63 0.22,-0.9 0.06,-0.23 0.16,-0.63 0.16,-0.7 0,-0.21 -0.16,-0.44 -0.47,-0.44 -0.2,0 -0.55,0.12 -0.66,0.53 l -0.69,2.77 c -0.04,0.18 -0.21,0.35 -0.39,0.5 -0.32,0.27 -0.62,0.36 -0.89,0.36 -0.68,0 -0.74,-0.49 -0.74,-0.79 0,-0.27 0.06,-0.51 0.1,-0.69 l 0.4,-1.56 z"
           id="equation_00_01-8"
           inkscape:connector-curvature="0" />
        <path
           d="m 2.345,-4.452 c 0,-0.189 -0.014,-0.196 -0.21,-0.196 C 1.687,-4.207 1.05,-4.2 0.763,-4.2 v 0.252 c 0.168,0 0.63,0 1.015,-0.196 v 3.57 c 0,0.231 0,0.322 -0.7,0.322 H 0.812 V 0 c 0.126,-0.007 0.987,-0.028 1.246,-0.028 0.217,0 1.099,0.021 1.253,0.028 V -0.252 H 3.045 c -0.7,0 -0.7,-0.091 -0.7,-0.322 v -3.878 z"
           id="equation_00_02-2"
           inkscape:connector-curvature="0" />
      </defs>
      <g
         id="equation_00_g-4">
        <use
           x="77"
           xlink:href="#equation_00_00-8"
           y="63"
           id="use3029-5"
           width="744.09448"
           height="1052.3622" />
        <use
           x="85.465202"
           xlink:href="#equation_00_01-8"
           y="63"
           id="use3031-5"
           width="744.09448"
           height="1052.3622" />
        <use
           x="92.5439"
           xlink:href="#equation_00_02-2"
           y="65.444397"
           id="use3033-1"
           width="744.09448"
           height="1052.3622" />
      </g>
    </g>
    <g
       title="$\mathbf{w}\boldsymbol{\mu}_2$"
       style="fill:#000000"
       id="equation_01-7"
       transform="matrix(3.1459619,0,0,3.1459619,209.19971,-84.030701)">
      <defs
         id="defs3064-1">
        <path
           id="equation_01_00-1"
           d="m 7.37,-3.76 c 0.05,-0.13 0.09,-0.21 0.68,-0.21 v -0.47 c -0.23,0.02 -0.53,0.03 -0.77,0.03 -0.27,0 -0.74,-0.02 -0.96,-0.03 v 0.47 c 0.09,0 0.58,0.01 0.58,0.12 0,0.03 -0.03,0.09 -0.04,0.12 l -1.05,2.56 -1.14,-2.8 h 0.56 v -0.47 c -0.32,0.01 -0.84,0.03 -1.14,0.03 -0.42,0 -0.84,-0.02 -1,-0.03 v 0.47 h 0.59 c 0.21,0.5 0.21,0.52 0.21,0.53 0,0.04 -0.03,0.1 -0.04,0.13 L 3.06,-1.39 2.01,-3.97 h 0.56 v -0.47 c -0.41,0.02 -0.82,0.03 -1.23,0.03 -0.31,0 -0.75,-0.02 -1.09,-0.03 v 0.47 h 0.59 l 1.53,3.74 c 0.07,0.17 0.11,0.27 0.36,0.27 0.25,0 0.29,-0.1 0.36,-0.27 l 1.06,-2.59 1.06,2.59 c 0.07,0.17 0.11,0.27 0.36,0.27 0.25,0 0.29,-0.1 0.36,-0.27 l 1.44,-3.53 z"
           inkscape:connector-curvature="0" />
        <path
           id="equation_01_01-5"
           d="m 2.75,-3.32 c 0.06,-0.26 0.17,-0.69 0.17,-0.76 0,-0.21 -0.16,-0.44 -0.47,-0.44 -0.52,0 -0.65,0.5 -0.68,0.62 L 0.44,1.41 C 0.4,1.57 0.4,1.63 0.4,1.67 0.4,1.99 0.66,2.11 0.87,2.11 1.06,2.11 1.33,2 1.47,1.72 1.53,1.6 1.86,0.23 1.93,-0.08 c 0.41,0.16 0.86,0.16 0.99,0.16 0.34,0 0.8,-0.06 1.4,-0.6 0.24,0.46 0.8,0.6 1.17,0.6 0.37,0 0.66,-0.21 0.87,-0.57 0.25,-0.4 0.38,-0.94 0.38,-0.99 0,-0.14 -0.15,-0.14 -0.24,-0.14 -0.11,0 -0.15,0 -0.2,0.05 -0.02,0.02 -0.02,0.04 -0.08,0.29 -0.2,0.8 -0.43,1 -0.68,1 -0.11,0 -0.23,-0.04 -0.23,-0.37 0,-0.17 0.04,-0.33 0.14,-0.73 L 5.71,-2.4 c 0.05,-0.22 0.15,-0.63 0.22,-0.9 0.06,-0.23 0.16,-0.63 0.16,-0.7 0,-0.21 -0.16,-0.44 -0.47,-0.44 -0.2,0 -0.55,0.12 -0.66,0.53 l -0.69,2.77 c -0.04,0.18 -0.21,0.35 -0.39,0.5 -0.32,0.27 -0.62,0.36 -0.89,0.36 -0.68,0 -0.74,-0.49 -0.74,-0.79 0,-0.27 0.06,-0.51 0.1,-0.69 l 0.4,-1.56 z"
           inkscape:connector-curvature="0" />
        <path
           id="equation_01_02-2"
           d="M 3.535,-1.274 H 3.297 C 3.276,-1.12 3.206,-0.707 3.115,-0.637 3.059,-0.595 2.52,-0.595 2.422,-0.595 H 1.134 c 0.735,-0.651 0.98,-0.847 1.4,-1.176 0.518,-0.413 1.001,-0.847 1.001,-1.512 0,-0.847 -0.742,-1.365 -1.638,-1.365 -0.868,0 -1.456,0.609 -1.456,1.253 0,0.357 0.301,0.392 0.371,0.392 0.168,0 0.371,-0.119 0.371,-0.371 0,-0.126 -0.049,-0.371 -0.413,-0.371 0.217,-0.497 0.693,-0.651 1.022,-0.651 0.7,0 1.064,0.546 1.064,1.113 0,0.609 -0.434,1.092 -0.658,1.344 L 0.511,-0.273 C 0.441,-0.21 0.441,-0.196 0.441,0 h 2.884 l 0.21,-1.274 z"
           inkscape:connector-curvature="0" />
      </defs>
      <g
         id="equation_01_g-7">
        <use
           id="use3070-6"
           y="63"
           xlink:href="#equation_01_00-1"
           x="77"
           width="744.09448"
           height="1052.3622" />
        <use
           id="use3072-1"
           y="63"
           xlink:href="#equation_01_01-5"
           x="85.465202"
           width="744.09448"
           height="1052.3622" />
        <use
           id="use3074-4"
           y="65.444397"
           xlink:href="#equation_01_02-2"
           x="92.5439"
           width="744.09448"
           height="1052.3622" />
      </g>
    </g>
    <rect
       style="fill:#ff0000;fill-opacity:0.19607843;stroke:#ff0000;stroke-width:1;stroke-linecap:round;stroke-linejoin:round;stroke-miterlimit:4;stroke-opacity:1;stroke-dasharray:none;stroke-dashoffset:0"
       id="rect3226"
       width="325.2691"
       height="18.182745"
       x="308.09653"
       y="127.06245"
       ry="8.0812206" />
    <rect
       style="fill:#0000ff;fill-opacity:0.19607843000000000;stroke:#0000ff;stroke-width:1;stroke-linecap:round;stroke-linejoin:round;stroke-miterlimit:4;stroke-opacity:1;stroke-dasharray:none;stroke-dashoffset:0"
       id="rect3226-6"
       width="325.2691"
       height="18.182745"
       x="72.730988"
       y="127.06245"
       ry="8.0812206" />
    <rect
       style="fill:#ff0000;fill-opacity:0.19607843;stroke:#ff0000;stroke-width:1;stroke-linecap:round;stroke-linejoin:round;stroke-miterlimit:4;stroke-opacity:1;stroke-dasharray:none;stroke-dashoffset:0"
       id="rect3226-1"
       width="118.18787"
       height="18.182745"
       x="382.34274"
       y="280.60562"
       ry="8.0812206" />
    <rect
       style="fill:#0000ff;fill-opacity:0.19607843;stroke:#0000ff;stroke-width:1;stroke-linecap:round;stroke-linejoin:round;stroke-miterlimit:4;stroke-opacity:1;stroke-dasharray:none;stroke-dashoffset:0"
       id="rect3226-6-8"
       width="117.17768"
       height="18.182745"
       x="210.61684"
       y="280.60562"
       ry="8.0812206" />
    <text
       xml:space="preserve"
       style="font-size:26.69051743px;font-style:normal;font-variant:normal;font-weight:normal;font-stretch:normal;text-align:start;line-height:125%;letter-spacing:0px;word-spacing:0px;writing-mode:lr-tb;text-anchor:start;fill:#000000;fill-opacity:1;stroke:none;font-family:HGGothicM;-inkscape-font-specification:HGGothicM"
       x="172.03757"
       y="71.801788"
       id="text4058"
       sodipodi:linespacing="125%"><tspan
         sodipodi:role="line"
         id="tspan4060"
         x="172.03757"
         y="71.801788">重心は離れてるが分散が大きい</tspan></text>
    <text
       xml:space="preserve"
       style="font-size:26.69051743px;font-style:normal;font-variant:normal;font-weight:normal;font-stretch:normal;text-align:start;line-height:125%;letter-spacing:0px;word-spacing:0px;writing-mode:lr-tb;text-anchor:start;fill:#000000;fill-opacity:1;stroke:none;font-family:HGGothicM;-inkscape-font-specification:HGGothicM"
       x="208.16798"
       y="234.58296"
       id="text4058-9"
       sodipodi:linespacing="125%"><tspan
         sodipodi:role="line"
         id="tspan4060-2"
         x="208.16798"
         y="234.58296">重心は近いが分散が小さい</tspan></text>
  </g>
</svg>
