<?xml version="1.0" encoding="UTF-8" standalone="no"?>
<!-- Created with Inkscape (http://www.inkscape.org/) -->

<svg
   xmlns:dc="http://purl.org/dc/elements/1.1/"
   xmlns:cc="http://creativecommons.org/ns#"
   xmlns:rdf="http://www.w3.org/1999/02/22-rdf-syntax-ns#"
   xmlns:svg="http://www.w3.org/2000/svg"
   xmlns="http://www.w3.org/2000/svg"
   xmlns:xlink="http://www.w3.org/1999/xlink"
   xmlns:sodipodi="http://sodipodi.sourceforge.net/DTD/sodipodi-0.dtd"
   xmlns:inkscape="http://www.inkscape.org/namespaces/inkscape"
   width="210mm"
   height="297mm"
   id="svg2"
   version="1.1"
   inkscape:version="0.48.4 r9939"
   sodipodi:docname="gibbs-sampling1.svg">
  <sodipodi:namedview
     id="base"
     pagecolor="#ffffff"
     bordercolor="#666666"
     borderopacity="1.0"
     inkscape:pageopacity="0.0"
     inkscape:pageshadow="2"
     inkscape:zoom="1.909375"
     inkscape:cx="209.51678"
     inkscape:cy="853.11819"
     inkscape:document-units="px"
     inkscape:current-layer="layer1"
     showgrid="false"
     inkscape:window-width="1366"
     inkscape:window-height="746"
     inkscape:window-x="-8"
     inkscape:window-y="-8"
     inkscape:window-maximized="1" />
  <defs
     id="defs4">
    <marker
       inkscape:stockid="Arrow1Mend"
       orient="auto"
       refY="0.0"
       refX="0.0"
       id="Arrow1Mend"
       style="overflow:visible;">
      <path
         id="path3989"
         d="M 0.0,0.0 L 5.0,-5.0 L -12.5,0.0 L 5.0,5.0 L 0.0,0.0 z "
         style="fill-rule:evenodd;stroke:#000000;stroke-width:1.0pt;"
         transform="scale(0.4) rotate(180) translate(10,0)" />
    </marker>
    <marker
       inkscape:stockid="Arrow1Lend"
       orient="auto"
       refY="0.0"
       refX="0.0"
       id="Arrow1Lend"
       style="overflow:visible;">
      <path
         id="path3983"
         d="M 0.0,0.0 L 5.0,-5.0 L -12.5,0.0 L 5.0,5.0 L 0.0,0.0 z "
         style="fill-rule:evenodd;stroke:#000000;stroke-width:1.0pt;"
         transform="scale(0.8) rotate(180) translate(12.5,0)" />
    </marker>
  </defs>
  <metadata
     id="metadata7">
    <rdf:RDF>
      <cc:Work
         rdf:about="">
        <dc:format>image/svg+xml</dc:format>
        <dc:type
           rdf:resource="http://purl.org/dc/dcmitype/StillImage" />
        <dc:title></dc:title>
      </cc:Work>
    </rdf:RDF>
  </metadata>
  <g
     id="layer1"
     inkscape:groupmode="layer"
     inkscape:label="レイヤー 1">
    <path
       style="fill:none;stroke:#000000;stroke-width:1px;stroke-linecap:butt;stroke-linejoin:miter;stroke-opacity:1;marker-end:url(#Arrow1Lend)"
       d="m 199.23978,283.54847 288.86064,0"
       id="path3204"
       inkscape:connector-curvature="0" />
    <path
       style="fill:none;stroke:#000000;stroke-width:1px;stroke-linecap:butt;stroke-linejoin:miter;stroke-opacity:1;marker-end:url(#Arrow1Lend)"
       d="m 221.45983,299.10251 0,-179.9824"
       id="path3206"
       inkscape:connector-curvature="0" />
    <path
       sodipodi:type="arc"
       style="fill:#000000;fill-opacity:1;stroke:none"
       id="path4420"
       sodipodi:cx="270.71426"
       sodipodi:cy="224.66534"
       sodipodi:rx="4.0736756"
       sodipodi:ry="4.0736756"
       d="m 274.78794,224.66534 a 4.0736756,4.0736756 0 1 1 -8.14735,0 4.0736756,4.0736756 0 1 1 8.14735,0 z" />
    <path
       transform="translate(132.2093,-72.955829)"
       sodipodi:type="arc"
       style="fill:#000000;fill-opacity:1;stroke:none"
       id="path4420-1"
       sodipodi:cx="270.71426"
       sodipodi:cy="224.66534"
       sodipodi:rx="4.0736756"
       sodipodi:ry="4.0736756"
       d="m 274.78794,224.66534 a 4.0736756,4.0736756 0 1 1 -8.14735,0 4.0736756,4.0736756 0 1 1 8.14735,0 z" />
    <path
       style="fill:none;stroke:#000000;stroke-width:1;stroke-linecap:butt;stroke-linejoin:miter;stroke-opacity:1;marker-end:url(#Arrow1Mend);stroke-miterlimit:4;stroke-dasharray:4,4;stroke-dashoffset:0"
       d="M 276.26928,219.851 396.99822,154.67219"
       id="path4440"
       inkscape:connector-curvature="0" />
    <path
       style="fill:none;stroke:#000000;stroke-width:1px;stroke-linecap:butt;stroke-linejoin:miter;stroke-opacity:1;marker-end:url(#Arrow1Mend)"
       d="m 277.00995,224.29501 125.17294,0"
       id="path4442"
       inkscape:connector-curvature="0"
       sodipodi:nodetypes="cc" />
    <path
       style="fill:none;stroke:#000000;stroke-width:1px;stroke-linecap:butt;stroke-linejoin:miter;stroke-opacity:1;marker-end:url(#Arrow1Mend)"
       d="m 402.92356,224.29501 0,-65.17881"
       id="path4444"
       inkscape:connector-curvature="0" />
    <g
       title="$(x_n,y_n)$"
       style="fill:#000000"
       id="equation_03"
       transform="matrix(1.7354083,0,0,1.7354083,98.193792,137.25358)">
      <defs
         id="defs3166">
        <path
           id="equation_03_00"
           d="m 0.854,-0.441 c -0.028,0.091 -0.07,0.266 -0.07,0.287 0,0.154 0.126,0.224 0.238,0.224 0.126,0 0.238,-0.091 0.273,-0.154 0.035,-0.063 0.091,-0.287 0.126,-0.434 0.035,-0.133 0.112,-0.455 0.154,-0.63 0.042,-0.154 0.084,-0.308 0.119,-0.469 0.077,-0.287 0.091,-0.343 0.294,-0.63 0.196,-0.28 0.525,-0.644 1.05,-0.644 0.406,0 0.413,0.357 0.413,0.49 0,0.42 -0.301,1.197 -0.413,1.491 -0.077,0.196 -0.105,0.259 -0.105,0.378 0,0.371 0.308,0.602 0.665,0.602 0.7,0 1.008,-0.966 1.008,-1.071 0,-0.091 -0.091,-0.091 -0.112,-0.091 -0.098,0 -0.105,0.042 -0.133,0.119 -0.161,0.56 -0.462,0.847 -0.742,0.847 -0.147,0 -0.175,-0.098 -0.175,-0.245 0,-0.161 0.035,-0.252 0.161,-0.567 0.084,-0.217 0.371,-0.959 0.371,-1.351 0,-0.679 -0.539,-0.798 -0.91,-0.798 -0.581,0 -0.973,0.357 -1.183,0.637 -0.049,-0.483 -0.462,-0.637 -0.749,-0.637 -0.301,0 -0.462,0.217 -0.553,0.378 -0.154,0.259 -0.252,0.658 -0.252,0.693 0,0.091 0.098,0.091 0.119,0.091 0.098,0 0.105,-0.021 0.154,-0.21 0.105,-0.413 0.238,-0.756 0.511,-0.756 0.182,0 0.231,0.154 0.231,0.343 0,0.133 -0.063,0.392 -0.112,0.581 -0.049,0.189 -0.119,0.476 -0.154,0.63 l -0.224,0.896 z"
           inkscape:connector-curvature="0" />
        <path
           id="equation_03_01"
           d="m 2.03,-0.01 c 0,-0.66 -0.25,-1.05 -0.64,-1.05 -0.33,0 -0.53,0.25 -0.53,0.53 0,0.27 0.2,0.53 0.53,0.53 0.12,0 0.25,-0.04 0.35,-0.13 0.03,-0.02 0.04,-0.03 0.05,-0.03 0.01,0 0.02,0.01 0.02,0.15 0,0.74 -0.35,1.34 -0.68,1.67 -0.11,0.11 -0.11,0.13 -0.11,0.16 0,0.07 0.05,0.11 0.1,0.11 0.11,0 0.91,-0.77 0.91,-1.94 z"
           inkscape:connector-curvature="0" />
        <path
           id="equation_03_02"
           d="M 3.34,-3.02 C 3.4,-3.28 3.63,-4.2 4.33,-4.2 c 0.05,0 0.29,0 0.5,0.13 -0.28,0.05 -0.48,0.3 -0.48,0.54 0,0.16 0.11,0.35 0.38,0.35 0.22,0 0.54,-0.18 0.54,-0.58 0,-0.52 -0.59,-0.66 -0.93,-0.66 -0.58,0 -0.93,0.53 -1.05,0.76 -0.25,-0.66 -0.79,-0.76 -1.08,-0.76 -1.04,0 -1.61,1.29 -1.61,1.54 0,0.1 0.1,0.1 0.12,0.1 0.08,0 0.11,-0.02 0.13,-0.11 0.34,-1.06 1,-1.31 1.34,-1.31 0.19,0 0.54,0.09 0.54,0.67 0,0.31 -0.17,0.98 -0.54,2.38 -0.16,0.62 -0.51,1.04 -0.95,1.04 -0.06,0 -0.29,0 -0.5,-0.13 0.25,-0.05 0.47,-0.26 0.47,-0.54 0,-0.27 -0.22,-0.35 -0.37,-0.35 -0.3,0 -0.55,0.26 -0.55,0.58 0,0.46 0.5,0.66 0.94,0.66 0.66,0 1.02,-0.7 1.05,-0.76 0.12,0.37 0.48,0.76 1.08,0.76 1.03,0 1.6,-1.29 1.6,-1.54 0,-0.1 -0.09,-0.1 -0.12,-0.1 -0.09,0 -0.11,0.04 -0.13,0.11 -0.33,1.07 -1.01,1.31 -1.33,1.31 -0.39,0 -0.55,-0.32 -0.55,-0.66 0,-0.22 0.06,-0.44 0.17,-0.88 l 0.34,-1.37 z"
           inkscape:connector-curvature="0" />
        <path
           id="equation_03_03"
           d="M 4.86,-3.81 C 4.9,-3.95 4.9,-3.97 4.9,-4.04 c 0,-0.18 -0.14,-0.27 -0.29,-0.27 -0.1,0 -0.26,0.06 -0.35,0.21 -0.02,0.05 -0.1,0.36 -0.14,0.54 -0.07,0.26 -0.14,0.53 -0.2,0.8 l -0.45,1.8 C 3.43,-0.81 3,-0.11 2.34,-0.11 c -0.51,0 -0.62,-0.44 -0.62,-0.81 0,-0.46 0.17,-1.08 0.51,-1.96 0.16,-0.41 0.2,-0.52 0.2,-0.72 0,-0.45 -0.32,-0.82 -0.82,-0.82 -0.95,0 -1.32,1.45 -1.32,1.54 0,0.1 0.1,0.1 0.12,0.1 0.1,0 0.11,-0.02 0.16,-0.18 0.27,-0.94 0.67,-1.24 1.01,-1.24 0.08,0 0.25,0 0.25,0.32 0,0.25 -0.1,0.51 -0.17,0.7 -0.4,1.06 -0.58,1.63 -0.58,2.1 0,0.89 0.63,1.19 1.22,1.19 0.39,0 0.73,-0.17 1.01,-0.45 C 3.18,0.18 3.06,0.67 2.66,1.2 2.4,1.54 2.02,1.83 1.56,1.83 1.42,1.83 0.97,1.8 0.8,1.41 c 0.16,0 0.29,0 0.43,-0.12 C 1.33,1.2 1.43,1.07 1.43,0.88 1.43,0.57 1.16,0.53 1.06,0.53 0.83,0.53 0.5,0.69 0.5,1.18 c 0,0.5 0.44,0.87 1.06,0.87 1.03,0 2.06,-0.91 2.34,-2.04 l 0.96,-3.82 z"
           inkscape:connector-curvature="0" />
        <path
           id="equation_03_04"
           d="M 3.31,2.4 C 3.31,2.37 3.31,2.35 3.14,2.18 1.89,0.92 1.57,-0.97 1.57,-2.5 c 0,-1.74 0.38,-3.48 1.61,-4.73 0.13,-0.12 0.13,-0.14 0.13,-0.17 0,-0.07 -0.04,-0.1 -0.1,-0.1 -0.1,0 -1,0.68 -1.59,1.95 -0.51,1.1 -0.63,2.21 -0.63,3.05 0,0.78 0.11,1.99 0.66,3.12 0.6,1.23 1.46,1.88 1.56,1.88 0.06,0 0.1,-0.03 0.1,-0.1 z"
           inkscape:connector-curvature="0" />
        <path
           id="equation_03_05"
           d="M 2.89,-2.5 C 2.89,-3.28 2.78,-4.49 2.23,-5.62 1.63,-6.85 0.77,-7.5 0.67,-7.5 c -0.06,0 -0.1,0.04 -0.1,0.1 0,0.03 0,0.05 0.19,0.23 0.98,0.99 1.55,2.58 1.55,4.67 0,1.71 -0.37,3.47 -1.61,4.73 -0.13,0.12 -0.13,0.14 -0.13,0.17 0,0.06 0.04,0.1 0.1,0.1 0.1,0 1,-0.68 1.59,-1.95 0.51,-1.1 0.63,-2.21 0.63,-3.05 z"
           inkscape:connector-curvature="0" />
      </defs>
      <g
         id="equation_03_g">
        <use
           id="use3175"
           y="63"
           xlink:href="#equation_03_04"
           x="77"
           width="744.09448"
           height="1052.3622" />
        <use
           id="use3177"
           y="63"
           xlink:href="#equation_03_02"
           x="80.888901"
           width="744.09448"
           height="1052.3622" />
        <use
           id="use3179"
           y="64.5"
           xlink:href="#equation_03_00"
           x="86.604202"
           width="744.09448"
           height="1052.3622" />
        <use
           id="use3181"
           y="63"
           xlink:href="#equation_03_01"
           x="92.047501"
           width="744.09448"
           height="1052.3622" />
        <use
           id="use3183"
           y="63"
           xlink:href="#equation_03_03"
           x="96.491898"
           width="744.09448"
           height="1052.3622" />
        <use
           id="use3185"
           y="64.5"
           xlink:href="#equation_03_00"
           x="101.395"
           width="744.09448"
           height="1052.3622" />
        <use
           id="use3187"
           y="63"
           xlink:href="#equation_03_05"
           x="106.838"
           width="744.09448"
           height="1052.3622" />
      </g>
    </g>
    <g
       id="equation_04"
       style="fill:#000000"
       title="$(x_{n+1},y_n)$"
       transform="matrix(1.7354083,0,0,1.7354083,267.88282,137.25358)">
      <defs
         id="defs3340">
        <path
           d="m 0.854,-0.441 c -0.028,0.091 -0.07,0.266 -0.07,0.287 0,0.154 0.126,0.224 0.238,0.224 0.126,0 0.238,-0.091 0.273,-0.154 0.035,-0.063 0.091,-0.287 0.126,-0.434 0.035,-0.133 0.112,-0.455 0.154,-0.63 0.042,-0.154 0.084,-0.308 0.119,-0.469 0.077,-0.287 0.091,-0.343 0.294,-0.63 0.196,-0.28 0.525,-0.644 1.05,-0.644 0.406,0 0.413,0.357 0.413,0.49 0,0.42 -0.301,1.197 -0.413,1.491 -0.077,0.196 -0.105,0.259 -0.105,0.378 0,0.371 0.308,0.602 0.665,0.602 0.7,0 1.008,-0.966 1.008,-1.071 0,-0.091 -0.091,-0.091 -0.112,-0.091 -0.098,0 -0.105,0.042 -0.133,0.119 -0.161,0.56 -0.462,0.847 -0.742,0.847 -0.147,0 -0.175,-0.098 -0.175,-0.245 0,-0.161 0.035,-0.252 0.161,-0.567 0.084,-0.217 0.371,-0.959 0.371,-1.351 0,-0.679 -0.539,-0.798 -0.91,-0.798 -0.581,0 -0.973,0.357 -1.183,0.637 -0.049,-0.483 -0.462,-0.637 -0.749,-0.637 -0.301,0 -0.462,0.217 -0.553,0.378 -0.154,0.259 -0.252,0.658 -0.252,0.693 0,0.091 0.098,0.091 0.119,0.091 0.098,0 0.105,-0.021 0.154,-0.21 0.105,-0.413 0.238,-0.756 0.511,-0.756 0.182,0 0.231,0.154 0.231,0.343 0,0.133 -0.063,0.392 -0.112,0.581 -0.049,0.189 -0.119,0.476 -0.154,0.63 l -0.224,0.896 z"
           id="equation_04_00"
           inkscape:connector-curvature="0" />
        <path
           d="m 2.03,-0.01 c 0,-0.66 -0.25,-1.05 -0.64,-1.05 -0.33,0 -0.53,0.25 -0.53,0.53 0,0.27 0.2,0.53 0.53,0.53 0.12,0 0.25,-0.04 0.35,-0.13 0.03,-0.02 0.04,-0.03 0.05,-0.03 0.01,0 0.02,0.01 0.02,0.15 0,0.74 -0.35,1.34 -0.68,1.67 -0.11,0.11 -0.11,0.13 -0.11,0.16 0,0.07 0.05,0.11 0.1,0.11 0.11,0 0.91,-0.77 0.91,-1.94 z"
           id="equation_04_01"
           inkscape:connector-curvature="0" />
        <path
           d="M 3.34,-3.02 C 3.4,-3.28 3.63,-4.2 4.33,-4.2 c 0.05,0 0.29,0 0.5,0.13 -0.28,0.05 -0.48,0.3 -0.48,0.54 0,0.16 0.11,0.35 0.38,0.35 0.22,0 0.54,-0.18 0.54,-0.58 0,-0.52 -0.59,-0.66 -0.93,-0.66 -0.58,0 -0.93,0.53 -1.05,0.76 -0.25,-0.66 -0.79,-0.76 -1.08,-0.76 -1.04,0 -1.61,1.29 -1.61,1.54 0,0.1 0.1,0.1 0.12,0.1 0.08,0 0.11,-0.02 0.13,-0.11 0.34,-1.06 1,-1.31 1.34,-1.31 0.19,0 0.54,0.09 0.54,0.67 0,0.31 -0.17,0.98 -0.54,2.38 -0.16,0.62 -0.51,1.04 -0.95,1.04 -0.06,0 -0.29,0 -0.5,-0.13 0.25,-0.05 0.47,-0.26 0.47,-0.54 0,-0.27 -0.22,-0.35 -0.37,-0.35 -0.3,0 -0.55,0.26 -0.55,0.58 0,0.46 0.5,0.66 0.94,0.66 0.66,0 1.02,-0.7 1.05,-0.76 0.12,0.37 0.48,0.76 1.08,0.76 1.03,0 1.6,-1.29 1.6,-1.54 0,-0.1 -0.09,-0.1 -0.12,-0.1 -0.09,0 -0.11,0.04 -0.13,0.11 -0.33,1.07 -1.01,1.31 -1.33,1.31 -0.39,0 -0.55,-0.32 -0.55,-0.66 0,-0.22 0.06,-0.44 0.17,-0.88 l 0.34,-1.37 z"
           id="equation_04_02"
           inkscape:connector-curvature="0" />
        <path
           d="M 4.86,-3.81 C 4.9,-3.95 4.9,-3.97 4.9,-4.04 c 0,-0.18 -0.14,-0.27 -0.29,-0.27 -0.1,0 -0.26,0.06 -0.35,0.21 -0.02,0.05 -0.1,0.36 -0.14,0.54 -0.07,0.26 -0.14,0.53 -0.2,0.8 l -0.45,1.8 C 3.43,-0.81 3,-0.11 2.34,-0.11 c -0.51,0 -0.62,-0.44 -0.62,-0.81 0,-0.46 0.17,-1.08 0.51,-1.96 0.16,-0.41 0.2,-0.52 0.2,-0.72 0,-0.45 -0.32,-0.82 -0.82,-0.82 -0.95,0 -1.32,1.45 -1.32,1.54 0,0.1 0.1,0.1 0.12,0.1 0.1,0 0.11,-0.02 0.16,-0.18 0.27,-0.94 0.67,-1.24 1.01,-1.24 0.08,0 0.25,0 0.25,0.32 0,0.25 -0.1,0.51 -0.17,0.7 -0.4,1.06 -0.58,1.63 -0.58,2.1 0,0.89 0.63,1.19 1.22,1.19 0.39,0 0.73,-0.17 1.01,-0.45 C 3.18,0.18 3.06,0.67 2.66,1.2 2.4,1.54 2.02,1.83 1.56,1.83 1.42,1.83 0.97,1.8 0.8,1.41 c 0.16,0 0.29,0 0.43,-0.12 C 1.33,1.2 1.43,1.07 1.43,0.88 1.43,0.57 1.16,0.53 1.06,0.53 0.83,0.53 0.5,0.69 0.5,1.18 c 0,0.5 0.44,0.87 1.06,0.87 1.03,0 2.06,-0.91 2.34,-2.04 l 0.96,-3.82 z"
           id="equation_04_03"
           inkscape:connector-curvature="0" />
        <path
           d="M 3.31,2.4 C 3.31,2.37 3.31,2.35 3.14,2.18 1.89,0.92 1.57,-0.97 1.57,-2.5 c 0,-1.74 0.38,-3.48 1.61,-4.73 0.13,-0.12 0.13,-0.14 0.13,-0.17 0,-0.07 -0.04,-0.1 -0.1,-0.1 -0.1,0 -1,0.68 -1.59,1.95 -0.51,1.1 -0.63,2.21 -0.63,3.05 0,0.78 0.11,1.99 0.66,3.12 0.6,1.23 1.46,1.88 1.56,1.88 0.06,0 0.1,-0.03 0.1,-0.1 z"
           id="equation_04_04"
           inkscape:connector-curvature="0" />
        <path
           d="M 2.89,-2.5 C 2.89,-3.28 2.78,-4.49 2.23,-5.62 1.63,-6.85 0.77,-7.5 0.67,-7.5 c -0.06,0 -0.1,0.04 -0.1,0.1 0,0.03 0,0.05 0.19,0.23 0.98,0.99 1.55,2.58 1.55,4.67 0,1.71 -0.37,3.47 -1.61,4.73 -0.13,0.12 -0.13,0.14 -0.13,0.17 0,0.06 0.04,0.1 0.1,0.1 0.1,0 1,-0.68 1.59,-1.95 0.51,-1.1 0.63,-2.21 0.63,-3.05 z"
           id="equation_04_05"
           inkscape:connector-curvature="0" />
        <path
           d="m 3.241,-1.582 h 2.142 c 0.091,0 0.259,0 0.259,-0.168 0,-0.175 -0.161,-0.175 -0.259,-0.175 H 3.241 v -2.149 c 0,-0.091 0,-0.259 -0.168,-0.259 -0.175,0 -0.175,0.161 -0.175,0.259 v 2.149 H 0.749 c -0.091,0 -0.259,0 -0.259,0.168 0,0.175 0.161,0.175 0.259,0.175 h 2.149 v 2.149 c 0,0.091 0,0.259 0.168,0.259 0.175,0 0.175,-0.161 0.175,-0.259 v -2.149 z"
           id="equation_04_06"
           inkscape:connector-curvature="0" />
        <path
           d="m 2.345,-4.452 c 0,-0.189 -0.014,-0.196 -0.21,-0.196 C 1.687,-4.207 1.05,-4.2 0.763,-4.2 v 0.252 c 0.168,0 0.63,0 1.015,-0.196 v 3.57 c 0,0.231 0,0.322 -0.7,0.322 H 0.812 V 0 c 0.126,-0.007 0.987,-0.028 1.246,-0.028 0.217,0 1.099,0.021 1.253,0.028 V -0.252 H 3.045 c -0.7,0 -0.7,-0.091 -0.7,-0.322 v -3.878 z"
           id="equation_04_07"
           inkscape:connector-curvature="0" />
      </defs>
      <g
         id="equation_04_g">
        <use
           x="77"
           xlink:href="#equation_04_04"
           y="63"
           id="use3351"
           width="744.09448"
           height="1052.3622" />
        <use
           x="80.888901"
           xlink:href="#equation_04_02"
           y="63"
           id="use3353"
           width="744.09448"
           height="1052.3622" />
        <use
           x="86.604202"
           xlink:href="#equation_04_00"
           y="64.5"
           id="use3355"
           width="744.09448"
           height="1052.3622" />
        <use
           x="91.547501"
           xlink:href="#equation_04_06"
           y="64.5"
           id="use3357"
           width="744.09448"
           height="1052.3622" />
        <use
           x="97.686401"
           xlink:href="#equation_04_07"
           y="64.5"
           id="use3359"
           width="744.09448"
           height="1052.3622" />
        <use
           x="102.173"
           xlink:href="#equation_04_01"
           y="63"
           id="use3361"
           width="744.09448"
           height="1052.3622" />
        <use
           x="106.617"
           xlink:href="#equation_04_03"
           y="63"
           id="use3363"
           width="744.09448"
           height="1052.3622" />
        <use
           x="111.52"
           xlink:href="#equation_04_00"
           y="64.5"
           id="use3365"
           width="744.09448"
           height="1052.3622" />
        <use
           x="116.963"
           xlink:href="#equation_04_05"
           y="63"
           id="use3367"
           width="744.09448"
           height="1052.3622" />
      </g>
    </g>
    <g
       title="$(x_{n+1},y_{n+1})$"
       style="fill:#000000"
       id="equation_05"
       transform="matrix(1.7354083,0,0,1.7354083,259.09732,29.888603)">
      <defs
         id="defs3560">
        <path
           id="equation_05_00"
           d="m 0.854,-0.441 c -0.028,0.091 -0.07,0.266 -0.07,0.287 0,0.154 0.126,0.224 0.238,0.224 0.126,0 0.238,-0.091 0.273,-0.154 0.035,-0.063 0.091,-0.287 0.126,-0.434 0.035,-0.133 0.112,-0.455 0.154,-0.63 0.042,-0.154 0.084,-0.308 0.119,-0.469 0.077,-0.287 0.091,-0.343 0.294,-0.63 0.196,-0.28 0.525,-0.644 1.05,-0.644 0.406,0 0.413,0.357 0.413,0.49 0,0.42 -0.301,1.197 -0.413,1.491 -0.077,0.196 -0.105,0.259 -0.105,0.378 0,0.371 0.308,0.602 0.665,0.602 0.7,0 1.008,-0.966 1.008,-1.071 0,-0.091 -0.091,-0.091 -0.112,-0.091 -0.098,0 -0.105,0.042 -0.133,0.119 -0.161,0.56 -0.462,0.847 -0.742,0.847 -0.147,0 -0.175,-0.098 -0.175,-0.245 0,-0.161 0.035,-0.252 0.161,-0.567 0.084,-0.217 0.371,-0.959 0.371,-1.351 0,-0.679 -0.539,-0.798 -0.91,-0.798 -0.581,0 -0.973,0.357 -1.183,0.637 -0.049,-0.483 -0.462,-0.637 -0.749,-0.637 -0.301,0 -0.462,0.217 -0.553,0.378 -0.154,0.259 -0.252,0.658 -0.252,0.693 0,0.091 0.098,0.091 0.119,0.091 0.098,0 0.105,-0.021 0.154,-0.21 0.105,-0.413 0.238,-0.756 0.511,-0.756 0.182,0 0.231,0.154 0.231,0.343 0,0.133 -0.063,0.392 -0.112,0.581 -0.049,0.189 -0.119,0.476 -0.154,0.63 l -0.224,0.896 z"
           inkscape:connector-curvature="0" />
        <path
           id="equation_05_01"
           d="m 2.03,-0.01 c 0,-0.66 -0.25,-1.05 -0.64,-1.05 -0.33,0 -0.53,0.25 -0.53,0.53 0,0.27 0.2,0.53 0.53,0.53 0.12,0 0.25,-0.04 0.35,-0.13 0.03,-0.02 0.04,-0.03 0.05,-0.03 0.01,0 0.02,0.01 0.02,0.15 0,0.74 -0.35,1.34 -0.68,1.67 -0.11,0.11 -0.11,0.13 -0.11,0.16 0,0.07 0.05,0.11 0.1,0.11 0.11,0 0.91,-0.77 0.91,-1.94 z"
           inkscape:connector-curvature="0" />
        <path
           id="equation_05_02"
           d="M 3.34,-3.02 C 3.4,-3.28 3.63,-4.2 4.33,-4.2 c 0.05,0 0.29,0 0.5,0.13 -0.28,0.05 -0.48,0.3 -0.48,0.54 0,0.16 0.11,0.35 0.38,0.35 0.22,0 0.54,-0.18 0.54,-0.58 0,-0.52 -0.59,-0.66 -0.93,-0.66 -0.58,0 -0.93,0.53 -1.05,0.76 -0.25,-0.66 -0.79,-0.76 -1.08,-0.76 -1.04,0 -1.61,1.29 -1.61,1.54 0,0.1 0.1,0.1 0.12,0.1 0.08,0 0.11,-0.02 0.13,-0.11 0.34,-1.06 1,-1.31 1.34,-1.31 0.19,0 0.54,0.09 0.54,0.67 0,0.31 -0.17,0.98 -0.54,2.38 -0.16,0.62 -0.51,1.04 -0.95,1.04 -0.06,0 -0.29,0 -0.5,-0.13 0.25,-0.05 0.47,-0.26 0.47,-0.54 0,-0.27 -0.22,-0.35 -0.37,-0.35 -0.3,0 -0.55,0.26 -0.55,0.58 0,0.46 0.5,0.66 0.94,0.66 0.66,0 1.02,-0.7 1.05,-0.76 0.12,0.37 0.48,0.76 1.08,0.76 1.03,0 1.6,-1.29 1.6,-1.54 0,-0.1 -0.09,-0.1 -0.12,-0.1 -0.09,0 -0.11,0.04 -0.13,0.11 -0.33,1.07 -1.01,1.31 -1.33,1.31 -0.39,0 -0.55,-0.32 -0.55,-0.66 0,-0.22 0.06,-0.44 0.17,-0.88 l 0.34,-1.37 z"
           inkscape:connector-curvature="0" />
        <path
           id="equation_05_03"
           d="M 4.86,-3.81 C 4.9,-3.95 4.9,-3.97 4.9,-4.04 c 0,-0.18 -0.14,-0.27 -0.29,-0.27 -0.1,0 -0.26,0.06 -0.35,0.21 -0.02,0.05 -0.1,0.36 -0.14,0.54 -0.07,0.26 -0.14,0.53 -0.2,0.8 l -0.45,1.8 C 3.43,-0.81 3,-0.11 2.34,-0.11 c -0.51,0 -0.62,-0.44 -0.62,-0.81 0,-0.46 0.17,-1.08 0.51,-1.96 0.16,-0.41 0.2,-0.52 0.2,-0.72 0,-0.45 -0.32,-0.82 -0.82,-0.82 -0.95,0 -1.32,1.45 -1.32,1.54 0,0.1 0.1,0.1 0.12,0.1 0.1,0 0.11,-0.02 0.16,-0.18 0.27,-0.94 0.67,-1.24 1.01,-1.24 0.08,0 0.25,0 0.25,0.32 0,0.25 -0.1,0.51 -0.17,0.7 -0.4,1.06 -0.58,1.63 -0.58,2.1 0,0.89 0.63,1.19 1.22,1.19 0.39,0 0.73,-0.17 1.01,-0.45 C 3.18,0.18 3.06,0.67 2.66,1.2 2.4,1.54 2.02,1.83 1.56,1.83 1.42,1.83 0.97,1.8 0.8,1.41 c 0.16,0 0.29,0 0.43,-0.12 C 1.33,1.2 1.43,1.07 1.43,0.88 1.43,0.57 1.16,0.53 1.06,0.53 0.83,0.53 0.5,0.69 0.5,1.18 c 0,0.5 0.44,0.87 1.06,0.87 1.03,0 2.06,-0.91 2.34,-2.04 l 0.96,-3.82 z"
           inkscape:connector-curvature="0" />
        <path
           id="equation_05_04"
           d="M 3.31,2.4 C 3.31,2.37 3.31,2.35 3.14,2.18 1.89,0.92 1.57,-0.97 1.57,-2.5 c 0,-1.74 0.38,-3.48 1.61,-4.73 0.13,-0.12 0.13,-0.14 0.13,-0.17 0,-0.07 -0.04,-0.1 -0.1,-0.1 -0.1,0 -1,0.68 -1.59,1.95 -0.51,1.1 -0.63,2.21 -0.63,3.05 0,0.78 0.11,1.99 0.66,3.12 0.6,1.23 1.46,1.88 1.56,1.88 0.06,0 0.1,-0.03 0.1,-0.1 z"
           inkscape:connector-curvature="0" />
        <path
           id="equation_05_05"
           d="M 2.89,-2.5 C 2.89,-3.28 2.78,-4.49 2.23,-5.62 1.63,-6.85 0.77,-7.5 0.67,-7.5 c -0.06,0 -0.1,0.04 -0.1,0.1 0,0.03 0,0.05 0.19,0.23 0.98,0.99 1.55,2.58 1.55,4.67 0,1.71 -0.37,3.47 -1.61,4.73 -0.13,0.12 -0.13,0.14 -0.13,0.17 0,0.06 0.04,0.1 0.1,0.1 0.1,0 1,-0.68 1.59,-1.95 0.51,-1.1 0.63,-2.21 0.63,-3.05 z"
           inkscape:connector-curvature="0" />
        <path
           id="equation_05_06"
           d="m 3.241,-1.582 h 2.142 c 0.091,0 0.259,0 0.259,-0.168 0,-0.175 -0.161,-0.175 -0.259,-0.175 H 3.241 v -2.149 c 0,-0.091 0,-0.259 -0.168,-0.259 -0.175,0 -0.175,0.161 -0.175,0.259 v 2.149 H 0.749 c -0.091,0 -0.259,0 -0.259,0.168 0,0.175 0.161,0.175 0.259,0.175 h 2.149 v 2.149 c 0,0.091 0,0.259 0.168,0.259 0.175,0 0.175,-0.161 0.175,-0.259 v -2.149 z"
           inkscape:connector-curvature="0" />
        <path
           id="equation_05_07"
           d="m 2.345,-4.452 c 0,-0.189 -0.014,-0.196 -0.21,-0.196 C 1.687,-4.207 1.05,-4.2 0.763,-4.2 v 0.252 c 0.168,0 0.63,0 1.015,-0.196 v 3.57 c 0,0.231 0,0.322 -0.7,0.322 H 0.812 V 0 c 0.126,-0.007 0.987,-0.028 1.246,-0.028 0.217,0 1.099,0.021 1.253,0.028 V -0.252 H 3.045 c -0.7,0 -0.7,-0.091 -0.7,-0.322 v -3.878 z"
           inkscape:connector-curvature="0" />
      </defs>
      <g
         id="equation_05_g">
        <use
           id="use3571"
           y="63"
           xlink:href="#equation_05_04"
           x="77"
           width="744.09448"
           height="1052.3622" />
        <use
           id="use3573"
           y="63"
           xlink:href="#equation_05_02"
           x="80.888901"
           width="744.09448"
           height="1052.3622" />
        <use
           id="use3575"
           y="64.5"
           xlink:href="#equation_05_00"
           x="86.604202"
           width="744.09448"
           height="1052.3622" />
        <use
           id="use3577"
           y="64.5"
           xlink:href="#equation_05_06"
           x="91.547501"
           width="744.09448"
           height="1052.3622" />
        <use
           id="use3579"
           y="64.5"
           xlink:href="#equation_05_07"
           x="97.686401"
           width="744.09448"
           height="1052.3622" />
        <use
           id="use3581"
           y="63"
           xlink:href="#equation_05_01"
           x="102.173"
           width="744.09448"
           height="1052.3622" />
        <use
           id="use3583"
           y="63"
           xlink:href="#equation_05_03"
           x="106.617"
           width="744.09448"
           height="1052.3622" />
        <use
           id="use3585"
           y="64.5"
           xlink:href="#equation_05_00"
           x="111.52"
           width="744.09448"
           height="1052.3622" />
        <use
           id="use3587"
           y="64.5"
           xlink:href="#equation_05_06"
           x="116.463"
           width="744.09448"
           height="1052.3622" />
        <use
           id="use3589"
           y="64.5"
           xlink:href="#equation_05_07"
           x="122.602"
           width="744.09448"
           height="1052.3622" />
        <use
           id="use3591"
           y="63"
           xlink:href="#equation_05_05"
           x="127.088"
           width="744.09448"
           height="1052.3622" />
      </g>
    </g>
  </g>
</svg>
