<?xml version="1.0" encoding="UTF-8" standalone="no"?>
<!-- Created with Inkscape (http://www.inkscape.org/) -->

<svg
   xmlns:dc="http://purl.org/dc/elements/1.1/"
   xmlns:cc="http://creativecommons.org/ns#"
   xmlns:rdf="http://www.w3.org/1999/02/22-rdf-syntax-ns#"
   xmlns:svg="http://www.w3.org/2000/svg"
   xmlns="http://www.w3.org/2000/svg"
   xmlns:xlink="http://www.w3.org/1999/xlink"
   xmlns:sodipodi="http://sodipodi.sourceforge.net/DTD/sodipodi-0.dtd"
   xmlns:inkscape="http://www.inkscape.org/namespaces/inkscape"
   width="210mm"
   height="297mm"
   id="svg3238"
   version="1.1"
   inkscape:version="0.48.4 r9939"
   sodipodi:docname="gradient-method.svg"
   inkscape:export-filename="\\EULER\nineties\projects\prml-seminar\fig\gradient-method.png"
   inkscape:export-xdpi="90"
   inkscape:export-ydpi="90">
  <sodipodi:namedview
     id="base"
     pagecolor="#000000"
     bordercolor="#666666"
     borderopacity="1.0"
     inkscape:pageopacity="0"
     inkscape:pageshadow="2"
     inkscape:zoom="0.98994949"
     inkscape:cx="310.72657"
     inkscape:cy="483.27721"
     inkscape:document-units="px"
     inkscape:current-layer="layer1"
     showgrid="false"
     inkscape:window-width="1366"
     inkscape:window-height="746"
     inkscape:window-x="0"
     inkscape:window-y="22"
     inkscape:window-maximized="0" />
  <defs
     id="defs3240">
    <marker
       inkscape:stockid="Arrow1Mend"
       orient="auto"
       refY="0.0"
       refX="0.0"
       id="Arrow1Mend"
       style="overflow:visible;">
      <path
         id="path4288"
         d="M 0.0,0.0 L 5.0,-5.0 L -12.5,0.0 L 5.0,5.0 L 0.0,0.0 z "
         style="fill-rule:evenodd;stroke:#000000;stroke-width:1.0pt;"
         transform="scale(0.4) rotate(180) translate(10,0)" />
    </marker>
    <defs
       id="defs11">
      <circle
         r="0.5"
         id="gpDot"
         cx="0"
         cy="0"
         sodipodi:cx="0"
         sodipodi:cy="0"
         sodipodi:rx="0.5"
         sodipodi:ry="0.5"
         style="stroke-width:0.5" />
      <path
         d="M -1,0 H 1 M 0,-1 v 2"
         id="gpPt0"
         inkscape:connector-curvature="0"
         style="stroke:currentColor;stroke-width:0.222" />
      <path
         d="M -1,-1 1,1 M 1,-1 -1,1"
         id="gpPt1"
         inkscape:connector-curvature="0"
         style="stroke:currentColor;stroke-width:0.222" />
      <path
         d="M -1,0 1,0 M 0,-1 0,1 m -1,-2 2,2 m -2,0 2,-2"
         id="gpPt2"
         inkscape:connector-curvature="0"
         style="stroke:currentColor;stroke-width:0.222" />
      <rect
         height="2"
         width="2"
         y="-1"
         x="-1"
         id="gpPt3"
         style="stroke:currentColor;stroke-width:0.222" />
      <rect
         height="2"
         width="2"
         y="-1"
         x="-1"
         id="gpPt4"
         style="fill:currentColor;stroke:currentColor;stroke-width:0.222" />
      <circle
         r="1"
         cy="0"
         cx="0"
         id="gpPt5"
         sodipodi:cx="0"
         sodipodi:cy="0"
         sodipodi:rx="1"
         sodipodi:ry="1"
         style="stroke:currentColor;stroke-width:0.222" />
      <use
         id="gpPt6"
         xlink:href="#gpPt5"
         style="fill:currentColor;stroke:none"
         x="0"
         y="0"
         width="744.09448"
         height="1052.3622" />
      <path
         d="m 0,-1.33 -1.33,2 2.66,0 z"
         id="gpPt7"
         inkscape:connector-curvature="0"
         style="stroke:currentColor;stroke-width:0.222" />
      <use
         id="gpPt8"
         xlink:href="#gpPt7"
         style="fill:currentColor;stroke:none"
         x="0"
         y="0"
         width="744.09448"
         height="1052.3622" />
      <use
         transform="scale(-1,-1)"
         id="gpPt9"
         xlink:href="#gpPt7"
         style="stroke:currentColor"
         x="0"
         y="0"
         width="744.09448"
         height="1052.3622" />
      <use
         id="gpPt10"
         xlink:href="#gpPt9"
         style="fill:currentColor;stroke:none"
         x="0"
         y="0"
         width="744.09448"
         height="1052.3622" />
      <use
         transform="matrix(0.70710678,0.70710678,-0.70710678,0.70710678,0,0)"
         id="gpPt11"
         xlink:href="#gpPt3"
         style="stroke:currentColor"
         x="0"
         y="0"
         width="744.09448"
         height="1052.3622" />
      <use
         id="gpPt12"
         xlink:href="#gpPt11"
         style="fill:currentColor;stroke:none"
         x="0"
         y="0"
         width="744.09448"
         height="1052.3622" />
    </defs>
    <marker
       inkscape:stockid="Arrow1MendH"
       orient="auto"
       refY="0.0"
       refX="0.0"
       id="Arrow1MendH"
       style="overflow:visible;">
      <path
         id="path4739"
         d="M 0.0,0.0 L 5.0,-5.0 L -12.5,0.0 L 5.0,5.0 L 0.0,0.0 z "
         style="stroke:#ffc0cb;stroke-width:1.0pt;fill:#ffc0cb;fill-rule:evenodd"
         transform="scale(0.4) rotate(180) translate(10,0)" />
    </marker>
    <marker
       inkscape:stockid="Arrow1MendH"
       orient="auto"
       refY="0"
       refX="0"
       id="Arrow1MendH-7"
       style="overflow:visible">
      <path
         id="path4739-4"
         d="M 0,0 5,-5 -12.5,0 5,5 0,0 z"
         style="fill:#ffc0cb;fill-rule:evenodd;stroke:#ffc0cb;stroke-width:1pt"
         transform="matrix(-0.4,0,0,-0.4,-4,0)"
         inkscape:connector-curvature="0" />
    </marker>
    <marker
       inkscape:stockid="Arrow1MendH"
       orient="auto"
       refY="0"
       refX="0"
       id="Arrow1MendH-9"
       style="overflow:visible">
      <path
         id="path4739-2"
         d="M 0,0 5,-5 -12.5,0 5,5 0,0 z"
         style="fill:#ffc0cb;fill-rule:evenodd;stroke:#ffc0cb;stroke-width:1pt"
         transform="matrix(-0.4,0,0,-0.4,-4,0)"
         inkscape:connector-curvature="0" />
    </marker>
    <marker
       inkscape:stockid="Arrow1MendHJ"
       orient="auto"
       refY="0.0"
       refX="0.0"
       id="Arrow1MendHJ"
       style="overflow:visible;">
      <path
         id="path3164"
         d="M 0.0,0.0 L 5.0,-5.0 L -12.5,0.0 L 5.0,5.0 L 0.0,0.0 z "
         style="fill-rule:evenodd;stroke:#ff0000;stroke-width:1.0pt;fill:#ff0000"
         transform="scale(0.4) rotate(180) translate(10,0)" />
    </marker>
    <marker
       inkscape:stockid="Arrow1MendHj"
       orient="auto"
       refY="0.0"
       refX="0.0"
       id="Arrow1MendHj"
       style="overflow:visible;">
      <path
         id="path3167"
         d="M 0.0,0.0 L 5.0,-5.0 L -12.5,0.0 L 5.0,5.0 L 0.0,0.0 z "
         style="fill-rule:evenodd;stroke:#ff0000;stroke-width:1.0pt;fill:#ff0000"
         transform="scale(0.4) rotate(180) translate(10,0)" />
    </marker>
    <marker
       inkscape:stockid="Arrow1MendHt"
       orient="auto"
       refY="0.0"
       refX="0.0"
       id="Arrow1MendHt"
       style="overflow:visible;">
      <path
         id="path3170"
         d="M 0.0,0.0 L 5.0,-5.0 L -12.5,0.0 L 5.0,5.0 L 0.0,0.0 z "
         style="fill-rule:evenodd;stroke:#ff0000;stroke-width:1.0pt;fill:#ff0000"
         transform="scale(0.4) rotate(180) translate(10,0)" />
    </marker>
  </defs>
  <metadata
     id="metadata3243">
    <rdf:RDF>
      <cc:Work
         rdf:about="">
        <dc:format>image/svg+xml</dc:format>
        <dc:type
           rdf:resource="http://purl.org/dc/dcmitype/StillImage" />
        <dc:title></dc:title>
      </cc:Work>
    </rdf:RDF>
  </metadata>
  <g
     inkscape:label="レイヤー 1"
     inkscape:groupmode="layer"
     id="layer1">
    <g
       id="g27"
       style="color:#ffffff;fill:none;stroke:currentColor;stroke-width:1;stroke-linecap:butt;stroke-linejoin:miter"
       transform="translate(100,360.93361)" />
    <g
       id="gnuplot_plot_1"
       transform="translate(100,360.93361)"
       style="stroke:#000000">
      <title
         id="title146">gnuplot_plot_1</title>
      <g
         id="g148"
         style="color:#ff0000;fill:none;stroke:#000000;stroke-width:1;stroke-linecap:butt;stroke-linejoin:miter">
        <path
           id="path150"
           d="m 89.2,166.7 2.8,0.7 2.8,0.7 2.8,0.8 2.8,0.8 2.9,1 2.8,0.9 2.8,1.1 2.8,1.1 2.9,1.1 2.8,1.2 2.8,1.3 2.8,1.4 2.8,1.4 2.9,1.4 2.8,1.5 2.8,1.6 2.8,1.6 2.9,1.7 2.8,1.7 2.8,1.8 2.8,1.9 2.8,1.8 2.9,2 2.8,2 2.8,2 2.8,2.1 2.9,2.1 2.8,2.1 2.8,2.2 2.8,2.3 2.8,2.2 2.9,2.3 2.8,2.4 2.8,2.3 2.8,2.4 2.9,2.5 2.8,2.4 2.8,2.5 2.8,2.4 2.9,2.5 2.8,2.6 2.8,2.5 2.8,2.6 2.8,2.6 2.9,2.6 2.8,2.6 2.8,2.6 2.8,2.6 2.9,2.6 2.8,2.7 2.8,2.6 2.8,2.6 2.8,2.6 2.9,2.6 2.8,2.6 2.8,2.6 2.8,2.6 2.9,2.5 2.8,2.6 2.8,2.5 2.8,2.5 2.8,2.5 2.9,2.4 2.8,2.5 2.8,2.4 2.8,2.3 2.9,2.4 2.8,2.3 2.8,2.2 2.8,2.3 2.8,2.2 2.9,2.1 2.8,2.1 2.8,2.1 2.7,2 2.9,2 2.8,2 2.8,1.8 2.8,1.9 2.8,1.8 2.9,1.7 2.8,1.7 2.8,1.6 2.8,1.6 2.9,1.5 2.8,1.4 2.8,1.4 2.8,1.4 2.8,1.3 2.9,1.2 2.8,1.1 2.8,1.1 2.8,1.1 2.9,0.9 2.8,1 2.8,0.8 2.8,0.8 2.9,0.7 2.8,0.7 M 105,157 l 2.8,0.6 2.8,0.7 2.8,0.8 2.9,0.8 2.8,0.9 2.8,1 2.8,1 2.9,1.1 2.8,1.1 2.8,1.2 2.8,1.2 2.8,1.3 2.9,1.4 2.8,1.4 2.8,1.4 2.8,1.6 2.9,1.5 2.8,1.6 2.8,1.7 2.8,1.7 2.8,1.8 2.9,1.8 2.8,1.8 2.8,1.9 2.8,2 2.9,2 2.8,2 2.8,2.1 2.8,2.1 2.8,2.1 2.9,2.2 2.8,2.2 2.8,2.2 2.8,2.3 2.9,2.3 2.8,2.3 2.8,2.3 2.8,2.4 2.8,2.4 2.9,2.4 2.8,2.4 2.8,2.5 2.8,2.4 2.9,2.4 2.8,2.5 2.8,2.4 2.8,2.5 2.8,2.5 2.9,2.5 2.8,2.5 2.8,2.5 2.8,2.5 2.9,2.5 2.8,2.5 2.8,2.5 2.8,2.5 2.9,2.4 2.8,2.5 2.8,2.4 2.8,2.4 2.8,2.4 2.9,2.4 2.8,2.3 2.8,2.3 2.8,2.3 2.9,2.3 2.8,2.2 2.8,2.2 2.8,2.2 2.7,2.1 2.9,2.1 2.8,2.1 2.8,2 2.8,2 2.9,1.9 2.8,1.9 2.8,1.9 2.8,1.8 2.8,1.8 2.9,1.7 2.8,1.6 2.8,1.7 2.8,1.5 2.9,1.5 2.8,1.5 2.8,1.4 2.8,1.4 2.8,1.3 2.9,1.2 2.8,1.2 2.8,1.1 2.8,1.1 2.9,1 2.8,0.9 2.8,0.9 2.8,0.9 2.8,0.7 2.9,0.8 2.8,0.6 m -263.5,-182.8 2.8,0.7 2.8,0.7 2.9,0.7 2.8,0.8 2.8,0.9 2.8,0.8 2.8,1 2.9,1 2.8,1 2.8,1.1 2.8,1.1 2.9,1.2 2.8,1.2 2.8,1.3 2.8,1.3 2.9,1.3 2.8,1.4 2.8,1.5 2.8,1.4 2.8,1.5 2.9,1.6 2.8,1.6 2.8,1.6 2.8,1.7 2.9,1.7 2.8,1.7 2.8,1.8 2.8,1.8 2.8,1.8 2.9,1.9 2.8,1.8 2.8,2 2.8,1.9 2.9,2 2.8,1.9 2.8,2.1 2.8,2 2.8,2 2.9,2.1 2.8,2.1 2.8,2.1 2.8,2.1 2.9,2.1 2.8,2.1 2.8,2.2 2.8,2.1 2.8,2.1 2.9,2.2 2.8,2.1 2.8,2.1 2.8,2.2 2.9,2.1 2.8,2.2 2.8,2.1 2.8,2.1 2.8,2.2 2.9,2.1 2.8,2.1 2.8,2.1 2.8,2.1 2.9,2 2.8,2.1 2.8,2 2.7,2 2.8,2 2.9,2 2.8,1.9 2.8,1.9 2.8,1.9 2.9,1.9 2.8,1.8 2.8,1.8 2.8,1.7 2.9,1.8 2.8,1.7 2.8,1.6 2.8,1.7 2.8,1.6 2.9,1.5 2.8,1.5 2.8,1.5 2.8,1.4 2.9,1.4 2.8,1.4 2.8,1.3 2.8,1.2 2.8,1.3 2.9,1.1 2.8,1.2 2.8,1 2.8,1.1 2.9,1 2.8,0.9 2.8,0.9 2.8,0.9 2.8,0.7 2.9,0.8 2.8,0.7 2.8,0.7 m -263.5,-155.2 2.8,0.6 2.9,0.7 2.8,0.7 2.8,0.7 2.8,0.8 2.8,0.8 2.9,0.8 2.8,0.9 2.8,0.9 2.8,0.9 2.9,1 2.8,1 2.8,1 2.8,1 2.8,1.1 2.9,1.1 2.8,1.1 2.8,1.2 2.8,1.1 2.9,1.2 2.8,1.3 2.8,1.2 2.8,1.3 2.8,1.3 2.9,1.3 2.8,1.4 2.8,1.4 2.8,1.4 2.9,1.4 2.8,1.4 2.8,1.4 2.8,1.5 2.9,1.5 2.8,1.5 2.8,1.5 2.8,1.5 2.8,1.6 2.9,1.5 2.8,1.6 2.8,1.6 2.8,1.6 2.9,1.6 2.8,1.6 2.8,1.6 2.8,1.6 2.8,1.6 2.9,1.6 2.8,1.6 2.8,1.7 2.8,1.6 2.9,1.6 2.8,1.6 2.8,1.7 2.8,1.6 2.8,1.6 2.9,1.6 2.8,1.5 2.7,1.6 2.8,1.6 2.9,1.5 2.8,1.6 2.8,1.6 2.8,1.5 2.8,1.5 2.9,1.5 2.8,1.5 2.8,1.5 2.8,1.5 2.9,1.4 2.8,1.5 2.8,1.4 2.8,1.4 2.8,1.3 2.9,1.4 2.8,1.3 2.8,1.3 2.8,1.3 2.9,1.3 2.8,1.2 2.8,1.2 2.8,1.2 2.9,1.1 2.8,1.2 2.8,1.1 2.8,1 2.8,1.1 2.9,1 2.8,1 2.8,0.9 2.8,1 2.9,0.8 2.8,0.9 2.8,0.8 2.8,0.8 2.8,0.8 2.9,0.7 2.8,0.8 2.8,0.6 2.8,0.7 m -263.5,-118 2.9,0.6 2.8,0.7 2.8,0.6 2.8,0.7 2.8,0.7 2.9,0.7 2.8,0.7 2.8,0.7 2.8,0.7 2.9,0.7 2.8,0.8 2.8,0.7 2.8,0.8 2.8,0.8 2.9,0.7 2.8,0.8 2.8,0.8 2.8,0.9 2.9,0.8 2.8,0.8 2.8,0.8 2.8,0.9 2.8,0.8 2.9,0.9 2.8,0.9 2.8,0.9 2.8,0.8 2.9,0.9 2.8,0.9 2.8,0.9 2.8,0.9 2.8,1 2.9,0.9 2.8,0.9 2.8,1 2.8,0.9 2.9,0.9 2.8,1 2.8,0.9 2.8,1 2.8,1 2.9,0.9 2.8,1 2.8,1 2.8,0.9 2.9,1 2.8,1 2.8,1 2.8,0.9 2.9,1 2.8,1 2.8,0.9 2.7,1 2.8,1 2.9,1 2.8,0.9 2.8,1 2.8,1 2.9,0.9 2.8,1 2.8,0.9 2.8,1 2.8,0.9 2.9,1 2.8,0.9 2.8,0.9 2.8,1 2.9,0.9 2.8,0.9 2.8,0.9 2.8,0.9 2.8,0.9 2.9,0.9 2.8,0.9 2.8,0.8 2.8,0.8 2.9,0.8 2.8,0.9 2.8,0.8 2.8,0.9 2.8,0.8 2.9,0.8 2.8,0.8 2.8,0.8 2.8,0.8 2.9,0.7 2.8,0.8 2.8,0.7 2.8,0.8 2.8,0.7 2.9,0.7 2.8,0.7 2.8,0.7 2.8,0.7 2.9,0.7 2.8,0.7 2.8,0.6 2.8,0.7 2.9,0.6 m -263.6,-75.6 2.9,0.6 2.8,0.6 2.8,0.6 2.8,0.6 2.9,0.6 2.8,0.5 2.8,0.6 2.8,0.6 2.9,0.5 2.8,0.5 2.8,0.5 2.8,0.5 2.8,0.5 2.9,0.5 2.8,0.5 2.8,0.4 2.8,0.5 2.9,0.4 2.8,0.5 2.8,0.4 2.8,0.4 2.8,0.4 2.9,0.4 2.8,0.4 2.8,0.4 2.8,0.4 2.9,0.4 2.8,0.3 2.8,0.4 2.8,0.3 2.8,0.4 2.9,0.3 2.8,0.3 2.8,0.4 2.8,0.3 2.9,0.3 2.8,0.3 2.8,0.3 2.8,0.3 2.8,0.3 2.9,0.3 2.8,0.3 2.8,0.3 2.8,0.3 2.9,0.3 2.8,0.3 2.7,0.2 2.8,0.3 2.8,0.3 2.9,0.3 2.8,0.3 2.8,0.3 2.8,0.2 2.9,0.3 2.8,0.3 2.8,0.3 2.8,0.3 2.9,0.3 2.8,0.3 2.8,0.3 2.8,0.3 2.8,0.3 2.9,0.3 2.8,0.3 2.8,0.3 2.8,0.4 2.9,0.3 2.8,0.3 2.8,0.4 2.8,0.3 2.8,0.4 2.9,0.3 2.8,0.4 2.8,0.4 2.8,0.4 2.9,0.4 2.8,0.4 2.8,0.4 2.8,0.4 2.8,0.4 2.9,0.5 2.8,0.4 2.8,0.5 2.8,0.4 2.9,0.5 2.8,0.5 2.8,0.5 2.8,0.5 2.8,0.5 2.9,0.5 2.8,0.6 2.8,0.5 2.8,0.6 2.9,0.5 2.8,0.6 2.8,0.6 2.8,0.6 2.8,0.6 2.9,0.6 h 0.01"
           inkscape:connector-curvature="0"
           style="stroke:#000000" />
        <path
           id="path152"
           d="m 184.1,179.6 2.8,0.6 2.8,0.6 2.8,0.6 2.9,0.5 2.8,0.5 2.8,0.4 2.8,0.4 2.8,0.4 2.9,0.4 2.8,0.3 2.8,0.3 2.8,0.3 2.9,0.3 2.8,0.2 2.8,0.2 2.8,0.1 2.8,0.1 2.9,0.1 2.8,0.1 2.8,0.1 2.8,0 2.9,0 2.8,0 2.8,-0.1 2.8,-0.1 2.9,0 2.8,-0.2 2.8,-0.1 2.8,-0.2 2.8,-0.1 2.9,-0.2 2.8,-0.2 2.8,-0.3 2.8,-0.2 2.9,-0.3 2.8,-0.2 2.8,-0.3 2.8,-0.3 2.8,-0.3 2.9,-0.3 2.8,-0.4 2.7,-0.3 2.8,-0.4 2.9,-0.3 2.8,-0.4 2.8,-0.3 2.8,-0.4 2.8,-0.4 2.9,-0.3 2.8,-0.4 2.8,-0.4 2.8,-0.3 2.9,-0.4 2.8,-0.3 2.8,-0.4 2.8,-0.4 2.8,-0.3 2.9,-0.3 2.8,-0.4 2.8,-0.3 2.8,-0.3 2.9,-0.3 2.8,-0.3 2.8,-0.2 2.8,-0.3 2.8,-0.3 2.9,-0.2 2.8,-0.2 2.8,-0.2 2.8,-0.2 2.9,-0.1 2.8,-0.1 2.8,-0.2 2.8,-0.1 2.9,0 2.8,-0.1 2.8,0 2.8,0 2.8,0 2.9,0.1 2.8,0 2.8,0.2 2.8,0.1 2.9,0.1 2.8,0.2 2.8,0.2 2.8,0.3 2.8,0.3 2.9,0.3 2.8,0.3 2.8,0.3 2.8,0.4 2.9,0.5 2.8,0.4 2.8,0.5 2.8,0.5 2.8,0.6 2.9,0.6 2.8,0.6 m -263.5,3.8 2.8,0.6 2.8,0.5 2.9,0.5 2.8,0.5 2.8,0.4 2.8,0.4 2.8,0.3 2.9,0.3 2.8,0.2 2.8,0.2 2.8,0.1 2.9,0.1 2.8,0 2.8,0 2.8,0 2.8,-0.1 2.9,-0.2 2.8,-0.2 2.8,-0.2 2.8,-0.2 2.9,-0.3 2.8,-0.4 2.8,-0.3 2.8,-0.4 2.8,-0.5 2.9,-0.5 2.8,-0.5 2.8,-0.5 2.8,-0.6 2.9,-0.6 2.8,-0.6 2.8,-0.7 2.8,-0.7 2.9,-0.7 2.8,-0.7 2.7,-0.7 2.8,-0.8 2.8,-0.8 2.9,-0.8 2.8,-0.8 2.8,-0.9 2.8,-0.8 2.9,-0.9 2.8,-0.9 2.8,-0.8 2.8,-0.9 2.8,-0.9 2.9,-0.9 2.8,-0.9 2.8,-0.9 2.8,-0.9 2.9,-0.9 2.8,-0.9 2.8,-0.9 2.8,-0.9 2.8,-0.8 2.9,-0.9 2.8,-0.9 2.8,-0.8 2.8,-0.8 2.9,-0.8 2.8,-0.8 2.8,-0.8 2.8,-0.7 2.8,-0.8 2.9,-0.7 2.8,-0.6 2.8,-0.7 2.8,-0.6 2.9,-0.6 2.8,-0.6 2.8,-0.6 2.8,-0.5 2.8,-0.4 2.9,-0.5 2.8,-0.4 2.8,-0.4 2.8,-0.3 2.9,-0.3 2.8,-0.3 2.8,-0.2 2.8,-0.1 2.8,-0.2 2.9,-0.1 2.8,0 2.8,0 2.8,0 2.9,0.1 2.8,0.1 2.8,0.2 2.8,0.2 2.9,0.3 2.8,0.3 2.8,0.4 2.8,0.4 2.8,0.4 2.9,0.5 2.8,0.6 2.8,0.6 m -263.5,31.4 2.8,0.6 2.9,0.6 2.8,0.5 2.8,0.4 2.8,0.3 2.8,0.3 2.9,0.3 2.8,0.2 2.8,0.1 2.8,0.1 2.9,0 2.8,-0.1 2.8,-0.1 2.8,-0.1 2.8,-0.2 2.9,-0.3 2.8,-0.3 2.8,-0.3 2.8,-0.4 2.9,-0.5 2.8,-0.5 2.8,-0.6 2.8,-0.6 2.8,-0.6 2.9,-0.7 2.8,-0.7 2.8,-0.8 2.8,-0.8 2.9,-0.8 2.7,-0.9 2.8,-0.9 2.8,-1 2.8,-1 2.9,-1 2.8,-1 2.8,-1.1 2.8,-1.1 2.9,-1.1 2.8,-1.1 2.8,-1.2 2.8,-1.1 2.8,-1.2 2.9,-1.2 2.8,-1.2 2.8,-1.2 2.8,-1.3 2.9,-1.2 2.8,-1.3 2.8,-1.2 2.8,-1.2 2.9,-1.3 2.8,-1.2 2.8,-1.3 2.8,-1.2 2.8,-1.2 2.9,-1.2 2.8,-1.2 2.8,-1.2 2.8,-1.2 2.9,-1.1 2.8,-1.2 2.8,-1.1 2.8,-1.1 2.8,-1 2.9,-1.1 2.8,-1 2.8,-1 2.8,-0.9 2.9,-0.9 2.8,-0.9 2.8,-0.8 2.8,-0.9 2.8,-0.7 2.9,-0.8 2.8,-0.6 2.8,-0.7 2.8,-0.6 2.9,-0.5 2.8,-0.5 2.8,-0.5 2.8,-0.4 2.8,-0.4 2.9,-0.3 2.8,-0.2 2.8,-0.2 2.8,-0.2 2.9,-0.1 2.8,0 2.8,0 2.8,0.1 2.8,0.1 2.9,0.2 2.8,0.2 2.8,0.3 2.8,0.4 2.9,0.4 2.8,0.5 2.8,0.5 2.8,0.6 m -263.5,46.2 2.8,0.6 2.9,0.5 2.8,0.5 2.8,0.4 2.8,0.3 2.9,0.3 2.8,0.2 2.8,0.2 2.8,0.1 2.9,0 2.8,0 2.8,-0.1 2.8,-0.1 2.8,-0.2 2.9,-0.3 2.8,-0.3 2.8,-0.4 2.8,-0.4 2.9,-0.5 2.8,-0.5 2.8,-0.6 2.8,-0.6 2.8,-0.7 2.9,-0.7 2.7,-0.8 2.8,-0.8 2.8,-0.9 2.9,-0.9 2.8,-0.9 2.8,-1 2.8,-1 2.8,-1 2.9,-1.1 2.8,-1.1 2.8,-1.2 2.8,-1.2 2.9,-1.2 2.8,-1.2 2.8,-1.2 2.8,-1.3 2.8,-1.3 2.9,-1.3 2.8,-1.3 2.8,-1.3 2.8,-1.4 2.9,-1.3 2.8,-1.4 2.8,-1.3 2.8,-1.4 2.8,-1.4 2.9,-1.3 2.8,-1.4 2.8,-1.3 2.8,-1.4 2.9,-1.3 2.8,-1.4 2.8,-1.3 2.8,-1.3 2.8,-1.3 2.9,-1.2 2.8,-1.3 2.8,-1.2 2.8,-1.2 2.9,-1.2 2.8,-1.1 2.8,-1.1 2.8,-1.1 2.9,-1.1 2.8,-1 2.8,-1 2.8,-0.9 2.8,-0.9 2.9,-0.9 2.8,-0.8 2.8,-0.7 2.8,-0.8 2.9,-0.6 2.8,-0.7 2.8,-0.6 2.8,-0.5 2.8,-0.5 2.9,-0.4 2.8,-0.3 2.8,-0.4 2.8,-0.2 2.9,-0.2 2.8,-0.2 2.8,0 2.8,-0.1 2.8,0.1 2.9,0.1 2.8,0.1 2.8,0.2 2.8,0.3 2.9,0.4 2.8,0.4 2.8,0.4 2.8,0.6 2.8,0.6 m -421.6,59.8 1.4,-1.2 1.4,-1.1 1.5,-1.1 1.4,-1 1.4,-0.9 1.5,-0.9 1.4,-0.9 1.5,-0.7 1.4,-0.7 1.4,-0.7 1.5,-0.5 1.4,-0.6 1.4,-0.4 1.5,-0.4 1.4,-0.4 1.5,-0.3 1.4,-0.2 1.4,-0.2 1.5,-0.1 1.4,-0.1 1.5,0 1.4,0 1.4,0.1 1.5,0.1 1.4,0.2 1.4,0.2 1.5,0.2 1.4,0.3 1.5,0.4 1.4,0.3 1.4,0.4 1.5,0.5 1.4,0.5 1.4,0.5 1.5,0.5 1.4,0.6 1.5,0.6 1.4,0.6 1.4,0.6 1.5,0.7 1.4,0.7 1.5,0.7 1.4,0.7 1.4,0.7 1.5,0.7 1.4,0.8 1.4,0.7 1.5,0.8 1.4,0.8 1.5,0.7 1.4,0.8 1.4,0.7 1.5,0.8 1.4,0.7 1.4,0.8 1.5,0.7 1.4,0.7 1.5,0.7 1.4,0.7 1.4,0.7 1.5,0.6 1.4,0.6 1.5,0.6 1.4,0.6 1.4,0.5 1.5,0.5 1.4,0.5 1.4,0.4 1.5,0.5 1.4,0.3 1.5,0.4 1.4,0.3 1.4,0.2 1.5,0.2 1.4,0.2 1.4,0.1 1.5,0.1 1.4,0 1.5,0 1.4,-0.1 1.4,-0.1 1.5,-0.2 1.4,-0.2 1.5,-0.3 1.4,-0.4 1.4,-0.4 1.5,-0.4 1.4,-0.6 1.4,-0.5 1.5,-0.7 1.4,-0.7 1.5,-0.8 1.4,-0.8 1.4,-0.9 1.5,-0.9 1.4,-1 1.4,-1.1 1.5,-1.1 1.4,-1.2 m -111.3,7 1.4,-1.2 1.5,-1.1 1.4,-1.1 1.5,-1 1.4,-1 1.4,-0.9 1.5,-0.9 1.4,-0.7 1.4,-0.8 1.5,-0.7 1.4,-0.6 1.5,-0.5 1.4,-0.5 1.4,-0.5 1.5,-0.4 1.4,-0.4 1.4,-0.2 1.5,-0.3 1.4,-0.2 1.5,-0.1 1.4,-0.1 1.4,-0.1 1.5,0 1.4,0.1 1.5,0 1.4,0.2 1.4,0.1 1.5,0.2 1.4,0.3 1.4,0.2 1.5,0.4 1.4,0.3 1.5,0.4 1.4,0.4 1.4,0.4 1.5,0.5 1.4,0.4 1.4,0.6 1.5,0.5 1.4,0.5 1.5,0.6 1.4,0.6 1.4,0.6 1.5,0.6 1.4,0.6 1.5,0.6 1.4,0.7 1.4,0.6 1.5,0.6 1.4,0.7 1.4,0.6 1.5,0.7 1.4,0.6 1.5,0.6 1.4,0.6 1.4,0.6 1.5,0.6 1.4,0.6 1.4,0.6 1.5,0.5 1.4,0.6 1.5,0.5 1.4,0.4 1.4,0.5 1.5,0.4 1.4,0.4 1.5,0.4 1.4,0.4 1.4,0.3 1.5,0.2 1.4,0.3 1.4,0.2 1.5,0.1 1.4,0.2 1.5,0.1 1.4,0 1.4,0 1.5,-0.1 1.4,-0.1 1.4,-0.1 1.5,-0.2 1.4,-0.2 1.5,-0.3 1.4,-0.4 1.4,-0.4 1.5,-0.4 1.4,-0.6 1.5,-0.5 1.4,-0.6 1.4,-0.7 1.5,-0.7 1.4,-0.8 1.4,-0.9 1.5,-0.9 1.4,-1 1.5,-1 1.4,-1.1 1.4,-1.1 1.5,-1.2 h 0.01"
           inkscape:connector-curvature="0"
           style="stroke:#000000" />
        <path
           id="path154"
           d="m 151.2,195.2 1.5,-1.2 1.4,-1.1 1.5,-1.1 1.4,-1.1 1.4,-1 1.5,-1 1.4,-0.9 1.5,-0.9 1.4,-0.8 1.4,-0.8 1.5,-0.7 1.4,-0.7 1.4,-0.6 1.5,-0.6 1.4,-0.6 1.5,-0.5 1.4,-0.5 1.4,-0.4 1.5,-0.4 1.4,-0.3 1.4,-0.3 1.5,-0.3 1.4,-0.2 1.5,-0.2 1.4,-0.2 1.4,-0.1 1.5,-0.1 1.4,-0.1 1.5,0 1.4,0 1.4,0 1.5,0.1 1.4,0 1.4,0.1 1.5,0.2 1.4,0.1 1.5,0.2 1.4,0.2 1.4,0.2 1.5,0.2 1.4,0.2 1.4,0.3 1.5,0.2 1.4,0.3 1.5,0.3 1.4,0.2 1.4,0.3 1.5,0.3 1.4,0.3 1.5,0.3 1.4,0.3 1.4,0.3 1.5,0.3 1.4,0.3 1.4,0.2 1.5,0.3 1.4,0.3 1.5,0.2 1.4,0.2 1.4,0.3 1.5,0.2 1.4,0.2 1.4,0.1 1.5,0.2 1.4,0.1 1.5,0.1 1.4,0.1 1.4,0 1.5,0 1.4,0 1.5,0 1.4,-0.1 1.4,0 1.5,-0.2 1.4,-0.1 1.4,-0.2 1.5,-0.3 1.4,-0.2 1.5,-0.3 1.4,-0.4 1.4,-0.4 1.5,-0.4 1.4,-0.5 1.4,-0.5 1.5,-0.5 1.4,-0.6 1.5,-0.7 1.4,-0.7 1.4,-0.7 1.5,-0.8 1.4,-0.8 1.5,-0.9 1.4,-0.9 1.4,-1 1.5,-1 1.4,-1 1.4,-1.1 1.5,-1.2 1.4,-1.2 m -111.3,49.4 1.4,-1.2 1.5,-1.2 1.4,-1.2 1.4,-1.1 1.5,-1.1 1.4,-1.1 1.5,-1 1.4,-1 1.4,-1 1.5,-0.9 1.4,-0.9 1.5,-0.9 1.4,-0.8 1.4,-0.8 1.5,-0.8 1.4,-0.8 1.4,-0.7 1.5,-0.7 1.4,-0.7 1.5,-0.7 1.4,-0.6 1.4,-0.6 1.5,-0.6 1.4,-0.5 1.4,-0.6 1.5,-0.5 1.4,-0.5 1.5,-0.4 1.4,-0.5 1.4,-0.4 1.5,-0.4 1.4,-0.4 1.5,-0.4 1.4,-0.4 1.4,-0.3 1.5,-0.3 1.4,-0.4 1.4,-0.3 1.5,-0.3 1.4,-0.2 1.5,-0.3 1.4,-0.3 1.4,-0.3 1.5,-0.2 1.4,-0.3 1.4,-0.2 1.5,-0.2 1.4,-0.3 1.5,-0.2 1.4,-0.2 1.4,-0.3 1.5,-0.2 1.4,-0.3 1.5,-0.2 1.4,-0.3 1.4,-0.2 1.5,-0.3 1.4,-0.2 1.4,-0.3 1.5,-0.3 1.4,-0.3 1.5,-0.3 1.4,-0.3 1.4,-0.4 1.5,-0.3 1.4,-0.4 1.4,-0.3 1.5,-0.4 1.4,-0.4 1.5,-0.5 1.4,-0.4 1.4,-0.5 1.5,-0.5 1.4,-0.5 1.5,-0.5 1.4,-0.6 1.4,-0.6 1.5,-0.6 1.4,-0.6 1.4,-0.6 1.5,-0.7 1.3,-0.7 1.5,-0.8 1.4,-0.7 1.4,-0.8 1.5,-0.8 1.4,-0.9 1.4,-0.9 1.5,-0.9 1.4,-0.9 1.5,-1 1.4,-1 1.4,-1 1.5,-1.1 1.4,-1 1.5,-1.2 1.4,-1.1 1.4,-1.2 1.5,-1.2 m -111.3,86.5 1.5,-1.2 1.4,-1.3 1.5,-1.2 1.4,-1.2 1.4,-1.1 1.5,-1.2 1.4,-1.2 1.4,-1.1 1.5,-1.2 1.4,-1.1 1.5,-1.1 1.4,-1.1 1.4,-1.1 1.5,-1 1.4,-1.1 1.5,-1.1 1.4,-1 1.4,-1.1 1.5,-1 1.4,-1 1.4,-1.1 1.5,-1 1.4,-1 1.5,-1 1.4,-1 1.4,-1 1.5,-0.9 1.4,-1 1.4,-1 1.5,-0.9 1.4,-1 1.5,-0.9 1.4,-0.9 1.4,-1 1.5,-0.9 1.4,-0.9 1.5,-0.9 1.4,-0.9 1.4,-0.9 1.5,-1 1.4,-0.9 1.4,-0.8 1.5,-0.9 1.4,-0.9 1.5,-0.9 1.4,-0.9 1.4,-0.9 1.5,-0.9 1.4,-0.9 1.4,-0.9 1.5,-0.9 1.4,-0.8 1.5,-0.9 1.4,-0.9 1.4,-0.9 1.5,-0.9 1.4,-0.9 1.5,-0.9 1.4,-0.9 1.4,-0.9 1.4,-0.9 1.4,-0.9 1.4,-0.9 1.5,-0.9 1.4,-1 1.5,-0.9 1.4,-0.9 1.4,-1 1.5,-0.9 1.4,-1 1.4,-0.9 1.5,-1 1.4,-1 1.5,-1 1.4,-1 1.4,-1 1.5,-1 1.4,-1 1.5,-1 1.4,-1 1.4,-1.1 1.5,-1 1.4,-1.1 1.4,-1 1.5,-1.1 1.4,-1.1 1.5,-1.1 1.4,-1.1 1.4,-1.1 1.5,-1.2 1.4,-1.1 1.4,-1.2 1.5,-1.1 1.4,-1.2 1.5,-1.2 1.4,-1.2 1.4,-1.2 1.5,-1.2 1.4,-1.2 m -111.2,128.8 1.4,-1.2 1.5,-1.3 1.4,-1.2 1.4,-1.3 1.5,-1.3 1.4,-1.3 1.5,-1.3 1.4,-1.3 1.4,-1.3 1.5,-1.4 1.4,-1.3 1.4,-1.4 1.5,-1.3 1.4,-1.4 1.5,-1.4 1.4,-1.4 1.4,-1.4 1.5,-1.4 1.4,-1.4 1.4,-1.5 1.5,-1.4 1.4,-1.5 1.5,-1.4 1.4,-1.5 1.4,-1.5 1.5,-1.4 1.4,-1.5 1.5,-1.5 1.4,-1.5 1.4,-1.5 1.5,-1.6 1.4,-1.4 1.4,-1.5 1.5,-1.6 1.4,-1.5 1.5,-1.5 1.4,-1.6 1.4,-1.5 1.4,-1.6 1.4,-1.6 1.4,-1.5 1.5,-1.6 1.4,-1.6 1.5,-1.5 1.4,-1.6 1.4,-1.6 1.5,-1.6 1.4,-1.5 1.5,-1.6 1.4,-1.6 1.4,-1.6 1.5,-1.6 1.4,-1.5 1.4,-1.6 1.5,-1.6 1.4,-1.6 1.5,-1.5 1.4,-1.6 1.4,-1.6 1.5,-1.5 1.4,-1.6 1.4,-1.5 1.5,-1.6 1.4,-1.5 1.5,-1.6 1.4,-1.5 1.4,-1.5 1.5,-1.6 1.4,-1.5 1.5,-1.5 1.4,-1.5 1.4,-1.5 1.5,-1.5 1.4,-1.5 1.4,-1.4 1.5,-1.5 1.4,-1.5 1.5,-1.4 1.4,-1.5 1.4,-1.4 1.5,-1.4 1.4,-1.4 1.4,-1.4 1.5,-1.4 1.4,-1.4 1.5,-1.4 1.4,-1.4 1.4,-1.3 1.5,-1.4 1.4,-1.3 1.5,-1.3 1.4,-1.3 1.4,-1.3 1.5,-1.3 1.4,-1.3 1.4,-1.3 1.5,-1.2 1.4,-1.3 1.5,-1.2 m -111.3,171.1 1.5,-1.2 1.4,-1.3 1.4,-1.3 1.5,-1.4 1.4,-1.3 1.5,-1.4 1.4,-1.5 1.4,-1.4 1.5,-1.5 1.4,-1.6 1.5,-1.5 1.4,-1.6 1.4,-1.6 1.5,-1.7 1.4,-1.7 1.4,-1.7 1.5,-1.7 1.3,-1.7 1.5,-1.8 1.4,-1.8 1.4,-1.9 1.5,-1.8 1.4,-1.9 1.4,-1.9 1.5,-2 1.4,-1.9 1.5,-2 1.4,-2 1.4,-2 1.5,-2 1.4,-2.1 1.5,-2.1 1.4,-2.1 1.4,-2.1 1.5,-2.1 1.4,-2.1 1.4,-2.2 1.5,-2.1 1.4,-2.2 1.5,-2.1 1.4,-2.2 1.4,-2.2 1.5,-2.2 1.4,-2.2 1.4,-2.2 1.5,-2.2 1.4,-2.2 1.5,-2.3 1.4,-2.2 1.4,-2.2 1.5,-2.2 1.4,-2.3 1.5,-2.2 1.4,-2.2 1.4,-2.2 1.5,-2.3 1.4,-2.2 1.4,-2.2 1.5,-2.1 1.4,-2.2 1.5,-2.2 1.4,-2.1 1.4,-2.2 1.5,-2.1 1.4,-2.1 1.4,-2.2 1.5,-2 1.4,-2.1 1.5,-2.1 1.4,-2 1.4,-2 1.5,-2 1.4,-2 1.5,-1.9 1.4,-2 1.4,-1.9 1.5,-1.9 1.4,-1.8 1.4,-1.9 1.5,-1.8 1.4,-1.8 1.5,-1.7 1.4,-1.7 1.4,-1.8 1.5,-1.6 1.4,-1.7 1.4,-1.6 1.5,-1.6 1.4,-1.5 1.5,-1.6 1.4,-1.5 1.4,-1.4 1.5,-1.5 1.4,-1.4 1.5,-1.4 1.4,-1.3 1.4,-1.3 1.5,-1.3 1.4,-1.2 M 306.4,326 l 1.4,-1.3 1.5,-1.3 1.4,-1.4 1.4,-1.4 1.5,-1.4 1.4,-1.5 1.4,-1.6 1.5,-1.6 1.4,-1.6 1.5,-1.7 1.4,-1.7 1.4,-1.8 1.5,-1.8 1.4,-1.9 1.5,-1.9 1.4,-1.9 1.4,-2 1.5,-2.1 1.4,-2.1 1.4,-2.1 1.5,-2.1 1.4,-2.2 1.5,-2.3 1.4,-2.2 1.4,-2.3 1.5,-2.4 1.4,-2.3 1.4,-2.4 1.5,-2.5 1.4,-2.4 1.5,-2.5 1.4,-2.5 1.4,-2.6 1.5,-2.6 1.4,-2.5 1.5,-2.7 1.4,-2.6 1.4,-2.6 1.5,-2.7 1.4,-2.7 1.4,-2.7 1.5,-2.7 1.4,-2.7 1.5,-2.8 1.4,-2.6 1.4,-2.7 1.5,-2.8 1.4,-2.8 1.4,-2.7 1.5,-2.8 1.4,-2.7 1.5,-2.8 1.4,-2.7 1.4,-2.8 1.5,-2.7 1.4,-2.8 1.5,-2.7 1.4,-2.7 1.4,-2.7 1.5,-2.7 1.4,-2.6 1.4,-2.7 1.5,-2.6 1.4,-2.6 1.5,-2.6 1.4,-2.6 1.4,-2.5 1.5,-2.6 1.4,-2.5 1.4,-2.4 1.5,-2.4 1.4,-2.4 1.5,-2.4 1.4,-2.4 1.4,-2.3 1.5,-2.2 1.4,-2.3 1.5,-2.2 1.4,-2.1 1.4,-2.1 1.5,-2.1 1.4,-2.1 1.4,-1.9 1.5,-2 1.4,-1.9 1.5,-1.9 1.4,-1.8 1.4,-1.8 1.5,-1.7 1.4,-1.7 1.4,-1.6 1.5,-1.6 1.4,-1.6 1.5,-1.5 1.4,-1.4 1.4,-1.4 1.5,-1.4 1.4,-1.3 1.5,-1.2 h 0.01"
           inkscape:connector-curvature="0"
           style="stroke:#000000" />
        <path
           id="path156"
           d="m 337.4,343.8 1.5,-1.3 1.4,-1.3 1.4,-1.4 1.5,-1.4 1.4,-1.5 1.5,-1.6 1.4,-1.6 1.4,-1.7 1.5,-1.7 1.4,-1.8 1.4,-1.8 1.5,-2 1.4,-1.9 1.5,-2 1.4,-2.1 1.4,-2.1 1.5,-2.2 1.4,-2.2 1.5,-2.3 1.4,-2.3 1.4,-2.3 1.5,-2.5 1.4,-2.4 1.4,-2.5 1.5,-2.6 1.4,-2.6 1.5,-2.6 1.4,-2.7 1.4,-2.7 1.5,-2.7 1.4,-2.8 1.4,-2.8 1.5,-2.8 1.4,-2.9 1.5,-2.9 1.4,-2.9 1.4,-3 1.5,-2.9 1.4,-3 1.5,-3 1.4,-3.1 1.4,-3 1.5,-3.1 1.4,-3.1 1.4,-3 1.5,-3.1 1.4,-3.1 1.5,-3 1.4,-3.1 1.4,-3.1 1.5,-3.1 1.4,-3.1 1.4,-3.1 1.5,-3.1 1.4,-3.1 1.5,-3.1 1.4,-3.1 1.4,-3 1.5,-3 1.4,-3 1.5,-3 1.4,-3 1.4,-3 1.5,-2.9 1.4,-2.9 1.4,-2.8 1.5,-2.9 1.4,-2.8 1.5,-2.8 1.4,-2.7 1.4,-2.7 1.5,-2.7 1.4,-2.6 1.4,-2.6 1.5,-2.6 1.4,-2.5 1.5,-2.4 1.4,-2.4 1.4,-2.4 1.5,-2.3 1.4,-2.3 1.5,-2.2 1.4,-2.2 1.4,-2.1 1.5,-2.1 1.4,-2 1.4,-1.9 1.5,-1.9 1.4,-1.9 1.5,-1.8 1.4,-1.7 1.4,-1.7 1.5,-1.6 1.4,-1.5 1.4,-1.5 1.5,-1.5 1.4,-1.4 1.5,-1.3 1.4,-1.2 m -111.3,250.7 1.4,-1.3 1.5,-1.3 1.4,-1.4 1.4,-1.5 1.5,-1.5 1.4,-1.6 1.4,-1.6 1.5,-1.7 1.4,-1.8 1.5,-1.8 1.4,-1.9 1.4,-1.9 1.5,-2 1.4,-2.1 1.4,-2.1 1.5,-2.2 1.4,-2.2 1.5,-2.3 1.4,-2.3 1.4,-2.4 1.5,-2.5 1.4,-2.4 1.5,-2.6 1.4,-2.6 1.4,-2.6 1.5,-2.7 1.4,-2.7 1.4,-2.8 1.5,-2.8 1.4,-2.8 1.5,-2.9 1.4,-2.9 1.4,-2.9 1.5,-3 1.4,-3 1.4,-3 1.5,-3.1 1.4,-3.1 1.5,-3.1 1.4,-3.1 1.4,-3.2 1.5,-3.1 1.4,-3.2 1.5,-3.2 1.4,-3.2 1.4,-3.2 1.5,-3.2 1.4,-3.2 1.4,-3.3 1.5,-3.1 1.4,-3.2 1.5,-3.2 1.4,-3.3 1.4,-3.2 1.5,-3.2 1.4,-3.2 1.4,-3.1 1.5,-3.2 1.4,-3.1 1.5,-3.2 1.4,-3.1 1.4,-3.1 1.5,-3 1.4,-3.1 1.5,-3 1.4,-2.9 1.4,-3 1.5,-2.9 1.4,-2.9 1.4,-2.8 1.5,-2.8 1.4,-2.8 1.5,-2.7 1.4,-2.7 1.4,-2.6 1.5,-2.6 1.4,-2.5 1.4,-2.5 1.5,-2.4 1.4,-2.4 1.5,-2.4 1.4,-2.2 1.4,-2.3 1.5,-2.2 1.4,-2.1 1.5,-2 1.4,-2 1.4,-2 1.5,-1.9 1.4,-1.8 1.4,-1.8 1.5,-1.7 1.4,-1.6 1.5,-1.6 1.4,-1.5 1.4,-1.4 1.5,-1.4 1.4,-1.4 1.4,-1.2 h 0.01"
           inkscape:connector-curvature="0"
           style="stroke:#000000" />
      </g>
    </g>
    <path
       style="stroke-linejoin:miter;marker-end:url(#Arrow1MendHj);stroke-opacity:1;stroke:#ff0000;stroke-linecap:butt;stroke-miterlimit:4;stroke-dasharray:none;stroke-width:2;fill:none"
       d="M 474.7717,550.31637 456.58895,622.0372"
       id="path3505"
       inkscape:connector-curvature="0" />
    <path
       sodipodi:nodetypes="cc"
       style="stroke-linejoin:miter;marker-end:url(#Arrow1MendHJ);stroke-opacity:1;stroke:#ff0000;stroke-linecap:butt;stroke-miterlimit:4;stroke-dasharray:none;stroke-width:2;fill:none"
       d="m 456.80314,625.86356 4.0406,47.47716"
       id="path3505-2"
       inkscape:connector-curvature="0" />
    <path
       sodipodi:nodetypes="cc"
       style="stroke-linejoin:miter;marker-end:url(#Arrow1MendHt);stroke-opacity:1;stroke:#ff0000;stroke-linecap:butt;stroke-miterlimit:4;stroke-dasharray:none;stroke-width:2;fill:none"
       d="m 529.70458,494.51822 -52.52795,52.52793"
       id="path3505-2-3"
       inkscape:connector-curvature="0" />
  </g>
</svg>
