<?xml version="1.0" encoding="UTF-8" standalone="no"?>
<!-- Created with Inkscape (http://www.inkscape.org/) -->

<svg
   xmlns:dc="http://purl.org/dc/elements/1.1/"
   xmlns:cc="http://creativecommons.org/ns#"
   xmlns:rdf="http://www.w3.org/1999/02/22-rdf-syntax-ns#"
   xmlns:svg="http://www.w3.org/2000/svg"
   xmlns="http://www.w3.org/2000/svg"
   xmlns:xlink="http://www.w3.org/1999/xlink"
   xmlns:sodipodi="http://sodipodi.sourceforge.net/DTD/sodipodi-0.dtd"
   xmlns:inkscape="http://www.inkscape.org/namespaces/inkscape"
   width="210mm"
   height="297mm"
   id="svg2"
   version="1.1"
   inkscape:version="0.48.4 r9939"
   sodipodi:docname="新規ドキュメント 1">
  <sodipodi:namedview
     id="base"
     pagecolor="#ffffff"
     bordercolor="#666666"
     borderopacity="1.0"
     inkscape:pageopacity="0.0"
     inkscape:pageshadow="2"
     inkscape:zoom="1.4"
     inkscape:cx="257.32358"
     inkscape:cy="627.00676"
     inkscape:document-units="px"
     inkscape:current-layer="layer1"
     showgrid="false"
     inkscape:window-width="1366"
     inkscape:window-height="746"
     inkscape:window-x="-8"
     inkscape:window-y="-8"
     inkscape:window-maximized="1" />
  <defs
     id="defs4">
    <marker
       style="overflow:visible;"
       id="Arrow1Lend"
       refX="0.0"
       refY="0.0"
       orient="auto"
       inkscape:stockid="Arrow1Lend">
      <path
         transform="scale(0.8) rotate(180) translate(12.5,0)"
         style="fill-rule:evenodd;stroke:#000000;stroke-width:1.0pt;"
         d="M 0.0,0.0 L 5.0,-5.0 L -12.5,0.0 L 5.0,5.0 L 0.0,0.0 z "
         id="path3775" />
    </marker>
  </defs>
  <metadata
     id="metadata7">
    <rdf:RDF>
      <cc:Work
         rdf:about="">
        <dc:format>image/svg+xml</dc:format>
        <dc:type
           rdf:resource="http://purl.org/dc/dcmitype/StillImage" />
        <dc:title></dc:title>
      </cc:Work>
    </rdf:RDF>
  </metadata>
  <g
     id="layer1"
     inkscape:groupmode="layer"
     inkscape:label="レイヤー 1">
    <path
       sodipodi:nodetypes="cc"
       inkscape:connector-curvature="0"
       id="path2985"
       d="m 8.0812208,476.57523 448.5077292,0"
       style="fill:none;stroke:#000000;stroke-width:1px;stroke-linecap:butt;stroke-linejoin:miter;stroke-opacity:1;marker-end:url(#Arrow1Lend)" />
    <path
       inkscape:connector-curvature="0"
       id="path2989"
       d="M 32.324881,469.50416 C 83.450642,405.09903 153.5017,313.51749 247.54391,345.86561 c 73.09192,19.82673 142.83107,57.87246 192.89492,115.50657"
       style="fill:none;stroke:#000000;stroke-width:1px;stroke-linecap:butt;stroke-linejoin:miter;stroke-opacity:1" />
    <g
       id="equation_01"
       style="fill:#000000"
       title="$x$"
       transform="matrix(2.6579819,0,0,2.6579819,256.85458,324.48005)">
      <defs
         id="defs4313">
        <path
           d="M 3.34,-3.02 C 3.4,-3.28 3.63,-4.2 4.33,-4.2 c 0.05,0 0.29,0 0.5,0.13 -0.28,0.05 -0.48,0.3 -0.48,0.54 0,0.16 0.11,0.35 0.38,0.35 0.22,0 0.54,-0.18 0.54,-0.58 0,-0.52 -0.59,-0.66 -0.93,-0.66 -0.58,0 -0.93,0.53 -1.05,0.76 -0.25,-0.66 -0.79,-0.76 -1.08,-0.76 -1.04,0 -1.61,1.29 -1.61,1.54 0,0.1 0.1,0.1 0.12,0.1 0.08,0 0.11,-0.02 0.13,-0.11 0.34,-1.06 1,-1.31 1.34,-1.31 0.19,0 0.54,0.09 0.54,0.67 0,0.31 -0.17,0.98 -0.54,2.38 -0.16,0.62 -0.51,1.04 -0.95,1.04 -0.06,0 -0.29,0 -0.5,-0.13 0.25,-0.05 0.47,-0.26 0.47,-0.54 0,-0.27 -0.22,-0.35 -0.37,-0.35 -0.3,0 -0.55,0.26 -0.55,0.58 0,0.46 0.5,0.66 0.94,0.66 0.66,0 1.02,-0.7 1.05,-0.76 0.12,0.37 0.48,0.76 1.08,0.76 1.03,0 1.6,-1.29 1.6,-1.54 0,-0.1 -0.09,-0.1 -0.12,-0.1 -0.09,0 -0.11,0.04 -0.13,0.11 -0.33,1.07 -1.01,1.31 -1.33,1.31 -0.39,0 -0.55,-0.32 -0.55,-0.66 0,-0.22 0.06,-0.44 0.17,-0.88 l 0.34,-1.37 z"
           id="equation_01_00"
           inkscape:connector-curvature="0" />
      </defs>
      <g
         id="equation_01_g">
        <use
           x="77"
           xlink:href="#equation_01_00"
           y="63"
           id="use4317"
           width="744.09448"
           height="1052.3622" />
      </g>
    </g>
    <g
       title="$y=f(x)$"
       style="fill:#000000"
       id="equation_02"
       transform="matrix(2.0989197,0,0,2.0989197,237.78153,278.24149)">
      <defs
         id="defs4382">
        <path
           id="equation_02_00"
           d="M 3.31,2.4 C 3.31,2.37 3.31,2.35 3.14,2.18 1.89,0.92 1.57,-0.97 1.57,-2.5 c 0,-1.74 0.38,-3.48 1.61,-4.73 0.13,-0.12 0.13,-0.14 0.13,-0.17 0,-0.07 -0.04,-0.1 -0.1,-0.1 -0.1,0 -1,0.68 -1.59,1.95 -0.51,1.1 -0.63,2.21 -0.63,3.05 0,0.78 0.11,1.99 0.66,3.12 0.6,1.23 1.46,1.88 1.56,1.88 0.06,0 0.1,-0.03 0.1,-0.1 z"
           inkscape:connector-curvature="0" />
        <path
           id="equation_02_01"
           d="M 2.89,-2.5 C 2.89,-3.28 2.78,-4.49 2.23,-5.62 1.63,-6.85 0.77,-7.5 0.67,-7.5 c -0.06,0 -0.1,0.04 -0.1,0.1 0,0.03 0,0.05 0.19,0.23 0.98,0.99 1.55,2.58 1.55,4.67 0,1.71 -0.37,3.47 -1.61,4.73 -0.13,0.12 -0.13,0.14 -0.13,0.17 0,0.06 0.04,0.1 0.1,0.1 0.1,0 1,-0.68 1.59,-1.95 0.51,-1.1 0.63,-2.21 0.63,-3.05 z"
           inkscape:connector-curvature="0" />
        <path
           id="equation_02_02"
           d="m 6.87,-3.27 c 0.15,0 0.34,0 0.34,-0.2 0,-0.2 -0.19,-0.2 -0.33,-0.2 H 0.89 c -0.14,0 -0.33,0 -0.33,0.2 0,0.2 0.19,0.2 0.34,0.2 h 5.97 z m 0.01,1.94 c 0.14,0 0.33,0 0.33,-0.2 0,-0.2 -0.19,-0.2 -0.34,-0.2 H 0.9 c -0.15,0 -0.34,0 -0.34,0.2 0,0.2 0.19,0.2 0.33,0.2 h 5.99 z"
           inkscape:connector-curvature="0" />
        <path
           id="equation_02_03"
           d="m 3.67,-4 h 0.86 c 0.2,0 0.3,0 0.3,-0.2 0,-0.11 -0.1,-0.11 -0.27,-0.11 H 3.73 l 0.21,-1.14 c 0.04,-0.21 0.18,-0.92 0.24,-1.04 0.09,-0.19 0.26,-0.34 0.47,-0.34 0.04,0 0.3,0 0.49,0.18 -0.44,0.04 -0.54,0.39 -0.54,0.54 0,0.23 0.18,0.35 0.37,0.35 0.26,0 0.55,-0.22 0.55,-0.6 0,-0.46 -0.46,-0.69 -0.87,-0.69 -0.34,0 -0.97,0.18 -1.27,1.17 -0.06,0.21 -0.09,0.31 -0.33,1.57 H 2.36 c -0.19,0 -0.3,0 -0.3,0.19 C 2.06,-4 2.15,-4 2.34,-4 H 3 L 2.25,-0.05 C 2.07,0.92 1.9,1.83 1.38,1.83 1.34,1.83 1.09,1.83 0.9,1.65 1.36,1.62 1.45,1.26 1.45,1.11 1.45,0.88 1.27,0.76 1.08,0.76 c -0.26,0 -0.55,0.22 -0.55,0.6 0,0.45 0.44,0.69 0.85,0.69 0.55,0 0.95,-0.59 1.13,-0.97 0.32,-0.63 0.55,-1.84 0.56,-1.91 L 3.67,-4 z"
           inkscape:connector-curvature="0" />
        <path
           id="equation_02_04"
           d="M 3.34,-3.02 C 3.4,-3.28 3.63,-4.2 4.33,-4.2 c 0.05,0 0.29,0 0.5,0.13 -0.28,0.05 -0.48,0.3 -0.48,0.54 0,0.16 0.11,0.35 0.38,0.35 0.22,0 0.54,-0.18 0.54,-0.58 0,-0.52 -0.59,-0.66 -0.93,-0.66 -0.58,0 -0.93,0.53 -1.05,0.76 -0.25,-0.66 -0.79,-0.76 -1.08,-0.76 -1.04,0 -1.61,1.29 -1.61,1.54 0,0.1 0.1,0.1 0.12,0.1 0.08,0 0.11,-0.02 0.13,-0.11 0.34,-1.06 1,-1.31 1.34,-1.31 0.19,0 0.54,0.09 0.54,0.67 0,0.31 -0.17,0.98 -0.54,2.38 -0.16,0.62 -0.51,1.04 -0.95,1.04 -0.06,0 -0.29,0 -0.5,-0.13 0.25,-0.05 0.47,-0.26 0.47,-0.54 0,-0.27 -0.22,-0.35 -0.37,-0.35 -0.3,0 -0.55,0.26 -0.55,0.58 0,0.46 0.5,0.66 0.94,0.66 0.66,0 1.02,-0.7 1.05,-0.76 0.12,0.37 0.48,0.76 1.08,0.76 1.03,0 1.6,-1.29 1.6,-1.54 0,-0.1 -0.09,-0.1 -0.12,-0.1 -0.09,0 -0.11,0.04 -0.13,0.11 -0.33,1.07 -1.01,1.31 -1.33,1.31 -0.39,0 -0.55,-0.32 -0.55,-0.66 0,-0.22 0.06,-0.44 0.17,-0.88 l 0.34,-1.37 z"
           inkscape:connector-curvature="0" />
        <path
           id="equation_02_05"
           d="M 4.86,-3.81 C 4.9,-3.95 4.9,-3.97 4.9,-4.04 c 0,-0.18 -0.14,-0.27 -0.29,-0.27 -0.1,0 -0.26,0.06 -0.35,0.21 -0.02,0.05 -0.1,0.36 -0.14,0.54 -0.07,0.26 -0.14,0.53 -0.2,0.8 l -0.45,1.8 C 3.43,-0.81 3,-0.11 2.34,-0.11 c -0.51,0 -0.62,-0.44 -0.62,-0.81 0,-0.46 0.17,-1.08 0.51,-1.96 0.16,-0.41 0.2,-0.52 0.2,-0.72 0,-0.45 -0.32,-0.82 -0.82,-0.82 -0.95,0 -1.32,1.45 -1.32,1.54 0,0.1 0.1,0.1 0.12,0.1 0.1,0 0.11,-0.02 0.16,-0.18 0.27,-0.94 0.67,-1.24 1.01,-1.24 0.08,0 0.25,0 0.25,0.32 0,0.25 -0.1,0.51 -0.17,0.7 -0.4,1.06 -0.58,1.63 -0.58,2.1 0,0.89 0.63,1.19 1.22,1.19 0.39,0 0.73,-0.17 1.01,-0.45 C 3.18,0.18 3.06,0.67 2.66,1.2 2.4,1.54 2.02,1.83 1.56,1.83 1.42,1.83 0.97,1.8 0.8,1.41 c 0.16,0 0.29,0 0.43,-0.12 C 1.33,1.2 1.43,1.07 1.43,0.88 1.43,0.57 1.16,0.53 1.06,0.53 0.83,0.53 0.5,0.69 0.5,1.18 c 0,0.5 0.44,0.87 1.06,0.87 1.03,0 2.06,-0.91 2.34,-2.04 l 0.96,-3.82 z"
           inkscape:connector-curvature="0" />
      </defs>
      <g
         id="equation_02_g">
        <use
           id="use4391"
           y="63"
           xlink:href="#equation_02_05"
           x="77"
           width="744.09448"
           height="1052.3622" />
        <use
           id="use4393"
           y="63"
           xlink:href="#equation_02_02"
           x="85.039299"
           width="744.09448"
           height="1052.3622" />
        <use
           id="use4395"
           y="63"
           xlink:href="#equation_02_03"
           x="95.594803"
           width="744.09448"
           height="1052.3622" />
        <use
           id="use4397"
           y="63"
           xlink:href="#equation_02_00"
           x="101.567"
           width="744.09448"
           height="1052.3622" />
        <use
           id="use4399"
           y="63"
           xlink:href="#equation_02_04"
           x="105.456"
           width="744.09448"
           height="1052.3622" />
        <use
           id="use4401"
           y="63"
           xlink:href="#equation_02_01"
           x="111.171"
           width="744.09448"
           height="1052.3622" />
      </g>
    </g>
    <path
       style="fill:none;stroke:#000000;stroke-width:1;stroke-linecap:butt;stroke-linejoin:miter;stroke-opacity:1;stroke-miterlimit:4;stroke-dasharray:4,4;stroke-dashoffset:0"
       d="m 208.57143,338.79075 0,137.85715"
       id="path4448"
       inkscape:connector-curvature="0" />
    <g
       id="g4454"
       transform="translate(-162.85714,16.428571)">
      <g
         transform="matrix(2.0989197,0,0,2.0989197,47.341533,181.76081)"
         id="equation_00"
         style="fill:#000000"
         title="$f''(x) &lt; 0$">
        <defs
           id="defs4234">
          <path
             inkscape:connector-curvature="0"
             d="m 6.75,-4.98 c 0.12,-0.06 0.19,-0.11 0.19,-0.22 0,-0.11 -0.09,-0.2 -0.2,-0.2 -0.03,0 -0.05,0 -0.18,0.07 l -5.54,2.61 c -0.11,0.05 -0.19,0.1 -0.19,0.22 0,0.12 0.08,0.17 0.19,0.22 L 6.56,0.33 C 6.69,0.4 6.71,0.4 6.74,0.4 6.85,0.4 6.94,0.31 6.94,0.2 6.94,0.09 6.87,0.04 6.75,-0.02 L 1.5,-2.5 6.75,-4.98 z"
             id="equation_00_00" />
          <path
             inkscape:connector-curvature="0"
             d="m 3.67,-4 h 0.86 c 0.2,0 0.3,0 0.3,-0.2 0,-0.11 -0.1,-0.11 -0.27,-0.11 H 3.73 l 0.21,-1.14 c 0.04,-0.21 0.18,-0.92 0.24,-1.04 0.09,-0.19 0.26,-0.34 0.47,-0.34 0.04,0 0.3,0 0.49,0.18 -0.44,0.04 -0.54,0.39 -0.54,0.54 0,0.23 0.18,0.35 0.37,0.35 0.26,0 0.55,-0.22 0.55,-0.6 0,-0.46 -0.46,-0.69 -0.87,-0.69 -0.34,0 -0.97,0.18 -1.27,1.17 -0.06,0.21 -0.09,0.31 -0.33,1.57 H 2.36 c -0.19,0 -0.3,0 -0.3,0.19 C 2.06,-4 2.15,-4 2.34,-4 H 3 L 2.25,-0.05 C 2.07,0.92 1.9,1.83 1.38,1.83 1.34,1.83 1.09,1.83 0.9,1.65 1.36,1.62 1.45,1.26 1.45,1.11 1.45,0.88 1.27,0.76 1.08,0.76 c -0.26,0 -0.55,0.22 -0.55,0.6 0,0.45 0.44,0.69 0.85,0.69 0.55,0 0.95,-0.59 1.13,-0.97 0.32,-0.63 0.55,-1.84 0.56,-1.91 L 3.67,-4 z"
             id="equation_00_01" />
          <path
             inkscape:connector-curvature="0"
             d="M 3.34,-3.02 C 3.4,-3.28 3.63,-4.2 4.33,-4.2 c 0.05,0 0.29,0 0.5,0.13 -0.28,0.05 -0.48,0.3 -0.48,0.54 0,0.16 0.11,0.35 0.38,0.35 0.22,0 0.54,-0.18 0.54,-0.58 0,-0.52 -0.59,-0.66 -0.93,-0.66 -0.58,0 -0.93,0.53 -1.05,0.76 -0.25,-0.66 -0.79,-0.76 -1.08,-0.76 -1.04,0 -1.61,1.29 -1.61,1.54 0,0.1 0.1,0.1 0.12,0.1 0.08,0 0.11,-0.02 0.13,-0.11 0.34,-1.06 1,-1.31 1.34,-1.31 0.19,0 0.54,0.09 0.54,0.67 0,0.31 -0.17,0.98 -0.54,2.38 -0.16,0.62 -0.51,1.04 -0.95,1.04 -0.06,0 -0.29,0 -0.5,-0.13 0.25,-0.05 0.47,-0.26 0.47,-0.54 0,-0.27 -0.22,-0.35 -0.37,-0.35 -0.3,0 -0.55,0.26 -0.55,0.58 0,0.46 0.5,0.66 0.94,0.66 0.66,0 1.02,-0.7 1.05,-0.76 0.12,0.37 0.48,0.76 1.08,0.76 1.03,0 1.6,-1.29 1.6,-1.54 0,-0.1 -0.09,-0.1 -0.12,-0.1 -0.09,0 -0.11,0.04 -0.13,0.11 -0.33,1.07 -1.01,1.31 -1.33,1.31 -0.39,0 -0.55,-0.32 -0.55,-0.66 0,-0.22 0.06,-0.44 0.17,-0.88 l 0.34,-1.37 z"
             id="equation_00_02" />
          <path
             inkscape:connector-curvature="0"
             d="M 3.31,2.4 C 3.31,2.37 3.31,2.35 3.14,2.18 1.89,0.92 1.57,-0.97 1.57,-2.5 c 0,-1.74 0.38,-3.48 1.61,-4.73 0.13,-0.12 0.13,-0.14 0.13,-0.17 0,-0.07 -0.04,-0.1 -0.1,-0.1 -0.1,0 -1,0.68 -1.59,1.95 -0.51,1.1 -0.63,2.21 -0.63,3.05 0,0.78 0.11,1.99 0.66,3.12 0.6,1.23 1.46,1.88 1.56,1.88 0.06,0 0.1,-0.03 0.1,-0.1 z"
             id="equation_00_03" />
          <path
             inkscape:connector-curvature="0"
             d="M 2.89,-2.5 C 2.89,-3.28 2.78,-4.49 2.23,-5.62 1.63,-6.85 0.77,-7.5 0.67,-7.5 c -0.06,0 -0.1,0.04 -0.1,0.1 0,0.03 0,0.05 0.19,0.23 0.98,0.99 1.55,2.58 1.55,4.67 0,1.71 -0.37,3.47 -1.61,4.73 -0.13,0.12 -0.13,0.14 -0.13,0.17 0,0.06 0.04,0.1 0.1,0.1 0.1,0 1,-0.68 1.59,-1.95 0.51,-1.1 0.63,-2.21 0.63,-3.05 z"
             id="equation_00_04" />
          <path
             inkscape:connector-curvature="0"
             d="M 4.6,-3.2 C 4.6,-4 4.55,-4.8 4.2,-5.54 3.74,-6.5 2.92,-6.66 2.5,-6.66 1.9,-6.66 1.17,-6.4 0.76,-5.47 0.44,-4.78 0.39,-4 0.39,-3.2 c 0,0.75 0.04,1.65 0.45,2.41 C 1.27,0.02 2,0.22 2.49,0.22 3.03,0.22 3.79,0.01 4.23,-0.94 4.55,-1.63 4.6,-2.41 4.6,-3.2 z M 2.49,0 C 2.1,0 1.51,-0.25 1.33,-1.21 1.22,-1.81 1.22,-2.73 1.22,-3.32 c 0,-0.64 0,-1.3 0.08,-1.84 0.19,-1.19 0.94,-1.28 1.19,-1.28 0.33,0 0.99,0.18 1.18,1.17 0.1,0.56 0.1,1.32 0.1,1.95 0,0.75 0,1.43 -0.11,2.07 C 3.51,-0.3 2.94,0 2.49,0 z"
             id="equation_00_05" />
          <path
             inkscape:connector-curvature="0"
             d="m 2.03,-3.304 c 0.056,-0.119 0.063,-0.175 0.063,-0.224 0,-0.217 -0.196,-0.385 -0.413,-0.385 -0.266,0 -0.35,0.217 -0.385,0.329 l -0.924,3.031 c -0.007,0.014 -0.035,0.105 -0.035,0.112 0,0.084 0.217,0.154 0.273,0.154 0.049,0 0.056,-0.014 0.105,-0.119 L 2.03,-3.304 z"
             id="equation_00_06" />
        </defs>
        <g
           id="equation_00_g">
          <use
             height="1052.3622"
             width="744.09448"
             x="77"
             xlink:href="#equation_00_01"
             y="63"
             id="use4244" />
          <use
             height="1052.3622"
             width="744.09448"
             x="82.972298"
             xlink:href="#equation_00_06"
             y="59.371101"
             id="use4246" />
          <use
             height="1052.3622"
             width="744.09448"
             x="85.277802"
             xlink:href="#equation_00_06"
             y="59.371101"
             id="use4248" />
          <use
             height="1052.3622"
             width="744.09448"
             x="88.083397"
             xlink:href="#equation_00_03"
             y="63"
             id="use4250" />
          <use
             height="1052.3622"
             width="744.09448"
             x="91.972298"
             xlink:href="#equation_00_02"
             y="63"
             id="use4252" />
          <use
             height="1052.3622"
             width="744.09448"
             x="97.687599"
             xlink:href="#equation_00_04"
             y="63"
             id="use4254" />
          <use
             height="1052.3622"
             width="744.09448"
             x="104.354"
             xlink:href="#equation_00_00"
             y="63"
             id="use4256" />
          <use
             height="1052.3622"
             width="744.09448"
             x="114.91"
             xlink:href="#equation_00_05"
             y="63"
             id="use4258" />
        </g>
      </g>
      <text
         sodipodi:linespacing="125%"
         id="text4450"
         y="315.71194"
         x="301.71796"
         style="font-size:19.50738907px;font-style:normal;font-variant:normal;font-weight:normal;font-stretch:normal;text-align:start;line-height:125%;letter-spacing:0px;word-spacing:0px;writing-mode:lr-tb;text-anchor:start;fill:#000000;fill-opacity:1;stroke:none;font-family:HGGothicM;-inkscape-font-specification:HGGothicM"
         xml:space="preserve"><tspan
           y="315.71194"
           x="301.71796"
           id="tspan4452"
           sodipodi:role="line">なら上に凸なので極大値が１つ</tspan></text>
    </g>
  </g>
</svg>
