<?xml version="1.0" encoding="UTF-8" standalone="no"?>
<svg
   xmlns:dc="http://purl.org/dc/elements/1.1/"
   xmlns:cc="http://creativecommons.org/ns#"
   xmlns:rdf="http://www.w3.org/1999/02/22-rdf-syntax-ns#"
   xmlns:svg="http://www.w3.org/2000/svg"
   xmlns="http://www.w3.org/2000/svg"
   xmlns:xlink="http://www.w3.org/1999/xlink"
   xmlns:sodipodi="http://sodipodi.sourceforge.net/DTD/sodipodi-0.dtd"
   xmlns:inkscape="http://www.inkscape.org/namespaces/inkscape"
   width="600"
   height="480"
   viewBox="0 0 600 480"
   id="svg2"
   version="1.1"
   inkscape:version="0.48.4 r9939"
   sodipodi:docname="local_optimal.svg">
  <sodipodi:namedview
     pagecolor="#ffffff"
     bordercolor="#666666"
     borderopacity="1"
     objecttolerance="10"
     gridtolerance="10"
     guidetolerance="10"
     inkscape:pageopacity="0"
     inkscape:pageshadow="2"
     inkscape:window-width="1366"
     inkscape:window-height="746"
     id="namedview168"
     showgrid="false"
     inkscape:zoom="1.6870313"
     inkscape:cx="305.89893"
     inkscape:cy="327.03903"
     inkscape:window-x="-8"
     inkscape:window-y="-8"
     inkscape:window-maximized="1"
     inkscape:current-layer="svg2" />
  <metadata
     id="metadata172">
    <rdf:RDF>
      <cc:Work
         rdf:about="">
        <dc:format>image/svg+xml</dc:format>
        <dc:type
           rdf:resource="http://purl.org/dc/dcmitype/StillImage" />
        <dc:title>Gnuplot</dc:title>
      </cc:Work>
    </rdf:RDF>
  </metadata>
  <defs
     id="defs170">
    <marker
       style="overflow:visible;"
       id="Arrow1Mend"
       refX="0.0"
       refY="0.0"
       orient="auto"
       inkscape:stockid="Arrow1Mend">
      <path
         transform="scale(0.4) rotate(180) translate(10,0)"
         style="fill-rule:evenodd;stroke:#000000;stroke-width:1.0pt;"
         d="M 0.0,0.0 L 5.0,-5.0 L -12.5,0.0 L 5.0,5.0 L 0.0,0.0 z "
         id="path4087" />
    </marker>
    <defs
       id="defs11">
      <circle
         id="gpDot"
         r="0.5"
         stroke-width="0.5" />
      <path
         id="gpPt0"
         stroke-width="0.222"
         stroke="currentColor"
         d="M-1,0 h2 M0,-1 v2" />
      <path
         id="gpPt1"
         stroke-width="0.222"
         stroke="currentColor"
         d="M-1,-1 L1,1 M1,-1 L-1,1" />
      <path
         id="gpPt2"
         stroke-width="0.222"
         stroke="currentColor"
         d="M-1,0 L1,0 M0,-1 L0,1 M-1,-1 L1,1 M-1,1 L1,-1" />
      <rect
         id="gpPt3"
         stroke-width="0.222"
         stroke="currentColor"
         x="-1"
         y="-1"
         width="2"
         height="2" />
      <rect
         id="gpPt4"
         stroke-width="0.222"
         stroke="currentColor"
         fill="currentColor"
         x="-1"
         y="-1"
         width="2"
         height="2" />
      <circle
         id="gpPt5"
         stroke-width="0.222"
         stroke="currentColor"
         cx="0"
         cy="0"
         r="1" />
      <use
         xlink:href="#gpPt5"
         id="gpPt6"
         fill="currentColor"
         stroke="none" />
      <path
         id="gpPt7"
         stroke-width="0.222"
         stroke="currentColor"
         d="M0,-1.33 L-1.33,0.67 L1.33,0.67 z" />
      <use
         xlink:href="#gpPt7"
         id="gpPt8"
         fill="currentColor"
         stroke="none" />
      <use
         xlink:href="#gpPt7"
         id="gpPt9"
         stroke="currentColor"
         transform="rotate(180)" />
      <use
         xlink:href="#gpPt9"
         id="gpPt10"
         fill="currentColor"
         stroke="none" />
      <use
         xlink:href="#gpPt3"
         id="gpPt11"
         stroke="currentColor"
         transform="rotate(45)" />
      <use
         xlink:href="#gpPt11"
         id="gpPt12"
         fill="currentColor"
         stroke="none" />
    </defs>
    <marker
       style="overflow:visible;"
       id="Arrow1Mendc"
       refX="0.0"
       refY="0.0"
       orient="auto"
       inkscape:stockid="Arrow1Mendc">
      <path
         transform="scale(0.4) rotate(180) translate(10,0)"
         style="stroke:#0000ff;stroke-width:1.0pt;fill:#0000ff;fill-rule:evenodd"
         d="M 0.0,0.0 L 5.0,-5.0 L -12.5,0.0 L 5.0,5.0 L 0.0,0.0 z "
         id="path4539" />
    </marker>
  </defs>
  <title
     id="title4">Gnuplot</title>
  <desc
     id="desc6">Produced by GNUPLOT 4.6 patchlevel 0 </desc>
  <g
     id="g148"
     style="color:#ff0000;fill:none;stroke:currentColor;stroke-width:1;stroke-linecap:butt;stroke-linejoin:miter">
    <path
       inkscape:connector-curvature="0"
       id="path150"
       d="m 427.1,242 0.6,1.2 0.5,1.3 0.6,1.1 0.5,1.2 0.6,1.1 0.5,1 0.6,1 0.5,0.9 0.6,0.8 0.5,0.8 0.6,0.7 0.5,0.6 0.6,0.5 0.5,0.5 0.6,0.4 0.5,0.3 0.6,0.2 0.5,0.1 0.6,0 0.5,0 0.6,-0.2 0.5,-0.3 0.6,-0.3 0.5,-0.4 0.6,-0.6 0.5,-0.6 0.6,-0.7 0.5,-0.9 0.6,-0.9 0.5,-1 0.6,-1.1 0.5,-1.2 0.6,-1.3 0.5,-1.4 0.6,-1.4 0.5,-1.6 0.6,-1.6 0.5,-1.7 0.6,-1.8 0.5,-1.8 0.6,-1.9 0.5,-2 0.6,-2 0.5,-2.1 0.6,-2.2 0.5,-2.2 0.6,-2.3 0.5,-2.3 0.6,-2.4 0.5,-2.4 0.6,-2.4 0.5,-2.5 0.6,-2.5 0.5,-2.5 0.6,-2.6 0.5,-2.5 0.6,-2.6 0.5,-2.6 0.6,-2.6 0.5,-2.6 0.6,-2.6 0.5,-2.6 0.6,-2.6 0.5,-2.5 0.6,-2.6 0.5,-2.5 0.6,-2.6 0.5,-2.5 0.6,-2.4 0.5,-2.5 0.6,-2.4 0.5,-2.4 0.6,-2.4 0.5,-2.3 0.6,-2.3 0.5,-2.3 0.6,-2.2 0.5,-2.2 0.6,-2.1 0.5,-2.1 0.6,-2.1 0.5,-2 0.6,-2 0.5,-1.9 0.6,-1.9 0.5,-1.9 0.6,-1.8 0.5,-1.7 0.6,-1.8 0.5,-1.7 0.6,-1.6 0.5,-1.6 0.6,-1.5 0.5,-1.6 0.6,-1.4 0.5,-1.5 0.6,-1.4 0.5,-1.4 0.6,-1.3 m -70.7,143 0.5,1.4 0.6,1.4 0.5,1.4 0.6,1.3 0.5,1.2 0.6,1.2 0.5,1.1 0.6,1.1 0.5,1 0.6,0.9 0.5,0.8 0.6,0.7 0.5,0.7 0.6,0.5 0.5,0.5 0.6,0.4 0.5,0.3 0.6,0.1 0.5,0.1 0.6,0 0.5,-0.1 0.6,-0.2 0.5,-0.3 0.6,-0.5 0.5,-0.5 0.6,-0.6 0.5,-0.8 0.6,-0.8 0.5,-1 0.6,-1 0.5,-1.2 0.6,-1.3 0.5,-1.3 0.6,-1.5 0.5,-1.5 0.6,-1.7 0.5,-1.7 0.6,-1.8 0.5,-1.9 0.6,-2 0.5,-2 0.6,-2.2 0.5,-2.2 0.6,-2.3 0.5,-2.3 0.6,-2.4 0.5,-2.3 0.6,-2.5 0.5,-2.6 0.6,-2.6 0.5,-2.6 0.6,-2.7 0.5,-2.7 0.6,-2.7 0.5,-2.7 0.6,-2.8 0.5,-2.8 0.6,-2.7 0.5,-2.8 0.6,-2.8 0.5,-2.8 0.6,-2.8 0.5,-2.8 0.6,-2.8 0.5,-2.7 0.6,-2.8 0.5,-2.7 0.6,-2.7 0.5,-2.6 0.6,-2.7 0.5,-2.6 0.6,-2.6 0.5,-2.5 0.6,-2.5 0.5,-2.5 0.6,-2.4 0.5,-2.4 0.6,-2.3 0.5,-2.3 0.6,-2.3 0.5,-2.2 0.6,-2.2 0.5,-2.1 0.6,-2.1 0.5,-2 0.6,-2 0.5,-1.9 0.6,-1.9 0.5,-1.8 0.6,-1.8 0.5,-1.8 0.6,-1.7 0.5,-1.6 0.6,-1.6 0.5,-1.6 0.6,-1.5 0.5,-1.5 0.6,-1.5 0.5,-1.4 m -70.7,149.3 0.6,1.6 0.5,1.5 0.6,1.5 0.5,1.5 0.6,1.3 0.5,1.3 0.6,1.3 0.5,1.2 0.6,1 0.5,1.1 0.6,0.9 0.5,0.8 0.6,0.8 0.5,0.6 0.6,0.5 0.5,0.5 0.6,0.3 0.5,0.3 0.6,0.1 0.5,0 0.6,0 0.5,-0.2 0.6,-0.3 0.5,-0.5 0.6,-0.5 0.5,-0.6 0.6,-0.8 0.5,-0.9 0.6,-0.9 0.5,-1.1 0.6,-1.2 0.5,-1.4 0.6,-1.4 0.5,-1.5 0.6,-1.6 0.5,-1.7 0.6,-1.8 0.5,-2 0.6,-2 0.5,-2 0.6,-2.2 0.5,-2.3 0.6,-2.3 0.5,-2.4 0.6,-2.5 0.5,-2.5 0.6,-2.6 0.5,-2.6 0.6,-2.7 0.5,-2.7 0.6,-2.7 0.5,-2.9 0.6,-2.8 0.5,-2.9 0.6,-2.9 0.5,-2.9 0.6,-3 0.5,-2.9 0.6,-3 0.5,-2.9 0.6,-3 0.5,-3 0.6,-2.9 0.5,-2.9 0.6,-3 0.5,-2.9 0.6,-2.8 0.5,-2.9 0.6,-2.8 0.5,-2.8 0.6,-2.8 0.5,-2.7 0.6,-2.7 0.5,-2.7 0.6,-2.6 0.5,-2.5 0.6,-2.6 0.5,-2.4 0.6,-2.5 0.5,-2.4 0.6,-2.3 0.5,-2.3 0.6,-2.2 0.5,-2.2 0.6,-2.1 0.5,-2.1 0.6,-2 0.5,-2 0.6,-2 0.5,-1.8 0.6,-1.9 0.5,-1.8 0.6,-1.7 0.5,-1.7 0.6,-1.6 0.5,-1.6 0.6,-1.6 0.5,-1.5 0.6,-1.5 m -70.7,153.8 0.5,1.7 0.6,1.6 0.5,1.6 0.6,1.6 0.5,1.5 0.6,1.4 0.5,1.3 0.6,1.3 0.5,1.1 0.6,1.1 0.5,1 0.6,0.9 0.5,0.8 0.6,0.7 0.5,0.7 0.6,0.5 0.5,0.3 0.6,0.3 0.5,0.2 0.6,0.1 0.5,-0.1 0.6,-0.2 0.5,-0.3 0.6,-0.4 0.5,-0.5 0.6,-0.7 0.5,-0.7 0.6,-0.9 0.5,-1 0.6,-1.1 0.5,-1.3 0.6,-1.3 0.5,-1.5 0.6,-1.6 0.5,-1.6 0.6,-1.8 0.5,-1.9 0.6,-2 0.5,-2 0.6,-2.2 0.5,-2.3 0.6,-2.3 0.5,-2.4 0.6,-2.5 0.5,-2.6 0.6,-2.6 0.5,-2.7 0.6,-2.8 0.5,-2.8 0.6,-2.8 0.5,-2.8 0.6,-2.9 0.5,-3 0.6,-3 0.5,-3 0.6,-3.1 0.5,-3 0.6,-3.1 0.5,-3.1 0.6,-3.1 0.5,-3.1 0.6,-3.1 0.5,-3 0.6,-3.1 0.5,-3 0.6,-3 0.5,-3 0.6,-3 0.5,-3 0.6,-2.9 0.5,-2.8 0.6,-2.9 0.5,-2.8 0.6,-2.7 0.5,-2.8 0.6,-2.6 0.5,-2.6 0.6,-2.6 0.5,-2.6 0.6,-2.4 0.5,-2.5 0.6,-2.3 0.5,-2.3 0.6,-2.3 0.5,-2.2 0.6,-2.2 0.5,-2.1 0.6,-2.1 0.5,-2 0.6,-1.9 0.5,-1.9 0.6,-1.9 0.5,-1.8 0.6,-1.7 0.5,-1.7 0.6,-1.7 0.5,-1.6 0.6,-1.5 0.5,-1.5 m -70.7,156.2 0.6,1.7 0.5,1.7 0.6,1.7 0.5,1.6 0.6,1.5 0.5,1.5 0.6,1.4 0.5,1.3 0.6,1.2 0.5,1.1 0.6,1.1 0.5,0.9 0.6,0.9 0.5,0.7 0.6,0.7 0.5,0.5 0.6,0.4 0.5,0.3 0.6,0.2 0.5,0.1 0.6,0 0.5,-0.2 0.6,-0.3 0.5,-0.4 0.6,-0.5 0.5,-0.7 0.6,-0.8 0.5,-0.9 0.6,-1 0.5,-1.1 0.6,-1.3 0.5,-1.3 0.6,-1.5 0.5,-1.6 0.6,-1.7 0.5,-1.8 0.6,-2 0.5,-2 0.6,-2.1 0.5,-2.2 0.6,-2.3 0.5,-2.4 0.6,-2.5 0.5,-2.5 0.6,-2.6 0.5,-2.7 0.6,-2.8 0.5,-2.8 0.6,-2.9 0.5,-2.9 0.6,-2.9 0.5,-2.9 0.6,-3.1 0.5,-3 0.6,-3.1 0.5,-3.2 0.6,-3.1 0.5,-3.1 0.6,-3.2 0.5,-3.1 0.6,-3.2 0.5,-3.1 0.6,-3.2 0.5,-3.1 0.6,-3.1 0.5,-3.1 0.6,-3.1 0.5,-3 0.6,-3 0.5,-3 0.6,-2.9 0.5,-3 0.6,-2.8 0.5,-2.8 0.6,-2.8 0.5,-2.7 0.6,-2.7 0.5,-2.7 0.6,-2.5 0.5,-2.6 0.6,-2.4 0.5,-2.5 0.6,-2.3 0.5,-2.4 0.6,-2.2 0.5,-2.2 0.6,-2.2 0.5,-2.1 0.6,-2 0.5,-2 0.6,-1.9 0.5,-1.9 0.6,-1.9 0.5,-1.8 0.6,-1.7 0.5,-1.7 0.6,-1.6 0.5,-1.6 0.6,-1.5 m -70.7,156.4 0.5,1.8 0.6,1.7 0.5,1.7 0.6,1.6 0.5,1.5 0.6,1.5 0.5,1.4 0.6,1.3 0.5,1.3 0.6,1.1 0.5,1 0.6,1 0.5,0.9 0.6,0.7 0.5,0.7 0.6,0.5 0.5,0.4 0.6,0.3 0.5,0.2 0.6,0.1 0.5,0 0.6,-0.2 0.5,-0.3 0.6,-0.4 0.5,-0.5 0.6,-0.7 0.5,-0.8 0.6,-0.8 0.5,-1.1 0.6,-1.1 0.5,-1.3 0.6,-1.3 0.5,-1.5 0.6,-1.6 0.5,-1.7 0.6,-1.9 0.5,-1.9 0.6,-2 0.5,-2.1 0.6,-2.3 0.5,-2.3 0.6,-2.4 0.5,-2.5 0.6,-2.5 0.5,-2.6 0.6,-2.7 0.5,-2.8 0.6,-2.8 0.5,-2.9 0.6,-2.9 0.5,-3 0.6,-2.9 0.5,-3.1 0.6,-3.1 0.5,-3.1 0.6,-3.1 0.5,-3.2 0.6,-3.1 0.5,-3.2 0.6,-3.2 0.5,-3.1 0.6,-3.2 0.5,-3.1 0.6,-3.2 0.5,-3.1 0.6,-3.1 0.5,-3.1 0.6,-3 0.5,-3.1 0.6,-3 0.5,-2.9 0.6,-2.9 0.5,-2.9 0.6,-2.8 0.5,-2.8 0.6,-2.8 0.5,-2.7 0.6,-2.6 0.5,-2.6 0.6,-2.5 0.5,-2.5 0.6,-2.5 0.5,-2.3 0.6,-2.4 0.5,-2.2 0.6,-2.3 0.5,-2.1 0.6,-2.1 0.5,-2.1 0.6,-2 0.5,-1.9 0.6,-1.9 0.5,-1.9 0.6,-1.7 0.5,-1.8 0.6,-1.7 0.5,-1.6 0.6,-1.6 0.5,-1.6 h 0.01" />
    <path
       inkscape:connector-curvature="0"
       id="path152"
       d="m 329.6,262.8 0.6,1.8 0.5,1.7 0.6,1.6 0.5,1.6 0.6,1.5 0.5,1.4 0.6,1.4 0.5,1.3 0.6,1.2 0.5,1.1 0.6,1 0.5,1 0.6,0.8 0.5,0.7 0.6,0.7 0.5,0.5 0.6,0.4 0.5,0.3 0.6,0.2 0.5,0 0.6,0 0.5,-0.2 0.6,-0.3 0.5,-0.4 0.6,-0.5 0.5,-0.7 0.6,-0.7 0.5,-0.9 0.6,-1 0.5,-1.2 0.6,-1.2 0.5,-1.4 0.6,-1.5 0.5,-1.5 0.6,-1.7 0.5,-1.8 0.6,-1.9 0.5,-2 0.6,-2.1 0.5,-2.2 0.6,-2.3 0.5,-2.4 0.6,-2.4 0.5,-2.6 0.6,-2.6 0.5,-2.6 0.6,-2.7 0.5,-2.8 0.6,-2.9 0.5,-2.9 0.6,-2.8 0.5,-3 0.6,-3 0.5,-3 0.6,-3.1 0.5,-3.1 0.6,-3.1 0.5,-3.1 0.6,-3.1 0.5,-3.1 0.6,-3.2 0.5,-3.1 0.6,-3.1 0.5,-3.1 0.6,-3.1 0.5,-3 0.6,-3.1 0.5,-3 0.6,-3 0.5,-2.9 0.6,-2.9 0.5,-2.9 0.6,-2.8 0.5,-2.8 0.6,-2.8 0.5,-2.7 0.6,-2.7 0.5,-2.6 0.6,-2.5 0.5,-2.5 0.6,-2.5 0.5,-2.4 0.6,-2.4 0.5,-2.3 0.6,-2.2 0.5,-2.2 0.6,-2.1 0.5,-2.1 0.6,-2 0.5,-2 0.6,-1.9 0.5,-1.9 0.6,-1.8 0.5,-1.8 0.6,-1.7 0.5,-1.7 0.6,-1.6 0.5,-1.6 0.6,-1.5 m -70.7,150.2 0.5,1.7 0.6,1.6 0.5,1.6 0.6,1.4 0.5,1.5 0.6,1.3 0.5,1.3 0.6,1.2 0.5,1.2 0.6,1 0.5,1 0.6,0.9 0.5,0.8 0.6,0.6 0.5,0.6 0.6,0.5 0.5,0.4 0.6,0.2 0.5,0.2 0.6,0 0.5,0 0.6,-0.2 0.5,-0.3 0.6,-0.4 0.5,-0.6 0.6,-0.6 0.5,-0.8 0.6,-0.9 0.5,-1 0.6,-1.1 0.5,-1.2 0.6,-1.3 0.5,-1.5 0.6,-1.5 0.5,-1.7 0.6,-1.7 0.5,-1.9 0.6,-1.9 0.5,-2 0.6,-2.2 0.5,-2.2 0.6,-2.3 0.5,-2.4 0.6,-2.4 0.5,-2.5 0.6,-2.6 0.5,-2.7 0.6,-2.7 0.5,-2.7 0.6,-2.7 0.5,-2.9 0.6,-2.8 0.5,-2.9 0.6,-3 0.5,-2.9 0.6,-3 0.5,-3 0.6,-3 0.5,-3.1 0.6,-3 0.5,-3 0.6,-3 0.5,-3 0.6,-3 0.5,-3 0.6,-2.9 0.5,-3 0.6,-2.9 0.5,-2.9 0.6,-2.8 0.5,-2.8 0.6,-2.8 0.5,-2.8 0.6,-2.7 0.5,-2.6 0.6,-2.7 0.5,-2.5 0.6,-2.6 0.5,-2.5 0.6,-2.4 0.5,-2.4 0.6,-2.4 0.5,-2.2 0.6,-2.3 0.5,-2.2 0.6,-2.1 0.5,-2.1 0.6,-2 0.5,-2 0.6,-2 0.5,-1.8 0.6,-1.9 0.5,-1.7 0.6,-1.8 0.5,-1.7 0.6,-1.6 0.5,-1.6 0.6,-1.5 0.5,-1.5 m -70.6,144.3 0.6,1.5 0.5,1.5 0.6,1.4 0.5,1.4 0.6,1.3 0.4,1.2 0.6,1.2 0.5,1.1 0.6,1.1 0.5,0.9 0.6,0.9 0.5,0.8 0.6,0.7 0.5,0.6 0.6,0.5 0.5,0.4 0.6,0.3 0.5,0.2 0.6,0.2 0.5,0 0.6,-0.1 0.5,-0.2 0.6,-0.4 0.5,-0.4 0.6,-0.5 0.5,-0.7 0.6,-0.7 0.5,-0.9 0.6,-0.9 0.5,-1.1 0.6,-1.2 0.5,-1.3 0.6,-1.4 0.5,-1.5 0.6,-1.5 0.5,-1.7 0.6,-1.8 0.5,-1.9 0.6,-1.9 0.5,-2 0.6,-2.2 0.5,-2.2 0.6,-2.2 0.5,-2.4 0.6,-2.4 0.5,-2.4 0.6,-2.4 0.5,-2.6 0.6,-2.6 0.5,-2.7 0.6,-2.6 0.5,-2.8 0.6,-2.7 0.5,-2.8 0.6,-2.8 0.5,-2.8 0.6,-2.8 0.5,-2.9 0.6,-2.8 0.5,-2.8 0.6,-2.9 0.5,-2.8 0.6,-2.8 0.5,-2.8 0.6,-2.8 0.5,-2.8 0.6,-2.7 0.5,-2.8 0.6,-2.7 0.5,-2.7 0.6,-2.6 0.5,-2.7 0.6,-2.6 0.5,-2.5 0.6,-2.6 0.5,-2.5 0.6,-2.5 0.5,-2.4 0.6,-2.4 0.5,-2.4 0.6,-2.3 0.5,-2.3 0.6,-2.2 0.5,-2.2 0.6,-2.1 0.5,-2.1 0.6,-2.1 0.5,-1.9 0.6,-2 0.5,-1.9 0.6,-1.8 0.5,-1.8 0.6,-1.7 0.5,-1.7 0.6,-1.7 0.5,-1.6 0.6,-1.5 0.5,-1.5 0.6,-1.5 m -70.7,136.8 0.6,1.4 0.5,1.3 0.6,1.3 0.5,1.2 0.6,1.1 0.5,1.1 0.6,1.1 0.5,1 0.6,0.9 0.5,0.8 0.6,0.8 0.5,0.7 0.6,0.6 0.6,0.5 0.5,0.4 0.6,0.3 0.5,0.3 0.6,0.1 0.5,0.1 0.6,0 0.5,-0.2 0.6,-0.2 0.5,-0.3 0.6,-0.5 0.5,-0.5 0.6,-0.7 0.5,-0.7 0.6,-0.8 0.5,-1 0.6,-1 0.5,-1.1 0.6,-1.3 0.5,-1.3 0.6,-1.4 0.4,-1.5 0.6,-1.6 0.5,-1.7 0.6,-1.7 0.5,-1.9 0.6,-1.9 0.5,-2 0.6,-2 0.5,-2 0.6,-2.2 0.5,-2.2 0.6,-2.3 0.5,-2.3 0.6,-2.4 0.5,-2.4 0.6,-2.5 0.5,-2.4 0.6,-2.5 0.5,-2.5 0.6,-2.6 0.5,-2.5 0.6,-2.5 0.5,-2.6 0.6,-2.5 0.5,-2.5 0.6,-2.6 0.5,-2.5 0.6,-2.5 0.5,-2.5 0.6,-2.5 0.5,-2.4 0.6,-2.5 0.5,-2.4 0.6,-2.5 0.5,-2.4 0.6,-2.4 0.5,-2.4 0.6,-2.5 0.5,-2.4 0.6,-2.4 0.5,-2.4 0.6,-2.3 0.5,-2.4 0.6,-2.4 0.5,-2.3 0.6,-2.3 0.5,-2.3 0.6,-2.3 0.5,-2.2 0.6,-2.2 0.5,-2.2 0.6,-2.1 0.5,-2.1 0.6,-2 0.5,-1.9 0.6,-1.9 0.5,-1.9 0.6,-1.8 0.5,-1.7 0.6,-1.7 0.5,-1.7 0.6,-1.5 0.5,-1.6 0.6,-1.5 0.5,-1.4 m -70.6,128.1 0.5,1.2 0.6,1.1 0.5,1.1 0.6,1 0.5,1 0.6,1 0.5,0.8 0.6,0.9 0.5,0.7 0.6,0.7 0.5,0.6 0.6,0.6 0.5,0.5 0.6,0.4 0.5,0.3 0.6,0.3 0.5,0.1 0.6,0.1 0.5,0 0.6,-0.1 0.5,-0.1 0.6,-0.3 0.5,-0.4 0.6,-0.4 0.5,-0.6 0.6,-0.6 0.5,-0.7 0.6,-0.8 0.5,-0.9 0.6,-1 0.5,-1.1 0.6,-1.1 0.5,-1.3 0.6,-1.3 0.5,-1.4 0.6,-1.4 0.5,-1.5 0.6,-1.7 0.5,-1.7 0.6,-1.7 0.5,-1.9 0.6,-1.8 0.5,-2 0.6,-2 0.5,-2 0.6,-2 0.5,-2.1 0.6,-2.1 0.5,-2.2 0.6,-2.1 0.5,-2.1 0.6,-2.2 0.5,-2.1 0.6,-2.1 0.5,-2.1 0.6,-2.1 0.5,-2.1 0.6,-2 0.5,-2 0.6,-2 0.5,-2 0.6,-1.9 0.5,-1.9 0.6,-1.9 0.4,-1.9 0.6,-1.9 0.5,-1.9 0.6,-2 0.5,-1.9 0.6,-2 0.5,-2.1 0.6,-2 0.5,-2.2 0.6,-2.1 0.5,-2.3 0.6,-2.2 0.5,-2.3 0.6,-2.4 0.5,-2.4 0.6,-2.4 0.5,-2.4 0.6,-2.5 0.5,-2.4 0.6,-2.4 0.5,-2.4 0.6,-2.3 0.6,-2.3 0.5,-2.2 0.6,-2.2 0.5,-2.1 0.6,-2.1 0.5,-1.9 0.6,-1.9 0.5,-1.8 0.6,-1.8 0.5,-1.7 0.6,-1.6 0.5,-1.5 0.6,-1.5 m -70.7,118.6 0.6,1 0.5,0.9 0.6,0.9 0.5,0.9 0.6,0.8 0.5,0.7 0.6,0.7 0.5,0.7 0.6,0.6 0.5,0.5 0.6,0.5 0.5,0.5 0.6,0.3 0.5,0.3 0.6,0.2 0.5,0.2 0.6,0.1 0.5,0 0.6,-0.1 0.5,-0.1 0.6,-0.3 0.5,-0.3 0.6,-0.4 0.5,-0.4 0.6,-0.6 0.5,-0.6 0.6,-0.7 0.5,-0.8 0.6,-0.8 0.5,-0.9 0.6,-1.1 0.5,-1 0.6,-1.2 0.5,-1.2 0.6,-1.3 0.5,-1.4 0.6,-1.4 0.5,-1.5 0.6,-1.5 0.5,-1.6 0.6,-1.7 0.5,-1.6 0.6,-1.7 0.5,-1.8 0.6,-1.7 0.5,-1.8 0.6,-1.7 0.5,-1.8 0.6,-1.7 0.5,-1.8 0.6,-1.6 0.5,-1.7 0.6,-1.5 0.5,-1.5 0.6,-1.5 0.5,-1.4 0.6,-1.3 0.5,-1.2 0.6,-1.2 0.5,-1.1 0.6,-1 0.5,-1 0.6,-1 0.5,-0.9 0.6,-1 0.5,-1 0.6,-1 0.5,-1.1 0.6,-1.2 0.5,-1.3 0.6,-1.5 0.5,-1.6 0.6,-1.7 0.5,-1.9 0.6,-2 0.5,-2.3 0.6,-2.3 0.5,-2.5 0.6,-2.7 0.5,-2.7 0.6,-2.8 0.5,-2.9 0.6,-3 0.5,-2.9 0.6,-3 0.5,-2.9 0.6,-2.8 0.5,-2.8 0.6,-2.8 0.5,-2.6 0.6,-2.5 0.5,-2.4 0.6,-2.3 0.4,-2.1 0.6,-2.1 0.5,-1.9 0.6,-1.9 0.5,-1.7 0.6,-1.6 h 0.01" />
    <path
       inkscape:connector-curvature="0"
       id="path154"
       d="m 232.2,210 0.5,0.8 0.6,0.7 0.5,0.7 0.6,0.7 0.5,0.6 0.6,0.5 0.5,0.6 0.6,0.5 0.5,0.4 0.6,0.4 0.5,0.3 0.6,0.3 0.5,0.3 0.6,0.1 0.5,0.1 0.6,0.1 0.5,0 0.6,-0.1 0.5,-0.1 0.6,-0.2 0.5,-0.3 0.6,-0.3 0.5,-0.4 0.6,-0.5 0.5,-0.6 0.6,-0.6 0.5,-0.6 0.6,-0.8 0.5,-0.8 0.6,-0.9 0.5,-0.9 0.6,-1 0.5,-1.1 0.6,-1.1 0.5,-1.2 0.6,-1.3 0.5,-1.2 0.6,-1.4 0.5,-1.3 0.6,-1.4 0.5,-1.5 0.6,-1.4 0.5,-1.4 0.6,-1.5 0.5,-1.4 0.6,-1.4 0.5,-1.4 0.6,-1.3 0.5,-1.3 0.6,-1.2 0.5,-1 0.6,-1 0.5,-0.8 0.6,-0.8 0.5,-0.5 0.6,-0.5 0.5,-0.2 0.6,-0.2 0.5,0 0.6,0.1 0.5,0.2 0.6,0.3 0.5,0.3 0.6,0.4 0.5,0.3 0.6,0.3 0.5,0.1 0.6,0.1 0.5,-0.2 0.6,-0.4 0.5,-0.7 0.6,-0.9 0.5,-1.3 0.6,-1.5 0.5,-1.9 0.6,-2.2 0.5,-2.6 0.6,-2.8 0.5,-3.1 0.6,-3.3 0.5,-3.5 0.6,-3.6 0.5,-3.8 0.6,-3.9 0.5,-3.8 0.6,-3.9 0.5,-3.7 0.6,-3.7 0.5,-3.6 0.6,-3.4 0.5,-3.3 0.6,-3.1 0.5,-2.9 0.6,-2.8 0.5,-2.5 0.6,-2.4 0.5,-2.2 0.6,-2 0.5,-1.9 m -70.7,97.8 0.6,0.5 0.5,0.5 0.6,0.5 0.5,0.5 0.6,0.4 0.5,0.4 0.6,0.4 0.5,0.3 0.6,0.3 0.5,0.2 0.6,0.2 0.5,0.2 0.6,0.1 0.5,0 0.6,0.1 0.5,-0.1 0.6,-0.1 0.5,-0.1 0.6,-0.2 0.5,-0.3 0.6,-0.3 0.5,-0.4 0.6,-0.4 0.5,-0.5 0.6,-0.6 0.5,-0.6 0.6,-0.6 0.5,-0.7 0.6,-0.8 0.5,-0.8 0.6,-0.9 0.5,-0.9 0.6,-1 0.5,-1 0.6,-1.1 0.5,-1.1 0.6,-1.2 0.5,-1.1 0.6,-1.2 0.5,-1.3 0.6,-1.2 0.5,-1.2 0.6,-1.2 0.5,-1.1 0.6,-1.2 0.5,-1 0.6,-1 0.5,-0.9 0.6,-0.7 0.5,-0.7 0.6,-0.4 0.5,-0.3 0.6,-0.1 0.5,0.1 0.6,0.3 0.5,0.5 0.6,0.8 0.5,1 0.6,1.1 0.5,1.4 0.6,1.5 0.5,1.6 0.6,1.7 0.5,1.7 0.6,1.6 0.5,1.6 0.6,1.4 0.5,1.1 0.6,0.9 0.5,0.5 0.6,0.2 0.5,-0.3 0.6,-0.8 0.5,-1.2 0.6,-1.8 0.5,-2.2 0.6,-2.7 0.5,-3.1 0.6,-3.6 0.5,-3.9 0.6,-4.2 0.5,-4.5 0.6,-4.7 0.5,-4.7 0.6,-4.8 0.5,-4.8 0.6,-4.8 0.5,-4.6 0.6,-4.5 0.5,-4.3 0.6,-4.1 0.5,-3.8 0.6,-3.6 0.5,-3.3 0.6,-3.1 0.5,-2.8 0.6,-2.6 0.5,-2.4 0.6,-2.2 m -70.7,87.8 0.5,0.4 0.6,0.3 0.5,0.3 0.6,0.3 0.5,0.3 0.6,0.2 0.5,0.2 0.6,0.1 0.5,0.2 0.6,0.1 0.5,0 0.6,0.1 0.5,0 0.6,-0.1 0.5,-0.1 0.6,-0.1 0.5,-0.2 0.6,-0.2 0.5,-0.3 0.6,-0.3 0.5,-0.4 0.6,-0.4 0.5,-0.4 0.6,-0.5 0.5,-0.6 0.6,-0.6 0.5,-0.6 0.6,-0.7 0.5,-0.7 0.6,-0.8 0.5,-0.8 0.6,-0.9 0.5,-0.9 0.6,-0.9 0.5,-1 0.6,-1 0.5,-1 0.6,-1 0.5,-1.1 0.6,-1 0.5,-1.1 0.6,-1 0.5,-1 0.6,-0.9 0.5,-0.9 0.6,-0.8 0.5,-0.7 0.6,-0.5 0.5,-0.4 0.6,-0.3 0.5,0 0.6,0.1 0.5,0.4 0.6,0.7 0.5,0.9 0.6,1.2 0.5,1.4 0.6,1.7 0.5,1.9 0.6,2.2 0.5,2.3 0.6,2.4 0.5,2.5 0.6,2.5 0.5,2.5 0.6,2.4 0.5,2.2 0.6,1.8 0.5,1.6 0.6,1.1 0.5,0.7 0.6,0.2 0.5,-0.4 0.6,-1 0.5,-1.6 0.6,-2.2 0.5,-2.7 0.6,-3.3 0.5,-3.7 0.6,-4.2 0.5,-4.6 0.6,-4.8 0.5,-5.1 0.6,-5.2 0.5,-5.3 0.6,-5.3 0.5,-5.3 0.6,-5.1 0.5,-4.9 0.6,-4.7 0.5,-4.5 0.6,-4.2 0.5,-3.9 0.6,-3.7 0.5,-3.3 0.6,-3.1 0.5,-2.8 0.6,-2.5 0.5,-2.3 m -70.7,79.4 0.6,0.2 0.5,0.1 0.6,0.1 0.5,0.2 0.6,0.1 0.5,0 0.6,0.1 0.5,0 0.6,0 0.5,0 0.6,-0.1 0.5,-0.1 0.6,-0.1 0.5,-0.1 0.6,-0.2 0.5,-0.2 0.6,-0.3 0.5,-0.3 0.6,-0.3 0.5,-0.4 0.6,-0.4 0.5,-0.4 0.6,-0.5 0.5,-0.5 0.6,-0.5 0.5,-0.6 0.6,-0.6 0.5,-0.7 0.6,-0.7 0.5,-0.7 0.6,-0.8 0.5,-0.8 0.6,-0.8 0.5,-0.9 0.6,-0.9 0.5,-0.9 0.6,-0.9 0.5,-0.9 0.6,-1 0.5,-0.9 0.6,-0.9 0.5,-0.9 0.6,-0.9 0.5,-0.8 0.6,-0.7 0.5,-0.7 0.6,-0.6 0.5,-0.4 0.6,-0.3 0.5,-0.1 0.6,0.1 0.5,0.2 0.6,0.5 0.5,0.7 0.6,1 0.5,1.2 0.6,1.5 0.5,1.7 0.6,1.9 0.5,2.1 0.6,2.3 0.5,2.5 0.6,2.4 0.5,2.6 0.6,2.4 0.5,2.4 0.6,2.1 0.5,1.9 0.6,1.6 0.5,1.2 0.6,0.7 0.5,0.2 0.6,-0.2 0.5,-0.9 0.6,-1.4 0.5,-1.9 0.6,-2.5 0.5,-3.1 0.6,-3.4 0.5,-3.9 0.6,-4.3 0.5,-4.5 0.6,-4.7 0.5,-4.9 0.6,-5 0.5,-4.9 0.6,-4.9 0.5,-4.8 0.6,-4.6 0.5,-4.4 0.6,-4.2 0.5,-4 0.6,-3.6 0.5,-3.4 0.6,-3.1 0.5,-2.9 0.6,-2.6 0.5,-2.4 0.6,-2.1 m -70.7,73.1 0.5,0 0.6,0 0.5,0 0.6,0 0.5,-0.1 0.6,0 0.5,-0.1 0.6,-0.1 0.5,-0.1 0.6,-0.2 0.5,-0.1 0.6,-0.2 0.5,-0.2 0.6,-0.3 0.5,-0.2 0.6,-0.3 0.5,-0.3 0.6,-0.4 0.5,-0.4 0.6,-0.4 0.5,-0.4 0.6,-0.5 0.5,-0.4 0.6,-0.6 0.5,-0.5 0.6,-0.6 0.5,-0.6 0.6,-0.7 0.5,-0.6 0.6,-0.7 0.5,-0.7 0.6,-0.8 0.5,-0.8 0.6,-0.8 0.5,-0.8 0.6,-0.8 0.5,-0.9 0.6,-0.8 0.5,-0.9 0.6,-0.8 0.5,-0.9 0.6,-0.8 0.5,-0.8 0.6,-0.8 0.5,-0.7 0.6,-0.7 0.5,-0.5 0.6,-0.5 0.5,-0.4 0.6,-0.3 0.5,-0.1 0.6,0.1 0.5,0.2 0.6,0.4 0.5,0.5 0.6,0.8 0.5,0.9 0.6,1.2 0.5,1.3 0.6,1.4 0.5,1.6 0.6,1.7 0.5,1.7 0.6,1.8 0.5,1.7 0.6,1.6 0.5,1.5 0.6,1.2 0.5,1.1 0.6,0.7 0.5,0.4 0.6,0 0.5,-0.3 0.6,-0.8 0.5,-1.3 0.6,-1.6 0.5,-2 0.6,-2.5 0.5,-2.8 0.6,-3.1 0.5,-3.3 0.6,-3.6 0.5,-3.8 0.6,-3.8 0.5,-3.9 0.6,-3.9 0.5,-3.9 0.6,-3.8 0.5,-3.6 0.6,-3.5 0.5,-3.3 0.6,-3.2 0.5,-2.9 0.6,-2.7 0.5,-2.5 0.6,-2.4 0.5,-2.1 0.6,-1.9 0.5,-1.8 m -70.7,69 0.6,-0.2 0.5,-0.1 0.6,-0.1 0.5,-0.2 0.6,-0.1 0.5,-0.2 0.6,-0.2 0.5,-0.2 0.6,-0.2 0.5,-0.3 0.6,-0.2 0.5,-0.3 0.6,-0.3 0.5,-0.3 0.6,-0.3 0.5,-0.4 0.6,-0.3 0.5,-0.4 0.6,-0.5 0.5,-0.4 0.6,-0.5 0.5,-0.4 0.6,-0.5 0.5,-0.6 0.6,-0.5 0.5,-0.6 0.6,-0.6 0.5,-0.6 0.6,-0.7 0.5,-0.6 0.6,-0.7 0.5,-0.7 0.6,-0.8 0.5,-0.7 0.6,-0.8 0.5,-0.8 0.6,-0.7 0.5,-0.8 0.6,-0.9 0.5,-0.8 0.6,-0.8 0.5,-0.8 0.6,-0.8 0.5,-0.7 0.6,-0.8 0.5,-0.7 0.6,-0.6 0.5,-0.6 0.6,-0.6 0.5,-0.4 0.6,-0.4 0.5,-0.3 0.6,-0.2 0.5,-0.1 0.6,0 0.5,0.2 0.6,0.2 0.5,0.4 0.6,0.4 0.5,0.6 0.6,0.6 0.5,0.7 0.6,0.8 0.5,0.7 0.6,0.7 0.5,0.7 0.6,0.5 0.5,0.5 0.6,0.3 0.5,0.1 0.6,0 0.5,-0.3 0.6,-0.6 0.5,-0.8 0.6,-1 0.5,-1.3 0.6,-1.6 0.5,-1.8 0.6,-2 0.5,-2.1 0.6,-2.4 0.5,-2.5 0.6,-2.5 0.5,-2.7 0.6,-2.6 0.5,-2.7 0.6,-2.6 0.5,-2.6 0.6,-2.5 0.5,-2.4 0.6,-2.3 0.5,-2.2 0.6,-2 0.5,-1.9 0.6,-1.8 0.5,-1.7 0.6,-1.5 0.5,-1.5 0.6,-1.3 h 0.01" />
    <path
       inkscape:connector-curvature="0"
       id="path156"
       d="m 134.7,158.2 0.5,-0.3 0.6,-0.2 0.5,-0.2 0.6,-0.3 0.5,-0.2 0.6,-0.3 0.5,-0.3 0.6,-0.3 0.5,-0.3 0.6,-0.3 0.5,-0.3 0.6,-0.4 0.5,-0.3 0.6,-0.4 0.5,-0.4 0.6,-0.4 0.5,-0.4 0.6,-0.5 0.5,-0.4 0.6,-0.5 0.5,-0.5 0.6,-0.5 0.5,-0.5 0.6,-0.5 0.5,-0.6 0.6,-0.6 0.5,-0.6 0.6,-0.6 0.5,-0.6 0.6,-0.6 0.5,-0.7 0.6,-0.7 0.5,-0.6 0.6,-0.8 0.5,-0.7 0.6,-0.7 0.5,-0.7 0.6,-0.8 0.5,-0.8 0.6,-0.7 0.5,-0.8 0.6,-0.8 0.5,-0.7 0.6,-0.8 0.5,-0.7 0.6,-0.8 0.5,-0.7 0.6,-0.7 0.5,-0.7 0.6,-0.6 0.5,-0.6 0.6,-0.6 0.5,-0.5 0.6,-0.4 0.5,-0.4 0.6,-0.4 0.5,-0.3 0.6,-0.2 0.5,-0.2 0.6,-0.2 0.5,-0.1 0.6,0 0.5,-0.1 0.6,-0.1 0.5,0 0.6,-0.1 0.5,-0.2 0.6,-0.2 0.5,-0.2 0.6,-0.4 0.5,-0.4 0.6,-0.6 0.5,-0.7 0.6,-0.7 0.5,-1 0.6,-1 0.5,-1.1 0.6,-1.3 0.5,-1.4 0.6,-1.4 0.5,-1.5 0.6,-1.6 0.5,-1.7 0.6,-1.6 0.5,-1.7 0.6,-1.6 0.5,-1.7 0.6,-1.6 0.5,-1.6 0.6,-1.5 0.5,-1.5 0.6,-1.4 0.5,-1.4 0.6,-1.2 0.5,-1.3 0.6,-1.1 0.5,-1.1 0.6,-1.1 0.5,-1 m -70.7,63.8 0.6,-0.3 0.5,-0.3 0.6,-0.3 0.5,-0.3 0.6,-0.4 0.5,-0.3 0.6,-0.4 0.5,-0.3 0.6,-0.4 0.5,-0.4 0.6,-0.4 0.5,-0.4 0.6,-0.4 0.5,-0.4 0.6,-0.5 0.5,-0.4 0.6,-0.5 0.5,-0.4 0.6,-0.5 0.5,-0.5 0.6,-0.5 0.5,-0.5 0.6,-0.6 0.5,-0.5 0.6,-0.6 0.5,-0.5 0.6,-0.6 0.5,-0.6 0.6,-0.6 0.5,-0.6 0.6,-0.7 0.5,-0.6 0.6,-0.7 0.5,-0.6 0.6,-0.7 0.5,-0.7 0.6,-0.7 0.5,-0.7 0.6,-0.7 0.5,-0.8 0.6,-0.7 0.5,-0.7 0.6,-0.8 0.5,-0.7 0.6,-0.7 0.5,-0.8 0.6,-0.7 0.5,-0.7 0.6,-0.7 0.5,-0.8 0.6,-0.7 0.5,-0.6 0.6,-0.7 0.5,-0.6 0.6,-0.7 0.5,-0.6 0.6,-0.6 0.5,-0.5 0.6,-0.6 0.5,-0.5 0.6,-0.5 0.5,-0.5 0.6,-0.5 0.5,-0.5 0.6,-0.5 0.5,-0.5 0.6,-0.5 0.5,-0.6 0.6,-0.5 0.5,-0.6 0.6,-0.7 0.5,-0.7 0.6,-0.7 0.5,-0.7 0.6,-0.8 0.5,-0.9 0.6,-0.9 0.5,-0.9 0.6,-1 0.5,-1 0.6,-1 0.5,-1.1 0.6,-1.1 0.5,-1 0.6,-1.1 0.5,-1.1 0.6,-1.1 0.5,-1 0.6,-1 0.5,-1.1 0.6,-0.9 0.5,-1 0.6,-0.9 0.5,-0.9 0.6,-0.9 0.5,-0.9 0.6,-0.8 0.5,-0.8 0.6,-0.8 m 254.2,154.5 -3.1,1.7 -3.1,1.7 -3.1,1.6 -3.1,1.6 -3.2,1.6 -3.1,1.5 -3.1,1.4 -3.1,1.4 -3.1,1.2 -3.2,1.3 -3.1,1.1 -3.1,1.1 -3.1,1 -3.1,0.9 -3.2,0.9 -3.1,0.7 -3.1,0.7 -3.1,0.6 -3.1,0.5 -3.2,0.4 -3.1,0.3 -3.1,0.2 -3.1,0.1 -3.1,0 -3.1,0 -3.2,-0.2 -3.1,-0.3 -3.1,-0.3 -3.1,-0.5 -3.1,-0.5 -3.2,-0.7 -3.1,-0.7 -3.1,-0.8 -3.1,-0.9 -3.1,-1 -3.2,-1.1 -3.1,-1.2 -3.1,-1.2 -3.1,-1.4 -3.1,-1.3 -3.1,-1.5 -3.1,-1.5 -3.1,-1.6 -3.1,-1.7 -3.1,-1.7 -3.2,-1.8 -3.1,-1.8 -3.1,-1.8 -3.1,-1.9 -3.1,-2 -3.2,-2 -3.1,-2 -3.1,-1.9 -3.1,-2.1 -3.1,-2.1 -3.2,-2.1 -3.1,-2.1 -3.1,-2.1 -3.1,-2.1 -3.1,-2.2 -3.2,-2.1 -3.1,-2.1 -3.1,-2.2 -3.1,-2.1 -3.1,-2.1 -3.2,-2.1 -3.1,-2 -3.1,-2.1 -3.1,-2 -3.1,-2 -3.1,-1.9 -3.2,-2 -3.1,-1.9 -3.1,-1.8 -3.1,-1.9 -3.1,-1.8 -3.2,-1.7 -3.1,-1.8 -3.1,-1.6 -3.1,-1.7 -3.1,-1.6 -3.2,-1.5 -3.1,-1.6 -3.1,-1.4 -3.1,-1.5 -3.1,-1.4 -3.2,-1.3 -3.1,-1.3 -3.1,-1.3 -3.1,-1.2 -3.1,-1.2 -3.2,-1.1 -3.1,-1.1 -3.1,-1.1 -3.1,-1 -3.1,-0.9 -3.2,-1 -3.1,-0.9 -3.1,-0.9 m 311.6,94.9 -3.1,1.9 -3.1,1.9 -3.2,1.8 -3.1,1.7 -3.1,1.7 -3.1,1.7 -3.1,1.6 -3.2,1.5 -3.1,1.4 -3.1,1.4 -3.1,1.2 -3.1,1.2 -3.1,1.2 -3.2,1 -3.1,0.9 -3.1,0.9 -3.1,0.7 -3.1,0.7 -3.2,0.5 -3.1,0.5 -3.1,0.3 -3.1,0.2 -3.1,0.2 -3.2,0 -3.1,-0.1 -3.1,-0.1 -3.1,-0.3 -3.1,-0.4 -3.2,-0.5 -3.1,-0.6 -3.1,-0.7 -3.1,-0.8 -3.1,-0.9 -3.2,-1 -3.1,-1.1 -3.1,-1.1 -3.1,-1.3 -3.1,-1.4 -3.2,-1.4 -3.1,-1.5 -3.1,-1.6 -3,-1.7 -3.1,-1.7 -3.2,-1.8 -3.1,-1.9 -3.1,-1.9 -3.1,-2 -3.1,-2.1 -3.2,-2.1 -3.1,-2.1 -3.1,-2.1 -3.1,-2.2 -3.1,-2.3 -3.1,-2.2 -3.2,-2.3 -3.1,-2.2 -3.1,-2.3 -3.1,-2.4 -3.1,-2.3 -3.2,-2.3 -3.1,-2.4 -3.1,-2.3 -3.1,-2.3 -3.1,-2.3 -3.2,-2.3 -3.1,-2.3 -3.1,-2.2 -3.1,-2.3 -3.1,-2.2 -3.2,-2.2 -3.1,-2.1 -3.1,-2.1 -3.1,-2.1 -3.1,-2.1 -3.2,-2 -3.1,-1.9 -3.1,-1.9 -3.1,-1.9 -3.1,-1.9 -3.2,-1.8 -3.1,-1.7 -3.1,-1.7 -3.1,-1.7 -3.1,-1.6 -3.2,-1.6 -3.1,-1.5 -3.1,-1.4 -3.1,-1.5 -3.1,-1.3 -3.2,-1.4 -3.1,-1.3 -3.1,-1.2 -3.1,-1.2 -3.1,-1.1 -3.2,-1.1 -3.1,-1.1 -3.1,-1 -3.1,-1 -3.1,-1 m 311.6,101.2 -3.1,2 -3.2,2 -3.1,2 -3.1,1.9 -3.1,1.8 -3.1,1.8 -3.2,1.7 -3.1,1.6 -3.1,1.6 -3.1,1.5 -3.1,1.3 -3.2,1.3 -3.1,1.2 -3.1,1.2 -3.1,1 -3.1,0.9 -3.2,0.8 -3.1,0.7 -3.1,0.6 -3.1,0.5 -3.1,0.4 -3.2,0.2 -3.1,0.2 -3.1,0 -3.1,-0.1 -3.1,-0.1 -3.2,-0.3 -3.1,-0.4 -3.1,-0.6 -3.1,-0.6 -3.1,-0.7 -3.2,-0.9 -3.1,-0.9 -3.1,-1.1 -3.1,-1.2 -3.1,-1.2 -3.2,-1.4 -3.1,-1.4 -3.1,-1.6 -3.1,-1.6 -3.1,-1.7 -3.1,-1.8 -3.1,-1.8 -3.1,-2 -3.1,-2 -3.1,-2.1 -3.1,-2.1 -3.2,-2.2 -3.1,-2.2 -3.1,-2.3 -3.1,-2.3 -3.1,-2.4 -3.2,-2.3 -3.1,-2.5 -3.1,-2.4 -3.1,-2.5 -3.1,-2.4 -3.2,-2.4 -3.1,-2.5 -3.1,-2.5 -3.1,-2.5 -3.1,-2.5 -3.2,-2.5 -3.1,-2.5 -3.1,-2.5 -3.1,-2.4 -3.1,-2.4 -3.2,-2.4 -3.1,-2.4 -3.1,-2.3 -3.1,-2.3 -3.1,-2.3 -3.2,-2.2 -3.1,-2.2 -3.1,-2.1 -3.1,-2.1 -3.1,-2.1 -3.2,-2 -3.1,-2 -3.1,-1.9 -3.1,-1.9 -3.1,-1.8 -3.2,-1.8 -3.1,-1.7 -3.1,-1.7 -3.1,-1.6 -3.1,-1.6 -3.1,-1.5 -3.2,-1.5 -3.1,-1.4 -3.1,-1.4 -3.1,-1.3 -3.1,-1.3 -3.2,-1.2 -3.1,-1.2 -3.1,-1.1 -3.1,-1.1 -3.1,-1.1 -3.2,-1 m 311.6,105.7 -3.1,2.1 -3.1,2.1 -3.1,2.1 -3.1,2 -3.2,2 -3.1,1.8 -3.1,1.8 -3.1,1.7 -3.1,1.7 -3.2,1.5 -3.1,1.5 -3.1,1.3 -3.1,1.3 -3.1,1.2 -3.2,1.1 -3.1,0.9 -3.1,0.9 -3.1,0.7 -3.1,0.7 -3.2,0.5 -3.1,0.4 -3.1,0.3 -3.1,0.1 -3.1,0.1 -3.2,-0.1 -3.1,-0.2 -3.1,-0.3 -3.1,-0.4 -3.1,-0.6 -3.1,-0.6 -3.2,-0.8 -3.1,-0.9 -3.1,-1 -3.1,-1.1 -3.1,-1.2 -3.2,-1.3 -3.1,-1.4 -3.1,-1.5 -3.1,-1.7 -3.1,-1.7 -3.2,-1.8 -3.1,-1.8 -3.1,-2 -3,-2 -3.1,-2.1 -3.2,-2.2 -3.1,-2.2 -3.1,-2.3 -3.1,-2.3 -3.1,-2.4 -3.2,-2.5 -3.1,-2.4 -3.1,-2.6 -3.1,-2.5 -3.1,-2.6 -3.2,-2.5 -3.1,-2.6 -3.1,-2.6 -3.1,-2.6 -3.1,-2.6 -3.2,-2.6 -3.1,-2.6 -3.1,-2.6 -3.1,-2.6 -3.1,-2.6 -3.2,-2.6 -3.1,-2.5 -3.1,-2.5 -3.1,-2.5 -3.1,-2.5 -3.2,-2.4 -3.1,-2.3 -3.1,-2.4 -3.1,-2.3 -3.1,-2.2 -3.1,-2.2 -3.2,-2.2 -3.1,-2.1 -3.1,-2.1 -3.1,-2 -3.1,-2 -3.2,-1.9 -3.1,-1.8 -3.1,-1.8 -3.1,-1.8 -3.1,-1.7 -3.2,-1.6 -3.1,-1.6 -3.1,-1.6 -3.1,-1.5 -3.1,-1.4 -3.2,-1.4 -3.1,-1.3 -3.1,-1.3 -3.1,-1.3 -3.1,-1.1 -3.2,-1.2 -3.1,-1.1 -3.1,-1 h 0.01" />
    <path
       inkscape:connector-curvature="0"
       id="path158"
       d="m 438.6,255.5 -3.1,2.3 -3.1,2.1 -3.2,2.2 -3.1,2 -3.1,2 -3.1,1.9 -3.1,1.9 -3.2,1.8 -3.1,1.6 -3.1,1.6 -3.1,1.5 -3.1,1.5 -3.1,1.3 -3.2,1.2 -3.1,1.1 -3.1,1 -3.1,0.8 -3.1,0.8 -3.2,0.7 -3.1,0.5 -3.1,0.4 -3.1,0.3 -3.1,0.2 -3.2,0 -3.1,0 -3.1,-0.2 -3.1,-0.3 -3.1,-0.5 -3.2,-0.5 -3.1,-0.7 -3.1,-0.8 -3.1,-0.9 -3.1,-1 -3.2,-1.1 -3.1,-1.3 -3.1,-1.3 -3.1,-1.5 -3.1,-1.6 -3.2,-1.6 -3.1,-1.8 -3.1,-1.8 -3.1,-1.9 -3.1,-2 -3.2,-2.1 -3,-2.2 -3.1,-2.2 -3.1,-2.3 -3.1,-2.3 -3.2,-2.4 -3.1,-2.5 -3.1,-2.5 -3.1,-2.5 -3.1,-2.6 -3.2,-2.6 -3.1,-2.7 -3.1,-2.6 -3.1,-2.7 -3.1,-2.6 -3.1,-2.7 -3.2,-2.7 -3.1,-2.6 -3.1,-2.7 -3.1,-2.7 -3.1,-2.7 -3.2,-2.6 -3.1,-2.7 -3.1,-2.6 -3.1,-2.5 -3.1,-2.6 -3.2,-2.5 -3.1,-2.5 -3.1,-2.4 -3.1,-2.4 -3.1,-2.4 -3.2,-2.3 -3.1,-2.3 -3.1,-2.2 -3.1,-2.2 -3.1,-2.1 -3.2,-2 -3.1,-2.1 -3.1,-1.9 -3.1,-1.9 -3.1,-1.9 -3.2,-1.8 -3.1,-1.7 -3.1,-1.7 -3.1,-1.7 -3.1,-1.5 -3.2,-1.6 -3.1,-1.4 -3.1,-1.5 -3.1,-1.3 -3.1,-1.4 -3.2,-1.2 -3.1,-1.3 -3.1,-1.1 -3.1,-1.1 -3.1,-1.1 m 311.6,108.3 -3.1,2.2 -3.2,2.2 -3.1,2.1 -3.1,2.1 -3.1,2 -3.1,1.9 -3.2,1.9 -3.1,1.8 -3.1,1.7 -3.1,1.6 -3.1,1.5 -3.2,1.4 -3.1,1.3 -3.1,1.2 -3.1,1.2 -3.1,1 -3.2,0.8 -3.1,0.8 -3.1,0.7 -3.1,0.5 -3.1,0.4 -3.2,0.3 -3.1,0.2 -3.1,0.1 -3.1,-0.1 -3.1,-0.2 -3.2,-0.3 -3.1,-0.4 -3.1,-0.6 -3.1,-0.7 -3.1,-0.8 -3.2,-0.9 -3.1,-1 -3.1,-1.2 -3.1,-1.2 -3.1,-1.4 -3.2,-1.4 -3.1,-1.6 -3.1,-1.7 -3.1,-1.7 -3.1,-1.9 -3.2,-1.9 -3.1,-2 -3.1,-2.1 -3.1,-2.2 -3,-2.2 -3.1,-2.3 -3.2,-2.4 -3.1,-2.4 -3.1,-2.5 -3.1,-2.5 -3.1,-2.6 -3.2,-2.5 -3.1,-2.7 -3.1,-2.6 -3.1,-2.7 -3.1,-2.6 -3.2,-2.7 -3.1,-2.7 -3.1,-2.7 -3.1,-2.7 -3.1,-2.7 -3.2,-2.7 -3.1,-2.7 -3.1,-2.6 -3.1,-2.7 -3.1,-2.6 -3.2,-2.6 -3.1,-2.5 -3.1,-2.6 -3.1,-2.5 -3.1,-2.4 -3.2,-2.4 -3.1,-2.4 -3.1,-2.3 -3.1,-2.3 -3.1,-2.2 -3.2,-2.2 -3.1,-2.1 -3.1,-2.1 -3.1,-2 -3.1,-2 -3.2,-1.9 -3.1,-1.9 -3.1,-1.8 -3.1,-1.8 -3.1,-1.7 -3.2,-1.6 -3.1,-1.6 -3.1,-1.5 -3.1,-1.5 -3.1,-1.5 -3.1,-1.3 -3.2,-1.4 -3.1,-1.2 -3.1,-1.3 -3.1,-1.1 -3.1,-1.2 -3.2,-1.1 m 311.6,106.3 -3.1,2.2 -3.1,2.2 -3.1,2.1 -3.1,2 -3.2,2 -3.1,1.9 -3.1,1.8 -3.1,1.7 -3.1,1.7 -3.2,1.6 -3.1,1.5 -3.1,1.4 -3.1,1.3 -3.1,1.2 -3.2,1 -3.1,1 -3.1,0.9 -3.1,0.8 -3.1,0.6 -3.2,0.5 -3.1,0.4 -3.1,0.3 -3.1,0.2 -3.1,0.1 -3.2,-0.1 -3.1,-0.2 -3.1,-0.3 -3.1,-0.4 -3.1,-0.6 -3.2,-0.7 -3.1,-0.7 -3.1,-0.9 -3.1,-1.1 -3.1,-1.1 -3.1,-1.2 -3.2,-1.4 -3.1,-1.4 -3.1,-1.5 -3.1,-1.7 -3.1,-1.7 -3.2,-1.8 -3.1,-1.9 -3.1,-2 -3.1,-2.1 -3.1,-2.1 -3.2,-2.2 -3,-2.3 -3.1,-2.3 -3.1,-2.4 -3.1,-2.4 -3.2,-2.5 -3.1,-2.5 -3.1,-2.5 -3.1,-2.6 -3.1,-2.5 -3.2,-2.7 -3.1,-2.6 -3.1,-2.7 -3.1,-2.6 -3.1,-2.7 -3.2,-2.6 -3.1,-2.7 -3.1,-2.6 -3.1,-2.7 -3.1,-2.6 -3.2,-2.6 -3.1,-2.6 -3.1,-2.5 -3.1,-2.5 -3.1,-2.5 -3.2,-2.5 -3.1,-2.4 -3.1,-2.4 -3.1,-2.3 -3.1,-2.3 -3.1,-2.2 -3.2,-2.2 -3.1,-2.2 -3.1,-2.1 -3.1,-2 -3.1,-2 -3.2,-2 -3.1,-1.9 -3.1,-1.8 -3.1,-1.8 -3.1,-1.7 -3.2,-1.7 -3.1,-1.6 -3.1,-1.6 -3.1,-1.5 -3.1,-1.5 -3.2,-1.4 -3.1,-1.3 -3.1,-1.3 -3.1,-1.3 -3.1,-1.2 -3.2,-1.2 -3.1,-1.1 -3.1,-1 m 311.6,102.1 -3.1,2.1 -3.1,2.1 -3.2,2 -3.1,1.9 -3.1,1.9 -3.1,1.9 -3.1,1.7 -3.2,1.7 -3.1,1.6 -3.1,1.5 -3.1,1.4 -3.1,1.4 -3.2,1.2 -3.1,1.2 -3.1,1 -3.1,0.9 -3.1,0.9 -3.1,0.7 -3.2,0.6 -3.1,0.5 -3.1,0.4 -3.1,0.3 -3.1,0.2 -3.2,0 -3.1,-0.1 -3.1,-0.2 -3.1,-0.3 -3.1,-0.4 -3.2,-0.5 -3.1,-0.7 -3.1,-0.7 -3.1,-0.9 -3.1,-1 -3.2,-1 -3.1,-1.2 -3.1,-1.3 -3.1,-1.4 -3.1,-1.5 -3.2,-1.6 -3.1,-1.6 -3.1,-1.8 -3.1,-1.8 -3.1,-2 -3.2,-1.9 -3.1,-2.1 -3.1,-2.1 -3.1,-2.2 -3,-2.2 -3.2,-2.3 -3.1,-2.4 -3.1,-2.3 -3.1,-2.4 -3.1,-2.4 -3.2,-2.5 -3.1,-2.5 -3.1,-2.5 -3.1,-2.6 -3.1,-2.5 -3.2,-2.6 -3.1,-2.5 -3.1,-2.6 -3.1,-2.5 -3.1,-2.6 -3.1,-2.5 -3.2,-2.5 -3.1,-2.5 -3.1,-2.5 -3.1,-2.4 -3.1,-2.4 -3.2,-2.4 -3.1,-2.4 -3.1,-2.3 -3.1,-2.3 -3.1,-2.2 -3.2,-2.2 -3.1,-2.2 -3.1,-2.1 -3.1,-2.1 -3.1,-2 -3.2,-2 -3.1,-1.9 -3.1,-1.9 -3.1,-1.9 -3.1,-1.7 -3.2,-1.8 -3.1,-1.6 -3.1,-1.7 -3.1,-1.5 -3.1,-1.6 -3.2,-1.4 -3.1,-1.5 -3.1,-1.3 -3.1,-1.3 -3.1,-1.3 -3.2,-1.2 -3.1,-1.2 -3.1,-1.1 -3.1,-1.1 -3.1,-1 m 311.6,96.1 -3.2,2 -3.1,1.9 -3.1,1.9 -3.1,1.9 -3.1,1.7 -3.1,1.7 -3.2,1.7 -3.1,1.6 -3.1,1.5 -3.1,1.4 -3.1,1.3 -3.2,1.3 -3.1,1.1 -3.1,1.1 -3.1,1 -3.1,0.9 -3.2,0.7 -3.1,0.7 -3.1,0.6 -3.1,0.5 -3.1,0.3 -3.2,0.3 -3.1,0.1 -3.1,0.1 -3.1,-0.1 -3.1,-0.2 -3.2,-0.3 -3.1,-0.4 -3.1,-0.5 -3.1,-0.6 -3.1,-0.7 -3.2,-0.8 -3.1,-1 -3.1,-1 -3.1,-1.1 -3.1,-1.2 -3.2,-1.4 -3.1,-1.4 -3.1,-1.5 -3.1,-1.5 -3.1,-1.7 -3.2,-1.7 -3.1,-1.8 -3.1,-1.9 -3.1,-1.9 -3.1,-2 -3.2,-2.1 -3.1,-2 -3,-2.1 -3.1,-2.2 -3.1,-2.2 -3.1,-2.3 -3.2,-2.3 -3.1,-2.3 -3.1,-2.3 -3.1,-2.4 -3.1,-2.4 -3.2,-2.3 -3.1,-2.4 -3.1,-2.4 -3.1,-2.3 -3.1,-2.4 -3.2,-2.4 -3.1,-2.3 -3.1,-2.3 -3.1,-2.3 -3.1,-2.3 -3.2,-2.3 -3.1,-2.3 -3.1,-2.2 -3.1,-2.2 -3.1,-2.2 -3.2,-2.1 -3.1,-2.1 -3.1,-2.1 -3.1,-2 -3.1,-2.1 -3.2,-1.9 -3.1,-2 -3.1,-1.9 -3.1,-1.8 -3.1,-1.9 -3.2,-1.7 -3.1,-1.7 -3.1,-1.7 -3.1,-1.7 -3.1,-1.5 -3.2,-1.6 -3.1,-1.4 -3.1,-1.5 -3.1,-1.3 -3.1,-1.4 -3.1,-1.2 -3.2,-1.3 -3.1,-1.1 -3.1,-1.2 -3.1,-1.1 -3.1,-1 -3.2,-1 m 311.6,88.8 -3.1,1.8 -3.1,1.8 -3.1,1.7 -3.1,1.7 -3.2,1.6 -3.1,1.6 -3.1,1.4 -3.1,1.4 -3.1,1.4 -3.2,1.3 -3.1,1.2 -3.1,1.1 -3.1,1.1 -3.1,1 -3.2,0.9 -3.1,0.8 -3.1,0.7 -3.1,0.6 -3.1,0.5 -3.2,0.4 -3.1,0.4 -3.1,0.2 -3.1,0.1 -3.1,0 -3.2,0 -3.1,-0.2 -3.1,-0.3 -3.1,-0.4 -3.1,-0.4 -3.2,-0.6 -3.1,-0.7 -3.1,-0.7 -3.1,-0.9 -3.1,-0.9 -3.1,-1.1 -3.2,-1.1 -3.1,-1.2 -3.1,-1.3 -3.1,-1.4 -3.1,-1.5 -3.2,-1.5 -3.1,-1.5 -3.1,-1.6 -3.1,-1.7 -3.1,-1.8 -3.2,-1.8 -3.1,-1.9 -3.1,-1.9 -3.1,-2 -3,-1.9 -3.2,-2 -3.1,-2.1 -3.1,-2 -3.1,-2.1 -3.1,-2.1 -3.2,-2 -3.1,-2.1 -3.1,-2.1 -3.1,-2.1 -3.1,-2 -3.2,-2.1 -3.1,-2 -3.1,-2 -3.1,-2.1 -3.1,-2 -3.2,-2 -3.1,-1.9 -3.1,-2 -3.1,-2 -3.1,-2 -3.2,-1.9 -3.1,-2 -3.1,-1.9 -3.1,-1.9 -3.1,-2 -3.2,-1.9 -3.1,-1.9 -3.1,-1.9 -3.1,-1.9 -3.1,-1.8 -3.1,-1.9 -3.2,-1.8 -3.1,-1.7 -3.1,-1.8 -3.1,-1.7 -3.1,-1.6 -3.2,-1.6 -3.1,-1.6 -3.1,-1.5 -3.1,-1.4 -3.1,-1.4 -3.2,-1.4 -3.1,-1.2 -3.1,-1.3 -3.1,-1.1 -3.1,-1.2 -3.2,-1 -3.1,-1.1 -3.1,-0.9 h 0.01" />
    <path
       inkscape:connector-curvature="0"
       id="path160"
       d="m 455.8,207.9 -3.1,1.7 -3.1,1.6 -3.2,1.5 -3.1,1.5 -3.1,1.5 -3.1,1.4 -3.1,1.3 -3.2,1.3 -3.1,1.2 -3.1,1.2 -3.1,1.1 -3.1,1 -3.2,0.9 -3.1,0.9 -3.1,0.8 -3.1,0.7 -3.1,0.6 -3.2,0.6 -3.1,0.4 -3.1,0.4 -3.1,0.3 -3.1,0.2 -3.1,0.1 -3.2,0 -3.1,-0.1 -3.1,-0.1 -3.1,-0.3 -3.1,-0.3 -3.2,-0.5 -3.1,-0.5 -3.1,-0.6 -3.1,-0.7 -3.1,-0.8 -3.2,-0.9 -3.1,-0.9 -3.1,-1 -3.1,-1.1 -3.1,-1.2 -3.2,-1.2 -3.1,-1.3 -3.1,-1.4 -3.1,-1.4 -3.1,-1.5 -3.2,-1.5 -3.1,-1.6 -3.1,-1.5 -3.1,-1.7 -3.1,-1.6 -3.2,-1.7 -3,-1.7 -3.1,-1.6 -3.1,-1.7 -3.1,-1.7 -3.2,-1.7 -3.1,-1.6 -3.1,-1.6 -3.1,-1.6 -3.1,-1.6 -3.2,-1.5 -3.1,-1.6 -3.1,-1.5 -3.1,-1.4 -3.1,-1.5 -3.2,-1.4 -3.1,-1.5 -3.1,-1.4 -3.1,-1.5 -3.1,-1.4 -3.1,-1.5 -3.2,-1.6 -3.1,-1.5 -3.1,-1.6 -3.1,-1.7 -3.1,-1.7 -3.2,-1.8 -3.1,-1.8 -3.1,-1.8 -3.1,-1.9 -3.1,-2 -3.2,-1.9 -3.1,-2 -3.1,-1.9 -3.1,-2 -3.1,-1.9 -3.2,-2 -3.1,-1.8 -3.1,-1.9 -3.1,-1.7 -3.1,-1.8 -3.2,-1.6 -3.1,-1.6 -3.1,-1.5 -3.1,-1.4 -3.1,-1.4 -3.2,-1.3 -3.1,-1.2 -3.1,-1.1 -3.1,-1.1 -3.1,-1 m 311.6,70.5 -3.2,1.4 -3.1,1.4 -3.1,1.3 -3.1,1.3 -3.1,1.3 -3.2,1.2 -3.1,1.2 -3.1,1.1 -3.1,1.1 -3.1,1 -3.1,0.9 -3.2,0.9 -3.1,0.8 -3.1,0.8 -3.1,0.7 -3.1,0.6 -3.2,0.5 -3.1,0.5 -3.1,0.4 -3.1,0.3 -3.1,0.3 -3.2,0.1 -3.1,0.1 -3.1,0 -3.1,-0.1 -3.1,-0.1 -3.2,-0.3 -3.1,-0.3 -3.1,-0.4 -3.1,-0.5 -3.1,-0.5 -3.2,-0.6 -3.1,-0.7 -3.1,-0.8 -3.1,-0.8 -3.1,-0.9 -3.2,-1 -3.1,-1 -3.1,-1.1 -3.1,-1.1 -3.1,-1.2 -3.2,-1.2 -3.1,-1.3 -3.1,-1.2 -3.1,-1.3 -3.1,-1.3 -3.2,-1.3 -3.1,-1.3 -3.1,-1.3 -3.1,-1.2 -3,-1.2 -3.1,-1.2 -3.2,-1.1 -3.1,-1.1 -3.1,-1 -3.1,-0.9 -3.1,-0.8 -3.2,-0.8 -3.1,-0.7 -3.1,-0.6 -3.1,-0.6 -3.1,-0.5 -3.2,-0.5 -3.1,-0.5 -3.1,-0.5 -3.1,-0.6 -3.1,-0.6 -3.2,-0.6 -3.1,-0.7 -3.1,-0.9 -3.1,-1 -3.1,-1.1 -3.2,-1.3 -3.1,-1.4 -3.1,-1.6 -3.1,-1.7 -3.1,-1.9 -3.2,-2.1 -3.1,-2.2 -3.1,-2.2 -3.1,-2.4 -3.1,-2.4 -3.2,-2.5 -3.1,-2.5 -3.1,-2.5 -3.1,-2.4 -3.1,-2.4 -3.2,-2.4 -3.1,-2.2 -3.1,-2.2 -3.1,-2 -3.1,-2 -3.2,-1.8 -3.1,-1.7 -3.1,-1.6 -3.1,-1.5 -3.1,-1.3 -3.1,-1.3 -3.2,-1.1 m 311.6,60.2 -3.1,1.2 -3.1,1.2 -3.1,1.1 -3.1,1.1 -3.2,1.1 -3.1,1 -3.1,1 -3.1,1 -3.1,0.9 -3.2,0.8 -3.1,0.8 -3.1,0.8 -3.1,0.7 -3.1,0.6 -3.2,0.6 -3.1,0.5 -3.1,0.5 -3.1,0.4 -3.1,0.3 -3.2,0.2 -3.1,0.2 -3.1,0.2 -3.1,0 -3.1,0 -3.2,-0.1 -3.1,-0.1 -3.1,-0.3 -3.1,-0.2 -3.1,-0.4 -3.2,-0.4 -3.1,-0.5 -3.1,-0.5 -3.1,-0.6 -3.1,-0.7 -3.2,-0.7 -3.1,-0.8 -3.1,-0.8 -3.1,-0.9 -3.1,-0.9 -3.1,-0.9 -3.2,-1 -3.1,-1 -3.1,-1 -3.1,-1 -3.1,-0.9 -3.2,-1 -3.1,-0.9 -3.1,-0.8 -3.1,-0.8 -3.1,-0.7 -3.2,-0.7 -3,-0.5 -3.1,-0.3 -3.1,-0.3 -3.1,-0.1 -3.2,0 -3.1,0.2 -3.1,0.3 -3.1,0.5 -3.1,0.5 -3.2,0.7 -3.1,0.8 -3.1,0.8 -3.1,0.8 -3.1,0.8 -3.2,0.7 -3.1,0.6 -3.1,0.5 -3.1,0.3 -3.1,0 -3.2,-0.2 -3.1,-0.4 -3.1,-0.8 -3.1,-1.1 -3.1,-1.5 -3.2,-1.7 -3.1,-2.1 -3.1,-2.3 -3.1,-2.7 -3.1,-2.8 -3.2,-3.1 -3.1,-3.2 -3.1,-3.3 -3.1,-3.3 -3.1,-3.4 -3.1,-3.4 -3.2,-3.3 -3.1,-3.3 -3.1,-3.1 -3.1,-3 -3.1,-2.8 -3.2,-2.6 -3.1,-2.5 -3.1,-2.2 -3.1,-2.1 -3.1,-1.9 -3.2,-1.8 -3.1,-1.6 -3.1,-1.4 m 311.6,49.7 -3.1,1 -3.1,1 -3.2,0.9 -3.1,1 -3.1,0.8 -3.1,0.9 -3.1,0.8 -3.2,0.8 -3.1,0.8 -3.1,0.7 -3.1,0.6 -3.1,0.6 -3.2,0.6 -3.1,0.5 -3.1,0.5 -3.1,0.4 -3.1,0.4 -3.2,0.3 -3.1,0.2 -3.1,0.3 -3.1,0.1 -3.1,0.1 -3.2,0 -3.1,0 -3.1,-0.1 -3.1,-0.1 -3.1,-0.2 -3.1,-0.3 -3.2,-0.3 -3.1,-0.4 -3.1,-0.4 -3.1,-0.4 -3.1,-0.6 -3.2,-0.5 -3.1,-0.6 -3.1,-0.7 -3.1,-0.7 -3.1,-0.7 -3.2,-0.7 -3.1,-0.8 -3.1,-0.7 -3.1,-0.8 -3.1,-0.7 -3.2,-0.7 -3.1,-0.7 -3.1,-0.6 -3.1,-0.5 -3.1,-0.4 -3.2,-0.3 -3.1,-0.2 -3.1,0 -3.1,0.2 -3,0.4 -3.2,0.5 -3.1,0.8 -3.1,1 -3.1,1.2 -3.1,1.5 -3.2,1.6 -3.1,1.8 -3.1,2 -3.1,2 -3.1,2.2 -3.2,2.1 -3.1,2.2 -3.1,2 -3.1,1.8 -3.1,1.6 -3.1,1.4 -3.2,1 -3.1,0.6 -3.1,0.1 -3.1,-0.2 -3.1,-0.8 -3.2,-1.3 -3.1,-1.8 -3.1,-2.2 -3.1,-2.7 -3.1,-3.1 -3.2,-3.5 -3.1,-3.7 -3.1,-4 -3.1,-4.2 -3.1,-4.3 -3.2,-4.4 -3.1,-4.3 -3.1,-4.3 -3.1,-4.2 -3.1,-4 -3.2,-3.8 -3.1,-3.6 -3.1,-3.4 -3.1,-3.1 -3.1,-2.9 -3.2,-2.6 -3.1,-2.4 -3.1,-2.1 -3.1,-1.9 -3.1,-1.7 m 311.6,39.6 -3.2,0.9 -3.1,0.7 -3.1,0.8 -3.1,0.8 -3.1,0.7 -3.2,0.7 -3.1,0.6 -3.1,0.7 -3.1,0.5 -3.1,0.6 -3.1,0.5 -3.2,0.5 -3.1,0.5 -3.1,0.4 -3.1,0.4 -3.1,0.3 -3.2,0.3 -3.1,0.2 -3.1,0.2 -3.1,0.1 -3.1,0.1 -3.2,0.1 -3.1,0 -3.1,0 -3.1,-0.1 -3.1,-0.1 -3.2,-0.2 -3.1,-0.2 -3.1,-0.3 -3.1,-0.3 -3.1,-0.4 -3.2,-0.4 -3.1,-0.4 -3.1,-0.5 -3.1,-0.5 -3.1,-0.5 -3.2,-0.6 -3.1,-0.6 -3.1,-0.6 -3.1,-0.6 -3.1,-0.5 -3.2,-0.6 -3.1,-0.5 -3.1,-0.5 -3.1,-0.4 -3.1,-0.3 -3.2,-0.3 -3.1,-0.1 -3.1,0.1 -3.1,0.2 -3.1,0.4 -3.2,0.7 -3.1,0.8 -3,1.1 -3.1,1.4 -3.1,1.6 -3.1,1.9 -3.2,2.2 -3.1,2.4 -3.1,2.6 -3.1,2.7 -3.1,2.9 -3.2,3 -3.1,3 -3.1,3 -3.1,2.8 -3.1,2.6 -3.2,2.4 -3.1,2 -3.1,1.6 -3.1,1.1 -3.1,0.6 -3.2,0.1 -3.1,-0.5 -3.1,-1.2 -3.1,-1.7 -3.1,-2.2 -3.2,-2.8 -3.1,-3.3 -3.1,-3.8 -3.1,-4.1 -3.1,-4.4 -3.2,-4.6 -3.1,-4.7 -3.1,-4.9 -3.1,-4.8 -3.1,-4.8 -3.2,-4.6 -3.1,-4.5 -3.1,-4.3 -3.1,-4 -3.1,-3.7 -3.2,-3.5 -3.1,-3.2 -3.1,-2.8 -3.1,-2.6 -3.1,-2.3 -3.2,-2.1 -3.1,-1.8 m 311.6,31.2 -3.1,0.6 -3.1,0.6 -3.1,0.6 -3.1,0.6 -3.2,0.6 -3.1,0.5 -3.1,0.5 -3.1,0.5 -3.1,0.5 -3.2,0.4 -3.1,0.4 -3.1,0.4 -3.1,0.3 -3.1,0.3 -3.2,0.3 -3.1,0.3 -3.1,0.2 -3.1,0.1 -3.1,0.2 -3.2,0.1 -3.1,0 -3.1,0.1 -3.1,0 -3.1,-0.1 -3.2,-0.1 -3.1,-0.1 -3.1,-0.2 -3.1,-0.2 -3.1,-0.2 -3.2,-0.3 -3.1,-0.3 -3.1,-0.3 -3.1,-0.4 -3.1,-0.4 -3.2,-0.4 -3.1,-0.5 -3.1,-0.4 -3.1,-0.5 -3.1,-0.5 -3.2,-0.4 -3.1,-0.5 -3.1,-0.4 -3.1,-0.4 -3.1,-0.4 -3.1,-0.3 -3.2,-0.2 -3.1,0 -3.1,0 -3.1,0.2 -3.1,0.3 -3.2,0.5 -3.1,0.7 -3.1,1 -3.1,1.2 -3,1.4 -3.2,1.7 -3.1,1.9 -3.1,2.2 -3.1,2.4 -3.1,2.6 -3.2,2.7 -3.1,2.9 -3.1,2.9 -3.1,3 -3.1,2.9 -3.2,2.8 -3.1,2.7 -3.1,2.3 -3.1,2 -3.1,1.7 -3.2,1.2 -3.1,0.7 -3.1,0.2 -3.1,-0.4 -3.1,-0.9 -3.2,-1.5 -3.1,-2.1 -3.1,-2.5 -3.1,-3 -3.1,-3.5 -3.2,-3.7 -3.1,-4.1 -3.1,-4.3 -3.1,-4.4 -3.1,-4.5 -3.2,-4.5 -3.1,-4.4 -3.1,-4.3 -3.1,-4.2 -3.1,-4 -3.1,-3.7 -3.2,-3.5 -3.1,-3.2 -3.1,-2.9 -3.1,-2.7 -3.1,-2.4 -3.2,-2.1 -3.1,-1.9 -3.1,-1.7 h 0.01" />
    <path
       inkscape:connector-curvature="0"
       id="path162"
       d="m 473,132.8 -3.1,0.5 -3.1,0.4 -3.2,0.5 -3.1,0.4 -3.1,0.4 -3.1,0.4 -3.1,0.4 -3.2,0.4 -3.1,0.3 -3.1,0.4 -3.1,0.3 -3.1,0.2 -3.2,0.3 -3.1,0.2 -3.1,0.2 -3.1,0.2 -3.1,0.1 -3.2,0.1 -3.1,0.1 -3.1,0.1 -3.1,0 -3.1,0 -3.2,0 -3.1,-0.1 -3.1,-0.1 -3.1,-0.1 -3.1,-0.1 -3.1,-0.2 -3.2,-0.2 -3.1,-0.3 -3.1,-0.2 -3.1,-0.3 -3.1,-0.3 -3.2,-0.4 -3.1,-0.3 -3.1,-0.4 -3.1,-0.4 -3.1,-0.4 -3.2,-0.4 -3.1,-0.4 -3.1,-0.4 -3.1,-0.3 -3.1,-0.4 -3.2,-0.3 -3.1,-0.2 -3.1,-0.2 -3.1,-0.1 -3.1,-0.1 -3.2,0.1 -3.1,0.2 -3.1,0.4 -3.1,0.5 -3.1,0.6 -3.2,0.9 -3.1,1 -3,1.3 -3.1,1.4 -3.1,1.6 -3.2,1.7 -3.1,1.9 -3.1,2.1 -3.1,2.1 -3.1,2.2 -3.2,2.2 -3.1,2.2 -3.1,2.1 -3.1,1.9 -3.1,1.7 -3.2,1.5 -3.1,1.2 -3.1,0.9 -3.1,0.5 -3.1,0.1 -3.1,-0.4 -3.2,-0.7 -3.1,-1.2 -3.1,-1.6 -3.1,-2 -3.1,-2.3 -3.2,-2.6 -3.1,-2.9 -3.1,-3.2 -3.1,-3.2 -3.1,-3.4 -3.2,-3.5 -3.1,-3.4 -3.1,-3.4 -3.1,-3.3 -3.1,-3.2 -3.2,-3.1 -3.1,-2.8 -3.1,-2.7 -3.1,-2.5 -3.1,-2.2 -3.2,-2.1 -3.1,-1.8 -3.1,-1.7 -3.1,-1.5 -3.1,-1.3 m 311.6,20.8 -3.2,0.4 -3.1,0.3 -3.1,0.4 -3.1,0.3 -3.1,0.3 -3.2,0.3 -3.1,0.2 -3.1,0.3 -3.1,0.2 -3.1,0.3 -3.2,0.2 -3.1,0.2 -3.1,0.1 -3.1,0.2 -3.1,0.1 -3.1,0.1 -3.2,0.1 -3.1,0.1 -3.1,0 -3.1,0 -3.1,0 -3.2,0 -3.1,0 -3.1,-0.1 -3.1,-0.1 -3.1,-0.1 -3.2,-0.2 -3.1,-0.1 -3.1,-0.2 -3.1,-0.2 -3.1,-0.2 -3.2,-0.3 -3.1,-0.2 -3.1,-0.3 -3.1,-0.3 -3.1,-0.3 -3.2,-0.4 -3.1,-0.3 -3.1,-0.4 -3.1,-0.3 -3.1,-0.3 -3.2,-0.4 -3.1,-0.3 -3.1,-0.3 -3.1,-0.3 -3.1,-0.2 -3.2,-0.2 -3.1,-0.2 -3.1,-0.1 -3.1,0 -3.1,0.1 -3.2,0.2 -3.1,0.2 -3.1,0.4 -3.1,0.5 -3.1,0.6 -3.1,0.7 -3.1,0.9 -3.1,0.9 -3.1,1 -3.1,1.1 -3.1,1.2 -3.2,1.1 -3.1,1.2 -3.1,1.2 -3.1,1.1 -3.1,1.1 -3.2,0.9 -3.1,0.8 -3.1,0.5 -3.1,0.4 -3.1,0.2 -3.2,-0.1 -3.1,-0.3 -3.1,-0.6 -3.1,-0.8 -3.1,-1.1 -3.2,-1.4 -3.1,-1.5 -3.1,-1.7 -3.1,-1.9 -3.1,-2 -3.2,-2.1 -3.1,-2.2 -3.1,-2.2 -3.1,-2.2 -3.1,-2.1 -3.2,-2.2 -3.1,-2 -3.1,-1.9 -3.1,-1.9 -3.1,-1.7 -3.2,-1.6 -3.1,-1.4 -3.1,-1.4 -3.1,-1.2 -3.1,-1.1 -3.2,-0.9 -3.1,-0.9 m 311.6,17.9 -3.1,0.3 -3.1,0.2 -3.1,0.2 -3.1,0.2 -3.2,0.3 -3.1,0.1 -3.1,0.2 -3.1,0.2 -3.1,0.2 -3.2,0.1 -3.1,0.1 -3.1,0.1 -3.1,0.1 -3.1,0.1 -3.2,0.1 -3.1,0.1 -3.1,0 -3.1,0 -3.1,0 -3.2,0 -3.1,0 -3.1,0 -3.1,-0.1 -3.1,-0.1 -3.2,-0.1 -3.1,-0.1 -3.1,-0.1 -3.1,-0.1 -3.1,-0.2 -3.2,-0.2 -3.1,-0.2 -3.1,-0.2 -3.1,-0.2 -3.1,-0.3 -3.2,-0.2 -3.1,-0.3 -3.1,-0.3 -3.1,-0.3 -3.1,-0.3 -3.2,-0.3 -3.1,-0.3 -3.1,-0.3 -3.1,-0.3 -3.1,-0.3 -3.2,-0.3 -3.1,-0.2 -3.1,-0.3 -3.1,-0.2 -3.1,-0.3 -3.1,-0.1 -3.2,-0.2 -3.1,-0.1 -3.1,0 -3.1,0 -3.1,0.1 -3.2,0.1 -3.1,0.1 -3,0.3 -3.1,0.2 -3.1,0.3 -3.2,0.4 -3.1,0.4 -3.1,0.4 -3.1,0.4 -3.1,0.4 -3.2,0.3 -3.1,0.3 -3.1,0.3 -3.1,0.2 -3.1,0.1 -3.2,0 -3.1,0 -3.1,-0.3 -3.1,-0.3 -3.1,-0.4 -3.2,-0.6 -3.1,-0.7 -3.1,-0.8 -3.1,-0.9 -3.1,-1 -3.2,-1 -3.1,-1.2 -3.1,-1.1 -3.1,-1.2 -3.1,-1.2 -3.2,-1.2 -3.1,-1.2 -3.1,-1.2 -3.1,-1.1 -3.1,-1.1 -3.1,-1 -3.2,-0.9 -3.1,-0.9 -3.1,-0.9 -3.1,-0.7 -3.1,-0.7 -3.2,-0.6 -3.1,-0.6 -3.1,-0.5 m 311.6,15.6 -3.1,0.2 -3.1,0.1 -3.2,0.1 -3.1,0.2 -3.1,0.1 -3.1,0.1 -3.1,0.1 -3.2,0.1 -3.1,0.1 -3.1,0.1 -3.1,0.1 -3.1,0 -3.2,0.1 -3.1,0 -3.1,0 -3.1,0.1 -3.1,0 -3.2,0 -3.1,-0.1 -3.1,0 -3.1,0 -3.1,-0.1 -3.2,-0.1 -3.1,0 -3.1,-0.1 -3.1,-0.1 -3.1,-0.2 -3.2,-0.1 -3.1,-0.1 -3.1,-0.2 -3.1,-0.2 -3.1,-0.2 -3.1,-0.2 -3.2,-0.2 -3.1,-0.2 -3.1,-0.2 -3.1,-0.2 -3.1,-0.3 -3.2,-0.2 -3.1,-0.3 -3.1,-0.3 -3.1,-0.2 -3.1,-0.3 -3.2,-0.3 -3.1,-0.3 -3.1,-0.2 -3.1,-0.3 -3.1,-0.3 -3.2,-0.2 -3.1,-0.3 -3.1,-0.2 -3.1,-0.2 -3.1,-0.2 -3.2,-0.2 -3.1,-0.2 -3.1,-0.1 -3.1,-0.2 -3.1,-0.1 -3.1,0 -3.1,-0.1 -3.1,-0.1 -3.1,0 -3.1,0 -3.2,-0.1 -3.1,0 -3.1,-0.1 -3.1,0 -3.1,-0.1 -3.2,-0.1 -3.1,-0.1 -3.1,-0.2 -3.1,-0.2 -3.1,-0.3 -3.2,-0.3 -3.1,-0.3 -3.1,-0.4 -3.1,-0.5 -3.1,-0.4 -3.1,-0.5 -3.2,-0.6 -3.1,-0.6 -3.1,-0.5 -3.1,-0.7 -3.1,-0.6 -3.2,-0.6 -3.1,-0.6 -3.1,-0.6 -3.1,-0.6 -3.1,-0.6 -3.2,-0.5 -3.1,-0.5 -3.1,-0.5 -3.1,-0.5 -3.1,-0.4 -3.2,-0.5 -3.1,-0.3 -3.1,-0.4 -3.1,-0.3 -3.1,-0.4 h 0.01" />
  </g>
  <path
     d="m 202.72297,101.22812 a 3.5565436,3.5565436 0 1 1 -7.11309,0 3.5565436,3.5565436 0 1 1 7.11309,0 z"
     sodipodi:ry="3.5565436"
     sodipodi:rx="3.5565436"
     sodipodi:cy="101.22812"
     sodipodi:cx="199.16643"
     id="path3302"
     style="fill:#0000ff;stroke:#0000ff;stroke-width:1;stroke-linecap:round;stroke-linejoin:round;stroke-miterlimit:4;stroke-opacity:1;stroke-dasharray:none;stroke-dashoffset:0"
     sodipodi:type="arc" />
  <path
     inkscape:connector-curvature="0"
     id="path3304"
     d="m 200.35195,103.00639 24.8958,48.6061"
     style="stroke-linejoin:miter;marker-end:url(#Arrow1Mendc);stroke-opacity:1;stroke:#0000ff;stroke-linecap:butt;stroke-width:1px;fill:none" />
</svg>
