<?xml version="1.0" encoding="UTF-8" standalone="no"?>
<!-- Created with Inkscape (http://www.inkscape.org/) -->

<svg
   xmlns:dc="http://purl.org/dc/elements/1.1/"
   xmlns:cc="http://creativecommons.org/ns#"
   xmlns:rdf="http://www.w3.org/1999/02/22-rdf-syntax-ns#"
   xmlns:svg="http://www.w3.org/2000/svg"
   xmlns="http://www.w3.org/2000/svg"
   xmlns:xlink="http://www.w3.org/1999/xlink"
   xmlns:sodipodi="http://sodipodi.sourceforge.net/DTD/sodipodi-0.dtd"
   xmlns:inkscape="http://www.inkscape.org/namespaces/inkscape"
   width="210mm"
   height="297mm"
   id="svg2"
   version="1.1"
   inkscape:version="0.48.4 r9939"
   sodipodi:docname="manifold.svg"
   inkscape:export-filename="\\euler\nineties\projects\prml-seminar\fig\manifold.png"
   inkscape:export-xdpi="119.04"
   inkscape:export-ydpi="119.04">
  <sodipodi:namedview
     id="base"
     pagecolor="#ffffff"
     bordercolor="#666666"
     borderopacity="1.0"
     inkscape:pageopacity="0.0"
     inkscape:pageshadow="2"
     inkscape:zoom="0.7"
     inkscape:cx="417.13842"
     inkscape:cy="717.68619"
     inkscape:document-units="px"
     inkscape:current-layer="layer1"
     showgrid="false"
     inkscape:window-width="1366"
     inkscape:window-height="746"
     inkscape:window-x="-8"
     inkscape:window-y="-8"
     inkscape:window-maximized="1" />
  <defs
     id="defs4">
    <marker
       inkscape:stockid="Arrow1Lstart"
       orient="auto"
       refY="0.0"
       refX="0.0"
       id="Arrow1Lstart"
       style="overflow:visible">
      <path
         id="path4005"
         d="M 0.0,0.0 L 5.0,-5.0 L -12.5,0.0 L 5.0,5.0 L 0.0,0.0 z "
         style="fill-rule:evenodd;stroke:#000000;stroke-width:1.0pt"
         transform="scale(0.8) translate(12.5,0)" />
    </marker>
    <marker
       inkscape:stockid="Arrow1Lend"
       orient="auto"
       refY="0.0"
       refX="0.0"
       id="Arrow1Lend"
       style="overflow:visible;">
      <path
         id="path4008"
         d="M 0.0,0.0 L 5.0,-5.0 L -12.5,0.0 L 5.0,5.0 L 0.0,0.0 z "
         style="fill-rule:evenodd;stroke:#000000;stroke-width:1.0pt;"
         transform="scale(0.8) rotate(180) translate(12.5,0)" />
    </marker>
  </defs>
  <metadata
     id="metadata7">
    <rdf:RDF>
      <cc:Work
         rdf:about="">
        <dc:format>image/svg+xml</dc:format>
        <dc:type
           rdf:resource="http://purl.org/dc/dcmitype/StillImage" />
        <dc:title></dc:title>
      </cc:Work>
    </rdf:RDF>
  </metadata>
  <g
     inkscape:label="レイヤー 1"
     inkscape:groupmode="layer"
     id="layer1">
    <path
       style="fill:none;stroke:#000000;stroke-width:1px;stroke-linecap:butt;stroke-linejoin:miter;stroke-opacity:1;marker-end:url(#Arrow1Lend)"
       d="m 534.28571,599.50504 332.85715,0"
       id="path4680"
       inkscape:connector-curvature="0" />
    <path
       style="fill:none;stroke:#000000;stroke-width:1px;stroke-linecap:butt;stroke-linejoin:miter;stroke-opacity:1;marker-end:url(#Arrow1Lend)"
       d="m 547.14286,608.07647 0,-347.14286"
       id="path4682"
       inkscape:connector-curvature="0" />
    <path
       style="fill:#ffd5e5;stroke:#000000;stroke-width:1px;stroke-linecap:butt;stroke-linejoin:miter;stroke-opacity:1"
       d="m 704.28571,550.93361 c -36.01047,-8.74411 -70.39525,-27.67449 -94.49237,-56.15653 -15.93351,-18.60839 -24.24582,-45.40448 -15.06949,-69.01139 2.89268,-16.05422 22.05549,-16.03569 33.90557,-22.87945 43.1525,-17.29922 86.76021,-33.67866 130.5387,-49.18791 27.01855,-4.94433 54.74058,8.2441 71.09443,29.64979 22.05688,28.19205 31.63752,66.57478 23.60034,101.63971 -8.8076,27.36332 -35.7543,43.25221 -62.02609,50.50885 -28.5797,7.95796 -58.06473,12.50565 -87.55109,15.43693 z"
       id="path4877"
       inkscape:connector-curvature="0" />
    <path
       style="fill:none;stroke:#000000;stroke-width:1px;stroke-linecap:butt;stroke-linejoin:miter;stroke-opacity:1;marker-end:url(#Arrow1Lend);marker-start:url(#Arrow1Lstart)"
       d="m -44.285714,632.36218 c 0,0 157.142854,-154.28571 158.571424,-161.42857 l 250,0"
       id="path4888"
       inkscape:connector-curvature="0" />
    <path
       style="fill:none;stroke:#000000;stroke-width:1px;stroke-linecap:butt;stroke-linejoin:miter;stroke-opacity:1;marker-end:url(#Arrow1Lend)"
       d="m 112.85714,469.50504 0,-245.71429"
       id="path4890"
       inkscape:connector-curvature="0" />
    <path
       style="fill:#f2f2f2;stroke:#000000;stroke-width:1px;stroke-linecap:butt;stroke-linejoin:miter;stroke-opacity:1"
       d="M 71.72593,549.5339 C -70.470725,431.1705 209.11045,269.7955 253.95141,292.77447 341.11179,334.18044 286.886,441.6312 213.70913,462.17736 159.00298,477.79585 137.44892,587.9983 71.72593,549.5339 z"
       id="path4666"
       inkscape:connector-curvature="0"
       sodipodi:nodetypes="cccc" />
    <path
       style="fill:#ffd5e5;stroke:#000000;stroke-width:1px;stroke-linecap:butt;stroke-linejoin:miter;stroke-opacity:1"
       d="m 147.87829,411.85266 c -12.65975,-19.42195 -12.28383,-50.38413 14.52159,-56.58165 20.04055,-10.9374 38.2173,4.65509 54.22569,15.00333 17.18871,6.16236 45.27785,10.91244 37.52219,36.47751 -9.32848,16.08349 -21.58667,38.69123 -42.70045,39.39248 -26.59661,-4.12326 -58.37144,-13.00733 -63.56902,-34.29167 z"
       id="path4866"
       inkscape:connector-curvature="0"
       sodipodi:nodetypes="cccccc" />
    <path
       style="fill:none;stroke:#000000;stroke-width:1px;stroke-linecap:butt;stroke-linejoin:miter;stroke-opacity:1;marker-end:none;marker-start:url(#Arrow1Lstart)"
       d="m 210,392.36218 c 87.08696,-48.98633 191.28225,-56.00168 287.70896,-35.98117 63.01236,8.79359 128.01309,23.48446 179.4339,63.12403"
       id="path5260"
       inkscape:connector-curvature="0" />
    <path
       style="fill:none;stroke:#000000;stroke-width:1px;stroke-linecap:butt;stroke-linejoin:miter;stroke-opacity:1;marker-end:url(#Arrow1Lend)"
       d="m 211.42858,416.6479 c 144.20925,67.94317 300.68523,89.90447 461.42857,34.28572"
       id="path5822"
       inkscape:connector-curvature="0"
       sodipodi:nodetypes="cc" />
    <g
       id="equation_00"
       style="fill:#000000"
       title="$\phi$"
       transform="matrix(3.9466062,0,0,3.9466062,129.23541,74.278281)">
      <defs
         id="defs6039">
        <path
           d="m 4.37,-6.7 c 0,-0.02 0.03,-0.13 0.03,-0.14 0,-0.01 0,-0.1 -0.12,-0.1 -0.1,0 -0.11,0.03 -0.15,0.2 l -0.58,2.31 c -1.59,0.05 -3.06,1.38 -3.06,2.74 0,0.95 0.7,1.74 1.92,1.81 C 2.33,0.43 2.26,0.75 2.18,1.06 2.06,1.53 1.96,1.91 1.96,1.94 c 0,0.1 0.07,0.11 0.12,0.11 0.05,0 0.07,-0.01 0.1,-0.04 C 2.2,1.99 2.26,1.75 2.29,1.61 L 2.67,0.12 C 4.28,0.07 5.73,-1.28 5.73,-2.62 5.73,-3.41 5.2,-4.33 3.81,-4.43 L 4.37,-6.7 z M 2.46,-0.1 C 1.86,-0.13 1.14,-0.48 1.14,-1.48 1.14,-2.68 2,-4.08 3.49,-4.21 L 2.46,-0.1 z m 1.29,-4.11 c 0.76,0.04 1.33,0.5 1.33,1.38 0,1.18 -0.86,2.61 -2.36,2.73 l 1.03,-4.11 z"
           id="equation_00_00"
           inkscape:connector-curvature="0" />
      </defs>
      <g
         id="equation_00_g">
        <use
           x="77"
           xlink:href="#equation_00_00"
           y="63"
           id="use6043"
           width="744.09448"
           height="1052.3622" />
      </g>
    </g>
    <g
       title="$\phi^{-1}$"
       style="fill:#000000"
       id="equation_01"
       transform="matrix(3.9466062,0,0,3.9466062,113.09605,279.90277)">
      <defs
         id="defs6090">
        <path
           id="equation_01_00"
           d="m 5.208,-1.582 c 0.112,0 0.28,0 0.28,-0.168 0,-0.175 -0.161,-0.175 -0.28,-0.175 H 1.036 c -0.112,0 -0.28,0 -0.28,0.168 0,0.175 0.161,0.175 0.28,0.175 h 4.172 z"
           inkscape:connector-curvature="0" />
        <path
           id="equation_01_01"
           d="m 2.345,-4.452 c 0,-0.189 -0.014,-0.196 -0.21,-0.196 C 1.687,-4.207 1.05,-4.2 0.763,-4.2 v 0.252 c 0.168,0 0.63,0 1.015,-0.196 v 3.57 c 0,0.231 0,0.322 -0.7,0.322 H 0.812 V 0 c 0.126,-0.007 0.987,-0.028 1.246,-0.028 0.217,0 1.099,0.021 1.253,0.028 V -0.252 H 3.045 c -0.7,0 -0.7,-0.091 -0.7,-0.322 v -3.878 z"
           inkscape:connector-curvature="0" />
        <path
           id="equation_01_02"
           d="m 4.37,-6.7 c 0,-0.02 0.03,-0.13 0.03,-0.14 0,-0.01 0,-0.1 -0.12,-0.1 -0.1,0 -0.11,0.03 -0.15,0.2 l -0.58,2.31 c -1.59,0.05 -3.06,1.38 -3.06,2.74 0,0.95 0.7,1.74 1.92,1.81 C 2.33,0.43 2.26,0.75 2.18,1.06 2.06,1.53 1.96,1.91 1.96,1.94 c 0,0.1 0.07,0.11 0.12,0.11 0.05,0 0.07,-0.01 0.1,-0.04 C 2.2,1.99 2.26,1.75 2.29,1.61 L 2.67,0.12 C 4.28,0.07 5.73,-1.28 5.73,-2.62 5.73,-3.41 5.2,-4.33 3.81,-4.43 L 4.37,-6.7 z M 2.46,-0.1 C 1.86,-0.13 1.14,-0.48 1.14,-1.48 1.14,-2.68 2,-4.08 3.49,-4.21 L 2.46,-0.1 z m 1.29,-4.11 c 0.76,0.04 1.33,0.5 1.33,1.38 0,1.18 -0.86,2.61 -2.36,2.73 l 1.03,-4.11 z"
           inkscape:connector-curvature="0" />
      </defs>
      <g
         id="equation_01_g">
        <use
           id="use6096"
           y="63"
           xlink:href="#equation_01_02"
           x="77"
           width="744.09448"
           height="1052.3622" />
        <use
           id="use6098"
           y="59.371101"
           xlink:href="#equation_01_00"
           x="82.958298"
           width="744.09448"
           height="1052.3622" />
        <use
           id="use6100"
           y="59.371101"
           xlink:href="#equation_01_01"
           x="89.208397"
           width="744.09448"
           height="1052.3622" />
      </g>
    </g>
    <g
       id="equation_02"
       style="fill:#000000"
       title="$\mathbf{x}$"
       transform="matrix(5.1827542,0,0,5.1827542,-220.13514,89.343624)">
      <defs
         id="defs6165">
        <path
           d="m 3.46,-2.46 1.17,-1.3 C 4.76,-3.9 4.82,-3.97 5.65,-3.97 V -4.44 C 5.3,-4.42 4.78,-4.41 4.73,-4.41 4.48,-4.41 3.98,-4.43 3.7,-4.44 v 0.47 c 0.14,0 0.26,0.02 0.38,0.09 C 4.04,-3.82 4.04,-3.8 4,-3.76 L 3.16,-2.82 2.18,-3.97 h 0.4 v -0.47 c -0.26,0.01 -0.89,0.03 -1.21,0.03 -0.32,0 -0.77,-0.02 -1.1,-0.03 v 0.47 h 0.71 l 1.56,1.84 -1.31,1.47 C 1.06,-0.47 0.7,-0.47 0.22,-0.47 V 0 c 0.35,-0.02 0.87,-0.03 0.92,-0.03 0.25,0 0.83,0.02 1.03,0.03 v -0.47 c -0.18,0 -0.37,-0.05 -0.37,-0.11 0,-0.01 0,-0.02 0.07,-0.1 l 0.97,-1.09 1.1,1.3 H 3.55 V 0 c 0.26,-0.01 0.87,-0.03 1.2,-0.03 0.32,0 0.77,0.02 1.1,0.03 V -0.47 H 5.14 L 3.46,-2.46 z"
           id="equation_02_00"
           inkscape:connector-curvature="0" />
      </defs>
      <g
         id="equation_02_g">
        <use
           x="77"
           xlink:href="#equation_02_00"
           y="63"
           id="use6169"
           width="744.09448"
           height="1052.3622" />
      </g>
    </g>
    <g
       title="$\mathbf{z}$"
       style="fill:#000000"
       id="equation_03"
       transform="matrix(5.1827542,0,0,5.1827542,287.00772,123.62934)">
      <defs
         id="defs6244">
        <path
           id="equation_03_00"
           d="m 4.49,-4.01 c 0.08,-0.11 0.1,-0.13 0.1,-0.22 0,-0.21 -0.14,-0.21 -0.32,-0.21 H 0.6 l -0.12,1.75 h 0.47 c 0.06,-1.03 0.37,-1.39 1.4,-1.39 H 3.2 L 0.41,-0.44 C 0.32,-0.33 0.32,-0.31 0.32,-0.22 0.32,0 0.45,0 0.64,0 h 3.8 L 4.62,-2.02 H 4.15 C 4.06,-1.01 3.9,-0.4 2.58,-0.4 H 1.72 l 2.77,-3.61 z"
           inkscape:connector-curvature="0" />
      </defs>
      <g
         id="equation_03_g">
        <use
           id="use6248"
           y="63"
           xlink:href="#equation_03_00"
           x="77"
           width="744.09448"
           height="1052.3622" />
      </g>
    </g>
  </g>
</svg>
