<?xml version="1.0" encoding="UTF-8" standalone="no"?>
<!-- Created with Inkscape (http://www.inkscape.org/) -->

<svg
   xmlns:dc="http://purl.org/dc/elements/1.1/"
   xmlns:cc="http://creativecommons.org/ns#"
   xmlns:rdf="http://www.w3.org/1999/02/22-rdf-syntax-ns#"
   xmlns:svg="http://www.w3.org/2000/svg"
   xmlns="http://www.w3.org/2000/svg"
   xmlns:xlink="http://www.w3.org/1999/xlink"
   xmlns:sodipodi="http://sodipodi.sourceforge.net/DTD/sodipodi-0.dtd"
   xmlns:inkscape="http://www.inkscape.org/namespaces/inkscape"
   width="210mm"
   height="297mm"
   id="svg2"
   version="1.1"
   inkscape:version="0.48.4 r9939"
   sodipodi:docname="新規ドキュメント 1"
   inkscape:export-filename="\\euler\nineties\projects\prml-seminar\fig\markov-chain-example.png"
   inkscape:export-xdpi="90"
   inkscape:export-ydpi="90">
  <sodipodi:namedview
     id="base"
     pagecolor="#ffffff"
     bordercolor="#666666"
     borderopacity="1.0"
     inkscape:pageopacity="0.0"
     inkscape:pageshadow="2"
     inkscape:zoom="0.7"
     inkscape:cx="96.119459"
     inkscape:cy="658.16304"
     inkscape:document-units="px"
     inkscape:current-layer="layer1"
     showgrid="false"
     inkscape:window-width="1366"
     inkscape:window-height="746"
     inkscape:window-x="-8"
     inkscape:window-y="-8"
     inkscape:window-maximized="1" />
  <defs
     id="defs4">
    <marker
       inkscape:stockid="Arrow1Lend"
       orient="auto"
       refY="0.0"
       refX="0.0"
       id="Arrow1Lend"
       style="overflow:visible;">
      <path
         id="path3844"
         d="M 0.0,0.0 L 5.0,-5.0 L -12.5,0.0 L 5.0,5.0 L 0.0,0.0 z "
         style="fill-rule:evenodd;stroke:#000000;stroke-width:1.0pt;"
         transform="scale(0.8) rotate(180) translate(12.5,0)" />
    </marker>
    <marker
       inkscape:stockid="Arrow1Lend"
       orient="auto"
       refY="0"
       refX="0"
       id="Arrow1Lend-0"
       style="overflow:visible">
      <path
         inkscape:connector-curvature="0"
         id="path3844-9"
         d="M 0,0 5,-5 -12.5,0 5,5 0,0 z"
         style="fill-rule:evenodd;stroke:#000000;stroke-width:1pt"
         transform="matrix(-0.8,0,0,-0.8,-10,0)" />
    </marker>
  </defs>
  <metadata
     id="metadata7">
    <rdf:RDF>
      <cc:Work
         rdf:about="">
        <dc:format>image/svg+xml</dc:format>
        <dc:type
           rdf:resource="http://purl.org/dc/dcmitype/StillImage" />
        <dc:title></dc:title>
      </cc:Work>
    </rdf:RDF>
  </metadata>
  <g
     inkscape:label="レイヤー 1"
     inkscape:groupmode="layer"
     id="layer1">
    <path
       sodipodi:type="arc"
       style="fill:#ff0000;fill-opacity:0.11764706000000000;stroke:#000000;stroke-width:1.6;stroke-linecap:round;stroke-miterlimit:4;stroke-opacity:1;stroke-dasharray:none;stroke-dashoffset:0"
       id="path2985"
       sodipodi:cx="329.28571"
       sodipodi:cy="281.64789"
       sodipodi:rx="50.714287"
       sodipodi:ry="50.714287"
       d="m 379.99999,281.64789 a 50.714287,50.714287 0 1 1 -101.42857,0 50.714287,50.714287 0 1 1 101.42857,0 z"
       transform="translate(12.857175,0)" />
    <path
       transform="translate(-192.14285,307.85716)"
       sodipodi:type="arc"
       style="fill:#ff0000;fill-opacity:0.11764706000000000;stroke:#000000;stroke-width:1.6;stroke-linecap:round;stroke-miterlimit:4;stroke-opacity:1;stroke-dasharray:none;stroke-dashoffset:0"
       id="path2985-1"
       sodipodi:cx="329.28571"
       sodipodi:cy="281.64789"
       sodipodi:rx="50.714287"
       sodipodi:ry="50.714287"
       d="m 379.99999,281.64789 a 50.714287,50.714287 0 1 1 -101.42857,0 50.714287,50.714287 0 1 1 101.42857,0 z" />
    <path
       transform="translate(217.85715,307.85716)"
       sodipodi:type="arc"
       style="fill:#ff0000;fill-opacity:0.11764706000000000;stroke:#000000;stroke-width:1.6;stroke-linecap:round;stroke-miterlimit:4;stroke-opacity:1;stroke-dasharray:none;stroke-dashoffset:0"
       id="path2985-1-7"
       sodipodi:cx="329.28571"
       sodipodi:cy="281.64789"
       sodipodi:rx="50.714287"
       sodipodi:ry="50.714287"
       d="m 379.99999,281.64789 a 50.714287,50.714287 0 1 1 -101.42857,0 50.714287,50.714287 0 1 1 101.42857,0 z" />
    <path
       style="fill:none;stroke:#000000;stroke-width:1.5;stroke-linecap:butt;stroke-linejoin:miter;stroke-opacity:1;marker-end:url(#Arrow1Lend);stroke-miterlimit:4;stroke-dasharray:none"
       d="M 380,332.36218 511.42857,538.07647"
       id="path3793"
       inkscape:connector-curvature="0"
       sodipodi:nodetypes="cc" />
    <path
       style="fill:none;stroke:#000000;stroke-width:1.5;stroke-linecap:butt;stroke-linejoin:miter;stroke-opacity:1;marker-end:url(#Arrow1Lend);stroke-miterlimit:4;stroke-dasharray:none"
       d="m 482.85714,592.36218 -287.14285,0"
       id="path3795"
       inkscape:connector-curvature="0" />
    <path
       style="fill:none;stroke:#000000;stroke-width:1.5;stroke-linecap:butt;stroke-linejoin:miter;stroke-opacity:1;marker-end:url(#Arrow1Lend);stroke-miterlimit:4;stroke-dasharray:none"
       d="M 164.28571,532.36218 305.71429,330.93361"
       id="path3797"
       inkscape:connector-curvature="0" />
    <path
       style="fill:none;stroke:#000000;stroke-width:1.5;stroke-linecap:butt;stroke-linejoin:miter;stroke-opacity:1;marker-end:url(#Arrow1Lend);stroke-miterlimit:4;stroke-dasharray:none"
       d="M 528.57143,530.93361 391.42857,325.21933"
       id="path3799"
       inkscape:connector-curvature="0" />
    <path
       style="fill:none;stroke:#000000;stroke-width:1.5;stroke-linecap:butt;stroke-linejoin:miter;stroke-opacity:1;marker-end:url(#Arrow1Lend);stroke-miterlimit:4;stroke-dasharray:none"
       d="m 74.285714,570.93361 c -47.517406,-11.71725 -88.640288,51.98449 -52.513402,88.00966 24.682078,28.48838 77.17878,22.32036 89.656258,-15.15252"
       id="path3805"
       inkscape:connector-curvature="0" />
    <path
       style="fill:none;stroke:#000000;stroke-width:1.5;stroke-linecap:butt;stroke-linejoin:miter;stroke-opacity:1;marker-end:url(#Arrow1Lend);stroke-miterlimit:4;stroke-dasharray:none"
       d="m 385.21967,234.47944 c 33.06004,-36.08646 -3.1353,-102.71154 -52.06897,-88.27333 -36.83326,8.00648 -56.58329,57.03589 -29.67666,85.94847"
       id="path3805-4"
       inkscape:connector-curvature="0" />
    <g
       title="$1$"
       style="fill:#000000"
       id="equation_01"
       transform="matrix(7.4541924,0,0,7.4541924,-252.34709,-164.06008)">
      <defs
         id="defs4345">
        <path
           id="equation_01_00"
           d="m 2.94,-6.4 c 0,-0.24 0,-0.26 -0.23,-0.26 -0.62,0.64 -1.5,0.64 -1.82,0.64 v 0.31 c 0.2,0 0.79,0 1.31,-0.26 v 5.18 c 0,0.36 -0.03,0.48 -0.93,0.48 H 0.95 V 0 c 0.35,-0.03 1.22,-0.03 1.62,-0.03 0.4,0 1.27,0 1.62,0.03 V -0.31 H 3.87 c -0.9,0 -0.93,-0.11 -0.93,-0.48 V -6.4 z"
           inkscape:connector-curvature="0" />
      </defs>
      <g
         id="equation_01_g">
        <use
           id="use4349"
           y="63"
           xlink:href="#equation_01_00"
           x="77"
           width="744.09448"
           height="1052.3622" />
      </g>
    </g>
    <g
       id="equation_02"
       style="fill:#000000"
       title="$2$"
       transform="matrix(7.4541924,0,0,7.4541924,-456.63281,144.51136)">
      <defs
         id="defs4402">
        <path
           d="M 1.27,-0.77 2.33,-1.8 c 1.56,-1.38 2.16,-1.92 2.16,-2.92 0,-1.14 -0.9,-1.94 -2.12,-1.94 -1.13,0 -1.87,0.92 -1.87,1.81 0,0.56 0.5,0.56 0.53,0.56 0.17,0 0.52,-0.12 0.52,-0.53 0,-0.26 -0.18,-0.52 -0.53,-0.52 -0.08,0 -0.1,0 -0.13,0.01 0.23,-0.65 0.77,-1.02 1.35,-1.02 0.91,0 1.34,0.81 1.34,1.63 0,0.8 -0.5,1.59 -1.05,2.21 L 0.61,-0.37 C 0.5,-0.26 0.5,-0.24 0.5,0 H 4.21 L 4.49,-1.74 H 4.24 C 4.19,-1.44 4.12,-1 4.02,-0.85 3.95,-0.77 3.29,-0.77 3.07,-0.77 h -1.8 z"
           id="equation_02_00"
           inkscape:connector-curvature="0" />
      </defs>
      <g
         id="equation_02_g">
        <use
           x="77"
           xlink:href="#equation_02_00"
           y="63"
           id="use4406"
           width="744.09448"
           height="1052.3622" />
      </g>
    </g>
    <g
       title="$3$"
       style="fill:#000000"
       id="equation_03"
       transform="matrix(7.4541924,0,0,7.4541924,-43.775664,145.93993)">
      <defs
         id="defs4469">
        <path
           id="equation_03_00"
           d="m 2.9,-3.52 c 0.82,-0.27 1.4,-0.97 1.4,-1.76 0,-0.82 -0.88,-1.38 -1.84,-1.38 -1.01,0 -1.77,0.6 -1.77,1.36 0,0.33 0.22,0.52 0.51,0.52 0.31,0 0.51,-0.22 0.51,-0.51 0,-0.5 -0.47,-0.5 -0.62,-0.5 0.31,-0.49 0.97,-0.62 1.33,-0.62 0.41,0 0.96,0.22 0.96,1.12 0,0.12 -0.02,0.7 -0.28,1.14 -0.3,0.48 -0.64,0.51 -0.89,0.52 -0.08,0.01 -0.32,0.03 -0.39,0.03 -0.08,0.01 -0.15,0.02 -0.15,0.12 0,0.11 0.07,0.11 0.24,0.11 h 0.44 c 0.82,0 1.19,0.68 1.19,1.66 0,1.36 -0.69,1.65 -1.13,1.65 -0.43,0 -1.18,-0.17 -1.53,-0.76 0.35,0.05 0.66,-0.17 0.66,-0.55 0,-0.36 -0.27,-0.56 -0.56,-0.56 -0.24,0 -0.56,0.14 -0.56,0.58 0,0.91 0.93,1.57 2.02,1.57 1.22,0 2.13,-0.91 2.13,-1.93 0,-0.82 -0.63,-1.6 -1.67,-1.81 z"
           inkscape:connector-curvature="0" />
      </defs>
      <g
         id="equation_03_g">
        <use
           id="use4473"
           y="63"
           xlink:href="#equation_03_00"
           x="77"
           width="744.09448"
           height="1052.3622" />
      </g>
    </g>
    <g
       id="equation_04"
       style="fill:#000000"
       title="$\frac{1}{2}$"
       transform="matrix(5.8691849,0,0,5.8691849,-102.68522,31.261139)">
      <defs
         id="defs4546">
        <path
           d="m 2.345,-4.452 c 0,-0.189 -0.014,-0.196 -0.21,-0.196 C 1.687,-4.207 1.05,-4.2 0.763,-4.2 v 0.252 c 0.168,0 0.63,0 1.015,-0.196 v 3.57 c 0,0.231 0,0.322 -0.7,0.322 H 0.812 V 0 c 0.126,-0.007 0.987,-0.028 1.246,-0.028 0.217,0 1.099,0.021 1.253,0.028 V -0.252 H 3.045 c -0.7,0 -0.7,-0.091 -0.7,-0.322 v -3.878 z"
           id="equation_04_00"
           inkscape:connector-curvature="0" />
        <path
           d="M 3.535,-1.274 H 3.297 C 3.276,-1.12 3.206,-0.707 3.115,-0.637 3.059,-0.595 2.52,-0.595 2.422,-0.595 H 1.134 c 0.735,-0.651 0.98,-0.847 1.4,-1.176 0.518,-0.413 1.001,-0.847 1.001,-1.512 0,-0.847 -0.742,-1.365 -1.638,-1.365 -0.868,0 -1.456,0.609 -1.456,1.253 0,0.357 0.301,0.392 0.371,0.392 0.168,0 0.371,-0.119 0.371,-0.371 0,-0.126 -0.049,-0.371 -0.413,-0.371 0.217,-0.497 0.693,-0.651 1.022,-0.651 0.7,0 1.064,0.546 1.064,1.113 0,0.609 -0.434,1.092 -0.658,1.344 L 0.511,-0.273 C 0.441,-0.21 0.441,-0.196 0.441,0 h 2.884 l 0.21,-1.274 z"
           id="equation_04_01"
           inkscape:connector-curvature="0" />
      </defs>
      <g
         id="equation_04_g">
        <use
           x="78.199997"
           xlink:href="#equation_04_00"
           y="59.062698"
           id="use4551"
           width="744.09448"
           height="1052.3622" />
        <rect
           height="0.399979"
           width="3.98613"
           x="78.199997"
           y="60.299999"
           id="rect4553" />
        <use
           x="78.199997"
           xlink:href="#equation_04_01"
           y="66.448402"
           id="use4555"
           width="744.09448"
           height="1052.3622" />
      </g>
    </g>
    <g
       title="$\frac{1}{2}$"
       style="fill:#000000"
       id="equation_05"
       transform="matrix(5.8691849,0,0,5.8691849,-51.954411,-198.47707)">
      <defs
         id="defs4644">
        <path
           id="equation_05_00"
           d="m 2.345,-4.452 c 0,-0.189 -0.014,-0.196 -0.21,-0.196 C 1.687,-4.207 1.05,-4.2 0.763,-4.2 v 0.252 c 0.168,0 0.63,0 1.015,-0.196 v 3.57 c 0,0.231 0,0.322 -0.7,0.322 H 0.812 V 0 c 0.126,-0.007 0.987,-0.028 1.246,-0.028 0.217,0 1.099,0.021 1.253,0.028 V -0.252 H 3.045 c -0.7,0 -0.7,-0.091 -0.7,-0.322 v -3.878 z"
           inkscape:connector-curvature="0" />
        <path
           id="equation_05_01"
           d="M 3.535,-1.274 H 3.297 C 3.276,-1.12 3.206,-0.707 3.115,-0.637 3.059,-0.595 2.52,-0.595 2.422,-0.595 H 1.134 c 0.735,-0.651 0.98,-0.847 1.4,-1.176 0.518,-0.413 1.001,-0.847 1.001,-1.512 0,-0.847 -0.742,-1.365 -1.638,-1.365 -0.868,0 -1.456,0.609 -1.456,1.253 0,0.357 0.301,0.392 0.371,0.392 0.168,0 0.371,-0.119 0.371,-0.371 0,-0.126 -0.049,-0.371 -0.413,-0.371 0.217,-0.497 0.693,-0.651 1.022,-0.651 0.7,0 1.064,0.546 1.064,1.113 0,0.609 -0.434,1.092 -0.658,1.344 L 0.511,-0.273 C 0.441,-0.21 0.441,-0.196 0.441,0 h 2.884 l 0.21,-1.274 z"
           inkscape:connector-curvature="0" />
      </defs>
      <g
         id="equation_05_g">
        <use
           id="use4649"
           y="59.062698"
           xlink:href="#equation_05_00"
           x="78.199997"
           width="744.09448"
           height="1052.3622" />
        <rect
           id="rect4651"
           y="60.299999"
           x="78.199997"
           width="3.98613"
           height="0.399979" />
        <use
           id="use4653"
           y="66.448402"
           xlink:href="#equation_05_01"
           x="78.199997"
           width="744.09448"
           height="1052.3622" />
      </g>
    </g>
    <g
       id="equation_06"
       style="fill:#000000"
       title="$\frac{1}{3}$"
       transform="matrix(5.8691849,0,0,5.8691849,-489.66281,291.12893)">
      <defs
         id="defs4758">
        <path
           d="m 2.345,-4.452 c 0,-0.189 -0.014,-0.196 -0.21,-0.196 C 1.687,-4.207 1.05,-4.2 0.763,-4.2 v 0.252 c 0.168,0 0.63,0 1.015,-0.196 v 3.57 c 0,0.231 0,0.322 -0.7,0.322 H 0.812 V 0 c 0.126,-0.007 0.987,-0.028 1.246,-0.028 0.217,0 1.099,0.021 1.253,0.028 V -0.252 H 3.045 c -0.7,0 -0.7,-0.091 -0.7,-0.322 v -3.878 z"
           id="equation_06_00"
           inkscape:connector-curvature="0" />
        <path
           d="m 1.911,-2.338 c 0.546,0 0.938,0.378 0.938,1.127 0,0.868 -0.504,1.127 -0.91,1.127 -0.28,0 -0.896,-0.077 -1.19,-0.49 0.329,-0.014 0.406,-0.245 0.406,-0.392 0,-0.224 -0.168,-0.385 -0.385,-0.385 -0.196,0 -0.392,0.119 -0.392,0.406 0,0.658 0.728,1.085 1.575,1.085 0.973,0 1.645,-0.651 1.645,-1.351 0,-0.546 -0.448,-1.092 -1.218,-1.253 0.735,-0.266 1.001,-0.791 1.001,-1.218 0,-0.553 -0.637,-0.966 -1.414,-0.966 -0.777,0 -1.372,0.378 -1.372,0.938 0,0.238 0.154,0.371 0.364,0.371 0.217,0 0.357,-0.161 0.357,-0.357 0,-0.203 -0.14,-0.35 -0.357,-0.364 0.245,-0.308 0.728,-0.385 0.987,-0.385 0.315,0 0.756,0.154 0.756,0.763 0,0.294 -0.098,0.616 -0.28,0.833 -0.231,0.266 -0.427,0.28 -0.777,0.301 -0.175,0.014 -0.189,0.014 -0.224,0.021 -0.014,0 -0.07,0.014 -0.07,0.091 0,0.098 0.063,0.098 0.182,0.098 h 0.378 z"
           id="equation_06_01"
           inkscape:connector-curvature="0" />
      </defs>
      <g
         id="equation_06_g">
        <use
           x="78.199997"
           xlink:href="#equation_06_00"
           y="59.062698"
           id="use4763"
           width="744.09448"
           height="1052.3622" />
        <rect
           height="0.399979"
           width="3.98613"
           x="78.199997"
           y="60.299999"
           id="rect4765" />
        <use
           x="78.199997"
           xlink:href="#equation_06_01"
           y="66.448402"
           id="use4767"
           width="744.09448"
           height="1052.3622" />
      </g>
    </g>
    <g
       title="$\frac{2}{3}$"
       style="fill:#000000"
       id="equation_07"
       transform="matrix(5.8691849,0,0,5.8691849,83.55792,127.90192)">
      <defs
         id="defs4888">
        <path
           id="equation_07_00"
           d="M 3.535,-1.274 H 3.297 C 3.276,-1.12 3.206,-0.707 3.115,-0.637 3.059,-0.595 2.52,-0.595 2.422,-0.595 H 1.134 c 0.735,-0.651 0.98,-0.847 1.4,-1.176 0.518,-0.413 1.001,-0.847 1.001,-1.512 0,-0.847 -0.742,-1.365 -1.638,-1.365 -0.868,0 -1.456,0.609 -1.456,1.253 0,0.357 0.301,0.392 0.371,0.392 0.168,0 0.371,-0.119 0.371,-0.371 0,-0.126 -0.049,-0.371 -0.413,-0.371 0.217,-0.497 0.693,-0.651 1.022,-0.651 0.7,0 1.064,0.546 1.064,1.113 0,0.609 -0.434,1.092 -0.658,1.344 L 0.511,-0.273 C 0.441,-0.21 0.441,-0.196 0.441,0 h 2.884 l 0.21,-1.274 z"
           inkscape:connector-curvature="0" />
        <path
           id="equation_07_01"
           d="m 1.911,-2.338 c 0.546,0 0.938,0.378 0.938,1.127 0,0.868 -0.504,1.127 -0.91,1.127 -0.28,0 -0.896,-0.077 -1.19,-0.49 0.329,-0.014 0.406,-0.245 0.406,-0.392 0,-0.224 -0.168,-0.385 -0.385,-0.385 -0.196,0 -0.392,0.119 -0.392,0.406 0,0.658 0.728,1.085 1.575,1.085 0.973,0 1.645,-0.651 1.645,-1.351 0,-0.546 -0.448,-1.092 -1.218,-1.253 0.735,-0.266 1.001,-0.791 1.001,-1.218 0,-0.553 -0.637,-0.966 -1.414,-0.966 -0.777,0 -1.372,0.378 -1.372,0.938 0,0.238 0.154,0.371 0.364,0.371 0.217,0 0.357,-0.161 0.357,-0.357 0,-0.203 -0.14,-0.35 -0.357,-0.364 0.245,-0.308 0.728,-0.385 0.987,-0.385 0.315,0 0.756,0.154 0.756,0.763 0,0.294 -0.098,0.616 -0.28,0.833 -0.231,0.266 -0.427,0.28 -0.777,0.301 -0.175,0.014 -0.189,0.014 -0.224,0.021 -0.014,0 -0.07,0.014 -0.07,0.091 0,0.098 0.063,0.098 0.182,0.098 h 0.378 z"
           inkscape:connector-curvature="0" />
      </defs>
      <g
         id="equation_07_g">
        <use
           id="use4893"
           y="59.062698"
           xlink:href="#equation_07_00"
           x="78.199997"
           width="744.09448"
           height="1052.3622" />
        <rect
           id="rect4895"
           y="60.299999"
           x="78.199997"
           width="3.98613"
           height="0.399979" />
        <use
           id="use4897"
           y="66.448402"
           xlink:href="#equation_07_01"
           x="78.199997"
           width="744.09448"
           height="1052.3622" />
      </g>
    </g>
    <path
       style="fill:none;stroke:#000000;stroke-width:1.5;stroke-linecap:butt;stroke-linejoin:miter;stroke-miterlimit:4;stroke-opacity:1;stroke-dasharray:none;marker-end:url(#Arrow1Lend)"
       d="m 196.42857,610.93361 287.14285,0"
       id="path3795-4"
       inkscape:connector-curvature="0" />
    <g
       id="equation_06-8"
       style="fill:#000000"
       title="$\frac{1}{3}$"
       transform="matrix(5.8691849,0,0,5.8691849,-249.23934,302.98168)">
      <defs
         id="defs4758-8">
        <path
           d="m 2.345,-4.452 c 0,-0.189 -0.014,-0.196 -0.21,-0.196 C 1.687,-4.207 1.05,-4.2 0.763,-4.2 v 0.252 c 0.168,0 0.63,0 1.015,-0.196 v 3.57 c 0,0.231 0,0.322 -0.7,0.322 H 0.812 V 0 c 0.126,-0.007 0.987,-0.028 1.246,-0.028 0.217,0 1.099,0.021 1.253,0.028 V -0.252 H 3.045 c -0.7,0 -0.7,-0.091 -0.7,-0.322 v -3.878 z"
           id="equation_06_00-2"
           inkscape:connector-curvature="0" />
        <path
           d="m 1.911,-2.338 c 0.546,0 0.938,0.378 0.938,1.127 0,0.868 -0.504,1.127 -0.91,1.127 -0.28,0 -0.896,-0.077 -1.19,-0.49 0.329,-0.014 0.406,-0.245 0.406,-0.392 0,-0.224 -0.168,-0.385 -0.385,-0.385 -0.196,0 -0.392,0.119 -0.392,0.406 0,0.658 0.728,1.085 1.575,1.085 0.973,0 1.645,-0.651 1.645,-1.351 0,-0.546 -0.448,-1.092 -1.218,-1.253 0.735,-0.266 1.001,-0.791 1.001,-1.218 0,-0.553 -0.637,-0.966 -1.414,-0.966 -0.777,0 -1.372,0.378 -1.372,0.938 0,0.238 0.154,0.371 0.364,0.371 0.217,0 0.357,-0.161 0.357,-0.357 0,-0.203 -0.14,-0.35 -0.357,-0.364 0.245,-0.308 0.728,-0.385 0.987,-0.385 0.315,0 0.756,0.154 0.756,0.763 0,0.294 -0.098,0.616 -0.28,0.833 -0.231,0.266 -0.427,0.28 -0.777,0.301 -0.175,0.014 -0.189,0.014 -0.224,0.021 -0.014,0 -0.07,0.014 -0.07,0.091 0,0.098 0.063,0.098 0.182,0.098 h 0.378 z"
           id="equation_06_01-4"
           inkscape:connector-curvature="0" />
      </defs>
      <g
         id="equation_06_g-5">
        <use
           x="78.199997"
           xlink:href="#equation_06_00-2"
           y="59.062698"
           id="use4763-5"
           width="744.09448"
           height="1052.3622" />
        <rect
           height="0.399979"
           width="3.98613"
           x="78.199997"
           y="60.299999"
           id="rect4765-1" />
        <use
           x="78.199997"
           xlink:href="#equation_06_01-4"
           y="66.448402"
           id="use4767-7"
           width="744.09448"
           height="1052.3622" />
      </g>
    </g>
    <g
       id="equation_06-8-1"
       style="fill:#000000"
       title="$\frac{1}{3}$"
       transform="matrix(5.8691849,0,0,5.8691849,-313.52505,98.695968)">
      <defs
         id="defs4758-8-1">
        <path
           d="m 2.345,-4.452 c 0,-0.189 -0.014,-0.196 -0.21,-0.196 C 1.687,-4.207 1.05,-4.2 0.763,-4.2 v 0.252 c 0.168,0 0.63,0 1.015,-0.196 v 3.57 c 0,0.231 0,0.322 -0.7,0.322 H 0.812 V 0 c 0.126,-0.007 0.987,-0.028 1.246,-0.028 0.217,0 1.099,0.021 1.253,0.028 V -0.252 H 3.045 c -0.7,0 -0.7,-0.091 -0.7,-0.322 v -3.878 z"
           id="equation_06_00-2-5"
           inkscape:connector-curvature="0" />
        <path
           d="m 1.911,-2.338 c 0.546,0 0.938,0.378 0.938,1.127 0,0.868 -0.504,1.127 -0.91,1.127 -0.28,0 -0.896,-0.077 -1.19,-0.49 0.329,-0.014 0.406,-0.245 0.406,-0.392 0,-0.224 -0.168,-0.385 -0.385,-0.385 -0.196,0 -0.392,0.119 -0.392,0.406 0,0.658 0.728,1.085 1.575,1.085 0.973,0 1.645,-0.651 1.645,-1.351 0,-0.546 -0.448,-1.092 -1.218,-1.253 0.735,-0.266 1.001,-0.791 1.001,-1.218 0,-0.553 -0.637,-0.966 -1.414,-0.966 -0.777,0 -1.372,0.378 -1.372,0.938 0,0.238 0.154,0.371 0.364,0.371 0.217,0 0.357,-0.161 0.357,-0.357 0,-0.203 -0.14,-0.35 -0.357,-0.364 0.245,-0.308 0.728,-0.385 0.987,-0.385 0.315,0 0.756,0.154 0.756,0.763 0,0.294 -0.098,0.616 -0.28,0.833 -0.231,0.266 -0.427,0.28 -0.777,0.301 -0.175,0.014 -0.189,0.014 -0.224,0.021 -0.014,0 -0.07,0.014 -0.07,0.091 0,0.098 0.063,0.098 0.182,0.098 h 0.378 z"
           id="equation_06_01-4-2"
           inkscape:connector-curvature="0" />
      </defs>
      <g
         id="equation_06_g-5-7">
        <use
           x="78.199997"
           xlink:href="#equation_06_00-2-5"
           y="59.062698"
           id="use4763-5-6"
           width="744.09448"
           height="1052.3622" />
        <rect
           height="0.399979"
           width="3.98613"
           x="78.199997"
           y="60.299999"
           id="rect4765-1-1" />
        <use
           x="78.199997"
           xlink:href="#equation_06_01-4-2"
           y="66.448402"
           id="use4767-7-4"
           width="744.09448"
           height="1052.3622" />
      </g>
    </g>
    <g
       id="equation_06-8-2"
       style="fill:#000000"
       title="$\frac{1}{3}$"
       transform="matrix(5.8691849,0,0,5.8691849,-27.810769,194.41025)">
      <defs
         id="defs4758-8-3">
        <path
           d="m 2.345,-4.452 c 0,-0.189 -0.014,-0.196 -0.21,-0.196 C 1.687,-4.207 1.05,-4.2 0.763,-4.2 v 0.252 c 0.168,0 0.63,0 1.015,-0.196 v 3.57 c 0,0.231 0,0.322 -0.7,0.322 H 0.812 V 0 c 0.126,-0.007 0.987,-0.028 1.246,-0.028 0.217,0 1.099,0.021 1.253,0.028 V -0.252 H 3.045 c -0.7,0 -0.7,-0.091 -0.7,-0.322 v -3.878 z"
           id="equation_06_00-2-2"
           inkscape:connector-curvature="0" />
        <path
           d="m 1.911,-2.338 c 0.546,0 0.938,0.378 0.938,1.127 0,0.868 -0.504,1.127 -0.91,1.127 -0.28,0 -0.896,-0.077 -1.19,-0.49 0.329,-0.014 0.406,-0.245 0.406,-0.392 0,-0.224 -0.168,-0.385 -0.385,-0.385 -0.196,0 -0.392,0.119 -0.392,0.406 0,0.658 0.728,1.085 1.575,1.085 0.973,0 1.645,-0.651 1.645,-1.351 0,-0.546 -0.448,-1.092 -1.218,-1.253 0.735,-0.266 1.001,-0.791 1.001,-1.218 0,-0.553 -0.637,-0.966 -1.414,-0.966 -0.777,0 -1.372,0.378 -1.372,0.938 0,0.238 0.154,0.371 0.364,0.371 0.217,0 0.357,-0.161 0.357,-0.357 0,-0.203 -0.14,-0.35 -0.357,-0.364 0.245,-0.308 0.728,-0.385 0.987,-0.385 0.315,0 0.756,0.154 0.756,0.763 0,0.294 -0.098,0.616 -0.28,0.833 -0.231,0.266 -0.427,0.28 -0.777,0.301 -0.175,0.014 -0.189,0.014 -0.224,0.021 -0.014,0 -0.07,0.014 -0.07,0.091 0,0.098 0.063,0.098 0.182,0.098 h 0.378 z"
           id="equation_06_01-4-21"
           inkscape:connector-curvature="0" />
      </defs>
      <g
         id="equation_06_g-5-6">
        <use
           x="78.199997"
           xlink:href="#equation_06_00-2-2"
           y="59.062698"
           id="use4763-5-8"
           width="744.09448"
           height="1052.3622" />
        <rect
           height="0.399979"
           width="3.98613"
           x="78.199997"
           y="60.299999"
           id="rect4765-1-5" />
        <use
           x="78.199997"
           xlink:href="#equation_06_01-4-21"
           y="66.448402"
           id="use4767-7-7"
           width="744.09448"
           height="1052.3622" />
      </g>
    </g>
  </g>
</svg>
