<?xml version="1.0" encoding="UTF-8" standalone="no"?>
<!-- Created with Inkscape (http://www.inkscape.org/) -->

<svg
   xmlns:dc="http://purl.org/dc/elements/1.1/"
   xmlns:cc="http://creativecommons.org/ns#"
   xmlns:rdf="http://www.w3.org/1999/02/22-rdf-syntax-ns#"
   xmlns:svg="http://www.w3.org/2000/svg"
   xmlns="http://www.w3.org/2000/svg"
   xmlns:xlink="http://www.w3.org/1999/xlink"
   xmlns:sodipodi="http://sodipodi.sourceforge.net/DTD/sodipodi-0.dtd"
   xmlns:inkscape="http://www.inkscape.org/namespaces/inkscape"
   width="210mm"
   height="297mm"
   id="svg2"
   version="1.1"
   inkscape:version="0.48.4 r9939"
   sodipodi:docname="markov-chain-example.svg"
   inkscape:export-filename="\\euler\nineties\projects\prml-seminar\fig\markov-chain-example2.png"
   inkscape:export-xdpi="90"
   inkscape:export-ydpi="90">
  <sodipodi:namedview
     id="base"
     pagecolor="#ffffff"
     bordercolor="#666666"
     borderopacity="1.0"
     inkscape:pageopacity="0.0"
     inkscape:pageshadow="2"
     inkscape:zoom="0.35"
     inkscape:cx="1224.4807"
     inkscape:cy="336.8409"
     inkscape:document-units="px"
     inkscape:current-layer="layer1"
     showgrid="false"
     inkscape:window-width="1366"
     inkscape:window-height="746"
     inkscape:window-x="-8"
     inkscape:window-y="-8"
     inkscape:window-maximized="1" />
  <defs
     id="defs4">
    <marker
       style="overflow:visible;"
       id="Arrow1Lend"
       refX="0.0"
       refY="0.0"
       orient="auto"
       inkscape:stockid="Arrow1Lend">
      <path
         transform="scale(0.8) rotate(180) translate(12.5,0)"
         style="fill-rule:evenodd;stroke:#000000;stroke-width:1.0pt;"
         d="M 0.0,0.0 L 5.0,-5.0 L -12.5,0.0 L 5.0,5.0 L 0.0,0.0 z "
         id="path3844" />
    </marker>
    <marker
       style="overflow:visible"
       id="Arrow1Lend-0"
       refX="0"
       refY="0"
       orient="auto"
       inkscape:stockid="Arrow1Lend">
      <path
         transform="matrix(-0.8,0,0,-0.8,-10,0)"
         style="fill-rule:evenodd;stroke:#000000;stroke-width:1pt"
         d="M 0,0 5,-5 -12.5,0 5,5 0,0 z"
         id="path3844-9"
         inkscape:connector-curvature="0" />
    </marker>
  </defs>
  <metadata
     id="metadata7">
    <rdf:RDF>
      <cc:Work
         rdf:about="">
        <dc:format>image/svg+xml</dc:format>
        <dc:type
           rdf:resource="http://purl.org/dc/dcmitype/StillImage" />
        <dc:title></dc:title>
      </cc:Work>
    </rdf:RDF>
  </metadata>
  <g
     id="layer1"
     inkscape:groupmode="layer"
     inkscape:label="レイヤー 1">
    <path
       transform="translate(12.857175,0)"
       d="m 379.99999,281.64789 a 50.714287,50.714287 0 1 1 -101.42857,0 50.714287,50.714287 0 1 1 101.42857,0 z"
       sodipodi:ry="50.714287"
       sodipodi:rx="50.714287"
       sodipodi:cy="281.64789"
       sodipodi:cx="329.28571"
       id="path2985"
       style="fill:#ff0000;fill-opacity:0.11764706000000000;stroke:#000000;stroke-width:1.6;stroke-linecap:round;stroke-miterlimit:4;stroke-opacity:1;stroke-dasharray:none;stroke-dashoffset:0"
       sodipodi:type="arc" />
    <path
       d="m 379.99999,281.64789 a 50.714287,50.714287 0 1 1 -101.42857,0 50.714287,50.714287 0 1 1 101.42857,0 z"
       sodipodi:ry="50.714287"
       sodipodi:rx="50.714287"
       sodipodi:cy="281.64789"
       sodipodi:cx="329.28571"
       id="path2985-1"
       style="fill:#ff0000;fill-opacity:0.11764706000000000;stroke:#000000;stroke-width:1.6;stroke-linecap:round;stroke-miterlimit:4;stroke-opacity:1;stroke-dasharray:none;stroke-dashoffset:0"
       sodipodi:type="arc"
       transform="translate(-192.14285,307.85716)" />
    <path
       d="m 379.99999,281.64789 a 50.714287,50.714287 0 1 1 -101.42857,0 50.714287,50.714287 0 1 1 101.42857,0 z"
       sodipodi:ry="50.714287"
       sodipodi:rx="50.714287"
       sodipodi:cy="281.64789"
       sodipodi:cx="329.28571"
       id="path2985-1-7"
       style="fill:#ff0000;fill-opacity:0.11764706000000000;stroke:#000000;stroke-width:1.6;stroke-linecap:round;stroke-miterlimit:4;stroke-opacity:1;stroke-dasharray:none;stroke-dashoffset:0"
       sodipodi:type="arc"
       transform="translate(217.85715,307.85716)" />
    <path
       sodipodi:nodetypes="cc"
       inkscape:connector-curvature="0"
       id="path3793"
       d="M 380,332.36218 511.42857,538.07647"
       style="fill:none;stroke:#000000;stroke-width:1.5;stroke-linecap:butt;stroke-linejoin:miter;stroke-opacity:1;marker-end:url(#Arrow1Lend);stroke-miterlimit:4;stroke-dasharray:none" />
    <path
       inkscape:connector-curvature="0"
       id="path3795"
       d="m 482.85714,592.36218 -287.14285,0"
       style="fill:none;stroke:#000000;stroke-width:1.5;stroke-linecap:butt;stroke-linejoin:miter;stroke-opacity:1;marker-end:url(#Arrow1Lend);stroke-miterlimit:4;stroke-dasharray:none" />
    <path
       inkscape:connector-curvature="0"
       id="path3797"
       d="M 164.28571,532.36218 305.71429,330.93361"
       style="fill:none;stroke:#000000;stroke-width:1.5;stroke-linecap:butt;stroke-linejoin:miter;stroke-opacity:1;marker-end:url(#Arrow1Lend);stroke-miterlimit:4;stroke-dasharray:none" />
    <path
       inkscape:connector-curvature="0"
       id="path3799"
       d="M 528.57143,530.93361 391.42857,325.21933"
       style="fill:none;stroke:#000000;stroke-width:1.5;stroke-linecap:butt;stroke-linejoin:miter;stroke-opacity:1;marker-end:url(#Arrow1Lend);stroke-miterlimit:4;stroke-dasharray:none" />
    <path
       inkscape:connector-curvature="0"
       id="path3805"
       d="m 74.285714,570.93361 c -47.517406,-11.71725 -88.640288,51.98449 -52.513402,88.00966 24.682078,28.48838 77.17878,22.32036 89.656258,-15.15252"
       style="fill:none;stroke:#000000;stroke-width:1.5;stroke-linecap:butt;stroke-linejoin:miter;stroke-opacity:1;marker-end:url(#Arrow1Lend);stroke-miterlimit:4;stroke-dasharray:none" />
    <path
       inkscape:connector-curvature="0"
       id="path3805-4"
       d="m 385.21967,234.47944 c 33.06004,-36.08646 -3.1353,-102.71154 -52.06897,-88.27333 -36.83326,8.00648 -56.58329,57.03589 -29.67666,85.94847"
       style="fill:none;stroke:#000000;stroke-width:1.5;stroke-linecap:butt;stroke-linejoin:miter;stroke-opacity:1;marker-end:url(#Arrow1Lend);stroke-miterlimit:4;stroke-dasharray:none" />
    <g
       transform="matrix(7.4541924,0,0,7.4541924,-252.34709,-164.06008)"
       id="equation_01"
       style="fill:#000000"
       title="$1$">
      <defs
         id="defs4345">
        <path
           inkscape:connector-curvature="0"
           d="m 2.94,-6.4 c 0,-0.24 0,-0.26 -0.23,-0.26 -0.62,0.64 -1.5,0.64 -1.82,0.64 v 0.31 c 0.2,0 0.79,0 1.31,-0.26 v 5.18 c 0,0.36 -0.03,0.48 -0.93,0.48 H 0.95 V 0 c 0.35,-0.03 1.22,-0.03 1.62,-0.03 0.4,0 1.27,0 1.62,0.03 V -0.31 H 3.87 c -0.9,0 -0.93,-0.11 -0.93,-0.48 V -6.4 z"
           id="equation_01_00" />
      </defs>
      <g
         id="equation_01_g">
        <use
           height="1052.3622"
           width="744.09448"
           x="77"
           xlink:href="#equation_01_00"
           y="63"
           id="use4349" />
      </g>
    </g>
    <g
       transform="matrix(7.4541924,0,0,7.4541924,-456.63281,144.51136)"
       title="$2$"
       style="fill:#000000"
       id="equation_02">
      <defs
         id="defs4402">
        <path
           inkscape:connector-curvature="0"
           id="equation_02_00"
           d="M 1.27,-0.77 2.33,-1.8 c 1.56,-1.38 2.16,-1.92 2.16,-2.92 0,-1.14 -0.9,-1.94 -2.12,-1.94 -1.13,0 -1.87,0.92 -1.87,1.81 0,0.56 0.5,0.56 0.53,0.56 0.17,0 0.52,-0.12 0.52,-0.53 0,-0.26 -0.18,-0.52 -0.53,-0.52 -0.08,0 -0.1,0 -0.13,0.01 0.23,-0.65 0.77,-1.02 1.35,-1.02 0.91,0 1.34,0.81 1.34,1.63 0,0.8 -0.5,1.59 -1.05,2.21 L 0.61,-0.37 C 0.5,-0.26 0.5,-0.24 0.5,0 H 4.21 L 4.49,-1.74 H 4.24 C 4.19,-1.44 4.12,-1 4.02,-0.85 3.95,-0.77 3.29,-0.77 3.07,-0.77 h -1.8 z" />
      </defs>
      <g
         id="equation_02_g">
        <use
           height="1052.3622"
           width="744.09448"
           id="use4406"
           y="63"
           xlink:href="#equation_02_00"
           x="77" />
      </g>
    </g>
    <g
       transform="matrix(7.4541924,0,0,7.4541924,-43.775664,145.93993)"
       id="equation_03"
       style="fill:#000000"
       title="$3$">
      <defs
         id="defs4469">
        <path
           inkscape:connector-curvature="0"
           d="m 2.9,-3.52 c 0.82,-0.27 1.4,-0.97 1.4,-1.76 0,-0.82 -0.88,-1.38 -1.84,-1.38 -1.01,0 -1.77,0.6 -1.77,1.36 0,0.33 0.22,0.52 0.51,0.52 0.31,0 0.51,-0.22 0.51,-0.51 0,-0.5 -0.47,-0.5 -0.62,-0.5 0.31,-0.49 0.97,-0.62 1.33,-0.62 0.41,0 0.96,0.22 0.96,1.12 0,0.12 -0.02,0.7 -0.28,1.14 -0.3,0.48 -0.64,0.51 -0.89,0.52 -0.08,0.01 -0.32,0.03 -0.39,0.03 -0.08,0.01 -0.15,0.02 -0.15,0.12 0,0.11 0.07,0.11 0.24,0.11 h 0.44 c 0.82,0 1.19,0.68 1.19,1.66 0,1.36 -0.69,1.65 -1.13,1.65 -0.43,0 -1.18,-0.17 -1.53,-0.76 0.35,0.05 0.66,-0.17 0.66,-0.55 0,-0.36 -0.27,-0.56 -0.56,-0.56 -0.24,0 -0.56,0.14 -0.56,0.58 0,0.91 0.93,1.57 2.02,1.57 1.22,0 2.13,-0.91 2.13,-1.93 0,-0.82 -0.63,-1.6 -1.67,-1.81 z"
           id="equation_03_00" />
      </defs>
      <g
         id="equation_03_g">
        <use
           height="1052.3622"
           width="744.09448"
           x="77"
           xlink:href="#equation_03_00"
           y="63"
           id="use4473" />
      </g>
    </g>
    <g
       transform="matrix(5.8691849,0,0,5.8691849,-102.68522,31.261139)"
       title="$\frac{1}{2}$"
       style="fill:#000000"
       id="equation_04">
      <defs
         id="defs4546">
        <path
           inkscape:connector-curvature="0"
           id="equation_04_00"
           d="m 2.345,-4.452 c 0,-0.189 -0.014,-0.196 -0.21,-0.196 C 1.687,-4.207 1.05,-4.2 0.763,-4.2 v 0.252 c 0.168,0 0.63,0 1.015,-0.196 v 3.57 c 0,0.231 0,0.322 -0.7,0.322 H 0.812 V 0 c 0.126,-0.007 0.987,-0.028 1.246,-0.028 0.217,0 1.099,0.021 1.253,0.028 V -0.252 H 3.045 c -0.7,0 -0.7,-0.091 -0.7,-0.322 v -3.878 z" />
        <path
           inkscape:connector-curvature="0"
           id="equation_04_01"
           d="M 3.535,-1.274 H 3.297 C 3.276,-1.12 3.206,-0.707 3.115,-0.637 3.059,-0.595 2.52,-0.595 2.422,-0.595 H 1.134 c 0.735,-0.651 0.98,-0.847 1.4,-1.176 0.518,-0.413 1.001,-0.847 1.001,-1.512 0,-0.847 -0.742,-1.365 -1.638,-1.365 -0.868,0 -1.456,0.609 -1.456,1.253 0,0.357 0.301,0.392 0.371,0.392 0.168,0 0.371,-0.119 0.371,-0.371 0,-0.126 -0.049,-0.371 -0.413,-0.371 0.217,-0.497 0.693,-0.651 1.022,-0.651 0.7,0 1.064,0.546 1.064,1.113 0,0.609 -0.434,1.092 -0.658,1.344 L 0.511,-0.273 C 0.441,-0.21 0.441,-0.196 0.441,0 h 2.884 l 0.21,-1.274 z" />
      </defs>
      <g
         id="equation_04_g">
        <use
           height="1052.3622"
           width="744.09448"
           id="use4551"
           y="59.062698"
           xlink:href="#equation_04_00"
           x="78.199997" />
        <rect
           id="rect4553"
           y="60.299999"
           x="78.199997"
           width="3.98613"
           height="0.399979" />
        <use
           height="1052.3622"
           width="744.09448"
           id="use4555"
           y="66.448402"
           xlink:href="#equation_04_01"
           x="78.199997" />
      </g>
    </g>
    <g
       transform="matrix(5.8691849,0,0,5.8691849,-51.954411,-198.47707)"
       id="equation_05"
       style="fill:#000000"
       title="$\frac{1}{2}$">
      <defs
         id="defs4644">
        <path
           inkscape:connector-curvature="0"
           d="m 2.345,-4.452 c 0,-0.189 -0.014,-0.196 -0.21,-0.196 C 1.687,-4.207 1.05,-4.2 0.763,-4.2 v 0.252 c 0.168,0 0.63,0 1.015,-0.196 v 3.57 c 0,0.231 0,0.322 -0.7,0.322 H 0.812 V 0 c 0.126,-0.007 0.987,-0.028 1.246,-0.028 0.217,0 1.099,0.021 1.253,0.028 V -0.252 H 3.045 c -0.7,0 -0.7,-0.091 -0.7,-0.322 v -3.878 z"
           id="equation_05_00" />
        <path
           inkscape:connector-curvature="0"
           d="M 3.535,-1.274 H 3.297 C 3.276,-1.12 3.206,-0.707 3.115,-0.637 3.059,-0.595 2.52,-0.595 2.422,-0.595 H 1.134 c 0.735,-0.651 0.98,-0.847 1.4,-1.176 0.518,-0.413 1.001,-0.847 1.001,-1.512 0,-0.847 -0.742,-1.365 -1.638,-1.365 -0.868,0 -1.456,0.609 -1.456,1.253 0,0.357 0.301,0.392 0.371,0.392 0.168,0 0.371,-0.119 0.371,-0.371 0,-0.126 -0.049,-0.371 -0.413,-0.371 0.217,-0.497 0.693,-0.651 1.022,-0.651 0.7,0 1.064,0.546 1.064,1.113 0,0.609 -0.434,1.092 -0.658,1.344 L 0.511,-0.273 C 0.441,-0.21 0.441,-0.196 0.441,0 h 2.884 l 0.21,-1.274 z"
           id="equation_05_01" />
      </defs>
      <g
         id="equation_05_g">
        <use
           height="1052.3622"
           width="744.09448"
           x="78.199997"
           xlink:href="#equation_05_00"
           y="59.062698"
           id="use4649" />
        <rect
           height="0.399979"
           width="3.98613"
           x="78.199997"
           y="60.299999"
           id="rect4651" />
        <use
           height="1052.3622"
           width="744.09448"
           x="78.199997"
           xlink:href="#equation_05_01"
           y="66.448402"
           id="use4653" />
      </g>
    </g>
    <g
       transform="matrix(5.8691849,0,0,5.8691849,-489.66281,291.12893)"
       title="$\frac{1}{3}$"
       style="fill:#000000"
       id="equation_06">
      <defs
         id="defs4758">
        <path
           inkscape:connector-curvature="0"
           id="equation_06_00"
           d="m 2.345,-4.452 c 0,-0.189 -0.014,-0.196 -0.21,-0.196 C 1.687,-4.207 1.05,-4.2 0.763,-4.2 v 0.252 c 0.168,0 0.63,0 1.015,-0.196 v 3.57 c 0,0.231 0,0.322 -0.7,0.322 H 0.812 V 0 c 0.126,-0.007 0.987,-0.028 1.246,-0.028 0.217,0 1.099,0.021 1.253,0.028 V -0.252 H 3.045 c -0.7,0 -0.7,-0.091 -0.7,-0.322 v -3.878 z" />
        <path
           inkscape:connector-curvature="0"
           id="equation_06_01"
           d="m 1.911,-2.338 c 0.546,0 0.938,0.378 0.938,1.127 0,0.868 -0.504,1.127 -0.91,1.127 -0.28,0 -0.896,-0.077 -1.19,-0.49 0.329,-0.014 0.406,-0.245 0.406,-0.392 0,-0.224 -0.168,-0.385 -0.385,-0.385 -0.196,0 -0.392,0.119 -0.392,0.406 0,0.658 0.728,1.085 1.575,1.085 0.973,0 1.645,-0.651 1.645,-1.351 0,-0.546 -0.448,-1.092 -1.218,-1.253 0.735,-0.266 1.001,-0.791 1.001,-1.218 0,-0.553 -0.637,-0.966 -1.414,-0.966 -0.777,0 -1.372,0.378 -1.372,0.938 0,0.238 0.154,0.371 0.364,0.371 0.217,0 0.357,-0.161 0.357,-0.357 0,-0.203 -0.14,-0.35 -0.357,-0.364 0.245,-0.308 0.728,-0.385 0.987,-0.385 0.315,0 0.756,0.154 0.756,0.763 0,0.294 -0.098,0.616 -0.28,0.833 -0.231,0.266 -0.427,0.28 -0.777,0.301 -0.175,0.014 -0.189,0.014 -0.224,0.021 -0.014,0 -0.07,0.014 -0.07,0.091 0,0.098 0.063,0.098 0.182,0.098 h 0.378 z" />
      </defs>
      <g
         id="equation_06_g">
        <use
           height="1052.3622"
           width="744.09448"
           id="use4763"
           y="59.062698"
           xlink:href="#equation_06_00"
           x="78.199997" />
        <rect
           id="rect4765"
           y="60.299999"
           x="78.199997"
           width="3.98613"
           height="0.399979" />
        <use
           height="1052.3622"
           width="744.09448"
           id="use4767"
           y="66.448402"
           xlink:href="#equation_06_01"
           x="78.199997" />
      </g>
    </g>
    <g
       transform="matrix(5.8691849,0,0,5.8691849,83.55792,127.90192)"
       id="equation_07"
       style="fill:#000000"
       title="$\frac{2}{3}$">
      <defs
         id="defs4888">
        <path
           inkscape:connector-curvature="0"
           d="M 3.535,-1.274 H 3.297 C 3.276,-1.12 3.206,-0.707 3.115,-0.637 3.059,-0.595 2.52,-0.595 2.422,-0.595 H 1.134 c 0.735,-0.651 0.98,-0.847 1.4,-1.176 0.518,-0.413 1.001,-0.847 1.001,-1.512 0,-0.847 -0.742,-1.365 -1.638,-1.365 -0.868,0 -1.456,0.609 -1.456,1.253 0,0.357 0.301,0.392 0.371,0.392 0.168,0 0.371,-0.119 0.371,-0.371 0,-0.126 -0.049,-0.371 -0.413,-0.371 0.217,-0.497 0.693,-0.651 1.022,-0.651 0.7,0 1.064,0.546 1.064,1.113 0,0.609 -0.434,1.092 -0.658,1.344 L 0.511,-0.273 C 0.441,-0.21 0.441,-0.196 0.441,0 h 2.884 l 0.21,-1.274 z"
           id="equation_07_00" />
        <path
           inkscape:connector-curvature="0"
           d="m 1.911,-2.338 c 0.546,0 0.938,0.378 0.938,1.127 0,0.868 -0.504,1.127 -0.91,1.127 -0.28,0 -0.896,-0.077 -1.19,-0.49 0.329,-0.014 0.406,-0.245 0.406,-0.392 0,-0.224 -0.168,-0.385 -0.385,-0.385 -0.196,0 -0.392,0.119 -0.392,0.406 0,0.658 0.728,1.085 1.575,1.085 0.973,0 1.645,-0.651 1.645,-1.351 0,-0.546 -0.448,-1.092 -1.218,-1.253 0.735,-0.266 1.001,-0.791 1.001,-1.218 0,-0.553 -0.637,-0.966 -1.414,-0.966 -0.777,0 -1.372,0.378 -1.372,0.938 0,0.238 0.154,0.371 0.364,0.371 0.217,0 0.357,-0.161 0.357,-0.357 0,-0.203 -0.14,-0.35 -0.357,-0.364 0.245,-0.308 0.728,-0.385 0.987,-0.385 0.315,0 0.756,0.154 0.756,0.763 0,0.294 -0.098,0.616 -0.28,0.833 -0.231,0.266 -0.427,0.28 -0.777,0.301 -0.175,0.014 -0.189,0.014 -0.224,0.021 -0.014,0 -0.07,0.014 -0.07,0.091 0,0.098 0.063,0.098 0.182,0.098 h 0.378 z"
           id="equation_07_01" />
      </defs>
      <g
         id="equation_07_g">
        <use
           height="1052.3622"
           width="744.09448"
           x="78.199997"
           xlink:href="#equation_07_00"
           y="59.062698"
           id="use4893" />
        <rect
           height="0.399979"
           width="3.98613"
           x="78.199997"
           y="60.299999"
           id="rect4895" />
        <use
           height="1052.3622"
           width="744.09448"
           x="78.199997"
           xlink:href="#equation_07_01"
           y="66.448402"
           id="use4897" />
      </g>
    </g>
    <path
       inkscape:connector-curvature="0"
       id="path3795-4"
       d="m 196.42857,610.93361 287.14285,0"
       style="fill:none;stroke:#000000;stroke-width:1.5;stroke-linecap:butt;stroke-linejoin:miter;stroke-miterlimit:4;stroke-opacity:1;stroke-dasharray:none;marker-end:url(#Arrow1Lend)" />
    <g
       transform="matrix(5.8691849,0,0,5.8691849,-249.23934,302.98168)"
       title="$\frac{1}{3}$"
       style="fill:#000000"
       id="equation_06-8">
      <defs
         id="defs4758-8">
        <path
           inkscape:connector-curvature="0"
           id="equation_06_00-2"
           d="m 2.345,-4.452 c 0,-0.189 -0.014,-0.196 -0.21,-0.196 C 1.687,-4.207 1.05,-4.2 0.763,-4.2 v 0.252 c 0.168,0 0.63,0 1.015,-0.196 v 3.57 c 0,0.231 0,0.322 -0.7,0.322 H 0.812 V 0 c 0.126,-0.007 0.987,-0.028 1.246,-0.028 0.217,0 1.099,0.021 1.253,0.028 V -0.252 H 3.045 c -0.7,0 -0.7,-0.091 -0.7,-0.322 v -3.878 z" />
        <path
           inkscape:connector-curvature="0"
           id="equation_06_01-4"
           d="m 1.911,-2.338 c 0.546,0 0.938,0.378 0.938,1.127 0,0.868 -0.504,1.127 -0.91,1.127 -0.28,0 -0.896,-0.077 -1.19,-0.49 0.329,-0.014 0.406,-0.245 0.406,-0.392 0,-0.224 -0.168,-0.385 -0.385,-0.385 -0.196,0 -0.392,0.119 -0.392,0.406 0,0.658 0.728,1.085 1.575,1.085 0.973,0 1.645,-0.651 1.645,-1.351 0,-0.546 -0.448,-1.092 -1.218,-1.253 0.735,-0.266 1.001,-0.791 1.001,-1.218 0,-0.553 -0.637,-0.966 -1.414,-0.966 -0.777,0 -1.372,0.378 -1.372,0.938 0,0.238 0.154,0.371 0.364,0.371 0.217,0 0.357,-0.161 0.357,-0.357 0,-0.203 -0.14,-0.35 -0.357,-0.364 0.245,-0.308 0.728,-0.385 0.987,-0.385 0.315,0 0.756,0.154 0.756,0.763 0,0.294 -0.098,0.616 -0.28,0.833 -0.231,0.266 -0.427,0.28 -0.777,0.301 -0.175,0.014 -0.189,0.014 -0.224,0.021 -0.014,0 -0.07,0.014 -0.07,0.091 0,0.098 0.063,0.098 0.182,0.098 h 0.378 z" />
      </defs>
      <g
         id="equation_06_g-5">
        <use
           height="1052.3622"
           width="744.09448"
           id="use4763-5"
           y="59.062698"
           xlink:href="#equation_06_00-2"
           x="78.199997" />
        <rect
           id="rect4765-1"
           y="60.299999"
           x="78.199997"
           width="3.98613"
           height="0.399979" />
        <use
           height="1052.3622"
           width="744.09448"
           id="use4767-7"
           y="66.448402"
           xlink:href="#equation_06_01-4"
           x="78.199997" />
      </g>
    </g>
    <g
       transform="matrix(5.8691849,0,0,5.8691849,-313.52505,98.695968)"
       title="$\frac{1}{3}$"
       style="fill:#000000"
       id="equation_06-8-1">
      <defs
         id="defs4758-8-1">
        <path
           inkscape:connector-curvature="0"
           id="equation_06_00-2-5"
           d="m 2.345,-4.452 c 0,-0.189 -0.014,-0.196 -0.21,-0.196 C 1.687,-4.207 1.05,-4.2 0.763,-4.2 v 0.252 c 0.168,0 0.63,0 1.015,-0.196 v 3.57 c 0,0.231 0,0.322 -0.7,0.322 H 0.812 V 0 c 0.126,-0.007 0.987,-0.028 1.246,-0.028 0.217,0 1.099,0.021 1.253,0.028 V -0.252 H 3.045 c -0.7,0 -0.7,-0.091 -0.7,-0.322 v -3.878 z" />
        <path
           inkscape:connector-curvature="0"
           id="equation_06_01-4-2"
           d="m 1.911,-2.338 c 0.546,0 0.938,0.378 0.938,1.127 0,0.868 -0.504,1.127 -0.91,1.127 -0.28,0 -0.896,-0.077 -1.19,-0.49 0.329,-0.014 0.406,-0.245 0.406,-0.392 0,-0.224 -0.168,-0.385 -0.385,-0.385 -0.196,0 -0.392,0.119 -0.392,0.406 0,0.658 0.728,1.085 1.575,1.085 0.973,0 1.645,-0.651 1.645,-1.351 0,-0.546 -0.448,-1.092 -1.218,-1.253 0.735,-0.266 1.001,-0.791 1.001,-1.218 0,-0.553 -0.637,-0.966 -1.414,-0.966 -0.777,0 -1.372,0.378 -1.372,0.938 0,0.238 0.154,0.371 0.364,0.371 0.217,0 0.357,-0.161 0.357,-0.357 0,-0.203 -0.14,-0.35 -0.357,-0.364 0.245,-0.308 0.728,-0.385 0.987,-0.385 0.315,0 0.756,0.154 0.756,0.763 0,0.294 -0.098,0.616 -0.28,0.833 -0.231,0.266 -0.427,0.28 -0.777,0.301 -0.175,0.014 -0.189,0.014 -0.224,0.021 -0.014,0 -0.07,0.014 -0.07,0.091 0,0.098 0.063,0.098 0.182,0.098 h 0.378 z" />
      </defs>
      <g
         id="equation_06_g-5-7">
        <use
           height="1052.3622"
           width="744.09448"
           id="use4763-5-6"
           y="59.062698"
           xlink:href="#equation_06_00-2-5"
           x="78.199997" />
        <rect
           id="rect4765-1-1"
           y="60.299999"
           x="78.199997"
           width="3.98613"
           height="0.399979" />
        <use
           height="1052.3622"
           width="744.09448"
           id="use4767-7-4"
           y="66.448402"
           xlink:href="#equation_06_01-4-2"
           x="78.199997" />
      </g>
    </g>
    <g
       transform="matrix(5.8691849,0,0,5.8691849,-27.810769,194.41025)"
       title="$\frac{1}{3}$"
       style="fill:#000000"
       id="equation_06-8-2">
      <defs
         id="defs4758-8-3">
        <path
           inkscape:connector-curvature="0"
           id="equation_06_00-2-2"
           d="m 2.345,-4.452 c 0,-0.189 -0.014,-0.196 -0.21,-0.196 C 1.687,-4.207 1.05,-4.2 0.763,-4.2 v 0.252 c 0.168,0 0.63,0 1.015,-0.196 v 3.57 c 0,0.231 0,0.322 -0.7,0.322 H 0.812 V 0 c 0.126,-0.007 0.987,-0.028 1.246,-0.028 0.217,0 1.099,0.021 1.253,0.028 V -0.252 H 3.045 c -0.7,0 -0.7,-0.091 -0.7,-0.322 v -3.878 z" />
        <path
           inkscape:connector-curvature="0"
           id="equation_06_01-4-21"
           d="m 1.911,-2.338 c 0.546,0 0.938,0.378 0.938,1.127 0,0.868 -0.504,1.127 -0.91,1.127 -0.28,0 -0.896,-0.077 -1.19,-0.49 0.329,-0.014 0.406,-0.245 0.406,-0.392 0,-0.224 -0.168,-0.385 -0.385,-0.385 -0.196,0 -0.392,0.119 -0.392,0.406 0,0.658 0.728,1.085 1.575,1.085 0.973,0 1.645,-0.651 1.645,-1.351 0,-0.546 -0.448,-1.092 -1.218,-1.253 0.735,-0.266 1.001,-0.791 1.001,-1.218 0,-0.553 -0.637,-0.966 -1.414,-0.966 -0.777,0 -1.372,0.378 -1.372,0.938 0,0.238 0.154,0.371 0.364,0.371 0.217,0 0.357,-0.161 0.357,-0.357 0,-0.203 -0.14,-0.35 -0.357,-0.364 0.245,-0.308 0.728,-0.385 0.987,-0.385 0.315,0 0.756,0.154 0.756,0.763 0,0.294 -0.098,0.616 -0.28,0.833 -0.231,0.266 -0.427,0.28 -0.777,0.301 -0.175,0.014 -0.189,0.014 -0.224,0.021 -0.014,0 -0.07,0.014 -0.07,0.091 0,0.098 0.063,0.098 0.182,0.098 h 0.378 z" />
      </defs>
      <g
         id="equation_06_g-5-6">
        <use
           height="1052.3622"
           width="744.09448"
           id="use4763-5-8"
           y="59.062698"
           xlink:href="#equation_06_00-2-2"
           x="78.199997" />
        <rect
           id="rect4765-1-5"
           y="60.299999"
           x="78.199997"
           width="3.98613"
           height="0.399979" />
        <use
           height="1052.3622"
           width="744.09448"
           id="use4767-7-7"
           y="66.448402"
           xlink:href="#equation_06_01-4-21"
           x="78.199997" />
      </g>
    </g>
    <g
       title="$\displaystyle\begin{pmatrix} p^{(t+1)}_1 \\ p^{(t+1)}_2 \\ p^{(t+1)}_3 \end{pmatrix} = \begin{pmatrix} 1/2 &amp; 1/3 &amp; 2/3 \\ 0 &amp; 1/3 &amp; 1/3 \\ 1/2 &amp; 1/3 &amp; 0 \end{pmatrix}\begin{pmatrix} p^{(t)}_1 \\ p^{(t)}_2 \\ p^{(t)}_3\end{pmatrix}$"
       style="fill:#000000"
       id="equation_00"
       transform="matrix(7.7416514,0,0,7.7416514,132.70321,-175.87896)">
      <defs
         id="defs5199">
        <path
           id="equation_00_00"
           d="m 1.722,-2.765 h 0.714 c 0.133,0 0.224,0 0.224,-0.154 0,-0.098 -0.091,-0.098 -0.21,-0.098 H 1.785 l 0.259,-1.036 c 0.007,-0.035 0.021,-0.07 0.021,-0.098 0,-0.126 -0.098,-0.224 -0.238,-0.224 -0.175,0 -0.28,0.119 -0.329,0.301 -0.049,0.175 0.042,-0.161 -0.266,1.057 H 0.518 c -0.133,0 -0.224,0 -0.224,0.154 0,0.098 0.084,0.098 0.21,0.098 h 0.665 l -0.413,1.652 c -0.042,0.175 -0.105,0.427 -0.105,0.518 0,0.413 0.35,0.665 0.749,0.665 0.777,0 1.218,-0.98 1.218,-1.071 0,-0.091 -0.091,-0.091 -0.112,-0.091 -0.084,0 -0.091,0.014 -0.147,0.133 -0.196,0.441 -0.553,0.833 -0.938,0.833 -0.147,0 -0.245,-0.091 -0.245,-0.343 0,-0.07 0.028,-0.217 0.042,-0.287 l 0.504,-2.009 z"
           inkscape:connector-curvature="0" />
        <path
           id="equation_00_01"
           d="m 4.39,-7.12 c 0.05,-0.13 0.05,-0.17 0.05,-0.18 0,-0.11 -0.09,-0.2 -0.2,-0.2 -0.07,0 -0.14,0.03 -0.17,0.09 L 0.6,2.12 C 0.55,2.25 0.55,2.29 0.55,2.3 c 0,0.11 0.09,0.2 0.2,0.2 0.13,0 0.16,-0.07 0.22,-0.24 l 3.42,-9.38 z"
           inkscape:connector-curvature="0" />
        <path
           id="equation_00_02"
           d="m 0.45,1.22 c -0.08,0.34 -0.1,0.41 -0.54,0.41 -0.12,0 -0.23,0 -0.23,0.19 0,0.08 0.05,0.12 0.13,0.12 0.27,0 0.56,-0.03 0.84,-0.03 0.33,0 0.67,0.03 0.99,0.03 0.05,0 0.18,0 0.18,-0.2 0,-0.11 -0.1,-0.11 -0.24,-0.11 -0.5,0 -0.5,-0.07 -0.5,-0.16 0,-0.12 0.42,-1.75 0.49,-2 0.13,0.29 0.41,0.64 0.92,0.64 1.16,0 2.41,-1.46 2.41,-2.93 0,-0.94 -0.57,-1.6 -1.33,-1.6 -0.5,0 -0.98,0.36 -1.31,0.75 -0.1,-0.54 -0.53,-0.75 -0.9,-0.75 -0.46,0 -0.65,0.39 -0.74,0.57 -0.18,0.34 -0.31,0.94 -0.31,0.97 0,0.1 0.1,0.1 0.12,0.1 0.1,0 0.11,-0.01 0.17,-0.23 0.17,-0.71 0.37,-1.19 0.73,-1.19 0.17,0 0.31,0.08 0.31,0.46 0,0.23 -0.03,0.34 -0.07,0.51 L 0.45,1.22 z m 1.76,-4.34 c 0.07,-0.27 0.34,-0.55 0.52,-0.7 0.35,-0.31 0.64,-0.38 0.81,-0.38 0.4,0 0.64,0.35 0.64,0.94 0,0.59 -0.33,1.74 -0.51,2.12 -0.34,0.7 -0.82,1.03 -1.19,1.03 -0.66,0 -0.79,-0.83 -0.79,-0.89 0,-0.02 0,-0.04 0.03,-0.16 l 0.49,-1.96 z"
           inkscape:connector-curvature="0" />
        <path
           id="equation_00_03"
           d="M 4.6,-3.2 C 4.6,-4 4.55,-4.8 4.2,-5.54 3.74,-6.5 2.92,-6.66 2.5,-6.66 1.9,-6.66 1.17,-6.4 0.76,-5.47 0.44,-4.78 0.39,-4 0.39,-3.2 c 0,0.75 0.04,1.65 0.45,2.41 C 1.27,0.02 2,0.22 2.49,0.22 3.03,0.22 3.79,0.01 4.23,-0.94 4.55,-1.63 4.6,-2.41 4.6,-3.2 z M 2.49,0 C 2.1,0 1.51,-0.25 1.33,-1.21 1.22,-1.81 1.22,-2.73 1.22,-3.32 c 0,-0.64 0,-1.3 0.08,-1.84 0.19,-1.19 0.94,-1.28 1.19,-1.28 0.33,0 0.99,0.18 1.18,1.17 0.1,0.56 0.1,1.32 0.1,1.95 0,0.75 0,1.43 -0.11,2.07 C 3.51,-0.3 2.94,0 2.49,0 z"
           inkscape:connector-curvature="0" />
        <path
           id="equation_00_04"
           d="m 2.94,-6.4 c 0,-0.24 0,-0.26 -0.23,-0.26 -0.62,0.64 -1.5,0.64 -1.82,0.64 v 0.31 c 0.2,0 0.79,0 1.31,-0.26 v 5.18 c 0,0.36 -0.03,0.48 -0.93,0.48 H 0.95 V 0 c 0.35,-0.03 1.22,-0.03 1.62,-0.03 0.4,0 1.27,0 1.62,0.03 V -0.31 H 3.87 c -0.9,0 -0.93,-0.11 -0.93,-0.48 V -6.4 z"
           inkscape:connector-curvature="0" />
        <path
           id="equation_00_05"
           d="M 1.27,-0.77 2.33,-1.8 c 1.56,-1.38 2.16,-1.92 2.16,-2.92 0,-1.14 -0.9,-1.94 -2.12,-1.94 -1.13,0 -1.87,0.92 -1.87,1.81 0,0.56 0.5,0.56 0.53,0.56 0.17,0 0.52,-0.12 0.52,-0.53 0,-0.26 -0.18,-0.52 -0.53,-0.52 -0.08,0 -0.1,0 -0.13,0.01 0.23,-0.65 0.77,-1.02 1.35,-1.02 0.91,0 1.34,0.81 1.34,1.63 0,0.8 -0.5,1.59 -1.05,2.21 L 0.61,-0.37 C 0.5,-0.26 0.5,-0.24 0.5,0 H 4.21 L 4.49,-1.74 H 4.24 C 4.19,-1.44 4.12,-1 4.02,-0.85 3.95,-0.77 3.29,-0.77 3.07,-0.77 h -1.8 z"
           inkscape:connector-curvature="0" />
        <path
           id="equation_00_06"
           d="m 2.9,-3.52 c 0.82,-0.27 1.4,-0.97 1.4,-1.76 0,-0.82 -0.88,-1.38 -1.84,-1.38 -1.01,0 -1.77,0.6 -1.77,1.36 0,0.33 0.22,0.52 0.51,0.52 0.31,0 0.51,-0.22 0.51,-0.51 0,-0.5 -0.47,-0.5 -0.62,-0.5 0.31,-0.49 0.97,-0.62 1.33,-0.62 0.41,0 0.96,0.22 0.96,1.12 0,0.12 -0.02,0.7 -0.28,1.14 -0.3,0.48 -0.64,0.51 -0.89,0.52 -0.08,0.01 -0.32,0.03 -0.39,0.03 -0.08,0.01 -0.15,0.02 -0.15,0.12 0,0.11 0.07,0.11 0.24,0.11 h 0.44 c 0.82,0 1.19,0.68 1.19,1.66 0,1.36 -0.69,1.65 -1.13,1.65 -0.43,0 -1.18,-0.17 -1.53,-0.76 0.35,0.05 0.66,-0.17 0.66,-0.55 0,-0.36 -0.27,-0.56 -0.56,-0.56 -0.24,0 -0.56,0.14 -0.56,0.58 0,0.91 0.93,1.57 2.02,1.57 1.22,0 2.13,-0.91 2.13,-1.93 0,-0.82 -0.63,-1.6 -1.67,-1.81 z"
           inkscape:connector-curvature="0" />
        <path
           id="equation_00_07"
           d="m 6.87,-3.27 c 0.15,0 0.34,0 0.34,-0.2 0,-0.2 -0.19,-0.2 -0.33,-0.2 H 0.89 c -0.14,0 -0.33,0 -0.33,0.2 0,0.2 0.19,0.2 0.34,0.2 h 5.97 z m 0.01,1.94 c 0.14,0 0.33,0 0.33,-0.2 0,-0.2 -0.19,-0.2 -0.34,-0.2 H 0.9 c -0.15,0 -0.34,0 -0.34,0.2 0,0.2 0.19,0.2 0.33,0.2 h 5.99 z"
           inkscape:connector-curvature="0" />
        <path
           id="equation_00_08"
           d="m 2.485,-5.25 c -1.33,0.938 -1.68,2.422 -1.68,3.493 0,0.987 0.294,2.52 1.68,3.5 0.056,0 0.14,0 0.14,-0.084 0,-0.042 -0.021,-0.056 -0.07,-0.105 -0.931,-0.84 -1.274,-2.03 -1.274,-3.304 0,-1.89 0.721,-2.814 1.295,-3.332 0.028,-0.028 0.049,-0.049 0.049,-0.084 0,-0.084 -0.084,-0.084 -0.14,-0.084 z"
           inkscape:connector-curvature="0" />
        <path
           id="equation_00_09"
           d="m 0.63,-5.25 c -0.049,0 -0.133,0 -0.133,0.084 0,0.035 0.021,0.056 0.063,0.105 0.602,0.553 1.274,1.498 1.274,3.304 0,1.463 -0.455,2.569 -1.211,3.255 -0.119,0.119 -0.126,0.126 -0.126,0.161 0,0.035 0.021,0.084 0.091,0.084 0.084,0 0.749,-0.462 1.211,-1.337 0.308,-0.581 0.511,-1.337 0.511,-2.156 0,-0.987 -0.294,-2.52 -1.68,-3.5 z"
           inkscape:connector-curvature="0" />
        <path
           id="equation_00_10"
           d="m 3.241,-1.582 h 2.142 c 0.091,0 0.259,0 0.259,-0.168 0,-0.175 -0.161,-0.175 -0.259,-0.175 H 3.241 v -2.149 c 0,-0.091 0,-0.259 -0.168,-0.259 -0.175,0 -0.175,0.161 -0.175,0.259 v 2.149 H 0.749 c -0.091,0 -0.259,0 -0.259,0.168 0,0.175 0.161,0.175 0.259,0.175 h 2.149 v 2.149 c 0,0.091 0,0.259 0.168,0.259 0.175,0 0.175,-0.161 0.175,-0.259 v -2.149 z"
           inkscape:connector-curvature="0" />
        <path
           id="equation_00_11"
           d="m 2.345,-4.452 c 0,-0.189 -0.014,-0.196 -0.21,-0.196 C 1.687,-4.207 1.05,-4.2 0.763,-4.2 v 0.252 c 0.168,0 0.63,0 1.015,-0.196 v 3.57 c 0,0.231 0,0.322 -0.7,0.322 H 0.812 V 0 c 0.126,-0.007 0.987,-0.028 1.246,-0.028 0.217,0 1.099,0.021 1.253,0.028 V -0.252 H 3.045 c -0.7,0 -0.7,-0.091 -0.7,-0.322 v -3.878 z"
           inkscape:connector-curvature="0" />
        <path
           id="equation_00_12"
           d="M 3.535,-1.274 H 3.297 C 3.276,-1.12 3.206,-0.707 3.115,-0.637 3.059,-0.595 2.52,-0.595 2.422,-0.595 H 1.134 c 0.735,-0.651 0.98,-0.847 1.4,-1.176 0.518,-0.413 1.001,-0.847 1.001,-1.512 0,-0.847 -0.742,-1.365 -1.638,-1.365 -0.868,0 -1.456,0.609 -1.456,1.253 0,0.357 0.301,0.392 0.371,0.392 0.168,0 0.371,-0.119 0.371,-0.371 0,-0.126 -0.049,-0.371 -0.413,-0.371 0.217,-0.497 0.693,-0.651 1.022,-0.651 0.7,0 1.064,0.546 1.064,1.113 0,0.609 -0.434,1.092 -0.658,1.344 L 0.511,-0.273 C 0.441,-0.21 0.441,-0.196 0.441,0 h 2.884 l 0.21,-1.274 z"
           inkscape:connector-curvature="0" />
        <path
           id="equation_00_13"
           d="m 1.911,-2.338 c 0.546,0 0.938,0.378 0.938,1.127 0,0.868 -0.504,1.127 -0.91,1.127 -0.28,0 -0.896,-0.077 -1.19,-0.49 0.329,-0.014 0.406,-0.245 0.406,-0.392 0,-0.224 -0.168,-0.385 -0.385,-0.385 -0.196,0 -0.392,0.119 -0.392,0.406 0,0.658 0.728,1.085 1.575,1.085 0.973,0 1.645,-0.651 1.645,-1.351 0,-0.546 -0.448,-1.092 -1.218,-1.253 0.735,-0.266 1.001,-0.791 1.001,-1.218 0,-0.553 -0.637,-0.966 -1.414,-0.966 -0.777,0 -1.372,0.378 -1.372,0.938 0,0.238 0.154,0.371 0.364,0.371 0.217,0 0.357,-0.161 0.357,-0.357 0,-0.203 -0.14,-0.35 -0.357,-0.364 0.245,-0.308 0.728,-0.385 0.987,-0.385 0.315,0 0.756,0.154 0.756,0.763 0,0.294 -0.098,0.616 -0.28,0.833 -0.231,0.266 -0.427,0.28 -0.777,0.301 -0.175,0.014 -0.189,0.014 -0.224,0.021 -0.014,0 -0.07,0.014 -0.07,0.091 0,0.098 0.063,0.098 0.182,0.098 h 0.378 z"
           inkscape:connector-curvature="0" />
        <path
           id="equation_00_14"
           d="m 3.74,17.7 c 0.22,0 0.28,0 0.28,-0.14 0.02,-7.01 0.83,-12.83 4.33,-17.72 0.07,-0.09 0.07,-0.11 0.07,-0.13 0,-0.1 -0.07,-0.1 -0.23,-0.1 -0.16,0 -0.18,0 -0.2,0.02 C 7.95,-0.34 6.68,1.12 5.67,3.13 4.35,5.77 3.52,8.8 3.15,12.44 3.12,12.75 2.91,14.83 2.91,17.2 v 0.39 c 0.01,0.11 0.07,0.11 0.28,0.11 h 0.55 z"
           inkscape:connector-curvature="0" />
        <path
           id="equation_00_15"
           d="M 5.83,17.2 C 5.83,11.09 4.74,7.51 4.43,6.5 3.75,4.28 2.64,1.94 0.97,-0.12 0.82,-0.3 0.78,-0.35 0.74,-0.37 0.72,-0.38 0.71,-0.39 0.55,-0.39 c -0.15,0 -0.23,0 -0.23,0.1 0,0.02 0,0.04 0.13,0.22 3.48,4.86 4.26,10.86 4.27,17.63 0,0.14 0.06,0.14 0.28,0.14 h 0.55 c 0.21,0 0.27,0 0.28,-0.11 V 17.2 z"
           inkscape:connector-curvature="0" />
        <path
           id="equation_00_16"
           d="m 3.19,-0.5 c -0.21,0 -0.27,0 -0.28,0.11 V 0 c 0,6.11 1.09,9.69 1.4,10.7 0.68,2.22 1.79,4.56 3.46,6.62 0.15,0.18 0.19,0.23 0.23,0.25 0.02,0.01 0.03,0.02 0.19,0.02 0.16,0 0.23,0 0.23,-0.1 0,-0.02 0,-0.04 -0.06,-0.13 C 5.03,12.74 4.03,7.18 4.02,-0.36 4.02,-0.5 3.96,-0.5 3.74,-0.5 H 3.19 z"
           inkscape:connector-curvature="0" />
        <path
           id="equation_00_17"
           d="M 5.83,-0.39 C 5.82,-0.5 5.76,-0.5 5.55,-0.5 H 5 c -0.22,0 -0.28,0 -0.28,0.14 0,1.03 -0.01,3.41 -0.27,5.9 -0.54,5.17 -1.87,8.75 -4.06,11.82 -0.07,0.09 -0.07,0.11 -0.07,0.13 0,0.1 0.08,0.1 0.23,0.1 0.16,0 0.18,0 0.2,-0.02 0.04,-0.03 1.31,-1.49 2.32,-3.5 C 4.39,11.43 5.22,8.4 5.59,4.76 5.62,4.45 5.83,2.37 5.83,0 v -0.39 z"
           inkscape:connector-curvature="0" />
        <path
           id="equation_00_18"
           d="M 4.02,0.17 C 4.02,-0.09 4.01,-0.1 3.74,-0.1 H 3.19 c -0.27,0 -0.28,0.01 -0.28,0.27 v 5.66 c 0,0.26 0.01,0.27 0.28,0.27 H 3.74 C 4.01,6.1 4.02,6.09 4.02,5.83 V 0.17 z"
           inkscape:connector-curvature="0" />
        <path
           id="equation_00_19"
           d="M 5.83,0.17 C 5.83,-0.09 5.82,-0.1 5.55,-0.1 H 5 c -0.27,0 -0.28,0.01 -0.28,0.27 V 5.83 C 4.72,6.09 4.73,6.1 5,6.1 H 5.55 C 5.82,6.1 5.83,6.09 5.83,5.83 V 0.17 z"
           inkscape:connector-curvature="0" />
      </defs>
      <g
         id="equation_00_g">
        <use
           id="use5222"
           y="53.466499"
           xlink:href="#equation_00_14"
           x="77"
           width="744.09448"
           height="1052.3622" />
        <use
           id="use5224"
           y="71.066704"
           xlink:href="#equation_00_18"
           x="77"
           width="744.09448"
           height="1052.3622" />
        <use
           id="use5226"
           y="77.466698"
           xlink:href="#equation_00_16"
           x="77"
           width="744.09448"
           height="1052.3622" />
        <use
           id="use5228"
           y="63.444401"
           xlink:href="#equation_00_02"
           x="85.75"
           width="744.09448"
           height="1052.3622" />
        <use
           id="use5230"
           y="58.25"
           xlink:href="#equation_00_08"
           x="90.781303"
           width="744.09448"
           height="1052.3622" />
        <use
           id="use5232"
           y="58.25"
           xlink:href="#equation_00_00"
           x="93.906303"
           width="744.09448"
           height="1052.3622" />
        <use
           id="use5234"
           y="58.25"
           xlink:href="#equation_00_10"
           x="96.9272"
           width="744.09448"
           height="1052.3622" />
        <use
           id="use5236"
           y="58.25"
           xlink:href="#equation_00_11"
           x="103.066"
           width="744.09448"
           height="1052.3622" />
        <use
           id="use5238"
           y="58.25"
           xlink:href="#equation_00_09"
           x="107.052"
           width="744.09448"
           height="1052.3622" />
        <use
           id="use5240"
           y="66.111"
           xlink:href="#equation_00_11"
           x="90.781303"
           width="744.09448"
           height="1052.3622" />
        <use
           id="use5242"
           y="77.488899"
           xlink:href="#equation_00_02"
           x="85.75"
           width="744.09448"
           height="1052.3622" />
        <use
           id="use5244"
           y="72.294502"
           xlink:href="#equation_00_08"
           x="90.781303"
           width="744.09448"
           height="1052.3622" />
        <use
           id="use5246"
           y="72.294502"
           xlink:href="#equation_00_00"
           x="93.906303"
           width="744.09448"
           height="1052.3622" />
        <use
           id="use5248"
           y="72.294502"
           xlink:href="#equation_00_10"
           x="96.9272"
           width="744.09448"
           height="1052.3622" />
        <use
           id="use5250"
           y="72.294502"
           xlink:href="#equation_00_11"
           x="103.066"
           width="744.09448"
           height="1052.3622" />
        <use
           id="use5252"
           y="72.294502"
           xlink:href="#equation_00_09"
           x="107.052"
           width="744.09448"
           height="1052.3622" />
        <use
           id="use5254"
           y="80.155502"
           xlink:href="#equation_00_12"
           x="90.781303"
           width="744.09448"
           height="1052.3622" />
        <use
           id="use5256"
           y="91.533401"
           xlink:href="#equation_00_02"
           x="85.75"
           width="744.09448"
           height="1052.3622" />
        <use
           id="use5258"
           y="86.338898"
           xlink:href="#equation_00_08"
           x="90.781303"
           width="744.09448"
           height="1052.3622" />
        <use
           id="use5260"
           y="86.338898"
           xlink:href="#equation_00_00"
           x="93.906303"
           width="744.09448"
           height="1052.3622" />
        <use
           id="use5262"
           y="86.338898"
           xlink:href="#equation_00_10"
           x="96.9272"
           width="744.09448"
           height="1052.3622" />
        <use
           id="use5264"
           y="86.338898"
           xlink:href="#equation_00_11"
           x="103.066"
           width="744.09448"
           height="1052.3622" />
        <use
           id="use5266"
           y="86.338898"
           xlink:href="#equation_00_09"
           x="107.052"
           width="744.09448"
           height="1052.3622" />
        <use
           id="use5268"
           y="94.199997"
           xlink:href="#equation_00_13"
           x="90.781303"
           width="744.09448"
           height="1052.3622" />
        <use
           id="use5270"
           y="53.466499"
           xlink:href="#equation_00_15"
           x="110.677"
           width="744.09448"
           height="1052.3622" />
        <use
           id="use5272"
           y="71.066704"
           xlink:href="#equation_00_19"
           x="110.677"
           width="744.09448"
           height="1052.3622" />
        <use
           id="use5274"
           y="77.466698"
           xlink:href="#equation_00_17"
           x="110.677"
           width="744.09448"
           height="1052.3622" />
        <use
           id="use5276"
           y="76.566704"
           xlink:href="#equation_00_07"
           x="122.205"
           width="744.09448"
           height="1052.3622" />
        <use
           id="use5278"
           y="56.466499"
           xlink:href="#equation_00_14"
           x="132.75999"
           width="744.09448"
           height="1052.3622" />
        <use
           id="use5280"
           y="74.466698"
           xlink:href="#equation_00_16"
           x="132.75999"
           width="744.09448"
           height="1052.3622" />
        <use
           id="use5282"
           y="64.466698"
           xlink:href="#equation_00_04"
           x="141.50999"
           width="744.09448"
           height="1052.3622" />
        <use
           id="use5284"
           y="64.466698"
           xlink:href="#equation_00_01"
           x="146.50999"
           width="744.09448"
           height="1052.3622" />
        <use
           id="use5286"
           y="64.466698"
           xlink:href="#equation_00_05"
           x="151.50999"
           width="744.09448"
           height="1052.3622" />
        <use
           id="use5288"
           y="64.466698"
           xlink:href="#equation_00_04"
           x="166.50999"
           width="744.09448"
           height="1052.3622" />
        <use
           id="use5290"
           y="64.466698"
           xlink:href="#equation_00_01"
           x="171.511"
           width="744.09448"
           height="1052.3622" />
        <use
           id="use5292"
           y="64.466698"
           xlink:href="#equation_00_06"
           x="176.511"
           width="744.09448"
           height="1052.3622" />
        <use
           id="use5294"
           y="64.466698"
           xlink:href="#equation_00_05"
           x="191.511"
           width="744.09448"
           height="1052.3622" />
        <use
           id="use5296"
           y="64.466698"
           xlink:href="#equation_00_01"
           x="196.511"
           width="744.09448"
           height="1052.3622" />
        <use
           id="use5298"
           y="64.466698"
           xlink:href="#equation_00_06"
           x="201.511"
           width="744.09448"
           height="1052.3622" />
        <use
           id="use5300"
           y="76.466698"
           xlink:href="#equation_00_03"
           x="146.50999"
           width="744.09448"
           height="1052.3622" />
        <use
           id="use5302"
           y="76.466698"
           xlink:href="#equation_00_04"
           x="166.50999"
           width="744.09448"
           height="1052.3622" />
        <use
           id="use5304"
           y="76.466698"
           xlink:href="#equation_00_01"
           x="171.511"
           width="744.09448"
           height="1052.3622" />
        <use
           id="use5306"
           y="76.466698"
           xlink:href="#equation_00_06"
           x="176.511"
           width="744.09448"
           height="1052.3622" />
        <use
           id="use5308"
           y="76.466698"
           xlink:href="#equation_00_04"
           x="191.511"
           width="744.09448"
           height="1052.3622" />
        <use
           id="use5310"
           y="76.466698"
           xlink:href="#equation_00_01"
           x="196.511"
           width="744.09448"
           height="1052.3622" />
        <use
           id="use5312"
           y="76.466698"
           xlink:href="#equation_00_06"
           x="201.511"
           width="744.09448"
           height="1052.3622" />
        <use
           id="use5314"
           y="88.466698"
           xlink:href="#equation_00_04"
           x="141.50999"
           width="744.09448"
           height="1052.3622" />
        <use
           id="use5316"
           y="88.466698"
           xlink:href="#equation_00_01"
           x="146.50999"
           width="744.09448"
           height="1052.3622" />
        <use
           id="use5318"
           y="88.466698"
           xlink:href="#equation_00_05"
           x="151.50999"
           width="744.09448"
           height="1052.3622" />
        <use
           id="use5320"
           y="88.466698"
           xlink:href="#equation_00_04"
           x="166.50999"
           width="744.09448"
           height="1052.3622" />
        <use
           id="use5322"
           y="88.466698"
           xlink:href="#equation_00_01"
           x="171.511"
           width="744.09448"
           height="1052.3622" />
        <use
           id="use5324"
           y="88.466698"
           xlink:href="#equation_00_06"
           x="176.511"
           width="744.09448"
           height="1052.3622" />
        <use
           id="use5326"
           y="88.466698"
           xlink:href="#equation_00_03"
           x="196.511"
           width="744.09448"
           height="1052.3622" />
        <use
           id="use5328"
           y="56.466499"
           xlink:href="#equation_00_15"
           x="206.511"
           width="744.09448"
           height="1052.3622" />
        <use
           id="use5330"
           y="74.466698"
           xlink:href="#equation_00_17"
           x="206.511"
           width="744.09448"
           height="1052.3622" />
        <use
           id="use5332"
           y="53.466499"
           xlink:href="#equation_00_14"
           x="216.927"
           width="744.09448"
           height="1052.3622" />
        <use
           id="use5334"
           y="71.066704"
           xlink:href="#equation_00_18"
           x="216.927"
           width="744.09448"
           height="1052.3622" />
        <use
           id="use5336"
           y="77.466698"
           xlink:href="#equation_00_16"
           x="216.927"
           width="744.09448"
           height="1052.3622" />
        <use
           id="use5338"
           y="63.444401"
           xlink:href="#equation_00_02"
           x="225.677"
           width="744.09448"
           height="1052.3622" />
        <use
           id="use5340"
           y="58.25"
           xlink:href="#equation_00_08"
           x="230.70799"
           width="744.09448"
           height="1052.3622" />
        <use
           id="use5342"
           y="58.25"
           xlink:href="#equation_00_00"
           x="233.834"
           width="744.09448"
           height="1052.3622" />
        <use
           id="use5344"
           y="58.25"
           xlink:href="#equation_00_09"
           x="236.854"
           width="744.09448"
           height="1052.3622" />
        <use
           id="use5346"
           y="66.111"
           xlink:href="#equation_00_11"
           x="230.70799"
           width="744.09448"
           height="1052.3622" />
        <use
           id="use5348"
           y="77.488899"
           xlink:href="#equation_00_02"
           x="225.677"
           width="744.09448"
           height="1052.3622" />
        <use
           id="use5350"
           y="72.294502"
           xlink:href="#equation_00_08"
           x="230.70799"
           width="744.09448"
           height="1052.3622" />
        <use
           id="use5352"
           y="72.294502"
           xlink:href="#equation_00_00"
           x="233.834"
           width="744.09448"
           height="1052.3622" />
        <use
           id="use5354"
           y="72.294502"
           xlink:href="#equation_00_09"
           x="236.854"
           width="744.09448"
           height="1052.3622" />
        <use
           id="use5356"
           y="80.155502"
           xlink:href="#equation_00_12"
           x="230.70799"
           width="744.09448"
           height="1052.3622" />
        <use
           id="use5358"
           y="91.533401"
           xlink:href="#equation_00_02"
           x="225.677"
           width="744.09448"
           height="1052.3622" />
        <use
           id="use5360"
           y="86.338898"
           xlink:href="#equation_00_08"
           x="230.70799"
           width="744.09448"
           height="1052.3622" />
        <use
           id="use5362"
           y="86.338898"
           xlink:href="#equation_00_00"
           x="233.834"
           width="744.09448"
           height="1052.3622" />
        <use
           id="use5364"
           y="86.338898"
           xlink:href="#equation_00_09"
           x="236.854"
           width="744.09448"
           height="1052.3622" />
        <use
           id="use5366"
           y="94.199997"
           xlink:href="#equation_00_13"
           x="230.70799"
           width="744.09448"
           height="1052.3622" />
        <use
           id="use5368"
           y="53.466499"
           xlink:href="#equation_00_15"
           x="240.479"
           width="744.09448"
           height="1052.3622" />
        <use
           id="use5370"
           y="71.066704"
           xlink:href="#equation_00_19"
           x="240.479"
           width="744.09448"
           height="1052.3622" />
        <use
           id="use5372"
           y="77.466698"
           xlink:href="#equation_00_17"
           x="240.479"
           width="744.09448"
           height="1052.3622" />
      </g>
    </g>
  </g>
</svg>
