<?xml version="1.0" encoding="UTF-8" standalone="no"?>
<!-- Created with Inkscape (http://www.inkscape.org/) -->

<svg
   xmlns:dc="http://purl.org/dc/elements/1.1/"
   xmlns:cc="http://creativecommons.org/ns#"
   xmlns:rdf="http://www.w3.org/1999/02/22-rdf-syntax-ns#"
   xmlns:svg="http://www.w3.org/2000/svg"
   xmlns="http://www.w3.org/2000/svg"
   xmlns:xlink="http://www.w3.org/1999/xlink"
   xmlns:sodipodi="http://sodipodi.sourceforge.net/DTD/sodipodi-0.dtd"
   xmlns:inkscape="http://www.inkscape.org/namespaces/inkscape"
   width="210mm"
   height="297mm"
   id="svg2"
   version="1.1"
   inkscape:version="0.48.4 r9939"
   sodipodi:docname="maximum-margin-classifier3.svg"
   inkscape:export-filename="\\EULER\nineties\projects\prml-seminar\fig\maximum-margin-classifier3.png"
   inkscape:export-xdpi="95.32"
   inkscape:export-ydpi="95.32">
  <sodipodi:namedview
     id="base"
     pagecolor="#ffffff"
     bordercolor="#666666"
     borderopacity="1.0"
     inkscape:pageopacity="0.0"
     inkscape:pageshadow="2"
     inkscape:zoom="0.7"
     inkscape:cx="426.96397"
     inkscape:cy="863.02436"
     inkscape:document-units="px"
     inkscape:current-layer="layer1"
     showgrid="false"
     inkscape:window-width="1366"
     inkscape:window-height="746"
     inkscape:window-x="-8"
     inkscape:window-y="-8"
     inkscape:window-maximized="1" />
  <defs
     id="defs4" />
  <metadata
     id="metadata7">
    <rdf:RDF>
      <cc:Work
         rdf:about="">
        <dc:format>image/svg+xml</dc:format>
        <dc:type
           rdf:resource="http://purl.org/dc/dcmitype/StillImage" />
        <dc:title></dc:title>
      </cc:Work>
    </rdf:RDF>
  </metadata>
  <g
     inkscape:label="レイヤー 1"
     inkscape:groupmode="layer"
     id="layer1">
    <path
       sodipodi:type="arc"
       style="fill:#ff0000;stroke:#ff0000;stroke-width:16.48903275;stroke-linecap:round;stroke-linejoin:round;stroke-miterlimit:4;stroke-opacity:1;stroke-dasharray:none;stroke-dashoffset:0"
       id="path2985"
       sodipodi:cx="125.25892"
       sodipodi:cy="94.232491"
       sodipodi:rx="48.992397"
       sodipodi:ry="48.992397"
       d="m 174.25132,94.232491 a 48.992397,48.992397 0 1 1 -97.984799,0 48.992397,48.992397 0 1 1 97.984799,0 z"
       transform="matrix(0.16991914,0,0,0.16991914,76.705602,113.85119)" />
    <path
       sodipodi:type="arc"
       style="fill:#ff0000;stroke:#ff0000;stroke-width:16.48903275;stroke-linecap:round;stroke-linejoin:round;stroke-miterlimit:4;stroke-opacity:1;stroke-dasharray:none;stroke-dashoffset:0"
       id="path2985-1"
       sodipodi:cx="125.25892"
       sodipodi:cy="94.232491"
       sodipodi:rx="48.992397"
       sodipodi:ry="48.992397"
       d="m 174.25132,94.232491 a 48.992397,48.992397 0 1 1 -97.984799,0 48.992397,48.992397 0 1 1 97.984799,0 z"
       transform="matrix(0.16991914,0,0,0.16991914,292.512,91.916776)" />
    <path
       sodipodi:type="arc"
       style="fill:#ff0000;stroke:#ff0000;stroke-width:16.48903275;stroke-linecap:round;stroke-linejoin:round;stroke-miterlimit:4;stroke-opacity:1;stroke-dasharray:none;stroke-dashoffset:0"
       id="path2985-1-7"
       sodipodi:cx="125.25892"
       sodipodi:cy="94.232491"
       sodipodi:rx="48.992397"
       sodipodi:ry="48.992397"
       d="m 174.25132,94.232491 a 48.992397,48.992397 0 1 1 -97.984799,0 48.992397,48.992397 0 1 1 97.984799,0 z"
       transform="matrix(0.16991914,0,0,0.16991914,213.26507,152.7671)" />
    <path
       sodipodi:type="arc"
       style="fill:#0000ff;stroke:#0000ff;stroke-width:16.48903275;stroke-linecap:round;stroke-linejoin:round;stroke-miterlimit:4;stroke-opacity:1;stroke-dasharray:none;stroke-dashoffset:0"
       id="path2985-1-7-4"
       sodipodi:cx="125.25892"
       sodipodi:cy="94.232491"
       sodipodi:rx="48.992397"
       sodipodi:ry="48.992397"
       d="m 174.25132,94.232491 a 48.992397,48.992397 0 1 1 -97.984799,0 48.992397,48.992397 0 1 1 97.984799,0 z"
       transform="matrix(0.16991914,0,0,0.16991914,504.78058,404.65915)" />
    <path
       sodipodi:type="arc"
       style="fill:#0000ff;stroke:#0000ff;stroke-width:16.48903275;stroke-linecap:round;stroke-linejoin:round;stroke-miterlimit:4;stroke-opacity:1;stroke-dasharray:none;stroke-dashoffset:0"
       id="path2985-1-7-4-0"
       sodipodi:cx="125.25892"
       sodipodi:cy="94.232491"
       sodipodi:rx="48.992397"
       sodipodi:ry="48.992397"
       d="m 174.25132,94.232491 a 48.992397,48.992397 0 1 1 -97.984799,0 48.992397,48.992397 0 1 1 97.984799,0 z"
       transform="matrix(0.16991914,0,0,0.16991914,613.74514,304.18537)" />
    <path
       sodipodi:type="arc"
       style="fill:#0000ff;stroke:#0000ff;stroke-width:16.48903275;stroke-linecap:round;stroke-linejoin:round;stroke-miterlimit:4;stroke-opacity:1;stroke-dasharray:none;stroke-dashoffset:0"
       id="path2985-1-7-4-0-9"
       sodipodi:cx="125.25892"
       sodipodi:cy="94.232491"
       sodipodi:rx="48.992397"
       sodipodi:ry="48.992397"
       d="m 174.25132,94.232491 a 48.992397,48.992397 0 1 1 -97.984799,0 48.992397,48.992397 0 1 1 97.984799,0 z"
       transform="matrix(0.16991914,0,0,0.16991914,507.61082,224.93842)" />
    <path
       sodipodi:type="arc"
       style="fill:#0000ff;stroke:#0000ff;stroke-width:16.48903275;stroke-linecap:round;stroke-linejoin:round;stroke-miterlimit:4;stroke-opacity:1;stroke-dasharray:none;stroke-dashoffset:0"
       id="path2985-1-7-4-0-9-4"
       sodipodi:cx="125.25892"
       sodipodi:cy="94.232491"
       sodipodi:rx="48.992397"
       sodipodi:ry="48.992397"
       d="m 174.25132,94.232491 a 48.992397,48.992397 0 1 1 -97.984799,0 48.992397,48.992397 0 1 1 97.984799,0 z"
       transform="matrix(0.16991914,0,0,0.16991914,377.41944,357.96008)" />
    <path
       sodipodi:type="arc"
       style="fill:#0000ff;stroke:#0000ff;stroke-width:16.48903275;stroke-linecap:round;stroke-linejoin:round;stroke-miterlimit:4;stroke-opacity:1;stroke-dasharray:none;stroke-dashoffset:0"
       id="path2985-1-7-4-0-9-4-8"
       sodipodi:cx="125.25892"
       sodipodi:cy="94.232491"
       sodipodi:rx="48.992397"
       sodipodi:ry="48.992397"
       d="m 174.25132,94.232491 a 48.992397,48.992397 0 1 1 -97.984799,0 48.992397,48.992397 0 1 1 97.984799,0 z"
       transform="matrix(0.16991914,0,0,0.16991914,588.27289,147.10661)" />
    <path
       sodipodi:type="arc"
       style="fill:#ff0000;stroke:#ff0000;stroke-width:16.48903275;stroke-linecap:round;stroke-linejoin:round;stroke-miterlimit:4;stroke-opacity:1;stroke-dasharray:none;stroke-dashoffset:0"
       id="path2985-1-7-4-0-9-4-8-8"
       sodipodi:cx="125.25892"
       sodipodi:cy="94.232491"
       sodipodi:rx="48.992397"
       sodipodi:ry="48.992397"
       d="m 174.25132,94.232491 a 48.992397,48.992397 0 1 1 -97.984799,0 48.992397,48.992397 0 1 1 97.984799,0 z"
       transform="matrix(0.16991914,0,0,0.16991914,186.37768,253.2409)" />
    <path
       sodipodi:type="arc"
       style="fill:#ff0000;stroke:#ff0000;stroke-width:16.48903275;stroke-linecap:round;stroke-linejoin:round;stroke-miterlimit:4;stroke-opacity:1;stroke-dasharray:none;stroke-dashoffset:0"
       id="path2985-1-7-4-0-9-4-8-8-2"
       sodipodi:cx="125.25892"
       sodipodi:cy="94.232491"
       sodipodi:rx="48.992397"
       sodipodi:ry="48.992397"
       d="m 174.25132,94.232491 a 48.992397,48.992397 0 1 1 -97.984799,0 48.992397,48.992397 0 1 1 97.984799,0 z"
       transform="matrix(0.16991914,0,0,0.16991914,105.71565,93.331899)" />
    <path
       sodipodi:type="arc"
       style="fill:#ff0000;stroke:#ff0000;stroke-width:16.48903275;stroke-linecap:round;stroke-linejoin:round;stroke-miterlimit:4;stroke-opacity:1;stroke-dasharray:none;stroke-dashoffset:0"
       id="path2985-1-7-4-0-9-4-8-8-2-4"
       sodipodi:cx="125.25892"
       sodipodi:cy="94.232491"
       sodipodi:rx="48.992397"
       sodipodi:ry="48.992397"
       d="m 174.25132,94.232491 a 48.992397,48.992397 0 1 1 -97.984799,0 48.992397,48.992397 0 1 1 97.984799,0 z"
       transform="matrix(0.16991914,0,0,0.16991914,56.186308,264.56189)" />
    <path
       sodipodi:type="arc"
       style="fill:#0000ff;stroke:#0000ff;stroke-width:16.48903275;stroke-linecap:round;stroke-linejoin:round;stroke-miterlimit:4;stroke-opacity:1;stroke-dasharray:none;stroke-dashoffset:0"
       id="path2985-1-7-4-0-9-4-8-8-2-4-5"
       sodipodi:cx="125.25892"
       sodipodi:cy="94.232491"
       sodipodi:rx="48.992397"
       sodipodi:ry="48.992397"
       d="m 174.25132,94.232491 a 48.992397,48.992397 0 1 1 -97.984799,0 48.992397,48.992397 0 1 1 97.984799,0 z"
       transform="matrix(0.16991914,0,0,0.16991914,593.93337,256.07115)" />
    <path
       inkscape:connector-curvature="0"
       id="path4581"
       d="m 358.99915,10.285132 c 0,18.39661 -24.05712,489.632858 -24.05712,489.632858"
       style="fill:none;stroke:#000000;stroke-width:2;stroke-linecap:butt;stroke-linejoin:miter;stroke-miterlimit:4;stroke-opacity:1;stroke-dasharray:6, 6;stroke-dashoffset:0" />
    <g
       title="$f(\mathbf{x})&lt;0$"
       style="fill:#000000"
       id="equation_00"
       transform="matrix(2.9573152,0,0,2.9573152,283.96364,-85.346997)">
      <defs
         id="defs4616">
        <path
           id="equation_00_00"
           d="m 3.46,-2.46 1.17,-1.3 C 4.76,-3.9 4.82,-3.97 5.65,-3.97 V -4.44 C 5.3,-4.42 4.78,-4.41 4.73,-4.41 4.48,-4.41 3.98,-4.43 3.7,-4.44 v 0.47 c 0.14,0 0.26,0.02 0.38,0.09 C 4.04,-3.82 4.04,-3.8 4,-3.76 L 3.16,-2.82 2.18,-3.97 h 0.4 v -0.47 c -0.26,0.01 -0.89,0.03 -1.21,0.03 -0.32,0 -0.77,-0.02 -1.1,-0.03 v 0.47 h 0.71 l 1.56,1.84 -1.31,1.47 C 1.06,-0.47 0.7,-0.47 0.22,-0.47 V 0 c 0.35,-0.02 0.87,-0.03 0.92,-0.03 0.25,0 0.83,0.02 1.03,0.03 v -0.47 c -0.18,0 -0.37,-0.05 -0.37,-0.11 0,-0.01 0,-0.02 0.07,-0.1 l 0.97,-1.09 1.1,1.3 H 3.55 V 0 c 0.26,-0.01 0.87,-0.03 1.2,-0.03 0.32,0 0.77,0.02 1.1,0.03 V -0.47 H 5.14 L 3.46,-2.46 z"
           inkscape:connector-curvature="0" />
        <path
           id="equation_00_01"
           d="m 6.75,-4.98 c 0.12,-0.06 0.19,-0.11 0.19,-0.22 0,-0.11 -0.09,-0.2 -0.2,-0.2 -0.03,0 -0.05,0 -0.18,0.07 l -5.54,2.61 c -0.11,0.05 -0.19,0.1 -0.19,0.22 0,0.12 0.08,0.17 0.19,0.22 L 6.56,0.33 C 6.69,0.4 6.71,0.4 6.74,0.4 6.85,0.4 6.94,0.31 6.94,0.2 6.94,0.09 6.87,0.04 6.75,-0.02 L 1.5,-2.5 6.75,-4.98 z"
           inkscape:connector-curvature="0" />
        <path
           id="equation_00_02"
           d="m 3.67,-4 h 0.86 c 0.2,0 0.3,0 0.3,-0.2 0,-0.11 -0.1,-0.11 -0.27,-0.11 H 3.73 l 0.21,-1.14 c 0.04,-0.21 0.18,-0.92 0.24,-1.04 0.09,-0.19 0.26,-0.34 0.47,-0.34 0.04,0 0.3,0 0.49,0.18 -0.44,0.04 -0.54,0.39 -0.54,0.54 0,0.23 0.18,0.35 0.37,0.35 0.26,0 0.55,-0.22 0.55,-0.6 0,-0.46 -0.46,-0.69 -0.87,-0.69 -0.34,0 -0.97,0.18 -1.27,1.17 -0.06,0.21 -0.09,0.31 -0.33,1.57 H 2.36 c -0.19,0 -0.3,0 -0.3,0.19 C 2.06,-4 2.15,-4 2.34,-4 H 3 L 2.25,-0.05 C 2.07,0.92 1.9,1.83 1.38,1.83 1.34,1.83 1.09,1.83 0.9,1.65 1.36,1.62 1.45,1.26 1.45,1.11 1.45,0.88 1.27,0.76 1.08,0.76 c -0.26,0 -0.55,0.22 -0.55,0.6 0,0.45 0.44,0.69 0.85,0.69 0.55,0 0.95,-0.59 1.13,-0.97 0.32,-0.63 0.55,-1.84 0.56,-1.91 L 3.67,-4 z"
           inkscape:connector-curvature="0" />
        <path
           id="equation_00_03"
           d="M 3.31,2.4 C 3.31,2.37 3.31,2.35 3.14,2.18 1.89,0.92 1.57,-0.97 1.57,-2.5 c 0,-1.74 0.38,-3.48 1.61,-4.73 0.13,-0.12 0.13,-0.14 0.13,-0.17 0,-0.07 -0.04,-0.1 -0.1,-0.1 -0.1,0 -1,0.68 -1.59,1.95 -0.51,1.1 -0.63,2.21 -0.63,3.05 0,0.78 0.11,1.99 0.66,3.12 0.6,1.23 1.46,1.88 1.56,1.88 0.06,0 0.1,-0.03 0.1,-0.1 z"
           inkscape:connector-curvature="0" />
        <path
           id="equation_00_04"
           d="M 2.89,-2.5 C 2.89,-3.28 2.78,-4.49 2.23,-5.62 1.63,-6.85 0.77,-7.5 0.67,-7.5 c -0.06,0 -0.1,0.04 -0.1,0.1 0,0.03 0,0.05 0.19,0.23 0.98,0.99 1.55,2.58 1.55,4.67 0,1.71 -0.37,3.47 -1.61,4.73 -0.13,0.12 -0.13,0.14 -0.13,0.17 0,0.06 0.04,0.1 0.1,0.1 0.1,0 1,-0.68 1.59,-1.95 0.51,-1.1 0.63,-2.21 0.63,-3.05 z"
           inkscape:connector-curvature="0" />
        <path
           id="equation_00_05"
           d="M 4.6,-3.2 C 4.6,-4 4.55,-4.8 4.2,-5.54 3.74,-6.5 2.92,-6.66 2.5,-6.66 1.9,-6.66 1.17,-6.4 0.76,-5.47 0.44,-4.78 0.39,-4 0.39,-3.2 c 0,0.75 0.04,1.65 0.45,2.41 C 1.27,0.02 2,0.22 2.49,0.22 3.03,0.22 3.79,0.01 4.23,-0.94 4.55,-1.63 4.6,-2.41 4.6,-3.2 z M 2.49,0 C 2.1,0 1.51,-0.25 1.33,-1.21 1.22,-1.81 1.22,-2.73 1.22,-3.32 c 0,-0.64 0,-1.3 0.08,-1.84 0.19,-1.19 0.94,-1.28 1.19,-1.28 0.33,0 0.99,0.18 1.18,1.17 0.1,0.56 0.1,1.32 0.1,1.95 0,0.75 0,1.43 -0.11,2.07 C 3.51,-0.3 2.94,0 2.49,0 z"
           inkscape:connector-curvature="0" />
      </defs>
      <g
         id="equation_00_g">
        <use
           id="use4625"
           y="63"
           xlink:href="#equation_00_02"
           x="77"
           width="744.09448"
           height="1052.3622" />
        <use
           id="use4627"
           y="63"
           xlink:href="#equation_00_03"
           x="82.972298"
           width="744.09448"
           height="1052.3622" />
        <use
           id="use4629"
           y="63"
           xlink:href="#equation_00_00"
           x="86.861198"
           width="744.09448"
           height="1052.3622" />
        <use
           id="use4631"
           y="63"
           xlink:href="#equation_00_04"
           x="92.930603"
           width="744.09448"
           height="1052.3622" />
        <use
           id="use4633"
           y="63"
           xlink:href="#equation_00_01"
           x="99.597198"
           width="744.09448"
           height="1052.3622" />
        <use
           id="use4635"
           y="63"
           xlink:href="#equation_00_05"
           x="110.153"
           width="744.09448"
           height="1052.3622" />
      </g>
    </g>
    <g
       id="equation_01"
       style="fill:#000000"
       title="$f(\mathbf{x})&gt;0$"
       transform="matrix(2.9573152,0,0,2.9573152,-91.75065,-123.91843)">
      <defs
         id="defs4702">
        <path
           d="m 3.46,-2.46 1.17,-1.3 C 4.76,-3.9 4.82,-3.97 5.65,-3.97 V -4.44 C 5.3,-4.42 4.78,-4.41 4.73,-4.41 4.48,-4.41 3.98,-4.43 3.7,-4.44 v 0.47 c 0.14,0 0.26,0.02 0.38,0.09 C 4.04,-3.82 4.04,-3.8 4,-3.76 L 3.16,-2.82 2.18,-3.97 h 0.4 v -0.47 c -0.26,0.01 -0.89,0.03 -1.21,0.03 -0.32,0 -0.77,-0.02 -1.1,-0.03 v 0.47 h 0.71 l 1.56,1.84 -1.31,1.47 C 1.06,-0.47 0.7,-0.47 0.22,-0.47 V 0 c 0.35,-0.02 0.87,-0.03 0.92,-0.03 0.25,0 0.83,0.02 1.03,0.03 v -0.47 c -0.18,0 -0.37,-0.05 -0.37,-0.11 0,-0.01 0,-0.02 0.07,-0.1 l 0.97,-1.09 1.1,1.3 H 3.55 V 0 c 0.26,-0.01 0.87,-0.03 1.2,-0.03 0.32,0 0.77,0.02 1.1,0.03 V -0.47 H 5.14 L 3.46,-2.46 z"
           id="equation_01_00"
           inkscape:connector-curvature="0" />
        <path
           d="m 6.75,-2.28 c 0.11,-0.05 0.19,-0.1 0.19,-0.22 0,-0.12 -0.08,-0.17 -0.19,-0.22 L 1.21,-5.33 C 1.08,-5.4 1.06,-5.4 1.03,-5.4 c -0.11,0 -0.2,0.09 -0.2,0.2 0,0.09 0.05,0.15 0.19,0.22 L 6.27,-2.5 1.02,-0.02 C 0.88,0.05 0.83,0.11 0.83,0.2 c 0,0.11 0.09,0.2 0.2,0.2 0.03,0 0.05,0 0.18,-0.07 l 5.54,-2.61 z"
           id="equation_01_01"
           inkscape:connector-curvature="0" />
        <path
           d="m 3.67,-4 h 0.86 c 0.2,0 0.3,0 0.3,-0.2 0,-0.11 -0.1,-0.11 -0.27,-0.11 H 3.73 l 0.21,-1.14 c 0.04,-0.21 0.18,-0.92 0.24,-1.04 0.09,-0.19 0.26,-0.34 0.47,-0.34 0.04,0 0.3,0 0.49,0.18 -0.44,0.04 -0.54,0.39 -0.54,0.54 0,0.23 0.18,0.35 0.37,0.35 0.26,0 0.55,-0.22 0.55,-0.6 0,-0.46 -0.46,-0.69 -0.87,-0.69 -0.34,0 -0.97,0.18 -1.27,1.17 -0.06,0.21 -0.09,0.31 -0.33,1.57 H 2.36 c -0.19,0 -0.3,0 -0.3,0.19 C 2.06,-4 2.15,-4 2.34,-4 H 3 L 2.25,-0.05 C 2.07,0.92 1.9,1.83 1.38,1.83 1.34,1.83 1.09,1.83 0.9,1.65 1.36,1.62 1.45,1.26 1.45,1.11 1.45,0.88 1.27,0.76 1.08,0.76 c -0.26,0 -0.55,0.22 -0.55,0.6 0,0.45 0.44,0.69 0.85,0.69 0.55,0 0.95,-0.59 1.13,-0.97 0.32,-0.63 0.55,-1.84 0.56,-1.91 L 3.67,-4 z"
           id="equation_01_02"
           inkscape:connector-curvature="0" />
        <path
           d="M 3.31,2.4 C 3.31,2.37 3.31,2.35 3.14,2.18 1.89,0.92 1.57,-0.97 1.57,-2.5 c 0,-1.74 0.38,-3.48 1.61,-4.73 0.13,-0.12 0.13,-0.14 0.13,-0.17 0,-0.07 -0.04,-0.1 -0.1,-0.1 -0.1,0 -1,0.68 -1.59,1.95 -0.51,1.1 -0.63,2.21 -0.63,3.05 0,0.78 0.11,1.99 0.66,3.12 0.6,1.23 1.46,1.88 1.56,1.88 0.06,0 0.1,-0.03 0.1,-0.1 z"
           id="equation_01_03"
           inkscape:connector-curvature="0" />
        <path
           d="M 2.89,-2.5 C 2.89,-3.28 2.78,-4.49 2.23,-5.62 1.63,-6.85 0.77,-7.5 0.67,-7.5 c -0.06,0 -0.1,0.04 -0.1,0.1 0,0.03 0,0.05 0.19,0.23 0.98,0.99 1.55,2.58 1.55,4.67 0,1.71 -0.37,3.47 -1.61,4.73 -0.13,0.12 -0.13,0.14 -0.13,0.17 0,0.06 0.04,0.1 0.1,0.1 0.1,0 1,-0.68 1.59,-1.95 0.51,-1.1 0.63,-2.21 0.63,-3.05 z"
           id="equation_01_04"
           inkscape:connector-curvature="0" />
        <path
           d="M 4.6,-3.2 C 4.6,-4 4.55,-4.8 4.2,-5.54 3.74,-6.5 2.92,-6.66 2.5,-6.66 1.9,-6.66 1.17,-6.4 0.76,-5.47 0.44,-4.78 0.39,-4 0.39,-3.2 c 0,0.75 0.04,1.65 0.45,2.41 C 1.27,0.02 2,0.22 2.49,0.22 3.03,0.22 3.79,0.01 4.23,-0.94 4.55,-1.63 4.6,-2.41 4.6,-3.2 z M 2.49,0 C 2.1,0 1.51,-0.25 1.33,-1.21 1.22,-1.81 1.22,-2.73 1.22,-3.32 c 0,-0.64 0,-1.3 0.08,-1.84 0.19,-1.19 0.94,-1.28 1.19,-1.28 0.33,0 0.99,0.18 1.18,1.17 0.1,0.56 0.1,1.32 0.1,1.95 0,0.75 0,1.43 -0.11,2.07 C 3.51,-0.3 2.94,0 2.49,0 z"
           id="equation_01_05"
           inkscape:connector-curvature="0" />
      </defs>
      <g
         id="equation_01_g">
        <use
           x="77"
           xlink:href="#equation_01_02"
           y="63"
           id="use4711"
           width="744.09448"
           height="1052.3622" />
        <use
           x="82.972298"
           xlink:href="#equation_01_03"
           y="63"
           id="use4713"
           width="744.09448"
           height="1052.3622" />
        <use
           x="86.861198"
           xlink:href="#equation_01_00"
           y="63"
           id="use4715"
           width="744.09448"
           height="1052.3622" />
        <use
           x="92.930603"
           xlink:href="#equation_01_04"
           y="63"
           id="use4717"
           width="744.09448"
           height="1052.3622" />
        <use
           x="99.597198"
           xlink:href="#equation_01_01"
           y="63"
           id="use4719"
           width="744.09448"
           height="1052.3622" />
        <use
           x="110.153"
           xlink:href="#equation_01_05"
           y="63"
           id="use4721"
           width="744.09448"
           height="1052.3622" />
      </g>
    </g>
    <g
       title="$f(\mathbf{x})=0$"
       style="fill:#000000"
       id="equation_02"
       transform="matrix(2.9573152,0,0,2.9573152,136.82078,-155.347)">
      <defs
         id="defs4818">
        <path
           id="equation_02_00"
           d="m 3.46,-2.46 1.17,-1.3 C 4.76,-3.9 4.82,-3.97 5.65,-3.97 V -4.44 C 5.3,-4.42 4.78,-4.41 4.73,-4.41 4.48,-4.41 3.98,-4.43 3.7,-4.44 v 0.47 c 0.14,0 0.26,0.02 0.38,0.09 C 4.04,-3.82 4.04,-3.8 4,-3.76 L 3.16,-2.82 2.18,-3.97 h 0.4 v -0.47 c -0.26,0.01 -0.89,0.03 -1.21,0.03 -0.32,0 -0.77,-0.02 -1.1,-0.03 v 0.47 h 0.71 l 1.56,1.84 -1.31,1.47 C 1.06,-0.47 0.7,-0.47 0.22,-0.47 V 0 c 0.35,-0.02 0.87,-0.03 0.92,-0.03 0.25,0 0.83,0.02 1.03,0.03 v -0.47 c -0.18,0 -0.37,-0.05 -0.37,-0.11 0,-0.01 0,-0.02 0.07,-0.1 l 0.97,-1.09 1.1,1.3 H 3.55 V 0 c 0.26,-0.01 0.87,-0.03 1.2,-0.03 0.32,0 0.77,0.02 1.1,0.03 V -0.47 H 5.14 L 3.46,-2.46 z"
           inkscape:connector-curvature="0" />
        <path
           id="equation_02_01"
           d="m 3.67,-4 h 0.86 c 0.2,0 0.3,0 0.3,-0.2 0,-0.11 -0.1,-0.11 -0.27,-0.11 H 3.73 l 0.21,-1.14 c 0.04,-0.21 0.18,-0.92 0.24,-1.04 0.09,-0.19 0.26,-0.34 0.47,-0.34 0.04,0 0.3,0 0.49,0.18 -0.44,0.04 -0.54,0.39 -0.54,0.54 0,0.23 0.18,0.35 0.37,0.35 0.26,0 0.55,-0.22 0.55,-0.6 0,-0.46 -0.46,-0.69 -0.87,-0.69 -0.34,0 -0.97,0.18 -1.27,1.17 -0.06,0.21 -0.09,0.31 -0.33,1.57 H 2.36 c -0.19,0 -0.3,0 -0.3,0.19 C 2.06,-4 2.15,-4 2.34,-4 H 3 L 2.25,-0.05 C 2.07,0.92 1.9,1.83 1.38,1.83 1.34,1.83 1.09,1.83 0.9,1.65 1.36,1.62 1.45,1.26 1.45,1.11 1.45,0.88 1.27,0.76 1.08,0.76 c -0.26,0 -0.55,0.22 -0.55,0.6 0,0.45 0.44,0.69 0.85,0.69 0.55,0 0.95,-0.59 1.13,-0.97 0.32,-0.63 0.55,-1.84 0.56,-1.91 L 3.67,-4 z"
           inkscape:connector-curvature="0" />
        <path
           id="equation_02_02"
           d="M 3.31,2.4 C 3.31,2.37 3.31,2.35 3.14,2.18 1.89,0.92 1.57,-0.97 1.57,-2.5 c 0,-1.74 0.38,-3.48 1.61,-4.73 0.13,-0.12 0.13,-0.14 0.13,-0.17 0,-0.07 -0.04,-0.1 -0.1,-0.1 -0.1,0 -1,0.68 -1.59,1.95 -0.51,1.1 -0.63,2.21 -0.63,3.05 0,0.78 0.11,1.99 0.66,3.12 0.6,1.23 1.46,1.88 1.56,1.88 0.06,0 0.1,-0.03 0.1,-0.1 z"
           inkscape:connector-curvature="0" />
        <path
           id="equation_02_03"
           d="M 2.89,-2.5 C 2.89,-3.28 2.78,-4.49 2.23,-5.62 1.63,-6.85 0.77,-7.5 0.67,-7.5 c -0.06,0 -0.1,0.04 -0.1,0.1 0,0.03 0,0.05 0.19,0.23 0.98,0.99 1.55,2.58 1.55,4.67 0,1.71 -0.37,3.47 -1.61,4.73 -0.13,0.12 -0.13,0.14 -0.13,0.17 0,0.06 0.04,0.1 0.1,0.1 0.1,0 1,-0.68 1.59,-1.95 0.51,-1.1 0.63,-2.21 0.63,-3.05 z"
           inkscape:connector-curvature="0" />
        <path
           id="equation_02_04"
           d="M 4.6,-3.2 C 4.6,-4 4.55,-4.8 4.2,-5.54 3.74,-6.5 2.92,-6.66 2.5,-6.66 1.9,-6.66 1.17,-6.4 0.76,-5.47 0.44,-4.78 0.39,-4 0.39,-3.2 c 0,0.75 0.04,1.65 0.45,2.41 C 1.27,0.02 2,0.22 2.49,0.22 3.03,0.22 3.79,0.01 4.23,-0.94 4.55,-1.63 4.6,-2.41 4.6,-3.2 z M 2.49,0 C 2.1,0 1.51,-0.25 1.33,-1.21 1.22,-1.81 1.22,-2.73 1.22,-3.32 c 0,-0.64 0,-1.3 0.08,-1.84 0.19,-1.19 0.94,-1.28 1.19,-1.28 0.33,0 0.99,0.18 1.18,1.17 0.1,0.56 0.1,1.32 0.1,1.95 0,0.75 0,1.43 -0.11,2.07 C 3.51,-0.3 2.94,0 2.49,0 z"
           inkscape:connector-curvature="0" />
        <path
           id="equation_02_05"
           d="m 6.87,-3.27 c 0.15,0 0.34,0 0.34,-0.2 0,-0.2 -0.19,-0.2 -0.33,-0.2 H 0.89 c -0.14,0 -0.33,0 -0.33,0.2 0,0.2 0.19,0.2 0.34,0.2 h 5.97 z m 0.01,1.94 c 0.14,0 0.33,0 0.33,-0.2 0,-0.2 -0.19,-0.2 -0.34,-0.2 H 0.9 c -0.15,0 -0.34,0 -0.34,0.2 0,0.2 0.19,0.2 0.33,0.2 h 5.99 z"
           inkscape:connector-curvature="0" />
      </defs>
      <g
         id="equation_02_g">
        <use
           id="use4827"
           y="63"
           xlink:href="#equation_02_01"
           x="77"
           width="744.09448"
           height="1052.3622" />
        <use
           id="use4829"
           y="63"
           xlink:href="#equation_02_02"
           x="82.972298"
           width="744.09448"
           height="1052.3622" />
        <use
           id="use4831"
           y="63"
           xlink:href="#equation_02_00"
           x="86.861198"
           width="744.09448"
           height="1052.3622" />
        <use
           id="use4833"
           y="63"
           xlink:href="#equation_02_03"
           x="92.930603"
           width="744.09448"
           height="1052.3622" />
        <use
           id="use4835"
           y="63"
           xlink:href="#equation_02_05"
           x="99.597198"
           width="744.09448"
           height="1052.3622" />
        <use
           id="use4837"
           y="63"
           xlink:href="#equation_02_04"
           x="110.153"
           width="744.09448"
           height="1052.3622" />
      </g>
    </g>
  </g>
</svg>
