<?xml version="1.0" encoding="UTF-8" standalone="no"?>
<!-- Created with Inkscape (http://www.inkscape.org/) -->

<svg
   xmlns:dc="http://purl.org/dc/elements/1.1/"
   xmlns:cc="http://creativecommons.org/ns#"
   xmlns:rdf="http://www.w3.org/1999/02/22-rdf-syntax-ns#"
   xmlns:svg="http://www.w3.org/2000/svg"
   xmlns="http://www.w3.org/2000/svg"
   xmlns:xlink="http://www.w3.org/1999/xlink"
   xmlns:sodipodi="http://sodipodi.sourceforge.net/DTD/sodipodi-0.dtd"
   xmlns:inkscape="http://www.inkscape.org/namespaces/inkscape"
   width="210mm"
   height="297mm"
   id="svg4936"
   version="1.1"
   inkscape:version="0.48.4 r9939"
   sodipodi:docname="新規ドキュメント 15">
  <sodipodi:namedview
     id="base"
     pagecolor="#ffffff"
     bordercolor="#666666"
     borderopacity="1.0"
     inkscape:pageopacity="0.0"
     inkscape:pageshadow="2"
     inkscape:zoom="0.7"
     inkscape:cx="305.27326"
     inkscape:cy="645.62051"
     inkscape:document-units="px"
     inkscape:current-layer="layer1"
     showgrid="false"
     inkscape:window-width="1366"
     inkscape:window-height="746"
     inkscape:window-x="-8"
     inkscape:window-y="-8"
     inkscape:window-maximized="1" />
  <defs
     id="defs4938">
    <marker
       inkscape:stockid="Arrow1Lend"
       orient="auto"
       refY="0.0"
       refX="0.0"
       id="Arrow1Lend"
       style="overflow:visible;">
      <path
         id="path5651"
         d="M 0.0,0.0 L 5.0,-5.0 L -12.5,0.0 L 5.0,5.0 L 0.0,0.0 z "
         style="fill-rule:evenodd;stroke:#000000;stroke-width:1.0pt;"
         transform="scale(0.8) rotate(180) translate(12.5,0)" />
    </marker>
    <marker
       inkscape:stockid="Arrow1Mend"
       orient="auto"
       refY="0.0"
       refX="0.0"
       id="Arrow1Mend"
       style="overflow:visible;">
      <path
         id="path5657"
         d="M 0.0,0.0 L 5.0,-5.0 L -12.5,0.0 L 5.0,5.0 L 0.0,0.0 z "
         style="fill-rule:evenodd;stroke:#000000;stroke-width:1.0pt;"
         transform="scale(0.4) rotate(180) translate(10,0)" />
    </marker>
  </defs>
  <metadata
     id="metadata4941">
    <rdf:RDF>
      <cc:Work
         rdf:about="">
        <dc:format>image/svg+xml</dc:format>
        <dc:type
           rdf:resource="http://purl.org/dc/dcmitype/StillImage" />
        <dc:title></dc:title>
      </cc:Work>
    </rdf:RDF>
  </metadata>
  <g
     inkscape:label="レイヤー 1"
     inkscape:groupmode="layer"
     id="layer1">
    <path
       style="fill:none;stroke:#000000;stroke-width:2;stroke-linecap:butt;stroke-linejoin:miter;stroke-opacity:1;stroke-miterlimit:4;stroke-dasharray:none"
       d="M 184.28571,600.93361 582.85714,329.50504"
       id="path4944"
       inkscape:connector-curvature="0" />
    <path
       sodipodi:type="arc"
       style="fill:#ff0000;fill-opacity:1;stroke:#ff0000;stroke-width:2;stroke-linecap:round;stroke-linejoin:round;stroke-miterlimit:4;stroke-opacity:1;stroke-dasharray:none;stroke-dashoffset:0"
       id="path5456"
       sodipodi:cx="298.57144"
       sodipodi:cy="326.64789"
       sodipodi:rx="7.1428571"
       sodipodi:ry="7.1428571"
       d="m 305.7143,326.64789 a 7.1428571,7.1428571 0 1 1 -14.28572,0 7.1428571,7.1428571 0 1 1 14.28572,0 z" />
    <path
       style="fill:none;stroke:#ff00ff;stroke-width:2;stroke-linecap:butt;stroke-linejoin:miter;stroke-opacity:1;stroke-miterlimit:4;stroke-dasharray:none"
       d="m 298.57143,326.6479 90,132.85714"
       id="path5458"
       inkscape:connector-curvature="0" />
    <path
       style="fill:none;stroke:#000000;stroke-width:1px;stroke-linecap:butt;stroke-linejoin:miter;stroke-opacity:1"
       d="m 378.57143,443.79075 15.71428,-10 10,14.28572"
       id="path5460"
       inkscape:connector-curvature="0" />
    <path
       style="fill:none;stroke:#000000;stroke-width:2;stroke-linecap:butt;stroke-linejoin:miter;stroke-miterlimit:4;stroke-opacity:1;stroke-dasharray:none;marker-end:url(#Arrow1Mend)"
       d="M 334.28571,496.6479 300.10943,449.82464"
       id="path5462"
       inkscape:connector-curvature="0"
       sodipodi:nodetypes="cc" />
    <g
       transform="matrix(4.2967033,0,0,4.2967033,-66.098901,174.08791)"
       id="equation_00"
       style="fill:#000000"
       title="$\mathbf{w}$">
      <defs
         id="defs6473">
        <path
           inkscape:connector-curvature="0"
           d="m 7.37,-3.76 c 0.05,-0.13 0.09,-0.21 0.68,-0.21 v -0.47 c -0.23,0.02 -0.53,0.03 -0.77,0.03 -0.27,0 -0.74,-0.02 -0.96,-0.03 v 0.47 c 0.09,0 0.58,0.01 0.58,0.12 0,0.03 -0.03,0.09 -0.04,0.12 l -1.05,2.56 -1.14,-2.8 h 0.56 v -0.47 c -0.32,0.01 -0.84,0.03 -1.14,0.03 -0.42,0 -0.84,-0.02 -1,-0.03 v 0.47 h 0.59 c 0.21,0.5 0.21,0.52 0.21,0.53 0,0.04 -0.03,0.1 -0.04,0.13 L 3.06,-1.39 2.01,-3.97 h 0.56 v -0.47 c -0.41,0.02 -0.82,0.03 -1.23,0.03 -0.31,0 -0.75,-0.02 -1.09,-0.03 v 0.47 h 0.59 l 1.53,3.74 c 0.07,0.17 0.11,0.27 0.36,0.27 0.25,0 0.29,-0.1 0.36,-0.27 l 1.06,-2.59 1.06,2.59 c 0.07,0.17 0.11,0.27 0.36,0.27 0.25,0 0.29,-0.1 0.36,-0.27 l 1.44,-3.53 z"
           id="equation_00_00" />
      </defs>
      <g
         id="equation_00_g">
        <use
           height="1052.3622"
           width="744.09448"
           x="77"
           xlink:href="#equation_00_00"
           y="63"
           id="use6477" />
      </g>
    </g>
    <g
       title="$\Psi(\mathbf{x}_i)$"
       style="fill:#000000"
       id="equation_01"
       transform="matrix(3.3213508,0,0,3.3213508,41.361392,94.435797)">
      <defs
         id="defs6516">
        <path
           id="equation_01_00"
           d="m 3.46,-2.46 1.17,-1.3 C 4.76,-3.9 4.82,-3.97 5.65,-3.97 V -4.44 C 5.3,-4.42 4.78,-4.41 4.73,-4.41 4.48,-4.41 3.98,-4.43 3.7,-4.44 v 0.47 c 0.14,0 0.26,0.02 0.38,0.09 C 4.04,-3.82 4.04,-3.8 4,-3.76 L 3.16,-2.82 2.18,-3.97 h 0.4 v -0.47 c -0.26,0.01 -0.89,0.03 -1.21,0.03 -0.32,0 -0.77,-0.02 -1.1,-0.03 v 0.47 h 0.71 l 1.56,1.84 -1.31,1.47 C 1.06,-0.47 0.7,-0.47 0.22,-0.47 V 0 c 0.35,-0.02 0.87,-0.03 0.92,-0.03 0.25,0 0.83,0.02 1.03,0.03 v -0.47 c -0.18,0 -0.37,-0.05 -0.37,-0.11 0,-0.01 0,-0.02 0.07,-0.1 l 0.97,-1.09 1.1,1.3 H 3.55 V 0 c 0.26,-0.01 0.87,-0.03 1.2,-0.03 0.32,0 0.77,0.02 1.1,0.03 V -0.47 H 5.14 L 3.46,-2.46 z"
           inkscape:connector-curvature="0" />
        <path
           id="equation_01_01"
           d="m 2.268,-4.375 c 0,-0.112 -0.084,-0.266 -0.28,-0.266 -0.189,0 -0.392,0.182 -0.392,0.385 0,0.119 0.091,0.266 0.28,0.266 0.203,0 0.392,-0.196 0.392,-0.385 z M 0.84,-0.819 c -0.028,0.091 -0.063,0.175 -0.063,0.294 0,0.329 0.28,0.595 0.665,0.595 0.7,0 1.008,-0.966 1.008,-1.071 0,-0.091 -0.091,-0.091 -0.112,-0.091 -0.098,0 -0.105,0.042 -0.133,0.119 -0.161,0.56 -0.469,0.847 -0.742,0.847 -0.14,0 -0.175,-0.091 -0.175,-0.245 0,-0.161 0.049,-0.294 0.112,-0.448 0.07,-0.189 0.147,-0.378 0.224,-0.56 0.063,-0.168 0.315,-0.805 0.343,-0.889 0.021,-0.07 0.042,-0.154 0.042,-0.224 0,-0.329 -0.28,-0.595 -0.665,-0.595 -0.693,0 -1.015,0.952 -1.015,1.071 0,0.091 0.098,0.091 0.119,0.091 0.098,0 0.105,-0.035 0.126,-0.112 0.182,-0.602 0.49,-0.854 0.749,-0.854 0.112,0 0.175,0.056 0.175,0.245 0,0.161 -0.042,0.266 -0.217,0.7 L 0.84,-0.819 z"
           inkscape:connector-curvature="0" />
        <path
           id="equation_01_02"
           d="m 4.27,-6.04 c 0,-0.34 0,-0.48 0.95,-0.48 H 5.55 V -6.83 C 5.19,-6.8 4.27,-6.8 3.86,-6.8 c -0.41,0 -1.34,0 -1.7,-0.03 v 0.31 h 0.33 c 0.95,0 0.95,0.13 0.95,0.48 V -1.6 C 2.13,-1.95 2.08,-3.49 2.08,-4.14 2.07,-5.35 1.63,-5.54 1.19,-5.54 H 0.82 c -0.15,0 -0.25,0 -0.25,0.11 0,0.05 0.03,0.1 0.09,0.11 0.33,0.04 0.58,0.18 0.59,1.36 0,0.23 0.03,1.02 0.51,1.69 0.39,0.54 1,0.83 1.68,0.92 v 0.56 c 0,0.34 0,0.48 -0.95,0.48 H 2.16 V 0 c 0.36,-0.03 1.28,-0.03 1.69,-0.03 0.41,0 1.34,0 1.7,0.03 V -0.31 H 5.22 c -0.95,0 -0.95,-0.13 -0.95,-0.48 V -1.35 C 4.99,-1.44 5.6,-1.74 5.99,-2.26 6.51,-2.97 6.52,-3.76 6.52,-4.2 6.52,-4.36 6.53,-5.25 7.07,-5.32 7.13,-5.33 7.2,-5.34 7.2,-5.43 7.2,-5.54 7.12,-5.54 6.96,-5.54 H 6.58 c -0.39,0 -0.88,0.07 -0.89,1.52 -0.01,1.1 -0.34,2.16 -1.42,2.42 v -4.44 z"
           inkscape:connector-curvature="0" />
        <path
           id="equation_01_03"
           d="M 3.31,2.4 C 3.31,2.37 3.31,2.35 3.14,2.18 1.89,0.92 1.57,-0.97 1.57,-2.5 c 0,-1.74 0.38,-3.48 1.61,-4.73 0.13,-0.12 0.13,-0.14 0.13,-0.17 0,-0.07 -0.04,-0.1 -0.1,-0.1 -0.1,0 -1,0.68 -1.59,1.95 -0.51,1.1 -0.63,2.21 -0.63,3.05 0,0.78 0.11,1.99 0.66,3.12 0.6,1.23 1.46,1.88 1.56,1.88 0.06,0 0.1,-0.03 0.1,-0.1 z"
           inkscape:connector-curvature="0" />
        <path
           id="equation_01_04"
           d="M 2.89,-2.5 C 2.89,-3.28 2.78,-4.49 2.23,-5.62 1.63,-6.85 0.77,-7.5 0.67,-7.5 c -0.06,0 -0.1,0.04 -0.1,0.1 0,0.03 0,0.05 0.19,0.23 0.98,0.99 1.55,2.58 1.55,4.67 0,1.71 -0.37,3.47 -1.61,4.73 -0.13,0.12 -0.13,0.14 -0.13,0.17 0,0.06 0.04,0.1 0.1,0.1 0.1,0 1,-0.68 1.59,-1.95 0.51,-1.1 0.63,-2.21 0.63,-3.05 z"
           inkscape:connector-curvature="0" />
      </defs>
      <g
         id="equation_01_g">
        <use
           id="use6524"
           y="63"
           xlink:href="#equation_01_02"
           x="77"
           width="744.09448"
           height="1052.3622" />
        <use
           id="use6526"
           y="63"
           xlink:href="#equation_01_03"
           x="84.777802"
           width="744.09448"
           height="1052.3622" />
        <use
           id="use6528"
           y="63"
           xlink:href="#equation_01_00"
           x="88.666702"
           width="744.09448"
           height="1052.3622" />
        <use
           id="use6530"
           y="64.5"
           xlink:href="#equation_01_01"
           x="94.736099"
           width="744.09448"
           height="1052.3622" />
        <use
           id="use6532"
           y="63"
           xlink:href="#equation_01_04"
           x="98.065399"
           width="744.09448"
           height="1052.3622" />
      </g>
    </g>
    <path
       sodipodi:type="arc"
       style="fill:#000000;fill-opacity:1;stroke:#000000;stroke-width:2;stroke-linecap:round;stroke-linejoin:round;stroke-miterlimit:4;stroke-opacity:1;stroke-dasharray:none;stroke-dashoffset:0"
       id="path6564"
       sodipodi:cx="425.71429"
       sodipodi:cy="539.50507"
       sodipodi:rx="8.5714283"
       sodipodi:ry="8.5714283"
       d="m 434.28572,539.50507 a 8.5714283,8.5714283 0 1 1 -17.14285,0 8.5714283,8.5714283 0 1 1 17.14285,0 z"
       transform="matrix(0.7761194,0,0,0.7761194,60.309173,42.927577)" />
    <g
       transform="matrix(3.3501763,0,0,3.3501763,146.55028,283.96341)"
       id="equation_02"
       style="fill:#000000"
       title="$\mathbf{h}_i$">
      <defs
         id="defs6600">
        <path
           inkscape:connector-curvature="0"
           d="M 1.14,-0.47 H 0.45 V 0 c 0.28,-0.01 0.88,-0.03 1.26,-0.03 0.39,0 0.98,0.02 1.26,0.03 V -0.47 H 2.28 v -2.09 c 0,-1.09 0.86,-1.58 1.49,-1.58 0.34,0 0.55,0.21 0.55,0.97 v 2.7 H 3.63 V 0 c 0.28,-0.01 0.88,-0.03 1.26,-0.03 0.39,0 0.98,0.02 1.26,0.03 V -0.47 H 5.46 v -2.59 c 0,-1.05 -0.54,-1.44 -1.54,-1.44 -0.96,0 -1.47,0.58 -1.7,0.98 v -3.42 l -1.77,0.08 v 0.47 c 0.62,0 0.69,0 0.69,0.39 v 5.53 z"
           id="equation_02_00" />
        <path
           inkscape:connector-curvature="0"
           d="m 2.268,-4.375 c 0,-0.112 -0.084,-0.266 -0.28,-0.266 -0.189,0 -0.392,0.182 -0.392,0.385 0,0.119 0.091,0.266 0.28,0.266 0.203,0 0.392,-0.196 0.392,-0.385 z M 0.84,-0.819 c -0.028,0.091 -0.063,0.175 -0.063,0.294 0,0.329 0.28,0.595 0.665,0.595 0.7,0 1.008,-0.966 1.008,-1.071 0,-0.091 -0.091,-0.091 -0.112,-0.091 -0.098,0 -0.105,0.042 -0.133,0.119 -0.161,0.56 -0.469,0.847 -0.742,0.847 -0.14,0 -0.175,-0.091 -0.175,-0.245 0,-0.161 0.049,-0.294 0.112,-0.448 0.07,-0.189 0.147,-0.378 0.224,-0.56 0.063,-0.168 0.315,-0.805 0.343,-0.889 0.021,-0.07 0.042,-0.154 0.042,-0.224 0,-0.329 -0.28,-0.595 -0.665,-0.595 -0.693,0 -1.015,0.952 -1.015,1.071 0,0.091 0.098,0.091 0.119,0.091 0.098,0 0.105,-0.035 0.126,-0.112 0.182,-0.602 0.49,-0.854 0.749,-0.854 0.112,0 0.175,0.056 0.175,0.245 0,0.161 -0.042,0.266 -0.217,0.7 L 0.84,-0.819 z"
           id="equation_02_01" />
      </defs>
      <g
         id="equation_02_g">
        <use
           height="1052.3622"
           width="744.09448"
           x="77"
           xlink:href="#equation_02_00"
           y="63"
           id="use6605" />
        <use
           height="1052.3622"
           width="744.09448"
           x="83.388901"
           xlink:href="#equation_02_01"
           y="64.5"
           id="use6607" />
      </g>
    </g>
    <g
       title="$d_i$"
       style="fill:#000000"
       id="equation_03"
       transform="matrix(3.0144368,0,0,3.0144368,128.3683,192.78496)">
      <defs
         id="defs6688">
        <path
           id="equation_03_00"
           d="m 5.16,-6.83 c 0,-0.01 0,-0.11 -0.13,-0.11 -0.15,0 -1.1,0.09 -1.27,0.11 -0.08,0.01 -0.14,0.06 -0.14,0.19 0,0.12 0.09,0.12 0.24,0.12 0.48,0 0.5,0.07 0.5,0.17 l -0.03,0.2 -0.6,2.37 C 3.55,-4.15 3.26,-4.42 2.81,-4.42 c -1.17,0 -2.41,1.47 -2.41,2.93 0,0.94 0.55,1.6 1.33,1.6 0.2,0 0.7,-0.04 1.3,-0.75 0.08,0.42 0.43,0.75 0.91,0.75 0.35,0 0.58,-0.23 0.74,-0.55 0.17,-0.36 0.3,-0.97 0.3,-0.99 0,-0.1 -0.09,-0.1 -0.12,-0.1 -0.1,0 -0.11,0.04 -0.14,0.18 -0.17,0.65 -0.35,1.24 -0.76,1.24 -0.27,0 -0.3,-0.26 -0.3,-0.46 0,-0.24 0.02,-0.31 0.06,-0.48 l 1.44,-5.78 z m -2.08,5.64 c -0.05,0.18 -0.05,0.2 -0.2,0.37 -0.44,0.55 -0.85,0.71 -1.13,0.71 -0.5,0 -0.64,-0.55 -0.64,-0.94 0,-0.5 0.32,-1.73 0.55,-2.19 0.31,-0.59 0.76,-0.96 1.16,-0.96 0.65,0 0.79,0.82 0.79,0.88 0,0.06 -0.02,0.12 -0.03,0.17 l -0.5,1.96 z"
           inkscape:connector-curvature="0" />
        <path
           id="equation_03_01"
           d="m 2.268,-4.375 c 0,-0.112 -0.084,-0.266 -0.28,-0.266 -0.189,0 -0.392,0.182 -0.392,0.385 0,0.119 0.091,0.266 0.28,0.266 0.203,0 0.392,-0.196 0.392,-0.385 z M 0.84,-0.819 c -0.028,0.091 -0.063,0.175 -0.063,0.294 0,0.329 0.28,0.595 0.665,0.595 0.7,0 1.008,-0.966 1.008,-1.071 0,-0.091 -0.091,-0.091 -0.112,-0.091 -0.098,0 -0.105,0.042 -0.133,0.119 -0.161,0.56 -0.469,0.847 -0.742,0.847 -0.14,0 -0.175,-0.091 -0.175,-0.245 0,-0.161 0.049,-0.294 0.112,-0.448 0.07,-0.189 0.147,-0.378 0.224,-0.56 0.063,-0.168 0.315,-0.805 0.343,-0.889 0.021,-0.07 0.042,-0.154 0.042,-0.224 0,-0.329 -0.28,-0.595 -0.665,-0.595 -0.693,0 -1.015,0.952 -1.015,1.071 0,0.091 0.098,0.091 0.119,0.091 0.098,0 0.105,-0.035 0.126,-0.112 0.182,-0.602 0.49,-0.854 0.749,-0.854 0.112,0 0.175,0.056 0.175,0.245 0,0.161 -0.042,0.266 -0.217,0.7 L 0.84,-0.819 z"
           inkscape:connector-curvature="0" />
      </defs>
      <g
         id="equation_03_g">
        <use
           id="use6693"
           y="63"
           xlink:href="#equation_03_00"
           x="77"
           width="744.09448"
           height="1052.3622" />
        <use
           id="use6695"
           y="64.5"
           xlink:href="#equation_03_01"
           x="82.204903"
           width="744.09448"
           height="1052.3622" />
      </g>
    </g>
  </g>
</svg>
