<?xml version="1.0" encoding="UTF-8" standalone="no"?>
<!-- Created with Inkscape (http://www.inkscape.org/) -->

<svg
   xmlns:dc="http://purl.org/dc/elements/1.1/"
   xmlns:cc="http://creativecommons.org/ns#"
   xmlns:rdf="http://www.w3.org/1999/02/22-rdf-syntax-ns#"
   xmlns:svg="http://www.w3.org/2000/svg"
   xmlns="http://www.w3.org/2000/svg"
   xmlns:sodipodi="http://sodipodi.sourceforge.net/DTD/sodipodi-0.dtd"
   xmlns:inkscape="http://www.inkscape.org/namespaces/inkscape"
   width="210mm"
   height="297mm"
   id="svg2"
   version="1.1"
   inkscape:version="0.48.4 r9939"
   sodipodi:docname="multimodality2.svg"
   inkscape:export-filename="\\EULER\nineties\projects\prml-seminar\fig\multimodality3.png"
   inkscape:export-xdpi="95.32"
   inkscape:export-ydpi="95.32">
  <sodipodi:namedview
     id="base"
     pagecolor="#ffffff"
     bordercolor="#666666"
     borderopacity="1.0"
     inkscape:pageopacity="0.0"
     inkscape:pageshadow="2"
     inkscape:zoom="0.49497475"
     inkscape:cx="552.27337"
     inkscape:cy="729.77227"
     inkscape:document-units="px"
     inkscape:current-layer="layer1"
     showgrid="false"
     showguides="true"
     inkscape:guide-bbox="true"
     inkscape:window-width="1366"
     inkscape:window-height="746"
     inkscape:window-x="-8"
     inkscape:window-y="-8"
     inkscape:window-maximized="1" />
  <defs
     id="defs4">
    <marker
       inkscape:stockid="Arrow1Lend"
       orient="auto"
       refY="0.0"
       refX="0.0"
       id="Arrow1Lend"
       style="overflow:visible;">
      <path
         id="path3845"
         d="M 0.0,0.0 L 5.0,-5.0 L -12.5,0.0 L 5.0,5.0 L 0.0,0.0 z "
         style="fill-rule:evenodd;stroke:#000000;stroke-width:1.0pt;"
         transform="scale(0.8) rotate(180) translate(12.5,0)" />
    </marker>
  </defs>
  <metadata
     id="metadata7">
    <rdf:RDF>
      <cc:Work
         rdf:about="">
        <dc:format>image/svg+xml</dc:format>
        <dc:type
           rdf:resource="http://purl.org/dc/dcmitype/StillImage" />
        <dc:title></dc:title>
      </cc:Work>
    </rdf:RDF>
  </metadata>
  <g
     inkscape:label="レイヤー 1"
     inkscape:groupmode="layer"
     id="layer1">
    <path
       style="fill:none;stroke:#000000;stroke-width:1px;stroke-linecap:butt;stroke-linejoin:miter;stroke-opacity:1"
       d="m -28.284271,563.44835 c 12.12183,0 783.878371,0 783.878371,0"
       id="path4571"
       inkscape:connector-curvature="0" />
    <path
       style="fill:none;stroke:#000000;stroke-width:1px;stroke-linecap:butt;stroke-linejoin:miter;stroke-opacity:1"
       d="m -28.284271,555.36713 c 38.564016,-3.72981 57.837733,-47.86154 69.81189,-80.18826 16.054112,-38.74445 23.189896,-84.47195 50.03727,-116.68182 42.239771,-29.32538 107.140331,1.94835 113.374641,52.16869 13.21434,41.38762 53.89955,59.69541 85.77855,83.65641 41.52618,10.6913 77.21498,34.65793 120.103,32.56319 48.34976,9.01017 98.6694,2.05518 147.82332,4.23766 42.92205,2.78175 87.34385,6.12509 129.78655,10.25207 l 2.51339,-0.15008"
       id="path4608"
       inkscape:connector-curvature="0" />
    <path
       style="fill:none;stroke:#000000;stroke-width:1px;stroke-linecap:butt;stroke-linejoin:miter;stroke-opacity:1"
       d="m 268.70058,555.36713 c 137.13679,-13.82462 76.13484,-205.7059 180.9045,-252.52527 106.53329,-18.03013 163.11669,99.97942 208.68478,176.5407 19.39164,37.22127 49.29411,80.74012 97.30424,75.98457"
       id="path4614"
       inkscape:connector-curvature="0" />
  </g>
</svg>
