<?xml version="1.0" encoding="UTF-8" standalone="no"?>
<!-- Created with Inkscape (http://www.inkscape.org/) -->

<svg
   xmlns:dc="http://purl.org/dc/elements/1.1/"
   xmlns:cc="http://creativecommons.org/ns#"
   xmlns:rdf="http://www.w3.org/1999/02/22-rdf-syntax-ns#"
   xmlns:svg="http://www.w3.org/2000/svg"
   xmlns="http://www.w3.org/2000/svg"
   xmlns:xlink="http://www.w3.org/1999/xlink"
   xmlns:sodipodi="http://sodipodi.sourceforge.net/DTD/sodipodi-0.dtd"
   xmlns:inkscape="http://www.inkscape.org/namespaces/inkscape"
   width="210mm"
   height="297mm"
   id="svg2"
   version="1.1"
   inkscape:version="0.48.4 r9939"
   sodipodi:docname="monte-carlo-circle1.svg"
   inkscape:export-filename="\\euler\nineties\projects\prml-seminar\fig\monte-carlo-circle2.png"
   inkscape:export-xdpi="95.32"
   inkscape:export-ydpi="95.32">
  <sodipodi:namedview
     id="base"
     pagecolor="#ffffff"
     bordercolor="#666666"
     borderopacity="1.0"
     inkscape:pageopacity="0.0"
     inkscape:pageshadow="2"
     inkscape:zoom="0.98994949"
     inkscape:cx="267.17367"
     inkscape:cy="501.47076"
     inkscape:document-units="px"
     inkscape:current-layer="layer1"
     showgrid="false"
     inkscape:window-width="1366"
     inkscape:window-height="746"
     inkscape:window-x="-8"
     inkscape:window-y="-8"
     inkscape:window-maximized="1" />
  <defs
     id="defs4">
    <marker
       inkscape:stockid="Arrow1Lend"
       orient="auto"
       refY="0.0"
       refX="0.0"
       id="Arrow1Lend"
       style="overflow:visible;">
      <path
         id="path3768"
         d="M 0.0,0.0 L 5.0,-5.0 L -12.5,0.0 L 5.0,5.0 L 0.0,0.0 z "
         style="fill-rule:evenodd;stroke:#000000;stroke-width:1.0pt;"
         transform="scale(0.8) rotate(180) translate(12.5,0)" />
    </marker>
  </defs>
  <metadata
     id="metadata7">
    <rdf:RDF>
      <cc:Work
         rdf:about="">
        <dc:format>image/svg+xml</dc:format>
        <dc:type
           rdf:resource="http://purl.org/dc/dcmitype/StillImage" />
        <dc:title></dc:title>
      </cc:Work>
    </rdf:RDF>
  </metadata>
  <g
     inkscape:label="レイヤー 1"
     inkscape:groupmode="layer"
     id="layer1">
    <rect
       style="fill:#0000ff;fill-opacity:0.19607843000000000;stroke:#0000ff;stroke-width:0;stroke-linecap:round;stroke-miterlimit:4;stroke-opacity:1;stroke-dasharray:none;stroke-dashoffset:0"
       id="rect2985"
       width="340.42142"
       height="340.42142"
       x="166.17009"
       y="382.63104" />
    <path
       sodipodi:type="arc"
       style="fill:none;stroke:#ff0000;stroke-width:3.2;stroke-linecap:round;stroke-miterlimit:4;stroke-opacity:1;stroke-dasharray:9.6,9.6;stroke-dashoffset:0"
       id="path2987"
       sodipodi:cx="321.22852"
       sodipodi:cy="583.65143"
       sodipodi:rx="170.71577"
       sodipodi:ry="170.71577"
       d="m 491.94429,583.65143 a 170.71577,170.71577 0 1 1 -341.43155,0 170.71577,170.71577 0 1 1 341.43155,0 z"
       transform="matrix(0.5,0,0,0.5,175.76654,261.01604)" />
    <path
       style="fill:none;stroke:#000000;stroke-width:1px;stroke-linecap:butt;stroke-linejoin:miter;stroke-opacity:1;marker-end:url(#Arrow1Lend)"
       d="m 101.52034,552.84175 469.72092,0"
       id="path2989"
       inkscape:connector-curvature="0" />
    <path
       style="fill:none;stroke:#000000;stroke-width:1px;stroke-linecap:butt;stroke-linejoin:miter;stroke-opacity:1;marker-end:url(#Arrow1Lend)"
       d="m 336.3808,793.76313 0,-481.84276"
       id="path2991"
       inkscape:connector-curvature="0" />
    <g
       transform="matrix(2.2620955,0,0,2.2620955,210.54916,324.89372)"
       id="equation_00"
       style="fill:#000000"
       title="$x^2+y^2=1$">
      <defs
         id="defs4217">
        <path
           inkscape:connector-curvature="0"
           d="m 4.09,-2.3 h 2.79 c 0.14,0 0.33,0 0.33,-0.2 0,-0.2 -0.19,-0.2 -0.33,-0.2 H 4.09 v -2.8 c 0,-0.14 0,-0.33 -0.2,-0.33 -0.2,0 -0.2,0.19 -0.2,0.33 v 2.8 h -2.8 c -0.14,0 -0.33,0 -0.33,0.2 0,0.2 0.19,0.2 0.33,0.2 h 2.8 v 2.8 c 0,0.14 0,0.33 0.2,0.33 0.2,0 0.2,-0.19 0.2,-0.33 v -2.8 z"
           id="equation_00_00" />
        <path
           inkscape:connector-curvature="0"
           d="m 2.94,-6.4 c 0,-0.24 0,-0.26 -0.23,-0.26 -0.62,0.64 -1.5,0.64 -1.82,0.64 v 0.31 c 0.2,0 0.79,0 1.31,-0.26 v 5.18 c 0,0.36 -0.03,0.48 -0.93,0.48 H 0.95 V 0 c 0.35,-0.03 1.22,-0.03 1.62,-0.03 0.4,0 1.27,0 1.62,0.03 V -0.31 H 3.87 c -0.9,0 -0.93,-0.11 -0.93,-0.48 V -6.4 z"
           id="equation_00_01" />
        <path
           inkscape:connector-curvature="0"
           d="m 6.87,-3.27 c 0.15,0 0.34,0 0.34,-0.2 0,-0.2 -0.19,-0.2 -0.33,-0.2 H 0.89 c -0.14,0 -0.33,0 -0.33,0.2 0,0.2 0.19,0.2 0.34,0.2 h 5.97 z m 0.01,1.94 c 0.14,0 0.33,0 0.33,-0.2 0,-0.2 -0.19,-0.2 -0.34,-0.2 H 0.9 c -0.15,0 -0.34,0 -0.34,0.2 0,0.2 0.19,0.2 0.33,0.2 h 5.99 z"
           id="equation_00_02" />
        <path
           inkscape:connector-curvature="0"
           d="M 3.34,-3.02 C 3.4,-3.28 3.63,-4.2 4.33,-4.2 c 0.05,0 0.29,0 0.5,0.13 -0.28,0.05 -0.48,0.3 -0.48,0.54 0,0.16 0.11,0.35 0.38,0.35 0.22,0 0.54,-0.18 0.54,-0.58 0,-0.52 -0.59,-0.66 -0.93,-0.66 -0.58,0 -0.93,0.53 -1.05,0.76 -0.25,-0.66 -0.79,-0.76 -1.08,-0.76 -1.04,0 -1.61,1.29 -1.61,1.54 0,0.1 0.1,0.1 0.12,0.1 0.08,0 0.11,-0.02 0.13,-0.11 0.34,-1.06 1,-1.31 1.34,-1.31 0.19,0 0.54,0.09 0.54,0.67 0,0.31 -0.17,0.98 -0.54,2.38 -0.16,0.62 -0.51,1.04 -0.95,1.04 -0.06,0 -0.29,0 -0.5,-0.13 0.25,-0.05 0.47,-0.26 0.47,-0.54 0,-0.27 -0.22,-0.35 -0.37,-0.35 -0.3,0 -0.55,0.26 -0.55,0.58 0,0.46 0.5,0.66 0.94,0.66 0.66,0 1.02,-0.7 1.05,-0.76 0.12,0.37 0.48,0.76 1.08,0.76 1.03,0 1.6,-1.29 1.6,-1.54 0,-0.1 -0.09,-0.1 -0.12,-0.1 -0.09,0 -0.11,0.04 -0.13,0.11 -0.33,1.07 -1.01,1.31 -1.33,1.31 -0.39,0 -0.55,-0.32 -0.55,-0.66 0,-0.22 0.06,-0.44 0.17,-0.88 l 0.34,-1.37 z"
           id="equation_00_03" />
        <path
           inkscape:connector-curvature="0"
           d="M 4.86,-3.81 C 4.9,-3.95 4.9,-3.97 4.9,-4.04 c 0,-0.18 -0.14,-0.27 -0.29,-0.27 -0.1,0 -0.26,0.06 -0.35,0.21 -0.02,0.05 -0.1,0.36 -0.14,0.54 -0.07,0.26 -0.14,0.53 -0.2,0.8 l -0.45,1.8 C 3.43,-0.81 3,-0.11 2.34,-0.11 c -0.51,0 -0.62,-0.44 -0.62,-0.81 0,-0.46 0.17,-1.08 0.51,-1.96 0.16,-0.41 0.2,-0.52 0.2,-0.72 0,-0.45 -0.32,-0.82 -0.82,-0.82 -0.95,0 -1.32,1.45 -1.32,1.54 0,0.1 0.1,0.1 0.12,0.1 0.1,0 0.11,-0.02 0.16,-0.18 0.27,-0.94 0.67,-1.24 1.01,-1.24 0.08,0 0.25,0 0.25,0.32 0,0.25 -0.1,0.51 -0.17,0.7 -0.4,1.06 -0.58,1.63 -0.58,2.1 0,0.89 0.63,1.19 1.22,1.19 0.39,0 0.73,-0.17 1.01,-0.45 C 3.18,0.18 3.06,0.67 2.66,1.2 2.4,1.54 2.02,1.83 1.56,1.83 1.42,1.83 0.97,1.8 0.8,1.41 c 0.16,0 0.29,0 0.43,-0.12 C 1.33,1.2 1.43,1.07 1.43,0.88 1.43,0.57 1.16,0.53 1.06,0.53 0.83,0.53 0.5,0.69 0.5,1.18 c 0,0.5 0.44,0.87 1.06,0.87 1.03,0 2.06,-0.91 2.34,-2.04 l 0.96,-3.82 z"
           id="equation_00_04" />
        <path
           inkscape:connector-curvature="0"
           d="M 3.535,-1.274 H 3.297 C 3.276,-1.12 3.206,-0.707 3.115,-0.637 3.059,-0.595 2.52,-0.595 2.422,-0.595 H 1.134 c 0.735,-0.651 0.98,-0.847 1.4,-1.176 0.518,-0.413 1.001,-0.847 1.001,-1.512 0,-0.847 -0.742,-1.365 -1.638,-1.365 -0.868,0 -1.456,0.609 -1.456,1.253 0,0.357 0.301,0.392 0.371,0.392 0.168,0 0.371,-0.119 0.371,-0.371 0,-0.126 -0.049,-0.371 -0.413,-0.371 0.217,-0.497 0.693,-0.651 1.022,-0.651 0.7,0 1.064,0.546 1.064,1.113 0,0.609 -0.434,1.092 -0.658,1.344 L 0.511,-0.273 C 0.441,-0.21 0.441,-0.196 0.441,0 h 2.884 l 0.21,-1.274 z"
           id="equation_00_05" />
      </defs>
      <g
         id="equation_00_g">
        <use
           height="1052.3622"
           width="744.09448"
           x="77"
           xlink:href="#equation_00_03"
           y="63"
           id="use4226" />
        <use
           height="1052.3622"
           width="744.09448"
           x="82.715302"
           xlink:href="#equation_00_05"
           y="59.371101"
           id="use4228" />
        <use
           height="1052.3622"
           width="744.09448"
           x="89.423599"
           xlink:href="#equation_00_00"
           y="63"
           id="use4230" />
        <use
           height="1052.3622"
           width="744.09448"
           x="99.423599"
           xlink:href="#equation_00_04"
           y="63"
           id="use4232" />
        <use
           height="1052.3622"
           width="744.09448"
           x="104.685"
           xlink:href="#equation_00_05"
           y="59.371101"
           id="use4234" />
        <use
           height="1052.3622"
           width="744.09448"
           x="111.949"
           xlink:href="#equation_00_02"
           y="63"
           id="use4236" />
        <use
           height="1052.3622"
           width="744.09448"
           x="122.505"
           xlink:href="#equation_00_01"
           y="63"
           id="use4238" />
      </g>
    </g>
    <g
       transform="matrix(3.0446364,0,0,3.0446364,191.48283,387.12652)"
       title="$1$"
       style="fill:#000000"
       id="equation_01">
      <defs
         id="defs4293">
        <path
           inkscape:connector-curvature="0"
           id="equation_01_00"
           d="m 2.94,-6.4 c 0,-0.24 0,-0.26 -0.23,-0.26 -0.62,0.64 -1.5,0.64 -1.82,0.64 v 0.31 c 0.2,0 0.79,0 1.31,-0.26 v 5.18 c 0,0.36 -0.03,0.48 -0.93,0.48 H 0.95 V 0 c 0.35,-0.03 1.22,-0.03 1.62,-0.03 0.4,0 1.27,0 1.62,0.03 V -0.31 H 3.87 c -0.9,0 -0.93,-0.11 -0.93,-0.48 V -6.4 z" />
      </defs>
      <g
         id="equation_01_g">
        <use
           height="1052.3622"
           width="744.09448"
           id="use4297"
           y="63"
           xlink:href="#equation_01_00"
           x="77" />
      </g>
    </g>
    <g
       transform="matrix(3.0446364,0,0,3.0446364,-22.669511,385.10622)"
       id="equation_02"
       style="fill:#000000"
       title="$-1$">
      <defs
         id="defs4362">
        <path
           inkscape:connector-curvature="0"
           d="m 2.94,-6.4 c 0,-0.24 0,-0.26 -0.23,-0.26 -0.62,0.64 -1.5,0.64 -1.82,0.64 v 0.31 c 0.2,0 0.79,0 1.31,-0.26 v 5.18 c 0,0.36 -0.03,0.48 -0.93,0.48 H 0.95 V 0 c 0.35,-0.03 1.22,-0.03 1.62,-0.03 0.4,0 1.27,0 1.62,0.03 V -0.31 H 3.87 c -0.9,0 -0.93,-0.11 -0.93,-0.48 V -6.4 z"
           id="equation_02_00" />
        <path
           inkscape:connector-curvature="0"
           d="m 6.59,-2.3 c 0.17,0 0.35,0 0.35,-0.2 0,-0.2 -0.18,-0.2 -0.35,-0.2 H 1.18 c -0.17,0 -0.35,0 -0.35,0.2 0,0.2 0.18,0.2 0.35,0.2 h 5.41 z"
           id="equation_02_01" />
      </defs>
      <g
         id="equation_02_g">
        <use
           height="1052.3622"
           width="744.09448"
           x="77"
           xlink:href="#equation_02_01"
           y="63"
           id="use4367" />
        <use
           height="1052.3622"
           width="744.09448"
           x="84.777802"
           xlink:href="#equation_02_00"
           y="63"
           id="use4369" />
      </g>
    </g>
    <g
       transform="matrix(3.0446364,0,0,3.0446364,324.82297,349.75088)"
       title="$x$"
       style="fill:#000000"
       id="equation_03">
      <defs
         id="defs4448">
        <path
           inkscape:connector-curvature="0"
           id="equation_03_00"
           d="M 3.34,-3.02 C 3.4,-3.28 3.63,-4.2 4.33,-4.2 c 0.05,0 0.29,0 0.5,0.13 -0.28,0.05 -0.48,0.3 -0.48,0.54 0,0.16 0.11,0.35 0.38,0.35 0.22,0 0.54,-0.18 0.54,-0.58 0,-0.52 -0.59,-0.66 -0.93,-0.66 -0.58,0 -0.93,0.53 -1.05,0.76 -0.25,-0.66 -0.79,-0.76 -1.08,-0.76 -1.04,0 -1.61,1.29 -1.61,1.54 0,0.1 0.1,0.1 0.12,0.1 0.08,0 0.11,-0.02 0.13,-0.11 0.34,-1.06 1,-1.31 1.34,-1.31 0.19,0 0.54,0.09 0.54,0.67 0,0.31 -0.17,0.98 -0.54,2.38 -0.16,0.62 -0.51,1.04 -0.95,1.04 -0.06,0 -0.29,0 -0.5,-0.13 0.25,-0.05 0.47,-0.26 0.47,-0.54 0,-0.27 -0.22,-0.35 -0.37,-0.35 -0.3,0 -0.55,0.26 -0.55,0.58 0,0.46 0.5,0.66 0.94,0.66 0.66,0 1.02,-0.7 1.05,-0.76 0.12,0.37 0.48,0.76 1.08,0.76 1.03,0 1.6,-1.29 1.6,-1.54 0,-0.1 -0.09,-0.1 -0.12,-0.1 -0.09,0 -0.11,0.04 -0.13,0.11 -0.33,1.07 -1.01,1.31 -1.33,1.31 -0.39,0 -0.55,-0.32 -0.55,-0.66 0,-0.22 0.06,-0.44 0.17,-0.88 l 0.34,-1.37 z" />
      </defs>
      <g
         id="equation_03_g">
        <use
           height="1052.3622"
           width="744.09448"
           id="use4452"
           y="63"
           xlink:href="#equation_03_00"
           x="77" />
      </g>
    </g>
    <g
       transform="matrix(3.0446364,0,0,3.0446364,77.335593,128.52747)"
       id="equation_04"
       style="fill:#000000"
       title="$y$">
      <defs
         id="defs4541">
        <path
           inkscape:connector-curvature="0"
           d="M 4.86,-3.81 C 4.9,-3.95 4.9,-3.97 4.9,-4.04 c 0,-0.18 -0.14,-0.27 -0.29,-0.27 -0.1,0 -0.26,0.06 -0.35,0.21 -0.02,0.05 -0.1,0.36 -0.14,0.54 -0.07,0.26 -0.14,0.53 -0.2,0.8 l -0.45,1.8 C 3.43,-0.81 3,-0.11 2.34,-0.11 c -0.51,0 -0.62,-0.44 -0.62,-0.81 0,-0.46 0.17,-1.08 0.51,-1.96 0.16,-0.41 0.2,-0.52 0.2,-0.72 0,-0.45 -0.32,-0.82 -0.82,-0.82 -0.95,0 -1.32,1.45 -1.32,1.54 0,0.1 0.1,0.1 0.12,0.1 0.1,0 0.11,-0.02 0.16,-0.18 0.27,-0.94 0.67,-1.24 1.01,-1.24 0.08,0 0.25,0 0.25,0.32 0,0.25 -0.1,0.51 -0.17,0.7 -0.4,1.06 -0.58,1.63 -0.58,2.1 0,0.89 0.63,1.19 1.22,1.19 0.39,0 0.73,-0.17 1.01,-0.45 C 3.18,0.18 3.06,0.67 2.66,1.2 2.4,1.54 2.02,1.83 1.56,1.83 1.42,1.83 0.97,1.8 0.8,1.41 c 0.16,0 0.29,0 0.43,-0.12 C 1.33,1.2 1.43,1.07 1.43,0.88 1.43,0.57 1.16,0.53 1.06,0.53 0.83,0.53 0.5,0.69 0.5,1.18 c 0,0.5 0.44,0.87 1.06,0.87 1.03,0 2.06,-0.91 2.34,-2.04 l 0.96,-3.82 z"
           id="equation_04_00" />
      </defs>
      <g
         id="equation_04_g">
        <use
           height="1052.3622"
           width="744.09448"
           x="77"
           xlink:href="#equation_04_00"
           y="63"
           id="use4545" />
      </g>
    </g>
    <g
       transform="matrix(3.0446364,0,0,3.0446364,64.278723,472.68862)"
       id="equation_02-1"
       style="fill:#000000"
       title="$-1$">
      <defs
         id="defs4362-7">
        <path
           inkscape:connector-curvature="0"
           d="m 2.94,-6.4 c 0,-0.24 0,-0.26 -0.23,-0.26 -0.62,0.64 -1.5,0.64 -1.82,0.64 v 0.31 c 0.2,0 0.79,0 1.31,-0.26 v 5.18 c 0,0.36 -0.03,0.48 -0.93,0.48 H 0.95 V 0 c 0.35,-0.03 1.22,-0.03 1.62,-0.03 0.4,0 1.27,0 1.62,0.03 V -0.31 H 3.87 c -0.9,0 -0.93,-0.11 -0.93,-0.48 V -6.4 z"
           id="equation_02_00-4" />
        <path
           inkscape:connector-curvature="0"
           d="m 6.59,-2.3 c 0.17,0 0.35,0 0.35,-0.2 0,-0.2 -0.18,-0.2 -0.35,-0.2 H 1.18 c -0.17,0 -0.35,0 -0.35,0.2 0,0.2 0.18,0.2 0.35,0.2 h 5.41 z"
           id="equation_02_01-0" />
      </defs>
      <g
         id="equation_02_g-9">
        <use
           height="1052.3622"
           width="744.09448"
           x="77"
           xlink:href="#equation_02_01-0"
           y="63"
           id="use4367-4" />
        <use
           height="1052.3622"
           width="744.09448"
           x="84.777802"
           xlink:href="#equation_02_00-4"
           y="63"
           id="use4369-8" />
      </g>
    </g>
    <g
       style="fill:#000000"
       transform="matrix(0.75548531,0,0,0.75548531,103.60372,280.76583)"
       id="g4916">
      <text
         xml:space="preserve"
         style="font-size:40px;font-style:normal;font-variant:normal;font-weight:normal;font-stretch:normal;text-align:start;line-height:125%;letter-spacing:0px;word-spacing:0px;writing-mode:lr-tb;text-anchor:start;fill:#000000;fill-opacity:1;stroke:none;font-family:HGGothicM;-inkscape-font-specification:HGGothicM"
         x="-42.426407"
         y="306.99835"
         id="text4630"
         sodipodi:linespacing="125%"><tspan
           sodipodi:role="line"
           id="tspan4632"
           x="-42.426407"
           y="306.99835">面積</tspan></text>
      <g
         id="equation_05"
         style="fill:#000000"
         title="$\pi$"
         transform="matrix(5.4704651,0,0,5.4704651,-379.68837,-40.684216)">
        <defs
           id="defs4699">
          <path
             d="m 2.65,-3.73 h 1.13 c -0.33,1.48 -0.42,1.91 -0.42,2.58 0,0.15 0,0.42 0.08,0.76 0.1,0.44 0.21,0.5 0.36,0.5 0.2,0 0.41,-0.18 0.41,-0.38 0,-0.06 0,-0.08 -0.06,-0.22 -0.29,-0.72 -0.29,-1.37 -0.29,-1.65 0,-0.53 0.07,-1.07 0.18,-1.59 h 1.14 c 0.13,0 0.49,0 0.49,-0.34 0,-0.24 -0.21,-0.24 -0.4,-0.24 H 1.92 c -0.22,0 -0.6,0 -1.04,0.47 -0.35,0.39 -0.61,0.85 -0.61,0.9 0,0.01 0,0.1 0.12,0.1 0.08,0 0.1,-0.04 0.16,-0.12 0.49,-0.77 1.07,-0.77 1.27,-0.77 h 0.57 c -0.32,1.21 -0.86,2.42 -1.28,3.33 -0.08,0.15 -0.08,0.17 -0.08,0.24 0,0.19 0.16,0.27 0.29,0.27 0.3,0 0.38,-0.28 0.5,-0.65 C 1.96,-1 1.96,-1.02 2.09,-1.52 l 0.56,-2.21 z"
             id="equation_05_00"
             inkscape:connector-curvature="0" />
        </defs>
        <g
           style="fill:#000000"
           id="equation_05_g">
          <use
             style="fill:#000000"
             x="77"
             xlink:href="#equation_05_00"
             y="63"
             id="use4703"
             width="744.09448"
             height="1052.3622" />
        </g>
      </g>
    </g>
    <flowRoot
       style="fill:black;stroke:none;stroke-opacity:1;stroke-width:1px;stroke-linejoin:miter;stroke-linecap:butt;fill-opacity:1;font-family:HGGothicM;font-style:normal;font-weight:normal;font-size:40px;line-height:125%;letter-spacing:0px;word-spacing:0px;-inkscape-font-specification:HGGothicM;font-stretch:normal;font-variant:normal;text-anchor:start;text-align:start;writing-mode:lr"
       id="flowRoot4908"
       xml:space="preserve"><flowRegion
         id="flowRegion4910"><rect
           y="34.128418"
           x="23.233509"
           height="107.07617"
           width="160.61426"
           id="rect4912" /></flowRegion><flowPara
         id="flowPara4914" /></flowRoot>    <path
       inkscape:connector-curvature="0"
       id="path4934"
       d="m 160.61425,408.89501 49.49748,19.1929"
       style="fill:none;stroke:#000000;stroke-width:1px;stroke-linecap:butt;stroke-linejoin:miter;stroke-opacity:1"
       sodipodi:nodetypes="cc" />
    <path
       inkscape:connector-curvature="0"
       id="path4936"
       d="m 156.57364,499.80874 c 7.07107,3.03046 117.1777,22.22336 117.1777,22.22336"
       style="fill:none;stroke:#000000;stroke-width:1px;stroke-linecap:butt;stroke-linejoin:miter;stroke-opacity:1"
       sodipodi:nodetypes="cc" />
    <rect
       y="301.81885"
       x="61.619305"
       height="495.98489"
       width="522.24878"
       id="rect4938"
       style="fill:none;fill-opacity:0.19607843000000000;stroke:none;stroke-width:1.20000005000000010;stroke-linecap:round;stroke-miterlimit:4;stroke-opacity:1;stroke-dasharray:3.60000000000000010, 3.60000000000000010;stroke-dashoffset:0" />
    <g
       title="$2$"
       style="fill:#000000"
       id="equation_07"
       transform="matrix(3.2023674,0,0,3.2023674,71.75314,179.97452)">
      <defs
         id="defs5020">
        <path
           id="equation_07_00"
           d="M 1.27,-0.77 2.33,-1.8 c 1.56,-1.38 2.16,-1.92 2.16,-2.92 0,-1.14 -0.9,-1.94 -2.12,-1.94 -1.13,0 -1.87,0.92 -1.87,1.81 0,0.56 0.5,0.56 0.53,0.56 0.17,0 0.52,-0.12 0.52,-0.53 0,-0.26 -0.18,-0.52 -0.53,-0.52 -0.08,0 -0.1,0 -0.13,0.01 0.23,-0.65 0.77,-1.02 1.35,-1.02 0.91,0 1.34,0.81 1.34,1.63 0,0.8 -0.5,1.59 -1.05,2.21 L 0.61,-0.37 C 0.5,-0.26 0.5,-0.24 0.5,0 H 4.21 L 4.49,-1.74 H 4.24 C 4.19,-1.44 4.12,-1 4.02,-0.85 3.95,-0.77 3.29,-0.77 3.07,-0.77 h -1.8 z"
           inkscape:connector-curvature="0" />
      </defs>
      <g
         id="equation_07_g">
        <use
           id="use5024"
           y="63"
           xlink:href="#equation_07_00"
           x="77"
           width="744.09448"
           height="1052.3622" />
      </g>
    </g>
    <g
       id="equation_08"
       style="fill:#000000"
       title="$-2$"
       transform="matrix(3.2023674,0,0,3.2023674,-132.29767,376.95427)">
      <defs
         id="defs5193">
        <path
           d="M 1.27,-0.77 2.33,-1.8 c 1.56,-1.38 2.16,-1.92 2.16,-2.92 0,-1.14 -0.9,-1.94 -2.12,-1.94 -1.13,0 -1.87,0.92 -1.87,1.81 0,0.56 0.5,0.56 0.53,0.56 0.17,0 0.52,-0.12 0.52,-0.53 0,-0.26 -0.18,-0.52 -0.53,-0.52 -0.08,0 -0.1,0 -0.13,0.01 0.23,-0.65 0.77,-1.02 1.35,-1.02 0.91,0 1.34,0.81 1.34,1.63 0,0.8 -0.5,1.59 -1.05,2.21 L 0.61,-0.37 C 0.5,-0.26 0.5,-0.24 0.5,0 H 4.21 L 4.49,-1.74 H 4.24 C 4.19,-1.44 4.12,-1 4.02,-0.85 3.95,-0.77 3.29,-0.77 3.07,-0.77 h -1.8 z"
           id="equation_08_00"
           inkscape:connector-curvature="0" />
        <path
           d="m 6.59,-2.3 c 0.17,0 0.35,0 0.35,-0.2 0,-0.2 -0.18,-0.2 -0.35,-0.2 H 1.18 c -0.17,0 -0.35,0 -0.35,0.2 0,0.2 0.18,0.2 0.35,0.2 h 5.41 z"
           id="equation_08_01"
           inkscape:connector-curvature="0" />
      </defs>
      <g
         id="equation_08_g">
        <use
           x="77"
           xlink:href="#equation_08_01"
           y="63"
           id="use5198"
           width="744.09448"
           height="1052.3622" />
        <use
           x="84.777802"
           xlink:href="#equation_08_00"
           y="63"
           id="use5200"
           width="744.09448"
           height="1052.3622" />
      </g>
    </g>
    <text
       sodipodi:linespacing="125%"
       id="text4634"
       y="411.64398"
       x="60.439514"
       style="font-size:30.21941185px;font-style:normal;font-variant:normal;font-weight:normal;font-stretch:normal;text-align:start;line-height:125%;letter-spacing:0px;word-spacing:0px;writing-mode:lr-tb;text-anchor:start;fill:#000000;fill-opacity:1;stroke:none;font-family:HGGothicM;-inkscape-font-specification:HGGothicM"
       xml:space="preserve"><tspan
         y="411.64398"
         x="60.439514"
         id="tspan4636"
         sodipodi:role="line">面積</tspan></text>
    <g
       title="$16$"
       style="fill:#000000"
       id="equation_09"
       transform="matrix(3.2524365,0,0,3.2524365,-127.10619,210.14418)">
      <defs
         id="defs5383">
        <path
           id="equation_09_00"
           d="m 2.94,-6.4 c 0,-0.24 0,-0.26 -0.23,-0.26 -0.62,0.64 -1.5,0.64 -1.82,0.64 v 0.31 c 0.2,0 0.79,0 1.31,-0.26 v 5.18 c 0,0.36 -0.03,0.48 -0.93,0.48 H 0.95 V 0 c 0.35,-0.03 1.22,-0.03 1.62,-0.03 0.4,0 1.27,0 1.62,0.03 V -0.31 H 3.87 c -0.9,0 -0.93,-0.11 -0.93,-0.48 V -6.4 z"
           inkscape:connector-curvature="0" />
        <path
           id="equation_09_01"
           d="m 1.32,-3.28 v -0.24 c 0,-2.53 1.24,-2.89 1.75,-2.89 0.24,0 0.66,0.06 0.88,0.4 -0.15,0 -0.55,0 -0.55,0.45 0,0.31 0.24,0.46 0.46,0.46 0.16,0 0.46,-0.09 0.46,-0.48 0,-0.6 -0.44,-1.08 -1.27,-1.08 -1.28,0 -2.63,1.29 -2.63,3.5 0,2.67 1.16,3.38 2.09,3.38 1.11,0 2.06,-0.94 2.06,-2.26 0,-1.27 -0.89,-2.23 -2,-2.23 -0.68,0 -1.05,0.51 -1.25,0.99 z m 1.19,3.22 c -0.63,0 -0.93,-0.6 -0.99,-0.75 -0.18,-0.47 -0.18,-1.27 -0.18,-1.45 0,-0.78 0.32,-1.78 1.22,-1.78 0.16,0 0.62,0 0.93,0.62 0.18,0.37 0.18,0.88 0.18,1.37 0,0.48 0,0.98 -0.17,1.34 -0.3,0.6 -0.76,0.65 -0.99,0.65 z"
           inkscape:connector-curvature="0" />
      </defs>
      <g
         id="equation_09_g">
        <use
           id="use5388"
           y="63"
           xlink:href="#equation_09_00"
           x="77"
           width="744.09448"
           height="1052.3622" />
        <use
           id="use5390"
           y="63"
           xlink:href="#equation_09_01"
           x="82"
           width="744.09448"
           height="1052.3622" />
      </g>
    </g>
    <g
       transform="matrix(3.0446364,0,0,3.0446364,82.088589,271.66827)"
       title="$1$"
       style="fill:#000000"
       id="equation_01-2">
      <defs
         id="defs4293-9">
        <path
           inkscape:connector-curvature="0"
           id="equation_01_00-0"
           d="m 2.94,-6.4 c 0,-0.24 0,-0.26 -0.23,-0.26 -0.62,0.64 -1.5,0.64 -1.82,0.64 v 0.31 c 0.2,0 0.79,0 1.31,-0.26 v 5.18 c 0,0.36 -0.03,0.48 -0.93,0.48 H 0.95 V 0 c 0.35,-0.03 1.22,-0.03 1.62,-0.03 0.4,0 1.27,0 1.62,0.03 V -0.31 H 3.87 c -0.9,0 -0.93,-0.11 -0.93,-0.48 V -6.4 z" />
      </defs>
      <g
         id="equation_01_g-3">
        <use
           height="1052.3622"
           width="744.09448"
           id="use4297-8"
           y="63"
           xlink:href="#equation_01_00-0"
           x="77" />
      </g>
    </g>
    <g
       id="equation_08-8"
       style="fill:#000000"
       title="$-2$"
       transform="matrix(3.2023674,0,0,3.2023674,45.593013,547.11948)">
      <defs
         id="defs5193-5">
        <path
           d="M 1.27,-0.77 2.33,-1.8 c 1.56,-1.38 2.16,-1.92 2.16,-2.92 0,-1.14 -0.9,-1.94 -2.12,-1.94 -1.13,0 -1.87,0.92 -1.87,1.81 0,0.56 0.5,0.56 0.53,0.56 0.17,0 0.52,-0.12 0.52,-0.53 0,-0.26 -0.18,-0.52 -0.53,-0.52 -0.08,0 -0.1,0 -0.13,0.01 0.23,-0.65 0.77,-1.02 1.35,-1.02 0.91,0 1.34,0.81 1.34,1.63 0,0.8 -0.5,1.59 -1.05,2.21 L 0.61,-0.37 C 0.5,-0.26 0.5,-0.24 0.5,0 H 4.21 L 4.49,-1.74 H 4.24 C 4.19,-1.44 4.12,-1 4.02,-0.85 3.95,-0.77 3.29,-0.77 3.07,-0.77 h -1.8 z"
           id="equation_08_00-7"
           inkscape:connector-curvature="0" />
        <path
           d="m 6.59,-2.3 c 0.17,0 0.35,0 0.35,-0.2 0,-0.2 -0.18,-0.2 -0.35,-0.2 H 1.18 c -0.17,0 -0.35,0 -0.35,0.2 0,0.2 0.18,0.2 0.35,0.2 h 5.41 z"
           id="equation_08_01-7"
           inkscape:connector-curvature="0" />
      </defs>
      <g
         id="equation_08_g-0">
        <use
           x="77"
           xlink:href="#equation_08_01-7"
           y="63"
           id="use5198-8"
           width="744.09448"
           height="1052.3622" />
        <use
           x="84.777802"
           xlink:href="#equation_08_00-7"
           y="63"
           id="use5200-9"
           width="744.09448"
           height="1052.3622" />
      </g>
    </g>
    <g
       title="$2$"
       style="fill:#000000"
       id="equation_07-3"
       transform="matrix(3.2023674,0,0,3.2023674,260.6056,375.39355)">
      <defs
         id="defs5020-0">
        <path
           id="equation_07_00-7"
           d="M 1.27,-0.77 2.33,-1.8 c 1.56,-1.38 2.16,-1.92 2.16,-2.92 0,-1.14 -0.9,-1.94 -2.12,-1.94 -1.13,0 -1.87,0.92 -1.87,1.81 0,0.56 0.5,0.56 0.53,0.56 0.17,0 0.52,-0.12 0.52,-0.53 0,-0.26 -0.18,-0.52 -0.53,-0.52 -0.08,0 -0.1,0 -0.13,0.01 0.23,-0.65 0.77,-1.02 1.35,-1.02 0.91,0 1.34,0.81 1.34,1.63 0,0.8 -0.5,1.59 -1.05,2.21 L 0.61,-0.37 C 0.5,-0.26 0.5,-0.24 0.5,0 H 4.21 L 4.49,-1.74 H 4.24 C 4.19,-1.44 4.12,-1 4.02,-0.85 3.95,-0.77 3.29,-0.77 3.07,-0.77 h -1.8 z"
           inkscape:connector-curvature="0" />
      </defs>
      <g
         id="equation_07_g-4">
        <use
           id="use5024-7"
           y="63"
           xlink:href="#equation_07_00-7"
           x="77"
           width="744.09448"
           height="1052.3622" />
      </g>
    </g>
  </g>
</svg>
