<?xml version="1.0" encoding="UTF-8" standalone="no"?>
<!-- Created with Inkscape (http://www.inkscape.org/) -->

<svg
   xmlns:dc="http://purl.org/dc/elements/1.1/"
   xmlns:cc="http://creativecommons.org/ns#"
   xmlns:rdf="http://www.w3.org/1999/02/22-rdf-syntax-ns#"
   xmlns:svg="http://www.w3.org/2000/svg"
   xmlns="http://www.w3.org/2000/svg"
   xmlns:xlink="http://www.w3.org/1999/xlink"
   xmlns:sodipodi="http://sodipodi.sourceforge.net/DTD/sodipodi-0.dtd"
   xmlns:inkscape="http://www.inkscape.org/namespaces/inkscape"
   width="210mm"
   height="297mm"
   id="svg2"
   version="1.1"
   inkscape:version="0.48.4 r9939"
   sodipodi:docname="新規ドキュメント 1">
  <sodipodi:namedview
     id="base"
     pagecolor="#ffffff"
     bordercolor="#666666"
     borderopacity="1.0"
     inkscape:pageopacity="0.0"
     inkscape:pageshadow="2"
     inkscape:zoom="0.49497475"
     inkscape:cx="136.49706"
     inkscape:cy="729.77227"
     inkscape:document-units="px"
     inkscape:current-layer="layer1"
     showgrid="false"
     showguides="true"
     inkscape:guide-bbox="true"
     inkscape:window-width="1366"
     inkscape:window-height="746"
     inkscape:window-x="-8"
     inkscape:window-y="-8"
     inkscape:window-maximized="1" />
  <defs
     id="defs4">
    <marker
       inkscape:stockid="Arrow1Lend"
       orient="auto"
       refY="0.0"
       refX="0.0"
       id="Arrow1Lend"
       style="overflow:visible;">
      <path
         id="path3845"
         d="M 0.0,0.0 L 5.0,-5.0 L -12.5,0.0 L 5.0,5.0 L 0.0,0.0 z "
         style="fill-rule:evenodd;stroke:#000000;stroke-width:1.0pt;"
         transform="scale(0.8) rotate(180) translate(12.5,0)" />
    </marker>
  </defs>
  <metadata
     id="metadata7">
    <rdf:RDF>
      <cc:Work
         rdf:about="">
        <dc:format>image/svg+xml</dc:format>
        <dc:type
           rdf:resource="http://purl.org/dc/dcmitype/StillImage" />
        <dc:title></dc:title>
      </cc:Work>
    </rdf:RDF>
  </metadata>
  <g
     inkscape:label="レイヤー 1"
     inkscape:groupmode="layer"
     id="layer1">
    <path
       inkscape:connector-curvature="0"
       id="path2985"
       d="m -435.71429,626.6479 c 201.90476,0 403.809527,0 605.71429,0"
       style="fill:none;stroke:#000000;stroke-width:1px;stroke-linecap:butt;stroke-linejoin:miter;stroke-opacity:1;marker-end:url(#Arrow1Lend)" />
    <path
       inkscape:connector-curvature="0"
       id="path2987"
       d="m -405.71428,652.36218 c 0,-136.66667 0,-273.33333 0,-410"
       style="fill:none;stroke:#000000;stroke-width:1px;stroke-linecap:butt;stroke-linejoin:miter;stroke-opacity:1;marker-end:url(#Arrow1Lend)" />
    <path
       inkscape:connector-curvature="0"
       id="path2989"
       d="m -432.85714,572.36218 c 34.182,-40.18783 66.05057,-83.22567 106.59147,-117.20934 27.534,-16.71516 58.49018,-26.8826 83.57583,-47.80374 31.28254,-17.87547 67.86944,-23.81432 102.86796,-30.69833 38.8228,-7.44104 79.288634,-5.46021 116.657279,-19.66744 48.405476,-12.89702 91.816712,-47.90223 143.962241,-42.77067 11.04829,1.99593 22.26973,3.35766 33.48808,3.86381"
       style="fill:none;stroke:#000000;stroke-width:3;stroke-linecap:butt;stroke-linejoin:miter;stroke-opacity:1;stroke-miterlimit:4;stroke-dasharray:none" />
    <path
       style="fill:none;stroke:#000000;stroke-width:1px;stroke-linecap:butt;stroke-linejoin:miter;stroke-opacity:1;marker-end:url(#Arrow1Lend)"
       d="m 265.71428,626.6479 605.71429,0"
       id="path2985-7"
       inkscape:connector-curvature="0" />
    <path
       style="fill:none;stroke:#000000;stroke-width:1px;stroke-linecap:butt;stroke-linejoin:miter;stroke-opacity:1;marker-end:url(#Arrow1Lend)"
       d="m 295.71429,652.36218 0,-410"
       id="path2987-4"
       inkscape:connector-curvature="0" />
    <path
       style="fill:none;stroke:#000000;stroke-width:3;stroke-linecap:butt;stroke-linejoin:miter;stroke-opacity:1;stroke-miterlimit:4;stroke-dasharray:none"
       d="m 264.28571,600.93361 c 38.66374,5.61208 74.20353,-16.7612 112.62166,-16.53378 68.58514,-5.81761 135.79009,-21.1606 202.68381,-36.64079 28.62804,-5.67655 58.93341,-12.38971 81.22064,-32.56388 -4.07267,-25.98641 -34.27918,-26.95788 -54.78431,-30.72589 -39.47123,-12.59919 -78.77385,-26.42803 -118.77984,-37.63275 -32.78805,-18.58555 -3.19222,-60.62341 25.92969,-62.17413 56.3833,-23.8726 116.73611,-36.16856 174.44243,-56.29677 49.18891,-16.20516 99.16075,-30.60567 147.18841,-50.00999 7.84476,-3.59579 15.63785,-7.34465 23.76323,-10.27916"
       id="path3059"
       inkscape:connector-curvature="0" />
    <path
       style="fill:none;stroke:#000000;stroke-width:1px;stroke-linecap:butt;stroke-linejoin:miter;stroke-opacity:1"
       d="m -181.82746,272.52442 0,359.6143"
       id="path4282"
       inkscape:connector-curvature="0" />
    <path
       style="fill:none;stroke:#000000;stroke-width:1px;stroke-linecap:butt;stroke-linejoin:miter;stroke-opacity:1"
       d="m 553.56359,236.15893 0,393.95949"
       id="path4284"
       inkscape:connector-curvature="0" />
    <path
       style="fill:none;stroke:#ff0000;stroke-width:2;stroke-linecap:butt;stroke-linejoin:miter;stroke-opacity:1;stroke-miterlimit:4;stroke-dasharray:none"
       d="m -185.86807,276.56503 c 0.87151,14.97001 0.70026,31.45337 -8.97101,43.83411 -4.7114,9.7181 -13.11992,17.13488 -22.32466,22.50954 -13.78272,13.12653 -16.22409,34.35602 -12.17755,52.11716 4.5294,13.47493 14.91128,23.77 25.76348,32.42411 6.27126,5.31598 10.08318,13.0084 10.47992,21.21636 2.56127,17.44115 -0.65918,37.3512 11.44657,51.9419 1.54882,2.41126 2.71524,5.41617 1.84414,8.2919"
       id="path4288"
       inkscape:connector-curvature="0" />
    <path
       style="fill:none;stroke:#ff0000;stroke-width:2;stroke-linecap:butt;stroke-linejoin:miter;stroke-opacity:1;stroke-miterlimit:4;stroke-dasharray:none"
       d="m 549.52298,272.52442 c -0.77341,21.09671 2.29779,42.06318 3.06638,63.11174 -3.04592,18.95448 -29.23299,21.77903 -31.45169,41.34614 -5.31079,16.24112 8.7322,24.90852 19.51052,32.70092 6.61071,9.20856 8.78276,21.57448 6.88116,32.57237 -4.8018,12.85929 -24.30986,16.55378 -23.27369,32.2072 -4.84514,19.9987 26.80894,11.48516 28.83114,27.75255 2.17275,18.66869 -9.07009,36.45561 -23.02293,47.94444 -12.38846,8.79825 -13.93873,30.63038 1.29816,37.29477 12.30318,2.39218 23.90161,10.96579 22.69774,24.96293 0.002,1.86951 -0.16266,3.73946 -0.49617,5.57911"
       id="path4304"
       inkscape:connector-curvature="0" />
    <path
       style="fill:#ff0000;fill-opacity:1;stroke:#ff0000;stroke-width:4.04061031;stroke-linecap:round;stroke-linejoin:round;stroke-miterlimit:4;stroke-opacity:1;stroke-dasharray:none;stroke-dashoffset:0"
       d="m -228.24837,388.32441 c -1.01895,-23.69186 3.48228,-35.43788 18.35069,-47.88642 11.72669,-9.81813 19.69822,-21.12603 23.56717,-33.43086 2.22635,-7.08066 2.55768,-2.88299 2.6761,33.90352 0.10294,31.98021 -0.46662,42.14247 -2.39023,42.64668 -1.38896,0.36407 -10.30719,3.06295 -19.81828,5.99751 -9.51109,2.93456 -18.37518,5.33556 -19.69797,5.33556 -1.3228,0 -2.53216,-2.95469 -2.68748,-6.56599 z"
       id="path4313"
       inkscape:connector-curvature="0" />
    <path
       style="fill:#ff0000;fill-opacity:1;stroke:#ff0000;stroke-width:4.04061031;stroke-linecap:round;stroke-linejoin:round;stroke-miterlimit:4;stroke-opacity:1;stroke-dasharray:none;stroke-dashoffset:0"
       d="m -186.94831,482.77368 c -1.3304,-5.55584 -3.01818,-17.37463 -3.75063,-26.26397 -1.54357,-18.73343 -3.88852,-24.16023 -14.4354,-33.40712 -12.32348,-10.80451 -19.37145,-20.52755 -16.32322,-22.51874 3.8131,-2.49083 36.09972,-12.24607 37.1278,-11.21798 0.48463,0.48462 0.63797,23.97248 0.34075,52.19524 -0.47243,44.85952 -0.84467,50.04347 -2.9593,41.21257 z"
       id="path4315"
       inkscape:connector-curvature="0" />
    <path
       style="fill:#ff0000;fill-opacity:1;stroke:#ff0000;stroke-width:4.04061031;stroke-linecap:round;stroke-linejoin:round;stroke-miterlimit:4;stroke-opacity:1;stroke-dasharray:none;stroke-dashoffset:0"
       d="m 523.58752,374.28912 c 0,-1.33019 6.36396,-8.54717 14.14214,-16.03772 l 14.14213,-13.61918 0,11.5101 0,11.5101 -12.62691,4.52803 c -14.58089,5.22875 -15.65736,5.37372 -15.65736,2.10867 z"
       id="path4317"
       inkscape:connector-curvature="0" />
    <path
       style="fill:#ff0000;fill-opacity:1;stroke:#ff0000;stroke-width:4.04061031;stroke-linecap:round;stroke-linejoin:round;stroke-miterlimit:4;stroke-opacity:1;stroke-dasharray:none;stroke-dashoffset:0"
       d="m 541.90863,460.76803 c -6.66033,-2.40691 -6.7754,-2.61915 -2.92895,-5.40214 7.09837,-5.13581 10.87181,-12.63073 10.87181,-21.59396 0,-12.61509 -4.93876,-22.55922 -16.01767,-32.25141 -9.14317,-7.99873 -13.68052,-15.61933 -10.47823,-17.59845 0.77497,-0.47896 7.50815,-3.16654 14.96262,-5.97239 l 13.55358,-5.10156 0,45.36633 c 0,24.95148 -0.68185,45.29716 -1.51523,45.21263 -0.83337,-0.0845 -4.63494,-1.28111 -8.44793,-2.65905 l 0,0 z"
       id="path4319"
       inkscape:connector-curvature="0" />
    <path
       style="fill:#ff0000;fill-opacity:1;stroke:#ff0000;stroke-width:4.04061031;stroke-linecap:round;stroke-linejoin:round;stroke-miterlimit:4;stroke-opacity:1;stroke-dasharray:none;stroke-dashoffset:0"
       d="m 540.80365,489.27699 c -5.5319,-2.05931 -11.21401,-4.7036 -12.62691,-5.87621 -3.33675,-2.76925 -3.29583,-11.99269 0.0736,-16.60072 2.37258,-3.24469 3.55942,-3.35255 11.61676,-1.05571 4.93581,1.40701 9.70537,3.18157 10.59903,3.94347 0.89366,0.7619 1.34823,6.32359 1.01015,12.35932 l -0.61468,10.97404 -10.05799,-3.74419 z"
       id="path4321"
       inkscape:connector-curvature="0" />
    <path
       style="fill:#ff0000;fill-opacity:1;stroke:#ff0000;stroke-width:4.04061031;stroke-linecap:round;stroke-linejoin:round;stroke-miterlimit:4;stroke-opacity:1;stroke-dasharray:none;stroke-dashoffset:0"
       d="m 535.01,548.19935 c 4.61561,-4.87142 10.29432,-12.03911 12.61936,-15.9282 l 4.22733,-7.07107 0.007,13.37885 0.008,13.37885 -7.57614,1.26728 c -4.16688,0.69701 -9.84899,1.84422 -12.62691,2.54936 -4.54868,1.15462 -4.21653,0.4016 3.34126,-7.57507 z"
       id="path4323"
       inkscape:connector-curvature="0" />
    <path
       style="fill:#ff0000;fill-opacity:1;stroke:#ff0000;stroke-width:4.04061031;stroke-linecap:round;stroke-linejoin:round;stroke-miterlimit:4;stroke-opacity:1;stroke-dasharray:none;stroke-dashoffset:0"
       d="m 550.27432,595.5524 c -0.23256,-1.30826 -5.27621,-4.67468 -11.2081,-7.48091 -11.92327,-5.64061 -14.87535,-8.37764 -15.51422,-14.38408 -1.00278,-9.42783 -0.12837,-10.29815 13.66159,-13.59761 7.49433,-1.79314 13.89263,-2.99369 14.21843,-2.66789 0.32581,0.32581 0.29374,9.57365 -0.0712,20.55076 -0.365,10.97712 -0.8539,18.888 -1.08645,17.57973 l 0,0 z"
       id="path4325"
       inkscape:connector-curvature="0" />
    <text
       xml:space="preserve"
       style="font-size:40px;font-style:normal;font-variant:normal;font-weight:normal;font-stretch:normal;text-align:start;line-height:125%;letter-spacing:0px;word-spacing:0px;writing-mode:lr-tb;text-anchor:start;fill:#000000;fill-opacity:1;stroke:none;font-family:HGGothicM;-inkscape-font-specification:HGGothicM"
       x="573.76666"
       y="282.62595"
       id="text4333"
       sodipodi:linespacing="125%"><tspan
         sodipodi:role="line"
         id="tspan4335"
         x="573.76666"
         y="282.62595">3つの山を持つ</tspan></text>
    <text
       xml:space="preserve"
       style="font-size:40px;font-style:normal;font-variant:normal;font-weight:normal;font-stretch:normal;text-align:start;line-height:125%;letter-spacing:0px;word-spacing:0px;writing-mode:lr-tb;text-anchor:start;fill:#000000;fill-opacity:1;stroke:none;font-family:HGGothicM;-inkscape-font-specification:HGGothicM"
       x="-163.64471"
       y="325.05234"
       id="text4337"
       sodipodi:linespacing="125%"><tspan
         sodipodi:role="line"
         id="tspan4339"
         x="-163.64471"
         y="325.05234">山が一つ</tspan></text>
    <g
       id="equation_00"
       style="fill:#000000"
       title="$x$"
       transform="matrix(7.6603464,0,0,7.6603464,-439.62727,195.85859)">
      <defs
         id="defs4370">
        <path
           d="M 3.34,-3.02 C 3.4,-3.28 3.63,-4.2 4.33,-4.2 c 0.05,0 0.29,0 0.5,0.13 -0.28,0.05 -0.48,0.3 -0.48,0.54 0,0.16 0.11,0.35 0.38,0.35 0.22,0 0.54,-0.18 0.54,-0.58 0,-0.52 -0.59,-0.66 -0.93,-0.66 -0.58,0 -0.93,0.53 -1.05,0.76 -0.25,-0.66 -0.79,-0.76 -1.08,-0.76 -1.04,0 -1.61,1.29 -1.61,1.54 0,0.1 0.1,0.1 0.12,0.1 0.08,0 0.11,-0.02 0.13,-0.11 0.34,-1.06 1,-1.31 1.34,-1.31 0.19,0 0.54,0.09 0.54,0.67 0,0.31 -0.17,0.98 -0.54,2.38 -0.16,0.62 -0.51,1.04 -0.95,1.04 -0.06,0 -0.29,0 -0.5,-0.13 0.25,-0.05 0.47,-0.26 0.47,-0.54 0,-0.27 -0.22,-0.35 -0.37,-0.35 -0.3,0 -0.55,0.26 -0.55,0.58 0,0.46 0.5,0.66 0.94,0.66 0.66,0 1.02,-0.7 1.05,-0.76 0.12,0.37 0.48,0.76 1.08,0.76 1.03,0 1.6,-1.29 1.6,-1.54 0,-0.1 -0.09,-0.1 -0.12,-0.1 -0.09,0 -0.11,0.04 -0.13,0.11 -0.33,1.07 -1.01,1.31 -1.33,1.31 -0.39,0 -0.55,-0.32 -0.55,-0.66 0,-0.22 0.06,-0.44 0.17,-0.88 l 0.34,-1.37 z"
           id="equation_00_00"
           inkscape:connector-curvature="0" />
      </defs>
      <g
         id="equation_00_g">
        <use
           x="77"
           xlink:href="#equation_00_00"
           y="63"
           id="use4374"
           width="744.09448"
           height="1052.3622" />
      </g>
    </g>
    <g
       title="$t$"
       style="fill:#000000"
       id="equation_01"
       transform="matrix(7.6603464,0,0,7.6603464,-1051.7797,-214.26334)">
      <defs
         id="defs4441">
        <path
           id="equation_01_00"
           d="M 2.06,-4 H 3 c 0.2,0 0.3,0 0.3,-0.2 0,-0.11 -0.1,-0.11 -0.28,-0.11 H 2.14 c 0.36,-1.42 0.41,-1.62 0.41,-1.68 0,-0.17 -0.12,-0.27 -0.29,-0.27 -0.03,0 -0.31,0.01 -0.4,0.36 L 1.47,-4.31 H 0.53 c -0.2,0 -0.3,0 -0.3,0.19 C 0.23,-4 0.31,-4 0.51,-4 h 0.88 c -0.72,2.84 -0.76,3.01 -0.76,3.19 0,0.54 0.38,0.92 0.92,0.92 1.02,0 1.59,-1.46 1.59,-1.54 0,-0.1 -0.08,-0.1 -0.12,-0.1 -0.09,0 -0.1,0.03 -0.15,0.14 -0.43,1.04 -0.96,1.28 -1.3,1.28 -0.21,0 -0.31,-0.13 -0.31,-0.46 0,-0.24 0.02,-0.31 0.06,-0.48 L 2.06,-4 z"
           inkscape:connector-curvature="0" />
      </defs>
      <g
         id="equation_01_g">
        <use
           id="use4445"
           y="63"
           xlink:href="#equation_01_00"
           x="77"
           width="744.09448"
           height="1052.3622" />
      </g>
    </g>
    <g
       id="equation_00-4"
       style="fill:#000000"
       title="$x$"
       transform="matrix(7.6603464,0,0,7.6603464,247.71704,195.31583)">
      <defs
         id="defs4370-8">
        <path
           d="M 3.34,-3.02 C 3.4,-3.28 3.63,-4.2 4.33,-4.2 c 0.05,0 0.29,0 0.5,0.13 -0.28,0.05 -0.48,0.3 -0.48,0.54 0,0.16 0.11,0.35 0.38,0.35 0.22,0 0.54,-0.18 0.54,-0.58 0,-0.52 -0.59,-0.66 -0.93,-0.66 -0.58,0 -0.93,0.53 -1.05,0.76 -0.25,-0.66 -0.79,-0.76 -1.08,-0.76 -1.04,0 -1.61,1.29 -1.61,1.54 0,0.1 0.1,0.1 0.12,0.1 0.08,0 0.11,-0.02 0.13,-0.11 0.34,-1.06 1,-1.31 1.34,-1.31 0.19,0 0.54,0.09 0.54,0.67 0,0.31 -0.17,0.98 -0.54,2.38 -0.16,0.62 -0.51,1.04 -0.95,1.04 -0.06,0 -0.29,0 -0.5,-0.13 0.25,-0.05 0.47,-0.26 0.47,-0.54 0,-0.27 -0.22,-0.35 -0.37,-0.35 -0.3,0 -0.55,0.26 -0.55,0.58 0,0.46 0.5,0.66 0.94,0.66 0.66,0 1.02,-0.7 1.05,-0.76 0.12,0.37 0.48,0.76 1.08,0.76 1.03,0 1.6,-1.29 1.6,-1.54 0,-0.1 -0.09,-0.1 -0.12,-0.1 -0.09,0 -0.11,0.04 -0.13,0.11 -0.33,1.07 -1.01,1.31 -1.33,1.31 -0.39,0 -0.55,-0.32 -0.55,-0.66 0,-0.22 0.06,-0.44 0.17,-0.88 l 0.34,-1.37 z"
           id="equation_00_00-8"
           inkscape:connector-curvature="0" />
      </defs>
      <g
         id="equation_00_g-2">
        <use
           x="77"
           xlink:href="#equation_00_00-8"
           y="63"
           id="use4374-4"
           width="744.09448"
           height="1052.3622" />
      </g>
    </g>
    <g
       title="$t$"
       style="fill:#000000"
       id="equation_01-5"
       transform="matrix(7.6603464,0,0,7.6603464,-348.27296,-214.80611)">
      <defs
         id="defs4441-5">
        <path
           id="equation_01_00-1"
           d="M 2.06,-4 H 3 c 0.2,0 0.3,0 0.3,-0.2 0,-0.11 -0.1,-0.11 -0.28,-0.11 H 2.14 c 0.36,-1.42 0.41,-1.62 0.41,-1.68 0,-0.17 -0.12,-0.27 -0.29,-0.27 -0.03,0 -0.31,0.01 -0.4,0.36 L 1.47,-4.31 H 0.53 c -0.2,0 -0.3,0 -0.3,0.19 C 0.23,-4 0.31,-4 0.51,-4 h 0.88 c -0.72,2.84 -0.76,3.01 -0.76,3.19 0,0.54 0.38,0.92 0.92,0.92 1.02,0 1.59,-1.46 1.59,-1.54 0,-0.1 -0.08,-0.1 -0.12,-0.1 -0.09,0 -0.1,0.03 -0.15,0.14 -0.43,1.04 -0.96,1.28 -1.3,1.28 -0.21,0 -0.31,-0.13 -0.31,-0.46 0,-0.24 0.02,-0.31 0.06,-0.48 L 2.06,-4 z"
           inkscape:connector-curvature="0" />
      </defs>
      <g
         id="equation_01_g-7">
        <use
           id="use4445-1"
           y="63"
           xlink:href="#equation_01_00-1"
           x="77"
           width="744.09448"
           height="1052.3622" />
      </g>
    </g>
  </g>
</svg>
