<?xml version="1.0" encoding="UTF-8" standalone="no"?>
<!-- Created with Inkscape (http://www.inkscape.org/) -->

<svg
   xmlns:dc="http://purl.org/dc/elements/1.1/"
   xmlns:cc="http://creativecommons.org/ns#"
   xmlns:rdf="http://www.w3.org/1999/02/22-rdf-syntax-ns#"
   xmlns:svg="http://www.w3.org/2000/svg"
   xmlns="http://www.w3.org/2000/svg"
   xmlns:xlink="http://www.w3.org/1999/xlink"
   xmlns:sodipodi="http://sodipodi.sourceforge.net/DTD/sodipodi-0.dtd"
   xmlns:inkscape="http://www.inkscape.org/namespaces/inkscape"
   width="210mm"
   height="297mm"
   id="svg2"
   version="1.1"
   inkscape:version="0.48.4 r9939"
   sodipodi:docname="neural-network4.svg"
   inkscape:export-filename="\\EULER\nineties\projects\prml-seminar\fig\neural-network4.png"
   inkscape:export-xdpi="95.32"
   inkscape:export-ydpi="95.32">
  <sodipodi:namedview
     id="base"
     pagecolor="#ffffff"
     bordercolor="#666666"
     borderopacity="1.0"
     inkscape:pageopacity="0.0"
     inkscape:pageshadow="2"
     inkscape:zoom="1.4617223"
     inkscape:cx="160.16911"
     inkscape:cy="855.59303"
     inkscape:document-units="px"
     inkscape:current-layer="layer1"
     showgrid="false"
     inkscape:window-width="1366"
     inkscape:window-height="746"
     inkscape:window-x="-8"
     inkscape:window-y="-8"
     inkscape:window-maximized="1" />
  <defs
     id="defs4">
    <marker
       style="overflow:visible;"
       id="Arrow1Mend"
       refX="0.0"
       refY="0.0"
       orient="auto"
       inkscape:stockid="Arrow1Mend">
      <path
         transform="scale(0.4) rotate(180) translate(10,0)"
         style="fill-rule:evenodd;stroke:#000000;stroke-width:1.0pt;"
         d="M 0.0,0.0 L 5.0,-5.0 L -12.5,0.0 L 5.0,5.0 L 0.0,0.0 z "
         id="path3788" />
    </marker>
    <marker
       style="overflow:visible;"
       id="Arrow1Lend"
       refX="0.0"
       refY="0.0"
       orient="auto"
       inkscape:stockid="Arrow1Lend">
      <path
         transform="scale(0.8) rotate(180) translate(12.5,0)"
         style="fill-rule:evenodd;stroke:#000000;stroke-width:1.0pt;"
         d="M 0.0,0.0 L 5.0,-5.0 L -12.5,0.0 L 5.0,5.0 L 0.0,0.0 z "
         id="path3782" />
    </marker>
  </defs>
  <metadata
     id="metadata7">
    <rdf:RDF>
      <cc:Work
         rdf:about="">
        <dc:format>image/svg+xml</dc:format>
        <dc:type
           rdf:resource="http://purl.org/dc/dcmitype/StillImage" />
        <dc:title></dc:title>
      </cc:Work>
    </rdf:RDF>
  </metadata>
  <g
     id="layer1"
     inkscape:groupmode="layer"
     inkscape:label="レイヤー 1">
    <path
       d="m 355.07179,403.17096 a 24.187452,24.187452 0 1 1 -48.3749,0 24.187452,24.187452 0 1 1 48.3749,0 z"
       sodipodi:ry="24.187452"
       sodipodi:rx="24.187452"
       sodipodi:cy="403.17096"
       sodipodi:cx="330.88434"
       id="path2985-1-1"
       style="fill:#0000ff;fill-opacity:0.19607843;stroke:#0000ff;stroke-width:1;stroke-linecap:round;stroke-linejoin:round;stroke-miterlimit:4;stroke-opacity:1;stroke-dasharray:none;stroke-dashoffset:0"
       sodipodi:type="arc"
       transform="translate(-170.45715,-223.39622)" />
    <path
       transform="translate(-51.07743,-251.40766)"
       d="m 355.07179,403.17096 a 24.187452,24.187452 0 1 1 -48.3749,0 24.187452,24.187452 0 1 1 48.3749,0 z"
       sodipodi:ry="24.187452"
       sodipodi:rx="24.187452"
       sodipodi:cy="403.17096"
       sodipodi:cx="330.88434"
       id="path2985-4"
       style="fill:#008000;fill-opacity:0.19607843;stroke:#008000;stroke-width:1;stroke-linecap:round;stroke-linejoin:round;stroke-miterlimit:4;stroke-opacity:1;stroke-dasharray:none;stroke-dashoffset:0"
       sodipodi:type="arc" />
    <path
       style="fill:none;stroke:#000000;stroke-width:1px;stroke-linecap:butt;stroke-linejoin:miter;stroke-opacity:1;marker-end:url(#Arrow1Mend)"
       d="M 183.34536,171.89398 254.4943,154.10675"
       id="path6573"
       inkscape:connector-curvature="0"
       sodipodi:nodetypes="cc" />
    <g
       transform="matrix(2.5827594,0,0,2.5827594,52.804396,-40.040462)"
       title="$a_j$"
       style="fill:#000000"
       id="equation_04">
      <defs
         id="defs7217">
        <path
           inkscape:connector-curvature="0"
           id="equation_04_00"
           d="M 3.73,-3.78 C 3.55,-4.15 3.26,-4.42 2.81,-4.42 c -1.17,0 -2.41,1.47 -2.41,2.93 0,0.94 0.55,1.6 1.33,1.6 0.2,0 0.7,-0.04 1.3,-0.75 0.08,0.42 0.43,0.75 0.91,0.75 0.35,0 0.58,-0.23 0.74,-0.55 0.17,-0.36 0.3,-0.97 0.3,-0.99 0,-0.1 -0.09,-0.1 -0.12,-0.1 -0.1,0 -0.11,0.04 -0.14,0.18 -0.17,0.65 -0.35,1.24 -0.76,1.24 -0.27,0 -0.3,-0.26 -0.3,-0.46 0,-0.22 0.02,-0.3 0.13,-0.74 0.11,-0.42 0.13,-0.52 0.22,-0.9 l 0.36,-1.4 c 0.07,-0.28 0.07,-0.3 0.07,-0.34 0,-0.17 -0.12,-0.27 -0.29,-0.27 -0.24,0 -0.39,0.22 -0.42,0.44 z m -0.65,2.59 c -0.05,0.18 -0.05,0.2 -0.2,0.37 -0.44,0.55 -0.85,0.71 -1.13,0.71 -0.5,0 -0.64,-0.55 -0.64,-0.94 0,-0.5 0.32,-1.73 0.55,-2.19 0.31,-0.59 0.76,-0.96 1.16,-0.96 0.65,0 0.79,0.82 0.79,0.88 0,0.06 -0.02,0.12 -0.03,0.17 l -0.5,1.96 z" />
        <path
           inkscape:connector-curvature="0"
           id="equation_04_01"
           d="m 3.073,-4.375 c 0,-0.119 -0.091,-0.266 -0.28,-0.266 -0.203,0 -0.392,0.196 -0.392,0.385 0,0.112 0.084,0.266 0.28,0.266 0.189,0 0.392,-0.182 0.392,-0.385 z M 1.589,0.343 C 1.47,0.826 1.099,1.232 0.686,1.232 0.595,1.232 0.511,1.218 0.434,1.19 0.616,1.106 0.672,0.938 0.672,0.833 0.672,0.665 0.539,0.574 0.399,0.574 0.182,0.574 0,0.763 0,0.987 c 0,0.266 0.273,0.441 0.693,0.441 0.42,0 1.239,-0.252 1.456,-1.106 l 0.63,-2.506 c 0.021,-0.077 0.035,-0.14 0.035,-0.245 0,-0.385 -0.329,-0.658 -0.749,-0.658 -0.777,0 -1.225,0.973 -1.225,1.071 0,0.091 0.098,0.091 0.119,0.091 0.084,0 0.091,-0.021 0.14,-0.126 0.175,-0.406 0.539,-0.84 0.945,-0.84 0.175,0 0.238,0.119 0.238,0.343 0,0.077 -0.014,0.175 -0.021,0.21 L 1.589,0.343 z" />
      </defs>
      <g
         id="equation_04_g">
        <use
           height="1052.3622"
           width="744.09448"
           id="use7222"
           y="63"
           xlink:href="#equation_04_00"
           x="77" />
        <use
           height="1052.3622"
           width="744.09448"
           id="use7224"
           y="64.5"
           xlink:href="#equation_04_01"
           x="82.285896" />
      </g>
    </g>
    <g
       title="$w_{ji}$"
       style="fill:#000000"
       id="equation_01"
       transform="matrix(2.2667484,0,0,2.2667484,38.91791,32.517292)">
      <defs
         id="defs7469">
        <path
           id="equation_01_00"
           d="m 4.62,-3.39 c 0.05,-0.22 0.15,-0.59 0.15,-0.65 0,-0.18 -0.14,-0.27 -0.29,-0.27 -0.12,0 -0.3,0.08 -0.37,0.28 -0.03,0.07 -0.5,1.98 -0.57,2.24 -0.07,0.3 -0.09,0.48 -0.09,0.66 0,0.11 0,0.13 0.01,0.18 -0.23,0.53 -0.53,0.84 -0.92,0.84 -0.8,0 -0.8,-0.74 -0.8,-0.91 0,-0.32 0.05,-0.71 0.52,-1.94 0.11,-0.3 0.17,-0.44 0.17,-0.64 0,-0.45 -0.33,-0.82 -0.82,-0.82 -0.95,0 -1.32,1.45 -1.32,1.54 0,0.1 0.1,0.1 0.12,0.1 0.1,0 0.11,-0.02 0.16,-0.18 0.27,-0.93 0.66,-1.24 1.01,-1.24 0.09,0 0.25,0.01 0.25,0.33 0,0.25 -0.11,0.53 -0.18,0.7 -0.44,1.18 -0.56,1.64 -0.56,2.02 0,0.91 0.67,1.26 1.42,1.26 0.17,0 0.64,0 1.04,-0.7 0.26,0.64 0.95,0.7 1.25,0.7 0.75,0 1.19,-0.63 1.45,-1.23 0.34,-0.78 0.66,-2.12 0.66,-2.6 0,-0.55 -0.27,-0.7 -0.44,-0.7 -0.25,0 -0.5,0.26 -0.5,0.48 0,0.13 0.06,0.19 0.15,0.27 0.11,0.11 0.36,0.37 0.36,0.85 0,0.34 -0.29,1.32 -0.55,1.83 -0.26,0.53 -0.61,0.88 -1.1,0.88 -0.47,0 -0.74,-0.3 -0.74,-0.87 0,-0.28 0.07,-0.59 0.11,-0.73 l 0.42,-1.68 z"
           inkscape:connector-curvature="0" />
        <path
           id="equation_01_01"
           d="m 2.268,-4.375 c 0,-0.112 -0.084,-0.266 -0.28,-0.266 -0.189,0 -0.392,0.182 -0.392,0.385 0,0.119 0.091,0.266 0.28,0.266 0.203,0 0.392,-0.196 0.392,-0.385 z M 0.84,-0.819 c -0.028,0.091 -0.063,0.175 -0.063,0.294 0,0.329 0.28,0.595 0.665,0.595 0.7,0 1.008,-0.966 1.008,-1.071 0,-0.091 -0.091,-0.091 -0.112,-0.091 -0.098,0 -0.105,0.042 -0.133,0.119 -0.161,0.56 -0.469,0.847 -0.742,0.847 -0.14,0 -0.175,-0.091 -0.175,-0.245 0,-0.161 0.049,-0.294 0.112,-0.448 0.07,-0.189 0.147,-0.378 0.224,-0.56 0.063,-0.168 0.315,-0.805 0.343,-0.889 0.021,-0.07 0.042,-0.154 0.042,-0.224 0,-0.329 -0.28,-0.595 -0.665,-0.595 -0.693,0 -1.015,0.952 -1.015,1.071 0,0.091 0.098,0.091 0.119,0.091 0.098,0 0.105,-0.035 0.126,-0.112 0.182,-0.602 0.49,-0.854 0.749,-0.854 0.112,0 0.175,0.056 0.175,0.245 0,0.161 -0.042,0.266 -0.217,0.7 L 0.84,-0.819 z"
           inkscape:connector-curvature="0" />
        <path
           id="equation_01_02"
           d="m 3.073,-4.375 c 0,-0.119 -0.091,-0.266 -0.28,-0.266 -0.203,0 -0.392,0.196 -0.392,0.385 0,0.112 0.084,0.266 0.28,0.266 0.189,0 0.392,-0.182 0.392,-0.385 z M 1.589,0.343 C 1.47,0.826 1.099,1.232 0.686,1.232 0.595,1.232 0.511,1.218 0.434,1.19 0.616,1.106 0.672,0.938 0.672,0.833 0.672,0.665 0.539,0.574 0.399,0.574 0.182,0.574 0,0.763 0,0.987 c 0,0.266 0.273,0.441 0.693,0.441 0.42,0 1.239,-0.252 1.456,-1.106 l 0.63,-2.506 c 0.021,-0.077 0.035,-0.14 0.035,-0.245 0,-0.385 -0.329,-0.658 -0.749,-0.658 -0.777,0 -1.225,0.973 -1.225,1.071 0,0.091 0.098,0.091 0.119,0.091 0.084,0 0.091,-0.021 0.14,-0.126 0.175,-0.406 0.539,-0.84 0.945,-0.84 0.175,0 0.238,0.119 0.238,0.343 0,0.077 -0.014,0.175 -0.021,0.21 L 1.589,0.343 z"
           inkscape:connector-curvature="0" />
      </defs>
      <g
         id="equation_01_g">
        <use
           id="use7475"
           y="63"
           xlink:href="#equation_01_00"
           x="77"
           width="744.09448"
           height="1052.3622" />
        <use
           id="use7477"
           y="64.5"
           xlink:href="#equation_01_02"
           x="84.159203"
           width="744.09448"
           height="1052.3622" />
        <use
           id="use7479"
           y="64.5"
           xlink:href="#equation_01_01"
           x="87.872704"
           width="744.09448"
           height="1052.3622" />
      </g>
    </g>
    <path
       inkscape:connector-curvature="0"
       id="path7625"
       d="m 222.34045,137.68776 32.15385,10.26187"
       style="fill:none;stroke:#000000;stroke-width:1px;stroke-linecap:butt;stroke-linejoin:miter;stroke-opacity:1;marker-end:url(#Arrow1Mend)" />
    <path
       inkscape:connector-curvature="0"
       id="path7627"
       d="M 241.49594,187.62885 257.2308,167.10511"
       style="fill:none;stroke:#000000;stroke-width:1px;stroke-linecap:butt;stroke-linejoin:miter;stroke-opacity:1;marker-end:url(#Arrow1Mend)" />
    <g
       title="$z_i$"
       style="fill:#000000"
       id="equation_03"
       transform="matrix(2.7248179,0,0,2.9415887,-30.249844,25.139002)">
      <defs
         id="defs7674">
        <path
           id="equation_03_00"
           d="m 1.33,-0.83 c 0.54,-0.58 0.83,-0.83 1.19,-1.14 0,-0.01 0.62,-0.54 0.98,-0.9 0.95,-0.93 1.17,-1.41 1.17,-1.45 0,-0.1 -0.09,-0.1 -0.11,-0.1 -0.07,0 -0.1,0.02 -0.15,0.11 -0.3,0.48 -0.51,0.64 -0.75,0.64 -0.24,0 -0.36,-0.15 -0.51,-0.32 -0.19,-0.23 -0.36,-0.43 -0.69,-0.43 -0.75,0 -1.21,0.93 -1.21,1.14 0,0.05 0.03,0.11 0.12,0.11 0.09,0 0.11,-0.05 0.13,-0.11 0.19,-0.46 0.77,-0.47 0.85,-0.47 0.21,0 0.4,0.07 0.63,0.15 0.4,0.15 0.51,0.15 0.77,0.15 -0.36,0.43 -1.2,1.15 -1.39,1.31 l -0.9,0.84 c -0.68,0.67 -1.03,1.24 -1.03,1.31 0,0.1 0.1,0.1 0.12,0.1 0.08,0 0.1,-0.02 0.16,-0.13 0.23,-0.35 0.53,-0.62 0.85,-0.62 0.23,0 0.33,0.09 0.58,0.38 0.17,0.21 0.35,0.37 0.64,0.37 0.99,0 1.57,-1.27 1.57,-1.54 0,-0.05 -0.04,-0.1 -0.12,-0.1 -0.09,0 -0.11,0.06 -0.14,0.13 -0.23,0.65 -0.87,0.84 -1.2,0.84 -0.2,0 -0.38,-0.06 -0.59,-0.13 -0.34,-0.13 -0.49,-0.17 -0.7,-0.17 -0.02,0 -0.18,0 -0.27,0.03 z"
           inkscape:connector-curvature="0" />
        <path
           id="equation_03_01"
           d="m 2.268,-4.375 c 0,-0.112 -0.084,-0.266 -0.28,-0.266 -0.189,0 -0.392,0.182 -0.392,0.385 0,0.119 0.091,0.266 0.28,0.266 0.203,0 0.392,-0.196 0.392,-0.385 z M 0.84,-0.819 c -0.028,0.091 -0.063,0.175 -0.063,0.294 0,0.329 0.28,0.595 0.665,0.595 0.7,0 1.008,-0.966 1.008,-1.071 0,-0.091 -0.091,-0.091 -0.112,-0.091 -0.098,0 -0.105,0.042 -0.133,0.119 -0.161,0.56 -0.469,0.847 -0.742,0.847 -0.14,0 -0.175,-0.091 -0.175,-0.245 0,-0.161 0.049,-0.294 0.112,-0.448 0.07,-0.189 0.147,-0.378 0.224,-0.56 0.063,-0.168 0.315,-0.805 0.343,-0.889 0.021,-0.07 0.042,-0.154 0.042,-0.224 0,-0.329 -0.28,-0.595 -0.665,-0.595 -0.693,0 -1.015,0.952 -1.015,1.071 0,0.091 0.098,0.091 0.119,0.091 0.098,0 0.105,-0.035 0.126,-0.112 0.182,-0.602 0.49,-0.854 0.749,-0.854 0.112,0 0.175,0.056 0.175,0.245 0,0.161 -0.042,0.266 -0.217,0.7 L 0.84,-0.819 z"
           inkscape:connector-curvature="0" />
      </defs>
      <g
         id="equation_03_g">
        <use
           id="use7679"
           y="63"
           xlink:href="#equation_03_00"
           x="77"
           width="744.09448"
           height="1052.3622" />
        <use
           id="use7681"
           y="64.5"
           xlink:href="#equation_03_01"
           x="81.650497"
           width="744.09448"
           height="1052.3622" />
      </g>
    </g>
    <g
       id="equation_00"
       style="fill:#000000"
       title="$i$"
       transform="matrix(3.0435488,0,0,3.0435488,-80.465649,-1.6710473)">
      <defs
         id="defs7962">
        <path
           d="m 2.84,-6.25 c 0,-0.2 -0.14,-0.36 -0.37,-0.36 -0.27,0 -0.54,0.26 -0.54,0.53 0,0.19 0.14,0.36 0.38,0.36 0.23,0 0.53,-0.23 0.53,-0.53 z M 2.08,-2.49 C 2.2,-2.78 2.2,-2.8 2.3,-3.07 c 0.08,-0.2 0.13,-0.34 0.13,-0.53 0,-0.45 -0.32,-0.82 -0.82,-0.82 -0.94,0 -1.32,1.45 -1.32,1.54 0,0.1 0.1,0.1 0.12,0.1 0.1,0 0.11,-0.02 0.16,-0.18 0.27,-0.94 0.67,-1.24 1.01,-1.24 0.08,0 0.25,0 0.25,0.32 0,0.21 -0.07,0.42 -0.11,0.52 -0.08,0.26 -0.53,1.42 -0.69,1.85 -0.1,0.26 -0.23,0.59 -0.23,0.8 0,0.47 0.34,0.82 0.82,0.82 0.94,0 1.31,-1.45 1.31,-1.54 0,-0.1 -0.09,-0.1 -0.12,-0.1 -0.1,0 -0.1,0.03 -0.15,0.18 -0.18,0.63 -0.51,1.24 -1.02,1.24 -0.17,0 -0.24,-0.1 -0.24,-0.33 0,-0.25 0.06,-0.39 0.29,-1 l 0.39,-1.05 z"
           id="equation_00_00"
           inkscape:connector-curvature="0" />
      </defs>
      <g
         id="equation_00_g">
        <use
           x="77"
           xlink:href="#equation_00_00"
           y="63"
           id="use7966"
           width="744.09448"
           height="1052.3622" />
      </g>
    </g>
    <g
       title="$j$"
       style="fill:#000000"
       id="equation_02"
       transform="matrix(3.0435488,0,0,3.0435488,36.519636,-33.824898)">
      <defs
         id="defs8051">
        <path
           id="equation_02_00"
           d="m 3.97,-6.25 c 0,-0.19 -0.14,-0.36 -0.38,-0.36 -0.23,0 -0.53,0.23 -0.53,0.53 0,0.2 0.14,0.36 0.37,0.36 0.27,0 0.54,-0.26 0.54,-0.53 z M 1.96,0.5 C 1.77,1.26 1.29,1.83 0.73,1.83 0.67,1.83 0.52,1.83 0.34,1.74 0.64,1.67 0.79,1.41 0.79,1.21 0.79,1.05 0.68,0.86 0.41,0.86 c -0.25,0 -0.54,0.21 -0.54,0.57 0,0.4 0.4,0.62 0.88,0.62 0.7,0 1.63,-0.53 1.88,-1.52 L 3.55,-3.13 C 3.6,-3.33 3.6,-3.47 3.6,-3.5 c 0,-0.57 -0.42,-0.92 -0.92,-0.92 -1.02,0 -1.59,1.45 -1.59,1.54 0,0.1 0.1,0.1 0.12,0.1 0.09,0 0.1,-0.01 0.18,-0.2 0.25,-0.61 0.71,-1.22 1.26,-1.22 0.14,0 0.32,0.04 0.32,0.46 0,0.23 -0.03,0.34 -0.07,0.51 L 1.96,0.5 z"
           inkscape:connector-curvature="0" />
      </defs>
      <g
         id="equation_02_g">
        <use
           id="use8055"
           y="63"
           xlink:href="#equation_02_00"
           x="77"
           width="744.09448"
           height="1052.3622" />
      </g>
    </g>
  </g>
</svg>
