<?xml version="1.0" encoding="UTF-8" standalone="no"?>
<!-- Created with Inkscape (http://www.inkscape.org/) -->

<svg
   xmlns:dc="http://purl.org/dc/elements/1.1/"
   xmlns:cc="http://creativecommons.org/ns#"
   xmlns:rdf="http://www.w3.org/1999/02/22-rdf-syntax-ns#"
   xmlns:svg="http://www.w3.org/2000/svg"
   xmlns="http://www.w3.org/2000/svg"
   xmlns:xlink="http://www.w3.org/1999/xlink"
   xmlns:sodipodi="http://sodipodi.sourceforge.net/DTD/sodipodi-0.dtd"
   xmlns:inkscape="http://www.inkscape.org/namespaces/inkscape"
   width="210mm"
   height="297mm"
   id="svg2"
   version="1.1"
   inkscape:version="0.48.4 r9939"
   sodipodi:docname="neural-network7.svg"
   inkscape:export-filename="\\EULER\nineties\projects\prml-seminar\fig\neural-network7.png"
   inkscape:export-xdpi="95.32"
   inkscape:export-ydpi="95.32">
  <sodipodi:namedview
     id="base"
     pagecolor="#ffffff"
     bordercolor="#666666"
     borderopacity="1.0"
     inkscape:pageopacity="0.0"
     inkscape:pageshadow="2"
     inkscape:zoom="1.4617223"
     inkscape:cx="215.78092"
     inkscape:cy="758.02881"
     inkscape:document-units="px"
     inkscape:current-layer="layer1"
     showgrid="false"
     inkscape:window-width="1366"
     inkscape:window-height="746"
     inkscape:window-x="-8"
     inkscape:window-y="-8"
     inkscape:window-maximized="1" />
  <defs
     id="defs4">
    <marker
       style="overflow:visible;"
       id="Arrow1Mend"
       refX="0.0"
       refY="0.0"
       orient="auto"
       inkscape:stockid="Arrow1Mend">
      <path
         transform="scale(0.4) rotate(180) translate(10,0)"
         style="fill-rule:evenodd;stroke:#000000;stroke-width:1.0pt;"
         d="M 0.0,0.0 L 5.0,-5.0 L -12.5,0.0 L 5.0,5.0 L 0.0,0.0 z "
         id="path3788" />
    </marker>
    <marker
       style="overflow:visible;"
       id="Arrow1Lend"
       refX="0.0"
       refY="0.0"
       orient="auto"
       inkscape:stockid="Arrow1Lend">
      <path
         transform="scale(0.8) rotate(180) translate(12.5,0)"
         style="fill-rule:evenodd;stroke:#000000;stroke-width:1.0pt;"
         d="M 0.0,0.0 L 5.0,-5.0 L -12.5,0.0 L 5.0,5.0 L 0.0,0.0 z "
         id="path3782" />
    </marker>
  </defs>
  <metadata
     id="metadata7">
    <rdf:RDF>
      <cc:Work
         rdf:about="">
        <dc:format>image/svg+xml</dc:format>
        <dc:type
           rdf:resource="http://purl.org/dc/dcmitype/StillImage" />
        <dc:title></dc:title>
      </cc:Work>
    </rdf:RDF>
  </metadata>
  <g
     id="layer1"
     inkscape:groupmode="layer"
     inkscape:label="レイヤー 1">
    <path
       d="m 355.07179,403.17096 a 24.187452,24.187452 0 1 1 -48.3749,0 24.187452,24.187452 0 1 1 48.3749,0 z"
       sodipodi:ry="24.187452"
       sodipodi:rx="24.187452"
       sodipodi:cy="403.17096"
       sodipodi:cx="330.88434"
       id="path2985-1-1"
       style="fill:#0000ff;fill-opacity:0.19607843;stroke:#0000ff;stroke-width:1;stroke-linecap:round;stroke-linejoin:round;stroke-miterlimit:4;stroke-opacity:1;stroke-dasharray:none;stroke-dashoffset:0"
       sodipodi:type="arc"
       transform="translate(-13.792644,-139.24891)" />
    <path
       d="m 355.07179,403.17096 a 24.187452,24.187452 0 1 1 -48.3749,0 24.187452,24.187452 0 1 1 48.3749,0 z"
       sodipodi:ry="24.187452"
       sodipodi:rx="24.187452"
       sodipodi:cy="403.17096"
       sodipodi:cx="330.88434"
       id="path2985-1-1-7"
       style="fill:#0000ff;fill-opacity:0.19607843;stroke:#0000ff;stroke-width:1;stroke-linecap:round;stroke-linejoin:round;stroke-miterlimit:4;stroke-opacity:1;stroke-dasharray:none;stroke-dashoffset:0"
       sodipodi:type="arc"
       transform="translate(-13.792644,-75.296585)" />
    <path
       d="m 355.07179,403.17096 a 24.187452,24.187452 0 1 1 -48.3749,0 24.187452,24.187452 0 1 1 48.3749,0 z"
       sodipodi:ry="24.187452"
       sodipodi:rx="24.187452"
       sodipodi:cy="403.17096"
       sodipodi:cx="330.88434"
       id="path2985-1-1-7-4-0"
       style="fill:#0000ff;fill-opacity:0.19607843;stroke:#0000ff;stroke-width:1;stroke-linecap:round;stroke-linejoin:round;stroke-miterlimit:4;stroke-opacity:1;stroke-dasharray:none;stroke-dashoffset:0"
       sodipodi:type="arc"
       transform="translate(-13.792644,-11.344275)" />
    <path
       transform="translate(106.2712,-75.296585)"
       d="m 355.07179,403.17096 a 24.187452,24.187452 0 1 1 -48.3749,0 24.187452,24.187452 0 1 1 48.3749,0 z"
       sodipodi:ry="24.187452"
       sodipodi:rx="24.187452"
       sodipodi:cy="403.17096"
       sodipodi:cx="330.88434"
       id="path2985-4"
       style="fill:#008000;fill-opacity:0.19607843;stroke:#008000;stroke-width:1;stroke-linecap:round;stroke-linejoin:round;stroke-miterlimit:4;stroke-opacity:1;stroke-dasharray:none;stroke-dashoffset:0"
       sodipodi:type="arc" />
    <path
       sodipodi:nodetypes="cc"
       inkscape:connector-curvature="0"
       id="path3595-7-1"
       d="m 221.31427,329.58468 71.83307,-62.25533"
       style="fill:none;stroke:#000000;stroke-width:1px;stroke-linecap:butt;stroke-linejoin:miter;stroke-opacity:1" />
    <path
       sodipodi:nodetypes="cc"
       inkscape:connector-curvature="0"
       id="path3595-7-1-2"
       d="m 221.82737,327.70333 71.83307,62.25533"
       style="fill:none;stroke:#000000;stroke-width:1px;stroke-linecap:butt;stroke-linejoin:miter;stroke-opacity:1" />
    <path
       inkscape:connector-curvature="0"
       id="path3693"
       d="m 341.37811,266.30316 72.5172,62.93945"
       style="fill:none;stroke:#000000;stroke-width:1px;stroke-linecap:butt;stroke-linejoin:miter;stroke-opacity:1"
       sodipodi:nodetypes="cc" />
    <path
       inkscape:connector-curvature="0"
       id="path3695"
       d="m 340.69399,329.92674 71.83307,-0.68413"
       style="fill:none;stroke:#000000;stroke-width:1px;stroke-linecap:butt;stroke-linejoin:miter;stroke-opacity:1"
       sodipodi:nodetypes="cc" />
    <path
       inkscape:connector-curvature="0"
       id="path3697"
       d="m 341.37811,392.86619 71.83307,-64.3077"
       style="fill:none;stroke:#000000;stroke-width:1px;stroke-linecap:butt;stroke-linejoin:miter;stroke-opacity:1"
       sodipodi:nodetypes="cc" />
    <path
       inkscape:connector-curvature="0"
       id="path3701"
       d="m 461.0999,328.55849 34.20622,0"
       style="fill:none;stroke:#000000;stroke-width:1px;stroke-linecap:butt;stroke-linejoin:miter;stroke-opacity:1;marker-end:url(#Arrow1Mend)" />
    <g
       id="equation_00"
       style="fill:#000000"
       title="$y=a$"
       transform="matrix(1.90137,0,0,1.90137,266.23823,177.28265)">
      <defs
         id="defs9074">
        <path
           d="M 3.73,-3.78 C 3.55,-4.15 3.26,-4.42 2.81,-4.42 c -1.17,0 -2.41,1.47 -2.41,2.93 0,0.94 0.55,1.6 1.33,1.6 0.2,0 0.7,-0.04 1.3,-0.75 0.08,0.42 0.43,0.75 0.91,0.75 0.35,0 0.58,-0.23 0.74,-0.55 0.17,-0.36 0.3,-0.97 0.3,-0.99 0,-0.1 -0.09,-0.1 -0.12,-0.1 -0.1,0 -0.11,0.04 -0.14,0.18 -0.17,0.65 -0.35,1.24 -0.76,1.24 -0.27,0 -0.3,-0.26 -0.3,-0.46 0,-0.22 0.02,-0.3 0.13,-0.74 0.11,-0.42 0.13,-0.52 0.22,-0.9 l 0.36,-1.4 c 0.07,-0.28 0.07,-0.3 0.07,-0.34 0,-0.17 -0.12,-0.27 -0.29,-0.27 -0.24,0 -0.39,0.22 -0.42,0.44 z m -0.65,2.59 c -0.05,0.18 -0.05,0.2 -0.2,0.37 -0.44,0.55 -0.85,0.71 -1.13,0.71 -0.5,0 -0.64,-0.55 -0.64,-0.94 0,-0.5 0.32,-1.73 0.55,-2.19 0.31,-0.59 0.76,-0.96 1.16,-0.96 0.65,0 0.79,0.82 0.79,0.88 0,0.06 -0.02,0.12 -0.03,0.17 l -0.5,1.96 z"
           id="equation_00_00"
           inkscape:connector-curvature="0" />
        <path
           d="M 4.86,-3.81 C 4.9,-3.95 4.9,-3.97 4.9,-4.04 c 0,-0.18 -0.14,-0.27 -0.29,-0.27 -0.1,0 -0.26,0.06 -0.35,0.21 -0.02,0.05 -0.1,0.36 -0.14,0.54 -0.07,0.26 -0.14,0.53 -0.2,0.8 l -0.45,1.8 C 3.43,-0.81 3,-0.11 2.34,-0.11 c -0.51,0 -0.62,-0.44 -0.62,-0.81 0,-0.46 0.17,-1.08 0.51,-1.96 0.16,-0.41 0.2,-0.52 0.2,-0.72 0,-0.45 -0.32,-0.82 -0.82,-0.82 -0.95,0 -1.32,1.45 -1.32,1.54 0,0.1 0.1,0.1 0.12,0.1 0.1,0 0.11,-0.02 0.16,-0.18 0.27,-0.94 0.67,-1.24 1.01,-1.24 0.08,0 0.25,0 0.25,0.32 0,0.25 -0.1,0.51 -0.17,0.7 -0.4,1.06 -0.58,1.63 -0.58,2.1 0,0.89 0.63,1.19 1.22,1.19 0.39,0 0.73,-0.17 1.01,-0.45 C 3.18,0.18 3.06,0.67 2.66,1.2 2.4,1.54 2.02,1.83 1.56,1.83 1.42,1.83 0.97,1.8 0.8,1.41 c 0.16,0 0.29,0 0.43,-0.12 C 1.33,1.2 1.43,1.07 1.43,0.88 1.43,0.57 1.16,0.53 1.06,0.53 0.83,0.53 0.5,0.69 0.5,1.18 c 0,0.5 0.44,0.87 1.06,0.87 1.03,0 2.06,-0.91 2.34,-2.04 l 0.96,-3.82 z"
           id="equation_00_01"
           inkscape:connector-curvature="0" />
        <path
           d="m 6.87,-3.27 c 0.15,0 0.34,0 0.34,-0.2 0,-0.2 -0.19,-0.2 -0.33,-0.2 H 0.89 c -0.14,0 -0.33,0 -0.33,0.2 0,0.2 0.19,0.2 0.34,0.2 h 5.97 z m 0.01,1.94 c 0.14,0 0.33,0 0.33,-0.2 0,-0.2 -0.19,-0.2 -0.34,-0.2 H 0.9 c -0.15,0 -0.34,0 -0.34,0.2 0,0.2 0.19,0.2 0.33,0.2 h 5.99 z"
           id="equation_00_02"
           inkscape:connector-curvature="0" />
      </defs>
      <g
         id="equation_00_g">
        <use
           x="77"
           xlink:href="#equation_00_01"
           y="63"
           id="use9080"
           width="744.09448"
           height="1052.3622" />
        <use
           x="85.039299"
           xlink:href="#equation_00_02"
           y="63"
           id="use9082"
           width="744.09448"
           height="1052.3622" />
        <use
           x="95.594803"
           xlink:href="#equation_00_00"
           y="63"
           id="use9084"
           width="744.09448"
           height="1052.3622" />
      </g>
    </g>
    <g
       title="$z=\tanh a$"
       style="fill:#000000"
       id="equation_05"
       transform="matrix(1.90137,0,0,1.90137,127.36096,312.7393)">
      <defs
         id="defs9269">
        <path
           id="equation_05_00"
           d="M 3.73,-3.78 C 3.55,-4.15 3.26,-4.42 2.81,-4.42 c -1.17,0 -2.41,1.47 -2.41,2.93 0,0.94 0.55,1.6 1.33,1.6 0.2,0 0.7,-0.04 1.3,-0.75 0.08,0.42 0.43,0.75 0.91,0.75 0.35,0 0.58,-0.23 0.74,-0.55 0.17,-0.36 0.3,-0.97 0.3,-0.99 0,-0.1 -0.09,-0.1 -0.12,-0.1 -0.1,0 -0.11,0.04 -0.14,0.18 -0.17,0.65 -0.35,1.24 -0.76,1.24 -0.27,0 -0.3,-0.26 -0.3,-0.46 0,-0.22 0.02,-0.3 0.13,-0.74 0.11,-0.42 0.13,-0.52 0.22,-0.9 l 0.36,-1.4 c 0.07,-0.28 0.07,-0.3 0.07,-0.34 0,-0.17 -0.12,-0.27 -0.29,-0.27 -0.24,0 -0.39,0.22 -0.42,0.44 z m -0.65,2.59 c -0.05,0.18 -0.05,0.2 -0.2,0.37 -0.44,0.55 -0.85,0.71 -1.13,0.71 -0.5,0 -0.64,-0.55 -0.64,-0.94 0,-0.5 0.32,-1.73 0.55,-2.19 0.31,-0.59 0.76,-0.96 1.16,-0.96 0.65,0 0.79,0.82 0.79,0.88 0,0.06 -0.02,0.12 -0.03,0.17 l -0.5,1.96 z"
           inkscape:connector-curvature="0" />
        <path
           id="equation_05_01"
           d="m 1.33,-0.83 c 0.54,-0.58 0.83,-0.83 1.19,-1.14 0,-0.01 0.62,-0.54 0.98,-0.9 0.95,-0.93 1.17,-1.41 1.17,-1.45 0,-0.1 -0.09,-0.1 -0.11,-0.1 -0.07,0 -0.1,0.02 -0.15,0.11 -0.3,0.48 -0.51,0.64 -0.75,0.64 -0.24,0 -0.36,-0.15 -0.51,-0.32 -0.19,-0.23 -0.36,-0.43 -0.69,-0.43 -0.75,0 -1.21,0.93 -1.21,1.14 0,0.05 0.03,0.11 0.12,0.11 0.09,0 0.11,-0.05 0.13,-0.11 0.19,-0.46 0.77,-0.47 0.85,-0.47 0.21,0 0.4,0.07 0.63,0.15 0.4,0.15 0.51,0.15 0.77,0.15 -0.36,0.43 -1.2,1.15 -1.39,1.31 l -0.9,0.84 c -0.68,0.67 -1.03,1.24 -1.03,1.31 0,0.1 0.1,0.1 0.12,0.1 0.08,0 0.1,-0.02 0.16,-0.13 0.23,-0.35 0.53,-0.62 0.85,-0.62 0.23,0 0.33,0.09 0.58,0.38 0.17,0.21 0.35,0.37 0.64,0.37 0.99,0 1.57,-1.27 1.57,-1.54 0,-0.05 -0.04,-0.1 -0.12,-0.1 -0.09,0 -0.11,0.06 -0.14,0.13 -0.23,0.65 -0.87,0.84 -1.2,0.84 -0.2,0 -0.38,-0.06 -0.59,-0.13 -0.34,-0.13 -0.49,-0.17 -0.7,-0.17 -0.02,0 -0.18,0 -0.27,0.03 z"
           inkscape:connector-curvature="0" />
        <path
           id="equation_05_02"
           d="m 6.87,-3.27 c 0.15,0 0.34,0 0.34,-0.2 0,-0.2 -0.19,-0.2 -0.33,-0.2 H 0.89 c -0.14,0 -0.33,0 -0.33,0.2 0,0.2 0.19,0.2 0.34,0.2 h 5.97 z m 0.01,1.94 c 0.14,0 0.33,0 0.33,-0.2 0,-0.2 -0.19,-0.2 -0.34,-0.2 H 0.9 c -0.15,0 -0.34,0 -0.34,0.2 0,0.2 0.19,0.2 0.33,0.2 h 5.99 z"
           inkscape:connector-curvature="0" />
        <path
           id="equation_05_03"
           d="m 3.33,-0.76 c 0.04,0.4 0.31,0.82 0.78,0.82 0.21,0 0.82,-0.14 0.82,-0.95 V -1.45 H 4.68 v 0.56 c 0,0.58 -0.25,0.64 -0.36,0.64 -0.33,0 -0.37,-0.45 -0.37,-0.5 v -2 c 0,-0.42 0,-0.81 -0.36,-1.18 C 3.2,-4.32 2.7,-4.48 2.22,-4.48 c -0.82,0 -1.51,0.47 -1.51,1.13 0,0.3 0.2,0.47 0.46,0.47 0.28,0 0.46,-0.2 0.46,-0.46 0,-0.12 -0.05,-0.45 -0.51,-0.46 0.27,-0.35 0.76,-0.46 1.08,-0.46 0.49,0 1.06,0.39 1.06,1.28 v 0.37 c -0.51,0.03 -1.21,0.06 -1.84,0.36 -0.75,0.34 -1,0.86 -1,1.3 0,0.81 0.97,1.06 1.6,1.06 0.66,0 1.12,-0.4 1.31,-0.87 z M 3.26,-2.4 v 1 c 0,0.95 -0.72,1.29 -1.17,1.29 -0.49,0 -0.9,-0.35 -0.9,-0.85 0,-0.55 0.42,-1.38 2.07,-1.44 z"
           inkscape:connector-curvature="0" />
        <path
           id="equation_05_04"
           d="m 1.1,-0.76 c 0,0.45 -0.11,0.45 -0.78,0.45 V 0 c 0.35,-0.01 0.86,-0.03 1.13,-0.03 0.26,0 0.78,0.02 1.12,0.03 v -0.31 c -0.67,0 -0.78,0 -0.78,-0.45 V -2.6 c 0,-1.04 0.71,-1.6 1.35,-1.6 0.63,0 0.74,0.54 0.74,1.11 v 2.33 c 0,0.45 -0.11,0.45 -0.78,0.45 V 0 c 0.35,-0.01 0.86,-0.03 1.13,-0.03 0.26,0 0.78,0.02 1.12,0.03 v -0.31 c -0.52,0 -0.77,0 -0.78,-0.3 v -1.91 c 0,-0.86 0,-1.17 -0.31,-1.53 -0.14,-0.17 -0.47,-0.37 -1.05,-0.37 -0.84,0 -1.28,0.6 -1.45,0.98 v -3.5 l -1.44,0.11 v 0.31 c 0.7,0 0.78,0.07 0.78,0.56 v 5.2 z"
           inkscape:connector-curvature="0" />
        <path
           id="equation_05_05"
           d="m 1.1,-3.44 v 2.68 c 0,0.45 -0.11,0.45 -0.78,0.45 V 0 c 0.35,-0.01 0.86,-0.03 1.13,-0.03 0.26,0 0.78,0.02 1.12,0.03 v -0.31 c -0.67,0 -0.78,0 -0.78,-0.45 V -2.6 c 0,-1.04 0.71,-1.6 1.35,-1.6 0.63,0 0.74,0.54 0.74,1.11 v 2.33 c 0,0.45 -0.11,0.45 -0.78,0.45 V 0 c 0.35,-0.01 0.86,-0.03 1.13,-0.03 0.26,0 0.78,0.02 1.12,0.03 v -0.31 c -0.52,0 -0.77,0 -0.78,-0.3 v -1.91 c 0,-0.86 0,-1.17 -0.31,-1.53 -0.14,-0.17 -0.47,-0.37 -1.05,-0.37 -0.73,0 -1.2,0.43 -1.48,1.05 V -4.42 L 0.32,-4.31 V -4 c 0.7,0 0.78,0.07 0.78,0.56 z"
           inkscape:connector-curvature="0" />
        <path
           id="equation_05_06"
           d="M 1.73,-4 H 3.16 V -4.31 H 1.73 V -6.15 H 1.48 C 1.47,-5.33 1.17,-4.26 0.19,-4.22 V -4 h 0.85 v 2.76 c 0,1.23 0.93,1.35 1.29,1.35 0.71,0 0.99,-0.71 0.99,-1.35 V -1.81 H 3.07 v 0.55 c 0,0.74 -0.3,1.12 -0.67,1.12 -0.67,0 -0.67,-0.91 -0.67,-1.08 V -4 z"
           inkscape:connector-curvature="0" />
      </defs>
      <g
         id="equation_05_g">
        <use
           id="use9279"
           y="63"
           xlink:href="#equation_05_01"
           x="77"
           width="744.09448"
           height="1052.3622" />
        <use
           id="use9281"
           y="63"
           xlink:href="#equation_05_02"
           x="84.867996"
           width="744.09448"
           height="1052.3622" />
        <use
           id="use9283"
           y="63"
           xlink:href="#equation_05_06"
           x="95.4235"
           width="744.09448"
           height="1052.3622" />
        <use
           id="use9285"
           y="63"
           xlink:href="#equation_05_03"
           x="99.312401"
           width="744.09448"
           height="1052.3622" />
        <use
           id="use9287"
           y="63"
           xlink:href="#equation_05_05"
           x="104.312"
           width="744.09448"
           height="1052.3622" />
        <use
           id="use9289"
           y="63"
           xlink:href="#equation_05_04"
           x="109.868"
           width="744.09448"
           height="1052.3622" />
        <use
           id="use9291"
           y="63"
           xlink:href="#equation_05_00"
           x="117.09"
           width="744.09448"
           height="1052.3622" />
      </g>
    </g>
    <path
       style="fill:none;stroke:#000000;stroke-width:1px;stroke-linecap:butt;stroke-linejoin:miter;stroke-opacity:1"
       d="m 222.34045,329.24261 69.09658,0"
       id="path9452"
       inkscape:connector-curvature="0" />
    <path
       style="fill:none;stroke:#000000;stroke-width:1px;stroke-linecap:butt;stroke-linejoin:miter;stroke-opacity:1"
       d="m 292.12115,389.44557 -72.51719,-128.6154 c 10.94599,6.15712 72.51719,68.41244 72.51719,68.41244"
       id="path9454"
       inkscape:connector-curvature="0" />
    <path
       style="fill:none;stroke:#000000;stroke-width:1px;stroke-linecap:butt;stroke-linejoin:miter;stroke-opacity:1"
       d="m 218.91983,260.83017 72.5172,0.68412"
       id="path9456"
       inkscape:connector-curvature="0" />
    <path
       style="fill:none;stroke:#000000;stroke-width:1px;stroke-linecap:butt;stroke-linejoin:miter;stroke-opacity:1"
       d="m 333.85274,188.9971 78.67432,138.19314"
       id="path9458"
       inkscape:connector-curvature="0" />
    <g
       id="equation_01"
       style="fill:#000000"
       title="$x$"
       transform="matrix(2.6132111,0,0,2.6132111,-0.17442818,172.35206)">
      <defs
         id="defs9510">
        <path
           d="M 3.34,-3.02 C 3.4,-3.28 3.63,-4.2 4.33,-4.2 c 0.05,0 0.29,0 0.5,0.13 -0.28,0.05 -0.48,0.3 -0.48,0.54 0,0.16 0.11,0.35 0.38,0.35 0.22,0 0.54,-0.18 0.54,-0.58 0,-0.52 -0.59,-0.66 -0.93,-0.66 -0.58,0 -0.93,0.53 -1.05,0.76 -0.25,-0.66 -0.79,-0.76 -1.08,-0.76 -1.04,0 -1.61,1.29 -1.61,1.54 0,0.1 0.1,0.1 0.12,0.1 0.08,0 0.11,-0.02 0.13,-0.11 0.34,-1.06 1,-1.31 1.34,-1.31 0.19,0 0.54,0.09 0.54,0.67 0,0.31 -0.17,0.98 -0.54,2.38 -0.16,0.62 -0.51,1.04 -0.95,1.04 -0.06,0 -0.29,0 -0.5,-0.13 0.25,-0.05 0.47,-0.26 0.47,-0.54 0,-0.27 -0.22,-0.35 -0.37,-0.35 -0.3,0 -0.55,0.26 -0.55,0.58 0,0.46 0.5,0.66 0.94,0.66 0.66,0 1.02,-0.7 1.05,-0.76 0.12,0.37 0.48,0.76 1.08,0.76 1.03,0 1.6,-1.29 1.6,-1.54 0,-0.1 -0.09,-0.1 -0.12,-0.1 -0.09,0 -0.11,0.04 -0.13,0.11 -0.33,1.07 -1.01,1.31 -1.33,1.31 -0.39,0 -0.55,-0.32 -0.55,-0.66 0,-0.22 0.06,-0.44 0.17,-0.88 l 0.34,-1.37 z"
           id="equation_01_00"
           inkscape:connector-curvature="0" />
      </defs>
      <g
         id="equation_01_g">
        <use
           x="77"
           xlink:href="#equation_01_00"
           y="63"
           id="use9514"
           width="744.09448"
           height="1052.3622" />
      </g>
    </g>
    <g
       title="$1$"
       style="fill:#000000"
       id="equation_02"
       transform="matrix(2.6132111,0,0,2.6132111,1.6243014,104.77128)">
      <defs
         id="defs9623">
        <path
           id="equation_02_00"
           d="m 2.94,-6.4 c 0,-0.24 0,-0.26 -0.23,-0.26 -0.62,0.64 -1.5,0.64 -1.82,0.64 v 0.31 c 0.2,0 0.79,0 1.31,-0.26 v 5.18 c 0,0.36 -0.03,0.48 -0.93,0.48 H 0.95 V 0 c 0.35,-0.03 1.22,-0.03 1.62,-0.03 0.4,0 1.27,0 1.62,0.03 V -0.31 H 3.87 c -0.9,0 -0.93,-0.11 -0.93,-0.48 V -6.4 z"
           inkscape:connector-curvature="0" />
      </defs>
      <g
         id="equation_02_g">
        <use
           id="use9627"
           y="63"
           xlink:href="#equation_02_00"
           x="77"
           width="744.09448"
           height="1052.3622" />
      </g>
    </g>
    <g
       title="$1$"
       style="fill:#000000"
       id="equation_02-4"
       transform="matrix(2.6132111,0,0,2.6132111,116.42019,33.06679)">
      <defs
         id="defs9623-2">
        <path
           id="equation_02_00-3"
           d="m 2.94,-6.4 c 0,-0.24 0,-0.26 -0.23,-0.26 -0.62,0.64 -1.5,0.64 -1.82,0.64 v 0.31 c 0.2,0 0.79,0 1.31,-0.26 v 5.18 c 0,0.36 -0.03,0.48 -0.93,0.48 H 0.95 V 0 c 0.35,-0.03 1.22,-0.03 1.62,-0.03 0.4,0 1.27,0 1.62,0.03 V -0.31 H 3.87 c -0.9,0 -0.93,-0.11 -0.93,-0.48 V -6.4 z"
           inkscape:connector-curvature="0" />
      </defs>
      <g
         id="equation_02_g-2">
        <use
           id="use9627-2"
           y="63"
           xlink:href="#equation_02_00-3"
           x="77"
           width="744.09448"
           height="1052.3622" />
      </g>
    </g>
  </g>
</svg>
