<?xml version="1.0" encoding="UTF-8" standalone="no"?>
<!-- Created with Inkscape (http://www.inkscape.org/) -->

<svg
   xmlns:dc="http://purl.org/dc/elements/1.1/"
   xmlns:cc="http://creativecommons.org/ns#"
   xmlns:rdf="http://www.w3.org/1999/02/22-rdf-syntax-ns#"
   xmlns:svg="http://www.w3.org/2000/svg"
   xmlns="http://www.w3.org/2000/svg"
   xmlns:xlink="http://www.w3.org/1999/xlink"
   xmlns:sodipodi="http://sodipodi.sourceforge.net/DTD/sodipodi-0.dtd"
   xmlns:inkscape="http://www.inkscape.org/namespaces/inkscape"
   width="210mm"
   height="297mm"
   id="svg2"
   version="1.1"
   inkscape:version="0.48.4 r9939"
   sodipodi:docname="neural-network8.svg"
   inkscape:export-filename="\\EULER\nineties\projects\prml-seminar\fig\neural-network8.png"
   inkscape:export-xdpi="95.32"
   inkscape:export-ydpi="95.32">
  <sodipodi:namedview
     id="base"
     pagecolor="#ffffff"
     bordercolor="#666666"
     borderopacity="1.0"
     inkscape:pageopacity="0.0"
     inkscape:pageshadow="2"
     inkscape:zoom="1.4617223"
     inkscape:cx="361.83611"
     inkscape:cy="715.32002"
     inkscape:document-units="px"
     inkscape:current-layer="layer1"
     showgrid="false"
     inkscape:window-width="1366"
     inkscape:window-height="746"
     inkscape:window-x="-8"
     inkscape:window-y="-8"
     inkscape:window-maximized="1" />
  <defs
     id="defs4">
    <marker
       style="overflow:visible;"
       id="Arrow1Mend"
       refX="0.0"
       refY="0.0"
       orient="auto"
       inkscape:stockid="Arrow1Mend">
      <path
         transform="scale(0.4) rotate(180) translate(10,0)"
         style="fill-rule:evenodd;stroke:#000000;stroke-width:1.0pt;"
         d="M 0.0,0.0 L 5.0,-5.0 L -12.5,0.0 L 5.0,5.0 L 0.0,0.0 z "
         id="path3788" />
    </marker>
    <marker
       style="overflow:visible;"
       id="Arrow1Lend"
       refX="0.0"
       refY="0.0"
       orient="auto"
       inkscape:stockid="Arrow1Lend">
      <path
         transform="scale(0.8) rotate(180) translate(12.5,0)"
         style="fill-rule:evenodd;stroke:#000000;stroke-width:1.0pt;"
         d="M 0.0,0.0 L 5.0,-5.0 L -12.5,0.0 L 5.0,5.0 L 0.0,0.0 z "
         id="path3782" />
    </marker>
  </defs>
  <metadata
     id="metadata7">
    <rdf:RDF>
      <cc:Work
         rdf:about="">
        <dc:format>image/svg+xml</dc:format>
        <dc:type
           rdf:resource="http://purl.org/dc/dcmitype/StillImage" />
        <dc:title></dc:title>
      </cc:Work>
    </rdf:RDF>
  </metadata>
  <g
     id="layer1"
     inkscape:groupmode="layer"
     inkscape:label="レイヤー 1">
    <path
       d="m 355.07179,403.17096 a 24.187452,24.187452 0 1 1 -48.3749,0 24.187452,24.187452 0 1 1 48.3749,0 z"
       sodipodi:ry="24.187452"
       sodipodi:rx="24.187452"
       sodipodi:cy="403.17096"
       sodipodi:cx="330.88434"
       id="path2985-1-1"
       style="fill:#0000ff;fill-opacity:0.19607843;stroke:#0000ff;stroke-width:1;stroke-linecap:round;stroke-linejoin:round;stroke-miterlimit:4;stroke-opacity:1;stroke-dasharray:none;stroke-dashoffset:0"
       sodipodi:type="arc"
       transform="translate(-13.792644,-139.24891)" />
    <path
       d="m 355.07179,403.17096 a 24.187452,24.187452 0 1 1 -48.3749,0 24.187452,24.187452 0 1 1 48.3749,0 z"
       sodipodi:ry="24.187452"
       sodipodi:rx="24.187452"
       sodipodi:cy="403.17096"
       sodipodi:cx="330.88434"
       id="path2985-1-1-7"
       style="fill:#0000ff;fill-opacity:0.19607843;stroke:#0000ff;stroke-width:1;stroke-linecap:round;stroke-linejoin:round;stroke-miterlimit:4;stroke-opacity:1;stroke-dasharray:none;stroke-dashoffset:0"
       sodipodi:type="arc"
       transform="translate(-13.792644,-75.296585)" />
    <path
       d="m 355.07179,403.17096 a 24.187452,24.187452 0 1 1 -48.3749,0 24.187452,24.187452 0 1 1 48.3749,0 z"
       sodipodi:ry="24.187452"
       sodipodi:rx="24.187452"
       sodipodi:cy="403.17096"
       sodipodi:cx="330.88434"
       id="path2985-1-1-7-4-0"
       style="fill:#0000ff;fill-opacity:0.19607843;stroke:#0000ff;stroke-width:1;stroke-linecap:round;stroke-linejoin:round;stroke-miterlimit:4;stroke-opacity:1;stroke-dasharray:none;stroke-dashoffset:0"
       sodipodi:type="arc"
       transform="translate(-13.792644,-11.344275)" />
    <path
       transform="translate(106.2712,-104.3209)"
       d="m 355.07179,403.17096 a 24.187452,24.187452 0 1 1 -48.3749,0 24.187452,24.187452 0 1 1 48.3749,0 z"
       sodipodi:ry="24.187452"
       sodipodi:rx="24.187452"
       sodipodi:cy="403.17096"
       sodipodi:cx="330.88434"
       id="path2985-4"
       style="fill:#008000;fill-opacity:0.19607843;stroke:#008000;stroke-width:1;stroke-linecap:round;stroke-linejoin:round;stroke-miterlimit:4;stroke-opacity:1;stroke-dasharray:none;stroke-dashoffset:0"
       sodipodi:type="arc" />
    <path
       sodipodi:nodetypes="cc"
       inkscape:connector-curvature="0"
       id="path3595-7-1"
       d="m 221.31427,329.58468 71.83307,-62.25533"
       style="fill:none;stroke:#000000;stroke-width:1px;stroke-linecap:butt;stroke-linejoin:miter;stroke-opacity:1;marker-end:url(#Arrow1Mend)" />
    <path
       sodipodi:nodetypes="cc"
       inkscape:connector-curvature="0"
       id="path3595-7-1-2"
       d="m 221.82737,327.70333 71.83307,62.25533"
       style="fill:none;stroke:#000000;stroke-width:1px;stroke-linecap:butt;stroke-linejoin:miter;stroke-opacity:1;marker-end:url(#Arrow1Mend)" />
    <path
       inkscape:connector-curvature="0"
       id="path3701"
       d="m 461.78402,299.14114 34.20622,0"
       style="fill:none;stroke:#000000;stroke-width:1px;stroke-linecap:butt;stroke-linejoin:miter;stroke-opacity:1;marker-end:url(#Arrow1Mend)" />
    <g
       id="equation_02"
       style="fill:#000000"
       title="$x_i$"
       transform="matrix(2.6758629,0,0,2.6758629,-11.858034,163.1635)">
      <defs
         id="defs5076">
        <path
           d="M 3.34,-3.02 C 3.4,-3.28 3.63,-4.2 4.33,-4.2 c 0.05,0 0.29,0 0.5,0.13 -0.28,0.05 -0.48,0.3 -0.48,0.54 0,0.16 0.11,0.35 0.38,0.35 0.22,0 0.54,-0.18 0.54,-0.58 0,-0.52 -0.59,-0.66 -0.93,-0.66 -0.58,0 -0.93,0.53 -1.05,0.76 -0.25,-0.66 -0.79,-0.76 -1.08,-0.76 -1.04,0 -1.61,1.29 -1.61,1.54 0,0.1 0.1,0.1 0.12,0.1 0.08,0 0.11,-0.02 0.13,-0.11 0.34,-1.06 1,-1.31 1.34,-1.31 0.19,0 0.54,0.09 0.54,0.67 0,0.31 -0.17,0.98 -0.54,2.38 -0.16,0.62 -0.51,1.04 -0.95,1.04 -0.06,0 -0.29,0 -0.5,-0.13 0.25,-0.05 0.47,-0.26 0.47,-0.54 0,-0.27 -0.22,-0.35 -0.37,-0.35 -0.3,0 -0.55,0.26 -0.55,0.58 0,0.46 0.5,0.66 0.94,0.66 0.66,0 1.02,-0.7 1.05,-0.76 0.12,0.37 0.48,0.76 1.08,0.76 1.03,0 1.6,-1.29 1.6,-1.54 0,-0.1 -0.09,-0.1 -0.12,-0.1 -0.09,0 -0.11,0.04 -0.13,0.11 -0.33,1.07 -1.01,1.31 -1.33,1.31 -0.39,0 -0.55,-0.32 -0.55,-0.66 0,-0.22 0.06,-0.44 0.17,-0.88 l 0.34,-1.37 z"
           id="equation_02_00"
           inkscape:connector-curvature="0" />
        <path
           d="m 2.268,-4.375 c 0,-0.112 -0.084,-0.266 -0.28,-0.266 -0.189,0 -0.392,0.182 -0.392,0.385 0,0.119 0.091,0.266 0.28,0.266 0.203,0 0.392,-0.196 0.392,-0.385 z M 0.84,-0.819 c -0.028,0.091 -0.063,0.175 -0.063,0.294 0,0.329 0.28,0.595 0.665,0.595 0.7,0 1.008,-0.966 1.008,-1.071 0,-0.091 -0.091,-0.091 -0.112,-0.091 -0.098,0 -0.105,0.042 -0.133,0.119 -0.161,0.56 -0.469,0.847 -0.742,0.847 -0.14,0 -0.175,-0.091 -0.175,-0.245 0,-0.161 0.049,-0.294 0.112,-0.448 0.07,-0.189 0.147,-0.378 0.224,-0.56 0.063,-0.168 0.315,-0.805 0.343,-0.889 0.021,-0.07 0.042,-0.154 0.042,-0.224 0,-0.329 -0.28,-0.595 -0.665,-0.595 -0.693,0 -1.015,0.952 -1.015,1.071 0,0.091 0.098,0.091 0.119,0.091 0.098,0 0.105,-0.035 0.126,-0.112 0.182,-0.602 0.49,-0.854 0.749,-0.854 0.112,0 0.175,0.056 0.175,0.245 0,0.161 -0.042,0.266 -0.217,0.7 L 0.84,-0.819 z"
           id="equation_02_01"
           inkscape:connector-curvature="0" />
      </defs>
      <g
         id="equation_02_g">
        <use
           x="77"
           xlink:href="#equation_02_00"
           y="63"
           id="use5081"
           width="744.09448"
           height="1052.3622" />
        <use
           x="82.715302"
           xlink:href="#equation_02_01"
           y="64.5"
           id="use5083"
           width="744.09448"
           height="1052.3622" />
      </g>
    </g>
    <g
       id="equation_04"
       style="fill:#000000"
       title="$y_k$"
       transform="matrix(2.6758629,0,0,2.6758629,270.68537,122.11603)">
      <defs
         id="defs5262">
        <path
           d="M 4.86,-3.81 C 4.9,-3.95 4.9,-3.97 4.9,-4.04 c 0,-0.18 -0.14,-0.27 -0.29,-0.27 -0.1,0 -0.26,0.06 -0.35,0.21 -0.02,0.05 -0.1,0.36 -0.14,0.54 -0.07,0.26 -0.14,0.53 -0.2,0.8 l -0.45,1.8 C 3.43,-0.81 3,-0.11 2.34,-0.11 c -0.51,0 -0.62,-0.44 -0.62,-0.81 0,-0.46 0.17,-1.08 0.51,-1.96 0.16,-0.41 0.2,-0.52 0.2,-0.72 0,-0.45 -0.32,-0.82 -0.82,-0.82 -0.95,0 -1.32,1.45 -1.32,1.54 0,0.1 0.1,0.1 0.12,0.1 0.1,0 0.11,-0.02 0.16,-0.18 0.27,-0.94 0.67,-1.24 1.01,-1.24 0.08,0 0.25,0 0.25,0.32 0,0.25 -0.1,0.51 -0.17,0.7 -0.4,1.06 -0.58,1.63 -0.58,2.1 0,0.89 0.63,1.19 1.22,1.19 0.39,0 0.73,-0.17 1.01,-0.45 C 3.18,0.18 3.06,0.67 2.66,1.2 2.4,1.54 2.02,1.83 1.56,1.83 1.42,1.83 0.97,1.8 0.8,1.41 c 0.16,0 0.29,0 0.43,-0.12 C 1.33,1.2 1.43,1.07 1.43,0.88 1.43,0.57 1.16,0.53 1.06,0.53 0.83,0.53 0.5,0.69 0.5,1.18 c 0,0.5 0.44,0.87 1.06,0.87 1.03,0 2.06,-0.91 2.34,-2.04 l 0.96,-3.82 z"
           id="equation_04_00"
           inkscape:connector-curvature="0" />
        <path
           d="m 2.191,-4.648 c 0.007,-0.014 0.028,-0.105 0.028,-0.112 0,-0.035 -0.028,-0.098 -0.112,-0.098 -0.14,0 -0.721,0.056 -0.896,0.07 -0.056,0.007 -0.154,0.014 -0.154,0.161 0,0.098 0.098,0.098 0.182,0.098 0.336,0 0.336,0.049 0.336,0.105 0,0.049 -0.014,0.091 -0.028,0.154 L 0.56,-0.308 c -0.035,0.126 -0.035,0.14 -0.035,0.154 0,0.105 0.084,0.224 0.238,0.224 0.189,0 0.28,-0.14 0.322,-0.294 0.014,-0.028 0.315,-1.26 0.343,-1.358 0.497,0.049 0.896,0.21 0.896,0.574 0,0.035 0,0.07 -0.014,0.14 -0.028,0.105 -0.028,0.14 -0.028,0.217 0,0.497 0.406,0.721 0.742,0.721 0.679,0 0.889,-1.064 0.889,-1.071 0,-0.091 -0.091,-0.091 -0.112,-0.091 -0.098,0 -0.105,0.035 -0.14,0.168 -0.084,0.301 -0.273,0.798 -0.616,0.798 -0.189,0 -0.245,-0.175 -0.245,-0.364 0,-0.119 0,-0.133 0.042,-0.315 0.007,-0.021 0.035,-0.14 0.035,-0.217 0,-0.623 -0.84,-0.721 -1.134,-0.742 0.203,-0.126 0.462,-0.357 0.581,-0.462 0.357,-0.336 0.707,-0.665 1.099,-0.665 0.084,0 0.175,0.021 0.231,0.091 -0.301,0.049 -0.364,0.287 -0.364,0.392 0,0.154 0.119,0.259 0.28,0.259 0.189,0 0.399,-0.154 0.399,-0.448 0,-0.231 -0.168,-0.49 -0.539,-0.49 -0.399,0 -0.763,0.287 -1.12,0.616 -0.294,0.28 -0.525,0.497 -0.812,0.616 l 0.693,-2.793 z"
           id="equation_04_01"
           inkscape:connector-curvature="0" />
      </defs>
      <g
         id="equation_04_g">
        <use
           x="77"
           xlink:href="#equation_04_00"
           y="63"
           id="use5267"
           width="744.09448"
           height="1052.3622" />
        <use
           x="81.902802"
           xlink:href="#equation_04_01"
           y="64.5"
           id="use5269"
           width="744.09448"
           height="1052.3622" />
      </g>
    </g>
    <g
       title="$a_j$"
       style="fill:#000000"
       id="equation_05"
       transform="matrix(2.6758629,0,0,2.6758629,58.606787,146.06039)">
      <defs
         id="defs5376">
        <path
           id="equation_05_00"
           d="M 3.73,-3.78 C 3.55,-4.15 3.26,-4.42 2.81,-4.42 c -1.17,0 -2.41,1.47 -2.41,2.93 0,0.94 0.55,1.6 1.33,1.6 0.2,0 0.7,-0.04 1.3,-0.75 0.08,0.42 0.43,0.75 0.91,0.75 0.35,0 0.58,-0.23 0.74,-0.55 0.17,-0.36 0.3,-0.97 0.3,-0.99 0,-0.1 -0.09,-0.1 -0.12,-0.1 -0.1,0 -0.11,0.04 -0.14,0.18 -0.17,0.65 -0.35,1.24 -0.76,1.24 -0.27,0 -0.3,-0.26 -0.3,-0.46 0,-0.22 0.02,-0.3 0.13,-0.74 0.11,-0.42 0.13,-0.52 0.22,-0.9 l 0.36,-1.4 c 0.07,-0.28 0.07,-0.3 0.07,-0.34 0,-0.17 -0.12,-0.27 -0.29,-0.27 -0.24,0 -0.39,0.22 -0.42,0.44 z m -0.65,2.59 c -0.05,0.18 -0.05,0.2 -0.2,0.37 -0.44,0.55 -0.85,0.71 -1.13,0.71 -0.5,0 -0.64,-0.55 -0.64,-0.94 0,-0.5 0.32,-1.73 0.55,-2.19 0.31,-0.59 0.76,-0.96 1.16,-0.96 0.65,0 0.79,0.82 0.79,0.88 0,0.06 -0.02,0.12 -0.03,0.17 l -0.5,1.96 z"
           inkscape:connector-curvature="0" />
        <path
           id="equation_05_01"
           d="m 3.073,-4.375 c 0,-0.119 -0.091,-0.266 -0.28,-0.266 -0.203,0 -0.392,0.196 -0.392,0.385 0,0.112 0.084,0.266 0.28,0.266 0.189,0 0.392,-0.182 0.392,-0.385 z M 1.589,0.343 C 1.47,0.826 1.099,1.232 0.686,1.232 0.595,1.232 0.511,1.218 0.434,1.19 0.616,1.106 0.672,0.938 0.672,0.833 0.672,0.665 0.539,0.574 0.399,0.574 0.182,0.574 0,0.763 0,0.987 c 0,0.266 0.273,0.441 0.693,0.441 0.42,0 1.239,-0.252 1.456,-1.106 l 0.63,-2.506 c 0.021,-0.077 0.035,-0.14 0.035,-0.245 0,-0.385 -0.329,-0.658 -0.749,-0.658 -0.777,0 -1.225,0.973 -1.225,1.071 0,0.091 0.098,0.091 0.119,0.091 0.084,0 0.091,-0.021 0.14,-0.126 0.175,-0.406 0.539,-0.84 0.945,-0.84 0.175,0 0.238,0.119 0.238,0.343 0,0.077 -0.014,0.175 -0.021,0.21 L 1.589,0.343 z"
           inkscape:connector-curvature="0" />
      </defs>
      <g
         id="equation_05_g">
        <use
           id="use5381"
           y="63"
           xlink:href="#equation_05_00"
           x="77"
           width="744.09448"
           height="1052.3622" />
        <use
           id="use5383"
           y="64.5"
           xlink:href="#equation_05_01"
           x="82.285896"
           width="744.09448"
           height="1052.3622" />
      </g>
    </g>
    <path
       style="fill:none;stroke:#000000;stroke-width:1px;stroke-linecap:butt;stroke-linejoin:miter;stroke-opacity:1;marker-end:url(#Arrow1Mend)"
       d="m 220.97221,327.87436 71.14894,1.36825"
       id="path6339"
       inkscape:connector-curvature="0" />
  </g>
</svg>
