<?xml version="1.0" encoding="UTF-8" standalone="no"?>
<!-- Created with Inkscape (http://www.inkscape.org/) -->

<svg
   xmlns:dc="http://purl.org/dc/elements/1.1/"
   xmlns:cc="http://creativecommons.org/ns#"
   xmlns:rdf="http://www.w3.org/1999/02/22-rdf-syntax-ns#"
   xmlns:svg="http://www.w3.org/2000/svg"
   xmlns="http://www.w3.org/2000/svg"
   xmlns:xlink="http://www.w3.org/1999/xlink"
   xmlns:sodipodi="http://sodipodi.sourceforge.net/DTD/sodipodi-0.dtd"
   xmlns:inkscape="http://www.inkscape.org/namespaces/inkscape"
   width="210mm"
   height="297mm"
   id="svg2"
   version="1.1"
   inkscape:version="0.48.4 r9939"
   sodipodi:docname="neural-network2.svg">
  <sodipodi:namedview
     id="base"
     pagecolor="#ffffff"
     bordercolor="#666666"
     borderopacity="1.0"
     inkscape:pageopacity="0.0"
     inkscape:pageshadow="2"
     inkscape:zoom="1.4617223"
     inkscape:cx="332.36991"
     inkscape:cy="825.38285"
     inkscape:document-units="px"
     inkscape:current-layer="layer1"
     showgrid="false"
     inkscape:window-width="1366"
     inkscape:window-height="746"
     inkscape:window-x="-8"
     inkscape:window-y="-8"
     inkscape:window-maximized="1" />
  <defs
     id="defs4">
    <marker
       inkscape:stockid="Arrow1Mend"
       orient="auto"
       refY="0.0"
       refX="0.0"
       id="Arrow1Mend"
       style="overflow:visible;">
      <path
         id="path3788"
         d="M 0.0,0.0 L 5.0,-5.0 L -12.5,0.0 L 5.0,5.0 L 0.0,0.0 z "
         style="fill-rule:evenodd;stroke:#000000;stroke-width:1.0pt;"
         transform="scale(0.4) rotate(180) translate(10,0)" />
    </marker>
    <marker
       inkscape:stockid="Arrow1Lend"
       orient="auto"
       refY="0.0"
       refX="0.0"
       id="Arrow1Lend"
       style="overflow:visible;">
      <path
         id="path3782"
         d="M 0.0,0.0 L 5.0,-5.0 L -12.5,0.0 L 5.0,5.0 L 0.0,0.0 z "
         style="fill-rule:evenodd;stroke:#000000;stroke-width:1.0pt;"
         transform="scale(0.8) rotate(180) translate(12.5,0)" />
    </marker>
  </defs>
  <metadata
     id="metadata7">
    <rdf:RDF>
      <cc:Work
         rdf:about="">
        <dc:format>image/svg+xml</dc:format>
        <dc:type
           rdf:resource="http://purl.org/dc/dcmitype/StillImage" />
        <dc:title></dc:title>
      </cc:Work>
    </rdf:RDF>
  </metadata>
  <g
     inkscape:label="レイヤー 1"
     inkscape:groupmode="layer"
     id="layer1">
    <path
       sodipodi:type="arc"
       style="fill:#0000ff;fill-opacity:0.19607843;stroke:#0000ff;stroke-width:1;stroke-linecap:round;stroke-linejoin:round;stroke-miterlimit:4;stroke-opacity:1;stroke-dasharray:none;stroke-dashoffset:0"
       id="path2985"
       sodipodi:cx="330.88434"
       sodipodi:cy="403.17096"
       sodipodi:rx="24.187452"
       sodipodi:ry="24.187452"
       d="m 355.07179,403.17096 a 24.187452,24.187452 0 1 1 -48.3749,0 24.187452,24.187452 0 1 1 48.3749,0 z"
       transform="translate(115.13228,-184.01912)" />
    <path
       transform="translate(-19.172154,-203.17461)"
       sodipodi:type="arc"
       style="fill:#ff0000;fill-opacity:0.19607843;stroke:#ff0000;stroke-width:1;stroke-linecap:round;stroke-linejoin:round;stroke-miterlimit:4;stroke-opacity:1;stroke-dasharray:none;stroke-dashoffset:0"
       id="path2985-1"
       sodipodi:cx="330.88434"
       sodipodi:cy="403.17096"
       sodipodi:rx="24.187452"
       sodipodi:ry="24.187452"
       d="m 355.07179,403.17096 a 24.187452,24.187452 0 1 1 -48.3749,0 24.187452,24.187452 0 1 1 48.3749,0 z" />
    <path
       style="fill:none;stroke:#000000;stroke-width:1px;stroke-linecap:butt;stroke-linejoin:miter;stroke-opacity:1;marker-end:url(#Arrow1Mend)"
       d="m 469.99351,219.09858 71.14895,0"
       id="path4403"
       inkscape:connector-curvature="0" />
    <path
       style="fill:none;stroke:#000000;stroke-width:1px;stroke-linecap:butt;stroke-linejoin:miter;stroke-opacity:1;marker-end:url(#Arrow1Mend)"
       d="m 334.53687,205.41608 86.88381,12.31425"
       id="path4405"
       inkscape:connector-curvature="0" />
    <path
       style="fill:none;stroke:#000000;stroke-width:1px;stroke-linecap:butt;stroke-linejoin:miter;stroke-opacity:1;marker-end:url(#Arrow1Mend)"
       d="m 202.50084,200.62721 84.14731,-3.42062"
       id="path4407"
       inkscape:connector-curvature="0" />
    <path
       style="fill:none;stroke:#000000;stroke-width:1px;stroke-linecap:butt;stroke-linejoin:miter;stroke-opacity:1;marker-end:url(#Arrow1Mend)"
       d="m 202.50085,160.94799 c 4.10474,1.36825 85.51555,29.41736 85.51555,29.41736"
       id="path4433"
       inkscape:connector-curvature="0"
       sodipodi:nodetypes="cc" />
    <path
       style="fill:none;stroke:#000000;stroke-width:1px;stroke-linecap:butt;stroke-linejoin:miter;stroke-opacity:1;marker-end:url(#Arrow1Mend)"
       d="m 203.18497,235.51756 84.14731,-29.41735"
       id="path4439"
       inkscape:connector-curvature="0"
       sodipodi:nodetypes="cc" />
    <g
       id="equation_00"
       style="fill:#000000"
       title="$y$"
       transform="matrix(1.653334,0,0,1.653334,377.08161,106.98707)">
      <defs
         id="defs4835">
        <path
           d="M 4.86,-3.81 C 4.9,-3.95 4.9,-3.97 4.9,-4.04 c 0,-0.18 -0.14,-0.27 -0.29,-0.27 -0.1,0 -0.26,0.06 -0.35,0.21 -0.02,0.05 -0.1,0.36 -0.14,0.54 -0.07,0.26 -0.14,0.53 -0.2,0.8 l -0.45,1.8 C 3.43,-0.81 3,-0.11 2.34,-0.11 c -0.51,0 -0.62,-0.44 -0.62,-0.81 0,-0.46 0.17,-1.08 0.51,-1.96 0.16,-0.41 0.2,-0.52 0.2,-0.72 0,-0.45 -0.32,-0.82 -0.82,-0.82 -0.95,0 -1.32,1.45 -1.32,1.54 0,0.1 0.1,0.1 0.12,0.1 0.1,0 0.11,-0.02 0.16,-0.18 0.27,-0.94 0.67,-1.24 1.01,-1.24 0.08,0 0.25,0 0.25,0.32 0,0.25 -0.1,0.51 -0.17,0.7 -0.4,1.06 -0.58,1.63 -0.58,2.1 0,0.89 0.63,1.19 1.22,1.19 0.39,0 0.73,-0.17 1.01,-0.45 C 3.18,0.18 3.06,0.67 2.66,1.2 2.4,1.54 2.02,1.83 1.56,1.83 1.42,1.83 0.97,1.8 0.8,1.41 c 0.16,0 0.29,0 0.43,-0.12 C 1.33,1.2 1.43,1.07 1.43,0.88 1.43,0.57 1.16,0.53 1.06,0.53 0.83,0.53 0.5,0.69 0.5,1.18 c 0,0.5 0.44,0.87 1.06,0.87 1.03,0 2.06,-0.91 2.34,-2.04 l 0.96,-3.82 z"
           id="equation_00_00"
           inkscape:connector-curvature="0" />
      </defs>
      <g
         id="equation_00_g">
        <use
           x="77"
           xlink:href="#equation_00_00"
           y="63"
           id="use4839"
           width="744.09448"
           height="1052.3622" />
      </g>
    </g>
    <g
       title="$w^{(2)}_i$"
       style="fill:#000000"
       id="equation_01"
       transform="matrix(1.2815137,0,0,1.2815137,264.88996,124.11405)">
      <defs
         id="defs4896">
        <path
           id="equation_01_00"
           d="m 4.62,-3.39 c 0.05,-0.22 0.15,-0.59 0.15,-0.65 0,-0.18 -0.14,-0.27 -0.29,-0.27 -0.12,0 -0.3,0.08 -0.37,0.28 -0.03,0.07 -0.5,1.98 -0.57,2.24 -0.07,0.3 -0.09,0.48 -0.09,0.66 0,0.11 0,0.13 0.01,0.18 -0.23,0.53 -0.53,0.84 -0.92,0.84 -0.8,0 -0.8,-0.74 -0.8,-0.91 0,-0.32 0.05,-0.71 0.52,-1.94 0.11,-0.3 0.17,-0.44 0.17,-0.64 0,-0.45 -0.33,-0.82 -0.82,-0.82 -0.95,0 -1.32,1.45 -1.32,1.54 0,0.1 0.1,0.1 0.12,0.1 0.1,0 0.11,-0.02 0.16,-0.18 0.27,-0.93 0.66,-1.24 1.01,-1.24 0.09,0 0.25,0.01 0.25,0.33 0,0.25 -0.11,0.53 -0.18,0.7 -0.44,1.18 -0.56,1.64 -0.56,2.02 0,0.91 0.67,1.26 1.42,1.26 0.17,0 0.64,0 1.04,-0.7 0.26,0.64 0.95,0.7 1.25,0.7 0.75,0 1.19,-0.63 1.45,-1.23 0.34,-0.78 0.66,-2.12 0.66,-2.6 0,-0.55 -0.27,-0.7 -0.44,-0.7 -0.25,0 -0.5,0.26 -0.5,0.48 0,0.13 0.06,0.19 0.15,0.27 0.11,0.11 0.36,0.37 0.36,0.85 0,0.34 -0.29,1.32 -0.55,1.83 -0.26,0.53 -0.61,0.88 -1.1,0.88 -0.47,0 -0.74,-0.3 -0.74,-0.87 0,-0.28 0.07,-0.59 0.11,-0.73 l 0.42,-1.68 z"
           inkscape:connector-curvature="0" />
        <path
           id="equation_01_01"
           d="m 2.485,-5.25 c -1.33,0.938 -1.68,2.422 -1.68,3.493 0,0.987 0.294,2.52 1.68,3.5 0.056,0 0.14,0 0.14,-0.084 0,-0.042 -0.021,-0.056 -0.07,-0.105 -0.931,-0.84 -1.274,-2.03 -1.274,-3.304 0,-1.89 0.721,-2.814 1.295,-3.332 0.028,-0.028 0.049,-0.049 0.049,-0.084 0,-0.084 -0.084,-0.084 -0.14,-0.084 z"
           inkscape:connector-curvature="0" />
        <path
           id="equation_01_02"
           d="m 0.63,-5.25 c -0.049,0 -0.133,0 -0.133,0.084 0,0.035 0.021,0.056 0.063,0.105 0.602,0.553 1.274,1.498 1.274,3.304 0,1.463 -0.455,2.569 -1.211,3.255 -0.119,0.119 -0.126,0.126 -0.126,0.161 0,0.035 0.021,0.084 0.091,0.084 0.084,0 0.749,-0.462 1.211,-1.337 0.308,-0.581 0.511,-1.337 0.511,-2.156 0,-0.987 -0.294,-2.52 -1.68,-3.5 z"
           inkscape:connector-curvature="0" />
        <path
           id="equation_01_03"
           d="M 3.535,-1.274 H 3.297 C 3.276,-1.12 3.206,-0.707 3.115,-0.637 3.059,-0.595 2.52,-0.595 2.422,-0.595 H 1.134 c 0.735,-0.651 0.98,-0.847 1.4,-1.176 0.518,-0.413 1.001,-0.847 1.001,-1.512 0,-0.847 -0.742,-1.365 -1.638,-1.365 -0.868,0 -1.456,0.609 -1.456,1.253 0,0.357 0.301,0.392 0.371,0.392 0.168,0 0.371,-0.119 0.371,-0.371 0,-0.126 -0.049,-0.371 -0.413,-0.371 0.217,-0.497 0.693,-0.651 1.022,-0.651 0.7,0 1.064,0.546 1.064,1.113 0,0.609 -0.434,1.092 -0.658,1.344 L 0.511,-0.273 C 0.441,-0.21 0.441,-0.196 0.441,0 h 2.884 l 0.21,-1.274 z"
           inkscape:connector-curvature="0" />
        <path
           id="equation_01_04"
           d="m 2.268,-4.375 c 0,-0.112 -0.084,-0.266 -0.28,-0.266 -0.189,0 -0.392,0.182 -0.392,0.385 0,0.119 0.091,0.266 0.28,0.266 0.203,0 0.392,-0.196 0.392,-0.385 z M 0.84,-0.819 c -0.028,0.091 -0.063,0.175 -0.063,0.294 0,0.329 0.28,0.595 0.665,0.595 0.7,0 1.008,-0.966 1.008,-1.071 0,-0.091 -0.091,-0.091 -0.112,-0.091 -0.098,0 -0.105,0.042 -0.133,0.119 -0.161,0.56 -0.469,0.847 -0.742,0.847 -0.14,0 -0.175,-0.091 -0.175,-0.245 0,-0.161 0.049,-0.294 0.112,-0.448 0.07,-0.189 0.147,-0.378 0.224,-0.56 0.063,-0.168 0.315,-0.805 0.343,-0.889 0.021,-0.07 0.042,-0.154 0.042,-0.224 0,-0.329 -0.28,-0.595 -0.665,-0.595 -0.693,0 -1.015,0.952 -1.015,1.071 0,0.091 0.098,0.091 0.119,0.091 0.098,0 0.105,-0.035 0.126,-0.112 0.182,-0.602 0.49,-0.854 0.749,-0.854 0.112,0 0.175,0.056 0.175,0.245 0,0.161 -0.042,0.266 -0.217,0.7 L 0.84,-0.819 z"
           inkscape:connector-curvature="0" />
      </defs>
      <g
         id="equation_01_g">
        <use
           id="use4904"
           y="63.444401"
           xlink:href="#equation_01_00"
           x="77"
           width="744.09448"
           height="1052.3622" />
        <use
           id="use4906"
           y="58.25"
           xlink:href="#equation_01_01"
           x="84.428299"
           width="744.09448"
           height="1052.3622" />
        <use
           id="use4908"
           y="58.25"
           xlink:href="#equation_01_03"
           x="87.553299"
           width="744.09448"
           height="1052.3622" />
        <use
           id="use4910"
           y="58.25"
           xlink:href="#equation_01_02"
           x="91.539398"
           width="744.09448"
           height="1052.3622" />
        <use
           id="use4912"
           y="66.231796"
           xlink:href="#equation_01_04"
           x="84.159203"
           width="744.09448"
           height="1052.3622" />
      </g>
    </g>
    <g
       id="equation_02"
       style="fill:#000000"
       title="$w^{(1)}_{ij}$"
       transform="matrix(1.2990219,0,0,1.2990219,111.02547,110.09434)">
      <defs
         id="defs4995">
        <path
           d="m 4.62,-3.39 c 0.05,-0.22 0.15,-0.59 0.15,-0.65 0,-0.18 -0.14,-0.27 -0.29,-0.27 -0.12,0 -0.3,0.08 -0.37,0.28 -0.03,0.07 -0.5,1.98 -0.57,2.24 -0.07,0.3 -0.09,0.48 -0.09,0.66 0,0.11 0,0.13 0.01,0.18 -0.23,0.53 -0.53,0.84 -0.92,0.84 -0.8,0 -0.8,-0.74 -0.8,-0.91 0,-0.32 0.05,-0.71 0.52,-1.94 0.11,-0.3 0.17,-0.44 0.17,-0.64 0,-0.45 -0.33,-0.82 -0.82,-0.82 -0.95,0 -1.32,1.45 -1.32,1.54 0,0.1 0.1,0.1 0.12,0.1 0.1,0 0.11,-0.02 0.16,-0.18 0.27,-0.93 0.66,-1.24 1.01,-1.24 0.09,0 0.25,0.01 0.25,0.33 0,0.25 -0.11,0.53 -0.18,0.7 -0.44,1.18 -0.56,1.64 -0.56,2.02 0,0.91 0.67,1.26 1.42,1.26 0.17,0 0.64,0 1.04,-0.7 0.26,0.64 0.95,0.7 1.25,0.7 0.75,0 1.19,-0.63 1.45,-1.23 0.34,-0.78 0.66,-2.12 0.66,-2.6 0,-0.55 -0.27,-0.7 -0.44,-0.7 -0.25,0 -0.5,0.26 -0.5,0.48 0,0.13 0.06,0.19 0.15,0.27 0.11,0.11 0.36,0.37 0.36,0.85 0,0.34 -0.29,1.32 -0.55,1.83 -0.26,0.53 -0.61,0.88 -1.1,0.88 -0.47,0 -0.74,-0.3 -0.74,-0.87 0,-0.28 0.07,-0.59 0.11,-0.73 l 0.42,-1.68 z"
           id="equation_02_00"
           inkscape:connector-curvature="0" />
        <path
           d="m 2.485,-5.25 c -1.33,0.938 -1.68,2.422 -1.68,3.493 0,0.987 0.294,2.52 1.68,3.5 0.056,0 0.14,0 0.14,-0.084 0,-0.042 -0.021,-0.056 -0.07,-0.105 -0.931,-0.84 -1.274,-2.03 -1.274,-3.304 0,-1.89 0.721,-2.814 1.295,-3.332 0.028,-0.028 0.049,-0.049 0.049,-0.084 0,-0.084 -0.084,-0.084 -0.14,-0.084 z"
           id="equation_02_01"
           inkscape:connector-curvature="0" />
        <path
           d="m 0.63,-5.25 c -0.049,0 -0.133,0 -0.133,0.084 0,0.035 0.021,0.056 0.063,0.105 0.602,0.553 1.274,1.498 1.274,3.304 0,1.463 -0.455,2.569 -1.211,3.255 -0.119,0.119 -0.126,0.126 -0.126,0.161 0,0.035 0.021,0.084 0.091,0.084 0.084,0 0.749,-0.462 1.211,-1.337 0.308,-0.581 0.511,-1.337 0.511,-2.156 0,-0.987 -0.294,-2.52 -1.68,-3.5 z"
           id="equation_02_02"
           inkscape:connector-curvature="0" />
        <path
           d="m 2.345,-4.452 c 0,-0.189 -0.014,-0.196 -0.21,-0.196 C 1.687,-4.207 1.05,-4.2 0.763,-4.2 v 0.252 c 0.168,0 0.63,0 1.015,-0.196 v 3.57 c 0,0.231 0,0.322 -0.7,0.322 H 0.812 V 0 c 0.126,-0.007 0.987,-0.028 1.246,-0.028 0.217,0 1.099,0.021 1.253,0.028 V -0.252 H 3.045 c -0.7,0 -0.7,-0.091 -0.7,-0.322 v -3.878 z"
           id="equation_02_03"
           inkscape:connector-curvature="0" />
        <path
           d="m 2.268,-4.375 c 0,-0.112 -0.084,-0.266 -0.28,-0.266 -0.189,0 -0.392,0.182 -0.392,0.385 0,0.119 0.091,0.266 0.28,0.266 0.203,0 0.392,-0.196 0.392,-0.385 z M 0.84,-0.819 c -0.028,0.091 -0.063,0.175 -0.063,0.294 0,0.329 0.28,0.595 0.665,0.595 0.7,0 1.008,-0.966 1.008,-1.071 0,-0.091 -0.091,-0.091 -0.112,-0.091 -0.098,0 -0.105,0.042 -0.133,0.119 -0.161,0.56 -0.469,0.847 -0.742,0.847 -0.14,0 -0.175,-0.091 -0.175,-0.245 0,-0.161 0.049,-0.294 0.112,-0.448 0.07,-0.189 0.147,-0.378 0.224,-0.56 0.063,-0.168 0.315,-0.805 0.343,-0.889 0.021,-0.07 0.042,-0.154 0.042,-0.224 0,-0.329 -0.28,-0.595 -0.665,-0.595 -0.693,0 -1.015,0.952 -1.015,1.071 0,0.091 0.098,0.091 0.119,0.091 0.098,0 0.105,-0.035 0.126,-0.112 0.182,-0.602 0.49,-0.854 0.749,-0.854 0.112,0 0.175,0.056 0.175,0.245 0,0.161 -0.042,0.266 -0.217,0.7 L 0.84,-0.819 z"
           id="equation_02_04"
           inkscape:connector-curvature="0" />
        <path
           d="m 3.073,-4.375 c 0,-0.119 -0.091,-0.266 -0.28,-0.266 -0.203,0 -0.392,0.196 -0.392,0.385 0,0.112 0.084,0.266 0.28,0.266 0.189,0 0.392,-0.182 0.392,-0.385 z M 1.589,0.343 C 1.47,0.826 1.099,1.232 0.686,1.232 0.595,1.232 0.511,1.218 0.434,1.19 0.616,1.106 0.672,0.938 0.672,0.833 0.672,0.665 0.539,0.574 0.399,0.574 0.182,0.574 0,0.763 0,0.987 c 0,0.266 0.273,0.441 0.693,0.441 0.42,0 1.239,-0.252 1.456,-1.106 l 0.63,-2.506 c 0.021,-0.077 0.035,-0.14 0.035,-0.245 0,-0.385 -0.329,-0.658 -0.749,-0.658 -0.777,0 -1.225,0.973 -1.225,1.071 0,0.091 0.098,0.091 0.119,0.091 0.084,0 0.091,-0.021 0.14,-0.126 0.175,-0.406 0.539,-0.84 0.945,-0.84 0.175,0 0.238,0.119 0.238,0.343 0,0.077 -0.014,0.175 -0.021,0.21 L 1.589,0.343 z"
           id="equation_02_05"
           inkscape:connector-curvature="0" />
      </defs>
      <g
         id="equation_02_g">
        <use
           x="77"
           xlink:href="#equation_02_00"
           y="63.444401"
           id="use5004"
           width="744.09448"
           height="1052.3622" />
        <use
           x="84.428299"
           xlink:href="#equation_02_01"
           y="58.25"
           id="use5006"
           width="744.09448"
           height="1052.3622" />
        <use
           x="87.553299"
           xlink:href="#equation_02_03"
           y="58.25"
           id="use5008"
           width="744.09448"
           height="1052.3622" />
        <use
           x="91.539398"
           xlink:href="#equation_02_02"
           y="58.25"
           id="use5010"
           width="744.09448"
           height="1052.3622" />
        <use
           x="84.159203"
           xlink:href="#equation_02_04"
           y="66.231796"
           id="use5012"
           width="744.09448"
           height="1052.3622" />
        <use
           x="86.988503"
           xlink:href="#equation_02_05"
           y="66.231796"
           id="use5014"
           width="744.09448"
           height="1052.3622" />
      </g>
    </g>
    <g
       title="$w^{(1)}_{i,j-1}$"
       style="fill:#000000"
       id="equation_03"
       transform="matrix(1.2990219,0,0,1.2990219,113.7135,77.598046)">
      <defs
         id="defs5127">
        <path
           id="equation_03_00"
           d="m 5.208,-1.582 c 0.112,0 0.28,0 0.28,-0.168 0,-0.175 -0.161,-0.175 -0.28,-0.175 H 1.036 c -0.112,0 -0.28,0 -0.28,0.168 0,0.175 0.161,0.175 0.28,0.175 h 4.172 z"
           inkscape:connector-curvature="0" />
        <path
           id="equation_03_01"
           d="m 1.477,-0.112 c 0,0.385 -0.07,0.833 -0.546,1.281 -0.028,0.028 -0.049,0.049 -0.049,0.084 0,0.049 0.056,0.098 0.098,0.098 0.098,0 0.693,-0.56 0.693,-1.393 0,-0.434 -0.168,-0.763 -0.49,-0.763 -0.231,0 -0.399,0.182 -0.399,0.399 C 0.784,-0.182 0.945,0 1.19,0 1.358,0 1.47,-0.112 1.477,-0.112 z"
           inkscape:connector-curvature="0" />
        <path
           id="equation_03_02"
           d="m 2.268,-4.375 c 0,-0.112 -0.084,-0.266 -0.28,-0.266 -0.189,0 -0.392,0.182 -0.392,0.385 0,0.119 0.091,0.266 0.28,0.266 0.203,0 0.392,-0.196 0.392,-0.385 z M 0.84,-0.819 c -0.028,0.091 -0.063,0.175 -0.063,0.294 0,0.329 0.28,0.595 0.665,0.595 0.7,0 1.008,-0.966 1.008,-1.071 0,-0.091 -0.091,-0.091 -0.112,-0.091 -0.098,0 -0.105,0.042 -0.133,0.119 -0.161,0.56 -0.469,0.847 -0.742,0.847 -0.14,0 -0.175,-0.091 -0.175,-0.245 0,-0.161 0.049,-0.294 0.112,-0.448 0.07,-0.189 0.147,-0.378 0.224,-0.56 0.063,-0.168 0.315,-0.805 0.343,-0.889 0.021,-0.07 0.042,-0.154 0.042,-0.224 0,-0.329 -0.28,-0.595 -0.665,-0.595 -0.693,0 -1.015,0.952 -1.015,1.071 0,0.091 0.098,0.091 0.119,0.091 0.098,0 0.105,-0.035 0.126,-0.112 0.182,-0.602 0.49,-0.854 0.749,-0.854 0.112,0 0.175,0.056 0.175,0.245 0,0.161 -0.042,0.266 -0.217,0.7 L 0.84,-0.819 z"
           inkscape:connector-curvature="0" />
        <path
           id="equation_03_03"
           d="m 3.073,-4.375 c 0,-0.119 -0.091,-0.266 -0.28,-0.266 -0.203,0 -0.392,0.196 -0.392,0.385 0,0.112 0.084,0.266 0.28,0.266 0.189,0 0.392,-0.182 0.392,-0.385 z M 1.589,0.343 C 1.47,0.826 1.099,1.232 0.686,1.232 0.595,1.232 0.511,1.218 0.434,1.19 0.616,1.106 0.672,0.938 0.672,0.833 0.672,0.665 0.539,0.574 0.399,0.574 0.182,0.574 0,0.763 0,0.987 c 0,0.266 0.273,0.441 0.693,0.441 0.42,0 1.239,-0.252 1.456,-1.106 l 0.63,-2.506 c 0.021,-0.077 0.035,-0.14 0.035,-0.245 0,-0.385 -0.329,-0.658 -0.749,-0.658 -0.777,0 -1.225,0.973 -1.225,1.071 0,0.091 0.098,0.091 0.119,0.091 0.084,0 0.091,-0.021 0.14,-0.126 0.175,-0.406 0.539,-0.84 0.945,-0.84 0.175,0 0.238,0.119 0.238,0.343 0,0.077 -0.014,0.175 -0.021,0.21 L 1.589,0.343 z"
           inkscape:connector-curvature="0" />
        <path
           id="equation_03_04"
           d="m 4.62,-3.39 c 0.05,-0.22 0.15,-0.59 0.15,-0.65 0,-0.18 -0.14,-0.27 -0.29,-0.27 -0.12,0 -0.3,0.08 -0.37,0.28 -0.03,0.07 -0.5,1.98 -0.57,2.24 -0.07,0.3 -0.09,0.48 -0.09,0.66 0,0.11 0,0.13 0.01,0.18 -0.23,0.53 -0.53,0.84 -0.92,0.84 -0.8,0 -0.8,-0.74 -0.8,-0.91 0,-0.32 0.05,-0.71 0.52,-1.94 0.11,-0.3 0.17,-0.44 0.17,-0.64 0,-0.45 -0.33,-0.82 -0.82,-0.82 -0.95,0 -1.32,1.45 -1.32,1.54 0,0.1 0.1,0.1 0.12,0.1 0.1,0 0.11,-0.02 0.16,-0.18 0.27,-0.93 0.66,-1.24 1.01,-1.24 0.09,0 0.25,0.01 0.25,0.33 0,0.25 -0.11,0.53 -0.18,0.7 -0.44,1.18 -0.56,1.64 -0.56,2.02 0,0.91 0.67,1.26 1.42,1.26 0.17,0 0.64,0 1.04,-0.7 0.26,0.64 0.95,0.7 1.25,0.7 0.75,0 1.19,-0.63 1.45,-1.23 0.34,-0.78 0.66,-2.12 0.66,-2.6 0,-0.55 -0.27,-0.7 -0.44,-0.7 -0.25,0 -0.5,0.26 -0.5,0.48 0,0.13 0.06,0.19 0.15,0.27 0.11,0.11 0.36,0.37 0.36,0.85 0,0.34 -0.29,1.32 -0.55,1.83 -0.26,0.53 -0.61,0.88 -1.1,0.88 -0.47,0 -0.74,-0.3 -0.74,-0.87 0,-0.28 0.07,-0.59 0.11,-0.73 l 0.42,-1.68 z"
           inkscape:connector-curvature="0" />
        <path
           id="equation_03_05"
           d="m 2.485,-5.25 c -1.33,0.938 -1.68,2.422 -1.68,3.493 0,0.987 0.294,2.52 1.68,3.5 0.056,0 0.14,0 0.14,-0.084 0,-0.042 -0.021,-0.056 -0.07,-0.105 -0.931,-0.84 -1.274,-2.03 -1.274,-3.304 0,-1.89 0.721,-2.814 1.295,-3.332 0.028,-0.028 0.049,-0.049 0.049,-0.084 0,-0.084 -0.084,-0.084 -0.14,-0.084 z"
           inkscape:connector-curvature="0" />
        <path
           id="equation_03_06"
           d="m 0.63,-5.25 c -0.049,0 -0.133,0 -0.133,0.084 0,0.035 0.021,0.056 0.063,0.105 0.602,0.553 1.274,1.498 1.274,3.304 0,1.463 -0.455,2.569 -1.211,3.255 -0.119,0.119 -0.126,0.126 -0.126,0.161 0,0.035 0.021,0.084 0.091,0.084 0.084,0 0.749,-0.462 1.211,-1.337 0.308,-0.581 0.511,-1.337 0.511,-2.156 0,-0.987 -0.294,-2.52 -1.68,-3.5 z"
           inkscape:connector-curvature="0" />
        <path
           id="equation_03_07"
           d="m 2.345,-4.452 c 0,-0.189 -0.014,-0.196 -0.21,-0.196 C 1.687,-4.207 1.05,-4.2 0.763,-4.2 v 0.252 c 0.168,0 0.63,0 1.015,-0.196 v 3.57 c 0,0.231 0,0.322 -0.7,0.322 H 0.812 V 0 c 0.126,-0.007 0.987,-0.028 1.246,-0.028 0.217,0 1.099,0.021 1.253,0.028 V -0.252 H 3.045 c -0.7,0 -0.7,-0.091 -0.7,-0.322 v -3.878 z"
           inkscape:connector-curvature="0" />
      </defs>
      <g
         id="equation_03_g">
        <use
           id="use5138"
           y="63.444401"
           xlink:href="#equation_03_04"
           x="77"
           width="744.09448"
           height="1052.3622" />
        <use
           id="use5140"
           y="58.25"
           xlink:href="#equation_03_05"
           x="84.428299"
           width="744.09448"
           height="1052.3622" />
        <use
           id="use5142"
           y="58.25"
           xlink:href="#equation_03_07"
           x="87.553299"
           width="744.09448"
           height="1052.3622" />
        <use
           id="use5144"
           y="58.25"
           xlink:href="#equation_03_06"
           x="91.539398"
           width="744.09448"
           height="1052.3622" />
        <use
           id="use5146"
           y="66.231796"
           xlink:href="#equation_03_02"
           x="84.159203"
           width="744.09448"
           height="1052.3622" />
        <use
           id="use5148"
           y="66.231796"
           xlink:href="#equation_03_01"
           x="86.988503"
           width="744.09448"
           height="1052.3622" />
        <use
           id="use5150"
           y="66.231796"
           xlink:href="#equation_03_03"
           x="89.363503"
           width="744.09448"
           height="1052.3622" />
        <use
           id="use5152"
           y="66.231796"
           xlink:href="#equation_03_00"
           x="93.077103"
           width="744.09448"
           height="1052.3622" />
        <use
           id="use5154"
           y="66.231796"
           xlink:href="#equation_03_07"
           x="99.327103"
           width="744.09448"
           height="1052.3622" />
      </g>
    </g>
    <g
       id="equation_04"
       style="fill:#000000"
       title="$w^{(1)}_{i,j+1}$"
       transform="matrix(1.2990219,0,0,1.2990219,104.86804,136.14045)">
      <defs
         id="defs5307">
        <path
           d="m 4.62,-3.39 c 0.05,-0.22 0.15,-0.59 0.15,-0.65 0,-0.18 -0.14,-0.27 -0.29,-0.27 -0.12,0 -0.3,0.08 -0.37,0.28 -0.03,0.07 -0.5,1.98 -0.57,2.24 -0.07,0.3 -0.09,0.48 -0.09,0.66 0,0.11 0,0.13 0.01,0.18 -0.23,0.53 -0.53,0.84 -0.92,0.84 -0.8,0 -0.8,-0.74 -0.8,-0.91 0,-0.32 0.05,-0.71 0.52,-1.94 0.11,-0.3 0.17,-0.44 0.17,-0.64 0,-0.45 -0.33,-0.82 -0.82,-0.82 -0.95,0 -1.32,1.45 -1.32,1.54 0,0.1 0.1,0.1 0.12,0.1 0.1,0 0.11,-0.02 0.16,-0.18 0.27,-0.93 0.66,-1.24 1.01,-1.24 0.09,0 0.25,0.01 0.25,0.33 0,0.25 -0.11,0.53 -0.18,0.7 -0.44,1.18 -0.56,1.64 -0.56,2.02 0,0.91 0.67,1.26 1.42,1.26 0.17,0 0.64,0 1.04,-0.7 0.26,0.64 0.95,0.7 1.25,0.7 0.75,0 1.19,-0.63 1.45,-1.23 0.34,-0.78 0.66,-2.12 0.66,-2.6 0,-0.55 -0.27,-0.7 -0.44,-0.7 -0.25,0 -0.5,0.26 -0.5,0.48 0,0.13 0.06,0.19 0.15,0.27 0.11,0.11 0.36,0.37 0.36,0.85 0,0.34 -0.29,1.32 -0.55,1.83 -0.26,0.53 -0.61,0.88 -1.1,0.88 -0.47,0 -0.74,-0.3 -0.74,-0.87 0,-0.28 0.07,-0.59 0.11,-0.73 l 0.42,-1.68 z"
           id="equation_04_00"
           inkscape:connector-curvature="0" />
        <path
           d="m 2.485,-5.25 c -1.33,0.938 -1.68,2.422 -1.68,3.493 0,0.987 0.294,2.52 1.68,3.5 0.056,0 0.14,0 0.14,-0.084 0,-0.042 -0.021,-0.056 -0.07,-0.105 -0.931,-0.84 -1.274,-2.03 -1.274,-3.304 0,-1.89 0.721,-2.814 1.295,-3.332 0.028,-0.028 0.049,-0.049 0.049,-0.084 0,-0.084 -0.084,-0.084 -0.14,-0.084 z"
           id="equation_04_01"
           inkscape:connector-curvature="0" />
        <path
           d="m 0.63,-5.25 c -0.049,0 -0.133,0 -0.133,0.084 0,0.035 0.021,0.056 0.063,0.105 0.602,0.553 1.274,1.498 1.274,3.304 0,1.463 -0.455,2.569 -1.211,3.255 -0.119,0.119 -0.126,0.126 -0.126,0.161 0,0.035 0.021,0.084 0.091,0.084 0.084,0 0.749,-0.462 1.211,-1.337 0.308,-0.581 0.511,-1.337 0.511,-2.156 0,-0.987 -0.294,-2.52 -1.68,-3.5 z"
           id="equation_04_02"
           inkscape:connector-curvature="0" />
        <path
           d="m 3.241,-1.582 h 2.142 c 0.091,0 0.259,0 0.259,-0.168 0,-0.175 -0.161,-0.175 -0.259,-0.175 H 3.241 v -2.149 c 0,-0.091 0,-0.259 -0.168,-0.259 -0.175,0 -0.175,0.161 -0.175,0.259 v 2.149 H 0.749 c -0.091,0 -0.259,0 -0.259,0.168 0,0.175 0.161,0.175 0.259,0.175 h 2.149 v 2.149 c 0,0.091 0,0.259 0.168,0.259 0.175,0 0.175,-0.161 0.175,-0.259 v -2.149 z"
           id="equation_04_03"
           inkscape:connector-curvature="0" />
        <path
           d="m 2.345,-4.452 c 0,-0.189 -0.014,-0.196 -0.21,-0.196 C 1.687,-4.207 1.05,-4.2 0.763,-4.2 v 0.252 c 0.168,0 0.63,0 1.015,-0.196 v 3.57 c 0,0.231 0,0.322 -0.7,0.322 H 0.812 V 0 c 0.126,-0.007 0.987,-0.028 1.246,-0.028 0.217,0 1.099,0.021 1.253,0.028 V -0.252 H 3.045 c -0.7,0 -0.7,-0.091 -0.7,-0.322 v -3.878 z"
           id="equation_04_04"
           inkscape:connector-curvature="0" />
        <path
           d="m 1.477,-0.112 c 0,0.385 -0.07,0.833 -0.546,1.281 -0.028,0.028 -0.049,0.049 -0.049,0.084 0,0.049 0.056,0.098 0.098,0.098 0.098,0 0.693,-0.56 0.693,-1.393 0,-0.434 -0.168,-0.763 -0.49,-0.763 -0.231,0 -0.399,0.182 -0.399,0.399 C 0.784,-0.182 0.945,0 1.19,0 1.358,0 1.47,-0.112 1.477,-0.112 z"
           id="equation_04_05"
           inkscape:connector-curvature="0" />
        <path
           d="m 2.268,-4.375 c 0,-0.112 -0.084,-0.266 -0.28,-0.266 -0.189,0 -0.392,0.182 -0.392,0.385 0,0.119 0.091,0.266 0.28,0.266 0.203,0 0.392,-0.196 0.392,-0.385 z M 0.84,-0.819 c -0.028,0.091 -0.063,0.175 -0.063,0.294 0,0.329 0.28,0.595 0.665,0.595 0.7,0 1.008,-0.966 1.008,-1.071 0,-0.091 -0.091,-0.091 -0.112,-0.091 -0.098,0 -0.105,0.042 -0.133,0.119 -0.161,0.56 -0.469,0.847 -0.742,0.847 -0.14,0 -0.175,-0.091 -0.175,-0.245 0,-0.161 0.049,-0.294 0.112,-0.448 0.07,-0.189 0.147,-0.378 0.224,-0.56 0.063,-0.168 0.315,-0.805 0.343,-0.889 0.021,-0.07 0.042,-0.154 0.042,-0.224 0,-0.329 -0.28,-0.595 -0.665,-0.595 -0.693,0 -1.015,0.952 -1.015,1.071 0,0.091 0.098,0.091 0.119,0.091 0.098,0 0.105,-0.035 0.126,-0.112 0.182,-0.602 0.49,-0.854 0.749,-0.854 0.112,0 0.175,0.056 0.175,0.245 0,0.161 -0.042,0.266 -0.217,0.7 L 0.84,-0.819 z"
           id="equation_04_06"
           inkscape:connector-curvature="0" />
        <path
           d="m 3.073,-4.375 c 0,-0.119 -0.091,-0.266 -0.28,-0.266 -0.203,0 -0.392,0.196 -0.392,0.385 0,0.112 0.084,0.266 0.28,0.266 0.189,0 0.392,-0.182 0.392,-0.385 z M 1.589,0.343 C 1.47,0.826 1.099,1.232 0.686,1.232 0.595,1.232 0.511,1.218 0.434,1.19 0.616,1.106 0.672,0.938 0.672,0.833 0.672,0.665 0.539,0.574 0.399,0.574 0.182,0.574 0,0.763 0,0.987 c 0,0.266 0.273,0.441 0.693,0.441 0.42,0 1.239,-0.252 1.456,-1.106 l 0.63,-2.506 c 0.021,-0.077 0.035,-0.14 0.035,-0.245 0,-0.385 -0.329,-0.658 -0.749,-0.658 -0.777,0 -1.225,0.973 -1.225,1.071 0,0.091 0.098,0.091 0.119,0.091 0.084,0 0.091,-0.021 0.14,-0.126 0.175,-0.406 0.539,-0.84 0.945,-0.84 0.175,0 0.238,0.119 0.238,0.343 0,0.077 -0.014,0.175 -0.021,0.21 L 1.589,0.343 z"
           id="equation_04_07"
           inkscape:connector-curvature="0" />
      </defs>
      <g
         id="equation_04_g">
        <use
           x="77"
           xlink:href="#equation_04_00"
           y="63.444401"
           id="use5318"
           width="744.09448"
           height="1052.3622" />
        <use
           x="84.428299"
           xlink:href="#equation_04_01"
           y="58.25"
           id="use5320"
           width="744.09448"
           height="1052.3622" />
        <use
           x="87.553299"
           xlink:href="#equation_04_04"
           y="58.25"
           id="use5322"
           width="744.09448"
           height="1052.3622" />
        <use
           x="91.539398"
           xlink:href="#equation_04_02"
           y="58.25"
           id="use5324"
           width="744.09448"
           height="1052.3622" />
        <use
           x="84.159203"
           xlink:href="#equation_04_06"
           y="66.231796"
           id="use5326"
           width="744.09448"
           height="1052.3622" />
        <use
           x="86.988503"
           xlink:href="#equation_04_05"
           y="66.231796"
           id="use5328"
           width="744.09448"
           height="1052.3622" />
        <use
           x="89.363503"
           xlink:href="#equation_04_07"
           y="66.231796"
           id="use5330"
           width="744.09448"
           height="1052.3622" />
        <use
           x="93.077103"
           xlink:href="#equation_04_03"
           y="66.231796"
           id="use5332"
           width="744.09448"
           height="1052.3622" />
        <use
           x="99.216003"
           xlink:href="#equation_04_04"
           y="66.231796"
           id="use5334"
           width="744.09448"
           height="1052.3622" />
      </g>
    </g>
    <g
       title="$x_j$"
       style="fill:#000000"
       id="equation_05"
       transform="matrix(1.653334,0,0,1.653334,38.440001,97.409324)">
      <defs
         id="defs5527">
        <path
           id="equation_05_00"
           d="M 3.34,-3.02 C 3.4,-3.28 3.63,-4.2 4.33,-4.2 c 0.05,0 0.29,0 0.5,0.13 -0.28,0.05 -0.48,0.3 -0.48,0.54 0,0.16 0.11,0.35 0.38,0.35 0.22,0 0.54,-0.18 0.54,-0.58 0,-0.52 -0.59,-0.66 -0.93,-0.66 -0.58,0 -0.93,0.53 -1.05,0.76 -0.25,-0.66 -0.79,-0.76 -1.08,-0.76 -1.04,0 -1.61,1.29 -1.61,1.54 0,0.1 0.1,0.1 0.12,0.1 0.08,0 0.11,-0.02 0.13,-0.11 0.34,-1.06 1,-1.31 1.34,-1.31 0.19,0 0.54,0.09 0.54,0.67 0,0.31 -0.17,0.98 -0.54,2.38 -0.16,0.62 -0.51,1.04 -0.95,1.04 -0.06,0 -0.29,0 -0.5,-0.13 0.25,-0.05 0.47,-0.26 0.47,-0.54 0,-0.27 -0.22,-0.35 -0.37,-0.35 -0.3,0 -0.55,0.26 -0.55,0.58 0,0.46 0.5,0.66 0.94,0.66 0.66,0 1.02,-0.7 1.05,-0.76 0.12,0.37 0.48,0.76 1.08,0.76 1.03,0 1.6,-1.29 1.6,-1.54 0,-0.1 -0.09,-0.1 -0.12,-0.1 -0.09,0 -0.11,0.04 -0.13,0.11 -0.33,1.07 -1.01,1.31 -1.33,1.31 -0.39,0 -0.55,-0.32 -0.55,-0.66 0,-0.22 0.06,-0.44 0.17,-0.88 l 0.34,-1.37 z"
           inkscape:connector-curvature="0" />
        <path
           id="equation_05_01"
           d="m 3.073,-4.375 c 0,-0.119 -0.091,-0.266 -0.28,-0.266 -0.203,0 -0.392,0.196 -0.392,0.385 0,0.112 0.084,0.266 0.28,0.266 0.189,0 0.392,-0.182 0.392,-0.385 z M 1.589,0.343 C 1.47,0.826 1.099,1.232 0.686,1.232 0.595,1.232 0.511,1.218 0.434,1.19 0.616,1.106 0.672,0.938 0.672,0.833 0.672,0.665 0.539,0.574 0.399,0.574 0.182,0.574 0,0.763 0,0.987 c 0,0.266 0.273,0.441 0.693,0.441 0.42,0 1.239,-0.252 1.456,-1.106 l 0.63,-2.506 c 0.021,-0.077 0.035,-0.14 0.035,-0.245 0,-0.385 -0.329,-0.658 -0.749,-0.658 -0.777,0 -1.225,0.973 -1.225,1.071 0,0.091 0.098,0.091 0.119,0.091 0.084,0 0.091,-0.021 0.14,-0.126 0.175,-0.406 0.539,-0.84 0.945,-0.84 0.175,0 0.238,0.119 0.238,0.343 0,0.077 -0.014,0.175 -0.021,0.21 L 1.589,0.343 z"
           inkscape:connector-curvature="0" />
      </defs>
      <g
         id="equation_05_g">
        <use
           id="use5532"
           y="63"
           xlink:href="#equation_05_00"
           x="77"
           width="744.09448"
           height="1052.3622" />
        <use
           id="use5534"
           y="64.5"
           xlink:href="#equation_05_01"
           x="82.715302"
           width="744.09448"
           height="1052.3622" />
      </g>
    </g>
    <g
       id="equation_06"
       style="fill:#000000"
       title="$x_{j-1}$"
       transform="matrix(1.653334,0,0,1.653334,39.808249,57.04598)">
      <defs
         id="defs5741">
        <path
           d="m 5.208,-1.582 c 0.112,0 0.28,0 0.28,-0.168 0,-0.175 -0.161,-0.175 -0.28,-0.175 H 1.036 c -0.112,0 -0.28,0 -0.28,0.168 0,0.175 0.161,0.175 0.28,0.175 h 4.172 z"
           id="equation_06_00"
           inkscape:connector-curvature="0" />
        <path
           d="m 3.073,-4.375 c 0,-0.119 -0.091,-0.266 -0.28,-0.266 -0.203,0 -0.392,0.196 -0.392,0.385 0,0.112 0.084,0.266 0.28,0.266 0.189,0 0.392,-0.182 0.392,-0.385 z M 1.589,0.343 C 1.47,0.826 1.099,1.232 0.686,1.232 0.595,1.232 0.511,1.218 0.434,1.19 0.616,1.106 0.672,0.938 0.672,0.833 0.672,0.665 0.539,0.574 0.399,0.574 0.182,0.574 0,0.763 0,0.987 c 0,0.266 0.273,0.441 0.693,0.441 0.42,0 1.239,-0.252 1.456,-1.106 l 0.63,-2.506 c 0.021,-0.077 0.035,-0.14 0.035,-0.245 0,-0.385 -0.329,-0.658 -0.749,-0.658 -0.777,0 -1.225,0.973 -1.225,1.071 0,0.091 0.098,0.091 0.119,0.091 0.084,0 0.091,-0.021 0.14,-0.126 0.175,-0.406 0.539,-0.84 0.945,-0.84 0.175,0 0.238,0.119 0.238,0.343 0,0.077 -0.014,0.175 -0.021,0.21 L 1.589,0.343 z"
           id="equation_06_01"
           inkscape:connector-curvature="0" />
        <path
           d="M 3.34,-3.02 C 3.4,-3.28 3.63,-4.2 4.33,-4.2 c 0.05,0 0.29,0 0.5,0.13 -0.28,0.05 -0.48,0.3 -0.48,0.54 0,0.16 0.11,0.35 0.38,0.35 0.22,0 0.54,-0.18 0.54,-0.58 0,-0.52 -0.59,-0.66 -0.93,-0.66 -0.58,0 -0.93,0.53 -1.05,0.76 -0.25,-0.66 -0.79,-0.76 -1.08,-0.76 -1.04,0 -1.61,1.29 -1.61,1.54 0,0.1 0.1,0.1 0.12,0.1 0.08,0 0.11,-0.02 0.13,-0.11 0.34,-1.06 1,-1.31 1.34,-1.31 0.19,0 0.54,0.09 0.54,0.67 0,0.31 -0.17,0.98 -0.54,2.38 -0.16,0.62 -0.51,1.04 -0.95,1.04 -0.06,0 -0.29,0 -0.5,-0.13 0.25,-0.05 0.47,-0.26 0.47,-0.54 0,-0.27 -0.22,-0.35 -0.37,-0.35 -0.3,0 -0.55,0.26 -0.55,0.58 0,0.46 0.5,0.66 0.94,0.66 0.66,0 1.02,-0.7 1.05,-0.76 0.12,0.37 0.48,0.76 1.08,0.76 1.03,0 1.6,-1.29 1.6,-1.54 0,-0.1 -0.09,-0.1 -0.12,-0.1 -0.09,0 -0.11,0.04 -0.13,0.11 -0.33,1.07 -1.01,1.31 -1.33,1.31 -0.39,0 -0.55,-0.32 -0.55,-0.66 0,-0.22 0.06,-0.44 0.17,-0.88 l 0.34,-1.37 z"
           id="equation_06_02"
           inkscape:connector-curvature="0" />
        <path
           d="m 2.345,-4.452 c 0,-0.189 -0.014,-0.196 -0.21,-0.196 C 1.687,-4.207 1.05,-4.2 0.763,-4.2 v 0.252 c 0.168,0 0.63,0 1.015,-0.196 v 3.57 c 0,0.231 0,0.322 -0.7,0.322 H 0.812 V 0 c 0.126,-0.007 0.987,-0.028 1.246,-0.028 0.217,0 1.099,0.021 1.253,0.028 V -0.252 H 3.045 c -0.7,0 -0.7,-0.091 -0.7,-0.322 v -3.878 z"
           id="equation_06_03"
           inkscape:connector-curvature="0" />
      </defs>
      <g
         id="equation_06_g">
        <use
           x="77"
           xlink:href="#equation_06_02"
           y="63"
           id="use5748"
           width="744.09448"
           height="1052.3622" />
        <use
           x="82.715302"
           xlink:href="#equation_06_01"
           y="64.5"
           id="use5750"
           width="744.09448"
           height="1052.3622" />
        <use
           x="86.428802"
           xlink:href="#equation_06_00"
           y="64.5"
           id="use5752"
           width="744.09448"
           height="1052.3622" />
        <use
           x="92.678902"
           xlink:href="#equation_06_03"
           y="64.5"
           id="use5754"
           width="744.09448"
           height="1052.3622" />
      </g>
    </g>
    <g
       title="$x_{j+1}$"
       style="fill:#000000"
       id="equation_07"
       transform="matrix(1.653334,0,0,1.653334,38.440001,132.29967)">
      <defs
         id="defs5983">
        <path
           id="equation_07_00"
           d="M 3.34,-3.02 C 3.4,-3.28 3.63,-4.2 4.33,-4.2 c 0.05,0 0.29,0 0.5,0.13 -0.28,0.05 -0.48,0.3 -0.48,0.54 0,0.16 0.11,0.35 0.38,0.35 0.22,0 0.54,-0.18 0.54,-0.58 0,-0.52 -0.59,-0.66 -0.93,-0.66 -0.58,0 -0.93,0.53 -1.05,0.76 -0.25,-0.66 -0.79,-0.76 -1.08,-0.76 -1.04,0 -1.61,1.29 -1.61,1.54 0,0.1 0.1,0.1 0.12,0.1 0.08,0 0.11,-0.02 0.13,-0.11 0.34,-1.06 1,-1.31 1.34,-1.31 0.19,0 0.54,0.09 0.54,0.67 0,0.31 -0.17,0.98 -0.54,2.38 -0.16,0.62 -0.51,1.04 -0.95,1.04 -0.06,0 -0.29,0 -0.5,-0.13 0.25,-0.05 0.47,-0.26 0.47,-0.54 0,-0.27 -0.22,-0.35 -0.37,-0.35 -0.3,0 -0.55,0.26 -0.55,0.58 0,0.46 0.5,0.66 0.94,0.66 0.66,0 1.02,-0.7 1.05,-0.76 0.12,0.37 0.48,0.76 1.08,0.76 1.03,0 1.6,-1.29 1.6,-1.54 0,-0.1 -0.09,-0.1 -0.12,-0.1 -0.09,0 -0.11,0.04 -0.13,0.11 -0.33,1.07 -1.01,1.31 -1.33,1.31 -0.39,0 -0.55,-0.32 -0.55,-0.66 0,-0.22 0.06,-0.44 0.17,-0.88 l 0.34,-1.37 z"
           inkscape:connector-curvature="0" />
        <path
           id="equation_07_01"
           d="m 3.241,-1.582 h 2.142 c 0.091,0 0.259,0 0.259,-0.168 0,-0.175 -0.161,-0.175 -0.259,-0.175 H 3.241 v -2.149 c 0,-0.091 0,-0.259 -0.168,-0.259 -0.175,0 -0.175,0.161 -0.175,0.259 v 2.149 H 0.749 c -0.091,0 -0.259,0 -0.259,0.168 0,0.175 0.161,0.175 0.259,0.175 h 2.149 v 2.149 c 0,0.091 0,0.259 0.168,0.259 0.175,0 0.175,-0.161 0.175,-0.259 v -2.149 z"
           inkscape:connector-curvature="0" />
        <path
           id="equation_07_02"
           d="m 2.345,-4.452 c 0,-0.189 -0.014,-0.196 -0.21,-0.196 C 1.687,-4.207 1.05,-4.2 0.763,-4.2 v 0.252 c 0.168,0 0.63,0 1.015,-0.196 v 3.57 c 0,0.231 0,0.322 -0.7,0.322 H 0.812 V 0 c 0.126,-0.007 0.987,-0.028 1.246,-0.028 0.217,0 1.099,0.021 1.253,0.028 V -0.252 H 3.045 c -0.7,0 -0.7,-0.091 -0.7,-0.322 v -3.878 z"
           inkscape:connector-curvature="0" />
        <path
           id="equation_07_03"
           d="m 3.073,-4.375 c 0,-0.119 -0.091,-0.266 -0.28,-0.266 -0.203,0 -0.392,0.196 -0.392,0.385 0,0.112 0.084,0.266 0.28,0.266 0.189,0 0.392,-0.182 0.392,-0.385 z M 1.589,0.343 C 1.47,0.826 1.099,1.232 0.686,1.232 0.595,1.232 0.511,1.218 0.434,1.19 0.616,1.106 0.672,0.938 0.672,0.833 0.672,0.665 0.539,0.574 0.399,0.574 0.182,0.574 0,0.763 0,0.987 c 0,0.266 0.273,0.441 0.693,0.441 0.42,0 1.239,-0.252 1.456,-1.106 l 0.63,-2.506 c 0.021,-0.077 0.035,-0.14 0.035,-0.245 0,-0.385 -0.329,-0.658 -0.749,-0.658 -0.777,0 -1.225,0.973 -1.225,1.071 0,0.091 0.098,0.091 0.119,0.091 0.084,0 0.091,-0.021 0.14,-0.126 0.175,-0.406 0.539,-0.84 0.945,-0.84 0.175,0 0.238,0.119 0.238,0.343 0,0.077 -0.014,0.175 -0.021,0.21 L 1.589,0.343 z"
           inkscape:connector-curvature="0" />
      </defs>
      <g
         id="equation_07_g">
        <use
           id="use5990"
           y="63"
           xlink:href="#equation_07_00"
           x="77"
           width="744.09448"
           height="1052.3622" />
        <use
           id="use5992"
           y="64.5"
           xlink:href="#equation_07_03"
           x="82.715302"
           width="744.09448"
           height="1052.3622" />
        <use
           id="use5994"
           y="64.5"
           xlink:href="#equation_07_01"
           x="86.428802"
           width="744.09448"
           height="1052.3622" />
        <use
           id="use5996"
           y="64.5"
           xlink:href="#equation_07_02"
           x="92.567802"
           width="744.09448"
           height="1052.3622" />
      </g>
    </g>
    <path
       style="fill:none;stroke:#000000;stroke-width:1;stroke-linecap:butt;stroke-linejoin:miter;stroke-miterlimit:4;stroke-opacity:1;stroke-dasharray:8, 8;stroke-dashoffset:0;marker-end:url(#Arrow1Mend)"
       d="m 234.6547,113.7434 57.46645,69.7807"
       id="path6123"
       inkscape:connector-curvature="0"
       sodipodi:nodetypes="cc" />
    <path
       style="fill:none;stroke:#000000;stroke-width:1;stroke-linecap:butt;stroke-linejoin:miter;stroke-miterlimit:4;stroke-opacity:1;stroke-dasharray:8, 8;stroke-dashoffset:0;marker-end:url(#Arrow1Mend)"
       d="m 234.65469,295.72051 58.15058,-79.35844"
       id="path6125"
       inkscape:connector-curvature="0"
       sodipodi:nodetypes="cc" />
    <path
       style="fill:none;stroke:#000000;stroke-width:1;stroke-linecap:butt;stroke-linejoin:miter;stroke-opacity:1;marker-end:url(#Arrow1Mend);stroke-miterlimit:4;stroke-dasharray:8,8;stroke-dashoffset:0"
       d="m 348.21935,255.35717 74.56957,-28.0491"
       id="path6127"
       inkscape:connector-curvature="0"
       sodipodi:nodetypes="cc" />
    <path
       style="fill:none;stroke:#000000;stroke-width:1;stroke-linecap:butt;stroke-linejoin:miter;stroke-opacity:1;marker-end:url(#Arrow1Mend);stroke-miterlimit:4;stroke-dasharray:8,8;stroke-dashoffset:0"
       d="m 348.90348,292.29989 79.35844,-56.0982"
       id="path6129"
       inkscape:connector-curvature="0"
       sodipodi:nodetypes="cc" />
    <path
       style="fill:none;stroke:#000000;stroke-width:1;stroke-linecap:butt;stroke-linejoin:miter;stroke-opacity:1;marker-end:url(#Arrow1Mend);stroke-miterlimit:4;stroke-dasharray:8,8;stroke-dashoffset:0"
       d="m 348.90348,141.79251 73.88544,67.72832"
       id="path6151"
       inkscape:connector-curvature="0"
       sodipodi:nodetypes="cc" />
    <g
       id="equation_08"
       style="fill:#000000"
       title="$h_1$"
       transform="matrix(3.0264351,0,0,3.0264351,64.50629,18.434074)">
      <defs
         id="defs3232">
        <path
           d="m 2.87,-6.83 c 0,-0.01 0,-0.11 -0.13,-0.11 -0.23,0 -0.96,0.08 -1.22,0.1 -0.08,0.01 -0.19,0.02 -0.19,0.2 0,0.12 0.09,0.12 0.24,0.12 0.48,0 0.5,0.07 0.5,0.17 l -0.03,0.2 -1.45,5.76 c -0.04,0.14 -0.04,0.16 -0.04,0.22 0,0.23 0.2,0.28 0.29,0.28 0.16,0 0.32,-0.12 0.37,-0.26 L 1.4,-0.91 1.62,-1.81 C 1.68,-2.03 1.74,-2.25 1.79,-2.48 1.81,-2.54 1.89,-2.87 1.9,-2.93 1.93,-3.02 2.24,-3.58 2.58,-3.85 2.8,-4.01 3.11,-4.2 3.54,-4.2 c 0.43,0 0.54,0.34 0.54,0.7 0,0.54 -0.38,1.63 -0.62,2.24 -0.08,0.23 -0.13,0.35 -0.13,0.55 0,0.47 0.35,0.82 0.82,0.82 0.94,0 1.31,-1.46 1.31,-1.54 0,-0.1 -0.09,-0.1 -0.12,-0.1 -0.1,0 -0.1,0.03 -0.15,0.18 -0.15,0.53 -0.47,1.24 -1.02,1.24 -0.17,0 -0.24,-0.1 -0.24,-0.33 0,-0.25 0.09,-0.49 0.18,-0.71 0.16,-0.43 0.61,-1.62 0.61,-2.2 0,-0.65 -0.4,-1.07 -1.15,-1.07 -0.63,0 -1.11,0.31 -1.48,0.77 l 0.78,-3.18 z"
           id="equation_08_00"
           inkscape:connector-curvature="0" />
        <path
           d="m 2.345,-4.452 c 0,-0.189 -0.014,-0.196 -0.21,-0.196 C 1.687,-4.207 1.05,-4.2 0.763,-4.2 v 0.252 c 0.168,0 0.63,0 1.015,-0.196 v 3.57 c 0,0.231 0,0.322 -0.7,0.322 H 0.812 V 0 c 0.126,-0.007 0.987,-0.028 1.246,-0.028 0.217,0 1.099,0.021 1.253,0.028 V -0.252 H 3.045 c -0.7,0 -0.7,-0.091 -0.7,-0.322 v -3.878 z"
           id="equation_08_01"
           inkscape:connector-curvature="0" />
      </defs>
      <g
         id="equation_08_g">
        <use
           x="77"
           xlink:href="#equation_08_00"
           y="63"
           id="use3237"
           width="744.09448"
           height="1052.3622" />
        <use
           x="82.761597"
           xlink:href="#equation_08_01"
           y="64.5"
           id="use3239"
           width="744.09448"
           height="1052.3622" />
      </g>
    </g>
    <g
       title="$h_2$"
       style="fill:#000000"
       id="equation_09"
       transform="matrix(3.0264351,0,0,3.0264351,199.96294,37.589559)">
      <defs
         id="defs3500">
        <path
           id="equation_09_00"
           d="m 2.87,-6.83 c 0,-0.01 0,-0.11 -0.13,-0.11 -0.23,0 -0.96,0.08 -1.22,0.1 -0.08,0.01 -0.19,0.02 -0.19,0.2 0,0.12 0.09,0.12 0.24,0.12 0.48,0 0.5,0.07 0.5,0.17 l -0.03,0.2 -1.45,5.76 c -0.04,0.14 -0.04,0.16 -0.04,0.22 0,0.23 0.2,0.28 0.29,0.28 0.16,0 0.32,-0.12 0.37,-0.26 L 1.4,-0.91 1.62,-1.81 C 1.68,-2.03 1.74,-2.25 1.79,-2.48 1.81,-2.54 1.89,-2.87 1.9,-2.93 1.93,-3.02 2.24,-3.58 2.58,-3.85 2.8,-4.01 3.11,-4.2 3.54,-4.2 c 0.43,0 0.54,0.34 0.54,0.7 0,0.54 -0.38,1.63 -0.62,2.24 -0.08,0.23 -0.13,0.35 -0.13,0.55 0,0.47 0.35,0.82 0.82,0.82 0.94,0 1.31,-1.46 1.31,-1.54 0,-0.1 -0.09,-0.1 -0.12,-0.1 -0.1,0 -0.1,0.03 -0.15,0.18 -0.15,0.53 -0.47,1.24 -1.02,1.24 -0.17,0 -0.24,-0.1 -0.24,-0.33 0,-0.25 0.09,-0.49 0.18,-0.71 0.16,-0.43 0.61,-1.62 0.61,-2.2 0,-0.65 -0.4,-1.07 -1.15,-1.07 -0.63,0 -1.11,0.31 -1.48,0.77 l 0.78,-3.18 z"
           inkscape:connector-curvature="0" />
        <path
           id="equation_09_01"
           d="M 3.535,-1.274 H 3.297 C 3.276,-1.12 3.206,-0.707 3.115,-0.637 3.059,-0.595 2.52,-0.595 2.422,-0.595 H 1.134 c 0.735,-0.651 0.98,-0.847 1.4,-1.176 0.518,-0.413 1.001,-0.847 1.001,-1.512 0,-0.847 -0.742,-1.365 -1.638,-1.365 -0.868,0 -1.456,0.609 -1.456,1.253 0,0.357 0.301,0.392 0.371,0.392 0.168,0 0.371,-0.119 0.371,-0.371 0,-0.126 -0.049,-0.371 -0.413,-0.371 0.217,-0.497 0.693,-0.651 1.022,-0.651 0.7,0 1.064,0.546 1.064,1.113 0,0.609 -0.434,1.092 -0.658,1.344 L 0.511,-0.273 C 0.441,-0.21 0.441,-0.196 0.441,0 h 2.884 l 0.21,-1.274 z"
           inkscape:connector-curvature="0" />
      </defs>
      <g
         id="equation_09_g">
        <use
           id="use3505"
           y="63"
           xlink:href="#equation_09_00"
           x="77"
           width="744.09448"
           height="1052.3622" />
        <use
           id="use3507"
           y="64.5"
           xlink:href="#equation_09_01"
           x="82.761597"
           width="744.09448"
           height="1052.3622" />
      </g>
    </g>
  </g>
</svg>
