<?xml version="1.0" encoding="UTF-8" standalone="no"?>
<!-- Created with Inkscape (http://www.inkscape.org/) -->

<svg
   xmlns:dc="http://purl.org/dc/elements/1.1/"
   xmlns:cc="http://creativecommons.org/ns#"
   xmlns:rdf="http://www.w3.org/1999/02/22-rdf-syntax-ns#"
   xmlns:svg="http://www.w3.org/2000/svg"
   xmlns="http://www.w3.org/2000/svg"
   xmlns:xlink="http://www.w3.org/1999/xlink"
   xmlns:sodipodi="http://sodipodi.sourceforge.net/DTD/sodipodi-0.dtd"
   xmlns:inkscape="http://www.inkscape.org/namespaces/inkscape"
   width="210mm"
   height="297mm"
   id="svg2"
   version="1.1"
   inkscape:version="0.48.4 r9939"
   inkscape:export-filename="\\euler\nineties\projects\prml-seminar\fig\neural-net-element.png"
   inkscape:export-xdpi="95.32"
   inkscape:export-ydpi="95.32"
   sodipodi:docname="decision-tree.svg">
  <sodipodi:namedview
     id="base"
     pagecolor="#ffffff"
     bordercolor="#666666"
     borderopacity="1.0"
     inkscape:pageopacity="0.0"
     inkscape:pageshadow="2"
     inkscape:zoom="0.7"
     inkscape:cx="489.15142"
     inkscape:cy="626.43695"
     inkscape:document-units="px"
     inkscape:current-layer="layer1"
     showgrid="false"
     inkscape:window-width="1366"
     inkscape:window-height="746"
     inkscape:window-x="-8"
     inkscape:window-y="-8"
     inkscape:window-maximized="1" />
  <defs
     id="defs4" />
  <metadata
     id="metadata7">
    <rdf:RDF>
      <cc:Work
         rdf:about="">
        <dc:format>image/svg+xml</dc:format>
        <dc:type
           rdf:resource="http://purl.org/dc/dcmitype/StillImage" />
        <dc:title></dc:title>
      </cc:Work>
    </rdf:RDF>
  </metadata>
  <g
     id="layer1"
     inkscape:groupmode="layer"
     inkscape:label="レイヤー 1">
    <path
       transform="translate(61.428571,-47.142857)"
       d="m 392.85714,383.07648 a 60.714287,60.714287 0 1 1 -121.42857,0 60.714287,60.714287 0 1 1 121.42857,0 z"
       sodipodi:ry="60.714287"
       sodipodi:rx="60.714287"
       sodipodi:cy="383.07648"
       sodipodi:cx="332.14285"
       id="path3227"
       style="fill:#ff0000;fill-opacity:0.19607843;stroke:#ff0000;stroke-width:1;stroke-linecap:round;stroke-miterlimit:4;stroke-opacity:1;stroke-dasharray:none;stroke-dashoffset:0"
       sodipodi:type="arc" />
    <g
       transform="matrix(4.5208892,0,0,4.5208892,-5.6904166,63.006247)"
       title="$&gt;\theta?$"
       style="fill:#000000"
       id="equation_00">
      <defs
         id="defs3236">
        <path
           inkscape:connector-curvature="0"
           id="equation_00_00"
           d="m 2.35,-2.49 c 0,-1.26 0.97,-1.97 1.32,-2.23 0.27,-0.2 0.48,-0.56 0.48,-0.98 0,-0.58 -0.4,-1.35 -1.89,-1.35 -1.08,0 -1.7,0.68 -1.7,1.33 0,0.34 0.23,0.48 0.46,0.48 0.28,0 0.46,-0.2 0.46,-0.46 0,-0.45 -0.42,-0.45 -0.56,-0.45 0.31,-0.53 0.89,-0.68 1.31,-0.68 1.09,0 1.09,0.68 1.09,1.07 0,0.59 -0.16,0.77 -0.34,0.95 -0.66,0.72 -0.88,1.64 -0.88,2.25 v 0.45 c 0,0.18 0,0.24 0.12,0.24 0.13,0 0.13,-0.09 0.13,-0.27 v -0.35 z m 0.4,1.96 c 0,-0.29 -0.24,-0.53 -0.53,-0.53 -0.29,0 -0.53,0.24 -0.53,0.53 0,0.29 0.24,0.53 0.53,0.53 0.29,0 0.53,-0.24 0.53,-0.53 z" />
        <path
           inkscape:connector-curvature="0"
           id="equation_00_01"
           d="m 4.55,-5 c 0,-0.66 -0.18,-2.05 -1.2,-2.05 -1.39,0 -2.93,2.82 -2.93,5.11 0,0.94 0.29,2.05 1.2,2.05 1.41,0 2.93,-2.87 2.93,-5.11 z m -3.07,1.37 c 0.17,-0.64 0.37,-1.44 0.77,-2.15 0.27,-0.49 0.64,-1.05 1.09,-1.05 0.49,0 0.55,0.64 0.55,1.21 0,0.49 -0.08,1 -0.32,1.99 H 1.48 z m 2,0.32 C 3.37,-2.85 3.16,-2 2.78,-1.28 2.43,-0.6 2.05,-0.11 1.62,-0.11 c -0.33,0 -0.54,-0.29 -0.54,-1.22 0,-0.42 0.06,-1 0.32,-1.98 h 2.08 z" />
        <path
           inkscape:connector-curvature="0"
           id="equation_00_02"
           d="m 6.75,-2.28 c 0.11,-0.05 0.19,-0.1 0.19,-0.22 0,-0.12 -0.08,-0.17 -0.19,-0.22 L 1.21,-5.33 C 1.08,-5.4 1.06,-5.4 1.03,-5.4 c -0.11,0 -0.2,0.09 -0.2,0.2 0,0.09 0.05,0.15 0.19,0.22 L 6.27,-2.5 1.02,-0.02 C 0.88,0.05 0.83,0.11 0.83,0.2 c 0,0.11 0.09,0.2 0.2,0.2 0.03,0 0.05,0 0.18,-0.07 l 5.54,-2.61 z" />
      </defs>
      <g
         id="equation_00_g">
        <use
           height="1052.3622"
           width="744.09448"
           id="use3242"
           y="63"
           xlink:href="#equation_00_02"
           x="77" />
        <use
           height="1052.3622"
           width="744.09448"
           id="use3244"
           y="63"
           xlink:href="#equation_00_01"
           x="87.555496" />
        <use
           height="1052.3622"
           width="744.09448"
           id="use3246"
           y="63"
           xlink:href="#equation_00_00"
           x="92.527702" />
      </g>
    </g>
    <g
       transform="matrix(4.5624588,0,0,4.5624588,-151.05674,-138.59615)"
       id="equation_01"
       style="fill:#000000"
       title="$x_1$">
      <defs
         id="defs3277">
        <path
           inkscape:connector-curvature="0"
           d="m 2.345,-4.452 c 0,-0.189 -0.014,-0.196 -0.21,-0.196 C 1.687,-4.207 1.05,-4.2 0.763,-4.2 v 0.252 c 0.168,0 0.63,0 1.015,-0.196 v 3.57 c 0,0.231 0,0.322 -0.7,0.322 H 0.812 V 0 c 0.126,-0.007 0.987,-0.028 1.246,-0.028 0.217,0 1.099,0.021 1.253,0.028 V -0.252 H 3.045 c -0.7,0 -0.7,-0.091 -0.7,-0.322 v -3.878 z"
           id="equation_01_00" />
        <path
           inkscape:connector-curvature="0"
           d="M 3.34,-3.02 C 3.4,-3.28 3.63,-4.2 4.33,-4.2 c 0.05,0 0.29,0 0.5,0.13 -0.28,0.05 -0.48,0.3 -0.48,0.54 0,0.16 0.11,0.35 0.38,0.35 0.22,0 0.54,-0.18 0.54,-0.58 0,-0.52 -0.59,-0.66 -0.93,-0.66 -0.58,0 -0.93,0.53 -1.05,0.76 -0.25,-0.66 -0.79,-0.76 -1.08,-0.76 -1.04,0 -1.61,1.29 -1.61,1.54 0,0.1 0.1,0.1 0.12,0.1 0.08,0 0.11,-0.02 0.13,-0.11 0.34,-1.06 1,-1.31 1.34,-1.31 0.19,0 0.54,0.09 0.54,0.67 0,0.31 -0.17,0.98 -0.54,2.38 -0.16,0.62 -0.51,1.04 -0.95,1.04 -0.06,0 -0.29,0 -0.5,-0.13 0.25,-0.05 0.47,-0.26 0.47,-0.54 0,-0.27 -0.22,-0.35 -0.37,-0.35 -0.3,0 -0.55,0.26 -0.55,0.58 0,0.46 0.5,0.66 0.94,0.66 0.66,0 1.02,-0.7 1.05,-0.76 0.12,0.37 0.48,0.76 1.08,0.76 1.03,0 1.6,-1.29 1.6,-1.54 0,-0.1 -0.09,-0.1 -0.12,-0.1 -0.09,0 -0.11,0.04 -0.13,0.11 -0.33,1.07 -1.01,1.31 -1.33,1.31 -0.39,0 -0.55,-0.32 -0.55,-0.66 0,-0.22 0.06,-0.44 0.17,-0.88 l 0.34,-1.37 z"
           id="equation_01_01" />
      </defs>
      <g
         id="equation_01_g">
        <use
           height="1052.3622"
           width="744.09448"
           x="77"
           xlink:href="#equation_01_01"
           y="63"
           id="use3282" />
        <use
           height="1052.3622"
           width="744.09448"
           x="82.715302"
           xlink:href="#equation_01_00"
           y="64.5"
           id="use3284" />
      </g>
    </g>
    <g
       transform="matrix(4.5624588,0,0,4.5624588,-83.91388,-138.59615)"
       title="$x_2$"
       style="fill:#000000"
       id="equation_02">
      <defs
         id="defs3329">
        <path
           inkscape:connector-curvature="0"
           id="equation_02_00"
           d="M 3.535,-1.274 H 3.297 C 3.276,-1.12 3.206,-0.707 3.115,-0.637 3.059,-0.595 2.52,-0.595 2.422,-0.595 H 1.134 c 0.735,-0.651 0.98,-0.847 1.4,-1.176 0.518,-0.413 1.001,-0.847 1.001,-1.512 0,-0.847 -0.742,-1.365 -1.638,-1.365 -0.868,0 -1.456,0.609 -1.456,1.253 0,0.357 0.301,0.392 0.371,0.392 0.168,0 0.371,-0.119 0.371,-0.371 0,-0.126 -0.049,-0.371 -0.413,-0.371 0.217,-0.497 0.693,-0.651 1.022,-0.651 0.7,0 1.064,0.546 1.064,1.113 0,0.609 -0.434,1.092 -0.658,1.344 L 0.511,-0.273 C 0.441,-0.21 0.441,-0.196 0.441,0 h 2.884 l 0.21,-1.274 z" />
        <path
           inkscape:connector-curvature="0"
           id="equation_02_01"
           d="M 3.34,-3.02 C 3.4,-3.28 3.63,-4.2 4.33,-4.2 c 0.05,0 0.29,0 0.5,0.13 -0.28,0.05 -0.48,0.3 -0.48,0.54 0,0.16 0.11,0.35 0.38,0.35 0.22,0 0.54,-0.18 0.54,-0.58 0,-0.52 -0.59,-0.66 -0.93,-0.66 -0.58,0 -0.93,0.53 -1.05,0.76 -0.25,-0.66 -0.79,-0.76 -1.08,-0.76 -1.04,0 -1.61,1.29 -1.61,1.54 0,0.1 0.1,0.1 0.12,0.1 0.08,0 0.11,-0.02 0.13,-0.11 0.34,-1.06 1,-1.31 1.34,-1.31 0.19,0 0.54,0.09 0.54,0.67 0,0.31 -0.17,0.98 -0.54,2.38 -0.16,0.62 -0.51,1.04 -0.95,1.04 -0.06,0 -0.29,0 -0.5,-0.13 0.25,-0.05 0.47,-0.26 0.47,-0.54 0,-0.27 -0.22,-0.35 -0.37,-0.35 -0.3,0 -0.55,0.26 -0.55,0.58 0,0.46 0.5,0.66 0.94,0.66 0.66,0 1.02,-0.7 1.05,-0.76 0.12,0.37 0.48,0.76 1.08,0.76 1.03,0 1.6,-1.29 1.6,-1.54 0,-0.1 -0.09,-0.1 -0.12,-0.1 -0.09,0 -0.11,0.04 -0.13,0.11 -0.33,1.07 -1.01,1.31 -1.33,1.31 -0.39,0 -0.55,-0.32 -0.55,-0.66 0,-0.22 0.06,-0.44 0.17,-0.88 l 0.34,-1.37 z" />
      </defs>
      <g
         id="equation_02_g">
        <use
           height="1052.3622"
           width="744.09448"
           id="use3334"
           y="63"
           xlink:href="#equation_02_01"
           x="77" />
        <use
           height="1052.3622"
           width="744.09448"
           id="use3336"
           y="64.5"
           xlink:href="#equation_02_00"
           x="82.715302" />
      </g>
    </g>
    <g
       transform="matrix(4.5624588,0,0,4.5624588,144.65755,-138.75584)"
       id="equation_03"
       style="fill:#000000"
       title="$x_m$">
      <defs
         id="defs3395">
        <path
           inkscape:connector-curvature="0"
           d="M 3.038,-0.567 C 3.003,-0.427 2.94,-0.189 2.94,-0.154 2.94,0 3.066,0.07 3.178,0.07 c 0.126,0 0.238,-0.091 0.273,-0.154 0.035,-0.063 0.091,-0.287 0.126,-0.434 0.035,-0.133 0.112,-0.455 0.154,-0.63 0.042,-0.154 0.084,-0.308 0.119,-0.469 0.077,-0.301 0.077,-0.315 0.217,-0.532 0.224,-0.343 0.574,-0.742 1.12,-0.742 0.392,0 0.413,0.322 0.413,0.49 0,0.42 -0.301,1.197 -0.413,1.491 -0.077,0.196 -0.105,0.259 -0.105,0.378 0,0.371 0.308,0.602 0.665,0.602 0.7,0 1.008,-0.966 1.008,-1.071 0,-0.091 -0.091,-0.091 -0.112,-0.091 -0.098,0 -0.105,0.042 -0.133,0.119 -0.161,0.56 -0.462,0.847 -0.742,0.847 -0.147,0 -0.175,-0.098 -0.175,-0.245 0,-0.161 0.035,-0.252 0.161,-0.567 0.084,-0.217 0.371,-0.959 0.371,-1.351 0,-0.112 0,-0.406 -0.259,-0.609 C 5.747,-2.989 5.544,-3.087 5.215,-3.087 4.585,-3.087 4.2,-2.674 3.976,-2.38 3.92,-2.975 3.423,-3.087 3.066,-3.087 2.485,-3.087 2.093,-2.73 1.883,-2.45 1.834,-2.933 1.421,-3.087 1.134,-3.087 c -0.301,0 -0.462,0.217 -0.553,0.378 -0.154,0.259 -0.252,0.658 -0.252,0.693 0,0.091 0.098,0.091 0.119,0.091 0.098,0 0.105,-0.021 0.154,-0.21 0.105,-0.413 0.238,-0.756 0.511,-0.756 0.182,0 0.231,0.154 0.231,0.343 0,0.133 -0.063,0.392 -0.112,0.581 -0.049,0.189 -0.119,0.476 -0.154,0.63 l -0.224,0.896 c -0.028,0.091 -0.07,0.266 -0.07,0.287 0,0.154 0.126,0.224 0.238,0.224 0.126,0 0.238,-0.091 0.273,-0.154 0.035,-0.063 0.091,-0.287 0.126,-0.434 0.035,-0.133 0.112,-0.455 0.154,-0.63 0.042,-0.154 0.084,-0.308 0.119,-0.469 0.077,-0.287 0.091,-0.343 0.294,-0.63 0.196,-0.28 0.525,-0.644 1.05,-0.644 0.406,0 0.413,0.357 0.413,0.49 0,0.175 -0.021,0.266 -0.119,0.658 l -0.294,1.176 z"
           id="equation_03_00" />
        <path
           inkscape:connector-curvature="0"
           d="M 3.34,-3.02 C 3.4,-3.28 3.63,-4.2 4.33,-4.2 c 0.05,0 0.29,0 0.5,0.13 -0.28,0.05 -0.48,0.3 -0.48,0.54 0,0.16 0.11,0.35 0.38,0.35 0.22,0 0.54,-0.18 0.54,-0.58 0,-0.52 -0.59,-0.66 -0.93,-0.66 -0.58,0 -0.93,0.53 -1.05,0.76 -0.25,-0.66 -0.79,-0.76 -1.08,-0.76 -1.04,0 -1.61,1.29 -1.61,1.54 0,0.1 0.1,0.1 0.12,0.1 0.08,0 0.11,-0.02 0.13,-0.11 0.34,-1.06 1,-1.31 1.34,-1.31 0.19,0 0.54,0.09 0.54,0.67 0,0.31 -0.17,0.98 -0.54,2.38 -0.16,0.62 -0.51,1.04 -0.95,1.04 -0.06,0 -0.29,0 -0.5,-0.13 0.25,-0.05 0.47,-0.26 0.47,-0.54 0,-0.27 -0.22,-0.35 -0.37,-0.35 -0.3,0 -0.55,0.26 -0.55,0.58 0,0.46 0.5,0.66 0.94,0.66 0.66,0 1.02,-0.7 1.05,-0.76 0.12,0.37 0.48,0.76 1.08,0.76 1.03,0 1.6,-1.29 1.6,-1.54 0,-0.1 -0.09,-0.1 -0.12,-0.1 -0.09,0 -0.11,0.04 -0.13,0.11 -0.33,1.07 -1.01,1.31 -1.33,1.31 -0.39,0 -0.55,-0.32 -0.55,-0.66 0,-0.22 0.06,-0.44 0.17,-0.88 l 0.34,-1.37 z"
           id="equation_03_01" />
      </defs>
      <g
         id="equation_03_g">
        <use
           height="1052.3622"
           width="744.09448"
           x="77"
           xlink:href="#equation_03_01"
           y="63"
           id="use3400" />
        <use
           height="1052.3622"
           width="744.09448"
           x="82.715302"
           xlink:href="#equation_03_00"
           y="64.5"
           id="use3402" />
      </g>
    </g>
    <g
       transform="matrix(4.5624588,0,0,4.5624588,-161.05674,-73.041554)"
       title="$w_1$"
       style="fill:#000000"
       id="equation_04">
      <defs
         id="defs3475">
        <path
           inkscape:connector-curvature="0"
           id="equation_04_00"
           d="m 2.345,-4.452 c 0,-0.189 -0.014,-0.196 -0.21,-0.196 C 1.687,-4.207 1.05,-4.2 0.763,-4.2 v 0.252 c 0.168,0 0.63,0 1.015,-0.196 v 3.57 c 0,0.231 0,0.322 -0.7,0.322 H 0.812 V 0 c 0.126,-0.007 0.987,-0.028 1.246,-0.028 0.217,0 1.099,0.021 1.253,0.028 V -0.252 H 3.045 c -0.7,0 -0.7,-0.091 -0.7,-0.322 v -3.878 z" />
        <path
           inkscape:connector-curvature="0"
           id="equation_04_01"
           d="m 4.62,-3.39 c 0.05,-0.22 0.15,-0.59 0.15,-0.65 0,-0.18 -0.14,-0.27 -0.29,-0.27 -0.12,0 -0.3,0.08 -0.37,0.28 -0.03,0.07 -0.5,1.98 -0.57,2.24 -0.07,0.3 -0.09,0.48 -0.09,0.66 0,0.11 0,0.13 0.01,0.18 -0.23,0.53 -0.53,0.84 -0.92,0.84 -0.8,0 -0.8,-0.74 -0.8,-0.91 0,-0.32 0.05,-0.71 0.52,-1.94 0.11,-0.3 0.17,-0.44 0.17,-0.64 0,-0.45 -0.33,-0.82 -0.82,-0.82 -0.95,0 -1.32,1.45 -1.32,1.54 0,0.1 0.1,0.1 0.12,0.1 0.1,0 0.11,-0.02 0.16,-0.18 0.27,-0.93 0.66,-1.24 1.01,-1.24 0.09,0 0.25,0.01 0.25,0.33 0,0.25 -0.11,0.53 -0.18,0.7 -0.44,1.18 -0.56,1.64 -0.56,2.02 0,0.91 0.67,1.26 1.42,1.26 0.17,0 0.64,0 1.04,-0.7 0.26,0.64 0.95,0.7 1.25,0.7 0.75,0 1.19,-0.63 1.45,-1.23 0.34,-0.78 0.66,-2.12 0.66,-2.6 0,-0.55 -0.27,-0.7 -0.44,-0.7 -0.25,0 -0.5,0.26 -0.5,0.48 0,0.13 0.06,0.19 0.15,0.27 0.11,0.11 0.36,0.37 0.36,0.85 0,0.34 -0.29,1.32 -0.55,1.83 -0.26,0.53 -0.61,0.88 -1.1,0.88 -0.47,0 -0.74,-0.3 -0.74,-0.87 0,-0.28 0.07,-0.59 0.11,-0.73 l 0.42,-1.68 z" />
      </defs>
      <g
         id="equation_04_g">
        <use
           height="1052.3622"
           width="744.09448"
           id="use3480"
           y="63"
           xlink:href="#equation_04_01"
           x="77" />
        <use
           height="1052.3622"
           width="744.09448"
           id="use3482"
           y="64.5"
           xlink:href="#equation_04_00"
           x="84.159203" />
      </g>
    </g>
    <g
       transform="matrix(4.5624588,0,0,4.5624588,-96.771023,-87.327269)"
       id="equation_05"
       style="fill:#000000"
       title="$w_2$">
      <defs
         id="defs3569">
        <path
           inkscape:connector-curvature="0"
           d="M 3.535,-1.274 H 3.297 C 3.276,-1.12 3.206,-0.707 3.115,-0.637 3.059,-0.595 2.52,-0.595 2.422,-0.595 H 1.134 c 0.735,-0.651 0.98,-0.847 1.4,-1.176 0.518,-0.413 1.001,-0.847 1.001,-1.512 0,-0.847 -0.742,-1.365 -1.638,-1.365 -0.868,0 -1.456,0.609 -1.456,1.253 0,0.357 0.301,0.392 0.371,0.392 0.168,0 0.371,-0.119 0.371,-0.371 0,-0.126 -0.049,-0.371 -0.413,-0.371 0.217,-0.497 0.693,-0.651 1.022,-0.651 0.7,0 1.064,0.546 1.064,1.113 0,0.609 -0.434,1.092 -0.658,1.344 L 0.511,-0.273 C 0.441,-0.21 0.441,-0.196 0.441,0 h 2.884 l 0.21,-1.274 z"
           id="equation_05_00" />
        <path
           inkscape:connector-curvature="0"
           d="m 4.62,-3.39 c 0.05,-0.22 0.15,-0.59 0.15,-0.65 0,-0.18 -0.14,-0.27 -0.29,-0.27 -0.12,0 -0.3,0.08 -0.37,0.28 -0.03,0.07 -0.5,1.98 -0.57,2.24 -0.07,0.3 -0.09,0.48 -0.09,0.66 0,0.11 0,0.13 0.01,0.18 -0.23,0.53 -0.53,0.84 -0.92,0.84 -0.8,0 -0.8,-0.74 -0.8,-0.91 0,-0.32 0.05,-0.71 0.52,-1.94 0.11,-0.3 0.17,-0.44 0.17,-0.64 0,-0.45 -0.33,-0.82 -0.82,-0.82 -0.95,0 -1.32,1.45 -1.32,1.54 0,0.1 0.1,0.1 0.12,0.1 0.1,0 0.11,-0.02 0.16,-0.18 0.27,-0.93 0.66,-1.24 1.01,-1.24 0.09,0 0.25,0.01 0.25,0.33 0,0.25 -0.11,0.53 -0.18,0.7 -0.44,1.18 -0.56,1.64 -0.56,2.02 0,0.91 0.67,1.26 1.42,1.26 0.17,0 0.64,0 1.04,-0.7 0.26,0.64 0.95,0.7 1.25,0.7 0.75,0 1.19,-0.63 1.45,-1.23 0.34,-0.78 0.66,-2.12 0.66,-2.6 0,-0.55 -0.27,-0.7 -0.44,-0.7 -0.25,0 -0.5,0.26 -0.5,0.48 0,0.13 0.06,0.19 0.15,0.27 0.11,0.11 0.36,0.37 0.36,0.85 0,0.34 -0.29,1.32 -0.55,1.83 -0.26,0.53 -0.61,0.88 -1.1,0.88 -0.47,0 -0.74,-0.3 -0.74,-0.87 0,-0.28 0.07,-0.59 0.11,-0.73 l 0.42,-1.68 z"
           id="equation_05_01" />
      </defs>
      <g
         id="equation_05_g">
        <use
           height="1052.3622"
           width="744.09448"
           x="77"
           xlink:href="#equation_05_01"
           y="63"
           id="use3574" />
        <use
           height="1052.3622"
           width="744.09448"
           x="84.159203"
           xlink:href="#equation_05_00"
           y="64.5"
           id="use3576" />
      </g>
    </g>
    <g
       transform="matrix(4.5624588,0,0,4.5624588,144.35034,-76.678856)"
       title="$w_m$"
       style="fill:#000000"
       id="equation_06">
      <defs
         id="defs3677">
        <path
           inkscape:connector-curvature="0"
           id="equation_06_00"
           d="M 3.038,-0.567 C 3.003,-0.427 2.94,-0.189 2.94,-0.154 2.94,0 3.066,0.07 3.178,0.07 c 0.126,0 0.238,-0.091 0.273,-0.154 0.035,-0.063 0.091,-0.287 0.126,-0.434 0.035,-0.133 0.112,-0.455 0.154,-0.63 0.042,-0.154 0.084,-0.308 0.119,-0.469 0.077,-0.301 0.077,-0.315 0.217,-0.532 0.224,-0.343 0.574,-0.742 1.12,-0.742 0.392,0 0.413,0.322 0.413,0.49 0,0.42 -0.301,1.197 -0.413,1.491 -0.077,0.196 -0.105,0.259 -0.105,0.378 0,0.371 0.308,0.602 0.665,0.602 0.7,0 1.008,-0.966 1.008,-1.071 0,-0.091 -0.091,-0.091 -0.112,-0.091 -0.098,0 -0.105,0.042 -0.133,0.119 -0.161,0.56 -0.462,0.847 -0.742,0.847 -0.147,0 -0.175,-0.098 -0.175,-0.245 0,-0.161 0.035,-0.252 0.161,-0.567 0.084,-0.217 0.371,-0.959 0.371,-1.351 0,-0.112 0,-0.406 -0.259,-0.609 C 5.747,-2.989 5.544,-3.087 5.215,-3.087 4.585,-3.087 4.2,-2.674 3.976,-2.38 3.92,-2.975 3.423,-3.087 3.066,-3.087 2.485,-3.087 2.093,-2.73 1.883,-2.45 1.834,-2.933 1.421,-3.087 1.134,-3.087 c -0.301,0 -0.462,0.217 -0.553,0.378 -0.154,0.259 -0.252,0.658 -0.252,0.693 0,0.091 0.098,0.091 0.119,0.091 0.098,0 0.105,-0.021 0.154,-0.21 0.105,-0.413 0.238,-0.756 0.511,-0.756 0.182,0 0.231,0.154 0.231,0.343 0,0.133 -0.063,0.392 -0.112,0.581 -0.049,0.189 -0.119,0.476 -0.154,0.63 l -0.224,0.896 c -0.028,0.091 -0.07,0.266 -0.07,0.287 0,0.154 0.126,0.224 0.238,0.224 0.126,0 0.238,-0.091 0.273,-0.154 0.035,-0.063 0.091,-0.287 0.126,-0.434 0.035,-0.133 0.112,-0.455 0.154,-0.63 0.042,-0.154 0.084,-0.308 0.119,-0.469 0.077,-0.287 0.091,-0.343 0.294,-0.63 0.196,-0.28 0.525,-0.644 1.05,-0.644 0.406,0 0.413,0.357 0.413,0.49 0,0.175 -0.021,0.266 -0.119,0.658 l -0.294,1.176 z" />
        <path
           inkscape:connector-curvature="0"
           id="equation_06_01"
           d="m 4.62,-3.39 c 0.05,-0.22 0.15,-0.59 0.15,-0.65 0,-0.18 -0.14,-0.27 -0.29,-0.27 -0.12,0 -0.3,0.08 -0.37,0.28 -0.03,0.07 -0.5,1.98 -0.57,2.24 -0.07,0.3 -0.09,0.48 -0.09,0.66 0,0.11 0,0.13 0.01,0.18 -0.23,0.53 -0.53,0.84 -0.92,0.84 -0.8,0 -0.8,-0.74 -0.8,-0.91 0,-0.32 0.05,-0.71 0.52,-1.94 0.11,-0.3 0.17,-0.44 0.17,-0.64 0,-0.45 -0.33,-0.82 -0.82,-0.82 -0.95,0 -1.32,1.45 -1.32,1.54 0,0.1 0.1,0.1 0.12,0.1 0.1,0 0.11,-0.02 0.16,-0.18 0.27,-0.93 0.66,-1.24 1.01,-1.24 0.09,0 0.25,0.01 0.25,0.33 0,0.25 -0.11,0.53 -0.18,0.7 -0.44,1.18 -0.56,1.64 -0.56,2.02 0,0.91 0.67,1.26 1.42,1.26 0.17,0 0.64,0 1.04,-0.7 0.26,0.64 0.95,0.7 1.25,0.7 0.75,0 1.19,-0.63 1.45,-1.23 0.34,-0.78 0.66,-2.12 0.66,-2.6 0,-0.55 -0.27,-0.7 -0.44,-0.7 -0.25,0 -0.5,0.26 -0.5,0.48 0,0.13 0.06,0.19 0.15,0.27 0.11,0.11 0.36,0.37 0.36,0.85 0,0.34 -0.29,1.32 -0.55,1.83 -0.26,0.53 -0.61,0.88 -1.1,0.88 -0.47,0 -0.74,-0.3 -0.74,-0.87 0,-0.28 0.07,-0.59 0.11,-0.73 l 0.42,-1.68 z" />
      </defs>
      <g
         id="equation_06_g">
        <use
           height="1052.3622"
           width="744.09448"
           id="use3682"
           y="63"
           xlink:href="#equation_06_01"
           x="77" />
        <use
           height="1052.3622"
           width="744.09448"
           id="use3684"
           y="64.5"
           xlink:href="#equation_06_00"
           x="84.159203" />
      </g>
    </g>
    <path
       sodipodi:nodetypes="cc"
       inkscape:connector-curvature="0"
       id="path3880"
       d="M 515.71429,162.36218 425.71428,285.21933"
       style="fill:none;stroke:#000000;stroke-width:1px;stroke-linecap:butt;stroke-linejoin:miter;stroke-opacity:1" />
    <path
       sodipodi:nodetypes="cc"
       inkscape:connector-curvature="0"
       id="path3882"
       d="M 221.42857,160.93361 347.14286,299.50504"
       style="fill:none;stroke:#000000;stroke-width:1px;stroke-linecap:butt;stroke-linejoin:miter;stroke-opacity:1" />
    <path
       sodipodi:nodetypes="cc"
       inkscape:connector-curvature="0"
       id="path3882-0"
       d="M 290.71428,159.50504 356.42857,286.6479"
       style="fill:none;stroke:#000000;stroke-width:1px;stroke-linecap:butt;stroke-linejoin:miter;stroke-opacity:1" />
    <path
       sodipodi:nodetypes="cc"
       inkscape:connector-curvature="0"
       id="path3882-0-6"
       d="m 347.14285,161.6479 25.71429,115.71428"
       style="fill:none;stroke:#000000;stroke-width:1px;stroke-linecap:butt;stroke-linejoin:miter;stroke-opacity:1" />
    <path
       inkscape:connector-curvature="0"
       id="path3922"
       d="m 391.42857,396.6479 0,80"
       style="fill:none;stroke:#000000;stroke-width:1px;stroke-linecap:butt;stroke-linejoin:miter;stroke-opacity:1" />
    <g
       title="$0\ \text{or}\ 1$"
       style="fill:#000000"
       id="equation_08"
       transform="matrix(4.5152725,0,0,4.5152725,66.524489,179.0924)">
      <defs
         id="defs3999">
        <path
           id="equation_08_00"
           d="M 4.6,-3.2 C 4.6,-4 4.55,-4.8 4.2,-5.54 3.74,-6.5 2.92,-6.66 2.5,-6.66 1.9,-6.66 1.17,-6.4 0.76,-5.47 0.44,-4.78 0.39,-4 0.39,-3.2 c 0,0.75 0.04,1.65 0.45,2.41 C 1.27,0.02 2,0.22 2.49,0.22 3.03,0.22 3.79,0.01 4.23,-0.94 4.55,-1.63 4.6,-2.41 4.6,-3.2 z M 2.49,0 C 2.1,0 1.51,-0.25 1.33,-1.21 1.22,-1.81 1.22,-2.73 1.22,-3.32 c 0,-0.64 0,-1.3 0.08,-1.84 0.19,-1.19 0.94,-1.28 1.19,-1.28 0.33,0 0.99,0.18 1.18,1.17 0.1,0.56 0.1,1.32 0.1,1.95 0,0.75 0,1.43 -0.11,2.07 C 3.51,-0.3 2.94,0 2.49,0 z"
           inkscape:connector-curvature="0" />
        <path
           id="equation_08_01"
           d="m 2.94,-6.4 c 0,-0.24 0,-0.26 -0.23,-0.26 -0.62,0.64 -1.5,0.64 -1.82,0.64 v 0.31 c 0.2,0 0.79,0 1.31,-0.26 v 5.18 c 0,0.36 -0.03,0.48 -0.93,0.48 H 0.95 V 0 c 0.35,-0.03 1.22,-0.03 1.62,-0.03 0.4,0 1.27,0 1.62,0.03 V -0.31 H 3.87 c -0.9,0 -0.93,-0.11 -0.93,-0.48 V -6.4 z"
           inkscape:connector-curvature="0" />
        <path
           id="equation_08_02"
           d="m 4.71,-2.14 c 0,-1.28 -1,-2.34 -2.21,-2.34 -1.25,0 -2.22,1.09 -2.22,2.34 0,1.29 1.04,2.25 2.21,2.25 1.21,0 2.22,-0.98 2.22,-2.25 z m -2.21,2 c -0.43,0 -0.87,-0.21 -1.14,-0.67 -0.25,-0.44 -0.25,-1.05 -0.25,-1.41 0,-0.39 0,-0.93 0.24,-1.37 0.27,-0.46 0.74,-0.67 1.14,-0.67 0.44,0 0.87,0.22 1.13,0.65 0.26,0.43 0.26,1.01 0.26,1.39 0,0.36 0,0.9 -0.22,1.34 C 3.44,-0.43 3,-0.14 2.5,-0.14 z"
           inkscape:connector-curvature="0" />
        <path
           id="equation_08_03"
           d="m 1.67,-3.32 v -1.1 L 0.28,-4.31 V -4 c 0.7,0 0.78,0.07 0.78,0.56 v 2.68 c 0,0.45 -0.11,0.45 -0.78,0.45 V 0 c 0.39,-0.01 0.86,-0.03 1.14,-0.03 0.4,0 0.87,0 1.27,0.03 V -0.31 H 2.48 c -0.74,0 -0.76,-0.11 -0.76,-0.47 v -1.54 c 0,-0.99 0.42,-1.88 1.18,-1.88 0.07,0 0.09,0 0.11,0.01 -0.03,0.01 -0.23,0.13 -0.23,0.39 0,0.28 0.21,0.43 0.43,0.43 0.18,0 0.43,-0.12 0.43,-0.44 0,-0.32 -0.31,-0.61 -0.74,-0.61 -0.73,0 -1.09,0.67 -1.23,1.1 z"
           inkscape:connector-curvature="0" />
      </defs>
      <g
         id="equation_08_g">
        <use
           id="use4006"
           y="63"
           xlink:href="#equation_08_00"
           x="77"
           width="744.09448"
           height="1052.3622" />
        <use
           id="use4008"
           y="63"
           xlink:href="#equation_08_02"
           x="85.333298"
           width="744.09448"
           height="1052.3622" />
        <use
           id="use4010"
           y="63"
           xlink:href="#equation_08_03"
           x="90.333397"
           width="744.09448"
           height="1052.3622" />
        <use
           id="use4012"
           y="63"
           xlink:href="#equation_08_01"
           x="97.583397"
           width="744.09448"
           height="1052.3622" />
      </g>
    </g>
  </g>
</svg>
