<?xml version="1.0" encoding="UTF-8" standalone="no"?>
<!-- Created with Inkscape (http://www.inkscape.org/) -->

<svg
   xmlns:dc="http://purl.org/dc/elements/1.1/"
   xmlns:cc="http://creativecommons.org/ns#"
   xmlns:rdf="http://www.w3.org/1999/02/22-rdf-syntax-ns#"
   xmlns:svg="http://www.w3.org/2000/svg"
   xmlns="http://www.w3.org/2000/svg"
   xmlns:xlink="http://www.w3.org/1999/xlink"
   xmlns:sodipodi="http://sodipodi.sourceforge.net/DTD/sodipodi-0.dtd"
   xmlns:inkscape="http://www.inkscape.org/namespaces/inkscape"
   width="210mm"
   height="297mm"
   id="svg2"
   version="1.1"
   inkscape:version="0.48.4 r9939"
   inkscape:export-filename="\\euler\nineties\projects\prml-seminar\fig\neural-net-element.png"
   inkscape:export-xdpi="95.32"
   inkscape:export-ydpi="95.32"
   sodipodi:docname="neural-net-element2.svg">
  <sodipodi:namedview
     id="base"
     pagecolor="#ffffff"
     bordercolor="#666666"
     borderopacity="1.0"
     inkscape:pageopacity="0.0"
     inkscape:pageshadow="2"
     inkscape:zoom="0.7"
     inkscape:cx="7.0085671"
     inkscape:cy="626.43695"
     inkscape:document-units="px"
     inkscape:current-layer="layer1"
     showgrid="false"
     inkscape:window-width="1366"
     inkscape:window-height="746"
     inkscape:window-x="-8"
     inkscape:window-y="-8"
     inkscape:window-maximized="1" />
  <defs
     id="defs4">
    <marker
       style="overflow:visible;"
       id="Arrow1Lend"
       refX="0.0"
       refY="0.0"
       orient="auto"
       inkscape:stockid="Arrow1Lend">
      <path
         transform="scale(0.8) rotate(180) translate(12.5,0)"
         style="fill-rule:evenodd;stroke:#000000;stroke-width:1.0pt;"
         d="M 0.0,0.0 L 5.0,-5.0 L -12.5,0.0 L 5.0,5.0 L 0.0,0.0 z "
         id="path3920" />
    </marker>
    <marker
       style="overflow:visible"
       id="Arrow1Lend-1"
       refX="0"
       refY="0"
       orient="auto"
       inkscape:stockid="Arrow1Lend">
      <path
         inkscape:connector-curvature="0"
         transform="matrix(-0.8,0,0,-0.8,-10,0)"
         style="fill-rule:evenodd;stroke:#000000;stroke-width:1pt"
         d="M 0,0 5,-5 -12.5,0 5,5 0,0 z"
         id="path3920-7" />
    </marker>
  </defs>
  <metadata
     id="metadata7">
    <rdf:RDF>
      <cc:Work
         rdf:about="">
        <dc:format>image/svg+xml</dc:format>
        <dc:type
           rdf:resource="http://purl.org/dc/dcmitype/StillImage" />
        <dc:title></dc:title>
      </cc:Work>
    </rdf:RDF>
  </metadata>
  <g
     inkscape:label="レイヤー 1"
     inkscape:groupmode="layer"
     id="layer1">
    <path
       sodipodi:type="arc"
       style="fill:#ff0000;fill-opacity:0.19607843;stroke:#ff0000;stroke-width:1;stroke-linecap:round;stroke-miterlimit:4;stroke-opacity:1;stroke-dasharray:none;stroke-dashoffset:0"
       id="path3227"
       sodipodi:cx="332.14285"
       sodipodi:cy="383.07648"
       sodipodi:rx="60.714287"
       sodipodi:ry="60.714287"
       d="m 392.85714,383.07648 a 60.714287,60.714287 0 1 1 -121.42857,0 60.714287,60.714287 0 1 1 121.42857,0 z"
       transform="matrix(0.63827305,0,0,0.63827305,169.43073,67.8548)" />
    <g
       title="$x_1$"
       style="fill:#000000"
       id="equation_01"
       transform="matrix(4.5624588,0,0,4.5624588,-86.77103,-140.05288)">
      <defs
         id="defs3277">
        <path
           id="equation_01_00"
           d="m 2.345,-4.452 c 0,-0.189 -0.014,-0.196 -0.21,-0.196 C 1.687,-4.207 1.05,-4.2 0.763,-4.2 v 0.252 c 0.168,0 0.63,0 1.015,-0.196 v 3.57 c 0,0.231 0,0.322 -0.7,0.322 H 0.812 V 0 c 0.126,-0.007 0.987,-0.028 1.246,-0.028 0.217,0 1.099,0.021 1.253,0.028 V -0.252 H 3.045 c -0.7,0 -0.7,-0.091 -0.7,-0.322 v -3.878 z"
           inkscape:connector-curvature="0" />
        <path
           id="equation_01_01"
           d="M 3.34,-3.02 C 3.4,-3.28 3.63,-4.2 4.33,-4.2 c 0.05,0 0.29,0 0.5,0.13 -0.28,0.05 -0.48,0.3 -0.48,0.54 0,0.16 0.11,0.35 0.38,0.35 0.22,0 0.54,-0.18 0.54,-0.58 0,-0.52 -0.59,-0.66 -0.93,-0.66 -0.58,0 -0.93,0.53 -1.05,0.76 -0.25,-0.66 -0.79,-0.76 -1.08,-0.76 -1.04,0 -1.61,1.29 -1.61,1.54 0,0.1 0.1,0.1 0.12,0.1 0.08,0 0.11,-0.02 0.13,-0.11 0.34,-1.06 1,-1.31 1.34,-1.31 0.19,0 0.54,0.09 0.54,0.67 0,0.31 -0.17,0.98 -0.54,2.38 -0.16,0.62 -0.51,1.04 -0.95,1.04 -0.06,0 -0.29,0 -0.5,-0.13 0.25,-0.05 0.47,-0.26 0.47,-0.54 0,-0.27 -0.22,-0.35 -0.37,-0.35 -0.3,0 -0.55,0.26 -0.55,0.58 0,0.46 0.5,0.66 0.94,0.66 0.66,0 1.02,-0.7 1.05,-0.76 0.12,0.37 0.48,0.76 1.08,0.76 1.03,0 1.6,-1.29 1.6,-1.54 0,-0.1 -0.09,-0.1 -0.12,-0.1 -0.09,0 -0.11,0.04 -0.13,0.11 -0.33,1.07 -1.01,1.31 -1.33,1.31 -0.39,0 -0.55,-0.32 -0.55,-0.66 0,-0.22 0.06,-0.44 0.17,-0.88 l 0.34,-1.37 z"
           inkscape:connector-curvature="0" />
      </defs>
      <g
         id="equation_01_g">
        <use
           id="use3282"
           y="63"
           xlink:href="#equation_01_01"
           x="77"
           width="744.09448"
           height="1052.3622" />
        <use
           id="use3284"
           y="64.5"
           xlink:href="#equation_01_00"
           x="82.715302"
           width="744.09448"
           height="1052.3622" />
      </g>
    </g>
    <g
       id="equation_02"
       style="fill:#000000"
       title="$x_2$"
       transform="matrix(4.5624588,0,0,4.5624588,-19.628165,-140.05288)">
      <defs
         id="defs3329">
        <path
           d="M 3.535,-1.274 H 3.297 C 3.276,-1.12 3.206,-0.707 3.115,-0.637 3.059,-0.595 2.52,-0.595 2.422,-0.595 H 1.134 c 0.735,-0.651 0.98,-0.847 1.4,-1.176 0.518,-0.413 1.001,-0.847 1.001,-1.512 0,-0.847 -0.742,-1.365 -1.638,-1.365 -0.868,0 -1.456,0.609 -1.456,1.253 0,0.357 0.301,0.392 0.371,0.392 0.168,0 0.371,-0.119 0.371,-0.371 0,-0.126 -0.049,-0.371 -0.413,-0.371 0.217,-0.497 0.693,-0.651 1.022,-0.651 0.7,0 1.064,0.546 1.064,1.113 0,0.609 -0.434,1.092 -0.658,1.344 L 0.511,-0.273 C 0.441,-0.21 0.441,-0.196 0.441,0 h 2.884 l 0.21,-1.274 z"
           id="equation_02_00"
           inkscape:connector-curvature="0" />
        <path
           d="M 3.34,-3.02 C 3.4,-3.28 3.63,-4.2 4.33,-4.2 c 0.05,0 0.29,0 0.5,0.13 -0.28,0.05 -0.48,0.3 -0.48,0.54 0,0.16 0.11,0.35 0.38,0.35 0.22,0 0.54,-0.18 0.54,-0.58 0,-0.52 -0.59,-0.66 -0.93,-0.66 -0.58,0 -0.93,0.53 -1.05,0.76 -0.25,-0.66 -0.79,-0.76 -1.08,-0.76 -1.04,0 -1.61,1.29 -1.61,1.54 0,0.1 0.1,0.1 0.12,0.1 0.08,0 0.11,-0.02 0.13,-0.11 0.34,-1.06 1,-1.31 1.34,-1.31 0.19,0 0.54,0.09 0.54,0.67 0,0.31 -0.17,0.98 -0.54,2.38 -0.16,0.62 -0.51,1.04 -0.95,1.04 -0.06,0 -0.29,0 -0.5,-0.13 0.25,-0.05 0.47,-0.26 0.47,-0.54 0,-0.27 -0.22,-0.35 -0.37,-0.35 -0.3,0 -0.55,0.26 -0.55,0.58 0,0.46 0.5,0.66 0.94,0.66 0.66,0 1.02,-0.7 1.05,-0.76 0.12,0.37 0.48,0.76 1.08,0.76 1.03,0 1.6,-1.29 1.6,-1.54 0,-0.1 -0.09,-0.1 -0.12,-0.1 -0.09,0 -0.11,0.04 -0.13,0.11 -0.33,1.07 -1.01,1.31 -1.33,1.31 -0.39,0 -0.55,-0.32 -0.55,-0.66 0,-0.22 0.06,-0.44 0.17,-0.88 l 0.34,-1.37 z"
           id="equation_02_01"
           inkscape:connector-curvature="0" />
      </defs>
      <g
         id="equation_02_g">
        <use
           x="77"
           xlink:href="#equation_02_01"
           y="63"
           id="use3334"
           width="744.09448"
           height="1052.3622" />
        <use
           x="82.715302"
           xlink:href="#equation_02_00"
           y="64.5"
           id="use3336"
           width="744.09448"
           height="1052.3622" />
      </g>
    </g>
    <g
       title="$x_m$"
       style="fill:#000000"
       id="equation_03"
       transform="matrix(4.5624588,0,0,4.5624588,48.943264,-140.21257)">
      <defs
         id="defs3395">
        <path
           id="equation_03_00"
           d="M 3.038,-0.567 C 3.003,-0.427 2.94,-0.189 2.94,-0.154 2.94,0 3.066,0.07 3.178,0.07 c 0.126,0 0.238,-0.091 0.273,-0.154 0.035,-0.063 0.091,-0.287 0.126,-0.434 0.035,-0.133 0.112,-0.455 0.154,-0.63 0.042,-0.154 0.084,-0.308 0.119,-0.469 0.077,-0.301 0.077,-0.315 0.217,-0.532 0.224,-0.343 0.574,-0.742 1.12,-0.742 0.392,0 0.413,0.322 0.413,0.49 0,0.42 -0.301,1.197 -0.413,1.491 -0.077,0.196 -0.105,0.259 -0.105,0.378 0,0.371 0.308,0.602 0.665,0.602 0.7,0 1.008,-0.966 1.008,-1.071 0,-0.091 -0.091,-0.091 -0.112,-0.091 -0.098,0 -0.105,0.042 -0.133,0.119 -0.161,0.56 -0.462,0.847 -0.742,0.847 -0.147,0 -0.175,-0.098 -0.175,-0.245 0,-0.161 0.035,-0.252 0.161,-0.567 0.084,-0.217 0.371,-0.959 0.371,-1.351 0,-0.112 0,-0.406 -0.259,-0.609 C 5.747,-2.989 5.544,-3.087 5.215,-3.087 4.585,-3.087 4.2,-2.674 3.976,-2.38 3.92,-2.975 3.423,-3.087 3.066,-3.087 2.485,-3.087 2.093,-2.73 1.883,-2.45 1.834,-2.933 1.421,-3.087 1.134,-3.087 c -0.301,0 -0.462,0.217 -0.553,0.378 -0.154,0.259 -0.252,0.658 -0.252,0.693 0,0.091 0.098,0.091 0.119,0.091 0.098,0 0.105,-0.021 0.154,-0.21 0.105,-0.413 0.238,-0.756 0.511,-0.756 0.182,0 0.231,0.154 0.231,0.343 0,0.133 -0.063,0.392 -0.112,0.581 -0.049,0.189 -0.119,0.476 -0.154,0.63 l -0.224,0.896 c -0.028,0.091 -0.07,0.266 -0.07,0.287 0,0.154 0.126,0.224 0.238,0.224 0.126,0 0.238,-0.091 0.273,-0.154 0.035,-0.063 0.091,-0.287 0.126,-0.434 0.035,-0.133 0.112,-0.455 0.154,-0.63 0.042,-0.154 0.084,-0.308 0.119,-0.469 0.077,-0.287 0.091,-0.343 0.294,-0.63 0.196,-0.28 0.525,-0.644 1.05,-0.644 0.406,0 0.413,0.357 0.413,0.49 0,0.175 -0.021,0.266 -0.119,0.658 l -0.294,1.176 z"
           inkscape:connector-curvature="0" />
        <path
           id="equation_03_01"
           d="M 3.34,-3.02 C 3.4,-3.28 3.63,-4.2 4.33,-4.2 c 0.05,0 0.29,0 0.5,0.13 -0.28,0.05 -0.48,0.3 -0.48,0.54 0,0.16 0.11,0.35 0.38,0.35 0.22,0 0.54,-0.18 0.54,-0.58 0,-0.52 -0.59,-0.66 -0.93,-0.66 -0.58,0 -0.93,0.53 -1.05,0.76 -0.25,-0.66 -0.79,-0.76 -1.08,-0.76 -1.04,0 -1.61,1.29 -1.61,1.54 0,0.1 0.1,0.1 0.12,0.1 0.08,0 0.11,-0.02 0.13,-0.11 0.34,-1.06 1,-1.31 1.34,-1.31 0.19,0 0.54,0.09 0.54,0.67 0,0.31 -0.17,0.98 -0.54,2.38 -0.16,0.62 -0.51,1.04 -0.95,1.04 -0.06,0 -0.29,0 -0.5,-0.13 0.25,-0.05 0.47,-0.26 0.47,-0.54 0,-0.27 -0.22,-0.35 -0.37,-0.35 -0.3,0 -0.55,0.26 -0.55,0.58 0,0.46 0.5,0.66 0.94,0.66 0.66,0 1.02,-0.7 1.05,-0.76 0.12,0.37 0.48,0.76 1.08,0.76 1.03,0 1.6,-1.29 1.6,-1.54 0,-0.1 -0.09,-0.1 -0.12,-0.1 -0.09,0 -0.11,0.04 -0.13,0.11 -0.33,1.07 -1.01,1.31 -1.33,1.31 -0.39,0 -0.55,-0.32 -0.55,-0.66 0,-0.22 0.06,-0.44 0.17,-0.88 l 0.34,-1.37 z"
           inkscape:connector-curvature="0" />
      </defs>
      <g
         transform="translate(21.918006,0)"
         id="equation_03_g">
        <use
           id="use3400"
           y="63"
           xlink:href="#equation_03_01"
           x="77"
           width="744.09448"
           height="1052.3622" />
        <use
           id="use3402"
           y="64.5"
           xlink:href="#equation_03_00"
           x="82.715302"
           width="744.09448"
           height="1052.3622" />
      </g>
    </g>
    <g
       id="equation_04"
       style="fill:#000000"
       title="$w_1$"
       transform="matrix(3.8841985,0,0,3.8841985,-36.84822,-42.623629)">
      <defs
         id="defs3475">
        <path
           d="m 2.345,-4.452 c 0,-0.189 -0.014,-0.196 -0.21,-0.196 C 1.687,-4.207 1.05,-4.2 0.763,-4.2 v 0.252 c 0.168,0 0.63,0 1.015,-0.196 v 3.57 c 0,0.231 0,0.322 -0.7,0.322 H 0.812 V 0 c 0.126,-0.007 0.987,-0.028 1.246,-0.028 0.217,0 1.099,0.021 1.253,0.028 V -0.252 H 3.045 c -0.7,0 -0.7,-0.091 -0.7,-0.322 v -3.878 z"
           id="equation_04_00"
           inkscape:connector-curvature="0" />
        <path
           d="m 4.62,-3.39 c 0.05,-0.22 0.15,-0.59 0.15,-0.65 0,-0.18 -0.14,-0.27 -0.29,-0.27 -0.12,0 -0.3,0.08 -0.37,0.28 -0.03,0.07 -0.5,1.98 -0.57,2.24 -0.07,0.3 -0.09,0.48 -0.09,0.66 0,0.11 0,0.13 0.01,0.18 -0.23,0.53 -0.53,0.84 -0.92,0.84 -0.8,0 -0.8,-0.74 -0.8,-0.91 0,-0.32 0.05,-0.71 0.52,-1.94 0.11,-0.3 0.17,-0.44 0.17,-0.64 0,-0.45 -0.33,-0.82 -0.82,-0.82 -0.95,0 -1.32,1.45 -1.32,1.54 0,0.1 0.1,0.1 0.12,0.1 0.1,0 0.11,-0.02 0.16,-0.18 0.27,-0.93 0.66,-1.24 1.01,-1.24 0.09,0 0.25,0.01 0.25,0.33 0,0.25 -0.11,0.53 -0.18,0.7 -0.44,1.18 -0.56,1.64 -0.56,2.02 0,0.91 0.67,1.26 1.42,1.26 0.17,0 0.64,0 1.04,-0.7 0.26,0.64 0.95,0.7 1.25,0.7 0.75,0 1.19,-0.63 1.45,-1.23 0.34,-0.78 0.66,-2.12 0.66,-2.6 0,-0.55 -0.27,-0.7 -0.44,-0.7 -0.25,0 -0.5,0.26 -0.5,0.48 0,0.13 0.06,0.19 0.15,0.27 0.11,0.11 0.36,0.37 0.36,0.85 0,0.34 -0.29,1.32 -0.55,1.83 -0.26,0.53 -0.61,0.88 -1.1,0.88 -0.47,0 -0.74,-0.3 -0.74,-0.87 0,-0.28 0.07,-0.59 0.11,-0.73 l 0.42,-1.68 z"
           id="equation_04_01"
           inkscape:connector-curvature="0" />
      </defs>
      <g
         id="equation_04_g">
        <use
           x="77"
           xlink:href="#equation_04_01"
           y="63"
           id="use3480"
           width="744.09448"
           height="1052.3622" />
        <use
           x="84.159203"
           xlink:href="#equation_04_00"
           y="64.5"
           id="use3482"
           width="744.09448"
           height="1052.3622" />
      </g>
    </g>
    <g
       title="$w_2$"
       style="fill:#000000"
       id="equation_05"
       transform="matrix(3.8841985,0,0,3.8841985,12.166422,-42.623629)">
      <defs
         id="defs3569">
        <path
           id="equation_05_00"
           d="M 3.535,-1.274 H 3.297 C 3.276,-1.12 3.206,-0.707 3.115,-0.637 3.059,-0.595 2.52,-0.595 2.422,-0.595 H 1.134 c 0.735,-0.651 0.98,-0.847 1.4,-1.176 0.518,-0.413 1.001,-0.847 1.001,-1.512 0,-0.847 -0.742,-1.365 -1.638,-1.365 -0.868,0 -1.456,0.609 -1.456,1.253 0,0.357 0.301,0.392 0.371,0.392 0.168,0 0.371,-0.119 0.371,-0.371 0,-0.126 -0.049,-0.371 -0.413,-0.371 0.217,-0.497 0.693,-0.651 1.022,-0.651 0.7,0 1.064,0.546 1.064,1.113 0,0.609 -0.434,1.092 -0.658,1.344 L 0.511,-0.273 C 0.441,-0.21 0.441,-0.196 0.441,0 h 2.884 l 0.21,-1.274 z"
           inkscape:connector-curvature="0" />
        <path
           id="equation_05_01"
           d="m 4.62,-3.39 c 0.05,-0.22 0.15,-0.59 0.15,-0.65 0,-0.18 -0.14,-0.27 -0.29,-0.27 -0.12,0 -0.3,0.08 -0.37,0.28 -0.03,0.07 -0.5,1.98 -0.57,2.24 -0.07,0.3 -0.09,0.48 -0.09,0.66 0,0.11 0,0.13 0.01,0.18 -0.23,0.53 -0.53,0.84 -0.92,0.84 -0.8,0 -0.8,-0.74 -0.8,-0.91 0,-0.32 0.05,-0.71 0.52,-1.94 0.11,-0.3 0.17,-0.44 0.17,-0.64 0,-0.45 -0.33,-0.82 -0.82,-0.82 -0.95,0 -1.32,1.45 -1.32,1.54 0,0.1 0.1,0.1 0.12,0.1 0.1,0 0.11,-0.02 0.16,-0.18 0.27,-0.93 0.66,-1.24 1.01,-1.24 0.09,0 0.25,0.01 0.25,0.33 0,0.25 -0.11,0.53 -0.18,0.7 -0.44,1.18 -0.56,1.64 -0.56,2.02 0,0.91 0.67,1.26 1.42,1.26 0.17,0 0.64,0 1.04,-0.7 0.26,0.64 0.95,0.7 1.25,0.7 0.75,0 1.19,-0.63 1.45,-1.23 0.34,-0.78 0.66,-2.12 0.66,-2.6 0,-0.55 -0.27,-0.7 -0.44,-0.7 -0.25,0 -0.5,0.26 -0.5,0.48 0,0.13 0.06,0.19 0.15,0.27 0.11,0.11 0.36,0.37 0.36,0.85 0,0.34 -0.29,1.32 -0.55,1.83 -0.26,0.53 -0.61,0.88 -1.1,0.88 -0.47,0 -0.74,-0.3 -0.74,-0.87 0,-0.28 0.07,-0.59 0.11,-0.73 l 0.42,-1.68 z"
           inkscape:connector-curvature="0" />
      </defs>
      <g
         id="equation_05_g">
        <use
           id="use3574"
           y="63"
           xlink:href="#equation_05_01"
           x="77"
           width="744.09448"
           height="1052.3622" />
        <use
           id="use3576"
           y="64.5"
           xlink:href="#equation_05_00"
           x="84.159203"
           width="744.09448"
           height="1052.3622" />
      </g>
    </g>
    <g
       id="equation_06"
       style="fill:#000000"
       title="$w_m$"
       transform="matrix(3.8841985,0,0,3.8841985,170.29955,-42.759576)">
      <defs
         id="defs3677">
        <path
           d="M 3.038,-0.567 C 3.003,-0.427 2.94,-0.189 2.94,-0.154 2.94,0 3.066,0.07 3.178,0.07 c 0.126,0 0.238,-0.091 0.273,-0.154 0.035,-0.063 0.091,-0.287 0.126,-0.434 0.035,-0.133 0.112,-0.455 0.154,-0.63 0.042,-0.154 0.084,-0.308 0.119,-0.469 0.077,-0.301 0.077,-0.315 0.217,-0.532 0.224,-0.343 0.574,-0.742 1.12,-0.742 0.392,0 0.413,0.322 0.413,0.49 0,0.42 -0.301,1.197 -0.413,1.491 -0.077,0.196 -0.105,0.259 -0.105,0.378 0,0.371 0.308,0.602 0.665,0.602 0.7,0 1.008,-0.966 1.008,-1.071 0,-0.091 -0.091,-0.091 -0.112,-0.091 -0.098,0 -0.105,0.042 -0.133,0.119 -0.161,0.56 -0.462,0.847 -0.742,0.847 -0.147,0 -0.175,-0.098 -0.175,-0.245 0,-0.161 0.035,-0.252 0.161,-0.567 0.084,-0.217 0.371,-0.959 0.371,-1.351 0,-0.112 0,-0.406 -0.259,-0.609 C 5.747,-2.989 5.544,-3.087 5.215,-3.087 4.585,-3.087 4.2,-2.674 3.976,-2.38 3.92,-2.975 3.423,-3.087 3.066,-3.087 2.485,-3.087 2.093,-2.73 1.883,-2.45 1.834,-2.933 1.421,-3.087 1.134,-3.087 c -0.301,0 -0.462,0.217 -0.553,0.378 -0.154,0.259 -0.252,0.658 -0.252,0.693 0,0.091 0.098,0.091 0.119,0.091 0.098,0 0.105,-0.021 0.154,-0.21 0.105,-0.413 0.238,-0.756 0.511,-0.756 0.182,0 0.231,0.154 0.231,0.343 0,0.133 -0.063,0.392 -0.112,0.581 -0.049,0.189 -0.119,0.476 -0.154,0.63 l -0.224,0.896 c -0.028,0.091 -0.07,0.266 -0.07,0.287 0,0.154 0.126,0.224 0.238,0.224 0.126,0 0.238,-0.091 0.273,-0.154 0.035,-0.063 0.091,-0.287 0.126,-0.434 0.035,-0.133 0.112,-0.455 0.154,-0.63 0.042,-0.154 0.084,-0.308 0.119,-0.469 0.077,-0.287 0.091,-0.343 0.294,-0.63 0.196,-0.28 0.525,-0.644 1.05,-0.644 0.406,0 0.413,0.357 0.413,0.49 0,0.175 -0.021,0.266 -0.119,0.658 l -0.294,1.176 z"
           id="equation_06_00"
           inkscape:connector-curvature="0" />
        <path
           d="m 4.62,-3.39 c 0.05,-0.22 0.15,-0.59 0.15,-0.65 0,-0.18 -0.14,-0.27 -0.29,-0.27 -0.12,0 -0.3,0.08 -0.37,0.28 -0.03,0.07 -0.5,1.98 -0.57,2.24 -0.07,0.3 -0.09,0.48 -0.09,0.66 0,0.11 0,0.13 0.01,0.18 -0.23,0.53 -0.53,0.84 -0.92,0.84 -0.8,0 -0.8,-0.74 -0.8,-0.91 0,-0.32 0.05,-0.71 0.52,-1.94 0.11,-0.3 0.17,-0.44 0.17,-0.64 0,-0.45 -0.33,-0.82 -0.82,-0.82 -0.95,0 -1.32,1.45 -1.32,1.54 0,0.1 0.1,0.1 0.12,0.1 0.1,0 0.11,-0.02 0.16,-0.18 0.27,-0.93 0.66,-1.24 1.01,-1.24 0.09,0 0.25,0.01 0.25,0.33 0,0.25 -0.11,0.53 -0.18,0.7 -0.44,1.18 -0.56,1.64 -0.56,2.02 0,0.91 0.67,1.26 1.42,1.26 0.17,0 0.64,0 1.04,-0.7 0.26,0.64 0.95,0.7 1.25,0.7 0.75,0 1.19,-0.63 1.45,-1.23 0.34,-0.78 0.66,-2.12 0.66,-2.6 0,-0.55 -0.27,-0.7 -0.44,-0.7 -0.25,0 -0.5,0.26 -0.5,0.48 0,0.13 0.06,0.19 0.15,0.27 0.11,0.11 0.36,0.37 0.36,0.85 0,0.34 -0.29,1.32 -0.55,1.83 -0.26,0.53 -0.61,0.88 -1.1,0.88 -0.47,0 -0.74,-0.3 -0.74,-0.87 0,-0.28 0.07,-0.59 0.11,-0.73 l 0.42,-1.68 z"
           id="equation_06_01"
           inkscape:connector-curvature="0" />
      </defs>
      <g
         id="equation_06_g"
         transform="translate(-8.0913917,0)">
        <use
           x="77"
           xlink:href="#equation_06_01"
           y="63"
           id="use3682"
           width="744.09448"
           height="1052.3622" />
        <use
           x="84.159203"
           xlink:href="#equation_06_00"
           y="64.5"
           id="use3684"
           width="744.09448"
           height="1052.3622" />
      </g>
    </g>
    <path
       style="fill:none;stroke:#000000;stroke-width:1px;stroke-linecap:butt;stroke-linejoin:miter;stroke-opacity:1;marker-end:url(#Arrow1Lend)"
       d="M 424.28571,163.79075 397.14285,276.6479"
       id="path3880"
       inkscape:connector-curvature="0"
       sodipodi:nodetypes="cc" />
    <path
       style="fill:none;stroke:#000000;stroke-width:1px;stroke-linecap:butt;stroke-linejoin:miter;stroke-opacity:1;marker-end:url(#Arrow1Lend)"
       d="M 221.42857,160.93361 347.14286,299.50504"
       id="path3882"
       inkscape:connector-curvature="0"
       sodipodi:nodetypes="cc" />
    <path
       style="fill:none;stroke:#000000;stroke-width:1px;stroke-linecap:butt;stroke-linejoin:miter;stroke-opacity:1;marker-end:url(#Arrow1Lend)"
       d="M 290.71428,159.50504 356.42857,286.6479"
       id="path3882-0"
       inkscape:connector-curvature="0"
       sodipodi:nodetypes="cc" />
    <path
       style="fill:none;stroke:#000000;stroke-width:1px;stroke-linecap:butt;stroke-linejoin:miter;stroke-opacity:1;marker-end:url(#Arrow1Lend)"
       d="m 347.14285,161.6479 25.71429,115.71428"
       id="path3882-0-6"
       inkscape:connector-curvature="0"
       sodipodi:nodetypes="cc" />
    <path
       style="fill:none;stroke:#000000;stroke-width:1px;stroke-linecap:butt;stroke-linejoin:miter;stroke-opacity:1;marker-end:url(#Arrow1Lend)"
       d="m 380,350.93361 0,80"
       id="path3922"
       inkscape:connector-curvature="0" />
    <g
       title="$h$"
       style="fill:#000000"
       id="equation_00"
       transform="matrix(6.4711246,0,0,6.4711246,-134.28571,-73.854107)">
      <defs
         id="defs4595">
        <path
           id="equation_00_00"
           d="m 2.87,-6.83 c 0,-0.01 0,-0.11 -0.13,-0.11 -0.23,0 -0.96,0.08 -1.22,0.1 -0.08,0.01 -0.19,0.02 -0.19,0.2 0,0.12 0.09,0.12 0.24,0.12 0.48,0 0.5,0.07 0.5,0.17 l -0.03,0.2 -1.45,5.76 c -0.04,0.14 -0.04,0.16 -0.04,0.22 0,0.23 0.2,0.28 0.29,0.28 0.16,0 0.32,-0.12 0.37,-0.26 L 1.4,-0.91 1.62,-1.81 C 1.68,-2.03 1.74,-2.25 1.79,-2.48 1.81,-2.54 1.89,-2.87 1.9,-2.93 1.93,-3.02 2.24,-3.58 2.58,-3.85 2.8,-4.01 3.11,-4.2 3.54,-4.2 c 0.43,0 0.54,0.34 0.54,0.7 0,0.54 -0.38,1.63 -0.62,2.24 -0.08,0.23 -0.13,0.35 -0.13,0.55 0,0.47 0.35,0.82 0.82,0.82 0.94,0 1.31,-1.46 1.31,-1.54 0,-0.1 -0.09,-0.1 -0.12,-0.1 -0.1,0 -0.1,0.03 -0.15,0.18 -0.15,0.53 -0.47,1.24 -1.02,1.24 -0.17,0 -0.24,-0.1 -0.24,-0.33 0,-0.25 0.09,-0.49 0.18,-0.71 0.16,-0.43 0.61,-1.62 0.61,-2.2 0,-0.65 -0.4,-1.07 -1.15,-1.07 -0.63,0 -1.11,0.31 -1.48,0.77 l 0.78,-3.18 z"
           inkscape:connector-curvature="0" />
      </defs>
      <g
         id="equation_00_g">
        <use
           id="use4599"
           y="63"
           xlink:href="#equation_00_00"
           x="77"
           width="744.09448"
           height="1052.3622" />
      </g>
    </g>
    <path
       style="fill:none;stroke:#000000;stroke-width:1px;stroke-linecap:butt;stroke-linejoin:miter;stroke-opacity:1;marker-end:url(#Arrow1Lend)"
       d="M 519.56615,171.64789 415.28043,295.93361"
       id="path3882-0-6-4"
       inkscape:connector-curvature="0"
       sodipodi:nodetypes="cc" />
    <g
       id="equation_07"
       style="fill:#000000"
       title="$1$"
       transform="matrix(3.2743775,0,0,3.2743775,-44.092851,-56.830109)">
      <defs
         id="defs4747">
        <path
           d="m 2.94,-6.4 c 0,-0.24 0,-0.26 -0.23,-0.26 -0.62,0.64 -1.5,0.64 -1.82,0.64 v 0.31 c 0.2,0 0.79,0 1.31,-0.26 v 5.18 c 0,0.36 -0.03,0.48 -0.93,0.48 H 0.95 V 0 c 0.35,-0.03 1.22,-0.03 1.62,-0.03 0.4,0 1.27,0 1.62,0.03 V -0.31 H 3.87 c -0.9,0 -0.93,-0.11 -0.93,-0.48 V -6.4 z"
           id="equation_07_00"
           inkscape:connector-curvature="0" />
      </defs>
      <g
         id="equation_07_g">
        <use
           x="77"
           xlink:href="#equation_07_00"
           y="63"
           id="use4751"
           width="744.09448"
           height="1052.3622" />
      </g>
    </g>
    <g
       transform="matrix(3.9985655,0,0,3.9985655,-107.47341,-49.941674)"
       id="equation_09"
       style="fill:#000000"
       title="$w_0$">
      <defs
         id="defs3136">
        <path
           inkscape:connector-curvature="0"
           d="m 4.62,-3.39 c 0.05,-0.22 0.15,-0.59 0.15,-0.65 0,-0.18 -0.14,-0.27 -0.29,-0.27 -0.12,0 -0.3,0.08 -0.37,0.28 -0.03,0.07 -0.5,1.98 -0.57,2.24 -0.07,0.3 -0.09,0.48 -0.09,0.66 0,0.11 0,0.13 0.01,0.18 -0.23,0.53 -0.53,0.84 -0.92,0.84 -0.8,0 -0.8,-0.74 -0.8,-0.91 0,-0.32 0.05,-0.71 0.52,-1.94 0.11,-0.3 0.17,-0.44 0.17,-0.64 0,-0.45 -0.33,-0.82 -0.82,-0.82 -0.95,0 -1.32,1.45 -1.32,1.54 0,0.1 0.1,0.1 0.12,0.1 0.1,0 0.11,-0.02 0.16,-0.18 0.27,-0.93 0.66,-1.24 1.01,-1.24 0.09,0 0.25,0.01 0.25,0.33 0,0.25 -0.11,0.53 -0.18,0.7 -0.44,1.18 -0.56,1.64 -0.56,2.02 0,0.91 0.67,1.26 1.42,1.26 0.17,0 0.64,0 1.04,-0.7 0.26,0.64 0.95,0.7 1.25,0.7 0.75,0 1.19,-0.63 1.45,-1.23 0.34,-0.78 0.66,-2.12 0.66,-2.6 0,-0.55 -0.27,-0.7 -0.44,-0.7 -0.25,0 -0.5,0.26 -0.5,0.48 0,0.13 0.06,0.19 0.15,0.27 0.11,0.11 0.36,0.37 0.36,0.85 0,0.34 -0.29,1.32 -0.55,1.83 -0.26,0.53 -0.61,0.88 -1.1,0.88 -0.47,0 -0.74,-0.3 -0.74,-0.87 0,-0.28 0.07,-0.59 0.11,-0.73 l 0.42,-1.68 z"
           id="equation_09_00" />
        <path
           inkscape:connector-curvature="0"
           d="m 3.612,-2.233 c 0,-0.77 -0.091,-1.323 -0.413,-1.813 -0.217,-0.322 -0.651,-0.602 -1.211,-0.602 -1.624,0 -1.624,1.911 -1.624,2.415 0,0.504 0,2.373 1.624,2.373 1.624,0 1.624,-1.869 1.624,-2.373 z m -1.624,2.177 c -0.322,0 -0.749,-0.189 -0.889,-0.763 -0.098,-0.413 -0.098,-0.987 -0.098,-1.505 0,-0.511 0,-1.043 0.105,-1.428 0.147,-0.553 0.595,-0.7 0.882,-0.7 0.378,0 0.742,0.231 0.868,0.637 0.112,0.378 0.119,0.882 0.119,1.491 0,0.518 0,1.036 -0.091,1.477 -0.14,0.637 -0.616,0.791 -0.896,0.791 z"
           id="equation_09_01" />
      </defs>
      <g
         id="equation_09_g">
        <use
           height="1052.3622"
           width="744.09448"
           x="77"
           xlink:href="#equation_09_00"
           y="63"
           id="use3141" />
        <use
           height="1052.3622"
           width="744.09448"
           x="84.159203"
           xlink:href="#equation_09_01"
           y="64.5"
           id="use3143" />
      </g>
    </g>
    <g
       title="$\cdots$"
       style="fill:#000000"
       id="equation_08"
       transform="matrix(6.3457517,0,0,6.3457517,-87.648798,-244.87046)">
      <defs
         id="defs3306">
        <path
           id="equation_08_00"
           d="m 1.92,-2.5 c 0,-0.29 -0.24,-0.53 -0.53,-0.53 -0.29,0 -0.53,0.24 -0.53,0.53 0,0.29 0.24,0.53 0.53,0.53 0.29,0 0.53,-0.24 0.53,-0.53 z"
           inkscape:connector-curvature="0" />
      </defs>
      <g
         id="equation_08_g">
        <use
           id="use3310"
           y="63"
           xlink:href="#equation_08_00"
           x="77"
           width="744.09448"
           height="1052.3622" />
        <use
           id="use3312"
           y="63"
           xlink:href="#equation_08_00"
           x="81.444397"
           width="744.09448"
           height="1052.3622" />
        <use
           id="use3314"
           y="63"
           xlink:href="#equation_08_00"
           x="85.888802"
           width="744.09448"
           height="1052.3622" />
      </g>
    </g>
  </g>
</svg>
