<?xml version="1.0" encoding="UTF-8" standalone="no"?>
<!-- Created with Inkscape (http://www.inkscape.org/) -->

<svg
   xmlns:dc="http://purl.org/dc/elements/1.1/"
   xmlns:cc="http://creativecommons.org/ns#"
   xmlns:rdf="http://www.w3.org/1999/02/22-rdf-syntax-ns#"
   xmlns:svg="http://www.w3.org/2000/svg"
   xmlns="http://www.w3.org/2000/svg"
   xmlns:xlink="http://www.w3.org/1999/xlink"
   xmlns:sodipodi="http://sodipodi.sourceforge.net/DTD/sodipodi-0.dtd"
   xmlns:inkscape="http://www.inkscape.org/namespaces/inkscape"
   width="210mm"
   height="297mm"
   id="svg2"
   version="1.1"
   inkscape:version="0.48.4 r9939"
   sodipodi:docname="neural-network3.svg"
   inkscape:export-filename="\\EULER\nineties\projects\prml-seminar\fig\neural-network3.png"
   inkscape:export-xdpi="95.32"
   inkscape:export-ydpi="95.32">
  <sodipodi:namedview
     id="base"
     pagecolor="#ffffff"
     bordercolor="#666666"
     borderopacity="1.0"
     inkscape:pageopacity="0.0"
     inkscape:pageshadow="2"
     inkscape:zoom="1.4617223"
     inkscape:cx="310.53216"
     inkscape:cy="764.12071"
     inkscape:document-units="px"
     inkscape:current-layer="layer1"
     showgrid="false"
     inkscape:window-width="1366"
     inkscape:window-height="746"
     inkscape:window-x="-8"
     inkscape:window-y="-8"
     inkscape:window-maximized="1" />
  <defs
     id="defs4">
    <marker
       style="overflow:visible;"
       id="Arrow1Mend"
       refX="0.0"
       refY="0.0"
       orient="auto"
       inkscape:stockid="Arrow1Mend">
      <path
         transform="scale(0.4) rotate(180) translate(10,0)"
         style="fill-rule:evenodd;stroke:#000000;stroke-width:1.0pt;"
         d="M 0.0,0.0 L 5.0,-5.0 L -12.5,0.0 L 5.0,5.0 L 0.0,0.0 z "
         id="path3788" />
    </marker>
    <marker
       style="overflow:visible;"
       id="Arrow1Lend"
       refX="0.0"
       refY="0.0"
       orient="auto"
       inkscape:stockid="Arrow1Lend">
      <path
         transform="scale(0.8) rotate(180) translate(12.5,0)"
         style="fill-rule:evenodd;stroke:#000000;stroke-width:1.0pt;"
         d="M 0.0,0.0 L 5.0,-5.0 L -12.5,0.0 L 5.0,5.0 L 0.0,0.0 z "
         id="path3782" />
    </marker>
  </defs>
  <metadata
     id="metadata7">
    <rdf:RDF>
      <cc:Work
         rdf:about="">
        <dc:format>image/svg+xml</dc:format>
        <dc:type
           rdf:resource="http://purl.org/dc/dcmitype/StillImage" />
        <dc:title></dc:title>
      </cc:Work>
    </rdf:RDF>
  </metadata>
  <g
     id="layer1"
     inkscape:groupmode="layer"
     inkscape:label="レイヤー 1">
    <path
       d="m 355.07179,403.17096 a 24.187452,24.187452 0 1 1 -48.3749,0 24.187452,24.187452 0 1 1 48.3749,0 z"
       sodipodi:ry="24.187452"
       sodipodi:rx="24.187452"
       sodipodi:cy="403.17096"
       sodipodi:cx="330.88434"
       id="path2985-1-1"
       style="fill:#0000ff;fill-opacity:0.19607843;stroke:#0000ff;stroke-width:1;stroke-linecap:round;stroke-linejoin:round;stroke-miterlimit:4;stroke-opacity:1;stroke-dasharray:none;stroke-dashoffset:0"
       sodipodi:type="arc"
       transform="translate(-13.792644,-139.24891)" />
    <path
       d="m 355.07179,403.17096 a 24.187452,24.187452 0 1 1 -48.3749,0 24.187452,24.187452 0 1 1 48.3749,0 z"
       sodipodi:ry="24.187452"
       sodipodi:rx="24.187452"
       sodipodi:cy="403.17096"
       sodipodi:cx="330.88434"
       id="path2985-1-1-7"
       style="fill:#0000ff;fill-opacity:0.19607843;stroke:#0000ff;stroke-width:1;stroke-linecap:round;stroke-linejoin:round;stroke-miterlimit:4;stroke-opacity:1;stroke-dasharray:none;stroke-dashoffset:0"
       sodipodi:type="arc"
       transform="translate(-13.792644,-75.296585)" />
    <path
       d="m 355.07179,403.17096 a 24.187452,24.187452 0 1 1 -48.3749,0 24.187452,24.187452 0 1 1 48.3749,0 z"
       sodipodi:ry="24.187452"
       sodipodi:rx="24.187452"
       sodipodi:cy="403.17096"
       sodipodi:cx="330.88434"
       id="path2985-1-1-7-4-0"
       style="fill:#0000ff;fill-opacity:0.19607843;stroke:#0000ff;stroke-width:1;stroke-linecap:round;stroke-linejoin:round;stroke-miterlimit:4;stroke-opacity:1;stroke-dasharray:none;stroke-dashoffset:0"
       sodipodi:type="arc"
       transform="translate(-13.792644,-11.344275)" />
    <path
       d="m 355.07179,403.17096 a 24.187452,24.187452 0 1 1 -48.3749,0 24.187452,24.187452 0 1 1 48.3749,0 z"
       sodipodi:ry="24.187452"
       sodipodi:rx="24.187452"
       sodipodi:cy="403.17096"
       sodipodi:cx="330.88434"
       id="path2985-1-1-7-4-0-9"
       style="fill:#0000ff;fill-opacity:0.19607843;stroke:#0000ff;stroke-width:1;stroke-linecap:round;stroke-linejoin:round;stroke-miterlimit:4;stroke-opacity:1;stroke-dasharray:none;stroke-dashoffset:0"
       sodipodi:type="arc"
       transform="translate(-13.792644,52.608053)" />
    <g
       transform="translate(0,1.809838)"
       id="g3584">
      <path
         sodipodi:type="arc"
         style="fill:#008000;fill-opacity:0.19607843;stroke:#008000;stroke-width:1;stroke-linecap:round;stroke-linejoin:round;stroke-miterlimit:4;stroke-opacity:1;stroke-dasharray:none;stroke-dashoffset:0"
         id="path2985"
         sodipodi:cx="330.88434"
         sodipodi:cy="403.17096"
         sodipodi:rx="24.187452"
         sodipodi:ry="24.187452"
         d="m 355.07179,403.17096 c 0,13.35836 -10.82909,24.18745 -24.18745,24.18745 -13.35836,0 -24.18745,-10.82909 -24.18745,-24.18745 0,-13.35836 10.82909,-24.18745 24.18745,-24.18745 13.35836,0 24.18745,10.82909 24.18745,24.18745 z"
         transform="translate(106.2712,-164.17952)" />
      <path
         sodipodi:type="arc"
         style="fill:#008000;fill-opacity:0.19607843;stroke:#008000;stroke-width:1;stroke-linecap:round;stroke-linejoin:round;stroke-miterlimit:4;stroke-opacity:1;stroke-dasharray:none;stroke-dashoffset:0"
         id="path2985-4"
         sodipodi:cx="330.88434"
         sodipodi:cy="403.17096"
         sodipodi:rx="24.187452"
         sodipodi:ry="24.187452"
         d="m 355.07179,403.17096 c 0,13.35836 -10.82909,24.18745 -24.18745,24.18745 -13.35836,0 -24.18745,-10.82909 -24.18745,-24.18745 0,-13.35836 10.82909,-24.18745 24.18745,-24.18745 13.35836,0 24.18745,10.82909 24.18745,24.18745 z"
         transform="translate(106.2712,-106.13074)" />
      <path
         sodipodi:type="arc"
         style="fill:#008000;fill-opacity:0.19607843;stroke:#008000;stroke-width:1;stroke-linecap:round;stroke-linejoin:round;stroke-miterlimit:4;stroke-opacity:1;stroke-dasharray:none;stroke-dashoffset:0"
         id="path2985-4-8"
         sodipodi:cx="330.88434"
         sodipodi:cy="403.17096"
         sodipodi:rx="24.187452"
         sodipodi:ry="24.187452"
         d="m 355.07179,403.17096 c 0,13.35836 -10.82909,24.18745 -24.18745,24.18745 -13.35836,0 -24.18745,-10.82909 -24.18745,-24.18745 0,-13.35836 10.82909,-24.18745 24.18745,-24.18745 13.35836,0 24.18745,10.82909 24.18745,24.18745 z"
         transform="translate(106.2712,-48.08206)" />
      <path
         sodipodi:type="arc"
         style="fill:#008000;fill-opacity:0.19607843;stroke:#008000;stroke-width:1;stroke-linecap:round;stroke-linejoin:round;stroke-miterlimit:4;stroke-opacity:1;stroke-dasharray:none;stroke-dashoffset:0"
         id="path2985-4-8-8"
         sodipodi:cx="330.88434"
         sodipodi:cy="403.17096"
         sodipodi:rx="24.187452"
         sodipodi:ry="24.187452"
         d="m 355.07179,403.17096 c 0,13.35836 -10.82909,24.18745 -24.18745,24.18745 -13.35836,0 -24.18745,-10.82909 -24.18745,-24.18745 0,-13.35836 10.82909,-24.18745 24.18745,-24.18745 13.35836,0 24.18745,10.82909 24.18745,24.18745 z"
         transform="translate(106.2712,9.966659)" />
    </g>
    <path
       sodipodi:nodetypes="cc"
       inkscape:connector-curvature="0"
       id="path3595-7"
       d="m 221.31426,387.73526 71.14895,-58.8347"
       style="fill:none;stroke:#000000;stroke-width:1px;stroke-linecap:butt;stroke-linejoin:miter;stroke-opacity:1" />
    <path
       sodipodi:nodetypes="cc"
       inkscape:connector-curvature="0"
       id="path3595-7-1"
       d="m 221.31427,329.58468 71.83307,-62.25533"
       style="fill:none;stroke:#000000;stroke-width:1px;stroke-linecap:butt;stroke-linejoin:miter;stroke-opacity:1" />
    <path
       inkscape:connector-curvature="0"
       id="path3595-1"
       d="m 220.80118,386.8801 71.83307,70.46482"
       style="fill:none;stroke:#000000;stroke-width:1px;stroke-linecap:butt;stroke-linejoin:miter;stroke-opacity:1" />
    <path
       sodipodi:nodetypes="cc"
       inkscape:connector-curvature="0"
       id="path3595-7-5"
       d="m 221.82736,269.55275 71.14895,58.8347"
       style="fill:none;stroke:#000000;stroke-width:1px;stroke-linecap:butt;stroke-linejoin:miter;stroke-opacity:1" />
    <path
       sodipodi:nodetypes="cc"
       inkscape:connector-curvature="0"
       id="path3595-7-1-2"
       d="m 221.82737,327.70333 71.83307,62.25533"
       style="fill:none;stroke:#000000;stroke-width:1px;stroke-linecap:butt;stroke-linejoin:miter;stroke-opacity:1" />
    <path
       inkscape:connector-curvature="0"
       id="path3657"
       d="m 220.28808,269.03966 72.51719,-1.36825"
       style="fill:none;stroke:#000000;stroke-width:1px;stroke-linecap:butt;stroke-linejoin:miter;stroke-opacity:1" />
    <path
       inkscape:connector-curvature="0"
       id="path3659"
       d="m 220.97221,269.03966 71.14894,119.72178"
       style="fill:none;stroke:#000000;stroke-width:1px;stroke-linecap:butt;stroke-linejoin:miter;stroke-opacity:1" />
    <path
       inkscape:connector-curvature="0"
       id="path3661"
       d="m 220.97221,269.72378 71.14894,184.71361"
       style="fill:none;stroke:#000000;stroke-width:1px;stroke-linecap:butt;stroke-linejoin:miter;stroke-opacity:1" />
    <path
       inkscape:connector-curvature="0"
       id="path3657-7"
       d="m 220.51557,386.76084 72.51719,1.36825"
       style="fill:none;stroke:#000000;stroke-width:1px;stroke-linecap:butt;stroke-linejoin:miter;stroke-opacity:1" />
    <path
       inkscape:connector-curvature="0"
       id="path3659-6"
       d="M 221.1997,386.76084 292.34864,267.03906"
       style="fill:none;stroke:#000000;stroke-width:1px;stroke-linecap:butt;stroke-linejoin:miter;stroke-opacity:1" />
    <path
       inkscape:connector-curvature="0"
       id="path3687"
       d="m 292.12115,328.55849 -71.14894,-0.68413 71.14894,128.61541"
       style="fill:none;stroke:#000000;stroke-width:1px;stroke-linecap:butt;stroke-linejoin:miter;stroke-opacity:1" />
    <path
       inkscape:connector-curvature="0"
       id="path3691"
       d="m 341.37811,199.94309 71.83307,96.46155"
       style="fill:none;stroke:#000000;stroke-width:1px;stroke-linecap:butt;stroke-linejoin:miter;stroke-opacity:1" />
    <path
       inkscape:connector-curvature="0"
       id="path3693"
       d="m 341.37811,266.30316 71.14895,30.10148"
       style="fill:none;stroke:#000000;stroke-width:1px;stroke-linecap:butt;stroke-linejoin:miter;stroke-opacity:1" />
    <path
       inkscape:connector-curvature="0"
       id="path3695"
       d="m 340.69399,329.92674 72.51719,-34.20623"
       style="fill:none;stroke:#000000;stroke-width:1px;stroke-linecap:butt;stroke-linejoin:miter;stroke-opacity:1" />
    <path
       inkscape:connector-curvature="0"
       id="path3697"
       d="m 341.37811,392.86619 71.83307,-96.46155"
       style="fill:none;stroke:#000000;stroke-width:1px;stroke-linecap:butt;stroke-linejoin:miter;stroke-opacity:1" />
    <path
       inkscape:connector-curvature="0"
       id="path3699"
       d="M 340.69399,457.85801 413.21118,296.40464"
       style="fill:none;stroke:#000000;stroke-width:1px;stroke-linecap:butt;stroke-linejoin:miter;stroke-opacity:1" />
    <path
       inkscape:connector-curvature="0"
       id="path3701"
       d="m 461.78402,299.14114 34.20622,0"
       style="fill:none;stroke:#000000;stroke-width:1px;stroke-linecap:butt;stroke-linejoin:miter;stroke-opacity:1;marker-end:url(#Arrow1Mend)" />
    <g
       title="$y_2$"
       style="fill:#000000"
       id="equation_00"
       transform="matrix(2.6661842,0,0,2.6661842,294.69367,135.09129)">
      <defs
         id="defs3744">
        <path
           id="equation_00_00"
           d="M 4.86,-3.81 C 4.9,-3.95 4.9,-3.97 4.9,-4.04 c 0,-0.18 -0.14,-0.27 -0.29,-0.27 -0.1,0 -0.26,0.06 -0.35,0.21 -0.02,0.05 -0.1,0.36 -0.14,0.54 -0.07,0.26 -0.14,0.53 -0.2,0.8 l -0.45,1.8 C 3.43,-0.81 3,-0.11 2.34,-0.11 c -0.51,0 -0.62,-0.44 -0.62,-0.81 0,-0.46 0.17,-1.08 0.51,-1.96 0.16,-0.41 0.2,-0.52 0.2,-0.72 0,-0.45 -0.32,-0.82 -0.82,-0.82 -0.95,0 -1.32,1.45 -1.32,1.54 0,0.1 0.1,0.1 0.12,0.1 0.1,0 0.11,-0.02 0.16,-0.18 0.27,-0.94 0.67,-1.24 1.01,-1.24 0.08,0 0.25,0 0.25,0.32 0,0.25 -0.1,0.51 -0.17,0.7 -0.4,1.06 -0.58,1.63 -0.58,2.1 0,0.89 0.63,1.19 1.22,1.19 0.39,0 0.73,-0.17 1.01,-0.45 C 3.18,0.18 3.06,0.67 2.66,1.2 2.4,1.54 2.02,1.83 1.56,1.83 1.42,1.83 0.97,1.8 0.8,1.41 c 0.16,0 0.29,0 0.43,-0.12 C 1.33,1.2 1.43,1.07 1.43,0.88 1.43,0.57 1.16,0.53 1.06,0.53 0.83,0.53 0.5,0.69 0.5,1.18 c 0,0.5 0.44,0.87 1.06,0.87 1.03,0 2.06,-0.91 2.34,-2.04 l 0.96,-3.82 z"
           inkscape:connector-curvature="0" />
        <path
           id="equation_00_01"
           d="M 3.535,-1.274 H 3.297 C 3.276,-1.12 3.206,-0.707 3.115,-0.637 3.059,-0.595 2.52,-0.595 2.422,-0.595 H 1.134 c 0.735,-0.651 0.98,-0.847 1.4,-1.176 0.518,-0.413 1.001,-0.847 1.001,-1.512 0,-0.847 -0.742,-1.365 -1.638,-1.365 -0.868,0 -1.456,0.609 -1.456,1.253 0,0.357 0.301,0.392 0.371,0.392 0.168,0 0.371,-0.119 0.371,-0.371 0,-0.126 -0.049,-0.371 -0.413,-0.371 0.217,-0.497 0.693,-0.651 1.022,-0.651 0.7,0 1.064,0.546 1.064,1.113 0,0.609 -0.434,1.092 -0.658,1.344 L 0.511,-0.273 C 0.441,-0.21 0.441,-0.196 0.441,0 h 2.884 l 0.21,-1.274 z"
           inkscape:connector-curvature="0" />
      </defs>
      <g
         id="equation_00_g">
        <use
           id="use3749"
           y="63"
           xlink:href="#equation_00_00"
           x="77"
           width="744.09448"
           height="1052.3622" />
        <use
           id="use3751"
           y="64.5"
           xlink:href="#equation_00_01"
           x="81.902802"
           width="744.09448"
           height="1052.3622" />
      </g>
    </g>
    <g
       id="equation_01"
       style="fill:#000000"
       title="$x_1$"
       transform="matrix(2.6661842,0,0,2.6661842,-14.265458,165.19277)">
      <defs
         id="defs3846">
        <path
           d="M 3.34,-3.02 C 3.4,-3.28 3.63,-4.2 4.33,-4.2 c 0.05,0 0.29,0 0.5,0.13 -0.28,0.05 -0.48,0.3 -0.48,0.54 0,0.16 0.11,0.35 0.38,0.35 0.22,0 0.54,-0.18 0.54,-0.58 0,-0.52 -0.59,-0.66 -0.93,-0.66 -0.58,0 -0.93,0.53 -1.05,0.76 -0.25,-0.66 -0.79,-0.76 -1.08,-0.76 -1.04,0 -1.61,1.29 -1.61,1.54 0,0.1 0.1,0.1 0.12,0.1 0.08,0 0.11,-0.02 0.13,-0.11 0.34,-1.06 1,-1.31 1.34,-1.31 0.19,0 0.54,0.09 0.54,0.67 0,0.31 -0.17,0.98 -0.54,2.38 -0.16,0.62 -0.51,1.04 -0.95,1.04 -0.06,0 -0.29,0 -0.5,-0.13 0.25,-0.05 0.47,-0.26 0.47,-0.54 0,-0.27 -0.22,-0.35 -0.37,-0.35 -0.3,0 -0.55,0.26 -0.55,0.58 0,0.46 0.5,0.66 0.94,0.66 0.66,0 1.02,-0.7 1.05,-0.76 0.12,0.37 0.48,0.76 1.08,0.76 1.03,0 1.6,-1.29 1.6,-1.54 0,-0.1 -0.09,-0.1 -0.12,-0.1 -0.09,0 -0.11,0.04 -0.13,0.11 -0.33,1.07 -1.01,1.31 -1.33,1.31 -0.39,0 -0.55,-0.32 -0.55,-0.66 0,-0.22 0.06,-0.44 0.17,-0.88 l 0.34,-1.37 z"
           id="equation_01_00"
           inkscape:connector-curvature="0" />
        <path
           d="m 2.345,-4.452 c 0,-0.189 -0.014,-0.196 -0.21,-0.196 C 1.687,-4.207 1.05,-4.2 0.763,-4.2 v 0.252 c 0.168,0 0.63,0 1.015,-0.196 v 3.57 c 0,0.231 0,0.322 -0.7,0.322 H 0.812 V 0 c 0.126,-0.007 0.987,-0.028 1.246,-0.028 0.217,0 1.099,0.021 1.253,0.028 V -0.252 H 3.045 c -0.7,0 -0.7,-0.091 -0.7,-0.322 v -3.878 z"
           id="equation_01_01"
           inkscape:connector-curvature="0" />
      </defs>
      <g
         id="equation_01_g">
        <use
           x="77"
           xlink:href="#equation_01_00"
           y="63"
           id="use3851"
           width="744.09448"
           height="1052.3622" />
        <use
           x="82.715302"
           xlink:href="#equation_01_01"
           y="64.5"
           id="use3853"
           width="744.09448"
           height="1052.3622" />
      </g>
    </g>
    <g
       title="$x_2$"
       style="fill:#000000"
       id="equation_02"
       transform="matrix(2.6661842,0,0,2.6661842,-14.564071,223.34335)">
      <defs
         id="defs3962">
        <path
           id="equation_02_00"
           d="M 3.34,-3.02 C 3.4,-3.28 3.63,-4.2 4.33,-4.2 c 0.05,0 0.29,0 0.5,0.13 -0.28,0.05 -0.48,0.3 -0.48,0.54 0,0.16 0.11,0.35 0.38,0.35 0.22,0 0.54,-0.18 0.54,-0.58 0,-0.52 -0.59,-0.66 -0.93,-0.66 -0.58,0 -0.93,0.53 -1.05,0.76 -0.25,-0.66 -0.79,-0.76 -1.08,-0.76 -1.04,0 -1.61,1.29 -1.61,1.54 0,0.1 0.1,0.1 0.12,0.1 0.08,0 0.11,-0.02 0.13,-0.11 0.34,-1.06 1,-1.31 1.34,-1.31 0.19,0 0.54,0.09 0.54,0.67 0,0.31 -0.17,0.98 -0.54,2.38 -0.16,0.62 -0.51,1.04 -0.95,1.04 -0.06,0 -0.29,0 -0.5,-0.13 0.25,-0.05 0.47,-0.26 0.47,-0.54 0,-0.27 -0.22,-0.35 -0.37,-0.35 -0.3,0 -0.55,0.26 -0.55,0.58 0,0.46 0.5,0.66 0.94,0.66 0.66,0 1.02,-0.7 1.05,-0.76 0.12,0.37 0.48,0.76 1.08,0.76 1.03,0 1.6,-1.29 1.6,-1.54 0,-0.1 -0.09,-0.1 -0.12,-0.1 -0.09,0 -0.11,0.04 -0.13,0.11 -0.33,1.07 -1.01,1.31 -1.33,1.31 -0.39,0 -0.55,-0.32 -0.55,-0.66 0,-0.22 0.06,-0.44 0.17,-0.88 l 0.34,-1.37 z"
           inkscape:connector-curvature="0" />
        <path
           id="equation_02_01"
           d="M 3.535,-1.274 H 3.297 C 3.276,-1.12 3.206,-0.707 3.115,-0.637 3.059,-0.595 2.52,-0.595 2.422,-0.595 H 1.134 c 0.735,-0.651 0.98,-0.847 1.4,-1.176 0.518,-0.413 1.001,-0.847 1.001,-1.512 0,-0.847 -0.742,-1.365 -1.638,-1.365 -0.868,0 -1.456,0.609 -1.456,1.253 0,0.357 0.301,0.392 0.371,0.392 0.168,0 0.371,-0.119 0.371,-0.371 0,-0.126 -0.049,-0.371 -0.413,-0.371 0.217,-0.497 0.693,-0.651 1.022,-0.651 0.7,0 1.064,0.546 1.064,1.113 0,0.609 -0.434,1.092 -0.658,1.344 L 0.511,-0.273 C 0.441,-0.21 0.441,-0.196 0.441,0 h 2.884 l 0.21,-1.274 z"
           inkscape:connector-curvature="0" />
      </defs>
      <g
         id="equation_02_g">
        <use
           id="use3967"
           y="63"
           xlink:href="#equation_02_00"
           x="77"
           width="744.09448"
           height="1052.3622" />
        <use
           id="use3969"
           y="64.5"
           xlink:href="#equation_02_01"
           x="82.715302"
           width="744.09448"
           height="1052.3622" />
      </g>
    </g>
    <g
       title="$\phi_1$"
       style="fill:#000000"
       id="equation_04"
       transform="matrix(2.2186197,0,0,2.2186197,177.7107,151.66333)">
      <defs
         id="defs4236">
        <path
           id="equation_04_00"
           d="m 4.37,-6.7 c 0,-0.02 0.03,-0.13 0.03,-0.14 0,-0.01 0,-0.1 -0.12,-0.1 -0.1,0 -0.11,0.03 -0.15,0.2 l -0.58,2.31 c -1.59,0.05 -3.06,1.38 -3.06,2.74 0,0.95 0.7,1.74 1.92,1.81 C 2.33,0.43 2.26,0.75 2.18,1.06 2.06,1.53 1.96,1.91 1.96,1.94 c 0,0.1 0.07,0.11 0.12,0.11 0.05,0 0.07,-0.01 0.1,-0.04 C 2.2,1.99 2.26,1.75 2.29,1.61 L 2.67,0.12 C 4.28,0.07 5.73,-1.28 5.73,-2.62 5.73,-3.41 5.2,-4.33 3.81,-4.43 L 4.37,-6.7 z M 2.46,-0.1 C 1.86,-0.13 1.14,-0.48 1.14,-1.48 1.14,-2.68 2,-4.08 3.49,-4.21 L 2.46,-0.1 z m 1.29,-4.11 c 0.76,0.04 1.33,0.5 1.33,1.38 0,1.18 -0.86,2.61 -2.36,2.73 l 1.03,-4.11 z"
           inkscape:connector-curvature="0" />
        <path
           id="equation_04_01"
           d="m 2.345,-4.452 c 0,-0.189 -0.014,-0.196 -0.21,-0.196 C 1.687,-4.207 1.05,-4.2 0.763,-4.2 v 0.252 c 0.168,0 0.63,0 1.015,-0.196 v 3.57 c 0,0.231 0,0.322 -0.7,0.322 H 0.812 V 0 c 0.126,-0.007 0.987,-0.028 1.246,-0.028 0.217,0 1.099,0.021 1.253,0.028 V -0.252 H 3.045 c -0.7,0 -0.7,-0.091 -0.7,-0.322 v -3.878 z"
           inkscape:connector-curvature="0" />
      </defs>
      <g
         id="equation_04_g">
        <use
           id="use4241"
           y="63"
           xlink:href="#equation_04_00"
           x="77"
           width="744.09448"
           height="1052.3622" />
        <use
           id="use4243"
           y="64.5"
           xlink:href="#equation_04_01"
           x="82.958298"
           width="744.09448"
           height="1052.3622" />
      </g>
    </g>
    <g
       id="equation_05"
       style="fill:#000000"
       title="$\phi_2$"
       transform="matrix(2.2186197,0,0,2.2186197,177.46221,203.67308)">
      <defs
         id="defs4394">
        <path
           d="m 4.37,-6.7 c 0,-0.02 0.03,-0.13 0.03,-0.14 0,-0.01 0,-0.1 -0.12,-0.1 -0.1,0 -0.11,0.03 -0.15,0.2 l -0.58,2.31 c -1.59,0.05 -3.06,1.38 -3.06,2.74 0,0.95 0.7,1.74 1.92,1.81 C 2.33,0.43 2.26,0.75 2.18,1.06 2.06,1.53 1.96,1.91 1.96,1.94 c 0,0.1 0.07,0.11 0.12,0.11 0.05,0 0.07,-0.01 0.1,-0.04 C 2.2,1.99 2.26,1.75 2.29,1.61 L 2.67,0.12 C 4.28,0.07 5.73,-1.28 5.73,-2.62 5.73,-3.41 5.2,-4.33 3.81,-4.43 L 4.37,-6.7 z M 2.46,-0.1 C 1.86,-0.13 1.14,-0.48 1.14,-1.48 1.14,-2.68 2,-4.08 3.49,-4.21 L 2.46,-0.1 z m 1.29,-4.11 c 0.76,0.04 1.33,0.5 1.33,1.38 0,1.18 -0.86,2.61 -2.36,2.73 l 1.03,-4.11 z"
           id="equation_05_00"
           inkscape:connector-curvature="0" />
        <path
           d="M 3.535,-1.274 H 3.297 C 3.276,-1.12 3.206,-0.707 3.115,-0.637 3.059,-0.595 2.52,-0.595 2.422,-0.595 H 1.134 c 0.735,-0.651 0.98,-0.847 1.4,-1.176 0.518,-0.413 1.001,-0.847 1.001,-1.512 0,-0.847 -0.742,-1.365 -1.638,-1.365 -0.868,0 -1.456,0.609 -1.456,1.253 0,0.357 0.301,0.392 0.371,0.392 0.168,0 0.371,-0.119 0.371,-0.371 0,-0.126 -0.049,-0.371 -0.413,-0.371 0.217,-0.497 0.693,-0.651 1.022,-0.651 0.7,0 1.064,0.546 1.064,1.113 0,0.609 -0.434,1.092 -0.658,1.344 L 0.511,-0.273 C 0.441,-0.21 0.441,-0.196 0.441,0 h 2.884 l 0.21,-1.274 z"
           id="equation_05_01"
           inkscape:connector-curvature="0" />
      </defs>
      <g
         id="equation_05_g">
        <use
           x="77"
           xlink:href="#equation_05_00"
           y="63"
           id="use4399"
           width="744.09448"
           height="1052.3622" />
        <use
           x="82.958298"
           xlink:href="#equation_05_01"
           y="64.5"
           id="use4401"
           width="744.09448"
           height="1052.3622" />
      </g>
    </g>
    <g
       title="$\phi_3$"
       style="fill:#000000"
       id="equation_06"
       transform="matrix(2.2186197,0,0,2.2186197,177.39233,250.01959)">
      <defs
         id="defs4566">
        <path
           id="equation_06_00"
           d="m 4.37,-6.7 c 0,-0.02 0.03,-0.13 0.03,-0.14 0,-0.01 0,-0.1 -0.12,-0.1 -0.1,0 -0.11,0.03 -0.15,0.2 l -0.58,2.31 c -1.59,0.05 -3.06,1.38 -3.06,2.74 0,0.95 0.7,1.74 1.92,1.81 C 2.33,0.43 2.26,0.75 2.18,1.06 2.06,1.53 1.96,1.91 1.96,1.94 c 0,0.1 0.07,0.11 0.12,0.11 0.05,0 0.07,-0.01 0.1,-0.04 C 2.2,1.99 2.26,1.75 2.29,1.61 L 2.67,0.12 C 4.28,0.07 5.73,-1.28 5.73,-2.62 5.73,-3.41 5.2,-4.33 3.81,-4.43 L 4.37,-6.7 z M 2.46,-0.1 C 1.86,-0.13 1.14,-0.48 1.14,-1.48 1.14,-2.68 2,-4.08 3.49,-4.21 L 2.46,-0.1 z m 1.29,-4.11 c 0.76,0.04 1.33,0.5 1.33,1.38 0,1.18 -0.86,2.61 -2.36,2.73 l 1.03,-4.11 z"
           inkscape:connector-curvature="0" />
        <path
           id="equation_06_01"
           d="m 1.911,-2.338 c 0.546,0 0.938,0.378 0.938,1.127 0,0.868 -0.504,1.127 -0.91,1.127 -0.28,0 -0.896,-0.077 -1.19,-0.49 0.329,-0.014 0.406,-0.245 0.406,-0.392 0,-0.224 -0.168,-0.385 -0.385,-0.385 -0.196,0 -0.392,0.119 -0.392,0.406 0,0.658 0.728,1.085 1.575,1.085 0.973,0 1.645,-0.651 1.645,-1.351 0,-0.546 -0.448,-1.092 -1.218,-1.253 0.735,-0.266 1.001,-0.791 1.001,-1.218 0,-0.553 -0.637,-0.966 -1.414,-0.966 -0.777,0 -1.372,0.378 -1.372,0.938 0,0.238 0.154,0.371 0.364,0.371 0.217,0 0.357,-0.161 0.357,-0.357 0,-0.203 -0.14,-0.35 -0.357,-0.364 0.245,-0.308 0.728,-0.385 0.987,-0.385 0.315,0 0.756,0.154 0.756,0.763 0,0.294 -0.098,0.616 -0.28,0.833 -0.231,0.266 -0.427,0.28 -0.777,0.301 -0.175,0.014 -0.189,0.014 -0.224,0.021 -0.014,0 -0.07,0.014 -0.07,0.091 0,0.098 0.063,0.098 0.182,0.098 h 0.378 z"
           inkscape:connector-curvature="0" />
      </defs>
      <g
         id="equation_06_g">
        <use
           id="use4571"
           y="63"
           xlink:href="#equation_06_00"
           x="77"
           width="744.09448"
           height="1052.3622" />
        <use
           id="use4573"
           y="64.5"
           xlink:href="#equation_06_01"
           x="82.958298"
           width="744.09448"
           height="1052.3622" />
      </g>
    </g>
    <g
       id="equation_07"
       style="fill:#000000"
       title="$\phi_4$"
       transform="matrix(2.2186197,0,0,2.2186197,177.27585,308.55562)">
      <defs
         id="defs4752">
        <path
           d="m 4.37,-6.7 c 0,-0.02 0.03,-0.13 0.03,-0.14 0,-0.01 0,-0.1 -0.12,-0.1 -0.1,0 -0.11,0.03 -0.15,0.2 l -0.58,2.31 c -1.59,0.05 -3.06,1.38 -3.06,2.74 0,0.95 0.7,1.74 1.92,1.81 C 2.33,0.43 2.26,0.75 2.18,1.06 2.06,1.53 1.96,1.91 1.96,1.94 c 0,0.1 0.07,0.11 0.12,0.11 0.05,0 0.07,-0.01 0.1,-0.04 C 2.2,1.99 2.26,1.75 2.29,1.61 L 2.67,0.12 C 4.28,0.07 5.73,-1.28 5.73,-2.62 5.73,-3.41 5.2,-4.33 3.81,-4.43 L 4.37,-6.7 z M 2.46,-0.1 C 1.86,-0.13 1.14,-0.48 1.14,-1.48 1.14,-2.68 2,-4.08 3.49,-4.21 L 2.46,-0.1 z m 1.29,-4.11 c 0.76,0.04 1.33,0.5 1.33,1.38 0,1.18 -0.86,2.61 -2.36,2.73 l 1.03,-4.11 z"
           id="equation_07_00"
           inkscape:connector-curvature="0" />
        <path
           d="M 3.703,-1.148 V -1.4 H 2.926 v -3.122 c 0,-0.147 0,-0.196 -0.154,-0.196 -0.084,0 -0.112,0 -0.182,0.098 L 0.273,-1.4 v 0.252 h 2.058 v 0.574 c 0,0.238 0,0.322 -0.567,0.322 H 1.575 V 0 c 0.35,-0.014 0.798,-0.028 1.05,-0.028 0.259,0 0.707,0.014 1.057,0.028 V -0.252 H 3.493 c -0.567,0 -0.567,-0.084 -0.567,-0.322 V -1.148 H 3.703 z M 2.38,-3.962 V -1.4 H 0.532 L 2.38,-3.962 z"
           id="equation_07_01"
           inkscape:connector-curvature="0" />
      </defs>
      <g
         id="equation_07_g">
        <use
           x="77"
           xlink:href="#equation_07_00"
           y="63"
           id="use4757"
           width="744.09448"
           height="1052.3622" />
        <use
           x="82.958298"
           xlink:href="#equation_07_01"
           y="64.5"
           id="use4759"
           width="744.09448"
           height="1052.3622" />
      </g>
    </g>
    <g
       id="equation_09"
       style="fill:#000000"
       title="$x_0$"
       transform="matrix(2.6360585,0,0,2.6360585,-12.202176,106.70185)">
      <defs
         id="defs6130">
        <path
           d="M 3.34,-3.02 C 3.4,-3.28 3.63,-4.2 4.33,-4.2 c 0.05,0 0.29,0 0.5,0.13 -0.28,0.05 -0.48,0.3 -0.48,0.54 0,0.16 0.11,0.35 0.38,0.35 0.22,0 0.54,-0.18 0.54,-0.58 0,-0.52 -0.59,-0.66 -0.93,-0.66 -0.58,0 -0.93,0.53 -1.05,0.76 -0.25,-0.66 -0.79,-0.76 -1.08,-0.76 -1.04,0 -1.61,1.29 -1.61,1.54 0,0.1 0.1,0.1 0.12,0.1 0.08,0 0.11,-0.02 0.13,-0.11 0.34,-1.06 1,-1.31 1.34,-1.31 0.19,0 0.54,0.09 0.54,0.67 0,0.31 -0.17,0.98 -0.54,2.38 -0.16,0.62 -0.51,1.04 -0.95,1.04 -0.06,0 -0.29,0 -0.5,-0.13 0.25,-0.05 0.47,-0.26 0.47,-0.54 0,-0.27 -0.22,-0.35 -0.37,-0.35 -0.3,0 -0.55,0.26 -0.55,0.58 0,0.46 0.5,0.66 0.94,0.66 0.66,0 1.02,-0.7 1.05,-0.76 0.12,0.37 0.48,0.76 1.08,0.76 1.03,0 1.6,-1.29 1.6,-1.54 0,-0.1 -0.09,-0.1 -0.12,-0.1 -0.09,0 -0.11,0.04 -0.13,0.11 -0.33,1.07 -1.01,1.31 -1.33,1.31 -0.39,0 -0.55,-0.32 -0.55,-0.66 0,-0.22 0.06,-0.44 0.17,-0.88 l 0.34,-1.37 z"
           id="equation_09_00"
           inkscape:connector-curvature="0" />
        <path
           d="m 3.612,-2.233 c 0,-0.77 -0.091,-1.323 -0.413,-1.813 -0.217,-0.322 -0.651,-0.602 -1.211,-0.602 -1.624,0 -1.624,1.911 -1.624,2.415 0,0.504 0,2.373 1.624,2.373 1.624,0 1.624,-1.869 1.624,-2.373 z m -1.624,2.177 c -0.322,0 -0.749,-0.189 -0.889,-0.763 -0.098,-0.413 -0.098,-0.987 -0.098,-1.505 0,-0.511 0,-1.043 0.105,-1.428 0.147,-0.553 0.595,-0.7 0.882,-0.7 0.378,0 0.742,0.231 0.868,0.637 0.112,0.378 0.119,0.882 0.119,1.491 0,0.518 0,1.036 -0.091,1.477 -0.14,0.637 -0.616,0.791 -0.896,0.791 z"
           id="equation_09_01"
           inkscape:connector-curvature="0" />
      </defs>
      <g
         id="equation_09_g">
        <use
           x="77"
           xlink:href="#equation_09_00"
           y="63"
           id="use6135"
           width="744.09448"
           height="1052.3622" />
        <use
           x="82.715302"
           xlink:href="#equation_09_01"
           y="64.5"
           id="use6137"
           width="744.09448"
           height="1052.3622" />
      </g>
    </g>
    <g
       title="$\phi_0$"
       style="fill:#000000"
       id="equation_10"
       transform="matrix(1.951173,0,0,1.951173,165.9327,76.538138)">
      <defs
         id="defs6358">
        <path
           id="equation_10_00"
           d="m 4.37,-6.7 c 0,-0.02 0.03,-0.13 0.03,-0.14 0,-0.01 0,-0.1 -0.12,-0.1 -0.1,0 -0.11,0.03 -0.15,0.2 l -0.58,2.31 c -1.59,0.05 -3.06,1.38 -3.06,2.74 0,0.95 0.7,1.74 1.92,1.81 C 2.33,0.43 2.26,0.75 2.18,1.06 2.06,1.53 1.96,1.91 1.96,1.94 c 0,0.1 0.07,0.11 0.12,0.11 0.05,0 0.07,-0.01 0.1,-0.04 C 2.2,1.99 2.26,1.75 2.29,1.61 L 2.67,0.12 C 4.28,0.07 5.73,-1.28 5.73,-2.62 5.73,-3.41 5.2,-4.33 3.81,-4.43 L 4.37,-6.7 z M 2.46,-0.1 C 1.86,-0.13 1.14,-0.48 1.14,-1.48 1.14,-2.68 2,-4.08 3.49,-4.21 L 2.46,-0.1 z m 1.29,-4.11 c 0.76,0.04 1.33,0.5 1.33,1.38 0,1.18 -0.86,2.61 -2.36,2.73 l 1.03,-4.11 z"
           inkscape:connector-curvature="0" />
        <path
           id="equation_10_01"
           d="m 3.612,-2.233 c 0,-0.77 -0.091,-1.323 -0.413,-1.813 -0.217,-0.322 -0.651,-0.602 -1.211,-0.602 -1.624,0 -1.624,1.911 -1.624,2.415 0,0.504 0,2.373 1.624,2.373 1.624,0 1.624,-1.869 1.624,-2.373 z m -1.624,2.177 c -0.322,0 -0.749,-0.189 -0.889,-0.763 -0.098,-0.413 -0.098,-0.987 -0.098,-1.505 0,-0.511 0,-1.043 0.105,-1.428 0.147,-0.553 0.595,-0.7 0.882,-0.7 0.378,0 0.742,0.231 0.868,0.637 0.112,0.378 0.119,0.882 0.119,1.491 0,0.518 0,1.036 -0.091,1.477 -0.14,0.637 -0.616,0.791 -0.896,0.791 z"
           inkscape:connector-curvature="0" />
      </defs>
      <g
         id="equation_10_g">
        <use
           id="use6363"
           y="63"
           xlink:href="#equation_10_00"
           x="77"
           width="744.09448"
           height="1052.3622" />
        <use
           id="use6365"
           y="64.5"
           xlink:href="#equation_10_01"
           x="82.958298"
           width="744.09448"
           height="1052.3622" />
      </g>
    </g>
  </g>
</svg>
