<?xml version="1.0" encoding="UTF-8" standalone="no"?>
<!-- Created with Inkscape (http://www.inkscape.org/) -->

<svg
   xmlns:dc="http://purl.org/dc/elements/1.1/"
   xmlns:cc="http://creativecommons.org/ns#"
   xmlns:rdf="http://www.w3.org/1999/02/22-rdf-syntax-ns#"
   xmlns:svg="http://www.w3.org/2000/svg"
   xmlns="http://www.w3.org/2000/svg"
   xmlns:xlink="http://www.w3.org/1999/xlink"
   xmlns:sodipodi="http://sodipodi.sourceforge.net/DTD/sodipodi-0.dtd"
   xmlns:inkscape="http://www.inkscape.org/namespaces/inkscape"
   width="210mm"
   height="297mm"
   id="svg2"
   version="1.1"
   inkscape:version="0.48.4 r9939"
   sodipodi:docname="rejection-sampling1.svg"
   inkscape:export-filename="\\euler\nineties\projects\prml-seminar\fig\rejection-sampling1.png"
   inkscape:export-xdpi="95.32"
   inkscape:export-ydpi="95.32">
  <sodipodi:namedview
     id="base"
     pagecolor="#ffffff"
     bordercolor="#666666"
     borderopacity="1.0"
     inkscape:pageopacity="0.0"
     inkscape:pageshadow="2"
     inkscape:zoom="1.2403125"
     inkscape:cx="187.95423"
     inkscape:cy="354.29449"
     inkscape:document-units="px"
     inkscape:current-layer="layer1"
     showgrid="false"
     inkscape:window-width="1366"
     inkscape:window-height="746"
     inkscape:window-x="-8"
     inkscape:window-y="-8"
     inkscape:window-maximized="1" />
  <defs
     id="defs4">
    <marker
       inkscape:stockid="Arrow1Lend"
       orient="auto"
       refY="0.0"
       refX="0.0"
       id="Arrow1Lend"
       style="overflow:visible;">
      <path
         id="path3791"
         d="M 0.0,0.0 L 5.0,-5.0 L -12.5,0.0 L 5.0,5.0 L 0.0,0.0 z "
         style="fill-rule:evenodd;stroke:#000000;stroke-width:1.0pt;"
         transform="scale(0.8) rotate(180) translate(12.5,0)" />
    </marker>
  </defs>
  <metadata
     id="metadata7">
    <rdf:RDF>
      <cc:Work
         rdf:about="">
        <dc:format>image/svg+xml</dc:format>
        <dc:type
           rdf:resource="http://purl.org/dc/dcmitype/StillImage" />
        <dc:title></dc:title>
      </cc:Work>
    </rdf:RDF>
  </metadata>
  <g
     inkscape:label="レイヤー 1"
     inkscape:groupmode="layer"
     id="layer1">
    <path
       style="fill:none;stroke:#000000;stroke-width:1px;stroke-linecap:butt;stroke-linejoin:miter;stroke-opacity:1"
       d="m 260.41824,745.18153 c 55.62971,-23.86109 110.0167,-18.63433 160.44342,0"
       id="path4602"
       inkscape:connector-curvature="0"
       sodipodi:nodetypes="cc" />
    <path
       style="fill:none;stroke:#000000;stroke-width:1px;stroke-linecap:butt;stroke-linejoin:miter;stroke-opacity:1;marker-end:url(#Arrow1Lend)"
       d="m 57.010373,745.64638 624.833687,0"
       id="path2985"
       inkscape:connector-curvature="0" />
    <path
       style="fill:none;stroke:#000000;stroke-width:1px;stroke-linecap:butt;stroke-linejoin:miter;stroke-opacity:1"
       d="m 64.262187,653.26921 c 37.321213,-23.92178 80.841083,-37.10984 122.869453,-50.06257 56.78046,-11.13642 115.84329,2.74361 169.9866,-21.65749 78.85256,-18.76852 156.9481,14.14365 226.42417,48.61958 31.15352,14.02662 63.73363,26.25853 91.04984,47.28794"
       id="path3005"
       inkscape:connector-curvature="0" />
    <path
       style="fill:none;stroke:#000000;stroke-width:1px;stroke-linecap:butt;stroke-linejoin:miter;stroke-opacity:1"
       d="m 62.246569,552.48816 c 32.591079,-9.01182 62.690071,-25.82923 96.688831,-30.36713 50.10385,-13.19758 102.32213,-4.79318 153.4267,-7.29766 63.56961,3.85833 127.20088,8.0184 190.67429,12.8014 34.80911,7.4624 69.38929,16.30794 104.39202,22.38358 23.81498,6.10228 45.73046,15.5939 69.17945,22.63602"
       id="path3012"
       inkscape:connector-curvature="0" />
    <path
       style="fill:none;stroke:#000000;stroke-width:1px;stroke-linecap:butt;stroke-linejoin:miter;stroke-opacity:1"
       d="m 260.41824,515.40073 0,229.7808"
       id="path4228"
       inkscape:connector-curvature="0" />
    <path
       style="fill:none;stroke:#000000;stroke-width:1px;stroke-linecap:butt;stroke-linejoin:miter;stroke-opacity:1"
       d="m 420.05543,521.85072 0,223.33081"
       id="path4230"
       inkscape:connector-curvature="0" />
    <g
       id="equation_00"
       style="fill:#000000"
       title="$y=\pi(x)$"
       transform="matrix(2.90813,0,0,2.90813,279.02606,481.85389)">
      <defs
         id="defs4245">
        <path
           d="M 3.31,2.4 C 3.31,2.37 3.31,2.35 3.14,2.18 1.89,0.92 1.57,-0.97 1.57,-2.5 c 0,-1.74 0.38,-3.48 1.61,-4.73 0.13,-0.12 0.13,-0.14 0.13,-0.17 0,-0.07 -0.04,-0.1 -0.1,-0.1 -0.1,0 -1,0.68 -1.59,1.95 -0.51,1.1 -0.63,2.21 -0.63,3.05 0,0.78 0.11,1.99 0.66,3.12 0.6,1.23 1.46,1.88 1.56,1.88 0.06,0 0.1,-0.03 0.1,-0.1 z"
           id="equation_00_00"
           inkscape:connector-curvature="0" />
        <path
           d="M 2.89,-2.5 C 2.89,-3.28 2.78,-4.49 2.23,-5.62 1.63,-6.85 0.77,-7.5 0.67,-7.5 c -0.06,0 -0.1,0.04 -0.1,0.1 0,0.03 0,0.05 0.19,0.23 0.98,0.99 1.55,2.58 1.55,4.67 0,1.71 -0.37,3.47 -1.61,4.73 -0.13,0.12 -0.13,0.14 -0.13,0.17 0,0.06 0.04,0.1 0.1,0.1 0.1,0 1,-0.68 1.59,-1.95 0.51,-1.1 0.63,-2.21 0.63,-3.05 z"
           id="equation_00_01"
           inkscape:connector-curvature="0" />
        <path
           d="m 6.87,-3.27 c 0.15,0 0.34,0 0.34,-0.2 0,-0.2 -0.19,-0.2 -0.33,-0.2 H 0.89 c -0.14,0 -0.33,0 -0.33,0.2 0,0.2 0.19,0.2 0.34,0.2 h 5.97 z m 0.01,1.94 c 0.14,0 0.33,0 0.33,-0.2 0,-0.2 -0.19,-0.2 -0.34,-0.2 H 0.9 c -0.15,0 -0.34,0 -0.34,0.2 0,0.2 0.19,0.2 0.33,0.2 h 5.99 z"
           id="equation_00_02"
           inkscape:connector-curvature="0" />
        <path
           d="m 2.65,-3.73 h 1.13 c -0.33,1.48 -0.42,1.91 -0.42,2.58 0,0.15 0,0.42 0.08,0.76 0.1,0.44 0.21,0.5 0.36,0.5 0.2,0 0.41,-0.18 0.41,-0.38 0,-0.06 0,-0.08 -0.06,-0.22 -0.29,-0.72 -0.29,-1.37 -0.29,-1.65 0,-0.53 0.07,-1.07 0.18,-1.59 h 1.14 c 0.13,0 0.49,0 0.49,-0.34 0,-0.24 -0.21,-0.24 -0.4,-0.24 H 1.92 c -0.22,0 -0.6,0 -1.04,0.47 -0.35,0.39 -0.61,0.85 -0.61,0.9 0,0.01 0,0.1 0.12,0.1 0.08,0 0.1,-0.04 0.16,-0.12 0.49,-0.77 1.07,-0.77 1.27,-0.77 h 0.57 c -0.32,1.21 -0.86,2.42 -1.28,3.33 -0.08,0.15 -0.08,0.17 -0.08,0.24 0,0.19 0.16,0.27 0.29,0.27 0.3,0 0.38,-0.28 0.5,-0.65 C 1.96,-1 1.96,-1.02 2.09,-1.52 l 0.56,-2.21 z"
           id="equation_00_03"
           inkscape:connector-curvature="0" />
        <path
           d="M 3.34,-3.02 C 3.4,-3.28 3.63,-4.2 4.33,-4.2 c 0.05,0 0.29,0 0.5,0.13 -0.28,0.05 -0.48,0.3 -0.48,0.54 0,0.16 0.11,0.35 0.38,0.35 0.22,0 0.54,-0.18 0.54,-0.58 0,-0.52 -0.59,-0.66 -0.93,-0.66 -0.58,0 -0.93,0.53 -1.05,0.76 -0.25,-0.66 -0.79,-0.76 -1.08,-0.76 -1.04,0 -1.61,1.29 -1.61,1.54 0,0.1 0.1,0.1 0.12,0.1 0.08,0 0.11,-0.02 0.13,-0.11 0.34,-1.06 1,-1.31 1.34,-1.31 0.19,0 0.54,0.09 0.54,0.67 0,0.31 -0.17,0.98 -0.54,2.38 -0.16,0.62 -0.51,1.04 -0.95,1.04 -0.06,0 -0.29,0 -0.5,-0.13 0.25,-0.05 0.47,-0.26 0.47,-0.54 0,-0.27 -0.22,-0.35 -0.37,-0.35 -0.3,0 -0.55,0.26 -0.55,0.58 0,0.46 0.5,0.66 0.94,0.66 0.66,0 1.02,-0.7 1.05,-0.76 0.12,0.37 0.48,0.76 1.08,0.76 1.03,0 1.6,-1.29 1.6,-1.54 0,-0.1 -0.09,-0.1 -0.12,-0.1 -0.09,0 -0.11,0.04 -0.13,0.11 -0.33,1.07 -1.01,1.31 -1.33,1.31 -0.39,0 -0.55,-0.32 -0.55,-0.66 0,-0.22 0.06,-0.44 0.17,-0.88 l 0.34,-1.37 z"
           id="equation_00_04"
           inkscape:connector-curvature="0" />
        <path
           d="M 4.86,-3.81 C 4.9,-3.95 4.9,-3.97 4.9,-4.04 c 0,-0.18 -0.14,-0.27 -0.29,-0.27 -0.1,0 -0.26,0.06 -0.35,0.21 -0.02,0.05 -0.1,0.36 -0.14,0.54 -0.07,0.26 -0.14,0.53 -0.2,0.8 l -0.45,1.8 C 3.43,-0.81 3,-0.11 2.34,-0.11 c -0.51,0 -0.62,-0.44 -0.62,-0.81 0,-0.46 0.17,-1.08 0.51,-1.96 0.16,-0.41 0.2,-0.52 0.2,-0.72 0,-0.45 -0.32,-0.82 -0.82,-0.82 -0.95,0 -1.32,1.45 -1.32,1.54 0,0.1 0.1,0.1 0.12,0.1 0.1,0 0.11,-0.02 0.16,-0.18 0.27,-0.94 0.67,-1.24 1.01,-1.24 0.08,0 0.25,0 0.25,0.32 0,0.25 -0.1,0.51 -0.17,0.7 -0.4,1.06 -0.58,1.63 -0.58,2.1 0,0.89 0.63,1.19 1.22,1.19 0.39,0 0.73,-0.17 1.01,-0.45 C 3.18,0.18 3.06,0.67 2.66,1.2 2.4,1.54 2.02,1.83 1.56,1.83 1.42,1.83 0.97,1.8 0.8,1.41 c 0.16,0 0.29,0 0.43,-0.12 C 1.33,1.2 1.43,1.07 1.43,0.88 1.43,0.57 1.16,0.53 1.06,0.53 0.83,0.53 0.5,0.69 0.5,1.18 c 0,0.5 0.44,0.87 1.06,0.87 1.03,0 2.06,-0.91 2.34,-2.04 l 0.96,-3.82 z"
           id="equation_00_05"
           inkscape:connector-curvature="0" />
      </defs>
      <g
         id="equation_00_g">
        <use
           x="77"
           xlink:href="#equation_00_05"
           y="63"
           id="use4254"
           width="744.09448"
           height="1052.3622" />
        <use
           x="85.039299"
           xlink:href="#equation_00_02"
           y="63"
           id="use4256"
           width="744.09448"
           height="1052.3622" />
        <use
           x="95.594803"
           xlink:href="#equation_00_03"
           y="63"
           id="use4258"
           width="744.09448"
           height="1052.3622" />
        <use
           x="101.654"
           xlink:href="#equation_00_00"
           y="63"
           id="use4260"
           width="744.09448"
           height="1052.3622" />
        <use
           x="105.543"
           xlink:href="#equation_00_04"
           y="63"
           id="use4262"
           width="744.09448"
           height="1052.3622" />
        <use
           x="111.258"
           xlink:href="#equation_00_01"
           y="63"
           id="use4264"
           width="744.09448"
           height="1052.3622" />
      </g>
    </g>
    <g
       title="$y=Mq(x)$"
       style="fill:#000000"
       id="equation_01"
       transform="matrix(2.90813,0,0,2.90813,241.95891,329.86011)">
      <defs
         id="defs4319">
        <path
           id="equation_01_00"
           d="M 3.31,2.4 C 3.31,2.37 3.31,2.35 3.14,2.18 1.89,0.92 1.57,-0.97 1.57,-2.5 c 0,-1.74 0.38,-3.48 1.61,-4.73 0.13,-0.12 0.13,-0.14 0.13,-0.17 0,-0.07 -0.04,-0.1 -0.1,-0.1 -0.1,0 -1,0.68 -1.59,1.95 -0.51,1.1 -0.63,2.21 -0.63,3.05 0,0.78 0.11,1.99 0.66,3.12 0.6,1.23 1.46,1.88 1.56,1.88 0.06,0 0.1,-0.03 0.1,-0.1 z"
           inkscape:connector-curvature="0" />
        <path
           id="equation_01_01"
           d="M 2.89,-2.5 C 2.89,-3.28 2.78,-4.49 2.23,-5.62 1.63,-6.85 0.77,-7.5 0.67,-7.5 c -0.06,0 -0.1,0.04 -0.1,0.1 0,0.03 0,0.05 0.19,0.23 0.98,0.99 1.55,2.58 1.55,4.67 0,1.71 -0.37,3.47 -1.61,4.73 -0.13,0.12 -0.13,0.14 -0.13,0.17 0,0.06 0.04,0.1 0.1,0.1 0.1,0 1,-0.68 1.59,-1.95 0.51,-1.1 0.63,-2.21 0.63,-3.05 z"
           inkscape:connector-curvature="0" />
        <path
           id="equation_01_02"
           d="m 6.87,-3.27 c 0.15,0 0.34,0 0.34,-0.2 0,-0.2 -0.19,-0.2 -0.33,-0.2 H 0.89 c -0.14,0 -0.33,0 -0.33,0.2 0,0.2 0.19,0.2 0.34,0.2 h 5.97 z m 0.01,1.94 c 0.14,0 0.33,0 0.33,-0.2 0,-0.2 -0.19,-0.2 -0.34,-0.2 H 0.9 c -0.15,0 -0.34,0 -0.34,0.2 0,0.2 0.19,0.2 0.33,0.2 h 5.99 z"
           inkscape:connector-curvature="0" />
        <path
           id="equation_01_03"
           d="m 9.26,-6.06 c 0.09,-0.36 0.11,-0.46 0.86,-0.46 0.23,0 0.32,0 0.32,-0.2 0,-0.11 -0.1,-0.11 -0.27,-0.11 H 8.85 c -0.26,0 -0.27,0 -0.39,0.19 L 4.81,-0.94 4.03,-6.6 C 4,-6.83 3.98,-6.83 3.72,-6.83 H 2.35 c -0.19,0 -0.3,0 -0.3,0.19 0,0.12 0.09,0.12 0.29,0.12 0.13,0 0.31,0.01 0.43,0.02 0.16,0.02 0.22,0.05 0.22,0.16 0,0.04 -0.01,0.07 -0.04,0.19 l -1.27,5.09 c -0.1,0.4 -0.27,0.72 -1.08,0.75 -0.05,0 -0.18,0.01 -0.18,0.19 0,0.09 0.06,0.12 0.14,0.12 0.32,0 0.67,-0.03 1,-0.03 0.34,0 0.7,0.03 1.03,0.03 0.05,0 0.18,0 0.18,-0.2 0,-0.11 -0.11,-0.11 -0.18,-0.11 -0.57,-0.01 -0.68,-0.21 -0.68,-0.44 0,-0.07 0.01,-0.12 0.04,-0.23 l 1.36,-5.45 h 0.01 l 0.86,6.2 C 4.2,-0.11 4.21,0 4.33,0 4.44,0 4.5,-0.11 4.55,-0.18 L 8.59,-6.51 H 8.6 l -1.43,5.73 c -0.1,0.39 -0.12,0.47 -0.91,0.47 -0.17,0 -0.28,0 -0.28,0.19 C 5.98,0 6.1,0 6.13,0 6.41,0 7.09,-0.03 7.37,-0.03 7.78,-0.03 8.21,0 8.62,0 c 0.06,0 0.19,0 0.19,-0.2 0,-0.11 -0.09,-0.11 -0.28,-0.11 -0.37,0 -0.65,0 -0.65,-0.18 0,-0.04 0,-0.06 0.05,-0.24 l 1.33,-5.33 z"
           inkscape:connector-curvature="0" />
        <path
           id="equation_01_04"
           d="m 4.52,-4.31 c 0,-0.04 -0.03,-0.1 -0.1,-0.1 -0.11,0 -0.51,0.4 -0.68,0.69 -0.22,-0.54 -0.61,-0.7 -0.93,-0.7 -1.18,0 -2.41,1.48 -2.41,2.93 0,0.98 0.59,1.6 1.32,1.6 0.43,0 0.82,-0.24 1.18,-0.6 C 2.81,-0.14 2.48,1.21 2.45,1.3 2.37,1.58 2.29,1.62 1.73,1.63 c -0.13,0 -0.23,0 -0.23,0.2 0,0.01 0,0.11 0.13,0.11 0.32,0 0.67,-0.03 1,-0.03 0.34,0 0.7,0.03 1.03,0.03 0.05,0 0.18,0 0.18,-0.2 C 3.84,1.63 3.74,1.63 3.58,1.63 3.1,1.63 3.1,1.56 3.1,1.47 3.1,1.4 3.12,1.34 3.14,1.25 l 1.38,-5.56 z m -2.77,4.2 c -0.6,0 -0.64,-0.77 -0.64,-0.94 0,-0.48 0.29,-1.57 0.46,-1.99 0.31,-0.74 0.83,-1.16 1.24,-1.16 0.65,0 0.79,0.81 0.79,0.88 0,0.06 -0.55,2.25 -0.58,2.29 -0.15,0.28 -0.71,0.92 -1.27,0.92 z"
           inkscape:connector-curvature="0" />
        <path
           id="equation_01_05"
           d="M 3.34,-3.02 C 3.4,-3.28 3.63,-4.2 4.33,-4.2 c 0.05,0 0.29,0 0.5,0.13 -0.28,0.05 -0.48,0.3 -0.48,0.54 0,0.16 0.11,0.35 0.38,0.35 0.22,0 0.54,-0.18 0.54,-0.58 0,-0.52 -0.59,-0.66 -0.93,-0.66 -0.58,0 -0.93,0.53 -1.05,0.76 -0.25,-0.66 -0.79,-0.76 -1.08,-0.76 -1.04,0 -1.61,1.29 -1.61,1.54 0,0.1 0.1,0.1 0.12,0.1 0.08,0 0.11,-0.02 0.13,-0.11 0.34,-1.06 1,-1.31 1.34,-1.31 0.19,0 0.54,0.09 0.54,0.67 0,0.31 -0.17,0.98 -0.54,2.38 -0.16,0.62 -0.51,1.04 -0.95,1.04 -0.06,0 -0.29,0 -0.5,-0.13 0.25,-0.05 0.47,-0.26 0.47,-0.54 0,-0.27 -0.22,-0.35 -0.37,-0.35 -0.3,0 -0.55,0.26 -0.55,0.58 0,0.46 0.5,0.66 0.94,0.66 0.66,0 1.02,-0.7 1.05,-0.76 0.12,0.37 0.48,0.76 1.08,0.76 1.03,0 1.6,-1.29 1.6,-1.54 0,-0.1 -0.09,-0.1 -0.12,-0.1 -0.09,0 -0.11,0.04 -0.13,0.11 -0.33,1.07 -1.01,1.31 -1.33,1.31 -0.39,0 -0.55,-0.32 -0.55,-0.66 0,-0.22 0.06,-0.44 0.17,-0.88 l 0.34,-1.37 z"
           inkscape:connector-curvature="0" />
        <path
           id="equation_01_06"
           d="M 4.86,-3.81 C 4.9,-3.95 4.9,-3.97 4.9,-4.04 c 0,-0.18 -0.14,-0.27 -0.29,-0.27 -0.1,0 -0.26,0.06 -0.35,0.21 -0.02,0.05 -0.1,0.36 -0.14,0.54 -0.07,0.26 -0.14,0.53 -0.2,0.8 l -0.45,1.8 C 3.43,-0.81 3,-0.11 2.34,-0.11 c -0.51,0 -0.62,-0.44 -0.62,-0.81 0,-0.46 0.17,-1.08 0.51,-1.96 0.16,-0.41 0.2,-0.52 0.2,-0.72 0,-0.45 -0.32,-0.82 -0.82,-0.82 -0.95,0 -1.32,1.45 -1.32,1.54 0,0.1 0.1,0.1 0.12,0.1 0.1,0 0.11,-0.02 0.16,-0.18 0.27,-0.94 0.67,-1.24 1.01,-1.24 0.08,0 0.25,0 0.25,0.32 0,0.25 -0.1,0.51 -0.17,0.7 -0.4,1.06 -0.58,1.63 -0.58,2.1 0,0.89 0.63,1.19 1.22,1.19 0.39,0 0.73,-0.17 1.01,-0.45 C 3.18,0.18 3.06,0.67 2.66,1.2 2.4,1.54 2.02,1.83 1.56,1.83 1.42,1.83 0.97,1.8 0.8,1.41 c 0.16,0 0.29,0 0.43,-0.12 C 1.33,1.2 1.43,1.07 1.43,0.88 1.43,0.57 1.16,0.53 1.06,0.53 0.83,0.53 0.5,0.69 0.5,1.18 c 0,0.5 0.44,0.87 1.06,0.87 1.03,0 2.06,-0.91 2.34,-2.04 l 0.96,-3.82 z"
           inkscape:connector-curvature="0" />
      </defs>
      <g
         id="equation_01_g">
        <use
           id="use4329"
           y="63"
           xlink:href="#equation_01_06"
           x="77"
           width="744.09448"
           height="1052.3622" />
        <use
           id="use4331"
           y="63"
           xlink:href="#equation_01_02"
           x="85.039299"
           width="744.09448"
           height="1052.3622" />
        <use
           id="use4333"
           y="63"
           xlink:href="#equation_01_03"
           x="95.594803"
           width="744.09448"
           height="1052.3622" />
        <use
           id="use4335"
           y="63"
           xlink:href="#equation_01_04"
           x="106.386"
           width="744.09448"
           height="1052.3622" />
        <use
           id="use4337"
           y="63"
           xlink:href="#equation_01_00"
           x="111.209"
           width="744.09448"
           height="1052.3622" />
        <use
           id="use4339"
           y="63"
           xlink:href="#equation_01_05"
           x="115.098"
           width="744.09448"
           height="1052.3622" />
        <use
           id="use4341"
           y="63"
           xlink:href="#equation_01_01"
           x="120.814"
           width="744.09448"
           height="1052.3622" />
      </g>
    </g>
    <g
       id="equation_02"
       style="fill:#000000"
       title="$\Delta x$"
       transform="matrix(2.90813,0,0,2.90813,63.757728,543.93502)">
      <defs
         id="defs4430">
        <path
           d="M 4.42,-6.98 C 4.35,-7.11 4.33,-7.16 4.16,-7.16 3.99,-7.16 3.97,-7.11 3.9,-6.98 L 0.52,-0.2 C 0.47,-0.11 0.47,-0.09 0.47,-0.08 0.47,0 0.53,0 0.69,0 h 6.94 c 0.16,0 0.22,0 0.22,-0.08 0,-0.01 0,-0.03 -0.05,-0.12 L 4.42,-6.98 z m -0.58,0.82 2.69,5.4 H 1.14 l 2.7,-5.4 z"
           id="equation_02_00"
           inkscape:connector-curvature="0" />
        <path
           d="M 3.34,-3.02 C 3.4,-3.28 3.63,-4.2 4.33,-4.2 c 0.05,0 0.29,0 0.5,0.13 -0.28,0.05 -0.48,0.3 -0.48,0.54 0,0.16 0.11,0.35 0.38,0.35 0.22,0 0.54,-0.18 0.54,-0.58 0,-0.52 -0.59,-0.66 -0.93,-0.66 -0.58,0 -0.93,0.53 -1.05,0.76 -0.25,-0.66 -0.79,-0.76 -1.08,-0.76 -1.04,0 -1.61,1.29 -1.61,1.54 0,0.1 0.1,0.1 0.12,0.1 0.08,0 0.11,-0.02 0.13,-0.11 0.34,-1.06 1,-1.31 1.34,-1.31 0.19,0 0.54,0.09 0.54,0.67 0,0.31 -0.17,0.98 -0.54,2.38 -0.16,0.62 -0.51,1.04 -0.95,1.04 -0.06,0 -0.29,0 -0.5,-0.13 0.25,-0.05 0.47,-0.26 0.47,-0.54 0,-0.27 -0.22,-0.35 -0.37,-0.35 -0.3,0 -0.55,0.26 -0.55,0.58 0,0.46 0.5,0.66 0.94,0.66 0.66,0 1.02,-0.7 1.05,-0.76 0.12,0.37 0.48,0.76 1.08,0.76 1.03,0 1.6,-1.29 1.6,-1.54 0,-0.1 -0.09,-0.1 -0.12,-0.1 -0.09,0 -0.11,0.04 -0.13,0.11 -0.33,1.07 -1.01,1.31 -1.33,1.31 -0.39,0 -0.55,-0.32 -0.55,-0.66 0,-0.22 0.06,-0.44 0.17,-0.88 l 0.34,-1.37 z"
           id="equation_02_01"
           inkscape:connector-curvature="0" />
      </defs>
      <g
         id="equation_02_g">
        <use
           x="77"
           xlink:href="#equation_02_00"
           y="63"
           id="use4435"
           width="744.09448"
           height="1052.3622" />
        <use
           x="85.333397"
           xlink:href="#equation_02_01"
           y="63"
           id="use4437"
           width="744.09448"
           height="1052.3622" />
      </g>
    </g>
    <g
       title="$x$"
       style="fill:#000000"
       id="equation_03"
       transform="matrix(2.90813,0,0,2.90813,105.68265,585.05369)">
      <defs
         id="defs4540">
        <path
           id="equation_03_00"
           d="M 3.34,-3.02 C 3.4,-3.28 3.63,-4.2 4.33,-4.2 c 0.05,0 0.29,0 0.5,0.13 -0.28,0.05 -0.48,0.3 -0.48,0.54 0,0.16 0.11,0.35 0.38,0.35 0.22,0 0.54,-0.18 0.54,-0.58 0,-0.52 -0.59,-0.66 -0.93,-0.66 -0.58,0 -0.93,0.53 -1.05,0.76 -0.25,-0.66 -0.79,-0.76 -1.08,-0.76 -1.04,0 -1.61,1.29 -1.61,1.54 0,0.1 0.1,0.1 0.12,0.1 0.08,0 0.11,-0.02 0.13,-0.11 0.34,-1.06 1,-1.31 1.34,-1.31 0.19,0 0.54,0.09 0.54,0.67 0,0.31 -0.17,0.98 -0.54,2.38 -0.16,0.62 -0.51,1.04 -0.95,1.04 -0.06,0 -0.29,0 -0.5,-0.13 0.25,-0.05 0.47,-0.26 0.47,-0.54 0,-0.27 -0.22,-0.35 -0.37,-0.35 -0.3,0 -0.55,0.26 -0.55,0.58 0,0.46 0.5,0.66 0.94,0.66 0.66,0 1.02,-0.7 1.05,-0.76 0.12,0.37 0.48,0.76 1.08,0.76 1.03,0 1.6,-1.29 1.6,-1.54 0,-0.1 -0.09,-0.1 -0.12,-0.1 -0.09,0 -0.11,0.04 -0.13,0.11 -0.33,1.07 -1.01,1.31 -1.33,1.31 -0.39,0 -0.55,-0.32 -0.55,-0.66 0,-0.22 0.06,-0.44 0.17,-0.88 l 0.34,-1.37 z"
           inkscape:connector-curvature="0" />
      </defs>
      <g
         id="equation_03_g">
        <use
           id="use4544"
           y="63"
           xlink:href="#equation_03_00"
           x="77"
           width="744.09448"
           height="1052.3622" />
      </g>
    </g>
    <path
       style="fill:none;stroke:#000000;stroke-width:1px;stroke-linecap:butt;stroke-linejoin:miter;stroke-opacity:1"
       d="m 337.81809,742.76279 c 0,8.86873 0,8.86873 0,8.86873"
       id="path4624"
       inkscape:connector-curvature="0" />
    <path
       style="fill:#ff0000;fill-opacity:0.11764706;stroke:none"
       d="m 261.64534,671.95219 0,-73.20042 19.1484,-0.9741 c 31.01306,-1.57766 53.16821,-5.65283 71.23428,-13.10268 12.26801,-5.05891 33.09929,-7.6447 58.97484,-7.32054 l 7.86092,0.0985 0,83.84983 0,83.84984 -39.90929,0 c -34.93743,0 -39.9093,-0.15066 -39.9093,-1.20937 0,-0.66516 -0.54422,-1.20937 -1.20937,-1.20937 -0.66516,0 -1.20938,0.54421 -1.20938,1.20937 0,1.05766 -4.70311,1.20937 -37.49055,1.20937 l -37.49055,0 0,-73.20041 z"
       id="path3041"
       inkscape:connector-curvature="0" />
  </g>
</svg>
