<?xml version="1.0" encoding="UTF-8" standalone="no"?>
<!-- Created with Inkscape (http://www.inkscape.org/) -->

<svg
   xmlns:dc="http://purl.org/dc/elements/1.1/"
   xmlns:cc="http://creativecommons.org/ns#"
   xmlns:rdf="http://www.w3.org/1999/02/22-rdf-syntax-ns#"
   xmlns:svg="http://www.w3.org/2000/svg"
   xmlns="http://www.w3.org/2000/svg"
   xmlns:xlink="http://www.w3.org/1999/xlink"
   xmlns:sodipodi="http://sodipodi.sourceforge.net/DTD/sodipodi-0.dtd"
   xmlns:inkscape="http://www.inkscape.org/namespaces/inkscape"
   width="210mm"
   height="297mm"
   id="svg2"
   version="1.1"
   inkscape:version="0.48.4 r9939"
   sodipodi:docname="svm-regression1.svg"
   inkscape:export-filename="\\EULER\nineties\projects\prml-seminar\fig\svm-regression1.png"
   inkscape:export-xdpi="95.32"
   inkscape:export-ydpi="95.32">
  <sodipodi:namedview
     id="base"
     pagecolor="#ffffff"
     bordercolor="#666666"
     borderopacity="1.0"
     inkscape:pageopacity="0.0"
     inkscape:pageshadow="2"
     inkscape:zoom="0.98994949"
     inkscape:cx="453.0354"
     inkscape:cy="736.21894"
     inkscape:document-units="px"
     inkscape:current-layer="layer1"
     showgrid="false"
     inkscape:window-width="1366"
     inkscape:window-height="746"
     inkscape:window-x="-8"
     inkscape:window-y="-8"
     inkscape:window-maximized="1" />
  <defs
     id="defs4">
    <marker
       style="overflow:visible;"
       id="Arrow1Lend"
       refX="0.0"
       refY="0.0"
       orient="auto"
       inkscape:stockid="Arrow1Lend">
      <path
         transform="scale(0.8) rotate(180) translate(12.5,0)"
         style="fill-rule:evenodd;stroke:#000000;stroke-width:1.0pt;"
         d="M 0.0,0.0 L 5.0,-5.0 L -12.5,0.0 L 5.0,5.0 L 0.0,0.0 z "
         id="path3764" />
    </marker>
  </defs>
  <metadata
     id="metadata7">
    <rdf:RDF>
      <cc:Work
         rdf:about="">
        <dc:format>image/svg+xml</dc:format>
        <dc:type
           rdf:resource="http://purl.org/dc/dcmitype/StillImage" />
        <dc:title></dc:title>
      </cc:Work>
    </rdf:RDF>
  </metadata>
  <g
     id="layer1"
     inkscape:groupmode="layer"
     inkscape:label="レイヤー 1">
    <path
       inkscape:connector-curvature="0"
       id="path2985"
       d="m 55.714286,560.93361 645.714284,0"
       style="fill:none;stroke:#000000;stroke-width:1px;stroke-linecap:butt;stroke-linejoin:miter;stroke-opacity:1;marker-end:url(#Arrow1Lend)" />
    <path
       inkscape:connector-curvature="0"
       id="path2987"
       d="m 101.42857,609.50504 0,-462.85714"
       style="fill:none;stroke:#000000;stroke-width:1px;stroke-linecap:butt;stroke-linejoin:miter;stroke-opacity:1;marker-end:url(#Arrow1Lend)" />
    <path
       inkscape:connector-curvature="0"
       id="path4201"
       d="M 73.571435,453.07648 C 119.10653,347.46519 255.38205,295.70973 360.56234,340.27443 c 54.67589,16.91855 117.40473,25.72943 170.1202,-2.18746 53.53972,-23.10033 91.80536,-74.75707 150.03175,-87.86764"
       style="fill:none;stroke:#000000;stroke-width:2;stroke-linecap:butt;stroke-linejoin:miter;stroke-miterlimit:4;stroke-opacity:1;stroke-dasharray:none" />
    <path
       inkscape:connector-curvature="0"
       id="path4201-1"
       d="M 73.571434,503.79076 C 119.10654,398.17947 255.38205,346.42401 360.56234,390.98871 c 54.67589,16.91855 117.40473,25.72943 170.1202,-2.18746 53.53972,-23.10033 91.80536,-74.75707 150.03175,-87.86764"
       style="fill:none;stroke:#000000;stroke-width:2;stroke-linecap:butt;stroke-linejoin:miter;stroke-miterlimit:4;stroke-opacity:1;stroke-dasharray:4,8;stroke-dashoffset:0" />
    <path
       inkscape:connector-curvature="0"
       id="path4201-1-7"
       d="M 73.571436,402.36219 C 119.10654,296.7509 255.38205,244.99544 360.56234,289.56014 c 54.67589,16.91855 117.40473,25.72943 170.1202,-2.18746 53.53972,-23.10033 91.80536,-74.75707 150.03175,-87.86764"
       style="fill:none;stroke:#000000;stroke-width:2;stroke-linecap:butt;stroke-linejoin:miter;stroke-miterlimit:4;stroke-opacity:1;stroke-dasharray:4,8;stroke-dashoffset:0" />
    <path
       inkscape:connector-curvature="0"
       id="path4339"
       d="m 430.32499,409.90516 0,-103.03556"
       style="fill:none;stroke:#000000;stroke-width:1px;stroke-linecap:butt;stroke-linejoin:miter;stroke-opacity:1" />
    <g
       transform="matrix(2.4665475,0,0,2.4665475,425.16451,88.31224)"
       id="equation_01"
       style="fill:#000000"
       title="$y=f(\mathbf{x})$">
      <defs
         id="defs4396">
        <path
           inkscape:connector-curvature="0"
           d="m 3.46,-2.46 1.17,-1.3 C 4.76,-3.9 4.82,-3.97 5.65,-3.97 V -4.44 C 5.3,-4.42 4.78,-4.41 4.73,-4.41 4.48,-4.41 3.98,-4.43 3.7,-4.44 v 0.47 c 0.14,0 0.26,0.02 0.38,0.09 C 4.04,-3.82 4.04,-3.8 4,-3.76 L 3.16,-2.82 2.18,-3.97 h 0.4 v -0.47 c -0.26,0.01 -0.89,0.03 -1.21,0.03 -0.32,0 -0.77,-0.02 -1.1,-0.03 v 0.47 h 0.71 l 1.56,1.84 -1.31,1.47 C 1.06,-0.47 0.7,-0.47 0.22,-0.47 V 0 c 0.35,-0.02 0.87,-0.03 0.92,-0.03 0.25,0 0.83,0.02 1.03,0.03 v -0.47 c -0.18,0 -0.37,-0.05 -0.37,-0.11 0,-0.01 0,-0.02 0.07,-0.1 l 0.97,-1.09 1.1,1.3 H 3.55 V 0 c 0.26,-0.01 0.87,-0.03 1.2,-0.03 0.32,0 0.77,0.02 1.1,0.03 V -0.47 H 5.14 L 3.46,-2.46 z"
           id="equation_01_00" />
        <path
           inkscape:connector-curvature="0"
           d="m 3.67,-4 h 0.86 c 0.2,0 0.3,0 0.3,-0.2 0,-0.11 -0.1,-0.11 -0.27,-0.11 H 3.73 l 0.21,-1.14 c 0.04,-0.21 0.18,-0.92 0.24,-1.04 0.09,-0.19 0.26,-0.34 0.47,-0.34 0.04,0 0.3,0 0.49,0.18 -0.44,0.04 -0.54,0.39 -0.54,0.54 0,0.23 0.18,0.35 0.37,0.35 0.26,0 0.55,-0.22 0.55,-0.6 0,-0.46 -0.46,-0.69 -0.87,-0.69 -0.34,0 -0.97,0.18 -1.27,1.17 -0.06,0.21 -0.09,0.31 -0.33,1.57 H 2.36 c -0.19,0 -0.3,0 -0.3,0.19 C 2.06,-4 2.15,-4 2.34,-4 H 3 L 2.25,-0.05 C 2.07,0.92 1.9,1.83 1.38,1.83 1.34,1.83 1.09,1.83 0.9,1.65 1.36,1.62 1.45,1.26 1.45,1.11 1.45,0.88 1.27,0.76 1.08,0.76 c -0.26,0 -0.55,0.22 -0.55,0.6 0,0.45 0.44,0.69 0.85,0.69 0.55,0 0.95,-0.59 1.13,-0.97 0.32,-0.63 0.55,-1.84 0.56,-1.91 L 3.67,-4 z"
           id="equation_01_01" />
        <path
           inkscape:connector-curvature="0"
           d="M 4.86,-3.81 C 4.9,-3.95 4.9,-3.97 4.9,-4.04 c 0,-0.18 -0.14,-0.27 -0.29,-0.27 -0.1,0 -0.26,0.06 -0.35,0.21 -0.02,0.05 -0.1,0.36 -0.14,0.54 -0.07,0.26 -0.14,0.53 -0.2,0.8 l -0.45,1.8 C 3.43,-0.81 3,-0.11 2.34,-0.11 c -0.51,0 -0.62,-0.44 -0.62,-0.81 0,-0.46 0.17,-1.08 0.51,-1.96 0.16,-0.41 0.2,-0.52 0.2,-0.72 0,-0.45 -0.32,-0.82 -0.82,-0.82 -0.95,0 -1.32,1.45 -1.32,1.54 0,0.1 0.1,0.1 0.12,0.1 0.1,0 0.11,-0.02 0.16,-0.18 0.27,-0.94 0.67,-1.24 1.01,-1.24 0.08,0 0.25,0 0.25,0.32 0,0.25 -0.1,0.51 -0.17,0.7 -0.4,1.06 -0.58,1.63 -0.58,2.1 0,0.89 0.63,1.19 1.22,1.19 0.39,0 0.73,-0.17 1.01,-0.45 C 3.18,0.18 3.06,0.67 2.66,1.2 2.4,1.54 2.02,1.83 1.56,1.83 1.42,1.83 0.97,1.8 0.8,1.41 c 0.16,0 0.29,0 0.43,-0.12 C 1.33,1.2 1.43,1.07 1.43,0.88 1.43,0.57 1.16,0.53 1.06,0.53 0.83,0.53 0.5,0.69 0.5,1.18 c 0,0.5 0.44,0.87 1.06,0.87 1.03,0 2.06,-0.91 2.34,-2.04 l 0.96,-3.82 z"
           id="equation_01_02" />
        <path
           inkscape:connector-curvature="0"
           d="M 3.31,2.4 C 3.31,2.37 3.31,2.35 3.14,2.18 1.89,0.92 1.57,-0.97 1.57,-2.5 c 0,-1.74 0.38,-3.48 1.61,-4.73 0.13,-0.12 0.13,-0.14 0.13,-0.17 0,-0.07 -0.04,-0.1 -0.1,-0.1 -0.1,0 -1,0.68 -1.59,1.95 -0.51,1.1 -0.63,2.21 -0.63,3.05 0,0.78 0.11,1.99 0.66,3.12 0.6,1.23 1.46,1.88 1.56,1.88 0.06,0 0.1,-0.03 0.1,-0.1 z"
           id="equation_01_03" />
        <path
           inkscape:connector-curvature="0"
           d="M 2.89,-2.5 C 2.89,-3.28 2.78,-4.49 2.23,-5.62 1.63,-6.85 0.77,-7.5 0.67,-7.5 c -0.06,0 -0.1,0.04 -0.1,0.1 0,0.03 0,0.05 0.19,0.23 0.98,0.99 1.55,2.58 1.55,4.67 0,1.71 -0.37,3.47 -1.61,4.73 -0.13,0.12 -0.13,0.14 -0.13,0.17 0,0.06 0.04,0.1 0.1,0.1 0.1,0 1,-0.68 1.59,-1.95 0.51,-1.1 0.63,-2.21 0.63,-3.05 z"
           id="equation_01_04" />
        <path
           inkscape:connector-curvature="0"
           d="m 6.87,-3.27 c 0.15,0 0.34,0 0.34,-0.2 0,-0.2 -0.19,-0.2 -0.33,-0.2 H 0.89 c -0.14,0 -0.33,0 -0.33,0.2 0,0.2 0.19,0.2 0.34,0.2 h 5.97 z m 0.01,1.94 c 0.14,0 0.33,0 0.33,-0.2 0,-0.2 -0.19,-0.2 -0.34,-0.2 H 0.9 c -0.15,0 -0.34,0 -0.34,0.2 0,0.2 0.19,0.2 0.33,0.2 h 5.99 z"
           id="equation_01_05" />
      </defs>
      <g
         id="equation_01_g">
        <use
           height="1052.3622"
           width="744.09448"
           x="77"
           xlink:href="#equation_01_02"
           y="63"
           id="use4405" />
        <use
           height="1052.3622"
           width="744.09448"
           x="85.039299"
           xlink:href="#equation_01_05"
           y="63"
           id="use4407" />
        <use
           height="1052.3622"
           width="744.09448"
           x="95.594803"
           xlink:href="#equation_01_01"
           y="63"
           id="use4409" />
        <use
           height="1052.3622"
           width="744.09448"
           x="101.567"
           xlink:href="#equation_01_03"
           y="63"
           id="use4411" />
        <use
           height="1052.3622"
           width="744.09448"
           x="105.456"
           xlink:href="#equation_01_00"
           y="63"
           id="use4413" />
        <use
           height="1052.3622"
           width="744.09448"
           x="111.525"
           xlink:href="#equation_01_04"
           y="63"
           id="use4415" />
      </g>
    </g>
    <g
       transform="matrix(2.4665475,0,0,2.4665475,-114.25695,1.4391207)"
       title="$y$"
       style="fill:#000000"
       id="equation_02">
      <defs
         id="defs4482">
        <path
           inkscape:connector-curvature="0"
           id="equation_02_00"
           d="M 4.86,-3.81 C 4.9,-3.95 4.9,-3.97 4.9,-4.04 c 0,-0.18 -0.14,-0.27 -0.29,-0.27 -0.1,0 -0.26,0.06 -0.35,0.21 -0.02,0.05 -0.1,0.36 -0.14,0.54 -0.07,0.26 -0.14,0.53 -0.2,0.8 l -0.45,1.8 C 3.43,-0.81 3,-0.11 2.34,-0.11 c -0.51,0 -0.62,-0.44 -0.62,-0.81 0,-0.46 0.17,-1.08 0.51,-1.96 0.16,-0.41 0.2,-0.52 0.2,-0.72 0,-0.45 -0.32,-0.82 -0.82,-0.82 -0.95,0 -1.32,1.45 -1.32,1.54 0,0.1 0.1,0.1 0.12,0.1 0.1,0 0.11,-0.02 0.16,-0.18 0.27,-0.94 0.67,-1.24 1.01,-1.24 0.08,0 0.25,0 0.25,0.32 0,0.25 -0.1,0.51 -0.17,0.7 -0.4,1.06 -0.58,1.63 -0.58,2.1 0,0.89 0.63,1.19 1.22,1.19 0.39,0 0.73,-0.17 1.01,-0.45 C 3.18,0.18 3.06,0.67 2.66,1.2 2.4,1.54 2.02,1.83 1.56,1.83 1.42,1.83 0.97,1.8 0.8,1.41 c 0.16,0 0.29,0 0.43,-0.12 C 1.33,1.2 1.43,1.07 1.43,0.88 1.43,0.57 1.16,0.53 1.06,0.53 0.83,0.53 0.5,0.69 0.5,1.18 c 0,0.5 0.44,0.87 1.06,0.87 1.03,0 2.06,-0.91 2.34,-2.04 l 0.96,-3.82 z" />
      </defs>
      <g
         id="equation_02_g">
        <use
           height="1052.3622"
           width="744.09448"
           id="use4486"
           y="63"
           xlink:href="#equation_02_00"
           x="77" />
      </g>
    </g>
    <g
       transform="matrix(2.4665475,0,0,2.4665475,500.92595,394.38846)"
       id="equation_03"
       style="fill:#000000"
       title="$\mathbf{x}$">
      <defs
         id="defs4563">
        <path
           inkscape:connector-curvature="0"
           d="m 3.46,-2.46 1.17,-1.3 C 4.76,-3.9 4.82,-3.97 5.65,-3.97 V -4.44 C 5.3,-4.42 4.78,-4.41 4.73,-4.41 4.48,-4.41 3.98,-4.43 3.7,-4.44 v 0.47 c 0.14,0 0.26,0.02 0.38,0.09 C 4.04,-3.82 4.04,-3.8 4,-3.76 L 3.16,-2.82 2.18,-3.97 h 0.4 v -0.47 c -0.26,0.01 -0.89,0.03 -1.21,0.03 -0.32,0 -0.77,-0.02 -1.1,-0.03 v 0.47 h 0.71 l 1.56,1.84 -1.31,1.47 C 1.06,-0.47 0.7,-0.47 0.22,-0.47 V 0 c 0.35,-0.02 0.87,-0.03 0.92,-0.03 0.25,0 0.83,0.02 1.03,0.03 v -0.47 c -0.18,0 -0.37,-0.05 -0.37,-0.11 0,-0.01 0,-0.02 0.07,-0.1 l 0.97,-1.09 1.1,1.3 H 3.55 V 0 c 0.26,-0.01 0.87,-0.03 1.2,-0.03 0.32,0 0.77,0.02 1.1,0.03 V -0.47 H 5.14 L 3.46,-2.46 z"
           id="equation_03_00" />
      </defs>
      <g
         id="equation_03_g">
        <use
           height="1052.3622"
           width="744.09448"
           x="77"
           xlink:href="#equation_03_00"
           y="63"
           id="use4567" />
      </g>
    </g>
    <path
       transform="translate(45.456865,19.192899)"
       d="m 388.90873,177.57008 a 5.0507627,5.0507627 0 1 1 -10.10152,0 5.0507627,5.0507627 0 1 1 10.10152,0 z"
       sodipodi:ry="5.0507627"
       sodipodi:rx="5.0507627"
       sodipodi:cy="177.57008"
       sodipodi:cx="383.85797"
       id="path4646"
       style="fill:#ff0000;stroke:#ff0000;stroke-width:2;stroke-linecap:round;stroke-linejoin:round;stroke-miterlimit:4;stroke-opacity:1;stroke-dasharray:none;stroke-dashoffset:0"
       sodipodi:type="arc" />
    <path
       inkscape:connector-curvature="0"
       id="path4648"
       d="m 430.11159,196.76298 0,106.06602"
       style="fill:none;stroke:#000000;stroke-width:1px;stroke-linecap:butt;stroke-linejoin:miter;stroke-opacity:1" />
    <path
       sodipodi:nodetypes="cc"
       inkscape:connector-curvature="0"
       id="path4650"
       d="m 435.37575,197.77313 c 28.45956,28.82495 30.90855,80.16867 -1.01012,104.04597"
       style="fill:none;stroke:#000000;stroke-width:1px;stroke-linecap:butt;stroke-linejoin:miter;stroke-opacity:1" />
    <g
       transform="matrix(3.3059668,0,0,3.3059668,213.84938,45.508195)"
       title="$\xi_i$"
       style="fill:#000000"
       id="equation_04">
      <defs
         id="defs4961">
        <path
           inkscape:connector-curvature="0"
           id="equation_04_00"
           d="m 1.54,-3.06 c -1.09,0.72 -1.31,1.66 -1.31,2.02 0,0.48 0.27,0.76 0.29,0.79 0.32,0.33 0.41,0.37 1.16,0.65 L 2.89,0.87 C 3.04,0.94 3.24,1.01 3.24,1.3 3.24,1.53 3.06,1.83 2.75,1.83 2.31,1.83 1.98,1.59 1.87,1.51 1.81,1.47 1.8,1.46 1.76,1.46 c -0.08,0 -0.1,0.07 -0.1,0.11 0,0.12 0.53,0.48 1.09,0.48 0.62,0 1.04,-0.58 1.04,-1.07 C 3.79,0.5 3.42,0.32 3.31,0.27 3.17,0.22 2.83,0.09 2.7,0.04 2.5,-0.04 2.3,-0.12 2.09,-0.19 L 1.49,-0.43 C 1.04,-0.61 0.74,-0.9 0.74,-1.32 c 0,-0.41 0.39,-1.28 1.23,-1.7 0.37,0.13 0.67,0.13 0.88,0.13 0.3,0 0.93,0 0.93,-0.31 0,-0.25 -0.43,-0.27 -0.82,-0.27 -0.18,0 -0.47,0 -0.84,0.12 -0.26,-0.26 -0.3,-0.59 -0.3,-0.78 0,-0.56 0.36,-1.33 1.11,-1.7 0.18,0.22 0.41,0.22 0.64,0.22 0.25,0 0.89,0 0.89,-0.31 0,-0.26 -0.44,-0.27 -0.83,-0.27 -0.13,0 -0.37,0 -0.63,0.05 C 2.97,-6.23 2.95,-6.3 2.95,-6.47 2.95,-6.61 3,-6.82 3,-6.84 3,-6.92 2.95,-6.97 2.88,-6.97 c -0.18,0 -0.18,0.46 -0.18,0.49 0,0.2 0.06,0.35 0.07,0.39 -1.07,0.3 -1.75,1.1 -1.75,1.87 0,0.37 0.18,0.79 0.65,1.06 l -0.13,0.1 z m 1.62,-2.86 c 0.16,-0.05 0.37,-0.05 0.48,-0.05 0.34,0 0.38,0.01 0.56,0.06 -0.08,0.03 -0.18,0.08 -0.62,0.08 -0.19,0 -0.31,0 -0.42,-0.09 z m -0.78,2.73 c 0.23,-0.06 0.45,-0.06 0.57,-0.06 0.35,0 0.39,0.01 0.57,0.06 -0.08,0.04 -0.18,0.08 -0.64,0.08 -0.23,0 -0.32,0 -0.5,-0.08 z" />
        <path
           inkscape:connector-curvature="0"
           id="equation_04_01"
           d="m 2.268,-4.375 c 0,-0.112 -0.084,-0.266 -0.28,-0.266 -0.189,0 -0.392,0.182 -0.392,0.385 0,0.119 0.091,0.266 0.28,0.266 0.203,0 0.392,-0.196 0.392,-0.385 z M 0.84,-0.819 c -0.028,0.091 -0.063,0.175 -0.063,0.294 0,0.329 0.28,0.595 0.665,0.595 0.7,0 1.008,-0.966 1.008,-1.071 0,-0.091 -0.091,-0.091 -0.112,-0.091 -0.098,0 -0.105,0.042 -0.133,0.119 -0.161,0.56 -0.469,0.847 -0.742,0.847 -0.14,0 -0.175,-0.091 -0.175,-0.245 0,-0.161 0.049,-0.294 0.112,-0.448 0.07,-0.189 0.147,-0.378 0.224,-0.56 0.063,-0.168 0.315,-0.805 0.343,-0.889 0.021,-0.07 0.042,-0.154 0.042,-0.224 0,-0.329 -0.28,-0.595 -0.665,-0.595 -0.693,0 -1.015,0.952 -1.015,1.071 0,0.091 0.098,0.091 0.119,0.091 0.098,0 0.105,-0.035 0.126,-0.112 0.182,-0.602 0.49,-0.854 0.749,-0.854 0.112,0 0.175,0.056 0.175,0.245 0,0.161 -0.042,0.266 -0.217,0.7 L 0.84,-0.819 z" />
      </defs>
      <g
         id="equation_04_g">
        <use
           height="1052.3622"
           width="744.09448"
           id="use4966"
           y="63"
           xlink:href="#equation_04_00"
           x="77" />
        <use
           height="1052.3622"
           width="744.09448"
           id="use4968"
           y="64.5"
           xlink:href="#equation_04_01"
           x="81.375" />
      </g>
    </g>
    <g
       transform="matrix(3.3059668,0,0,3.3059668,250.21488,-10.050195)"
       id="equation_05"
       style="fill:#000000"
       title="$\hat{\xi_i}=0$">
      <defs
         id="defs5091">
        <path
           inkscape:connector-curvature="0"
           d="m 1.54,-3.06 c -1.09,0.72 -1.31,1.66 -1.31,2.02 0,0.48 0.27,0.76 0.29,0.79 0.32,0.33 0.41,0.37 1.16,0.65 L 2.89,0.87 C 3.04,0.94 3.24,1.01 3.24,1.3 3.24,1.53 3.06,1.83 2.75,1.83 2.31,1.83 1.98,1.59 1.87,1.51 1.81,1.47 1.8,1.46 1.76,1.46 c -0.08,0 -0.1,0.07 -0.1,0.11 0,0.12 0.53,0.48 1.09,0.48 0.62,0 1.04,-0.58 1.04,-1.07 C 3.79,0.5 3.42,0.32 3.31,0.27 3.17,0.22 2.83,0.09 2.7,0.04 2.5,-0.04 2.3,-0.12 2.09,-0.19 L 1.49,-0.43 C 1.04,-0.61 0.74,-0.9 0.74,-1.32 c 0,-0.41 0.39,-1.28 1.23,-1.7 0.37,0.13 0.67,0.13 0.88,0.13 0.3,0 0.93,0 0.93,-0.31 0,-0.25 -0.43,-0.27 -0.82,-0.27 -0.18,0 -0.47,0 -0.84,0.12 -0.26,-0.26 -0.3,-0.59 -0.3,-0.78 0,-0.56 0.36,-1.33 1.11,-1.7 0.18,0.22 0.41,0.22 0.64,0.22 0.25,0 0.89,0 0.89,-0.31 0,-0.26 -0.44,-0.27 -0.83,-0.27 -0.13,0 -0.37,0 -0.63,0.05 C 2.97,-6.23 2.95,-6.3 2.95,-6.47 2.95,-6.61 3,-6.82 3,-6.84 3,-6.92 2.95,-6.97 2.88,-6.97 c -0.18,0 -0.18,0.46 -0.18,0.49 0,0.2 0.06,0.35 0.07,0.39 -1.07,0.3 -1.75,1.1 -1.75,1.87 0,0.37 0.18,0.79 0.65,1.06 l -0.13,0.1 z m 1.62,-2.86 c 0.16,-0.05 0.37,-0.05 0.48,-0.05 0.34,0 0.38,0.01 0.56,0.06 -0.08,0.03 -0.18,0.08 -0.62,0.08 -0.19,0 -0.31,0 -0.42,-0.09 z m -0.78,2.73 c 0.23,-0.06 0.45,-0.06 0.57,-0.06 0.35,0 0.39,0.01 0.57,0.06 -0.08,0.04 -0.18,0.08 -0.64,0.08 -0.23,0 -0.32,0 -0.5,-0.08 z"
           id="equation_05_00" />
        <path
           inkscape:connector-curvature="0"
           d="M 4.6,-3.2 C 4.6,-4 4.55,-4.8 4.2,-5.54 3.74,-6.5 2.92,-6.66 2.5,-6.66 1.9,-6.66 1.17,-6.4 0.76,-5.47 0.44,-4.78 0.39,-4 0.39,-3.2 c 0,0.75 0.04,1.65 0.45,2.41 C 1.27,0.02 2,0.22 2.49,0.22 3.03,0.22 3.79,0.01 4.23,-0.94 4.55,-1.63 4.6,-2.41 4.6,-3.2 z M 2.49,0 C 2.1,0 1.51,-0.25 1.33,-1.21 1.22,-1.81 1.22,-2.73 1.22,-3.32 c 0,-0.64 0,-1.3 0.08,-1.84 0.19,-1.19 0.94,-1.28 1.19,-1.28 0.33,0 0.99,0.18 1.18,1.17 0.1,0.56 0.1,1.32 0.1,1.95 0,0.75 0,1.43 -0.11,2.07 C 3.51,-0.3 2.94,0 2.49,0 z"
           id="equation_05_01" />
        <path
           inkscape:connector-curvature="0"
           d="m 6.87,-3.27 c 0.15,0 0.34,0 0.34,-0.2 0,-0.2 -0.19,-0.2 -0.33,-0.2 H 0.89 c -0.14,0 -0.33,0 -0.33,0.2 0,0.2 0.19,0.2 0.34,0.2 h 5.97 z m 0.01,1.94 c 0.14,0 0.33,0 0.33,-0.2 0,-0.2 -0.19,-0.2 -0.34,-0.2 H 0.9 c -0.15,0 -0.34,0 -0.34,0.2 0,0.2 0.19,0.2 0.33,0.2 h 5.99 z"
           id="equation_05_02" />
        <path
           inkscape:connector-curvature="0"
           d="M 2.5,-6.94 1.16,-5.58 1.34,-5.4 2.5,-6.42 3.65,-5.4 3.83,-5.58 2.5,-6.94 z"
           id="equation_05_03" />
        <path
           inkscape:connector-curvature="0"
           d="m 2.268,-4.375 c 0,-0.112 -0.084,-0.266 -0.28,-0.266 -0.189,0 -0.392,0.182 -0.392,0.385 0,0.119 0.091,0.266 0.28,0.266 0.203,0 0.392,-0.196 0.392,-0.385 z M 0.84,-0.819 c -0.028,0.091 -0.063,0.175 -0.063,0.294 0,0.329 0.28,0.595 0.665,0.595 0.7,0 1.008,-0.966 1.008,-1.071 0,-0.091 -0.091,-0.091 -0.112,-0.091 -0.098,0 -0.105,0.042 -0.133,0.119 -0.161,0.56 -0.469,0.847 -0.742,0.847 -0.14,0 -0.175,-0.091 -0.175,-0.245 0,-0.161 0.049,-0.294 0.112,-0.448 0.07,-0.189 0.147,-0.378 0.224,-0.56 0.063,-0.168 0.315,-0.805 0.343,-0.889 0.021,-0.07 0.042,-0.154 0.042,-0.224 0,-0.329 -0.28,-0.595 -0.665,-0.595 -0.693,0 -1.015,0.952 -1.015,1.071 0,0.091 0.098,0.091 0.119,0.091 0.098,0 0.105,-0.035 0.126,-0.112 0.182,-0.602 0.49,-0.854 0.749,-0.854 0.112,0 0.175,0.056 0.175,0.245 0,0.161 -0.042,0.266 -0.217,0.7 L 0.84,-0.819 z"
           id="equation_05_04" />
      </defs>
      <g
         id="equation_05_g">
        <use
           height="1052.3622"
           width="744.09448"
           x="78.352097"
           xlink:href="#equation_05_03"
           y="60.361099"
           id="use5099" />
        <use
           height="1052.3622"
           width="744.09448"
           x="77"
           xlink:href="#equation_05_00"
           y="63"
           id="use5101" />
        <use
           height="1052.3622"
           width="744.09448"
           x="81.375"
           xlink:href="#equation_05_04"
           y="64.5"
           id="use5103" />
        <use
           height="1052.3622"
           width="744.09448"
           x="87.482002"
           xlink:href="#equation_05_02"
           y="63"
           id="use5105" />
        <use
           height="1052.3622"
           width="744.09448"
           x="98.037498"
           xlink:href="#equation_05_01"
           y="63"
           id="use5107" />
      </g>
    </g>
    <g
       transform="matrix(3.3059668,0,0,3.3059668,203.74785,264.71129)"
       title="$\hat{\xi_i}$"
       style="fill:#000000"
       id="equation_06">
      <defs
         id="defs5256">
        <path
           inkscape:connector-curvature="0"
           id="equation_06_00"
           d="m 1.54,-3.06 c -1.09,0.72 -1.31,1.66 -1.31,2.02 0,0.48 0.27,0.76 0.29,0.79 0.32,0.33 0.41,0.37 1.16,0.65 L 2.89,0.87 C 3.04,0.94 3.24,1.01 3.24,1.3 3.24,1.53 3.06,1.83 2.75,1.83 2.31,1.83 1.98,1.59 1.87,1.51 1.81,1.47 1.8,1.46 1.76,1.46 c -0.08,0 -0.1,0.07 -0.1,0.11 0,0.12 0.53,0.48 1.09,0.48 0.62,0 1.04,-0.58 1.04,-1.07 C 3.79,0.5 3.42,0.32 3.31,0.27 3.17,0.22 2.83,0.09 2.7,0.04 2.5,-0.04 2.3,-0.12 2.09,-0.19 L 1.49,-0.43 C 1.04,-0.61 0.74,-0.9 0.74,-1.32 c 0,-0.41 0.39,-1.28 1.23,-1.7 0.37,0.13 0.67,0.13 0.88,0.13 0.3,0 0.93,0 0.93,-0.31 0,-0.25 -0.43,-0.27 -0.82,-0.27 -0.18,0 -0.47,0 -0.84,0.12 -0.26,-0.26 -0.3,-0.59 -0.3,-0.78 0,-0.56 0.36,-1.33 1.11,-1.7 0.18,0.22 0.41,0.22 0.64,0.22 0.25,0 0.89,0 0.89,-0.31 0,-0.26 -0.44,-0.27 -0.83,-0.27 -0.13,0 -0.37,0 -0.63,0.05 C 2.97,-6.23 2.95,-6.3 2.95,-6.47 2.95,-6.61 3,-6.82 3,-6.84 3,-6.92 2.95,-6.97 2.88,-6.97 c -0.18,0 -0.18,0.46 -0.18,0.49 0,0.2 0.06,0.35 0.07,0.39 -1.07,0.3 -1.75,1.1 -1.75,1.87 0,0.37 0.18,0.79 0.65,1.06 l -0.13,0.1 z m 1.62,-2.86 c 0.16,-0.05 0.37,-0.05 0.48,-0.05 0.34,0 0.38,0.01 0.56,0.06 -0.08,0.03 -0.18,0.08 -0.62,0.08 -0.19,0 -0.31,0 -0.42,-0.09 z m -0.78,2.73 c 0.23,-0.06 0.45,-0.06 0.57,-0.06 0.35,0 0.39,0.01 0.57,0.06 -0.08,0.04 -0.18,0.08 -0.64,0.08 -0.23,0 -0.32,0 -0.5,-0.08 z" />
        <path
           inkscape:connector-curvature="0"
           id="equation_06_01"
           d="M 2.5,-6.94 1.16,-5.58 1.34,-5.4 2.5,-6.42 3.65,-5.4 3.83,-5.58 2.5,-6.94 z" />
        <path
           inkscape:connector-curvature="0"
           id="equation_06_02"
           d="m 2.268,-4.375 c 0,-0.112 -0.084,-0.266 -0.28,-0.266 -0.189,0 -0.392,0.182 -0.392,0.385 0,0.119 0.091,0.266 0.28,0.266 0.203,0 0.392,-0.196 0.392,-0.385 z M 0.84,-0.819 c -0.028,0.091 -0.063,0.175 -0.063,0.294 0,0.329 0.28,0.595 0.665,0.595 0.7,0 1.008,-0.966 1.008,-1.071 0,-0.091 -0.091,-0.091 -0.112,-0.091 -0.098,0 -0.105,0.042 -0.133,0.119 -0.161,0.56 -0.469,0.847 -0.742,0.847 -0.14,0 -0.175,-0.091 -0.175,-0.245 0,-0.161 0.049,-0.294 0.112,-0.448 0.07,-0.189 0.147,-0.378 0.224,-0.56 0.063,-0.168 0.315,-0.805 0.343,-0.889 0.021,-0.07 0.042,-0.154 0.042,-0.224 0,-0.329 -0.28,-0.595 -0.665,-0.595 -0.693,0 -1.015,0.952 -1.015,1.071 0,0.091 0.098,0.091 0.119,0.091 0.098,0 0.105,-0.035 0.126,-0.112 0.182,-0.602 0.49,-0.854 0.749,-0.854 0.112,0 0.175,0.056 0.175,0.245 0,0.161 -0.042,0.266 -0.217,0.7 L 0.84,-0.819 z" />
      </defs>
      <g
         id="equation_06_g">
        <use
           height="1052.3622"
           width="744.09448"
           id="use5262"
           y="60.361099"
           xlink:href="#equation_06_01"
           x="78.352097" />
        <use
           height="1052.3622"
           width="744.09448"
           id="use5264"
           y="63"
           xlink:href="#equation_06_00"
           x="77" />
        <use
           height="1052.3622"
           width="744.09448"
           id="use5266"
           y="64.5"
           xlink:href="#equation_06_02"
           x="81.375" />
      </g>
    </g>
    <g
       transform="matrix(3.3059668,0,0,3.3059668,239.10319,328.3509)"
       id="equation_07"
       style="fill:#000000"
       title="$\xi_i=0$">
      <defs
         id="defs5433">
        <path
           inkscape:connector-curvature="0"
           d="m 1.54,-3.06 c -1.09,0.72 -1.31,1.66 -1.31,2.02 0,0.48 0.27,0.76 0.29,0.79 0.32,0.33 0.41,0.37 1.16,0.65 L 2.89,0.87 C 3.04,0.94 3.24,1.01 3.24,1.3 3.24,1.53 3.06,1.83 2.75,1.83 2.31,1.83 1.98,1.59 1.87,1.51 1.81,1.47 1.8,1.46 1.76,1.46 c -0.08,0 -0.1,0.07 -0.1,0.11 0,0.12 0.53,0.48 1.09,0.48 0.62,0 1.04,-0.58 1.04,-1.07 C 3.79,0.5 3.42,0.32 3.31,0.27 3.17,0.22 2.83,0.09 2.7,0.04 2.5,-0.04 2.3,-0.12 2.09,-0.19 L 1.49,-0.43 C 1.04,-0.61 0.74,-0.9 0.74,-1.32 c 0,-0.41 0.39,-1.28 1.23,-1.7 0.37,0.13 0.67,0.13 0.88,0.13 0.3,0 0.93,0 0.93,-0.31 0,-0.25 -0.43,-0.27 -0.82,-0.27 -0.18,0 -0.47,0 -0.84,0.12 -0.26,-0.26 -0.3,-0.59 -0.3,-0.78 0,-0.56 0.36,-1.33 1.11,-1.7 0.18,0.22 0.41,0.22 0.64,0.22 0.25,0 0.89,0 0.89,-0.31 0,-0.26 -0.44,-0.27 -0.83,-0.27 -0.13,0 -0.37,0 -0.63,0.05 C 2.97,-6.23 2.95,-6.3 2.95,-6.47 2.95,-6.61 3,-6.82 3,-6.84 3,-6.92 2.95,-6.97 2.88,-6.97 c -0.18,0 -0.18,0.46 -0.18,0.49 0,0.2 0.06,0.35 0.07,0.39 -1.07,0.3 -1.75,1.1 -1.75,1.87 0,0.37 0.18,0.79 0.65,1.06 l -0.13,0.1 z m 1.62,-2.86 c 0.16,-0.05 0.37,-0.05 0.48,-0.05 0.34,0 0.38,0.01 0.56,0.06 -0.08,0.03 -0.18,0.08 -0.62,0.08 -0.19,0 -0.31,0 -0.42,-0.09 z m -0.78,2.73 c 0.23,-0.06 0.45,-0.06 0.57,-0.06 0.35,0 0.39,0.01 0.57,0.06 -0.08,0.04 -0.18,0.08 -0.64,0.08 -0.23,0 -0.32,0 -0.5,-0.08 z"
           id="equation_07_00" />
        <path
           inkscape:connector-curvature="0"
           d="M 4.6,-3.2 C 4.6,-4 4.55,-4.8 4.2,-5.54 3.74,-6.5 2.92,-6.66 2.5,-6.66 1.9,-6.66 1.17,-6.4 0.76,-5.47 0.44,-4.78 0.39,-4 0.39,-3.2 c 0,0.75 0.04,1.65 0.45,2.41 C 1.27,0.02 2,0.22 2.49,0.22 3.03,0.22 3.79,0.01 4.23,-0.94 4.55,-1.63 4.6,-2.41 4.6,-3.2 z M 2.49,0 C 2.1,0 1.51,-0.25 1.33,-1.21 1.22,-1.81 1.22,-2.73 1.22,-3.32 c 0,-0.64 0,-1.3 0.08,-1.84 0.19,-1.19 0.94,-1.28 1.19,-1.28 0.33,0 0.99,0.18 1.18,1.17 0.1,0.56 0.1,1.32 0.1,1.95 0,0.75 0,1.43 -0.11,2.07 C 3.51,-0.3 2.94,0 2.49,0 z"
           id="equation_07_01" />
        <path
           inkscape:connector-curvature="0"
           d="m 6.87,-3.27 c 0.15,0 0.34,0 0.34,-0.2 0,-0.2 -0.19,-0.2 -0.33,-0.2 H 0.89 c -0.14,0 -0.33,0 -0.33,0.2 0,0.2 0.19,0.2 0.34,0.2 h 5.97 z m 0.01,1.94 c 0.14,0 0.33,0 0.33,-0.2 0,-0.2 -0.19,-0.2 -0.34,-0.2 H 0.9 c -0.15,0 -0.34,0 -0.34,0.2 0,0.2 0.19,0.2 0.33,0.2 h 5.99 z"
           id="equation_07_02" />
        <path
           inkscape:connector-curvature="0"
           d="m 2.268,-4.375 c 0,-0.112 -0.084,-0.266 -0.28,-0.266 -0.189,0 -0.392,0.182 -0.392,0.385 0,0.119 0.091,0.266 0.28,0.266 0.203,0 0.392,-0.196 0.392,-0.385 z M 0.84,-0.819 c -0.028,0.091 -0.063,0.175 -0.063,0.294 0,0.329 0.28,0.595 0.665,0.595 0.7,0 1.008,-0.966 1.008,-1.071 0,-0.091 -0.091,-0.091 -0.112,-0.091 -0.098,0 -0.105,0.042 -0.133,0.119 -0.161,0.56 -0.469,0.847 -0.742,0.847 -0.14,0 -0.175,-0.091 -0.175,-0.245 0,-0.161 0.049,-0.294 0.112,-0.448 0.07,-0.189 0.147,-0.378 0.224,-0.56 0.063,-0.168 0.315,-0.805 0.343,-0.889 0.021,-0.07 0.042,-0.154 0.042,-0.224 0,-0.329 -0.28,-0.595 -0.665,-0.595 -0.693,0 -1.015,0.952 -1.015,1.071 0,0.091 0.098,0.091 0.119,0.091 0.098,0 0.105,-0.035 0.126,-0.112 0.182,-0.602 0.49,-0.854 0.749,-0.854 0.112,0 0.175,0.056 0.175,0.245 0,0.161 -0.042,0.266 -0.217,0.7 L 0.84,-0.819 z"
           id="equation_07_03" />
      </defs>
      <g
         id="equation_07_g">
        <use
           height="1052.3622"
           width="744.09448"
           x="77"
           xlink:href="#equation_07_00"
           y="63"
           id="use5440" />
        <use
           height="1052.3622"
           width="744.09448"
           x="81.375"
           xlink:href="#equation_07_03"
           y="64.5"
           id="use5442" />
        <use
           height="1052.3622"
           width="744.09448"
           x="87.482002"
           xlink:href="#equation_07_02"
           y="63"
           id="use5444" />
        <use
           height="1052.3622"
           width="744.09448"
           x="98.037498"
           xlink:href="#equation_07_01"
           y="63"
           id="use5446" />
      </g>
    </g>
    <path
       transform="translate(46.253617,335.62064)"
       d="m 388.90873,177.57008 a 5.0507627,5.0507627 0 1 1 -10.10152,0 5.0507627,5.0507627 0 1 1 10.10152,0 z"
       sodipodi:ry="5.0507627"
       sodipodi:rx="5.0507627"
       sodipodi:cy="177.57008"
       sodipodi:cx="383.85797"
       id="path4646-8"
       style="fill:#ff0000;stroke:#ff0000;stroke-width:2;stroke-linecap:round;stroke-linejoin:round;stroke-miterlimit:4;stroke-opacity:1;stroke-dasharray:none;stroke-dashoffset:0"
       sodipodi:type="arc" />
    <path
       inkscape:connector-curvature="0"
       id="path4648-2"
       d="m 430.11159,407.1247 0,106.06602"
       style="fill:none;stroke:#000000;stroke-width:1px;stroke-linecap:butt;stroke-linejoin:miter;stroke-opacity:1" />
    <path
       sodipodi:nodetypes="cc"
       inkscape:connector-curvature="0"
       id="path4650-4"
       d="m 433.14204,407.1247 c 28.45956,28.82495 30.90855,80.16867 -1.01012,104.04597"
       style="fill:none;stroke:#000000;stroke-width:1px;stroke-linecap:butt;stroke-linejoin:miter;stroke-opacity:1" />
    <g
       title="$\xi_i=\hat{\xi_i}=0$"
       style="fill:#000000"
       id="equation_08"
       transform="matrix(2.7404832,0,0,2.7404832,75.694209,197.9454)">
      <defs
         id="defs5659">
        <path
           id="equation_08_00"
           d="m 1.54,-3.06 c -1.09,0.72 -1.31,1.66 -1.31,2.02 0,0.48 0.27,0.76 0.29,0.79 0.32,0.33 0.41,0.37 1.16,0.65 L 2.89,0.87 C 3.04,0.94 3.24,1.01 3.24,1.3 3.24,1.53 3.06,1.83 2.75,1.83 2.31,1.83 1.98,1.59 1.87,1.51 1.81,1.47 1.8,1.46 1.76,1.46 c -0.08,0 -0.1,0.07 -0.1,0.11 0,0.12 0.53,0.48 1.09,0.48 0.62,0 1.04,-0.58 1.04,-1.07 C 3.79,0.5 3.42,0.32 3.31,0.27 3.17,0.22 2.83,0.09 2.7,0.04 2.5,-0.04 2.3,-0.12 2.09,-0.19 L 1.49,-0.43 C 1.04,-0.61 0.74,-0.9 0.74,-1.32 c 0,-0.41 0.39,-1.28 1.23,-1.7 0.37,0.13 0.67,0.13 0.88,0.13 0.3,0 0.93,0 0.93,-0.31 0,-0.25 -0.43,-0.27 -0.82,-0.27 -0.18,0 -0.47,0 -0.84,0.12 -0.26,-0.26 -0.3,-0.59 -0.3,-0.78 0,-0.56 0.36,-1.33 1.11,-1.7 0.18,0.22 0.41,0.22 0.64,0.22 0.25,0 0.89,0 0.89,-0.31 0,-0.26 -0.44,-0.27 -0.83,-0.27 -0.13,0 -0.37,0 -0.63,0.05 C 2.97,-6.23 2.95,-6.3 2.95,-6.47 2.95,-6.61 3,-6.82 3,-6.84 3,-6.92 2.95,-6.97 2.88,-6.97 c -0.18,0 -0.18,0.46 -0.18,0.49 0,0.2 0.06,0.35 0.07,0.39 -1.07,0.3 -1.75,1.1 -1.75,1.87 0,0.37 0.18,0.79 0.65,1.06 l -0.13,0.1 z m 1.62,-2.86 c 0.16,-0.05 0.37,-0.05 0.48,-0.05 0.34,0 0.38,0.01 0.56,0.06 -0.08,0.03 -0.18,0.08 -0.62,0.08 -0.19,0 -0.31,0 -0.42,-0.09 z m -0.78,2.73 c 0.23,-0.06 0.45,-0.06 0.57,-0.06 0.35,0 0.39,0.01 0.57,0.06 -0.08,0.04 -0.18,0.08 -0.64,0.08 -0.23,0 -0.32,0 -0.5,-0.08 z"
           inkscape:connector-curvature="0" />
        <path
           id="equation_08_01"
           d="M 4.6,-3.2 C 4.6,-4 4.55,-4.8 4.2,-5.54 3.74,-6.5 2.92,-6.66 2.5,-6.66 1.9,-6.66 1.17,-6.4 0.76,-5.47 0.44,-4.78 0.39,-4 0.39,-3.2 c 0,0.75 0.04,1.65 0.45,2.41 C 1.27,0.02 2,0.22 2.49,0.22 3.03,0.22 3.79,0.01 4.23,-0.94 4.55,-1.63 4.6,-2.41 4.6,-3.2 z M 2.49,0 C 2.1,0 1.51,-0.25 1.33,-1.21 1.22,-1.81 1.22,-2.73 1.22,-3.32 c 0,-0.64 0,-1.3 0.08,-1.84 0.19,-1.19 0.94,-1.28 1.19,-1.28 0.33,0 0.99,0.18 1.18,1.17 0.1,0.56 0.1,1.32 0.1,1.95 0,0.75 0,1.43 -0.11,2.07 C 3.51,-0.3 2.94,0 2.49,0 z"
           inkscape:connector-curvature="0" />
        <path
           id="equation_08_02"
           d="m 6.87,-3.27 c 0.15,0 0.34,0 0.34,-0.2 0,-0.2 -0.19,-0.2 -0.33,-0.2 H 0.89 c -0.14,0 -0.33,0 -0.33,0.2 0,0.2 0.19,0.2 0.34,0.2 h 5.97 z m 0.01,1.94 c 0.14,0 0.33,0 0.33,-0.2 0,-0.2 -0.19,-0.2 -0.34,-0.2 H 0.9 c -0.15,0 -0.34,0 -0.34,0.2 0,0.2 0.19,0.2 0.33,0.2 h 5.99 z"
           inkscape:connector-curvature="0" />
        <path
           id="equation_08_03"
           d="M 2.5,-6.94 1.16,-5.58 1.34,-5.4 2.5,-6.42 3.65,-5.4 3.83,-5.58 2.5,-6.94 z"
           inkscape:connector-curvature="0" />
        <path
           id="equation_08_04"
           d="m 2.268,-4.375 c 0,-0.112 -0.084,-0.266 -0.28,-0.266 -0.189,0 -0.392,0.182 -0.392,0.385 0,0.119 0.091,0.266 0.28,0.266 0.203,0 0.392,-0.196 0.392,-0.385 z M 0.84,-0.819 c -0.028,0.091 -0.063,0.175 -0.063,0.294 0,0.329 0.28,0.595 0.665,0.595 0.7,0 1.008,-0.966 1.008,-1.071 0,-0.091 -0.091,-0.091 -0.112,-0.091 -0.098,0 -0.105,0.042 -0.133,0.119 -0.161,0.56 -0.469,0.847 -0.742,0.847 -0.14,0 -0.175,-0.091 -0.175,-0.245 0,-0.161 0.049,-0.294 0.112,-0.448 0.07,-0.189 0.147,-0.378 0.224,-0.56 0.063,-0.168 0.315,-0.805 0.343,-0.889 0.021,-0.07 0.042,-0.154 0.042,-0.224 0,-0.329 -0.28,-0.595 -0.665,-0.595 -0.693,0 -1.015,0.952 -1.015,1.071 0,0.091 0.098,0.091 0.119,0.091 0.098,0 0.105,-0.035 0.126,-0.112 0.182,-0.602 0.49,-0.854 0.749,-0.854 0.112,0 0.175,0.056 0.175,0.245 0,0.161 -0.042,0.266 -0.217,0.7 L 0.84,-0.819 z"
           inkscape:connector-curvature="0" />
      </defs>
      <g
         id="equation_08_g">
        <use
           id="use5667"
           y="63"
           xlink:href="#equation_08_00"
           x="77"
           width="744.09448"
           height="1052.3622" />
        <use
           id="use5669"
           y="64.5"
           xlink:href="#equation_08_04"
           x="81.375"
           width="744.09448"
           height="1052.3622" />
        <use
           id="use5671"
           y="63"
           xlink:href="#equation_08_02"
           x="87.482002"
           width="744.09448"
           height="1052.3622" />
        <use
           id="use5673"
           y="60.361099"
           xlink:href="#equation_08_03"
           x="99.389702"
           width="744.09448"
           height="1052.3622" />
        <use
           id="use5675"
           y="63"
           xlink:href="#equation_08_00"
           x="98.037498"
           width="744.09448"
           height="1052.3622" />
        <use
           id="use5677"
           y="64.5"
           xlink:href="#equation_08_04"
           x="102.413"
           width="744.09448"
           height="1052.3622" />
        <use
           id="use5679"
           y="63"
           xlink:href="#equation_08_02"
           x="108.52"
           width="744.09448"
           height="1052.3622" />
        <use
           id="use5681"
           y="63"
           xlink:href="#equation_08_01"
           x="119.075"
           width="744.09448"
           height="1052.3622" />
      </g>
    </g>
  </g>
</svg>
