<?xml version="1.0" encoding="UTF-8" standalone="no"?>
<!-- Created with Inkscape (http://www.inkscape.org/) -->

<svg
   xmlns:dc="http://purl.org/dc/elements/1.1/"
   xmlns:cc="http://creativecommons.org/ns#"
   xmlns:rdf="http://www.w3.org/1999/02/22-rdf-syntax-ns#"
   xmlns:svg="http://www.w3.org/2000/svg"
   xmlns="http://www.w3.org/2000/svg"
   xmlns:xlink="http://www.w3.org/1999/xlink"
   xmlns:sodipodi="http://sodipodi.sourceforge.net/DTD/sodipodi-0.dtd"
   xmlns:inkscape="http://www.inkscape.org/namespaces/inkscape"
   width="210mm"
   height="297mm"
   id="svg2"
   version="1.1"
   inkscape:version="0.48.4 r9939"
   sodipodi:docname="tangent_propagation2.svg"
   inkscape:export-filename="\\EULER\nineties\projects\prml-seminar\fig\tangent_propagation2.png"
   inkscape:export-xdpi="95.32"
   inkscape:export-ydpi="95.32">
  <sodipodi:namedview
     id="base"
     pagecolor="#ffffff"
     bordercolor="#666666"
     borderopacity="1.0"
     inkscape:pageopacity="0.0"
     inkscape:pageshadow="2"
     inkscape:zoom="0.7"
     inkscape:cx="428.64601"
     inkscape:cy="922.22376"
     inkscape:document-units="px"
     inkscape:current-layer="layer1"
     showgrid="false"
     inkscape:window-width="1366"
     inkscape:window-height="746"
     inkscape:window-x="-8"
     inkscape:window-y="-8"
     inkscape:window-maximized="1" />
  <defs
     id="defs4">
    <marker
       style="overflow:visible;"
       id="Arrow1Lend"
       refX="0.0"
       refY="0.0"
       orient="auto"
       inkscape:stockid="Arrow1Lend">
      <path
         transform="scale(0.8) rotate(180) translate(12.5,0)"
         style="fill-rule:evenodd;stroke:#000000;stroke-width:1.0pt;"
         d="M 0.0,0.0 L 5.0,-5.0 L -12.5,0.0 L 5.0,5.0 L 0.0,0.0 z "
         id="path5209" />
    </marker>
    <marker
       style="overflow:visible;"
       id="Arrow1Mend"
       refX="0.0"
       refY="0.0"
       orient="auto"
       inkscape:stockid="Arrow1Mend">
      <path
         transform="scale(0.4) rotate(180) translate(10,0)"
         style="fill-rule:evenodd;stroke:#000000;stroke-width:1.0pt;"
         d="M 0.0,0.0 L 5.0,-5.0 L -12.5,0.0 L 5.0,5.0 L 0.0,0.0 z "
         id="path5215" />
    </marker>
    <defs
       id="defs4535">
      <path
         inkscape:connector-curvature="0"
         id="equation_01_00"
         d="m 5.47,-4.9 c 0,-1.76 -1.04,-2.12 -1.65,-2.12 -0.79,0 -1.79,0.52 -2.54,1.88 -0.51,0.94 -0.82,2.3 -0.82,3.11 0,1.45 0.76,2.11 1.66,2.11 0.67,0 1.55,-0.39 2.24,-1.41 0.84,-1.23 1.11,-2.82 1.11,-3.57 z m -3.49,1.19 c 0.14,-0.58 0.4,-1.49 0.7,-2.01 0.23,-0.41 0.64,-0.94 1.12,-0.94 0.42,0 0.6,0.44 0.6,1.03 0,0.63 -0.22,1.5 -0.33,1.92 H 1.98 z m 1.97,0.48 C 3.33,-0.55 2.49,-0.28 2.14,-0.28 2,-0.28 1.79,-0.32 1.65,-0.63 1.53,-0.9 1.53,-1.29 1.53,-1.3 c 0,-0.57 0.22,-1.5 0.33,-1.93 h 2.09 z" />
      <path
         inkscape:connector-curvature="0"
         id="equation_01_01"
         d="m 0.854,-0.441 c -0.028,0.091 -0.07,0.266 -0.07,0.287 0,0.154 0.126,0.224 0.238,0.224 0.126,0 0.238,-0.091 0.273,-0.154 0.035,-0.063 0.091,-0.287 0.126,-0.434 0.035,-0.133 0.112,-0.455 0.154,-0.63 0.042,-0.154 0.084,-0.308 0.119,-0.469 0.077,-0.287 0.091,-0.343 0.294,-0.63 0.196,-0.28 0.525,-0.644 1.05,-0.644 0.406,0 0.413,0.357 0.413,0.49 0,0.42 -0.301,1.197 -0.413,1.491 -0.077,0.196 -0.105,0.259 -0.105,0.378 0,0.371 0.308,0.602 0.665,0.602 0.7,0 1.008,-0.966 1.008,-1.071 0,-0.091 -0.091,-0.091 -0.112,-0.091 -0.098,0 -0.105,0.042 -0.133,0.119 -0.161,0.56 -0.462,0.847 -0.742,0.847 -0.147,0 -0.175,-0.098 -0.175,-0.245 0,-0.161 0.035,-0.252 0.161,-0.567 0.084,-0.217 0.371,-0.959 0.371,-1.351 0,-0.679 -0.539,-0.798 -0.91,-0.798 -0.581,0 -0.973,0.357 -1.183,0.637 -0.049,-0.483 -0.462,-0.637 -0.749,-0.637 -0.301,0 -0.462,0.217 -0.553,0.378 -0.154,0.259 -0.252,0.658 -0.252,0.693 0,0.091 0.098,0.091 0.119,0.091 0.098,0 0.105,-0.021 0.154,-0.21 0.105,-0.413 0.238,-0.756 0.511,-0.756 0.182,0 0.231,0.154 0.231,0.343 0,0.133 -0.063,0.392 -0.112,0.581 -0.049,0.189 -0.119,0.476 -0.154,0.63 l -0.224,0.896 z" />
      <path
         inkscape:connector-curvature="0"
         id="equation_01_02"
         d="M 3.31,2.4 C 3.31,2.37 3.31,2.35 3.14,2.18 1.89,0.92 1.57,-0.97 1.57,-2.5 c 0,-1.74 0.38,-3.48 1.61,-4.73 0.13,-0.12 0.13,-0.14 0.13,-0.17 0,-0.07 -0.04,-0.1 -0.1,-0.1 -0.1,0 -1,0.68 -1.59,1.95 -0.51,1.1 -0.63,2.21 -0.63,3.05 0,0.78 0.11,1.99 0.66,3.12 0.6,1.23 1.46,1.88 1.56,1.88 0.06,0 0.1,-0.03 0.1,-0.1 z" />
      <path
         inkscape:connector-curvature="0"
         id="equation_01_03"
         d="M 2.89,-2.5 C 2.89,-3.28 2.78,-4.49 2.23,-5.62 1.63,-6.85 0.77,-7.5 0.67,-7.5 c -0.06,0 -0.1,0.04 -0.1,0.1 0,0.03 0,0.05 0.19,0.23 0.98,0.99 1.55,2.58 1.55,4.67 0,1.71 -0.37,3.47 -1.61,4.73 -0.13,0.12 -0.13,0.14 -0.13,0.17 0,0.06 0.04,0.1 0.1,0.1 0.1,0 1,-0.68 1.59,-1.95 0.51,-1.1 0.63,-2.21 0.63,-3.05 z" />
      <path
         inkscape:connector-curvature="0"
         id="equation_01_04"
         d="m 6.87,-3.27 c 0.15,0 0.34,0 0.34,-0.2 0,-0.2 -0.19,-0.2 -0.33,-0.2 H 0.89 c -0.14,0 -0.33,0 -0.33,0.2 0,0.2 0.19,0.2 0.34,0.2 h 5.97 z m 0.01,1.94 c 0.14,0 0.33,0 0.33,-0.2 0,-0.2 -0.19,-0.2 -0.34,-0.2 H 0.9 c -0.15,0 -0.34,0 -0.34,0.2 0,0.2 0.19,0.2 0.33,0.2 h 5.99 z" />
      <path
         inkscape:connector-curvature="0"
         id="equation_01_05"
         d="m 5.29,-3.19 c 0,-0.97 -0.01,-3.36 -2.42,-3.36 -2.41,0 -2.42,2.38 -2.42,3.36 0,0.99 0.01,3.3 2.42,3.3 2.4,0 2.42,-2.3 2.42,-3.3 z M 2.87,-0.25 C 2.51,-0.25 1.95,-0.47 1.82,-1.2 1.73,-1.72 1.73,-2.76 1.73,-3.31 c 0,-0.72 0,-1.37 0.08,-1.89 0.12,-0.89 0.82,-0.99 1.06,-0.99 0.37,0 0.78,0.19 0.97,0.63 0.17,0.37 0.17,1.43 0.17,2.25 0,0.56 0,1.47 -0.07,1.99 -0.14,0.93 -0.77,1.07 -1.07,1.07 z" />
      <path
         inkscape:connector-curvature="0"
         id="equation_01_06"
         d="m 3.46,-2.46 1.17,-1.3 C 4.76,-3.9 4.82,-3.97 5.65,-3.97 V -4.44 C 5.3,-4.42 4.78,-4.41 4.73,-4.41 4.48,-4.41 3.98,-4.43 3.7,-4.44 v 0.47 c 0.14,0 0.26,0.02 0.38,0.09 C 4.04,-3.82 4.04,-3.8 4,-3.76 L 3.16,-2.82 2.18,-3.97 h 0.4 v -0.47 c -0.26,0.01 -0.89,0.03 -1.21,0.03 -0.32,0 -0.77,-0.02 -1.1,-0.03 v 0.47 h 0.71 l 1.56,1.84 -1.31,1.47 C 1.06,-0.47 0.7,-0.47 0.22,-0.47 V 0 c 0.35,-0.02 0.87,-0.03 0.92,-0.03 0.25,0 0.83,0.02 1.03,0.03 v -0.47 c -0.18,0 -0.37,-0.05 -0.37,-0.11 0,-0.01 0,-0.02 0.07,-0.1 l 0.97,-1.09 1.1,1.3 H 3.55 V 0 c 0.26,-0.01 0.87,-0.03 1.2,-0.03 0.32,0 0.77,0.02 1.1,0.03 V -0.47 H 5.14 L 3.46,-2.46 z" />
    </defs>
    <marker
       style="overflow:visible;"
       id="Arrow1MendZ"
       refX="0.0"
       refY="0.0"
       orient="auto"
       inkscape:stockid="Arrow1MendZ">
      <path
         transform="scale(0.4) rotate(180) translate(10,0)"
         style="stroke:#ff0000;stroke-width:1.0pt;fill:#ff0000;fill-rule:evenodd"
         d="M 0.0,0.0 L 5.0,-5.0 L -12.5,0.0 L 5.0,5.0 L 0.0,0.0 z "
         id="path6218" />
    </marker>
  </defs>
  <metadata
     id="metadata7">
    <rdf:RDF>
      <cc:Work
         rdf:about="">
        <dc:format>image/svg+xml</dc:format>
        <dc:type
           rdf:resource="http://purl.org/dc/dcmitype/StillImage" />
        <dc:title></dc:title>
      </cc:Work>
    </rdf:RDF>
  </metadata>
  <g
     inkscape:label="レイヤー 1"
     inkscape:groupmode="layer"
     id="layer1">
    <g
       id="g4781"
       transform="matrix(4.072688,0,0,4.072688,-232.20062,-48.944256)">
      <use
         transform="translate(23.571429,9.6428572)"
         height="1052.3622"
         width="744.09448"
         id="use4545"
         y="63"
         xlink:href="#equation_01_06"
         x="77"
         style="fill:#000000" />
      <use
         transform="translate(23.571429,9.6428572)"
         height="1052.3622"
         width="744.09448"
         id="use4547"
         y="64.5"
         xlink:href="#equation_01_01"
         x="83.069397"
         style="fill:#000000" />
    </g>
    <g
       id="g4776"
       transform="matrix(3.2566816,0,0,3.2566816,-221.2375,-59.161319)">
      <use
         transform="translate(23.571429,9.6428572)"
         height="1052.3622"
         width="744.09448"
         id="use4551"
         y="63"
         xlink:href="#equation_01_00"
         x="102.402"
         style="fill:#000000" />
      <use
         transform="translate(23.571429,9.6428572)"
         height="1052.3622"
         width="744.09448"
         id="use4553"
         y="63"
         xlink:href="#equation_01_04"
         x="111.117"
         style="fill:#000000" />
      <use
         transform="translate(23.571429,9.6428572)"
         height="1052.3622"
         width="744.09448"
         id="use4555"
         y="63"
         xlink:href="#equation_01_05"
         x="121.672"
         style="fill:#000000" />
    </g>
    <g
       title="$\mathbf{x}=s(\mathbf{x}_n,\boldsymbol{\theta})$"
       style="fill:#000000"
       id="equation_02"
       transform="matrix(4.072688,0,0,4.072688,221.27572,115.70336)">
      <defs
         id="defs4638">
        <path
           id="equation_02_00"
           d="m 5.47,-4.9 c 0,-1.76 -1.04,-2.12 -1.65,-2.12 -0.79,0 -1.79,0.52 -2.54,1.88 -0.51,0.94 -0.82,2.3 -0.82,3.11 0,1.45 0.76,2.11 1.66,2.11 0.67,0 1.55,-0.39 2.24,-1.41 0.84,-1.23 1.11,-2.82 1.11,-3.57 z m -3.49,1.19 c 0.14,-0.58 0.4,-1.49 0.7,-2.01 0.23,-0.41 0.64,-0.94 1.12,-0.94 0.42,0 0.6,0.44 0.6,1.03 0,0.63 -0.22,1.5 -0.33,1.92 H 1.98 z m 1.97,0.48 C 3.33,-0.55 2.49,-0.28 2.14,-0.28 2,-0.28 1.79,-0.32 1.65,-0.63 1.53,-0.9 1.53,-1.29 1.53,-1.3 c 0,-0.57 0.22,-1.5 0.33,-1.93 h 2.09 z"
           inkscape:connector-curvature="0" />
        <path
           id="equation_02_01"
           d="m 2.03,-0.01 c 0,-0.66 -0.25,-1.05 -0.64,-1.05 -0.33,0 -0.53,0.25 -0.53,0.53 0,0.27 0.2,0.53 0.53,0.53 0.12,0 0.25,-0.04 0.35,-0.13 0.03,-0.02 0.04,-0.03 0.05,-0.03 0.01,0 0.02,0.01 0.02,0.15 0,0.74 -0.35,1.34 -0.68,1.67 -0.11,0.11 -0.11,0.13 -0.11,0.16 0,0.07 0.05,0.11 0.1,0.11 0.11,0 0.91,-0.77 0.91,-1.94 z"
           inkscape:connector-curvature="0" />
        <path
           id="equation_02_02"
           d="m 3.91,-3.74 c -0.28,0.01 -0.48,0.23 -0.48,0.45 0,0.14 0.09,0.29 0.31,0.29 0.22,0 0.46,-0.17 0.46,-0.56 0,-0.45 -0.43,-0.86 -1.19,-0.86 -1.32,0 -1.69,1.02 -1.69,1.46 0,0.78 0.74,0.93 1.03,0.99 0.52,0.1 1.04,0.21 1.04,0.76 0,0.26 -0.23,1.1 -1.43,1.1 -0.14,0 -0.91,0 -1.14,-0.53 0.38,0.05 0.63,-0.25 0.63,-0.53 0,-0.23 -0.16,-0.35 -0.37,-0.35 -0.26,0 -0.56,0.21 -0.56,0.66 0,0.57 0.57,0.97 1.43,0.97 1.62,0 2.01,-1.21 2.01,-1.66 0,-0.36 -0.19,-0.61 -0.31,-0.73 -0.27,-0.28 -0.56,-0.33 -1,-0.42 -0.36,-0.08 -0.76,-0.15 -0.76,-0.6 0,-0.29 0.24,-0.9 1.12,-0.9 0.25,0 0.75,0.07 0.9,0.46 z"
           inkscape:connector-curvature="0" />
        <path
           id="equation_02_03"
           d="M 3.31,2.4 C 3.31,2.37 3.31,2.35 3.14,2.18 1.89,0.92 1.57,-0.97 1.57,-2.5 c 0,-1.74 0.38,-3.48 1.61,-4.73 0.13,-0.12 0.13,-0.14 0.13,-0.17 0,-0.07 -0.04,-0.1 -0.1,-0.1 -0.1,0 -1,0.68 -1.59,1.95 -0.51,1.1 -0.63,2.21 -0.63,3.05 0,0.78 0.11,1.99 0.66,3.12 0.6,1.23 1.46,1.88 1.56,1.88 0.06,0 0.1,-0.03 0.1,-0.1 z"
           inkscape:connector-curvature="0" />
        <path
           id="equation_02_04"
           d="M 2.89,-2.5 C 2.89,-3.28 2.78,-4.49 2.23,-5.62 1.63,-6.85 0.77,-7.5 0.67,-7.5 c -0.06,0 -0.1,0.04 -0.1,0.1 0,0.03 0,0.05 0.19,0.23 0.98,0.99 1.55,2.58 1.55,4.67 0,1.71 -0.37,3.47 -1.61,4.73 -0.13,0.12 -0.13,0.14 -0.13,0.17 0,0.06 0.04,0.1 0.1,0.1 0.1,0 1,-0.68 1.59,-1.95 0.51,-1.1 0.63,-2.21 0.63,-3.05 z"
           inkscape:connector-curvature="0" />
        <path
           id="equation_02_05"
           d="m 6.87,-3.27 c 0.15,0 0.34,0 0.34,-0.2 0,-0.2 -0.19,-0.2 -0.33,-0.2 H 0.89 c -0.14,0 -0.33,0 -0.33,0.2 0,0.2 0.19,0.2 0.34,0.2 h 5.97 z m 0.01,1.94 c 0.14,0 0.33,0 0.33,-0.2 0,-0.2 -0.19,-0.2 -0.34,-0.2 H 0.9 c -0.15,0 -0.34,0 -0.34,0.2 0,0.2 0.19,0.2 0.33,0.2 h 5.99 z"
           inkscape:connector-curvature="0" />
        <path
           id="equation_02_06"
           d="m 0.854,-0.441 c -0.028,0.091 -0.07,0.266 -0.07,0.287 0,0.154 0.126,0.224 0.238,0.224 0.126,0 0.238,-0.091 0.273,-0.154 0.035,-0.063 0.091,-0.287 0.126,-0.434 0.035,-0.133 0.112,-0.455 0.154,-0.63 0.042,-0.154 0.084,-0.308 0.119,-0.469 0.077,-0.287 0.091,-0.343 0.294,-0.63 0.196,-0.28 0.525,-0.644 1.05,-0.644 0.406,0 0.413,0.357 0.413,0.49 0,0.42 -0.301,1.197 -0.413,1.491 -0.077,0.196 -0.105,0.259 -0.105,0.378 0,0.371 0.308,0.602 0.665,0.602 0.7,0 1.008,-0.966 1.008,-1.071 0,-0.091 -0.091,-0.091 -0.112,-0.091 -0.098,0 -0.105,0.042 -0.133,0.119 -0.161,0.56 -0.462,0.847 -0.742,0.847 -0.147,0 -0.175,-0.098 -0.175,-0.245 0,-0.161 0.035,-0.252 0.161,-0.567 0.084,-0.217 0.371,-0.959 0.371,-1.351 0,-0.679 -0.539,-0.798 -0.91,-0.798 -0.581,0 -0.973,0.357 -1.183,0.637 -0.049,-0.483 -0.462,-0.637 -0.749,-0.637 -0.301,0 -0.462,0.217 -0.553,0.378 -0.154,0.259 -0.252,0.658 -0.252,0.693 0,0.091 0.098,0.091 0.119,0.091 0.098,0 0.105,-0.021 0.154,-0.21 0.105,-0.413 0.238,-0.756 0.511,-0.756 0.182,0 0.231,0.154 0.231,0.343 0,0.133 -0.063,0.392 -0.112,0.581 -0.049,0.189 -0.119,0.476 -0.154,0.63 l -0.224,0.896 z"
           inkscape:connector-curvature="0" />
        <path
           id="equation_02_07"
           d="m 3.46,-2.46 1.17,-1.3 C 4.76,-3.9 4.82,-3.97 5.65,-3.97 V -4.44 C 5.3,-4.42 4.78,-4.41 4.73,-4.41 4.48,-4.41 3.98,-4.43 3.7,-4.44 v 0.47 c 0.14,0 0.26,0.02 0.38,0.09 C 4.04,-3.82 4.04,-3.8 4,-3.76 L 3.16,-2.82 2.18,-3.97 h 0.4 v -0.47 c -0.26,0.01 -0.89,0.03 -1.21,0.03 -0.32,0 -0.77,-0.02 -1.1,-0.03 v 0.47 h 0.71 l 1.56,1.84 -1.31,1.47 C 1.06,-0.47 0.7,-0.47 0.22,-0.47 V 0 c 0.35,-0.02 0.87,-0.03 0.92,-0.03 0.25,0 0.83,0.02 1.03,0.03 v -0.47 c -0.18,0 -0.37,-0.05 -0.37,-0.11 0,-0.01 0,-0.02 0.07,-0.1 l 0.97,-1.09 1.1,1.3 H 3.55 V 0 c 0.26,-0.01 0.87,-0.03 1.2,-0.03 0.32,0 0.77,0.02 1.1,0.03 V -0.47 H 5.14 L 3.46,-2.46 z"
           inkscape:connector-curvature="0" />
      </defs>
      <g
         id="equation_02_g">
        <use
           id="use4649"
           y="63"
           xlink:href="#equation_02_07"
           x="77"
           width="744.09448"
           height="1052.3622" />
        <use
           id="use4651"
           y="63"
           xlink:href="#equation_02_05"
           x="85.847099"
           width="744.09448"
           height="1052.3622" />
        <use
           id="use4653"
           y="63"
           xlink:href="#equation_02_02"
           x="96.402603"
           width="744.09448"
           height="1052.3622" />
        <use
           id="use4655"
           y="63"
           xlink:href="#equation_02_03"
           x="101.09"
           width="744.09448"
           height="1052.3622" />
        <use
           id="use4657"
           y="63"
           xlink:href="#equation_02_07"
           x="104.979"
           width="744.09448"
           height="1052.3622" />
        <use
           id="use4659"
           y="64.5"
           xlink:href="#equation_02_06"
           x="111.048"
           width="744.09448"
           height="1052.3622" />
        <use
           id="use4661"
           y="63"
           xlink:href="#equation_02_01"
           x="116.492"
           width="744.09448"
           height="1052.3622" />
        <use
           id="use4663"
           y="63"
           xlink:href="#equation_02_00"
           x="120.936"
           width="744.09448"
           height="1052.3622" />
        <use
           id="use4665"
           y="63"
           xlink:href="#equation_02_04"
           x="126.874"
           width="744.09448"
           height="1052.3622" />
      </g>
    </g>
    <path
       sodipodi:type="arc"
       style="fill:#000000;fill-opacity:1;stroke:#000000;stroke-width:1.89999998;stroke-linecap:round;stroke-linejoin:round;stroke-miterlimit:4;stroke-opacity:1;stroke-dasharray:none;stroke-dashoffset:0"
       id="path4739"
       sodipodi:cx="109.82143"
       sodipodi:cy="70.397896"
       sodipodi:rx="0.53571427"
       sodipodi:ry="0.53571427"
       d="m 110.35714,70.397896 a 0.53571427,0.53571427 0 1 1 -1.07143,0 0.53571427,0.53571427 0 1 1 1.07143,0 z"
       transform="matrix(4.072688,0,0,4.072688,-235.00584,-83.878964)" />
    <path
       style="fill:none;stroke:#000000;stroke-width:3;stroke-linecap:butt;stroke-linejoin:miter;stroke-opacity:1;stroke-miterlimit:4;stroke-dasharray:none"
       d="m 28.571429,318.07647 c 40.270364,-2.57108 64.872113,-38.83242 91.320711,-64.55863 25.78426,-31.6897 65.19827,-48.11246 104.73968,-53.98063 34.75456,-8.64409 76.53818,-4.14651 99.93515,25.92753 60.26177,61.86519 65.95564,160.67184 136.40085,214.51048 59.95734,45.41146 149.20617,36.36129 205.06115,-11.46159 18.91461,-12.44139 39.45154,-24.41649 62.54246,-26.15145"
       id="path4789"
       inkscape:connector-curvature="0" />
    <path
       inkscape:connector-curvature="0"
       id="path5832"
       d="M 339.42857,242.36218 408,340.93361"
       style="fill:none;stroke:#ff0000;stroke-width:3;stroke-linecap:butt;stroke-linejoin:miter;stroke-miterlimit:4;stroke-opacity:1;stroke-dasharray:none;marker-end:url(#Arrow1MendZ)" />
    <g
       title="$\frac{\partial\mathbf{s}}{\partial\boldsymbol{\theta}}$"
       style="fill:#ff0000"
       id="equation_00"
       transform="matrix(5.9049843,0,0,5.9049843,-70.712612,-108.04364)">
      <defs
         id="defs6581">
        <path
           id="equation_00_00"
           d="m 4.221,-3.36 c 0,-1.218 -0.756,-1.554 -1.316,-1.554 -0.329,0 -1.099,0.112 -1.771,1.085 -0.476,0.686 -0.721,1.715 -0.721,2.331 0,1.078 0.616,1.554 1.323,1.554 0.364,0 1.064,-0.147 1.694,-0.98 0.497,-0.665 0.791,-1.708 0.791,-2.436 z M 1.54,-2.625 c 0.133,-0.483 0.252,-0.924 0.49,-1.33 0.161,-0.266 0.49,-0.637 0.861,-0.637 0.238,0 0.497,0.175 0.497,0.777 0,0.378 -0.091,0.742 -0.196,1.19 H 1.54 z m 1.554,0.392 c -0.077,0.308 -0.231,0.91 -0.497,1.337 -0.231,0.378 -0.553,0.63 -0.847,0.63 -0.336,0 -0.504,-0.322 -0.504,-0.777 0,-0.357 0.112,-0.847 0.196,-1.19 h 1.652 z"
           inkscape:connector-curvature="0" />
        <path
           id="equation_00_01"
           d="M 3.675,-2.366 C 3.577,-2.772 3.262,-3.192 2.604,-3.192 c -0.98,0 -1.792,0.735 -2.044,1.365 -0.042,0.119 -0.14,0.406 -0.14,0.686 0,0.483 0.378,1.281 1.47,1.281 1.813,0 2.548,-2.261 2.548,-3.255 0,-1.197 -0.784,-1.883 -1.722,-1.883 -1.141,0 -1.456,0.91 -1.456,1.127 0,0.056 0.035,0.252 0.28,0.252 0.245,0 0.392,-0.217 0.392,-0.385 0,-0.189 -0.14,-0.252 -0.273,-0.266 0.35,-0.525 0.924,-0.525 1.043,-0.525 0.525,0 1.148,0.329 1.148,1.323 0,0.301 -0.035,0.546 -0.168,1.106 H 3.675 z m -1.771,2.282 c -0.791,0 -0.882,-0.595 -0.882,-0.812 0,-0.273 0.189,-0.959 0.259,-1.134 0.126,-0.322 0.56,-0.966 1.351,-0.966 0.679,0 0.903,0.532 0.903,0.952 0,0.469 -0.455,1.96 -1.631,1.96 z"
           inkscape:connector-curvature="0" />
        <path
           id="equation_00_02"
           d="m 3.024,-2.947 c 0,-0.14 0,-0.224 -0.168,-0.224 -0.049,0 -0.07,0 -0.182,0.056 -0.014,0.007 -0.105,0.049 -0.133,0.049 -0.007,0 -0.021,0 -0.049,-0.014 -0.287,-0.091 -0.581,-0.091 -0.728,-0.091 -0.203,0 -0.63,0 -0.98,0.189 -0.399,0.224 -0.455,0.588 -0.455,0.749 0,0.756 0.924,0.896 1.414,0.973 0.427,0.063 0.938,0.14 0.938,0.504 0,0.476 -0.693,0.476 -0.861,0.476 -0.665,0 -0.91,-0.301 -1.043,-0.679 -0.042,-0.119 -0.049,-0.133 -0.224,-0.133 -0.203,0 -0.224,0.021 -0.224,0.224 v 0.686 c 0,0.14 0,0.224 0.161,0.224 0.063,0 0.077,0 0.224,-0.091 0.042,-0.021 0.154,-0.084 0.196,-0.112 0.364,0.203 0.742,0.203 0.903,0.203 0.231,0 1.435,0 1.435,-1.036 C 3.248,-1.316 3.08,-1.54 2.919,-1.673 2.59,-1.946 2.289,-1.995 1.708,-2.086 1.309,-2.149 0.896,-2.212 0.896,-2.492 c 0,-0.392 0.7,-0.392 0.847,-0.392 0.791,0 0.819,0.322 0.84,0.49 0.014,0.14 0.056,0.154 0.217,0.154 0.203,0 0.224,-0.021 0.224,-0.224 v -0.483 z"
           inkscape:connector-curvature="0" />
      </defs>
      <g
         id="equation_00_g"
         style="fill:#ff0000">
        <use
           id="use6587"
           y="59.062698"
           xlink:href="#equation_00_01"
           x="78.731697"
           width="744.09448"
           height="1052.3622"
           style="fill:#ff0000" />
        <use
           id="use6589"
           y="59.062698"
           xlink:href="#equation_00_02"
           x="83.4328"
           width="744.09448"
           height="1052.3622"
           style="fill:#ff0000" />
        <rect
           id="rect6591"
           y="60.299999"
           x="78.199997"
           width="9.3503304"
           height="0.399979"
           style="fill:#ff0000" />
        <use
           id="use6593"
           y="66.448402"
           xlink:href="#equation_00_01"
           x="78.199997"
           width="744.09448"
           height="1052.3622"
           style="fill:#ff0000" />
        <use
           id="use6595"
           y="66.448402"
           xlink:href="#equation_00_00"
           x="82.901001"
           width="744.09448"
           height="1052.3622"
           style="fill:#ff0000" />
      </g>
    </g>
  </g>
</svg>
